<?xml version="1.0" encoding="utf-8"?>
<!-- Generator: Adobe Illustrator 13.0.0, SVG Export Plug-In . SVG Version: 6.00 Build 14948)  -->
<!DOCTYPE svg PUBLIC "-//W3C//DTD SVG 1.0//EN" "http://www.w3.org/TR/2001/REC-SVG-20010904/DTD/svg10.dtd">
<svg version="1.0" id="Calque_1" xmlns="http://www.w3.org/2000/svg" xmlns:xlink="http://www.w3.org/1999/xlink" x="0px" y="0px"
	 width="563.408px" height="529.012px" viewBox="0 0 563.408 529.012" enable-background="new 0 0 563.408 529.012"
	 xml:space="preserve">
<path fill="#86BA3A" d="M71.76,116.247c0.019,2.842,0.214,5.807-0.96,7.44c-1.456,2.025-3.875,1.794-4.08,5.28
	c1.281,1.34,2.234,2.552,4.08,3.36c0.946,0.414,2.451,0.59,2.88,1.44c0.337,0.668-0.044,1.602,0.24,2.16
	c0.617,1.212,2.152,1.804,2.88,2.88c1.543,2.28,0.697,5.211,4.56,5.28c1.344-0.934,3.516-0.713,5.28-1.2
	c5.387-1.486,13.549-2.819,19.2-0.72c1.68,3.28,3.36,6.561,5.04,9.84c1.14,1.868,2.722,3.671,3.12,6.24
	c-1.111,1.251-2.31,2.3-2.4,4.56c3.971,2.159,5.055,2.332,6,7.68c0.1,0.565,0.123,2.014-0.24,2.88
	c-0.999,2.387-3.361,3.489-3.6,6.72c5.058,1.025,8.716,3.926,11.04,7.68c0.836,1.35,1.011,2.975,1.92,4.32
	c1.283,1.899,4.681,1.972,5.52,4.32c0.365,0.455,0.43,0.861,0.48,1.68c-1.953,1.891-3.924,3.475-5.04,6.24
	c-5.996,0.44-5.895-4.045-10.08-5.28c-0.655,5.31-8.715,3.781-12.96,3.12c-0.694,2.79-2.893,4.862-4.32,6.96
	c-2.079-1.331-4.471-2.605-7.68-2.88c-2.115,3.081-5.563,3.327-4.32,8.64c5.042,2.869,6.188-1.775,10.32-0.96
	c1.805,0.357,3.822,5.135,3.84,7.68c-2.02,0.292-3.822,1.468-5.52,2.16c-1.997,0.813-3.636,0.984-5.76,1.68
	c-0.95,0.312-2.945,1.304-4.32,0.479c-0.937-0.311-1.791-1.249-2.4-1.92c-1.037-0.015-1.898,0.087-2.64,0.24
	c-3.012,6.339-5.852,13.063-10.56,17.76c-0.24,0-0.48,0-0.72,0c-0.062-1.357-0.688-1.919-0.96-2.88c0.08-1.04,0.16-2.08,0.24-3.12
	c-0.16,0-0.32,0-0.48,0c-1.522,1.272-3.961,1.215-6,0.72c-0.892-1.386-1.656-2.167-1.68-4.56c1.152-1.346,1.942-3.023,3.36-4.08
	c2.854-2.128,7.563-3.881,7.68-8.64c-1.04-0.88-2.08-1.76-3.12-2.64c-2.359-1.495-4.879-2.298-7.68-3.36
	c-0.976-0.37-3.003-1.725-4.56-1.2c-1.61,0.542-1.318,3.177-2.88,3.84c-1.767,0.987-2.207-1.669-2.88-2.64
	c-0.56-0.4-1.12-0.8-1.68-1.2c-0.72,0-1.44,0-2.16,0c-0.287,5.148-3.959,7.92-8.4,8.88c-0.159-1.008-0.204-1.028-1.2-1.2
	c0.067-6.53-5.264-6.488-5.52-12.72c-2.311-0.257-4.703-1.413-6.72-2.16c-5.625-2.082-13.366-3.269-13.2-11.04
	c2.344-2.522,3.942-5.595,5.28-9.12c-0.16,0-0.32,0-0.48,0c-0.912,0.892-3.789,1.654-5.04,0.72c-3.433-1.254-4.253-11.819-4.8-16.32
	c-2.471-0.663-3-2.985-4.32-4.8c-0.589-0.809-2.496-1.4-2.88-1.92c-0.076-0.103-0.48-2.4-0.48-2.4c1.2-1.44,2.4-2.88,3.6-4.32
	c6.695-5.062,14.379-11.862,19.2-18.72c1.464-2.083,2.211-4.515,3.6-6.72c0.858-1.363,2.627-1.434,3.36-2.4
	c1.572-2.075,2.78-5.537,2.88-8.88c3.549-0.734,10.119-4.746,10.08-8.88c0.56,0,1.12,0,1.68,0c0.828-1.305,1.84-4.425,3.12-5.28
	c1.52-0.48,3.04-0.96,4.56-1.44c1.479-0.872,2.637-2.471,4.08-3.36c2.404-1.481,5.873-1.609,8.64-2.64
	c1.175,3.653,5.375,6.73,8.4,8.64c1.777,1.121,5.07,1.953,5.28,4.56C76.203,113.346,76.886,116.089,71.76,116.247z"/>
<path fill="#86BA3A" d="M145.92,212.247c0.364,2.598,3.285,4.36,5.52,5.04c1.64-1.604,6.356-2.594,9.6-1.68
	c4.796,1.351,9.605,4.465,9.6,10.56c4.174,0.532,6.545,5.136,8.881,7.68c-0.08,0-0.16,0-0.24,0c-2.651,5.25-8.44,9.576-10.561,15.36
	c-0.719,1.964,0.616,2.61,0.96,3.84c0.142,0.502-0.724,3.369-0.96,4.08c-0.836,2.517-3.996,5.414-2.88,9.359
	c0.814,2.882,4.013,4.078,4.8,6.961c0.782,2.854-1.916,3.964-0.96,6c-3.221,0.882-6.454,3.337-7.68,6.24
	c-1.15,2.724-0.726,8.457-3.84,9.119c-0.663-0.273-2.469,0.907-4.32,0.479c-2.365-0.549-4.655-1.184-7.68-1.199
	c-0.711-1.979-3.612-4.473-5.52-5.279c-0.891-0.379-1.919,0.004-2.88-0.479c-0.648-0.327-2.406-2.932-3.12-3.602
	c-0.015-1.037,0.086-1.896,0.24-2.641c-0.24,0-0.48,0-0.72,0c-2.202,1.379-9.188-0.828-11.52-0.961
	c-2.75-0.156-5.346-0.029-6.96,0.961c-1.494,0.916-3.593,3.004-6.48,2.398c-1.811-0.379-2.586-1.896-4.32-2.398
	c-0.453,1.604-2.356,6.215-3.84,6.719c-0.797,0.65-1.784,0.399-2.88,0.24c0.127-1.42,0.488-2.009,0.24-3.357
	c-0.535-0.24-0.684-0.367-1.44-0.479c-1.701,1.688-4.048,2.899-6,4.319c-4.802,3.492-9.023,7.805-14.4,10.8
	c-1.903,1.063-7.029,3.534-8.16,2.399c-2.301-1.521-3.867-4.049-5.76-6c0.833-1.582,2.046-1.896,2.16-4.32
	c-1.021-0.584-2.086-1.021-2.16-2.643c2.825-1.938,4.736-5.592,6.24-8.879c2.018-0.264,5.488-1.806,6.24-3.359
	c0.16-0.879,0.32-1.762,0.48-2.641c0.625-0.652,1.869-0.404,2.4-1.199c0.671-1.004,0.527-2.356,1.2-3.358
	c0.588-0.875,1.574-0.743,2.64-1.199c1.691-0.728,3.126-2.14,3.84-3.842c1.946-4.642-0.013-9.104-0.96-13.199
	c-0.691-2.99,1.764-4.285,0.96-7.2c-0.547-1.983-1.875-3.983-2.4-6.24c0.08-1.2,0.16-2.4,0.24-3.6
	c1.967-1.514,4.601-5.028,5.04-7.92c4.286,0.042,8.483-2.444,11.76-3.84c0.826-0.352,2.735-0.473,3.12-1.2c0-0.96,0-1.92,0-2.88
	c-1.308-1.676-2.273-3.991-3.12-6c-1.851-0.054-3.313-0.38-5.04,0.24c-1.828,0.657-3.187,1.669-5.76,1.2
	c-0.299-0.591-0.999-1.341-0.72-2.4c0.438-1.663,3.243-4.715,5.28-4.8c1.118,0.766,2.819,0.547,4.08,1.2
	c0.826,0.428,1.162,1.314,2.16,1.68c1.058-1.438,2.613-2.47,3.6-4.08c0.676-1.102,0.511-2.486,1.92-2.88
	c0.925,0.654,2.2,0.19,3.6,0.48c3.604,0.745,7.636-0.845,8.88-3.36c0.26,0.218,0.021-0.019,0.24,0.24
	c2.01,1.306,3.266,3.718,5.76,4.561c2.305,0.778,4.253-0.271,6.24,0.72C135.61,208.521,138.051,212.16,145.92,212.247z"/>
<path fill="#86BA3A" d="M68.64,237.687c-0.018,2.465,0.896,3.349,1.2,5.52c4.795-0.448,8.177-8.195,9.84-12
	c0.824-1.884,1.357-5.099,3.12-6c0.311-0.21,0.592-0.215,1.2-0.24c0.734,0.778,1.669,1.379,2.4,2.16c0.32,0,0.64,0,0.96,0
	c-0.441,4.71-6.449,5.646-5.04,11.76c0.549,2.385,1.879,4.384,2.4,6.48c0.615,2.477-1.638,4.015-0.96,6.96
	c1.003,4.357,2.79,8.568,0.72,13.2c-1.011,2.263-3.354,2.021-5.28,3.359c-1.3,0.901-1.208,3.043-2.16,4.317
	c-0.461,0.621-1.232,0.287-1.92,0.722c-0.785,0.493-0.861,2.439-1.2,3.358c-1.912,1.169-3.987,2.073-6.24,3.118
	c-0.595,4.638-5.547,6.498-6,9.842c-0.298,0.376-0.154,0.122,0,0.479c0.23,1.289,1.164,1.687,2.16,2.159
	c-0.151,0.423-0.046,0.233-0.24,0.479c-0.474,1.64-1.711,1.63-1.92,3.601c0.408,0.425,0.364,0.92,0.72,1.44
	c1.285,1.877,4.521,3.005,5.04,5.521c-1.354,0.447-2.265,1.668-3.36,2.399c-3.441,2.297-6.946,4.035-10.56,6.238
	c-1.372,0.836-2.707,2.078-4.56,2.398c-0.656-0.969-1.444-1.188-1.68-2.645c4.441-3.271,2.229-10.691,3.6-17.039
	c0-1.119,0-2.238,0-3.359c0.596-2.604,1.77-4.77,2.4-6.959c-2.532-1.662-3.369-5.425-3.36-9.602
	c-2.646-1.713-4.225-4.021-7.68-5.279c-5.694-2.072-14.152-0.483-19.92-2.399c-2.446-0.813-5.133-3.661-7.2-3.84
	c-0.899,0.655-2.389,0.935-3.84,0.96c-0.477-1.006-0.893-1.621-0.96-3.12c1.315-1.274,3.463-3.736,3.84-5.76
	c-0.823-0.903-0.75-1.756-2.4-1.92c-0.456-0.294-1.834-0.376-2.4-0.48c0-0.16,0-0.32,0-0.479c1.652-1.608,2.692-4.151,4.08-6
	c1.065-1.419,3.373-2.16,4.32-3.6c0.326-0.496,0.028-1.002,0.24-1.68c0.545-1.741,1.705-3.437,3.12-4.32
	c4.862-3.032,15.482-1.494,17.52-7.2c1.727-2.301-1.566-5.776,0-7.92c0.542-0.354,1.471-0.234,2.16-0.48
	c1.819-0.648,4.36-1.752,5.52-3.12c0.684-0.807,1.516-2.145,1.92-3.12c0.16-0.8,0.32-1.6,0.48-2.4c0.32,0,0.64,0,0.96,0
	c1.164,1.292,2.172,2.816,3.36,4.08c0.8-0.08,1.6-0.16,2.4-0.24c0.537-0.925,1.346-3.176,2.4-3.6c0.909-0.491,2.68,0.615,3.6,0.959
	c2.901,1.088,9.79,3.292,10.32,6.24c-1.026,1.167-1.638,2.663-2.88,3.6c-2.465,1.859-6.225,3.694-7.68,6.48
	c-1.255,2.403-0.067,6.021,1.92,6.72C64.473,238.727,66.826,237.876,68.64,237.687z"/>
<path fill="#86BA3A" d="M275.519,329.846c-0.121,1.063-0.236,2.25-0.236,3.604c1.628,0.507,2.971,1.784,3.356,3.604
	c-1.564,1.086-2.729,2.957-4.32,4.075c-3.139,2.222-7.32,4.183-9.12,7.685c-1.561-0.332-2.891-1.209-4.316-1.685
	c-2.691-0.892-5.32-0.877-8.16-1.682c-2.08-0.646-4.158-1.279-6.236-1.923c0.027-1.813-0.187-3.16-0.48-4.563
	c-4.586-1.291-6.823-6.619-8.641-10.801c-2.787-6.416-5.457-14.609-12.24-17.039c-2.189-0.785-5.232-0.363-7.68-0.24
	c-0.399-1.201-0.803-2.396-1.199-3.601c-0.836-3.554,1.271-10.7,1.92-13.681c0.77-3.545-0.771-9.033-2.881-9.84
	c-0.403-0.322-0.754-0.396-1.439-0.479c-1.457,1.19-4.041,3.077-6.48,3.12c-0.914-2.48-3.937-3.488-6.479-4.32
	c-2.044-0.668-4.627-0.295-4.8-2.88c0.481-0.663,0.37-1.556,0.72-2.399c0.752-1.813,1.979-3.746,3.12-5.279
	c3.504-4.715,10.696-7.521,16.08-10.318c2.763-1.436,8.854-3.089,8.88-6.96c0.4-1.44,0.801-2.88,1.2-4.32
	c0.796-1.89,2.161-3.901,3.36-5.52c3.521-4.761,9.172-7.291,13.197-11.521c0.159,0,0.319,0,0.479,0
	c0.79,2.511,2.344,4.987,3.116,7.92c0.687,2.581,0.185,5.656,1.44,7.68c1.737,2.792,5.158,4.425,7.44,6.72
	c0.871,0.877,1.41,2.126,2.16,3.12c3.271,4.346,8.649,8.521,13.92,10.8c5.802,2.515,12.883,2.983,18.479,5.761
	c3.469,1.721,6.492,4.576,9.12,7.199c1.943,1.939,2.809,4.281,6.72,4.318c0.704-0.709,1.813-1.105,2.4-1.92
	c1.499-2.047,1.309-3.881,5.04-3.84c0.694,0.569,0.976,0.291,1.2,1.438c-0.695,0.741-0.947,1.938-0.96,3.358
	c0.566,0.614,0.519,1.104,1.438,1.439c1.521,0.986,4.793,0.387,5.521,2.16c0.744,1.25-0.563,3.371-0.96,4.318
	c-1.209,2.869-2.07,5.66-1.44,9.119c5.738,1.528,7.271,7.477,10.08,12c0.939,1.515,2.747,2.852,3.36,4.563
	c-2.44,1.629-3.936,4.502-6.24,6.238c-3.19,2.396-6.188,4.201-10.8,5.279c-3.379,0.789-5.283-2.109-7.2-3.119
	c-3.634-1.914-9.259-2.496-12.48-4.801c-0.647-0.47-0.91-1.539-1.438-2.16c-0.66-0.775-2.398-1.76-3.359-2.16
	c-3.449-1.434-9.157,0.252-9.354,3.602c-0.688,1.157-0.098,3.098-0.48,4.563c-0.399,1.521-1.248,2.156-2.16,3.115
	C276.96,329.686,276.239,329.766,275.519,329.846z"/>
<path fill="#86BA3A" d="M173.04,279.686c-0.096,1.375-0.639,1.754-0.96,2.881c4.218,2.675,8.378,3.777,14.159,1.439
	c1.684-0.681,6.692-3.234,9.357-2.4c0.823,0.262,1.967,1.109,2.883,1.441c1.959,0.707,4.145,0.635,5.76,1.68
	c1.264,0.815,1.58,2.625,3.357,2.879c1.829,1.123,5.014-2.514,6.96-2.879c0.245,0.193,0.066,0.084,0.479,0.24
	c0.527,1.157,1.32,2.566,1.681,3.84c1.388,4.939-1.418,9.709-1.681,14.16c-0.211,3.574-0.143,9.066,2.881,9.359
	c2.547-1.618,6.99,0.271,8.641,1.199c6.879,3.875,8.063,14.277,12.239,20.881c0.874,1.381,2.524,3.363,3.84,4.32
	c0.622,0.453,2.072,0.758,2.4,1.438c0,0.723,0,1.438,0,2.16c0.271,0.402,0.255,1.176,0.237,1.92
	c3.705,1.896,8.869,2.514,13.199,3.84c1.801,0.555,4.743,0.625,5.521,2.16c-1.725,1.23-2.813,3.568-4.08,5.279
	c-3.125,4.224-7.523,8.701-13.439,10.078c-2.439,0.567-5.029-0.332-6.959-0.479c0,0.16,0,0.319,0,0.479
	c0.906,1.392,0.229,3.979-0.24,5.278c-1.527,4.229-4.529,7.035-8.16,9.119c0,0.079,0,0.159,0,0.239c0.08,0,0.16,0,0.24,0
	c2.131,3.064,8.42,3.371,8.642,8.158c-2.718,3.068-2.55,12.271-5.28,15.117c-2.427-1.932-5.588-3.104-8.398-4.559
	c-0.697-0.361-1.864-1.543-3.119-1.201c-1.086,0.297-2.553,1.309-3.84,1.682c-2.723,0.398-5.439,0.803-8.16,1.199
	c-0.803,0.262-3.213,1.787-3.602,1.438c-1.256-0.774-2.597-1.901-4.078-2.397c-2.65-0.883-6.324,0.021-8.16,0.721
	c-4.908,1.867-8.73,4.742-13.439,6.48c-2.273,0.838-4.814,0.332-7.439,0.959c-2.224,0.527-4.343,1.252-6.24,2.16
	c0-0.16,0-0.32,0-0.48c2.58-3.231-1.75-8.607-2.397-10.316c1.42-1.604-0.28-4.846,0.24-6.96c0.094-0.384,0.731-1.208,0.72-1.683
	c0-0.08,0-0.158,0-0.237c-0.08,0-0.16,0-0.24,0c-0.396-2.625-4.259-4.396-6-6c-0.103-6.618,1.695-10.767,2.16-16.08
	c-0.808-0.576-1.32-1.642-2.16-2.16c-1.894-1.173-5.973-0.733-8.88-0.72c0-0.16,0-0.319,0-0.479c-0.595-0.882-0.35-1.911-0.72-3.12
	c-0.734-2.396-2.13-4.805-4.08-6c-2.746-1.687-9.275-1.598-12.72-0.479c-1.129,0.364-3.212,1.754-4.08,1.438
	c-2.155-2.193-2.247-6.623-3.6-9.603c3.603-2.796,8.083-9.304,8.16-15.603c0.821-0.561,0.967-1.201,2.16-1.438
	c1.408,0.93,5.293,0.021,6.48-0.479c4.603-1.927,7.568-5.639,11.28-8.397c1.523-1.134,3.354-1.104,3.36-3.841
	c-0.654-1.002-0.027-4.131,0.24-5.278c0.526-2.271,0.396-3.873,1.2-5.761c0.857-2.014,2.623-3.764,3.36-5.762
	c-0.527-0.561-3.135-4.395-3.36-5.039c2.461-1.729,2.057-4.943,3.12-8.16C163.698,283.68,168.214,279.67,173.04,279.686z"/>
<path fill="#86BA3A" d="M133.68,283.286c-0.023,0.741-0.034,1.519,0.24,1.92c0.625,1.862,2.505,1.925,2.88,4.08
	c4.661-0.054,7.356,3.146,9.12,6c2.585-0.515,5.23,0.442,7.44,0.96c1.52,0,3.04,0,4.56,0c0.825,1.277,2.248,3.01,3.36,4.08
	c-0.58,1.826-2.129,3.307-2.88,5.04c-1.471,3.397-2.151,8.483-1.68,12.96c-5.743,3.359-9.168,9.07-16.56,10.801
	c-1.6-0.08-3.2-0.16-4.8-0.24c-0.669,1.813-1.913,1.479-1.92,4.319c-0.633,0.997-0.486,2.478-0.96,3.601
	c-0.63,1.492-1.699,3.227-2.64,4.563c-0.629,0.896-3.256,4.348-4.08,4.801c-1.086,0.603-1.774,0.457-2.4,1.438
	c-1.18,1.854-0.469,5.393-1.68,7.201c-1.08,1.61-3.221,2.213-4.8,3.356c-1.302,0.942-2.143,2.54-3.12,3.84
	c-0.673,0.896-1.836,1.39-2.64,2.16c-0.48,0-0.96,0-1.44,0c0,1.356,0,2.724,0,4.079c-3.227,0.07-8.025,2.447-10.8,1.684
	c-1.23-0.345-2.302-1.356-3.12-2.16c0-0.16,0-0.317,0-0.479c-0.72,0-1.44,0-2.16,0c-1.506-0.353-6.132-1.071-6.96-1.92
	c-0.498-0.511-1.711-5.604-2.4-6.722c-1.646-2.668-4.337-2.651-4.32-6.961c-1.626-2.438-1.915-5.697-2.4-8.642
	c-0.708-0.438-1.398-1.009-2.4-1.2c-0.48,0.079-0.96,0.159-1.44,0.238c-2.082-0.536-2.294-2.354-5.28-2.396
	c-0.45,0.385-1.399,0.637-1.68,0.479c-4.238-2.189-8.891-9.33-8.88-16.08c-2.316-1.464-7.222-5.063-7.68-8.159
	c5.119-2.254,9.88-5.389,14.4-8.397c1.214-0.812,3.367-3.139,4.56-3.603c0.56,0.08,1.12,0.159,1.68,0.239
	c3.706-1.063,8.519-4.13,11.52-6.239c3.707-2.604,7.084-5.706,10.8-8.399c1.409-1.021,2.518-2.775,4.56-3.118
	c0,0.157,0,0.317,0,0.479c-0.438,0.512-0.703,1.711-0.48,2.158c0.269,0.688,0.042,0.441,0.72,0.723c0.778,0.666,2.789,0.631,3.6,0
	c2.711-1.025,2.311-5.646,4.32-6.24c1.104,1.57,3.962,2.468,6.72,1.681c2.18-0.622,3.497-2.548,5.76-3.12
	c2.591-0.654,5.863,0.282,7.68,0.721C128.384,283.381,130.884,283.309,133.68,283.286z"/>
<path fill="#86BA3A" d="M343.919,333.686c0.139,3.408,4.863,10.043,3.12,12.479c-1.077,1.071-2.652,1.417-4.08,2.16
	c-3.026,1.575-6.401,3.625-8.16,6.479c-2.045,3.313,0.158,10.271-1.438,14.157c-1.531,3.736-6.099,6.254-9.116,8.642
	c-0.707,0.562-0.903,1.649-1.44,2.397c-0.987,1.381-2.697,3.088-4.08,4.08c-3.699,2.659-8.603,4.592-12.96,6.479
	c-1.704,0.736-4.042,0.695-4.317,2.883c-0.682,1.254,1.009,3.024,1.199,4.563c-1.632,1.305-2.078,3.854-3.355,5.521
	c-0.563,0.399-1.12,0.801-1.685,1.199c-6.205-0.043-16.253-1.164-21.122,0.479c-0.021,2.455-1.112,3.563-1.438,5.762
	c-4.563,0.803-9.12,1.604-13.682,2.398c-4.508,1.021-9.909,0.223-14.642,0.236c-1.459-2.248-3.847-4.447-6-6
	c-1.512-1.088-4.046-1.808-4.317-4.078c1.082-1.252,1.101-3.271,1.681-5.041c0.733-2.243,1.295-4.866,2.16-7.197
	c0.493-1.335,1.263-2.396,1.438-4.08c-0.944-0.982-1.294-2.531-2.397-3.355c-1.746-1.311-4.502-2.063-5.76-3.842
	c3.068-1.021,9.149-8.318,7.68-12.961c0.881,0,1.761,0,2.641,0c2.463,1.286,7.749-1.966,9.12-2.882
	c7.798-5.206,10.876-14.313,18-19.438c2.558-1.842,8.755-4.787,8.88-8.642c-0.279-0.327-0.217-0.806-0.479-1.198
	c-0.479-0.714-2.625-1.668-2.884-2.16c0-0.563,0-1.119,0-1.681c5.452-0.696,3.606-5.416,5.28-9.842c3.148-2.048,6-3.104,9.604-0.479
	c0.938,0.688,1.271,2.188,2.154,2.881c2.438,1.9,8.354,2.943,11.521,4.32c2.176,0.94,4.063,3.211,6.24,3.84
	c2.213,0.641,5.129-0.445,6.479-0.961c5.585-2.123,11.404-6.629,14.4-11.277c0.236,0.078,0.479,0.158,0.72,0.238
	c0.146,0.414,0.214,0.756,0.24,1.438c-0.795,0.813-1.777,2.222-1.92,3.603c0.52,0.75,0.479,1.813,0.96,2.644
	c1.468,2.521,3.333,5.108,5.276,7.196C340.102,334.84,341.269,333.803,343.919,333.686z"/>
<path fill="#86BA3A" d="M110.64,369.206c0-1.36,0-2.72,0-4.079c3.721-0.521,4.485-4.447,6.96-6.24c1.939-1.4,4.617-2.174,5.52-4.561
	c0.74-1.957,0.465-4.557,1.2-6.24c0.594,0.116,0.884,0.207,1.68,0.24c0.416,4.172,2.24,7.377,4.08,10.08
	c4.194-2.473,14.645-4.98,18.24,0c0.988,1.367,1.841,7.041,2.88,7.68c1.439,0.865,4.368-0.184,6.24,0.24
	c2.247,0.507,2.814,1.393,4.32,2.4c-1.646,4.521-2.563,10.696-1.92,16.56c2.066,1.334,4.076,3.048,5.76,4.8
	c-0.054,0.854-0.345,1.361-0.48,1.92c-0.208,0.857,0.137,2.154,0.24,2.641c0.449,2.125-0.368,3.951-0.72,5.279
	c1.758,1.125,4.036,4.846,3.12,8.4c-0.278,1.083-0.964,1.721-1.2,2.88c1.253,0.028,1.895-0.138,2.64-0.479
	c0.305,1.035,0.492,2.229,0.479,3.84c0.371,0.563,0.143,1.027,0,1.686c-0.479,0-0.96,0-1.439,0
	c-0.242-0.188-0.063-0.085-0.479-0.236c0,0.077,0,0.156,0,0.236c1.623,0.979,4.561,3.005,4.801,5.277
	c-0.832,0.854-1.39,1.969-2.397,2.643c-1.9,1.271-4.095,1.894-5.28,3.843c-0.927,1.521,0.022,4.988-0.96,6.479
	c-1.625,2.462-5.142,3.438-7.68,5.04c-2.795,1.757-5.117,4.2-7.68,6.234c-2.066,1.646-5.723,8.129-7.68,8.884
	c-2.476-3.729-5.256-4.125-5.28-10.804c-1.149-0.629-2.794-0.816-2.88-2.641c-5.953,0.104-13.715,1.903-19.68,0.24
	c-1.601-0.446-3.676-1.069-5.04-1.921c-1.104-0.688-1.685-2.059-3.12-2.399c-1.755,1.352-4.372,1.737-6.24,2.881
	c-2.41,1.476-5.028,2.926-7.44,4.563c-0.708,0.479-1.193,1.396-2.16,1.681c-2.81,0.813-6.52-1.518-7.44-2.88
	c-0.761-1.129-1.518-4.032-0.96-6.239c0.212-0.842,1.305-3.127,0.96-3.601c-0.867-3.195-4.492-4.616-7.92-5.28
	c-0.13-1.604-0.911-2.313-1.2-3.602c-0.374-1.656,0.451-2.298-0.48-3.603c-2.854-3.998-6.733-2.146-6.24-9.842
	c-9.579,0.32-12.73-1.223-17.76-6c-0.979-0.934-2.124-1.479-2.88-2.643c0.505-0.435,0.48-0.699,0.48-1.681
	c4.015,0.073,8.428-0.448,10.8-2.159c0.984-0.712,1.547-2.021,2.4-2.882c0.25-4.491-1.333-3.696-2.16-6.959
	c1.054-0.678,1.639-1.647,1.68-3.36c-0.607-0.742-1.171-1.871-1.44-2.879c2.685-1.847,4.069-5.507,6.72-7.438
	c1.453-1.063,3.973-1.176,4.08-3.604c-0.6-0.84-0.629-2.006-1.2-2.881c-0.896-1.373-2.308-2.063-2.64-4.08
	c1.395-0.998,2.757-4.662,2.16-7.438c-1.059-4.926-1.788-10.729-0.72-15.602c0.08,0,0.16,0,0.24,0c0.4,0.467,0.346,0.398,1.2,0.479
	c0.615-1.021,1.559-1.369,3.12-1.438c0.816,0.822,2.438,2.043,3.6,2.396c1.18,0.363,2.037-0.587,3.12,0.725
	c0.195,0.504-0.118,2.264,0.24,3.354c1.079,3.304,2.095,3.243,1.92,7.921c2.254,1.105,4.243,3.006,5.28,5.277
	c0.658,1.441,0.878,4.949,2.16,5.764c1.554,1.396,4.883,1.604,7.2,2.156c0.56,0,1.12,0,1.68,0c1.183,0.555,1.745,2.193,3.36,2.645
	C101.757,371.811,106.803,369.243,110.64,369.206z"/>
<text transform="matrix(1 0 0 1 48.4785 179.1426)" font-family="'MyriadPro-Regular'" font-size="12">Nefza</text>
<text transform="matrix(1 0 0 1 94.9736 255.8105)" font-family="'MyriadPro-Regular'" font-size="12">Béja Nord</text>
<text transform="matrix(1 0 0 1 77.3066 324.2246)" font-family="'MyriadPro-Regular'" font-size="12">Béja Sud</text>
<text transform="matrix(1 0 0 1 28.751 260.5869)" font-family="'MyriadPro-Regular'" font-size="12">Amdoun</text>
<text transform="matrix(1 0 0 1 175.2158 357.5586)" font-family="'MyriadPro-Regular'" font-size="12">Testour</text>
<text transform="matrix(1 0 0 1 76.418 408.1836)" font-family="'MyriadPro-Regular'" font-size="12">Téboursouk</text>
<text transform="matrix(1 0 0 1 234.8115 304.9619)" font-family="'MyriadPro-Regular'" font-size="12">Medjez el-Bab</text>
<text transform="matrix(1 0 0 1 257.124 375.7383)" font-family="'MyriadPro-Regular'" font-size="12">Goubellat</text>
<text transform="matrix(1 0 0 1 64.3369 523.0117)" font-family="'MyriadPro-Regular'" font-size="24">Gouvernorat de Béja</text>
<g>
	<g id="XMLID_1_">
		<g>
			<polygon fill="#86BA3A" points="513.902,26.945 513.977,27.17 513.887,27.245 513.781,27.305 513.677,27.41 513.017,27.815 
				512.611,28.13 512.313,28.415 512.086,28.73 511.996,28.94 511.966,29.045 511.892,29.225 511.816,29.33 511.711,29.451 
				511.591,29.555 511.336,29.84 511.188,30.125 511.021,30.62 510.946,30.71 510.631,30.665 510.271,30.68 509.491,30.8 
				508.951,30.965 508.563,31.115 508.142,31.295 507.527,31.655 507.302,31.73 506.866,31.775 506.671,31.701 506.416,31.49 
				506.146,31.16 505.906,30.951 505.816,30.92 505.711,30.83 505.291,30.635 504.871,30.545 504.527,30.53 504.196,30.56 
				504.076,30.56 503.461,30.605 502.996,30.68 502.517,30.875 502.307,31.025 501.946,31.49 501.571,32.076 500.986,33.125 
				500.911,33.23 500.807,33.305 500.581,33.26 500.251,33.11 499.921,32.885 499.605,32.721 498.977,32.27 498.571,32.045 
				498.211,32.015 498.001,32.06 497.566,32.18 497.236,32.285 497.131,32.3 496.741,32.48 496.381,32.615 496.126,32.66 
				495.902,32.63 495.691,32.465 495.376,32.165 494.191,30.98 493.771,30.62 493.576,30.53 493.666,30.471 494.177,30.23 
				494.267,30.11 494.313,29.826 494.313,29.39 494.355,28.85 494.446,28.655 494.597,28.46 494.896,28.145 495.001,28.055 
				495.166,27.86 495.166,27.74 494.927,26.826 494.807,26.48 494.642,26.09 494.177,25.205 494.116,25.115 493.802,24.77 
				493.727,24.665 493.682,24.26 493.682,23.975 493.786,23.346 493.876,22.385 493.786,22.28 493.081,21.846 492.977,21.846 
				492.677,21.785 492.361,21.77 492.121,21.725 491.911,21.71 491.566,21.635 491.313,21.455 491.131,21.26 491.296,20.93 
				491.371,20.84 491.461,20.615 491.432,20.405 491.446,20.195 491.581,19.91 492.227,19.385 492.376,19.326 492.691,19.04 
				492.767,18.92 492.796,18.815 492.796,18.71 492.691,18.5 492.557,18.275 492.466,18.201 492.137,17.75 491.791,17.375 
				491.566,17.18 491.086,16.655 491.041,16.445 491.102,16.355 491.206,16.295 491.416,16.25 491.911,16.1 492.031,16.01 
				492.046,15.92 492.031,15.83 491.927,15.62 491.597,15.35 491.521,15.26 491.177,14.945 490.756,14.69 491.355,14.135 
				491.821,13.701 492.076,13.46 492.496,12.98 492.541,12.77 492.887,12.275 492.871,12.23 492.751,12.245 492.751,12.14 
				493.097,11.975 493.291,11.885 493.427,11.705 493.711,11.525 493.906,11.315 494.086,11.24 494.161,11.12 494.506,10.925 
				494.821,10.85 495.241,10.655 495.286,11.12 495.271,11.315 495.331,11.826 495.256,12.155 495.137,12.44 495.076,12.86 
				495.121,13.34 495.196,13.64 495.271,13.76 495.496,13.865 495.722,13.88 496.142,13.895 496.996,13.835 497.206,13.85 
				497.432,13.895 497.626,14.015 497.746,14.12 497.881,14.315 498.076,14.75 498.438,15.89 498.602,16.235 498.871,16.58 
				499.006,16.88 499.097,17.36 499.216,17.555 500.027,18.275 500.236,18.485 500.688,18.725 501.063,18.8 501.557,18.965 
				501.767,19.07 501.887,19.145 502.006,19.19 502.216,19.385 502.23,19.715 502.216,19.94 502.142,20.27 501.991,20.645 
				501.961,20.78 501.887,20.885 501.871,20.99 501.751,21.23 501.677,21.53 501.661,21.65 501.691,21.875 501.751,22.01 
				501.855,22.221 502.066,22.43 502.396,22.685 502.727,22.85 503.041,22.895 503.267,22.865 503.387,22.805 503.821,22.445 
				503.881,22.355 504.706,21.5 504.826,21.41 505.006,21.215 505.246,21.035 505.427,20.81 505.816,20.451 506.057,20.27 
				506.146,20.18 506.402,20.045 506.656,19.985 507.137,20.42 507.331,20.645 507.751,21.035 508.097,21.395 508.563,21.8 
				508.682,21.86 509.236,22.295 509.597,22.475 510.855,22.865 511.066,22.88 511.277,22.835 511.486,22.835 511.591,22.865 
				511.682,22.955 511.771,23.165 511.771,23.255 511.921,23.705 512.116,24.08 512.191,24.185 512.313,24.41 512.762,25.34 
				513.602,26.465 			"/>
		</g>
		<g>
			<polygon fill="none" stroke="#666666" stroke-width="0.25" stroke-linejoin="round" stroke-miterlimit="3.8637" points="
				491.866,0.125 491.956,0.14 492.091,0.29 492.271,0.41 492.286,0.576 492.121,0.755 492.031,0.785 491.821,0.695 491.161,0.89 
				490.906,0.83 490.861,0.755 490.892,0.65 491.236,0.425 491.611,0.395 491.701,0.35 491.762,0.201 			"/>
			<polygon fill="none" stroke="#666666" stroke-width="0.25" stroke-linejoin="round" stroke-miterlimit="3.8637" points="
				512.326,9.155 512.326,9.02 512.491,8.721 512.611,8.6 512.762,8.585 512.716,8.855 512.611,9.02 			"/>
			<polygon fill="none" stroke="#666666" stroke-width="0.25" stroke-linejoin="round" stroke-miterlimit="3.8637" points="
				536.716,11.826 536.642,11.78 536.656,11.57 536.836,11.435 536.866,11.27 537.001,11.225 537.106,11.48 537.316,11.75 
				537.211,11.826 			"/>
			<polygon fill="none" stroke="#666666" stroke-width="0.25" stroke-linejoin="round" stroke-miterlimit="3.8637" points="
				538.727,12.08 538.756,12.17 538.682,12.23 538.591,12.17 538.621,12.096 			"/>
			<polygon fill="none" stroke="#666666" stroke-width="0.25" stroke-linejoin="round" stroke-miterlimit="3.8637" points="
				542.432,48.665 542.281,48.635 542.222,48.545 542.267,48.455 542.446,48.23 542.688,48.245 542.807,48.5 542.656,48.605 			"/>
			<polygon fill="none" stroke="#666666" stroke-width="0.25" stroke-linejoin="round" stroke-miterlimit="3.8637" points="
				541.981,49.4 541.786,49.175 541.876,49.085 541.996,49.13 542.041,49.221 			"/>
			<polygon fill="none" stroke="#666666" stroke-width="0.25" stroke-linejoin="round" stroke-miterlimit="3.8637" points="
				542.762,52.971 542.611,52.88 542.281,52.79 542.222,52.715 542.251,52.625 542.491,52.701 542.791,52.91 			"/>
			<polygon fill="none" stroke="#666666" stroke-width="0.25" stroke-linejoin="round" stroke-miterlimit="3.8637" points="
				549.271,75.635 549.137,75.59 549.091,75.471 549.046,75.35 549.166,75.32 549.361,75.53 549.722,75.695 549.571,75.755 
				549.392,75.74 			"/>
			<polygon fill="none" stroke="#666666" stroke-width="0.25" stroke-linejoin="round" stroke-miterlimit="3.8637" points="
				547.006,76.235 546.887,76.13 546.916,76.07 547.052,76.055 547.171,76.19 547.262,76.295 547.216,76.326 			"/>
			<polygon fill="none" stroke="#666666" stroke-width="0.25" stroke-linejoin="round" stroke-miterlimit="3.8637" points="
				549.063,77.12 549.031,77.15 548.836,77.03 548.731,76.91 548.731,76.835 548.807,76.82 548.852,76.94 			"/>
			<polygon fill="none" stroke="#666666" stroke-width="0.25" stroke-linejoin="round" stroke-miterlimit="3.8637" points="
				549.121,77.615 549.076,77.435 549.152,77.3 549.361,77.18 549.826,77.195 549.871,77.255 549.841,77.315 549.557,77.315 
				549.331,77.375 549.182,77.585 			"/>
			<polygon fill="none" stroke="#666666" stroke-width="0.25" stroke-linejoin="round" stroke-miterlimit="3.8637" points="
				545.746,78.005 545.716,77.945 545.671,77.795 545.688,77.795 545.716,77.705 545.866,77.75 545.896,77.285 545.807,77.165 
				545.852,77.12 546.046,77.21 546.076,77.451 546.152,77.54 546.557,77.69 546.902,77.66 547.097,77.765 547.142,77.735 
				547.111,77.63 547.066,77.525 547.231,77.451 547.171,77.27 547.216,76.955 547.097,76.835 546.991,76.715 546.946,76.655 
				546.946,76.55 547.171,76.565 547.216,76.535 547.563,76.235 547.517,76.07 547.486,75.92 547.637,75.74 547.563,75.665 
				547.546,75.56 547.652,75.44 547.652,75.32 547.816,75.38 548.012,75.471 548.177,75.755 548.222,75.846 548.236,75.905 
				548.313,75.995 548.371,75.995 548.432,75.935 548.432,75.77 548.267,75.68 548.326,75.576 548.432,75.59 548.642,75.77 
				548.896,75.77 549.361,76.025 549.331,76.1 549.166,76.1 549.017,75.98 548.896,75.98 548.716,76.085 548.731,76.221 
				548.671,76.25 548.626,76.326 548.671,76.4 548.671,76.55 548.701,76.61 548.611,76.685 548.477,76.73 548.387,76.64 
				548.371,76.865 548.387,77.045 548.731,77.285 548.911,77.48 548.986,77.69 548.986,77.885 548.941,77.96 548.611,77.96 
				548.461,78.005 548.267,78.14 548.071,78.305 547.802,78.305 547.786,78.455 547.711,78.515 546.751,78.846 546.451,78.905 
				545.927,79.16 545.836,79.28 545.821,79.31 545.688,79.4 545.446,79.475 545.206,79.64 544.951,79.715 544.802,79.835 
				544.756,79.82 544.727,79.82 544.696,79.49 544.876,79.221 544.906,79.04 544.981,78.875 545.146,78.8 545.313,78.665 
				545.477,78.335 545.731,78.08 545.762,78.05 			"/>
			<polygon fill="none" stroke="#666666" stroke-width="0.25" stroke-linejoin="round" stroke-miterlimit="3.8637" points="
				542.131,80.826 542.012,80.81 541.786,80.69 541.486,80.435 541.081,80.255 540.977,80.195 541.307,79.85 541.352,79.805 
				541.517,79.73 542.716,79.67 542.881,79.76 543.091,79.67 543.421,79.67 543.841,79.655 543.977,79.745 544.352,79.76 
				544.563,79.82 544.546,79.955 544.546,80.03 544.501,80.06 544.188,80.12 543.631,80.525 543.106,81.05 542.972,81.05 
				542.866,81.11 542.852,81.245 542.807,81.275 542.506,80.945 542.371,80.855 			"/>
			<polygon fill="none" stroke="#666666" stroke-width="0.25" stroke-linejoin="round" stroke-miterlimit="3.8637" points="
				536.146,107.03 536.267,107.06 536.313,107.24 536.236,107.285 			"/>
			<polygon fill="none" stroke="#666666" stroke-width="0.25" stroke-linejoin="round" stroke-miterlimit="3.8637" points="
				539.656,107.255 539.326,107.39 539.086,107.615 539.012,107.735 538.876,108.62 538.741,108.53 538.501,107.9 538.517,107.721 
				538.666,107.48 538.756,107.3 538.652,107.105 538.517,106.865 537.616,105.8 537.451,105.74 537.211,105.725 537.076,105.77 
				536.866,105.951 536.731,106.01 536.581,106.1 536.506,106.4 536.506,106.685 536.177,106.596 536.041,106.685 535.906,106.701 
				535.756,106.596 535.531,106.221 535.396,106.13 535.262,105.68 535.081,105.35 535.142,105.14 535.142,104.855 535.142,104.795 
				535.277,104.645 535.456,104.33 535.517,104.09 535.486,103.221 535.517,103.04 535.441,102.515 535.486,102.305 
				535.517,102.185 535.441,101.69 535.501,101.585 535.652,101.51 535.831,101.435 536.371,101.315 536.626,101.225 
				537.227,101.285 537.557,101.375 538.366,101.721 538.756,101.81 539.536,101.81 539.972,101.96 540.046,101.75 539.986,101.555 
				539.986,101.42 540.152,101.435 540.196,101.435 540.392,101.6 540.887,102.201 541.188,102.455 542.161,103.145 542.777,103.16 
				542.986,103.175 543.166,103.265 543.241,103.415 543.121,103.655 543.182,103.76 543.331,104.076 543.256,104.165 
				543.182,104.165 543.031,104.015 542.986,104.076 543.046,104.18 543.196,104.255 543.241,104.33 543.241,104.54 
				543.196,104.585 542.956,104.57 542.581,104.75 542.281,105.096 542.222,105.17 541.546,105.44 541.531,105.455 541.456,105.485 
				541.291,105.65 541.142,105.98 541.036,106.49 541.021,107.09 540.902,107.225 540.871,107.06 540.826,106.82 540.887,106.34 
				540.796,106.13 540.706,106.025 540.541,106.1 540.392,106.295 540.121,106.895 539.941,106.971 539.941,106.985 			"/>
			<polygon fill="none" stroke="#666666" stroke-width="0.25" stroke-linejoin="round" stroke-miterlimit="3.8637" points="
				538.427,109.715 538.381,109.445 538.441,109.4 538.517,109.4 538.563,109.49 538.517,109.61 			"/>
			<polygon fill="none" stroke="#666666" stroke-width="0.25" stroke-linejoin="round" stroke-miterlimit="3.8637" points="
				536.927,111.935 537.046,112.1 537.063,112.221 536.927,112.4 536.852,112.355 536.881,112.221 536.852,112.055 536.807,111.98 
				536.807,111.92 			"/>
			<polygon fill="none" stroke="#666666" stroke-width="0.25" stroke-linejoin="round" stroke-miterlimit="3.8637" points="
				544.906,115.73 544.517,115.1 544.546,114.965 544.981,115.445 545.012,115.58 			"/>
			<polyline fill="none" stroke="#666666" stroke-width="0.25" stroke-linejoin="round" stroke-miterlimit="3.8637" points="
				449.836,16.715 450.211,16.34 450.571,16.055 450.796,15.77 451.081,15.32 451.216,14.735 451.171,14.451 450.977,14.27 
				450.902,14.12 450.347,13.835 450.091,13.64 449.941,13.61 449.821,13.49 			"/>
			<polyline fill="none" stroke="#666666" stroke-width="0.25" stroke-linejoin="round" stroke-miterlimit="3.8637" points="
				449.836,12.905 450.137,12.695 450.406,12.77 450.631,12.77 450.991,12.875 451.171,13.025 451.411,13.1 451.411,13.115 
				451.486,13.221 451.682,13.221 451.802,13.16 451.892,13.025 451.861,12.92 452.146,12.875 452.341,12.965 452.807,13.19 
				453.031,13.265 453.271,13.25 453.616,13.1 453.855,13.115 453.977,12.995 453.961,12.815 454.126,12.785 454.188,12.725 
				454.336,12.755 454.427,12.846 454.546,12.875 454.441,13.115 454.277,13.31 454.291,13.43 454.486,13.64 454.621,13.701 
				454.741,13.76 454.892,13.94 455.041,13.971 455.446,13.94 455.791,13.835 456.227,13.79 456.466,13.805 456.767,13.91 
				457.081,13.925 457.23,13.985 457.517,14.225 457.741,14.525 457.906,14.66 458.281,14.93 458.402,15.215 459.406,15.89 
				459.751,16.025 460.081,16.085 460.246,16.04 460.517,16.055 460.786,15.8 460.847,15.68 460.906,15.71 460.876,15.785 
				460.98,15.905 461.236,15.951 461.326,15.86 461.416,15.875 461.491,16.01 461.716,16.16 461.836,16.1 461.911,16.1 
				461.956,16.415 462.017,16.49 462.182,16.46 462.406,16.355 463.23,16.295 463.517,16.235 463.576,16.175 463.741,16.01 
				463.876,15.951 464.012,15.951 464.102,16.01 464.102,16.1 463.892,16.295 463.861,16.46 463.696,16.55 463.456,17.06 
				463.472,17.18 463.831,17.69 463.861,17.795 463.727,17.975 463.456,18.38 463.456,18.5 463.666,18.68 463.996,18.98 
				464.251,19.145 465.571,19.49 466.696,19.49 467.597,19.37 467.746,19.385 467.941,19.505 467.986,19.355 468.438,19.16 
				469.996,18.74 470.688,18.35 471.182,18.201 471.347,18.125 471.541,18.02 472.216,17.585 472.861,17.36 473.236,17.135 
				473.656,16.94 473.927,16.745 474.241,16.701 474.527,16.505 474.646,16.475 474.691,16.475 474.855,16.46 474.932,16.58 
				474.946,16.835 475.036,16.895 475.456,16.955 475.546,17.015 475.563,17.105 475.517,17.255 475.576,17.315 475.996,17.435 
				476.762,17.36 477.017,17.3 477.227,17.3 477.316,17.346 477.661,17.33 477.691,17.315 477.916,17.27 478.126,17.42 
				478.771,17.405 478.951,17.54 479.206,17.885 479.521,17.93 479.746,17.84 479.881,17.855 480.046,17.945 480.241,17.9 
				480.406,17.93 480.586,17.84 481.097,17.795 481.411,17.75 481.741,17.585 482.012,17.42 482.355,17.285 482.402,17.27 
				482.416,17.27 483.631,16.94 483.813,16.745 483.902,16.745 484.081,16.895 484.472,16.85 484.652,16.701 			"/>
			<polyline fill="none" stroke="#666666" stroke-width="0.25" stroke-linejoin="round" stroke-miterlimit="3.8637" points="
				555.286,121.64 555.571,121.88 555.916,122.165 556.381,122.885 556.727,123.08 557.012,123.11 557.177,123.365 557.491,123.515 
				558.046,123.665 558.392,123.65 560.116,124.04 560.566,124.07 561.017,124.175 561.063,123.92 560.671,123.74 560.146,123.59 
				559.892,123.365 559.396,123.17 559.171,123.125 558.977,123.215 558.646,122.975 558.421,122.855 558.316,122.63 
				558.736,122.81 559.052,122.915 559.861,123.185 560.356,123.38 560.566,123.545 561.227,123.875 562.366,124.31 563.131,124.61 
				563.341,124.745 			"/>
			<polyline fill="none" stroke="#666666" stroke-width="0.25" stroke-linejoin="round" stroke-miterlimit="3.8637" points="
				484.666,16.701 485.491,16.31 486.121,16.115 486.211,15.965 486.302,15.965 486.361,16.115 486.661,16.1 486.841,16.04 
				486.946,15.951 487.052,15.965 487.23,16.13 487.396,16.07 487.517,16.175 487.696,16.445 488.102,16.355 488.671,16.13 
				489.091,15.846 489.347,15.695 489.855,15.425 490.563,14.87 490.756,14.69 491.355,14.135 491.821,13.701 492.076,13.46 
				492.496,12.98 492.541,12.77 492.887,12.275 492.871,12.23 492.751,12.245 492.751,12.14 493.097,11.975 493.291,11.885 
				493.427,11.705 493.711,11.525 493.906,11.315 494.086,11.24 494.161,11.12 494.506,10.925 494.821,10.85 495.241,10.655 
				495.256,10.655 495.557,10.64 496.246,10.505 496.352,10.415 496.486,10.31 496.966,10.055 497.146,9.92 497.267,9.695 
				497.536,9.44 497.807,8.96 498.017,8.735 498.361,8.6 498.466,8.48 498.586,8.465 498.781,9.005 498.855,9.05 499.052,9.05 
				499.531,9.065 499.652,8.975 499.966,8.96 500.461,8.705 500.597,8.735 501.256,8.721 501.557,8.645 501.691,8.57 502.563,8.105 
				502.711,8 502.802,7.835 503.071,7.79 503.251,7.715 503.341,7.67 503.807,7.685 504.256,7.85 504.631,7.82 505.111,7.625 
				506.341,6.83 506.626,6.695 506.777,6.695 506.866,6.725 507.121,6.995 507.316,7.01 507.421,6.935 507.826,6.815 508.142,6.665 
				508.621,6.335 509.131,5.87 509.341,5.87 509.506,5.765 509.581,5.765 509.656,5.855 509.836,5.87 509.986,5.78 510.152,5.855 
				510.527,5.885 510.902,5.75 511.262,5.555 511.411,5.57 511.563,5.525 511.652,5.795 511.816,5.945 512.027,6.035 512.236,6.08 
				512.611,6.08 512.911,5.975 513.211,5.885 513.512,5.885 513.751,5.945 514.188,5.93 514.321,6.755 514.441,6.965 514.411,7.16 
				514.517,7.295 514.501,7.415 514.501,7.625 514.486,7.625 514.396,7.701 514.366,7.73 514.246,7.82 514.231,7.835 513.991,7.82 
				513.887,7.88 514.021,8.015 513.661,8.15 513.527,8.27 513.406,8.24 513.316,8.24 513.256,8.33 513.091,8.405 513.091,8.51 
				512.927,8.42 512.777,8.42 512.461,8.54 512.236,8.525 512.131,8.51 512.146,8.6 512.177,8.81 512.131,8.975 512.086,8.99 
				511.906,8.855 511.892,8.855 511.741,9.005 511.816,9.125 511.831,9.125 511.892,9.125 512.012,9.215 512.116,9.471 
				512.236,9.395 512.356,9.41 512.356,9.5 512.222,9.951 512.236,10.115 512.313,10.235 512.701,10.355 512.731,10.46 
				512.896,10.535 512.821,10.88 512.852,11.045 512.941,11.15 513.271,11.255 513.586,11.3 513.871,11.285 514.036,11.346 
				514.277,11.375 514.381,11.33 514.591,11.105 514.861,10.88 515.116,10.835 515.371,10.61 515.688,10.115 515.836,9.785 
				515.881,9.515 515.852,9.275 515.746,8.99 515.611,8.915 515.027,8.9 514.696,8.855 514.231,8.69 514.066,8.721 513.856,8.84 
				513.677,8.885 513.406,8.885 513.347,8.87 513.241,8.826 513.256,8.735 513.527,8.645 513.616,8.42 513.661,8.375 514.021,8.285 
				514.201,8.15 514.352,7.925 514.456,7.805 514.621,7.655 514.816,7.701 514.876,7.79 515.116,7.94 515.371,8.03 516.063,8.18 
				516.166,8.195 516.722,8.24 517.456,8.255 517.517,8.255 517.621,8.24 517.938,8.195 518.326,7.925 518.821,7.805 518.941,7.701 
				519.063,7.73 519.166,7.971 519.481,8.285 519.677,8.495 520.277,8.495 520.951,8.721 521.688,9.185 522.121,9.335 
				522.271,9.471 522.406,9.515 522.557,9.65 522.527,9.83 522.602,9.875 522.616,9.89 522.932,9.995 523.321,10.04 523.802,10.055 
				524.191,10.01 524.251,10.085 524.222,10.19 524.086,10.25 523.816,10.25 523.711,10.31 523.472,10.505 523.396,10.64 
				522.602,11.076 522.512,11.06 522.496,10.971 522.571,10.91 522.751,10.88 522.841,10.775 522.856,10.55 522.813,10.49 
				522.691,10.415 521.191,10.505 520.981,10.655 520.831,11 520.652,11.135 520.711,11.15 520.966,11.465 521.146,11.555 
				521.642,11.585 521.807,11.346 521.911,11.375 521.972,11.48 521.881,11.675 522.076,11.75 522.152,11.855 522.166,11.855 
				522.227,11.84 522.361,11.51 522.286,11.255 522.331,11.12 522.451,11.195 522.512,11.54 522.571,11.645 522.571,11.66 
				522.751,11.826 523.201,12.05 523.246,12.14 523.277,12.35 523.171,12.53 523.006,12.56 522.902,12.53 522.887,12.471 
				522.991,12.305 522.961,12.23 522.796,12.155 522.722,12.14 522.466,12.23 522.076,12.29 521.972,12.425 522.017,12.471 
				522.091,12.471 522.256,12.38 522.017,12.77 521.762,13.43 521.777,13.85 521.642,13.715 521.552,13.745 521.701,13.955 
				521.626,14.03 521.671,14.076 521.762,14.045 521.836,14.09 521.956,14.405 521.956,14.465 521.986,14.69 522.302,15.38 
				522.736,15.935 523.652,16.73 524.161,17.09 524.251,17.12 524.446,17.21 524.461,17.21 525.046,17.33 525.152,17.42 
				525.241,17.555 525.182,17.675 525.166,17.705 525.241,17.975 525.347,18.125 525.481,18.201 525.571,18.245 525.616,18.275 
				525.722,18.35 526.036,18.576 526.066,18.71 526.052,18.815 525.781,18.875 525.616,19.145 525.421,19.31 525.406,19.52 
				524.941,20.165 524.881,20.346 524.656,20.39 524.731,20.525 524.477,20.615 524.387,20.705 524.341,20.885 524.611,21.38 
				524.597,21.44 524.972,21.875 525.302,22.28 525.496,22.415 525.661,22.535 526.171,22.79 526.366,22.865 526.411,22.88 
				526.816,22.985 527.222,23.015 527.446,22.985 527.731,22.94 527.972,22.895 528.631,22.655 528.991,22.445 529.097,22.565 
				528.977,22.715 529.021,22.79 529.188,22.76 529.291,22.67 529.126,22.415 529.156,22.37 530.313,21.935 530.566,21.74 
				530.701,21.56 530.836,21.125 531.046,20.705 531.121,20.21 531.256,19.94 531.302,19.565 531.361,19.385 531.586,19.295 
				531.631,19.175 531.602,18.935 531.977,18.83 532.231,18.62 532.277,18.44 532.411,18.41 532.606,18.576 533.491,18.32 
				533.762,18.425 534.438,18.395 534.706,18.32 535.006,18.23 535.307,18.065 535.456,17.99 535.741,17.795 536.267,17.3 
				536.716,16.865 537.152,16.775 537.421,16.46 537.527,16.415 537.586,16.28 537.736,16.326 538.188,16.025 538.381,15.875 
				538.696,15.545 538.802,15.515 539.027,15.26 539.206,14.855 539.506,14.9 539.597,14.81 539.611,14.495 539.432,14.285 
				539.506,14.225 539.491,14.12 539.416,14.045 539.491,13.91 539.477,13.775 539.521,13.715 539.611,13.73 539.671,13.85 
				539.807,13.79 540.063,13.715 540.227,13.701 540.421,13.61 540.767,13.61 540.991,13.701 541.756,13.415 542.027,13.19 
				542.313,13.085 542.446,12.995 542.491,12.86 542.461,12.695 542.536,12.62 542.671,12.755 542.762,12.755 542.777,12.86 
				542.777,12.89 542.927,13.01 543.031,12.965 543.091,13.04 543.106,13.265 543.211,13.43 543.466,13.655 543.496,13.82 
				543.438,13.895 543.256,13.88 543.152,13.971 543.076,14.525 543.121,14.855 543.271,15.215 543.571,15.665 543.977,16.25 
				544.336,17.99 544.517,18.245 544.816,18.455 544.876,18.665 544.847,18.83 544.802,19.04 544.563,19.596 544.396,19.73 
				544.156,19.73 543.541,19.985 543.316,20.195 543.137,20.285 543.063,20.346 542.536,20.81 542.313,21.14 541.996,21.471 
				541.472,22.145 540.826,23.15 540.196,24.32 539.671,24.86 539.041,26.165 539.012,26.195 538.847,26.375 538.501,27.125 
				538.246,27.665 537.796,28.94 537.227,30.08 537.063,30.245 536.972,30.29 536.777,30.365 536.701,30.455 536.477,30.41 
				536.313,30.485 536.177,30.471 535.621,30.665 535.381,30.68 535.246,30.785 535.171,30.785 534.946,30.785 534.616,30.98 
				534.076,31.175 533.701,31.415 533.341,31.745 533.086,31.775 532.996,31.88 532.816,31.835 532.637,31.971 532.396,32.015 
				531.991,31.79 531.916,31.775 531.661,31.775 531.406,31.91 531.046,32.195 530.642,32.63 530.251,33.26 530.071,33.53 
				529.816,34.04 529.696,34.4 529.427,35.076 529.231,35.63 528.887,37.565 528.856,38.18 528.826,38.675 528.841,39.26 
				529.277,41.645 529.546,41.9 529.682,41.975 529.921,42.02 530.012,42.065 530.116,42.201 530.161,42.455 530.102,42.65 
				530.191,42.815 530.177,43.025 530.236,43.295 530.896,44.36 531.316,44.765 532.006,45.785 532.021,45.965 532.036,46.085 
				532.111,46.265 532.381,46.565 532.606,47.03 532.666,47.135 533.177,47.585 533.281,48.065 533.446,48.201 534.166,48.77 
				534.182,48.77 534.661,49.025 534.871,49.205 535.052,49.31 535.501,49.326 535.741,49.265 535.831,49.25 536.356,49.01 
				536.506,48.89 536.701,48.935 536.956,48.815 537.106,48.89 537.512,48.935 537.602,49.085 537.781,49.221 537.826,49.326 
				537.481,49.91 537.481,50.076 537.557,50.27 537.541,50.39 537.451,50.27 537.361,50.255 537.316,50.3 537.316,50.645 
				537.361,50.885 537.481,51.08 537.706,51.245 538.231,51.5 538.427,51.56 538.531,51.53 538.711,51.755 538.966,51.846 
				539.131,51.951 539.701,52.07 540.451,52.25 540.722,52.385 541.097,52.4 541.262,52.46 541.381,52.67 541.696,52.76 
				541.847,52.91 542.491,53.015 542.807,53.18 542.836,53.33 542.821,53.451 542.731,53.885 542.506,54.29 542.446,54.74 
				542.446,54.965 542.446,55.205 542.521,55.505 542.807,56.18 543.063,56.405 543.256,56.465 543.616,56.451 543.646,56.54 
				543.438,56.705 543.211,56.795 543.121,56.945 542.671,58.596 542.807,59.42 542.821,59.585 542.521,59.915 542.491,60.365 
				542.521,60.875 542.581,61.265 542.626,61.355 542.777,61.685 543.631,62.615 543.826,62.87 544.277,63.245 544.307,63.29 
				544.411,63.395 544.563,63.576 545.012,63.935 545.057,63.951 545.446,64.145 545.491,64.221 545.491,64.28 545.491,64.295 
				545.491,64.355 545.491,64.37 545.432,64.355 545.356,64.4 545.057,64.4 544.711,64.385 544.591,64.46 544.277,64.91 
				544.307,65.165 544.188,65.315 543.722,65.975 543.736,66.201 543.557,66.29 543.361,66.26 543.182,66.335 543.046,66.335 
				542.881,66.425 542.313,67.565 542.251,67.88 542.267,68.18 542.387,68.405 542.402,68.465 542.326,68.57 542.267,69.29 
				542.177,69.56 541.951,69.905 541.816,70.235 541.427,70.46 540.932,70.775 540.571,71.015 540.121,71.39 539.941,71.54 
				539.836,71.84 539.821,72.455 539.866,72.68 539.821,72.92 539.881,73.355 539.777,73.88 539.552,74.18 539.102,74.585 
				538.981,74.78 538.876,75.065 538.501,75.395 538.411,75.545 538.411,75.725 538.486,75.83 538.501,75.86 538.606,76.055 
				538.591,76.205 538.501,76.265 538.156,76.28 537.767,76.4 537.616,76.535 537.376,76.73 537.196,76.971 537.001,77.03 
				536.731,77.3 536.116,77.735 536.161,77.84 536.371,78.005 536.432,78.155 536.432,78.29 536.387,78.201 536.251,78.125 
				536.161,78.14 536.191,78.245 536.131,78.245 536.027,78.26 535.921,78.275 535.861,78.275 535.816,78.335 535.741,78.44 
				535.741,78.471 535.682,78.635 535.666,78.74 535.637,78.846 535.591,79.01 535.652,79.265 535.652,79.475 535.246,80.03 
				535.126,80.315 534.977,80.465 534.841,80.48 534.631,80.495 534.586,80.495 534.512,80.495 534.406,80.51 534.166,80.51 
				533.986,80.465 533.536,80.675 533.491,80.675 533.371,80.705 533.131,80.87 532.981,81.185 532.831,81.32 532.727,81.35 
				532.652,81.62 532.486,81.89 532.097,82.28 531.991,82.565 532.006,83.255 531.961,83.375 531.781,83.51 531.166,83.855 
				531.046,83.855 531.046,83.765 530.956,83.705 530.791,83.735 530.326,83.93 530.267,83.826 529.786,83.855 529.531,84.005 
				529.517,84.005 528.841,84.275 528.677,84.335 528.031,84.8 527.911,85.07 527.191,85.971 527.086,86.135 527.057,86.165 
				527.012,86.24 526.951,86.33 526.756,86.585 526.486,86.765 526.352,86.78 526.142,86.54 525.991,86.54 525.887,86.63 
				525.813,86.87 525.691,86.81 525.602,86.945 525.661,87.02 525.767,87.02 525.856,86.96 525.946,86.885 526.052,86.795 
				526.126,86.81 526.156,86.855 526.111,87.11 525.991,87.23 525.602,87.395 525.451,87.455 525.316,87.41 525.227,87.365 
				524.927,87.29 524.791,87.17 524.656,87.185 524.521,87.29 524.296,87.335 524.236,87.395 524.251,87.74 524.161,87.951 
				524.116,88.07 524.027,88.13 523.741,88.205 523.637,88.205 523.456,88.205 523.321,88.265 522.977,88.596 522.767,88.745 
				522.631,88.79 522.541,88.596 522.438,88.565 522.241,88.49 521.821,89.225 521.746,89.195 521.656,89.346 521.326,89.3 
				520.741,89.6 520.531,89.645 520.171,89.96 520.006,90.155 519.722,90.695 519.541,90.92 519.316,91.46 519.121,91.94 
				518.716,92.555 518.581,92.69 518.566,92.915 518.461,93.41 518.371,93.56 518.027,93.545 517.951,93.635 517.951,93.77 
				518.116,93.965 518.177,94.235 518.177,94.326 518.251,94.805 518.191,95.015 518.161,95.12 518.146,95.346 518.251,95.51 
				518.313,95.81 518.326,96.305 518.432,96.785 518.387,96.965 518.387,97.221 518.611,97.775 518.626,98.135 518.581,98.18 
				518.416,98.18 518.341,98.21 518.206,98.27 517.771,98.285 517.771,98.36 517.861,98.42 518.626,98.255 518.762,98.48 
				518.896,98.6 519.046,98.87 519.241,99.605 519.421,99.905 519.991,100.835 520.321,101.195 520.591,101.705 521.402,102.56 
				521.536,102.74 521.927,103.265 521.941,103.385 521.896,103.505 521.927,103.565 521.986,103.505 522.076,103.49 
				522.152,103.625 522.302,103.67 522.466,103.79 522.767,104.15 522.932,104.27 523.246,104.435 523.411,104.585 523.576,104.675 
				523.606,104.735 523.517,104.96 523.771,104.87 524.012,104.93 524.086,105.02 524.131,105.23 524.356,105.515 524.326,105.605 
				524.552,105.62 524.731,105.755 525.241,106.16 525.557,106.505 526.771,107.285 527.626,107.69 527.671,107.765 527.777,107.75 
				527.972,107.721 528.137,107.795 528.841,107.93 528.977,107.99 528.991,107.99 529.021,108.02 529.111,108.065 529.156,108.201 
				528.871,108.245 528.841,108.38 528.706,108.53 528.586,108.576 528.392,108.53 528.256,108.68 528.271,108.83 528.331,108.815 
				528.392,108.68 528.602,108.68 528.841,108.545 528.977,108.32 529.126,108.305 529.201,108.35 529.231,108.53 529.352,108.605 
				529.576,108.485 530.177,108.17 530.671,108.155 531.121,108.05 531.106,108.185 531.063,108.5 531.137,108.56 531.406,108.605 
				531.438,108.71 531.751,108.53 531.722,108.471 531.481,108.5 531.302,108.471 531.182,108.365 531.182,108.32 531.182,108.215 
				531.227,108.14 531.256,108.065 531.406,107.96 531.826,107.84 532.277,107.6 532.396,107.6 533.012,107.405 533.251,107.285 
				533.371,107.135 533.836,106.805 533.927,106.76 534.196,106.625 534.466,106.49 534.767,106.445 534.961,106.52 
				535.231,106.701 535.427,106.955 535.472,107.105 535.456,107.3 535.277,108.08 535.111,108.41 535.171,108.785 535.188,108.965 
				535.216,109.115 535.156,109.385 535.036,109.596 534.932,109.955 534.826,110.135 534.571,110.255 534.376,110.451 
				534.121,110.57 534.017,110.675 533.956,110.9 533.972,110.945 533.986,111.14 534.046,111.305 534.121,111.44 534.227,111.605 
				534.256,111.665 534.347,111.815 534.392,111.98 534.331,112.235 534.376,112.4 534.677,112.58 535.111,112.655 535.336,112.73 
				535.621,112.985 535.727,113 535.951,112.985 536.341,112.971 536.597,112.82 537.137,112.535 537.286,112.535 537.541,112.34 
				537.722,112.295 537.767,112.265 538.021,112.04 538.652,111.89 538.876,111.755 539.131,111.71 539.762,111.515 
				539.927,111.425 540.316,110.826 540.376,110.585 540.347,110.36 540.331,110.33 540.211,110.076 540.046,109.91 539.986,109.73 
				539.731,109.505 539.536,109.49 539.506,109.4 539.552,109.16 539.746,108.995 540.196,108.815 540.331,108.725 540.438,108.65 
				540.541,108.65 540.557,108.65 540.977,108.8 541.396,108.785 541.472,108.695 541.366,108.53 541.366,108.41 541.486,108.395 
				541.606,108.545 541.981,108.545 542.536,108.905 542.866,108.905 543.227,109.19 543.392,109.415 543.706,109.715 
				543.887,109.955 544.201,110.36 544.427,110.855 544.606,111.365 544.652,112.52 544.396,112.835 544.291,113.18 544.081,113.9 
				544.021,114.08 544.036,114.125 544.081,114.29 544.277,114.545 544.352,115.01 544.576,115.415 544.682,115.73 544.682,115.955 
				544.591,116.076 544.531,116.33 544.666,116.285 544.682,116.27 544.966,116.03 545.222,116.076 545.626,116.42 545.807,116.705 
				545.911,116.975 545.941,117.065 546.121,117.17 546.602,117.425 546.902,117.53 547.142,117.605 547.277,117.725 
				547.591,117.815 547.951,118.055 548.491,118.28 548.762,118.475 548.807,118.565 548.746,118.64 548.581,118.64 548.341,118.52 
				547.366,118.04 546.796,117.92 546.616,117.815 546.106,117.65 545.656,117.425 545.326,117.41 545.131,117.545 545.012,117.5 
				544.861,117.665 544.847,117.89 544.756,118.025 544.741,118.205 544.786,118.37 544.996,118.58 545.236,118.955 
				545.402,119.015 545.626,119.225 545.671,119.42 545.836,119.69 545.852,119.96 545.852,120.08 546.063,120.485 546.227,120.62 
				546.392,120.635 546.527,120.53 546.691,120.576 546.977,120.56 547.036,120.56 547.366,120.635 548.296,120.65 548.911,120.875 
				548.956,120.875 550.411,121.235 550.637,121.235 550.727,121.28 550.981,121.295 551.086,121.235 551.191,121.115 
				551.326,121.1 551.566,121.28 551.807,121.37 552.347,121.355 552.466,121.221 552.451,121.085 552.466,121.025 552.496,120.951 
				552.031,120.665 551.881,120.56 551.521,120.38 550.246,119.33 550.036,119.15 549.646,118.985 549.631,118.925 549.736,118.91 
				549.932,118.955 550.456,119.315 551.566,120.23 551.896,120.455 551.941,120.471 553.802,121.445 554.236,121.58 
				554.731,121.67 555.106,121.67 555.271,121.64 			"/>
			<polyline fill="none" stroke="#666666" stroke-width="0.25" stroke-linejoin="round" stroke-miterlimit="3.8637" points="
				507.196,202.971 507.017,202.28 506.986,202.13 506.927,201.92 506.161,198.56 506.161,198.515 505.696,196.355 505.531,195.951 
				503.027,184.88 502.517,182.69 502.456,182.585 501.977,180.56 501.991,180.455 500.73,175.16 499.591,170.315 499.563,169.91 
				498.063,163.85 497.881,163.1 497.881,162.965 497.656,162.05 497.491,161.09 497.477,161.045 496.906,158.96 496.696,157.76 
				496.652,157.64 496.605,157.535 496.427,154.1 495.227,151.79 495.031,151.415 477.691,139.775 477.616,139.355 477.152,136.295 
				477.031,135.471 477.031,132.8 477.031,131.63 476.911,131.42 472.006,123.68 471.932,123.56 470.432,123.59 466.652,121.43 
				464.642,121.52 462.871,119.39 462.826,119.346 462.961,114.485 462.961,114.44 461.807,112.745 460.996,111.56 459.991,109.715 
				459.512,108.846 459.586,107.495 459.527,107.15 459.227,106.82 459.046,106.475 458.956,106.28 458.896,105.83 459.031,105.35 
				459.031,105.201 458.597,104.795 458.102,104.48 457.876,104.3 457.876,104.24 457.847,103.94 457.876,103.82 458.027,103.58 
				458.131,103.25 458.146,102.875 458.102,102.5 457.666,101.255 457.727,101 458.041,100.221 458.057,100.16 458.057,99.74 
				457.966,99.23 458.281,98.315 458.296,98.06 458.041,97.28 458.177,96.965 458.222,96.875 458.236,96.86 458.355,96.74 
				458.626,96.471 459.076,96.35 459.466,95.96 459.751,95.51 459.767,95.36 459.871,94.235 459.916,94.085 460.066,93.665 
				460.366,93.096 462.121,92.81 462.512,92.78 462.887,92.765 463.546,92.705 464.281,92.66 464.446,92.585 464.416,92.285 
				464.461,91.971 464.402,91.85 464.941,90.785 464.956,90.725 465.091,90.14 465.227,89.585 465.361,89.195 465.512,88.145 
				465.48,87.275 465.48,87.23 465.722,87.17 466.277,87.125 467.191,86.93 467.222,86.9 467.281,86.826 467.866,86.255 
				468.137,86.06 468.392,85.925 468.706,85.865 468.826,85.835 469.111,85.82 469.816,85.145 469.98,84.995 470.041,84.935 
				470.688,84.71 470.777,84.71 470.881,84.455 471.046,84.23 471.271,84.23 471.646,84.305 471.677,84.305 471.781,84.305 
				471.826,84.32 471.916,84.096 471.932,84.08 472.156,83.75 472.831,83.525 472.951,83.285 473.086,83.255 473.313,82.61 
				473.506,82.535 473.566,82.565 473.642,82.55 474.137,82.52 474.182,82.49 474.286,82.43 474.347,82.19 474.271,81.995 
				474.331,81.785 474.722,81.576 475.216,81.515 475.336,81.245 475.171,80.84 475.501,80.54 475.517,80.27 475.321,79.94 
				475.097,79.565 475.23,79.13 475.831,78.44 476.267,78.245 476.701,78.335 476.73,78.096 476.716,78.096 476.701,78.08 
				476.313,77.63 476.161,77.48 476.027,77.165 476.206,76.94 476.206,76.925 476.191,76.91 476.086,76.73 476.071,76.655 
				476.041,76.445 476.041,76.43 476.071,76.085 476.071,76.07 476.012,75.725 476.057,75.59 475.921,75.185 475.906,74.93 
				475.786,74.735 475.727,74.465 475.711,74.375 475.711,74.36 475.696,74.27 475.666,74.225 475.591,74.12 475.486,73.955 
				476.012,72.515 476.371,72.096 476.597,71.75 476.656,71.57 476.688,71.435 476.791,71.09 476.807,70.775 476.807,70.655 
				476.881,70.115 477.046,69.83 477.196,69.5 477.631,68.24 477.736,68.076 478.201,67.79 478.605,67.385 478.876,66.875 
				479.116,66.56 479.281,65.96 479.355,65.75 479.566,65.346 479.626,65.24 479.881,64.805 480.586,64.055 480.571,63.935 
				480.527,63.92 479.821,64.07 479.432,64.085 478.996,63.92 478.786,63.8 478.576,63.68 478.097,63.335 477.137,62.87 
				477.063,62.735 476.972,62.69 476.956,62.54 476.852,61.835 476.836,61.265 476.836,60.77 476.911,59.721 476.986,59.3 
				477.466,58.13 477.736,57.995 477.796,57.98 478.472,57.635 478.396,57.245 478.201,56.99 478.066,56.93 477.946,56.51 
				477.871,55.64 477.871,55.535 477.871,55.43 477.887,55.295 477.781,54.8 477.646,53.721 477.706,53.465 477.767,53.285 
				477.841,52.701 477.736,52.31 477.677,52.19 477.586,52.055 477.392,51.905 476.506,51.365 475.682,50.42 475.427,49.925 
				475.321,49.596 475.336,49.4 475.486,49.085 475.576,48.785 475.621,48.59 475.727,48.065 475.741,47.39 475.576,46.775 
				475.605,46.565 475.637,46.385 475.637,46.355 475.711,46.19 475.727,46.145 475.966,45.65 476.161,45.11 476.177,45.065 
				476.177,45.05 476.191,45.035 476.402,44.705 476.416,44.675 476.416,44.66 476.402,44.63 476.222,44.21 476.222,44.15 
				476.222,44.06 476.222,43.971 476.267,43.28 476.355,42.846 476.387,42.695 476.326,42.17 476.432,41.9 476.762,41.285 
				476.821,41.18 476.986,40.55 477.438,40.13 477.527,40.16 477.616,40.19 477.571,40.085 477.376,39.8 477.361,39.755 
				477.376,39.275 477.347,39.125 477.241,39.035 477.046,38.915 476.671,38.48 476.671,38.42 476.656,38.346 476.642,38.315 
				476.671,38.195 477.046,37.79 477.211,37.58 477.331,37.265 477.496,37.025 477.557,36.935 477.586,36.86 477.631,36.785 
				477.631,36.755 477.616,36.08 477.48,35.33 477.887,34.925 478.142,34.745 478.472,34.64 478.563,34.49 478.563,34.415 
				478.441,34.295 478.23,33.995 478.201,33.965 478.216,33.485 478.396,33.125 478.427,33.065 478.621,32.9 478.605,32.645 
				478.396,32.15 478.876,31.715 478.921,31.596 478.996,31.475 478.996,31.445 479.027,31.205 478.321,31.13 478.171,31.07 
				478.156,31.025 478.081,30.965 477.813,30.77 477.557,30.725 477.166,30.935 476.836,30.98 476.821,30.935 476.716,30.935 
				476.552,30.755 476.355,30.62 476.206,30.59 476.116,30.576 475.666,30.71 475.486,30.71 475.156,30.62 474.196,30.485 
				474.017,30.425 474.046,30.395 473.807,30.17 473.506,30.096 473.267,29.99 472.996,29.51 472.98,29.495 472.98,29.451 
				472.892,29.135 472.966,29.015 473.267,28.94 473.341,28.805 473.491,28.685 473.777,28.73 473.896,28.745 474.091,28.701 
				474.722,28.475 475.472,28.04 475.906,28.025 475.938,28.025 475.98,28.01 476.446,27.846 476.461,27.846 476.716,27.68 
				476.927,27.425 476.956,27.305 477.946,26.54 478.381,26.465 478.546,26.375 478.727,26.195 478.786,26.045 478.831,25.925 
				478.951,25.775 479.191,25.701 479.821,25.76 480.091,25.535 480.271,25.01 480.286,24.77 480.211,24.635 480.392,24.395 
				480.677,24.32 480.813,23.855 480.813,23.826 480.841,23.63 480.736,23.24 480.421,22.67 480.421,22.64 480.392,22.445 
				480.421,22.326 480.376,22.265 480.256,22.175 480.137,22.175 480.046,22.25 479.791,22.265 479.701,22.221 479.626,21.98 
				479.807,21.8 480.438,21.59 480.466,21.56 480.706,21.44 480.991,21.455 481.321,21.41 481.711,21.215 481.816,21.215 
				481.831,21.215 481.951,21.35 482.027,21.365 482.191,21.305 482.521,21.275 482.777,21.35 482.791,21.35 483.152,21.32 
				483.421,20.885 483.616,20.81 483.781,20.81 484.111,20.81 484.381,20.585 484.472,20.51 484.802,20.405 485.371,20.09 
				485.477,19.925 485.477,19.715 485.402,19.565 485.206,19.4 484.98,19.326 484.546,19.19 484.307,19.235 484.246,19.175 
				484.246,19.13 484.246,18.905 484.366,18.485 484.396,17.915 484.441,17.525 484.531,17.42 484.786,17.33 484.938,17.375 
				484.786,17.165 484.682,16.895 484.652,16.701 			"/>
			<polyline fill="none" stroke="#666666" stroke-width="0.25" stroke-linejoin="round" stroke-miterlimit="3.8637" points="
				504.152,209.03 504.105,208.971 503.821,208.61 503.461,208.175 503.402,208.116 503.326,207.455 503.161,206.9 503.177,206.54 
				502.996,205.955 503.027,205.82 502.966,205.415 502.876,205.04 502.847,204.89 502.951,204.71 502.98,204.68 503.116,204.56 
				503.177,204.5 503.387,204.41 503.402,204.41 503.762,204.395 504.316,204.305 504.496,204.23 504.781,203.93 505.142,203.721 
				505.546,203.585 505.666,203.48 505.831,203.42 505.938,203.435 506.071,203.375 506.102,203.36 506.402,203.241 
				506.402,203.225 506.477,203.135 506.536,203.12 507.196,202.971 			"/>
			<polyline fill="none" stroke="#666666" stroke-width="0.25" stroke-linejoin="round" stroke-miterlimit="3.8637" points="
				555.271,121.64 555.137,122 555.166,122.225 555.166,122.24 555.121,122.405 554.911,123.14 554.597,123.695 554.446,123.935 
				554.387,124.205 554.371,124.265 554.313,124.82 554.296,124.94 554.251,125.945 554.191,126.155 554.356,126.275 
				554.402,126.62 554.086,126.965 553.951,127.475 553.771,128.21 553.756,128.255 553.411,129.305 553.591,129.725 
				553.861,130.685 553.696,131.165 553.621,131.555 553.576,131.735 553.411,132.785 553.411,132.83 553.486,133.145 
				553.486,133.16 553.621,133.745 553.652,134.135 553.546,135.005 553.411,135.56 553.441,135.875 553.456,135.92 
				553.546,136.235 553.876,137.06 554.161,137.346 554.432,137.451 554.688,137.69 554.896,137.945 554.956,138.035 
				555.241,138.41 555.541,138.65 555.841,139.1 556.052,139.565 555.361,140.915 555.137,141.35 554.416,142.76 554.341,142.91 
				554.281,142.955 553.291,143.66 552.887,143.96 552.796,144.08 552.466,144.215 551.866,144.275 551.086,144.815 
				550.456,145.145 550.188,145.25 549.706,145.34 549.211,145.535 546.781,146.33 546.527,146.42 546.121,146.585 545.313,146.93 
				544.951,147.201 544.052,147.5 543.751,147.74 543.557,147.74 543.406,147.755 542.972,148.01 542.807,148.205 542.432,148.49 
				541.996,148.655 541.501,148.76 541.171,148.91 540.466,149.39 540.392,149.451 539.911,149.765 539.536,150.125 
				539.012,150.455 538.876,150.545 538.171,151.04 538.097,151.385 538.066,151.58 537.991,151.805 537.677,152.375 536.642,154.1 
				535.996,154.221 535.576,154.4 535.366,154.565 535.097,154.67 534.796,154.715 534.496,154.61 534.347,154.565 534.106,154.55 
				533.881,154.52 533.642,154.445 533.432,154.52 533.251,154.745 532.966,154.865 532.892,154.985 532.921,155.615 
				532.847,155.795 532.621,155.99 532.546,156.17 532.563,156.35 532.666,156.515 532.996,157.055 533.012,157.326 532.847,157.67 
				532.802,157.85 532.321,158.315 531.841,158.705 531.736,158.75 531.512,158.99 531.347,159.26 531.302,159.335 531.196,159.785 
				531.017,160.4 530.777,160.715 530.671,160.76 530.536,160.925 530.251,161.12 530.236,161.12 530.146,161.15 529.336,161.435 
				529.052,161.51 528.527,161.645 528.106,161.675 527.972,161.63 526.966,161.315 526.756,161.315 526.486,161.375 
				526.262,161.48 526.231,161.495 525.706,161.826 525.241,162.125 525.017,162.275 524.491,162.71 524.432,162.86 524.326,162.98 
				524.296,163.055 524.191,163.34 523.591,164.225 523.576,164.33 523.517,164.435 523.262,164.885 522.856,165.44 
				522.813,165.576 522.661,165.785 522.541,165.965 522.331,166.16 522.302,166.326 522.017,166.685 521.911,166.701 
				521.581,167.165 521.536,167.285 521.521,167.33 521.177,167.795 521.131,167.81 521.071,167.855 520.996,167.96 520.847,168.17 
				520.786,168.335 520.771,168.38 520.771,168.755 520.771,169.025 520.938,169.385 520.938,169.4 520.996,169.701 
				520.951,170.135 520.996,170.48 521.012,170.57 521.161,171.08 521.251,171.155 521.581,171.98 522.152,173.42 522.211,173.585 
				522.256,173.735 522.481,174.38 522.557,174.485 522.691,175.01 522.767,175.1 522.932,175.55 523.052,175.88 523.307,176.36 
				523.396,176.705 523.472,177.005 523.786,178.175 523.996,178.52 524.326,179.195 524.402,179.585 524.236,180.14 
				524.191,180.29 524.102,180.605 524.102,181.13 524.206,181.685 524.267,181.76 524.371,182.21 524.402,182.84 524.432,182.945 
				524.491,183.185 524.611,183.725 524.626,183.846 524.881,184.4 524.852,184.55 524.581,184.82 524.581,184.88 524.552,185.015 
				524.552,185.03 524.611,185.24 524.387,185.885 524.313,186.275 524.161,186.74 524.057,186.951 523.861,187.31 523.411,188.195 
				523.246,188.555 523.111,188.84 522.916,189.32 522.602,189.846 522.392,190.01 522.256,190.115 522.152,190.145 
				521.836,190.385 521.671,190.58 521.131,191.585 520.231,192.71 520.216,192.725 520.052,193.055 519.871,193.37 
				519.406,193.925 519.302,194.09 518.791,194.54 518.071,195.44 517.938,195.605 517.621,196.445 517.456,196.715 516.902,197.6 
				516.796,197.705 516.736,197.765 516.541,197.885 516.316,198.41 516.182,198.725 515.461,199.235 514.771,199.955 514.606,200 
				514.321,199.985 513.481,200.076 513.361,200.09 513.241,200.09 512.986,200.18 512.581,200.36 512.446,200.48 512.012,200.675 
				511.277,200.87 510.586,201.335 510.376,201.53 510.361,201.53 509.626,201.815 508.98,202.175 508.188,202.701 507.586,202.925 
				507.196,202.971 			"/>
			<polyline fill="none" stroke="#666666" stroke-width="0.25" stroke-linejoin="round" stroke-miterlimit="3.8637" points="
				522.166,11.855 522.347,11.84 522.421,11.826 522.496,11.765 522.571,11.66 			"/>
			<polyline fill="none" stroke="#666666" stroke-width="0.25" stroke-linejoin="round" stroke-miterlimit="3.8637" points="
				506.656,19.985 506.716,19.895 507.046,19.715 507.137,19.64 507.361,19.445 507.438,19.34 507.631,19.145 507.767,19.055 
				508.081,19.025 508.291,19.055 508.605,19.01 508.816,18.905 508.906,18.77 509.116,18.576 509.477,18.38 509.911,18.29 
				510.855,18.155 511.171,18.05 511.291,17.96 511.396,17.855 511.786,17.15 511.951,16.925 512.267,16.67 512.597,16.49 
				513.017,16.4 513.152,16.415 513.347,16.385 513.946,16.415 514.291,16.475 514.621,16.565 515.506,17 515.972,17.15 
				516.451,17.255 516.751,17.27 516.856,17.255 517.021,17.135 517.126,17.045 517.246,16.865 517.441,16.4 517.472,16.295 
				517.652,15.995 517.861,15.605 518.041,15.395 518.116,15.23 518.236,15.08 518.688,14.255 518.911,13.745 518.941,13.655 
				519.227,12.905 519.466,12.86 519.527,12.545 519.616,12.425 519.722,12.335 519.841,12.26 520.126,12.155 520.666,12.096 
				521.461,12.125 521.986,12.05 522.046,11.855 522.152,11.855 			"/>
			<polyline fill="none" stroke="#666666" stroke-width="0.25" stroke-linejoin="round" stroke-miterlimit="3.8637" points="
				495.241,10.655 495.286,11.12 495.271,11.315 495.331,11.826 495.256,12.155 495.137,12.44 495.076,12.86 495.121,13.34 
				495.196,13.64 495.271,13.76 495.496,13.865 495.722,13.88 496.142,13.895 496.996,13.835 497.206,13.85 497.432,13.895 
				497.626,14.015 497.746,14.12 497.881,14.315 498.076,14.75 498.438,15.89 498.602,16.235 498.871,16.58 499.006,16.88 
				499.097,17.36 499.216,17.555 500.027,18.275 500.236,18.485 500.688,18.725 501.063,18.8 501.557,18.965 501.767,19.07 
				501.887,19.145 502.006,19.19 502.216,19.385 502.23,19.715 502.216,19.94 502.142,20.27 501.991,20.645 501.961,20.78 
				501.887,20.885 501.871,20.99 501.751,21.23 501.677,21.53 501.661,21.65 501.691,21.875 501.751,22.01 501.855,22.221 
				502.066,22.43 502.396,22.685 502.727,22.85 503.041,22.895 503.267,22.865 503.387,22.805 503.821,22.445 503.881,22.355 
				504.706,21.5 504.826,21.41 505.006,21.215 505.246,21.035 505.427,20.81 505.816,20.451 506.057,20.27 506.146,20.18 
				506.402,20.045 506.656,19.985 			"/>
			<polyline fill="none" stroke="#666666" stroke-width="0.25" stroke-linejoin="round" stroke-miterlimit="3.8637" points="
				525.616,18.275 524.986,18.455 524.762,18.545 523.771,18.74 523.666,18.74 523.441,18.815 523.321,18.83 523.036,18.905 
				522.796,19.025 522.677,19.04 522.286,19.235 522.152,19.265 521.852,19.43 521.491,19.655 520.892,19.895 520.652,20.015 
				519.902,20.555 519.796,20.585 519.661,20.675 519.527,20.721 519.286,20.855 519.152,20.87 518.688,21.02 518.566,21.02 
				518.371,21.11 518.281,21.096 517.786,21.23 517.652,21.275 517.546,21.35 517.456,21.455 517.366,21.56 517.352,21.68 
				517.456,21.815 517.531,21.875 517.861,22.055 517.892,22.265 517.876,22.355 517.966,22.565 518.191,22.745 518.506,22.91 
				518.731,23.12 518.807,23.21 518.852,23.315 518.866,23.435 518.866,23.555 518.777,23.855 			"/>
			<polyline fill="none" stroke="#666666" stroke-width="0.25" stroke-linejoin="round" stroke-miterlimit="3.8637" points="
				524.341,20.885 524.146,20.6 523.966,20.54 523.847,20.6 523.756,20.735 523.727,20.87 523.727,21.05 523.637,21.155 
				523.621,21.35 523.321,22.205 523.291,22.326 523.231,22.415 522.991,22.49 522.751,22.76 522.646,22.955 522.557,23.045 
				522.438,23.12 522.302,23.135 522.166,23.12 522.046,23.12 521.731,23.195 521.521,23.18 521.416,23.165 521.177,23.076 
				520.981,23.045 520.876,23.105 520.802,23.195 520.696,23.42 520.486,23.735 520.381,23.826 520.171,23.9 520.052,23.9 
				519.616,23.975 519.286,23.975 519.046,23.93 518.777,23.855 			"/>
			<polyline fill="none" stroke="#666666" stroke-width="0.25" stroke-linejoin="round" stroke-miterlimit="3.8637" points="
				518.777,23.855 518.597,24.14 518.281,24.455 517.456,25.13 517.366,25.205 517.142,25.295 516.767,25.355 			"/>
			<polyline fill="none" stroke="#666666" stroke-width="0.25" stroke-linejoin="round" stroke-miterlimit="3.8637" points="
				513.977,27.17 514.501,27.11 514.606,27.096 514.831,26.96 514.906,26.84 515.177,26.195 515.461,25.64 515.581,25.355 
				515.701,25.16 515.791,25.07 515.911,24.995 516.211,24.905 516.406,24.92 516.512,24.965 516.616,25.07 516.767,25.355 			"/>
			<polyline fill="none" stroke="#666666" stroke-width="0.25" stroke-linejoin="round" stroke-miterlimit="3.8637" points="
				506.656,19.985 507.137,20.42 507.331,20.645 507.751,21.035 508.097,21.395 508.563,21.8 508.682,21.86 509.236,22.295 
				509.597,22.475 510.855,22.865 511.066,22.88 511.277,22.835 511.486,22.835 511.591,22.865 511.682,22.955 511.771,23.165 
				511.771,23.255 511.921,23.705 512.116,24.08 512.191,24.185 512.313,24.41 512.762,25.34 513.602,26.465 513.902,26.945 
				513.977,27.17 			"/>
			<polyline fill="none" stroke="#666666" stroke-width="0.25" stroke-linejoin="round" stroke-miterlimit="3.8637" points="
				527.446,22.985 527.341,23.24 527.313,23.63 527.267,23.87 527.057,24.425 526.876,24.785 526.366,25.67 526.291,25.775 
				526.052,26.15 525.826,26.6 525.871,26.705 526.486,27.185 526.396,27.425 526.188,27.815 526.111,28.04 526.111,28.16 
				525.841,29.03 525.691,29.93 			"/>
			<polyline fill="none" stroke="#666666" stroke-width="0.25" stroke-linejoin="round" stroke-miterlimit="3.8637" points="
				490.756,14.69 491.177,14.945 491.521,15.26 491.597,15.35 491.927,15.62 492.031,15.83 492.046,15.92 492.031,16.01 
				491.911,16.1 491.416,16.25 491.206,16.295 491.102,16.355 491.041,16.445 491.086,16.655 491.566,17.18 491.791,17.375 
				492.137,17.75 492.466,18.201 492.557,18.275 492.691,18.5 492.796,18.71 492.796,18.815 492.767,18.92 492.691,19.04 
				492.376,19.326 492.227,19.385 491.581,19.91 491.446,20.195 491.432,20.405 491.461,20.615 491.371,20.84 491.296,20.93 
				491.131,21.26 491.313,21.455 491.566,21.635 491.911,21.71 492.121,21.725 492.361,21.77 492.677,21.785 492.977,21.846 
				493.081,21.846 493.786,22.28 493.876,22.385 493.786,23.346 493.682,23.975 493.682,24.26 493.727,24.665 493.802,24.77 
				494.116,25.115 494.177,25.205 494.642,26.09 494.807,26.48 494.927,26.826 495.166,27.74 495.166,27.86 495.001,28.055 
				494.896,28.145 494.597,28.46 494.446,28.655 494.355,28.85 494.313,29.39 494.313,29.826 494.267,30.11 494.177,30.23 
				493.666,30.471 493.576,30.53 			"/>
			<polyline fill="none" stroke="#666666" stroke-width="0.25" stroke-linejoin="round" stroke-miterlimit="3.8637" points="
				513.977,27.17 513.887,27.245 513.781,27.305 513.677,27.41 513.017,27.815 512.611,28.13 512.313,28.415 512.086,28.73 
				511.996,28.94 511.966,29.045 511.892,29.225 511.816,29.33 511.711,29.451 511.591,29.555 511.336,29.84 511.188,30.125 
				511.021,30.62 510.946,30.71 			"/>
			<polyline fill="none" stroke="#666666" stroke-width="0.25" stroke-linejoin="round" stroke-miterlimit="3.8637" points="
				516.767,25.355 516.946,25.745 517.006,25.88 517.262,26.285 517.456,26.48 517.711,26.66 517.938,26.705 518.146,26.66 
				518.371,26.54 518.611,26.495 518.762,26.525 519.331,26.75 519.841,27.02 520.563,27.305 520.786,27.725 520.876,27.83 
				520.906,27.935 521.146,28.295 521.326,28.52 521.671,28.775 522.586,29.33 523.171,29.615 523.231,29.735 523.171,29.99 
				523.126,30.065 523.097,30.365 523.111,30.485 523.396,30.725 523.472,30.83 523.696,30.695 523.786,30.605 523.996,30.471 
				524.688,30.11 525.031,30.005 525.241,29.975 525.586,29.975 525.691,29.93 			"/>
			<polyline fill="none" stroke="#666666" stroke-width="0.25" stroke-linejoin="round" stroke-miterlimit="3.8637" points="
				491.296,30.846 491.416,30.815 491.626,30.725 491.972,30.56 492.466,30.395 492.691,30.41 492.826,30.38 493.036,30.395 
				493.171,30.41 493.576,30.53 			"/>
			<polyline fill="none" stroke="#666666" stroke-width="0.25" stroke-linejoin="round" stroke-miterlimit="3.8637" points="
				525.691,29.93 525.646,30.455 525.602,30.8 525.557,31.58 525.586,32.045 525.616,32.255 525.646,32.36 525.841,32.69 
				526.052,32.84 526.277,32.87 			"/>
			<polyline fill="none" stroke="#666666" stroke-width="0.25" stroke-linejoin="round" stroke-miterlimit="3.8637" points="
				526.277,32.87 526.591,32.81 526.786,32.735 528.017,32.54 528.227,32.705 528.527,33.02 528.646,33.065 528.736,33.065 
				528.856,32.99 529.188,32.63 529.291,32.57 529.606,32.555 529.816,32.6 529.981,32.765 530.251,33.26 			"/>
			<polyline fill="none" stroke="#666666" stroke-width="0.25" stroke-linejoin="round" stroke-miterlimit="3.8637" points="
				478.396,33.125 478.711,33.17 478.921,33.245 479.131,33.275 479.371,33.26 479.491,33.275 479.881,33.245 480.121,33.17 
				480.602,32.975 481.307,32.585 481.892,32.3 482.146,32.15 482.506,31.971 482.746,31.88 483.091,31.79 483.316,31.76 
				483.557,31.79 485.116,31.745 485.461,31.775 485.956,31.745 486.855,31.745 487.637,31.715 488.281,31.67 488.791,31.58 
				488.896,31.58 489.902,31.31 490.831,31.025 491.296,30.846 			"/>
			<polyline fill="none" stroke="#666666" stroke-width="0.25" stroke-linejoin="round" stroke-miterlimit="3.8637" points="
				493.576,30.53 493.771,30.62 494.191,30.98 495.376,32.165 495.691,32.465 495.902,32.63 496.126,32.66 496.381,32.615 
				496.741,32.48 497.131,32.3 497.236,32.285 497.566,32.18 498.001,32.06 498.211,32.015 498.571,32.045 498.977,32.27 
				499.605,32.721 499.921,32.885 500.251,33.11 500.581,33.26 500.807,33.305 500.911,33.23 500.986,33.125 501.571,32.076 
				501.946,31.49 502.307,31.025 502.517,30.875 502.996,30.68 503.461,30.605 504.076,30.56 504.196,30.56 504.527,30.53 
				504.871,30.545 505.291,30.635 505.711,30.83 505.816,30.92 505.906,30.951 506.146,31.16 506.416,31.49 506.671,31.701 
				506.866,31.775 507.302,31.73 507.527,31.655 508.142,31.295 508.563,31.115 508.951,30.965 509.491,30.8 510.271,30.68 
				510.631,30.665 510.946,30.71 			"/>
			<polyline fill="none" stroke="#666666" stroke-width="0.25" stroke-linejoin="round" stroke-miterlimit="3.8637" points="
				526.277,32.87 526.307,32.915 526.307,33.096 526.336,33.5 526.321,34.745 526.277,34.85 526.216,34.94 525.677,35.24 
				525.631,35.33 525.661,35.435 525.751,35.51 526.021,35.721 526.111,35.75 526.216,35.855 526.246,35.945 526.246,36.035 
				526.231,36.125 526.171,36.23 526.066,36.335 525.826,36.41 525.241,36.53 524.896,36.56 524.791,36.605 524.341,36.695 
				524.222,36.695 523.906,36.77 523.831,36.86 523.802,36.965 523.906,37.28 523.981,37.43 524.012,37.835 523.981,38 
				523.921,38.195 523.771,38.495 523.517,38.795 523.188,39.02 522.706,39.201 522.586,39.275 522.438,39.305 			"/>
			<polyline fill="none" stroke="#666666" stroke-width="0.25" stroke-linejoin="round" stroke-miterlimit="3.8637" points="
				510.946,30.71 511.066,30.92 511.156,31.01 511.352,31.34 511.396,31.55 511.427,31.94 511.336,32.33 511.126,32.9 
				510.902,33.275 510.767,33.471 510.392,33.89 510.166,34.115 510.091,34.221 509.536,34.685 509.177,34.925 508.605,35.255 
				508.188,35.465 507.946,35.57 507.841,35.585 507.602,35.69 507.406,35.75 507.182,35.84 507.091,35.93 507.031,36.02 
				507.063,36.125 507.227,36.35 507.451,36.56 507.527,36.65 507.871,36.905 508.111,37.145 508.501,37.415 508.741,37.505 
				509.206,37.64 509.701,37.701 510.631,38.015 510.916,38.135 511.336,38.42 511.486,38.645 511.621,39.035 511.637,39.71 
				511.605,39.905 511.486,40.28 511.411,40.46 511.262,40.685 510.887,41.15 			"/>
			<polyline fill="none" stroke="#666666" stroke-width="0.25" stroke-linejoin="round" stroke-miterlimit="3.8637" points="
				522.438,39.305 522.046,39.41 521.821,39.44 521.027,39.65 520.741,39.8 520.652,39.905 520.472,40.235 520.411,40.43 
				520.321,40.64 520.171,40.85 520.097,40.94 519.751,41.09 519.646,41.06 519.541,40.955 519.286,40.55 519.196,40.655 
				519.152,40.775 519.091,41.03 519.001,41.6 518.972,41.9 518.807,42.62 518.716,42.755 518.581,42.815 518.461,42.815 
				518.206,42.71 517.981,42.5 517.861,42.38 517.546,42.065 517.456,41.99 517.277,41.885 517.036,41.78 516.722,41.705 
				516.586,41.705 516.091,41.645 515.762,41.48 515.206,41.15 514.906,40.985 514.802,40.955 514.246,40.925 514.111,40.94 
				513.331,41.12 512.731,41.315 512.222,41.405 511.861,41.405 511.501,41.36 511.052,41.225 510.946,41.15 510.887,41.15 			"/>
			<polyline fill="none" stroke="#666666" stroke-width="0.25" stroke-linejoin="round" stroke-miterlimit="3.8637" points="
				491.296,30.846 491.701,31.28 492.182,31.925 492.286,32.015 492.541,32.435 492.706,32.9 492.751,33.125 492.767,33.335 
				492.736,33.56 492.706,33.65 492.586,33.86 492.347,34.16 492.241,34.4 492.241,34.52 492.286,34.715 492.421,35.045 
				492.677,35.435 492.736,35.525 493.156,35.96 493.23,36.08 493.621,36.5 493.861,36.92 493.938,37.25 493.966,37.475 
				493.98,37.775 493.938,38.3 493.861,38.75 493.861,38.96 493.892,39.065 493.951,39.185 494.131,39.38 494.461,39.59 
				494.581,39.62 495.017,39.86 495.227,39.951 495.361,39.98 496.171,40.4 496.517,40.625 496.591,40.715 496.666,40.835 
				496.831,41.165 496.921,41.495 496.921,41.75 496.921,42.125 496.892,42.365 496.771,43.01 496.605,43.596 496.486,43.91 
				496.396,44.045 496.352,44.135 495.751,44.705 495.406,45.215 495.302,45.425 495.241,45.83 495.152,46.175 494.956,46.535 
				494.506,46.88 494.296,47.015 494.071,47.195 493.966,47.3 493.876,47.495 493.847,47.615 493.816,47.855 493.816,48.185 
				493.831,48.71 493.816,49.055 493.727,49.971 493.621,50.39 493.591,50.525 493.531,50.615 493.472,50.93 493.352,51.245 			"/>
			<polyline fill="none" stroke="#666666" stroke-width="0.25" stroke-linejoin="round" stroke-miterlimit="3.8637" points="
				477.706,53.465 478.111,53.465 478.307,53.42 478.637,53.195 479.102,52.685 479.416,52.385 479.642,52.221 480.063,52.085 
				480.392,52.07 480.616,52.1 480.722,52.13 480.855,52.221 481.23,52.385 481.666,52.625 481.771,52.655 482.057,52.805 
				482.326,52.895 482.791,52.971 483.031,52.971 483.421,52.925 483.571,52.865 483.767,52.701 483.902,52.49 484.021,51.935 
				484.126,50.795 484.171,50.57 484.262,50.3 484.352,50.06 484.591,49.685 484.921,49.28 485.146,49.115 485.371,49.01 
				485.597,48.98 486.031,48.995 486.271,49.04 487.081,49.28 487.188,49.326 487.876,49.475 488.597,49.715 488.746,49.79 
				489.347,50.03 491.012,50.765 492.031,51.14 492.271,51.201 492.541,51.245 493.23,51.201 493.352,51.245 			"/>
			<polyline fill="none" stroke="#666666" stroke-width="0.25" stroke-linejoin="round" stroke-miterlimit="3.8637" points="
				522.438,39.305 521.896,40.115 521.432,40.91 521.536,41.015 521.642,41.09 522.392,41.48 522.887,41.69 523.081,41.795 
				523.188,41.885 523.366,42.125 523.517,42.41 523.576,42.59 523.576,42.815 523.546,43.01 523.501,43.4 523.366,44.12 
				523.321,44.225 523.216,44.675 523.052,45.23 522.871,45.65 522.616,46.04 522.438,46.221 522.302,46.43 522.196,46.52 
				522.106,46.655 521.791,46.985 521.416,47.405 521.267,47.69 521.356,48.005 521.688,48.665 522.211,49.79 522.751,50.84 
				523.352,51.89 523.831,52.775 524.191,53.315 524.521,53.735 524.656,53.975 524.688,54.26 524.746,54.56 524.836,54.785 			"/>
			<polyline fill="none" stroke="#666666" stroke-width="0.25" stroke-linejoin="round" stroke-miterlimit="3.8637" points="
				534.166,48.77 534.046,48.995 533.866,49.205 533.671,49.4 533.326,49.67 533.116,49.88 532.981,50.076 532.921,50.3 
				532.876,50.54 532.892,51.17 533.027,52.25 533.027,52.596 532.966,53 532.802,53.33 532.727,53.451 532.501,53.63 
				532.021,53.915 531.256,54.185 530.402,54.35 530.206,54.425 530.102,54.5 530.027,54.605 530.012,54.695 530.041,54.815 
				530.206,54.995 530.402,55.19 530.446,55.295 530.461,55.385 530.416,55.49 530.222,55.685 529.802,55.925 529.097,56.165 			"/>
			<polyline fill="none" stroke="#666666" stroke-width="0.25" stroke-linejoin="round" stroke-miterlimit="3.8637" points="
				529.097,56.165 528.677,56.135 528.302,56.135 528.302,56.15 527.911,56.15 527.356,56.045 526.831,55.91 525.902,55.535 
				525.152,55.025 524.881,54.815 524.836,54.785 			"/>
			<polyline fill="none" stroke="#666666" stroke-width="0.25" stroke-linejoin="round" stroke-miterlimit="3.8637" points="
				510.887,41.15 510.736,41.33 510.152,41.765 509.626,42.125 509.191,42.44 509.041,42.515 508.352,43.01 507.331,43.76 
				507.046,43.925 506.536,44.346 505.892,44.93 505.456,45.245 505.336,45.35 505.171,45.576 505.097,45.815 505.111,46.04 
				505.307,46.685 505.352,47.165 505.262,47.585 505.142,47.9 505.006,48.14 504.932,48.365 504.887,48.605 504.946,48.89 
				504.991,49.01 505.142,49.25 505.246,49.385 505.682,49.775 505.756,49.88 505.786,49.985 505.771,50.06 505.741,50.15 
				505.666,50.24 504.946,50.375 504.706,50.451 504.376,50.6 504.182,50.721 503.491,51.155 503.371,51.215 503.102,51.305 
				502.727,51.32 502.277,51.275 502.006,51.185 501.196,50.885 500.355,50.675 500.131,50.66 500.027,50.721 499.921,50.81 
				499.876,50.9 499.861,51.02 499.861,51.125 499.98,51.44 500.146,51.665 501.166,52.865 501.646,53.405 502.847,54.65 
				503.326,55.265 503.688,55.925 503.73,56.03 504.063,56.675 504.182,56.855 504.256,57.065 504.271,57.23 			"/>
			<polyline fill="none" stroke="#666666" stroke-width="0.25" stroke-linejoin="round" stroke-miterlimit="3.8637" points="
				504.271,57.23 504.031,57.14 503.791,57.096 503.416,57.035 502.711,57.035 502.336,57.096 501.196,57.44 			"/>
			<polyline fill="none" stroke="#666666" stroke-width="0.25" stroke-linejoin="round" stroke-miterlimit="3.8637" points="
				493.352,51.245 493.682,51.5 493.861,51.755 494.191,52.445 494.477,52.91 494.581,53.015 494.73,53.24 495.105,53.615 
				495.302,53.75 495.496,53.78 495.736,53.75 496.052,53.6 496.171,53.57 496.366,53.57 496.847,53.721 497.206,53.87 
				497.432,54.005 497.656,54.17 497.746,54.365 498.031,55.115 498.211,55.31 498.316,55.355 498.916,55.445 499.262,55.535 
				499.802,55.775 500.416,56.165 500.716,56.451 500.956,56.75 501.105,57.05 501.182,57.245 501.196,57.44 			"/>
			<path fill="none" stroke="#666666" stroke-width="0.25" stroke-linejoin="round" stroke-miterlimit="3.8637" d="M528.302,56.195
				c0,0,0.149,0.93,1.021,1.575c0.854,0.63,1.83-0.3,1.83-0.3l0.81-0.6l0.016,0.015l0.689,0.195l0.346,0.075l0.75,0.3l0.614,0.18
				l0.99,0.18l0.944,0.195l1.216,0.075l0.236-0.061l0.239-0.57l0.195-0.3l0.146-0.18l0.404-0.405l0.36-0.27l0.54-0.33l0.51-0.225
				l1.005-0.315l1.275-0.465"/>
			<polyline fill="none" stroke="#666666" stroke-width="0.25" stroke-linejoin="round" stroke-miterlimit="3.8637" points="
				524.836,54.785 524.461,54.846 523.637,55.115 523.411,55.25 523.231,55.445 523.081,55.67 523.036,55.88 523.052,55.985 
				523.396,56.81 523.486,57.155 523.456,57.38 523.291,57.59 523.066,57.725 522.856,57.92 522.661,58.25 522.241,59.225 
				521.762,60.185 521.671,60.41 521.626,60.605 521.642,60.8 521.671,60.905 521.762,61.115 522.046,61.685 522.121,62.105 
				522.152,62.346 522.166,62.826 522.076,63.395 522.091,63.8 522.166,63.98 522.271,64.19 522.646,64.655 522.856,64.971 
				522.946,65.18 523.036,65.465 523.066,65.705 523.066,66.02 522.961,66.605 522.977,66.71 			"/>
			<polyline fill="none" stroke="#666666" stroke-width="0.25" stroke-linejoin="round" stroke-miterlimit="3.8637" points="
				542.371,68.405 541.652,68.06 541.517,68.03 540.932,67.985 540.722,68.03 540.616,68 540.512,67.895 540.361,67.596 
				540.063,67.16 539.791,66.71 539.356,66.08 539.161,65.9 539.057,65.93 538.966,66.005 538.861,66.11 538.666,66.41 
				538.486,66.605 538.366,66.68 538.188,66.74 538.066,66.755 537.977,66.74 537.767,66.65 537.646,66.53 537.438,66.185 
				537.121,65.346 537.063,65.135 537.031,65.045 536.956,64.67 536.866,64.055 536.731,63.725 536.296,63.125 536.206,63.065 
				536.041,63.245 535.921,63.56 535.861,63.665 535.696,64.01 535.531,64.235 535.336,64.445 535.216,64.535 534.841,64.73 
				534.722,64.745 534.481,64.745 534.137,64.655 533.536,64.415 533.041,64.145 532.831,64.07 532.727,64.04 532.517,64.04 
				532.291,64.07 532.188,64.265 532.156,64.445 532.052,64.64 531.916,64.745 531.451,64.955 531.392,65.06 531.331,65.15 
				531.316,65.27 531.347,65.57 531.347,65.615 531.271,65.75 531.091,65.96 530.762,66.245 530.313,66.56 529.966,66.725 
				529.637,66.846 528.813,67.25 528.137,67.55 527.506,67.85 527.267,67.91 527.146,67.91 526.756,67.76 526.066,67.28 
				525.841,67.16 525.302,67.055 524.701,67.04 524.251,66.995 522.977,66.71 			"/>
			<polyline fill="none" stroke="#666666" stroke-width="0.25" stroke-linejoin="round" stroke-miterlimit="3.8637" points="
				522.977,66.71 522.781,66.665 522.557,66.665 522.302,66.755 521.491,67.235 521.402,67.326 520.921,67.685 520.696,67.895 
				520.171,68.451 519.977,68.615 519.602,69.096 519.347,69.365 518.896,70.01 518.701,70.4 			"/>
			<polyline fill="none" stroke="#666666" stroke-width="0.25" stroke-linejoin="round" stroke-miterlimit="3.8637" points="
				518.701,70.4 518.581,70.25 518.281,69.98 518.146,69.68 517.951,68.93 517.501,67.55 517.381,66.935 517.231,66.44 
				517.111,66.38 516.977,66.41 516.091,66.71 515.688,66.875 515.536,66.846 515.313,66.8 514.802,66.59 514.396,66.455 
				513.826,66.29 513.121,66.14 511.816,65.93 511.081,65.75 510.841,65.66 510.631,65.555 510.392,65.346 510.152,65.12 
				510.017,64.925 509.836,64.52 509.762,64.415 508.966,63.725 508.441,63.14 508.188,62.81 507.871,62.915 507.631,62.93 
				507.046,62.885 506.956,62.87 506.746,62.735 506.341,62.33 505.531,61.655 504.871,61.055 504.736,60.77 504.722,60.62 
				504.736,60.5 504.855,59.87 504.991,59.435 504.991,59.315 505.081,58.85 505.126,58.385 505.052,58.145 504.871,57.83 
				504.48,57.35 504.271,57.23 			"/>
			<polyline fill="none" stroke="#666666" stroke-width="0.25" stroke-linejoin="round" stroke-miterlimit="3.8637" points="
				488.611,77.705 491.807,75.846 492.706,75.38 493.682,75.02 494.131,74.826 494.477,74.645 494.671,74.495 494.762,74.39 
				494.777,74.285 494.746,74.195 494.642,74.09 494.281,73.955 494.086,73.76 493.966,73.55 493.921,73.43 493.951,73.221 
				494.086,72.965 494.611,72.56 494.972,72.201 495.227,71.78 495.406,71.285 495.616,70.88 495.826,70.685 495.916,70.655 
				496.036,70.655 496.517,70.79 496.652,70.82 496.756,70.79 497.688,70.326 499.576,69.785 499.756,69.56 499.876,69.245 
				499.906,69.155 499.906,68.93 499.861,68.826 499.652,68.39 499.546,68.105 499.501,67.805 499.472,67.34 499.486,66.951 
				499.546,66.56 499.637,66.245 499.696,65.855 499.727,65.54 499.666,65.3 499.517,65.076 499.156,64.88 498.421,64.64 
				497.746,64.49 497.326,64.355 497.236,64.31 497.027,64.175 496.921,64.07 496.861,63.846 496.861,63.65 497.012,63.11 
				497.191,62.585 497.446,62 498.182,61.61 498.361,61.4 498.512,61.07 498.602,60.68 498.677,60.471 498.841,60.17 499.021,59.96 
				499.262,59.765 499.486,59.63 499.727,59.525 500.236,59.24 500.671,58.865 500.836,58.685 500.941,58.565 501.046,58.326 
				501.076,58.205 501.152,57.89 501.196,57.44 			"/>
			<polyline fill="none" stroke="#666666" stroke-width="0.25" stroke-linejoin="round" stroke-miterlimit="3.8637" points="
				476.701,78.08 476.716,78.08 476.73,78.096 476.836,78.155 477.137,78.44 477.211,78.56 477.302,78.65 477.571,78.785 
				478.066,78.89 478.427,78.92 478.741,79.01 479.313,79.221 479.626,79.295 479.777,79.355 479.956,79.385 480.091,79.43 
				480.347,79.58 480.571,79.745 480.902,79.955 481.006,80.06 481.352,80.3 481.441,80.405 481.802,80.63 482.491,80.915 
				482.852,81.005 483.031,80.54 483.121,80.135 483.196,79.955 483.421,79.76 483.661,79.61 484.366,79.326 484.966,78.995 
				486.137,78.44 486.451,78.35 486.977,78.305 487.531,78.215 488.146,77.975 488.611,77.705 			"/>
			<polyline fill="none" stroke="#666666" stroke-width="0.25" stroke-linejoin="round" stroke-miterlimit="3.8637" points="
				488.611,77.705 489.017,77.826 489.631,78.08 489.871,78.17 491.161,78.71 491.791,78.92 492.286,79.145 492.722,79.19 
				493.591,79.145 494.597,79.16 495.137,79.235 495.813,79.37 496.427,79.415 496.711,79.46 497.131,79.565 497.432,79.685 
				498.331,80.15 498.736,80.39 498.946,80.48 499.052,80.495 499.262,80.48 499.472,80.405 500.102,80.076 500.191,80.06 
				500.281,80.076 500.355,80.165 500.402,80.27 500.402,80.39 500.371,80.495 499.892,81.59 499.771,81.905 499.711,82.221 
				499.727,82.52 499.771,82.701 499.847,82.91 500.012,83.225 500.402,83.705 500.73,84.05 501.152,84.471 501.392,84.665 
				501.722,84.83 502.576,85.055 503.116,85.235 503.341,85.355 503.552,85.505 503.777,85.745 504.196,86.405 504.361,86.615 
				504.796,86.945 505.142,87.155 506.222,87.56 506.611,87.755 506.73,87.83 506.791,87.935 506.881,88.16 506.911,88.445 
				506.911,88.955 506.866,90.29 506.777,91.55 			"/>
			<polyline fill="none" stroke="#666666" stroke-width="0.25" stroke-linejoin="round" stroke-miterlimit="3.8637" points="
				506.777,91.55 507.105,91.37 507.302,91.19 507.602,90.875 507.826,90.77 508.517,90.56 508.876,90.41 508.966,90.38 
				509.236,90.41 509.355,90.471 509.581,90.576 510.063,90.905 510.286,91.085 510.466,91.415 510.512,91.596 510.541,91.655 			
				"/>
			<polyline fill="none" stroke="#666666" stroke-width="0.25" stroke-linejoin="round" stroke-miterlimit="3.8637" points="
				518.701,70.4 518.566,70.565 518.296,71.105 518.012,71.84 517.591,72.74 517.216,73.701 516.991,74.105 516.271,75.26 
				515.491,76.43 515.281,76.73 515.206,76.88 514.756,77.51 514.666,77.675 514.411,78.005 514.291,78.245 514.021,78.83 
				513.586,79.64 513.361,80.135 513.211,80.645 513.182,80.96 513.196,81.155 513.331,81.725 513.406,81.905 513.466,81.995 
				514.188,82.1 515.461,82.175 516.076,82.28 516.706,82.43 517.427,82.745 517.652,82.88 518.326,83.195 518.941,83.525 
				518.956,83.63 518.927,83.721 518.821,84.425 518.746,84.71 518.626,85.025 518.416,85.31 518.071,85.52 517.847,85.64 
				517.142,85.925 516.932,86.105 516.466,86.63 516.121,86.675 515.777,86.645 515.446,86.675 515.356,86.69 515.071,86.84 
				514.652,87.185 512.251,88.265 511.831,88.55 511.427,88.775 510.916,89.105 510.826,89.21 510.677,89.39 510.631,89.495 
				510.602,89.675 510.646,89.795 511.066,90.11 511.262,90.305 511.441,90.605 511.546,90.785 511.666,91.13 511.756,91.46 
				511.786,91.655 511.771,91.745 511.727,91.85 511.605,91.925 511.501,91.955 511.396,91.971 511.201,91.955 511.006,91.88 
				510.541,91.655 			"/>
			<polyline fill="none" stroke="#666666" stroke-width="0.25" stroke-linejoin="round" stroke-miterlimit="3.8637" points="
				499.771,92.87 500.746,92.315 501.241,92.15 501.496,92.12 501.887,92.135 502.98,92.27 504.182,92.48 504.706,92.48 
				505.021,92.39 505.246,92.285 505.892,91.895 506.012,91.85 506.313,91.79 506.521,91.701 506.777,91.55 			"/>
			<polyline fill="none" stroke="#666666" stroke-width="0.25" stroke-linejoin="round" stroke-miterlimit="3.8637" points="
				510.541,91.655 510.602,91.835 510.736,92.03 510.841,92.135 511.036,92.285 511.321,92.435 511.756,92.57 512.071,92.6 
				512.416,92.585 512.866,92.51 513.166,92.39 513.376,92.346 513.586,92.33 513.796,92.405 513.916,92.495 514.142,92.735 
				514.517,93.305 514.786,93.605 515.071,93.86 515.521,94.1 516.017,94.205 516.286,94.25 516.571,94.25 516.661,94.221 
				516.767,94.13 516.796,94.025 516.781,93.26 516.856,93.17 516.961,93.185 517.171,93.29 517.606,93.635 518.161,94.235 			"/>
			<polyline fill="none" stroke="#666666" stroke-width="0.25" stroke-linejoin="round" stroke-miterlimit="3.8637" points="
				485.313,96.035 485.911,95.96 486.451,95.96 486.722,95.93 487.291,95.855 487.666,95.855 489.121,95.765 489.361,95.721 
				490.216,95.27 490.441,95.225 490.576,95.24 490.816,95.285 491.281,95.435 491.642,95.51 492.152,95.585 492.406,95.6 
				492.796,95.675 493.126,95.69 493.456,95.585 493.637,95.405 493.696,95.165 493.682,94.85 493.696,94.46 493.786,94.145 
				493.938,93.935 494.041,93.83 494.387,93.65 494.762,93.515 495.451,93.215 495.541,93.185 495.751,93.17 496.171,93.335 
				496.802,93.365 497.461,93.335 498.017,93.275 499.111,93.08 499.531,92.975 499.771,92.87 			"/>
			<polyline fill="none" stroke="#666666" stroke-width="0.25" stroke-linejoin="round" stroke-miterlimit="3.8637" points="
				471.916,84.096 471.932,84.125 471.961,84.32 471.902,84.665 471.826,84.965 471.631,85.49 471.527,85.73 471.451,85.955 
				471.451,86.165 471.48,86.27 471.661,86.465 472.111,86.885 472.591,87.275 472.741,87.471 472.741,87.56 472.666,87.65 
				472.427,87.77 472.066,87.815 471.932,87.815 471.616,87.846 471.063,87.935 470.716,88.28 469.906,89.27 469.696,89.555 
				469.682,89.66 470.102,89.96 471.091,90.53 471.438,90.755 471.902,91.145 472.321,91.55 472.486,91.76 472.682,92.045 
				473.102,92.765 473.177,92.87 473.387,93.005 473.506,93.035 474.392,93.096 474.855,93.215 475.605,93.455 476.251,93.71 
				476.461,93.846 477.076,94.326 477.166,94.445 477.286,94.775 477.361,95.225 477.406,95.645 477.496,95.826 477.602,95.93 
				477.691,95.99 478.006,96.02 478.802,96.005 480.466,95.855 481.291,95.735 482.102,95.705 483.076,95.69 483.902,95.75 
				484.216,95.795 485.313,96.035 			"/>
			<polyline fill="none" stroke="#666666" stroke-width="0.25" stroke-linejoin="round" stroke-miterlimit="3.8637" points="
				485.313,96.035 484.366,97.895 483.796,99.005 483.256,99.77 482.777,100.28 481.816,101.165 480.661,102.125 479.191,103.221 
				475.517,106.01 473.402,107.735 471.781,108.965 470.986,109.61 470.387,110.09 467.688,112.1 466.381,113.015 462.961,114.485 
							"/>
			<polyline fill="none" stroke="#666666" stroke-width="0.25" stroke-linejoin="round" stroke-miterlimit="3.8637" points="
				499.771,92.87 499.771,93.11 499.921,93.395 500.131,93.695 500.296,93.89 500.506,94.085 501.001,94.43 501.406,94.625 
				501.781,94.745 501.887,94.82 501.961,94.925 501.961,95.015 501.961,95.12 501.841,95.3 501.392,95.721 500.491,96.335 
				499.938,96.815 499.861,96.905 499.621,97.385 499.546,97.596 499.486,97.88 499.472,98.18 499.486,98.405 499.531,98.826 
				499.605,99.905 499.741,100.701 499.892,101.315 500.027,101.75 500.296,102.471 500.432,102.785 500.552,103.055 
				500.807,103.64 501.152,104.285 501.616,105.005 502.381,106.326 502.456,106.43 502.652,106.565 502.966,106.73 
				503.491,106.895 503.852,107.045 504.182,107.27 504.361,107.48 504.736,108.201 504.916,108.41 505.021,108.485 
				505.126,108.545 505.381,108.576 505.802,108.471 505.892,108.485 506.027,108.56 506.387,108.905 506.688,109.235 
				507.302,109.835 507.451,110.045 507.527,110.255 507.48,110.585 507.421,110.78 507.241,111.185 506.866,111.74 506.777,111.86 
				506.597,112.16 506.506,112.4 506.491,112.505 506.521,112.685 506.671,112.925 506.791,113.045 507.076,113.3 508.052,114.096 
				508.411,114.41 508.682,114.71 508.847,114.935 508.98,115.16 509.656,116.451 509.821,116.721 510.121,117.14 510.302,117.335 
				510.813,117.83 511.188,118.25 			"/>
			<polyline fill="none" stroke="#666666" stroke-width="0.25" stroke-linejoin="round" stroke-miterlimit="3.8637" points="
				528.977,107.99 528.347,108.335 527.911,108.65 527.716,108.86 527.581,109.07 527.371,109.37 527.222,109.685 527.012,109.94 
				526.486,110.346 526.411,110.435 526.231,110.78 526.126,111.11 525.961,111.455 525.586,111.995 525.241,112.4 524.986,112.701 
				524.852,112.94 524.611,113.405 524.581,113.54 524.313,114.11 524.161,114.185 523.711,114.26 522.541,114.605 522.121,114.77 
				521.671,114.965 521.432,115.1 521.116,115.295 520.666,115.67 519.902,116.451 519.451,116.855 519.121,117.096 
				518.626,117.305 517.606,117.5 516.826,117.665 516.121,117.995 515.896,118.04 515.267,118.04 514.727,117.951 514.171,117.92 
				513.826,117.98 512.611,118.34 512.251,118.34 511.352,118.221 511.188,118.25 			"/>
			<polyline fill="none" stroke="#666666" stroke-width="0.25" stroke-linejoin="round" stroke-miterlimit="3.8637" points="
				511.188,118.25 511.996,119.21 512.281,119.525 512.597,119.795 512.821,119.945 513.302,120.14 513.841,120.305 513.977,120.32 
				514.216,120.335 514.861,120.245 515.161,120.26 515.251,120.305 515.387,120.38 515.491,120.471 515.566,120.56 
				515.671,120.785 515.701,120.965 515.716,121.49 515.688,121.805 515.701,123.08 515.671,123.275 515.611,123.485 
				515.267,124.25 			"/>
			<polyline fill="none" stroke="#666666" stroke-width="0.25" stroke-linejoin="round" stroke-miterlimit="3.8637" points="
				515.267,124.25 515.191,124.37 515.131,124.565 515.116,124.685 515.131,124.91 515.251,125.12 515.491,125.346 516.196,125.826 
				517.097,126.53 517.262,126.725 517.277,126.83 517.262,126.935 517.156,127.04 516.841,127.175 516.438,127.265 516.331,127.34 
				516.196,127.535 516.152,127.745 516.152,127.971 516.211,128.885 516.256,129.125 516.286,129.245 516.406,129.44 
				516.496,129.56 516.602,129.635 516.661,129.725 516.722,129.83 516.722,130.04 516.646,130.25 516.421,130.61 516.091,131.015 
				515.746,131.39 515.671,131.51 515.566,131.81 515.536,132.035 515.461,132.755 515.491,133.355 515.566,133.67 516.781,135.725 
				516.631,135.815 516.302,135.83 516.166,135.8 515.762,135.635 515.313,135.35 514.906,135.08 514.486,134.765 513.856,134.24 
				513.302,133.835 512.881,133.505 512.597,133.221 512.206,132.695 511.938,132.38 511.847,132.29 511.517,132.05 511.321,131.96 
				510.871,131.81 510.331,131.75 509.836,131.765 509.161,131.885 508.591,132.035 508.307,132.14 507.691,132.515 
				506.986,133.145 506.506,133.49 506.206,133.685 497.73,135.77 495.48,135.86 492.361,135.951 477.616,139.355 			"/>
			<polyline fill="none" stroke="#666666" stroke-width="0.25" stroke-linejoin="round" stroke-miterlimit="3.8637" points="
				515.267,124.25 515.402,124.295 515.642,124.265 516.166,124.295 516.946,124.28 518.206,124.07 518.972,123.8 519.406,123.576 
				519.557,123.395 519.977,122.78 520.246,122.48 520.366,122.375 520.472,122.3 520.682,122.225 520.892,122.195 521.222,122.21 
				521.821,122.315 522.646,122.51 522.871,122.525 522.991,122.495 523.081,122.435 523.307,122.105 523.381,122.015 
				523.591,121.85 523.802,121.715 524.102,121.61 524.656,121.46 525.182,121.295 525.767,120.905 526.066,120.755 526.307,120.65 
				526.786,120.5 527.477,120.305 527.896,120.14 528.451,119.87 529.307,119.405 529.621,119.27 529.847,119.21 530.146,119.195 
				530.477,119.21 531.466,119.39 531.751,119.375 532.097,119.285 532.711,119.06 532.921,119.015 533.012,119.03 533.116,119.09 
				533.191,119.21 533.191,119.3 533.177,119.39 533.116,119.495 532.906,119.78 532.876,119.99 532.921,120.185 532.921,120.275 
				532.711,120.29 532.517,120.26 532.291,120.305 532.171,120.5 532.201,120.605 532.321,120.8 532.411,120.905 532.666,121.085 
				532.981,121.25 533.313,121.34 533.581,121.385 534.063,121.415 534.571,121.475 534.961,121.58 535.517,121.775 
				536.206,122.105 537.121,122.57 537.541,122.721 538.666,123.23 540.001,123.92 541.381,124.475 541.696,124.64 541.892,124.805 
				542.012,125 542.251,125.9 542.313,126.245 542.402,126.485 542.642,126.815 542.836,127.01 543.166,127.28 543.871,127.925 
				544.097,128.06 544.381,128.165 544.576,128.285 544.741,128.495 544.831,128.78 544.861,128.96 544.802,129.425 
				544.682,129.875 544.396,130.596 544.321,130.805 544.277,131 544.246,131.225 544.246,131.66 544.321,132.951 544.352,133.745 
				544.336,133.971 544.277,134.21 544.142,134.615 544.066,134.945 544.052,135.05 544.081,135.17 544.188,135.29 545.161,136.1 
				545.836,136.535 547.517,137.826 548.267,138.5 549.392,139.58 550.156,140.15 550.472,140.36 550.741,140.525 551.041,140.585 
				551.236,140.57 551.852,140.435 552.076,140.435 552.182,140.51 552.211,140.675 552.076,140.9 551.836,141.201 551.461,141.515 
				550.966,141.846 550.682,142.01 550.472,142.115 549.796,142.326 549.316,142.52 548.956,142.715 548.611,142.955 
				548.206,143.255 547.981,143.48 547.486,144.05 546.602,145.67 546.376,146.06 546.121,146.585 			"/>
			<polyline fill="none" stroke="#666666" stroke-width="0.25" stroke-linejoin="round" stroke-miterlimit="3.8637" points="
				504.646,209.645 504.302,209.225 504.152,209.03 			"/>
		</g>
	</g>
</g>
</svg>
