<?xml version="1.0" encoding="utf-8"?>
<!-- Generator: Adobe Illustrator 13.0.0, SVG Export Plug-In . SVG Version: 6.00 Build 14948)  -->
<!DOCTYPE svg PUBLIC "-//W3C//DTD SVG 1.0//EN" "http://www.w3.org/TR/2001/REC-SVG-20010904/DTD/svg10.dtd">
<svg version="1.0" id="Calque_1" xmlns="http://www.w3.org/2000/svg" xmlns:xlink="http://www.w3.org/1999/xlink" x="0px" y="0px"
	 width="553.59px" height="533.668px" viewBox="0 0 553.59 533.668" enable-background="new 0 0 553.59 533.668"
	 xml:space="preserve">
<path fill="#85BA3B" d="M257.998,177.301c-0.842,0.097-1.18,0.302-1.92,0.48c-0.313,0.581-0.432,0.68-0.48,1.68
	c0.303,0.326,0.328,0.424,0.48,0.96c1.22,0.276,3.641,0.491,4.8,0.96c-2.082,5.171,4.659,6.108,5.76,9.84
	c-1.03,0.19-0.82,0.68-1.439,0.96c-0.721,0-1.44,0-2.16,0c-0.08,0-0.16,0-0.24,0c-0.345,0.244-0.454,1.314-0.72,1.68
	c-0.684,0.938-2.17,2.213-3.12,2.88c-1.375,0.964-3.854,1.212-5.04,2.4c-0.08,0.32-0.16,0.64-0.24,0.96
	c-0.6,1.061-1.439,2.42-2.4,3.12c-3.418,2.495-8.326,2.994-12.479,4.8c-2.882,1.253-4.853,3.406-7.44,5.04
	c-2.75,1.736-5.518,3.493-8.399,5.28c-0.597,0.37-2.091,1.874-2.64,1.44c-3.113-1.139-5.242-6.552-6.961-9.36
	c-3.025-4.947-5.75-8.252-11.52-10.56c-0.068,13.719-10.592,15.667-19.2,20.88c-1.878,1.138-3.957,2.292-5.76,3.6
	c-0.677,0.49-0.737,1.1-1.681,1.44c-0.16-0.24-0.319-0.48-0.479-0.72c-0.755-0.294-2.241,0.611-2.88,0.72
	c-2.87,0.489-5.836-0.274-7.92-0.96c-3.327-1.095-6.773-2.748-9.84-4.08c-1.111-0.482-2.194-0.525-3.12-1.2
	c-1.231-0.898-1.2-3.331-2.4-4.32c-1.974-1.465-6.527-0.412-8.16-1.44c-4.932-1.893-2.321-12.528-8.64-12.48
	c-0.434,0.365-1.68,0.96-1.68,0.96c-1.977-1.277-5.314-3.757-6.24-6c-0.693-1.678-0.314-3.285-1.2-4.56
	c-2.373-3.415-5.799-7.091-9.12-9.6c-1.567-1.184-2.741-3.131-4.32-4.32c-2.035-1.533-7.875-4.948-7.92-7.92
	c0.981-1.495,0.852-4,1.44-5.76c0.658-1.971,1.849-4.163,2.64-6c0.395-0.917,1.072-2.351,0.48-3.36c-0.454-1.335-4.143-5.243-5.28-6
	c-1.737-1.156-2.622,0.206-2.64-2.88c0.952-1.302,1.128-3.375,2.4-4.32c2-0.72,4-1.44,6-2.16c2.057-1.259,3.424-3.4,5.28-4.8
	c1.09-0.822,2.417-1.431,3.36-2.4c3.198,0.091,9.265,5.086,11.04,6.96c2.01-0.084,4.113-0.739,5.04-1.92
	c1.141-1.453,0.792-3.223,3.36-3.36c1.427-0.961,3.823-0.824,5.52-1.44c1.687-0.612,3.54-1.163,5.28-1.92
	c1.845-0.803,2.978-2.271,5.52-2.4c2.802,3.064,4.019,1.169,7.68,0.96c0.924,1.321,3.4,2.836,5.28,3.12
	c0.411-0.403,0.887-0.641,1.2-0.48c1.718,1.153,2.149,3.136,3.36,4.8c0.64,0.56,1.279,1.12,1.92,1.68
	c4.439,0.057,5.5-2.239,8.64-3.12c0.94-0.265,2.546,0.109,3.12,0.24c2.369,0.542,9.627,1.372,12.479,0.72
	c5.338-1.22,10.385-1.951,15.36-3.6c1.901-0.63,3.614-1.911,5.521-2.4c3.562-0.914,6.842,1.177,10.08,0.24
	c2.664-0.771,4.106-3.466,6.239-4.8c1.714-1.072,3.608-0.865,5.761-1.68c3.512-1.331,5.879-5.281,7.439-8.64
	c2.527,0.063,3.758-0.504,5.52-1.2c0.16,0.72,0.32,1.44,0.48,2.16c-0.832,0.603-1.788,1.567-1.92,2.88
	c-1.902,3.005,1.914,7.6,2.88,8.88c2.272,3.011,6.437,4.359,8.64,7.44c1.2,2.16,2.4,4.32,3.601,6.48
	c0.579,1.562,0.003,3.657,0.72,5.04c0.766,1.478,1.999,1.167,2.16,3.6c-0.783,0.897-0.988,1.838-0.96,3.6
	c2.431,0.634,4.105,4.467,4.32,7.2c-1.762,0.698-0.552,2.835-1.44,4.08c-1.915-1.366-1.789,1.114-2.16,2.16
	c-3.085,0.257-7.896,0.881-7.92,4.32c0.298,0.376,0.154,0.123,0,0.479c-0.771,0.474-1.27,0.029-1.68,0.96
	C256.59,174.094,257.836,175.829,257.998,177.301z"/>
<path fill="#85BA3B" d="M112.799,236.101c-0.129,2.949-0.702,4.905-1.92,6.72c-0.26-0.218-0.02,0.02-0.24-0.24
	c-0.543-0.52-3.469-2.788-4.08-2.16c-0.24,0.08-0.48,0.16-0.72,0.24c0.457,1.097,0.416,2.027,0.24,3.36
	c-0.922,0.634-3.551,3.648-4.8,2.88c-0.898-0.295-2.028-1.27-2.64-1.92c-1.1-0.017-2.088,0.077-2.88,0.24c0,0.96,0,1.92,0,2.88
	c0.663,0.896,2.059,4.466,1.68,5.28c-0.392,1.806-1.614,1.218-1.68,3.6c1.006,1.045,1.785,2.158,2.88,3.12
	c-0.151,0.421-0.046,0.233-0.24,0.48c-0.42,0.606-0.441,0.633-1.44,0.72c-1.865-1.582-5.53-2.157-6.24,0.72
	c1.162,0.243,1.813,0.543,1.92,1.92c-1.156,0.611-4.043,0.423-4.56,0.96c-0.55,0.571-1.26,3.783-1.68,4.8
	c-1.727,4.182-3.174,3.508-2.88,9.84c-3.305,1.471-4.167,1.877-6.48,4.32c-0.08,0.72-0.16,1.438-0.24,2.16
	c1.144,0.023,1.725,0.271,2.64,0.479c0,0.32,0,0.641,0,0.96c-0.436,0.604-0.619,1.756-0.72,2.642c1.28,0,2.56,0,3.84,0
	c0.187,0.537,0.245,1.304,0.24,2.16c-0.511,0.301-1.024,0.781-1.68,0.959c-0.446,0.12-2.16-0.24-2.16-0.24c0,0.16,0,0.319,0,0.479
	c-1.473,2.325,2.402,4.731,1.92,7.681c-6.138,2.424-9.584,6.146-11.04,13.2c-3.709,0.919-5.485,4.822-8.88,6.239
	c-1.026,0.43-3.729,0.07-4.32,0.96c0.274,0.406,0.256,1.176,0.24,1.92c-1.745,1.022-3.865,1.252-6,2.16
	c-2.3,0.979-4.598,2.558-7.2,3.358c-1.377,0.427-2.383,0.222-3.6,0.722c-3.398,1.396-6.555,3.266-11.28,3.358
	c-0.897-1.569-1.306-3.811-3.84-3.84c-0.937,2.232-2.188,5.993-4.8,6.479c-0.693-0.675-1.423-0.665-2.4-0.479
	c-0.143,0.879-0.239,1.563-0.96,1.92c-0.938,0.83-2.882,1.186-4.08,1.682c-0.233-1.198-0.679-1.256-0.72-2.881
	c1.162-1.857,0.625-5.106,1.2-7.439c1.042-4.225,3.835-10.499,2.64-16.08c-0.552-2.574-1.949-8.111-1.2-11.279
	c0.824-3.484,2.502-5.711,4.32-8.16c0.496-0.668,1.629-1.324,1.92-2.159c0-1.279,0-2.562,0-3.841c0.4-1.438,0.8-2.879,1.2-4.318
	c1.722-4.061,5.813-7.253,8.88-10.08c-0.005-4.438-1.378-3.957-2.16-6.48c-0.817-2.638,2.647-5.338,0.72-8.64
	c-0.997-1.708-2.716-2.956-4.08-4.32c-2.017-2.017-3.838-4.116-5.52-6.48c-0.793-1.116-2.71-3-1.92-5.52
	c0.18-0.574,1-1.351,1.2-1.92c0.314-0.894,0.219-1.69,0.48-2.4c2.219-1.032,5.533-2.271,6.479-4.56c0.16-1.12,0.32-2.24,0.48-3.36
	c0.489-0.899,2.022-1.357,2.4-2.4c0.837-2.316-0.232-5.412,0.96-7.2c1.26-1.891,3.917-2.693,4.8-5.04c0.08-0.96,0.16-1.92,0.24-2.88
	c0.201-0.913,0.521-3.033,0.24-4.32c-0.343-1.565-0.464-3.374-1.2-4.56c-1.207-1.945-3.031-2.553-3.12-5.76
	c1.144-1.535,1.543-3.524,2.64-5.04c1.056-1.459,2.765-2.633,3.84-4.08c0.827-1.114,1.386-3.2,2.88-3.6
	c2.413-1.572,6.575-0.771,7.68-3.6c-2.437-1.93-4.444-9.444-5.28-13.2c-0.759-3.41,0.872-8.364,3.12-8.88
	c3.3,2.541,14.052,0.696,19.44,0.72c1.626,0.007,6.102,1.043,6.24,0.96c2.815-1.707,4.543-5.856,6-8.88
	c4.277,0.03,4.835-2.886,7.68-4.08c2.13-0.895,5.545,0.022,7.92-0.72c1.814-0.567,2.992-2.045,4.56-2.88c0,0.16,0,0.32,0,0.48
	c-1.014,1.266-0.646,3.69-0.48,5.52c0.658-0.23,1.911-0.402,2.64,0c1.036,0.571,5.087,5.076,5.28,6.48
	c-2.382,3.085-4.408,11.156-5.04,16.08c2.457,1.56,4.444,3.815,6.72,5.52c5.093,3.815,10.405,8.557,14.16,13.68
	c0.533,0.727,1.429,1.803,1.68,2.64c0.389,1.296-0.09,2.376,0.48,3.36c1.526,2.637,4.994,4.89,7.2,6.96
	c0.245-0.193,0.066-0.085,0.48-0.24c0.16-0.48,0.32-0.96,0.48-1.44c0.72-0.08,1.44-0.16,2.16-0.24c1.945,3.565,2.616,10.055,6,12.24
	c0,0.08,0,0.16,0,0.24c-2.2,0.513-4.614,2.428-4.56,5.28c1.205,1.214,2.162,2.614,2.16,5.04c-1.704,1.654-2.235,3.15-5.76,3.12
	c-0.218-0.26,0.019-0.02-0.24-0.24c-0.114-1.809-0.16-3.173-0.24-5.04c-0.497-0.308-0.552-0.499-1.2-0.72
	c-0.836-0.59-1.637-0.062-1.92,0.72c-1.103,1.817,0.875,3.687,0.24,5.76C126.323,233.874,119.745,236.118,112.799,236.101z"/>
<path fill="#85BA3B" d="M265.919,192.661c1.342,1.453,1.794,3.826,2.64,5.76c2.042,4.674,4.354,9.868,7.2,13.92
	c2.015,2.869,5.321,6.179,8.64,7.68c1.394,0.629,2.898,0.461,4.32,1.2c1.694,0.88,3.295,4.683,4.563,6.24
	c-0.518,2.445-3.598,5.827-5.521,6.72c-0.959,0.445-1.854,0.015-2.641,0.48c-2.006,1.187-1.75,3.348-3.12,4.8
	c-0.756,0.802-2.474,0.773-3.12,1.68c-0.32,1.12-0.64,2.24-0.96,3.36c-1.143,1.837-3.36,2.999-4.561,4.8
	c-0.88,1.84-1.76,3.68-2.64,5.52c-0.774,1.021-2.385,1.553-3.12,2.64c-0.657,0.972-0.541,2.348-1.2,3.36
	c-1.039,1.594-3.5,1.766-5.039,2.88c-1.737,1.256-2.593,3.746-3.84,5.52c-1.095,1.557-2.77,2.508-4.08,3.84
	c-4.139-1.939-9.459-3.918-11.761-7.679c-0.843-1.377-0.196-2.862-0.72-4.8c-0.733-2.713-2.627-5.093-3.84-7.44
	c-0.479-1.28-0.961-2.56-1.44-3.84c-0.405-0.274-1.175-0.256-1.92-0.24c-1.925,1.299-4.888,1.529-5.04,4.56
	c0.193,0.245,0.085,0.066,0.24,0.48c-4.801,0.091-3.086,4.994-7.92,5.04c0,0.08,0,0.16,0,0.24c-0.562,0.813,0.126,1.556-0.48,1.92
	c-0.861,0.729-2.191,0.454-3.359,0.96c-2.193,0.95-3.164,2.522-4.08,4.8c-4.355,0.133-10.352,1.347-14.4,0.48
	c-1.439,0-2.88,0-4.32,0c-2.479-0.48-4.959-0.96-7.439-1.44c-0.571,0.852-0.926,0.861-0.96,2.4c1.044,0.771,2.64,2.309,2.88,3.841
	c-0.219,0.224-0.32,0.421-0.48,0.72c-4.675-2.002-10.289-0.229-11.279,4.319c-0.16,0-0.32,0-0.48,0c-0.298-2.325-1.822-4.157-2.64-6
	c-2.231-5.024-4.242-9.477-6.24-14.88c-0.822-2.223-2.495-6.164-1.681-9.6c0.755-3.178,1.81-6.029,3.841-7.92
	c1.165-1.084,3.771-1.755,4.08-3.6c0.815-1.331,0.852-6.656,1.2-8.4c1.336-0.269,5.422-3.866,6.959-4.8
	c5.981-3.636,13.299-5.466,17.281-11.04c1.166-1.633,2.271-3.949,2.879-6c0.396-1.327,0.065-2.83,0.721-3.84
	c1.896,1.558,4.291,2.112,5.76,4.08c2.627,3.52,4.654,7.738,7.2,11.28c0.86,1.199,3.071,4.802,4.56,4.32
	c2.764-0.817,5.174-3.122,7.44-4.56c1.927-1.223,3.927-2.025,5.76-3.36c1.329-0.968,2.344-2.479,3.84-3.36
	c3.122-1.839,7.095-2.122,10.56-3.6c1.875-0.799,4.379-2.259,5.521-3.84c0.399-0.8,0.8-1.6,1.2-2.4
	c1.48-1.186,3.943-1.733,5.52-2.88c0.793-0.578,2.733-3.629,3.12-3.84C264.498,192.605,265.237,193.381,265.919,192.661z"/>
<path fill="#85BA3B" d="M174.238,226.261c-0.399,3.12-0.799,6.24-1.199,9.36c-5.314,2.558-9.84,9.406-7.44,18
	c2.033,7.28,5.627,13.119,8.4,19.439c1.026,2.34,1.854,3.926,1.92,7.199c-2.104,1.398-9.332,7.23-13.2,4.801
	c-0.572-0.961,0.323-2.053-0.24-3.119c-1.703-3.229-6.834-5.26-10.56-6.479c-1.12-0.239-2.24-0.479-3.36-0.72
	c-1.268-0.637-2.398-1.744-4.08-2.16c-2.8,0.16-5.601,0.32-8.4,0.48c-2.313-0.088-5.341-2.862-7.68-1.44
	c-1.207,0.457-1.492,1.481-2.4,2.16c-1.808,1.351-4.008,2.755-6.48,3.36c-6.478,1.584-10.97-3.949-14.64-5.521
	c-3.468-1.484-7.822-1.049-11.76-2.16c-1.746-0.493-3.12-1.42-4.56-2.16c0.144-0.414,0.214-0.756,0.24-1.44
	c0.501-0.27,0.439-0.344,1.2-0.479c0.863,0.587,2.058-0.022,2.88-0.24c0.497-0.771,0.85-0.888,0.96-2.16
	c-0.56-0.5-1.387-1.173-1.68-1.92c2.37-0.173,3.909,1.257,6.72,0.96c0.298-0.944,0.646-1.071,0.72-2.4
	c-1.134-1.004-2.466-1.865-2.88-3.6c1.115-0.698,1.817-1.626,1.92-3.36c-1.141-1.604-1.895-4.197-1.92-6.72c0.56,0,1.12,0,1.68,0
	c2.163,3.336,6.681,1.635,8.4-1.2c0.471-0.777,0.243-2.293,0.72-3.12c0.477,0.444,1.469,0.489,1.92,0.96
	c0.557,0.581,0.194,1.237,0.96,1.68c0.885-0.827,1.951-1.107,2.4-2.4c0.766-1.05,0.231-3.449,0.96-4.56
	c1.384-0.813,3.938-0.238,5.52-0.72c3.98-1.211,8.497-3.622,9.6-7.68c0.576-2.118-0.43-3.716-0.48-5.76c0.16,0,0.32,0,0.48,0
	c0.371-0.169,0.033-0.031,0.72,0c0.552,1.563,0.341,3.75,0.72,5.52c0.24,0.08,0.48,0.16,0.72,0.24c2.775,1.856,5.94-2.354,6.96-3.36
	c0.053-4.208-1.848-3.907-2.16-6.96c0.96-0.88,1.92-1.76,2.88-2.64c2.178-1.331,7.435-1.297,9.36,0.24
	c0.99,1.058,0.991,3.209,2.16,4.08c1.63,1.215,3.777,1.548,5.76,2.4C161.708,225.114,166.249,227.199,174.238,226.261z"/>
<path fill="#85BA3B" d="M312.958,344.102c-3.866,0.01-6.16,2.211-9.601,1.92c-1.291-4.609-3.699-6.192-2.159-12.238
	c-0.08,0-0.16,0-0.24,0c-1.678,1.212-4.298,0.691-6.722,1.197c-7.875,1.65-19.538-1.354-24.959-3.6
	c-2.227-4.742-3.663-7.385-2.88-14.16c-2.646-1.768-3.614-4.846-7.92-5.039c-0.339-2.699-2.575-2.98-3.36-5.041
	c-0.239-3.039-0.479-6.08-0.719-9.119c-1.117-4.484-2.17-9.022-4.561-12.238c-0.837-1.127-2.372-1.656-3.359-2.643
	c-9.543,0.037-11.604,12.959-19.441,13.682c-0.504-3.527-7.252-10.205-10.559-10.801c-0.605,0.939-1.568,1.664-1.921,2.879
	c-1.063,3.68,0.104,8.313-1.2,11.521c-2.707,1.732-6.096,0.542-10.32,0.479c-0.773-3.238-3.271-5.961-4.559-8.879
	c-2.33-5.271-3.031-11.916-6.24-16.318c-0.72-0.987-1.994-1.563-2.881-2.398c0.452-0.457,0.715-1.484,0.24-2.16
	c-0.392-1.158-1.792-2.348-2.64-3.121c0-0.16,0-0.319,0-0.479c0.414-0.144,0.757-0.213,1.44-0.24
	c1.476,0.987,3.721,0.512,5.76,0.959c6.043,1.327,13.328-0.156,19.68-0.24c0.633-2.333,1.758-3.929,3.84-4.8
	c1.846-0.773,4.01-0.038,4.32-2.4c-0.182-0.258-0.145-0.227-0.24-0.72c0.641,0,1.279,0,1.92,0c0.948-1.554,2.954-4.993,5.28-5.04
	c0.37,0.17,0.032,0.031,0.72,0c0.264-0.745,0.166-1.374,0-2.16c1.723-1.153,2.491-2.659,5.28-2.88c0.5,3.958,3.457,6.77,4.8,10.08
	c0.16,1.6,0.32,3.2,0.48,4.8c1.375,3.826,6.096,5.625,9.6,7.441c0.888,0.459,2.559,2.141,4.08,1.68
	c2.816-0.854,5.449-6.334,7.199-8.641c1.388-1.825,4.7-1.926,6.001-3.84c0.479-1.2,0.96-2.4,1.439-3.6c0.96-0.8,1.92-1.6,2.88-2.4
	c1.257-1.691,1.666-4.02,2.88-5.76c1.235-1.771,3.438-2.96,4.561-4.8c0.24-1.04,0.479-2.08,0.721-3.12
	c0.594-0.822,2.066-0.806,2.879-1.44c2.235-1.745,0.854-4.709,5.041-5.28c0.722,0.58,1.24,0.119,1.682,0.72
	c1.359,2.296-1.286,6.641-0.48,9.84c0.865,3.434,3.438,5.078,5.04,7.68c0.673,1.092,0.466,3.043,1.681,3.6
	c0.766,0.466,3.07,0.085,4.079-0.24c2.732-0.881,3.823-1.67,7.2-0.96c0,0.08,0,0.16,0,0.24c0.08,0,0.16,0,0.24,0
	c0.556,4.395-1.837,5.999-1.92,10.56c0.664,0.684,1.272,1.472,1.92,2.16c5.005,0.058,5.06-3.319,9.359-3.6
	c0.589,0.742,1.6,1.171,2.158,1.92c1.708,2.277,3.277,4.766,5.763,6.24c4.677,2.778,10.652-0.672,10.56,7.44
	c-0.572,0.875-0.343,7.104,0,8.159c0.439,1.351,1.377,2.395,1.68,3.841c-1.59,1.142-2.465,4.754-2.64,7.2
	c0.807,0.852,1.034,2.09,1.68,3.119c2.688,4.287,2.488,4.662,1.44,10.318c-0.204,1.104,0.754,2.705,0.479,3.12
	c-1.664,2.472-4.806,4.229-7.198,6c-4.336,3.21-8.45,7.011-12.239,10.8c-1.369,1.369-4.332,3.985-5.04,5.762
	C312.958,340.74,312.958,342.421,312.958,344.102z"/>
<path fill="#85BA3B" d="M42.719,329.939c4.063-0.067,6.87-2.664,10.08-3.84c1.667-0.61,3.938-0.558,4.8-1.92
	c0.16-0.722,0.32-1.439,0.48-2.16c4.828,0.006,6.613-3.234,9.36-5.279c1.025-0.764,2.981-1.008,3.36-2.4
	c0.48-1.52,0.96-3.041,1.44-4.561c1.538-3.526,5.125-7.115,9.6-7.68c0.416-5.109-1.797-4.238-2.16-7.92
	c1.416,0.02,2.11-0.234,3.12-0.479c0.716-1.11,0.994-1.771,0.96-3.841c-0.908-0.491-3.02-0.439-3.84-0.959
	c0.606-0.799,0.466-2.1,0.24-3.121c-1.038-0.387-2.008-0.242-2.16-1.68c1.041-0.99,1.934-2.016,3.36-2.642
	c1.02-0.448,3.146-0.747,3.6-1.681c0.276-0.567-1.117-2.618-0.72-4.079c0.574-2.108,2.319-3.613,3.12-5.521
	c0.36-0.856,0.192-1.556,0.72-2.159c2.718,3.381,9.509,2.33,14.16,3.84c3.762,1.223,6.19,3.834,9.6,5.281
	c7.263,3.08,13.553-1.051,17.04-4.803c2.584-0.008,3.842,1.143,5.76,1.682c3.372,0.947,6.259-1.276,9.36-0.479
	c1.71,0.44,2.931,1.562,4.32,2.159c1.596,0.688,3.132,0.582,4.8,1.201c2.541,0.941,4.554,2.367,6.48,3.84
	c0.619,0.473,1.556,1.018,1.92,1.68c0.288,0.521,0.292,3.027,0.48,3.84c-1.296,0.83-2.784,3.146-2.16,5.76
	c0.72,2.643,1.44,5.281,2.16,7.92c0.079,2.32,0.159,4.643,0.239,6.961c0.287,0.932,1.098,1.455,1.44,2.4
	c-0.542,0.633-0.7,1.465-1.2,2.159c-0.975,1.351-2.724,2.396-3.36,4.08c-1.192,3.155,0.614,6.215,1.68,7.92
	c1.564,2.501,3.214,5.229,5.52,6.96c1.795,1.348,4.119,2.617,5.28,4.561c1.886,3.156,1.82,8.498,2.88,12.479
	c0.439,1.649,2.531,8.735,2.16,9.601c-0.419,1.51-1.324,1.59-2.4,2.399c-0.623,0.47-0.891,1.37-1.439,1.92
	c-0.016,1.392-0.441,2.019,0,3.36c0.287,0.873,1.406,2.138,0.96,3.119c0,0.08,0,0.16,0,0.24c-3.052-0.869-3.851,2.814-6.479,3.358
	c-3.461-2.663-13.442-0.438-18.96-0.96c-1.417-0.135-4.639-1.586-5.28-1.2c-3.161,1.896-6.731,3.945-9.84,6
	c-1.27,0.839-3.02,1.371-3.36,3.12c2.734,2.053-0.628,9.021-2.16,10.563c-4.013-3.729-17.733-3.447-25.439-3.603
	c0,0.08,0,0.16,0,0.24c-0.08,0-0.16,0-0.24,0c-0.16,4.229-0.182,8.479,0.96,11.76c0.287,0.824,0.918,3.397,0.72,3.603
	c-2.333,1.617-8.093,0.029-10.08-0.723c-7.131-2.697-12.554-7.09-22.56-5.039c-0.421-0.553-2.623-3.107-3.12-3.359
	c-0.961-0.485-2.728,0.055-3.6-0.479c-0.643-0.666-0.879-1.644-1.44-2.399c-1.883-2.543-6.95-6.453-9.6-8.398
	c-1.585-1.165-4.754-2.464-5.04-4.803c1.03-1.524,0.716-3.959,1.2-6c1.646-6.936,0.748-16.655-2.16-21.357
	c-0.907-1.467-2.464-3.538-3.84-4.563c-0.561-0.416-2.087-0.852-2.4-1.438c0-0.643,0-1.277,0-1.92
	c0.513-0.84-0.018-2.418,0.24-3.602C41.784,334.584,42.591,332.162,42.719,329.939z"/>
<path fill="#85BA3B" d="M226.318,298.02c9.172-0.393,10.715-13.393,19.681-13.92c0.924,0.906,2.35,1.346,3.12,2.4
	c2.297,3.15,3.232,7.66,4.32,12c0.239,2.96,0.479,5.92,0.719,8.88c0.66,1.976,2.82,2.317,3.121,4.56
	c0.142,0.231,0.025,0.459,0,1.201c3.615-0.104,7.938,2.701,7.92,6c-1.569,2.451,1.074,8.019,1.68,9.359
	c0.313,0.697,1.105,2.514,0.96,2.641c-0.772,1.984-3.299,2.537-5.04,3.602c-4.943,3.018-18.116,8.201-12.48,16.8
	c1.102,1.683,2.756,2.364,4.32,3.603c-1.168,1.81,0.61,4.324,1.2,5.277c2.01,3.247,4.67,5.563,4.8,10.563
	c-0.4,0.64-0.8,1.277-1.199,1.92c-0.422-0.151-0.234-0.047-0.48-0.24c-3.659-1.137-8.555-7.055-11.76-9.359
	c-1.4-1.008-4.496-1.82-5.28-3.361c-0.694-0.979-0.808-2.984-1.2-3.6c-2.257-2.01-7.559-1.683-8.641-4.8
	c-0.858-1.341-0.271-5.542-0.239-7.44c-4.479-0.149-11.531-1.86-12,3.121c1.36,1.77,2.002,4.414,3.36,6.239
	c1.811,2.435,6.879,5.427,7.439,8.64c-2.847,3.049,1.604,7.133,2.16,9.36c0.572,2.296-1.583,3.909-2.16,5.28
	c-0.775,1.841-0.25,3.895,0,5.76c-2.24,0.561-4.48,1.12-6.72,1.68c0,1.92,0,3.84,0,5.76c-0.08,0-0.16,0-0.24,0
	c-0.608,0.49-1.483,0.502-2.16,0.961c-2.511,1.697-2.663,4.953-6.72,5.279c-0.053,8.567-7.37,11.854-10.801,17.28
	c-0.916,1.449-1.7,3.521-2.159,5.28c-0.285,1.092,0.336,1.617-0.479,2.16c-1.312-1.37-3.522-3.289-5.521-3.84
	c-6.884-1.899-11.663,5.41-18.479,2.879c-1.559-0.578-2.519-2.039-3.6-3.119c-0.869-0.869-2.313-1.502-2.641-2.881
	c0.291-0.506,0.117-0.535,0-1.199c3.49-0.436,7.918-3.535,10.801-5.04c1.42-0.741,3.431-1.097,4.56-2.16
	c-6.446-2.983-7.007-9.53-10.56-15.36c-0.967-1.584-3.954-4.137-4.32-5.76c0.633-1.001-0.109-3.082-0.48-4.08
	c-1.271-3.419-1.931-4.197-1.92-8.64c1.177-0.401,2.11-1.789,2.881-2.64c1.166-0.057,1.584-0.145,2.64,0.238
	c0.08-0.801,0.16-1.601,0.24-2.398c-0.304-1.279-2.091-3.459-0.96-5.28c0.914-2.429,3.67-1.961,3.84-5.521
	c-0.875-1.189-0.736-2.932-1.2-4.562c-1.092-3.839-1.731-8.485-2.88-12.239c-0.32-1.438-0.641-2.881-0.96-4.318
	c-1.203-2.401-3.912-3.953-6-5.521c-1.987-1.49-3.41-3.882-4.8-6c-0.914-1.393-2.979-3.835-2.16-6.72
	c0.96-3.382,4.479-4.474,5.04-8.4c-2.806-1.679-1.089-4.856-1.92-8.64c-0.911-4.146-4.131-11.063,0.239-13.682
	c2.27,1.465,6.312-0.597,7.92-1.438c1.416-0.74,5.07-2.397,5.761-3.601c0.905-1.576,0.927-3.814,1.92-5.279
	c1.92-2.832,6.965-3.055,10.319-1.439c2.326,1.117,3.271,4.01,4.32,6.479c2.088,4.915,3.689,10.446,6,14.88
	c0.871,1.669,2.111,6.22,4.08,6.479c2.551-1.563,6.582,1.666,9.12,0c3.944-1.418,1.629-6.785,2.64-11.278
	c0.235-1.046,0.715-2.146,0.961-3.119c0.424-0.229,0.402-0.304,0.959-0.479c0.672,0.935,1.703,1.246,2.641,1.92
	C222.43,291.004,225.8,294.176,226.318,298.02z"/>
<path fill="#85BA3B" d="M63.36,392.581c1.484-0.019,2.907,0.095,4.08,0.239c0.986,1.531,2.369,2.349,3.6,3.601
	c8.667-3.589,17.813,3.466,24.48,5.521c2.058,0.636,8.451-0.064,9.12,0.24c1.001,1.184,1.001,3.313,1.68,4.799
	c1.075,2.354,3.175,4.385,5.04,6c0.173,7.543-3.792,10.627-6.24,15.603c-3.382,0.196-4.45,2.444-6.72,3.601
	c-1.388,0.707-3.471,0.855-5.04,1.199c-3.655,0.804-7.822-0.871-10.32-1.68c-5.667-1.835-11.203-3.726-18.24-3.84
	c-1.08,2.188-1.498,5.498-2.88,7.438c-1.474,2.071-4.666,3.709-5.04,6.723c2.667,1.387,5.103,4.553,6,7.68
	c1.026,3.58-1.021,7.311-0.24,10.8c0.331,1.479,1.047,2.606,1.44,3.84c-13.449,0.599-15.528,21.291-26.88,24
	c-0.288-8.836-0.582-18.771-4.56-24c-1.003-1.315-3.548-2.6-5.28-3.12c-0.96-0.08-1.92-0.158-2.88-0.238
	c-1.44-1.521-2.88-3.039-4.32-4.562c-4.335-3.272-8.495-7.649-11.76-12c-1.013-1.349-3.997-3.2-4.56-4.56
	c-3.805-9.197-1.804-18.278,0.48-27.842c0.932-3.898,0.72-8.256,0.72-12.721c0-2.879,0-5.76,0-8.64
	c-1.083-4.978,0.402-11.343-1.2-15.601c-0.747-1.983-3.811-4.644-3.84-6c1.827-0.897,2.503-2.275,3.84-3.602c0-0.88,0-1.76,0-2.643
	c-1.235-0.006-1.719-0.254-2.64-0.479c-0.638-0.958-1.137-1.21-1.2-2.88c0.268-0.415,2.079-5.179,2.16-5.521
	C2.08,353.46,2,352.979,1.92,352.5c-0.01-1.636,0.297-3.438,0.96-4.561c2.133-3.612,6.481-5.217,8.64-8.399
	c1.257,0.694,6.219-0.963,6.72-2.399c0.193-0.283,0.186-0.404,0.24-0.959c1.105,0.137,1.697,0.777,2.4,0.479
	c2.462-0.871,3.731-4.167,4.8-6.479c0.16,0.08,0.32,0.158,0.48,0.238c1.126,2.258,1.137,3.725,4.8,3.602
	c1.115-0.691,2.757-0.517,4.08-0.961c2.214-0.746,4.267-2.043,6.72-2.641c0,0.08,0,0.16,0,0.24
	c-0.817,1.015-2.344,10.834-1.68,12.238c2.599,2.619,5.07,3.508,6.959,7.201c2.629,5.139,2.938,15.479,1.2,22.08
	c-0.385,1.461-0.982,3.146-1.2,4.799c4.023,2.604,7.473,6.483,11.28,9.359C60.275,387.816,62.955,389.635,63.36,392.581z"/>
<path fill="#85BA3B" d="M299.518,335.46c-0.131,5.187,1.656,8.246,3.36,11.521c3.863,0.41,6.213-1.752,10.08-1.92
	c0.104,4.119,1.241,9.537-0.721,12.722c-3.236,5.254-13.401,4.962-18.239,8.64c-1.424,1.083-2.648,3.78-3.359,5.521
	c-0.434,1.061-0.316,2.272-0.961,3.121c-0.666,0.875-4.02,2.563-4.56,3.357c-0.503,0.741-0.043,1.962-0.479,2.643
	c-1.232,1.914-4.16,2.502-6,3.84c-0.641,0.72-1.281,1.438-1.921,2.16c1.267,3.26,2.552,6.312,4.32,9.119
	c2.221,3.526,4.887,6.557,6,11.278c1.899,8.067-6.632,13.435-5.04,18.96c1.309,4.544,3.559,8.979,5.279,13.2
	c1.658,4.063,2.203,8.151,3.601,12.479c1.099,3.405,2.302,7.215,2.399,11.521c-0.159,0-0.319,0-0.479,0
	c-1.407-1.431-3.188-2.623-4.8-3.84c-2.473-1.868-4.502-4.56-7.2-6.24c-1.296-0.81-2.591-0.692-4.08-1.44
	c-0.917-0.459-1.694-1.563-2.88-1.92c-3.605-1.072-8.254,1.664-11.28,0.723c-1.985-0.619-4.169-1.955-6.239-2.643
	c-2.875-0.951-5.504-1.199-8.4-2.16c-10.774-3.572-18.598-9.432-27.12-15.117c-4.208-2.812-8.558-5.721-12.96-8.16
	c-1.582-0.877-4.779-1.438-5.04-3.6c1.172-1.729,1.254-4.117,2.399-5.763c2.523-3.622,6.299-6.25,8.641-10.08
	c1.05-1.717,0.945-4.546,2.16-6.237c0.775-0.568,1.871-0.644,2.64-1.201c2.304-1.674,2.172-4.688,6.24-4.799c0-2.08,0-4.162,0-6.24
	c2.396-0.248,4.604-1.155,6.72-1.68c0.128-0.363,0.162-0.406,0.24-0.961c-2.438-3.143,1.212-6.632,1.92-8.882
	c1.066-3.388-2.251-5.438-2.88-7.438c-0.642-2.045,0.726-3.383,0.96-4.799c-1.204-0.854-1.988-2.418-2.88-3.603
	c-2.556-3.39-7.617-5.492-7.921-11.04c3.828-2.588,4.471-1.729,9.841-1.438c-0.039,1.785-0.563,5.715,0.239,6.959
	c0.91,2.521,5.955,4.096,8.641,4.801c0.066,1.287,0.865,3.621,1.2,4.08c1.879,1.688,4.7,2.599,6.72,4.08
	c2.95,2.164,8.275,8.474,12,9.119c0.6-0.906,1.6-1.723,1.92-2.879c1.978-7.145-8.627-10.017-5.52-17.041
	c-3.756-0.23-6.291-4.1-6.24-8.16c1.048-1.232,1.58-2.871,2.88-3.84c3.563-2.656,7.595-4.326,11.52-6.722
	c1.558-0.95,2.941-2.854,5.04-3.12c1.651,1.27,4.239,1.254,6.48,1.92c4.341,1.295,9.24,1.922,14.88,1.922c1.28,0,2.563,0,3.84,0
	C295.986,335.855,297.82,335.527,299.518,335.46z"/>
<path fill="#85BA3B" d="M169.919,412.98c-3.851-0.06-6.44,1.537-9.12,2.64c-1.109,0.457-2.67,0.301-3.6,0.96
	c-1.684,1.66-2.895,4.109-4.32,6c-2.646,3.512-7.213,6.055-11.28,8.16c-0.973,0.504-6.071,3.025-6.72,2.64
	c-5.999-4.014-5.276-13.942-9.12-20.159c-4.057-6.563-12.829-9.136-20.64-12c-1.759-3.996-2.776-9.297-2.16-14.881
	c5.49,0.551,12.176-0.338,17.28,0.961c2.758,0.701,5.988,2.621,8.4,2.879c0.659-2.861,4.358-6.683,3.36-10.32
	c-0.185-0.672-0.733-1.196-0.96-1.92c1.709-0.838,3.178-2.364,4.8-3.357c2.43-1.484,5.767-2.109,7.44-4.32
	c2.605,0.99,9.111,2.032,13.2,1.2c1.602-0.325,4.638-0.368,6.24,0c2.033,0.472,4.734,0.021,5.28,1.92
	c-0.792,1.466,2.161,7.052,2.64,8.642c0.451,1.5-0.052,2.666,0.24,4.08c2.266,0.721,3.162,3.615,4.32,5.521
	c2.596,4.269,4.123,11.369,8.64,13.681c0,0.159,0,0.319,0,0.479c-2.097,0.507-3.981,1.952-5.761,2.88
	c-2.647,1.381-5.408,2.301-8.159,3.6C169.919,412.5,169.919,412.74,169.919,412.98z"/>
<path fill="#85BA3B" d="M106.079,402.661c6.383,0.845,16.443,7.174,19.2,11.76c2.311,3.845,2.507,9.481,4.32,13.681
	c1.406,3.258,4.799,4.564,4.8,8.881c0.901,1.432,0.917,7.672,1.44,9.841c0.579,2.401,0.894,5.409,1.44,7.92
	c2.197,10.104-6.521,18.043-11.52,21.359c-1.266,0.841-7.153,5.214-8.88,4.8c-2.507-0.604-3.448-3.229-4.8-5.039
	c-1.294-1.735-5.058-4.322-6.96-5.521c-9.81-6.18-24.045-7.948-39.6-6.239c-0.754-1.183-1.538-2.168-1.92-3.841
	c-0.314-1.377,0.242-3.45,0.48-4.561c0.467-2.178,0.098-5.604-0.48-7.2c-0.62-1.714-1.833-3.411-2.88-4.8
	c-0.785-1.041-2.131-1.27-2.64-2.642c1.712-1.259,5.135-5.416,6-7.438c0.847-1.979-0.12-4.621,2.64-4.8
	c1.203,0.733,6.215,0.891,7.92,1.438c6.01,1.938,14.916,6.024,22.8,3.359c1.747-0.59,2.937-1.976,4.32-2.88
	c1.104-0.723,3.647-0.792,4.32-1.921c0.633-0.67,0.691-1.564,1.2-2.399c1.761-2.892,4.121-5.626,5.04-9.358
	c0.267-1.082,0.171-3.895-0.24-4.562c-0.501-1.345-2.087-1.813-2.88-2.88C107.847,407.805,106.463,405.313,106.079,402.661z"/>
<text transform="matrix(1 0 0 1 50.7061 527.668)" font-family="'MyriadPro-Regular'" font-size="24">Gouvernorat de Kef</text>
<text transform="matrix(1 0 0 1 50.5801 204.6973)" font-family="'MyriadPro-Regular'" font-size="12">Sakiet  </text>
<text transform="matrix(1 0 0 1 50.5801 219.0977)" font-family="'MyriadPro-Regular'" font-size="12">Sidi Youssef</text>
<text transform="matrix(1 0 0 1 12.5801 415.6973)" font-family="'MyriadPro-Regular'" font-size="12">Kalâat Snane</text>
<text transform="matrix(1 0 0 1 66.5801 452.6973)" font-family="'MyriadPro-Regular'" font-size="12">Kalâat Khasbah</text>
<text transform="matrix(1 0 0 1 84.5801 339.6973)" font-family="'MyriadPro-Regular'" font-size="12">Tajerouine</text>
<text transform="matrix(1 0 0 1 112.5801 257.6973)" font-family="'MyriadPro-Regular'" font-size="12">Kef Ouest</text>
<text transform="matrix(1 0 0 1 206.5801 242.6973)" font-family="'MyriadPro-Regular'" font-size="12">Kef Est</text>
<text transform="matrix(1 0 0 1 166.5801 175.6973)" font-family="'MyriadPro-Regular'" font-size="12">Nebeur</text>
<text transform="matrix(1 0 0 1 276.5801 299.6973)" font-family="'MyriadPro-Regular'" font-size="12">Es-Sers</text>
<text transform="matrix(1 0 0 1 236.5801 411.6973)" font-family="'MyriadPro-Regular'" font-size="12">El Ksour</text>
<text transform="matrix(1 0 0 1 181.5801 337.6973)" font-family="'MyriadPro-Regular'" font-size="12">Dahmani</text>
<g id="XMLID_1_">
	<g>
		<g id="XMLID_2_">
			<g>
				<polygon fill="#85BA3B" points="469.101,52.81 468.63,53.32 468.311,53.54 468.11,53.59 467.7,53.59 467.771,53.41 
					467.84,52.83 467.74,52.43 467.67,52.31 467.58,52.18 467.39,52.03 466.5,51.49 465.68,50.54 465.42,50.05 465.32,49.72 
					465.33,49.52 465.49,49.21 465.58,48.91 465.62,48.71 465.73,48.19 465.74,47.52 465.58,46.9 465.61,46.69 465.63,46.51 
					465.63,46.48 465.71,46.31 465.73,46.27 465.96,45.77 466.16,45.24 466.17,45.19 466.17,45.17 466.19,45.16 466.4,44.83 
					466.41,44.8 466.41,44.79 466.4,44.75 466.22,44.33 466.22,44.27 466.22,44.18 466.22,44.1 466.271,43.41 466.36,42.97 
					466.38,42.82 466.33,42.29 466.43,42.02 466.76,41.41 466.82,41.31 466.99,40.67 467.44,40.25 467.53,40.29 467.62,40.31 
					467.57,40.21 467.37,39.92 467.36,39.88 467.37,39.4 467.34,39.25 467.24,39.16 467.04,39.04 466.67,38.6 466.67,38.54 
					466.66,38.47 466.64,38.44 466.67,38.32 467.04,37.91 467.21,37.7 467.33,37.39 467.5,37.15 467.561,37.06 467.58,36.99 
					467.63,36.91 467.63,36.88 467.62,36.2 467.48,35.45 467.88,35.05 468.14,34.87 468.47,34.77 468.561,34.62 468.561,34.54 
					468.44,34.42 468.23,34.12 468.2,34.09 468.21,33.61 468.4,33.25 468.71,33.29 468.92,33.37 469.13,33.4 469.37,33.39 
					469.49,33.4 469.88,33.37 470.12,33.29 470.601,33.1 471.311,32.71 471.89,32.42 472.15,32.27 472.5,32.1 472.74,32 
					473.09,31.91 473.32,31.89 473.561,31.91 475.12,31.87 475.46,31.9 475.95,31.87 476.86,31.87 477.63,31.84 478.28,31.79 
					478.79,31.7 478.9,31.7 479.9,31.43 480.83,31.15 481.29,30.97 481.7,31.41 482.18,32.05 482.29,32.14 482.54,32.56 
					482.7,33.02 482.75,33.25 482.771,33.46 482.74,33.68 482.7,33.77 482.58,33.99 482.34,34.29 482.24,34.52 482.24,34.64 
					482.29,34.84 482.42,35.17 482.67,35.56 482.74,35.65 483.16,36.08 483.23,36.2 483.62,36.62 483.86,37.04 483.94,37.37 
					483.96,37.6 483.98,37.9 483.94,38.42 483.86,38.87 483.86,39.08 483.89,39.19 483.95,39.31 484.13,39.5 484.46,39.71 
					484.58,39.74 485.021,39.99 485.23,40.08 485.36,40.1 486.17,40.52 486.521,40.75 486.59,40.84 486.66,40.96 486.83,41.29 
					486.92,41.62 486.92,41.87 486.92,42.25 486.89,42.49 486.771,43.14 486.61,43.72 486.49,44.04 486.4,44.17 486.351,44.26 
					485.75,44.83 485.41,45.34 485.3,45.55 485.24,45.95 485.15,46.3 484.95,46.66 484.5,47 484.29,47.14 484.07,47.32 
					483.96,47.42 483.87,47.62 483.84,47.74 483.82,47.98 483.82,48.31 483.83,48.83 483.82,49.18 483.73,50.1 483.62,50.52 
					483.59,50.65 483.53,50.74 483.47,51.06 483.351,51.37 483.23,51.33 482.54,51.37 482.271,51.33 482.03,51.27 481.01,50.89 
					479.34,50.16 478.74,49.91 478.59,49.84 477.87,49.6 477.19,49.45 477.08,49.41 476.271,49.16 476.03,49.12 475.59,49.1 
					475.37,49.14 475.15,49.24 474.92,49.41 474.59,49.81 474.351,50.18 474.26,50.42 474.17,50.7 474.12,50.92 474.021,52.06 
					473.9,52.62 473.771,52.83 473.57,52.99 473.42,53.05 473.03,53.1 472.79,53.1 472.33,53.02 472.061,52.93 471.771,52.78 
					471.66,52.75 471.23,52.51 470.86,52.35 470.72,52.25 470.62,52.22 470.39,52.2 470.061,52.21 469.64,52.35 469.41,52.51 				
					"/>
			</g>
			<g>
				<polygon fill="none" stroke="#666666" stroke-width="0.25" stroke-linejoin="round" stroke-miterlimit="3.8637" points="
					481.87,0.25 481.95,0.27 482.09,0.41 482.271,0.54 482.29,0.7 482.12,0.88 482.03,0.91 481.82,0.82 481.16,1.02 480.91,0.95 
					480.86,0.88 480.89,0.77 481.24,0.55 481.61,0.52 481.7,0.47 481.76,0.33 				"/>
				<polygon fill="none" stroke="#666666" stroke-width="0.25" stroke-linejoin="round" stroke-miterlimit="3.8637" points="
					502.33,9.28 502.33,9.14 502.49,8.85 502.61,8.72 502.76,8.71 502.71,8.98 502.61,9.14 				"/>
				<polygon fill="none" stroke="#666666" stroke-width="0.25" stroke-linejoin="round" stroke-miterlimit="3.8637" points="
					526.71,11.95 526.64,11.91 526.66,11.7 526.83,11.56 526.87,11.39 527,11.35 527.11,11.6 527.32,11.87 527.21,11.95 				"/>
				<polygon fill="none" stroke="#666666" stroke-width="0.25" stroke-linejoin="round" stroke-miterlimit="3.8637" points="
					528.73,12.2 528.75,12.29 528.68,12.35 528.59,12.29 528.62,12.22 				"/>
				<polygon fill="none" stroke="#666666" stroke-width="0.25" stroke-linejoin="round" stroke-miterlimit="3.8637" points="
					532.43,48.79 532.28,48.76 532.22,48.67 532.271,48.58 532.45,48.35 532.69,48.37 532.811,48.62 532.66,48.73 				"/>
				<polygon fill="none" stroke="#666666" stroke-width="0.25" stroke-linejoin="round" stroke-miterlimit="3.8637" points="
					531.98,49.52 531.79,49.3 531.87,49.21 532,49.25 532.04,49.35 				"/>
				<polygon fill="none" stroke="#666666" stroke-width="0.25" stroke-linejoin="round" stroke-miterlimit="3.8637" points="
					532.76,53.1 532.61,53 532.28,52.91 532.22,52.84 532.25,52.75 532.49,52.83 532.79,53.04 				"/>
				<polygon fill="none" stroke="#666666" stroke-width="0.25" stroke-linejoin="round" stroke-miterlimit="3.8637" points="
					539.271,75.76 539.13,75.71 539.09,75.6 539.04,75.47 539.16,75.45 539.36,75.66 539.72,75.82 539.57,75.88 539.39,75.87 				
					"/>
				<polygon fill="none" stroke="#666666" stroke-width="0.25" stroke-linejoin="round" stroke-miterlimit="3.8637" points="
					537,76.36 536.88,76.25 536.91,76.2 537.05,76.18 537.17,76.31 537.26,76.42 537.21,76.45 				"/>
				<polygon fill="none" stroke="#666666" stroke-width="0.25" stroke-linejoin="round" stroke-miterlimit="3.8637" points="
					539.061,77.24 539.03,77.27 538.83,77.16 538.73,77.04 538.73,76.96 538.811,76.95 538.851,77.06 				"/>
				<polygon fill="none" stroke="#666666" stroke-width="0.25" stroke-linejoin="round" stroke-miterlimit="3.8637" points="
					539.12,77.74 539.08,77.56 539.15,77.42 539.36,77.31 539.83,77.32 539.87,77.38 539.84,77.44 539.561,77.44 539.33,77.5 
					539.18,77.71 				"/>
				<polygon fill="none" stroke="#666666" stroke-width="0.25" stroke-linejoin="round" stroke-miterlimit="3.8637" points="
					535.74,78.13 535.71,78.07 535.67,77.92 535.69,77.92 535.71,77.83 535.87,77.87 535.9,77.41 535.811,77.29 535.851,77.24 
					536.04,77.33 536.08,77.58 536.15,77.66 536.561,77.81 536.9,77.79 537.09,77.89 537.14,77.86 537.11,77.75 537.07,77.65 
					537.23,77.58 537.17,77.39 537.21,77.08 537.09,76.96 536.99,76.84 536.95,76.78 536.95,76.67 537.17,76.69 537.21,76.66 
					537.561,76.36 537.521,76.2 537.49,76.04 537.63,75.87 537.561,75.79 537.54,75.68 537.65,75.56 537.65,75.45 537.82,75.5 
					538.01,75.6 538.17,75.88 538.22,75.97 538.24,76.03 538.311,76.12 538.37,76.12 538.43,76.06 538.43,75.89 538.271,75.81 
					538.33,75.7 538.43,75.71 538.64,75.89 538.9,75.89 539.36,76.15 539.33,76.22 539.16,76.22 539.021,76.1 538.9,76.1 
					538.71,76.21 538.73,76.35 538.67,76.37 538.62,76.45 538.67,76.52 538.67,76.67 538.7,76.74 538.61,76.81 538.48,76.85 
					538.38,76.77 538.37,76.99 538.38,77.17 538.73,77.41 538.91,77.6 538.99,77.81 538.99,78.01 538.94,78.08 538.61,78.08 
					538.46,78.13 538.271,78.27 538.07,78.43 537.8,78.43 537.79,78.58 537.71,78.64 536.75,78.97 536.45,79.03 535.92,79.29 
					535.83,79.41 535.82,79.43 535.69,79.52 535.45,79.6 535.2,79.77 534.95,79.84 534.8,79.96 534.75,79.95 534.73,79.95 
					534.7,79.62 534.87,79.35 534.91,79.16 534.98,79 535.15,78.92 535.311,78.79 535.48,78.46 535.73,78.2 535.76,78.17 				"/>
				<polygon fill="none" stroke="#666666" stroke-width="0.25" stroke-linejoin="round" stroke-miterlimit="3.8637" points="
					532.13,80.95 532.01,80.93 531.79,80.81 531.49,80.56 531.08,80.38 530.98,80.32 531.311,79.97 531.351,79.93 531.521,79.85 
					532.71,79.79 532.88,79.89 533.09,79.79 533.42,79.79 533.84,79.78 533.98,79.87 534.351,79.89 534.561,79.95 534.54,80.08 
					534.54,80.16 534.5,80.18 534.19,80.24 533.63,80.65 533.11,81.17 532.97,81.17 532.87,81.24 532.851,81.37 532.811,81.4 
					532.5,81.07 532.37,80.98 				"/>
				<polygon fill="none" stroke="#666666" stroke-width="0.25" stroke-linejoin="round" stroke-miterlimit="3.8637" points="
					526.15,107.16 526.271,107.18 526.311,107.37 526.24,107.41 				"/>
				<polygon fill="none" stroke="#666666" stroke-width="0.25" stroke-linejoin="round" stroke-miterlimit="3.8637" points="
					529.66,107.38 529.33,107.51 529.08,107.74 529.01,107.86 528.87,108.74 528.74,108.66 528.5,108.02 528.521,107.84 
					528.66,107.6 528.75,107.42 528.65,107.23 528.521,106.99 527.62,105.92 527.45,105.87 527.21,105.85 527.08,105.89 
					526.87,106.08 526.73,106.14 526.58,106.23 526.5,106.52 526.5,106.81 526.17,106.72 526.04,106.81 525.91,106.83 
					525.75,106.72 525.53,106.34 525.4,106.25 525.26,105.81 525.08,105.48 525.14,105.26 525.14,104.98 525.14,104.92 
					525.28,104.77 525.45,104.45 525.521,104.21 525.49,103.34 525.521,103.16 525.44,102.64 525.49,102.43 525.521,102.31 
					525.44,101.81 525.5,101.71 525.65,101.64 525.83,101.56 526.37,101.44 526.62,101.35 527.23,101.41 527.561,101.5 
					528.37,101.84 528.75,101.93 529.54,101.93 529.97,102.08 530.04,101.87 529.99,101.68 529.99,101.54 530.15,101.56 
					530.2,101.56 530.39,101.73 530.88,102.33 531.19,102.58 532.16,103.27 532.78,103.29 532.99,103.3 533.16,103.39 
					533.24,103.54 533.12,103.78 533.18,103.89 533.33,104.2 533.25,104.29 533.18,104.29 533.03,104.14 532.99,104.2 
					533.04,104.31 533.2,104.38 533.24,104.45 533.24,104.66 533.2,104.71 532.95,104.7 532.58,104.87 532.28,105.22 532.22,105.29 
					531.54,105.56 531.53,105.58 531.45,105.61 531.29,105.77 531.14,106.1 531.04,106.62 531.021,107.21 530.9,107.35 
					530.87,107.18 530.83,106.95 530.88,106.46 530.79,106.25 530.7,106.15 530.54,106.23 530.39,106.42 530.12,107.02 
					529.94,107.09 529.94,107.11 				"/>
				<polygon fill="none" stroke="#666666" stroke-width="0.25" stroke-linejoin="round" stroke-miterlimit="3.8637" points="
					528.42,109.84 528.38,109.57 528.44,109.52 528.521,109.52 528.561,109.62 528.521,109.74 				"/>
				<polygon fill="none" stroke="#666666" stroke-width="0.25" stroke-linejoin="round" stroke-miterlimit="3.8637" points="
					526.92,112.06 527.04,112.23 527.061,112.34 526.92,112.52 526.851,112.48 526.88,112.34 526.851,112.18 526.811,112.1 
					526.811,112.04 				"/>
				<polygon fill="none" stroke="#666666" stroke-width="0.25" stroke-linejoin="round" stroke-miterlimit="3.8637" points="
					534.91,115.85 534.521,115.23 534.54,115.09 534.98,115.57 535.01,115.7 				"/>
				<polyline fill="none" stroke="#666666" stroke-width="0.25" stroke-linejoin="round" stroke-miterlimit="3.8637" points="
					439.83,16.84 440.21,16.46 440.57,16.18 440.79,15.89 441.08,15.45 441.21,14.86 441.17,14.58 440.98,14.39 440.9,14.24 
					440.34,13.96 440.09,13.77 439.94,13.74 439.82,13.62 				"/>
				<polyline fill="none" stroke="#666666" stroke-width="0.25" stroke-linejoin="round" stroke-miterlimit="3.8637" points="
					439.83,13.03 440.13,12.82 440.41,12.89 440.63,12.89 440.99,13 441.17,13.15 441.41,13.22 441.41,13.24 441.49,13.35 
					441.68,13.35 441.8,13.29 441.89,13.15 441.86,13.04 442.15,13 442.34,13.09 442.811,13.31 443.03,13.39 443.271,13.37 
					443.62,13.22 443.86,13.24 443.98,13.12 443.96,12.94 444.12,12.91 444.19,12.85 444.33,12.88 444.42,12.97 444.54,13 
					444.44,13.24 444.28,13.43 444.29,13.56 444.49,13.77 444.62,13.83 444.74,13.89 444.89,14.06 445.04,14.1 445.45,14.06 
					445.79,13.96 446.23,13.91 446.46,13.93 446.771,14.04 447.08,14.05 447.23,14.11 447.521,14.35 447.74,14.65 447.91,14.79 
					448.28,15.06 448.4,15.34 449.41,16.02 449.75,16.15 450.08,16.21 450.24,16.16 450.521,16.18 450.79,15.92 450.84,15.81 
					450.91,15.83 450.87,15.91 450.98,16.03 451.24,16.08 451.33,15.99 451.41,16 451.49,16.14 451.71,16.29 451.83,16.22 
					451.91,16.22 451.95,16.54 452.021,16.62 452.18,16.58 452.41,16.48 453.23,16.42 453.521,16.36 453.58,16.3 453.74,16.14 
					453.87,16.08 454.01,16.08 454.101,16.14 454.101,16.22 453.89,16.42 453.86,16.58 453.7,16.67 453.45,17.18 453.47,17.31 
					453.83,17.81 453.86,17.92 453.73,18.1 453.45,18.5 453.45,18.62 453.66,18.81 454,19.1 454.25,19.27 455.57,19.62 456.7,19.62 
					457.59,19.5 457.74,19.51 457.94,19.63 457.99,19.48 458.44,19.29 460,18.87 460.69,18.47 461.18,18.33 461.34,18.25 
					461.54,18.14 462.21,17.71 462.86,17.49 463.24,17.26 463.66,17.06 463.92,16.87 464.24,16.83 464.53,16.63 464.65,16.6 
					464.69,16.6 464.86,16.58 464.93,16.7 464.95,16.96 465.04,17.02 465.45,17.08 465.54,17.14 465.561,17.23 465.521,17.38 
					465.58,17.44 466,17.56 466.76,17.49 467.021,17.42 467.23,17.42 467.32,17.47 467.66,17.45 467.69,17.44 467.91,17.39 
					468.12,17.54 468.771,17.53 468.95,17.66 469.2,18.01 469.521,18.06 469.74,17.96 469.88,17.98 470.04,18.07 470.24,18.02 
					470.41,18.06 470.58,17.96 471.09,17.92 471.41,17.87 471.74,17.71 472.01,17.54 472.36,17.41 472.4,17.39 472.41,17.39 
					473.63,17.06 473.811,16.87 473.9,16.87 474.08,17.02 474.47,16.97 474.65,16.83 				"/>
				<polyline fill="none" stroke="#666666" stroke-width="0.25" stroke-linejoin="round" stroke-miterlimit="3.8637" points="
					545.29,121.76 545.57,122 545.91,122.29 546.38,123.01 546.73,123.2 547.01,123.24 547.17,123.49 547.49,123.64 548.04,123.79 
					548.39,123.77 550.12,124.16 550.57,124.2 551.021,124.3 551.061,124.04 550.67,123.87 550.15,123.71 549.89,123.49 
					549.4,123.29 549.17,123.25 548.98,123.34 548.65,123.1 548.42,122.98 548.32,122.75 548.74,122.93 549.05,123.04 
					549.86,123.31 550.36,123.5 550.57,123.67 551.23,124 552.37,124.43 553.13,124.74 553.34,124.87 				"/>
				<polyline fill="none" stroke="#666666" stroke-width="0.25" stroke-linejoin="round" stroke-miterlimit="3.8637" points="
					512.18,11.98 512.23,11.96 512.36,11.64 512.29,11.38 512.33,11.24 512.45,11.32 512.51,11.66 512.57,11.77 512.57,11.79 
					512.75,11.95 513.2,12.17 513.24,12.27 513.28,12.47 513.17,12.66 513,12.68 512.9,12.66 512.88,12.6 512.99,12.43 
					512.96,12.35 512.79,12.28 512.72,12.27 512.46,12.35 512.08,12.41 511.97,12.55 512.021,12.6 512.09,12.6 512.25,12.5 
					512.021,12.89 511.76,13.56 511.78,13.97 511.64,13.84 511.55,13.87 511.7,14.08 511.62,14.16 511.67,14.2 511.76,14.17 
					511.83,14.21 511.95,14.53 511.95,14.59 511.99,14.81 512.3,15.5 512.74,16.06 513.65,16.85 514.16,17.21 514.25,17.24 
					514.45,17.33 514.46,17.33 515.04,17.45 515.15,17.54 515.24,17.68 515.18,17.8 515.16,17.83 515.24,18.1 515.34,18.25 
					515.48,18.33 515.57,18.37 515.62,18.4 515.72,18.47 516.04,18.7 516.07,18.83 516.05,18.94 515.78,19 515.62,19.27 
					515.42,19.43 515.41,19.64 514.94,20.29 514.88,20.47 514.66,20.52 514.73,20.65 514.48,20.74 514.38,20.83 514.34,21.01 
					514.61,21.5 514.59,21.56 514.97,22 515.3,22.41 515.5,22.54 515.66,22.66 516.17,22.91 516.37,22.99 516.41,23 516.82,23.11 
					517.22,23.14 517.45,23.11 517.73,23.06 517.97,23.02 518.63,22.78 518.99,22.57 519.09,22.69 518.98,22.84 519.021,22.91 
					519.19,22.89 519.29,22.79 519.12,22.54 519.16,22.5 520.311,22.06 520.57,21.87 520.7,21.68 520.83,21.25 521.04,20.83 
					521.12,20.33 521.25,20.06 521.3,19.69 521.36,19.51 521.58,19.42 521.63,19.3 521.601,19.06 521.98,18.95 522.23,18.74 
					522.28,18.56 522.41,18.54 522.61,18.7 523.49,18.45 523.76,18.55 524.44,18.52 524.7,18.45 525,18.35 525.311,18.19 
					525.45,18.12 525.74,17.92 526.271,17.42 526.71,16.99 527.15,16.9 527.42,16.58 527.53,16.54 527.58,16.41 527.74,16.45 
					528.19,16.15 528.38,16 528.7,15.67 528.8,15.64 529.03,15.39 529.2,14.98 529.5,15.02 529.59,14.93 529.61,14.62 529.43,14.41 
					529.5,14.35 529.49,14.24 529.41,14.17 529.49,14.04 529.48,13.9 529.521,13.84 529.61,13.85 529.67,13.97 529.811,13.91 
					530.061,13.84 530.23,13.83 530.42,13.74 530.771,13.74 530.99,13.83 531.75,13.54 532.03,13.31 532.311,13.21 532.45,13.12 
					532.49,12.99 532.46,12.82 532.54,12.74 532.67,12.88 532.76,12.88 532.78,12.99 532.78,13.02 532.92,13.14 533.03,13.09 
					533.09,13.16 533.11,13.39 533.21,13.56 533.46,13.78 533.5,13.95 533.44,14.02 533.25,14 533.15,14.1 533.08,14.65 
					533.12,14.98 533.271,15.34 533.57,15.79 533.98,16.37 534.33,18.12 534.521,18.37 534.82,18.58 534.87,18.79 534.84,18.95 
					534.8,19.16 534.561,19.72 534.4,19.85 534.16,19.85 533.54,20.11 533.32,20.32 533.13,20.41 533.061,20.47 532.54,20.93 
					532.311,21.27 532,21.6 531.47,22.27 530.83,23.27 530.2,24.45 529.67,24.99 529.04,26.29 529.01,26.32 528.84,26.5 
					528.5,27.25 528.24,27.79 527.79,29.06 527.23,30.2 527.061,30.37 526.97,30.41 526.78,30.49 526.7,30.58 526.48,30.54 
					526.311,30.61 526.17,30.6 525.62,30.79 525.38,30.81 525.24,30.91 525.17,30.91 524.95,30.91 524.62,31.1 524.08,31.3 
					523.7,31.54 523.34,31.87 523.08,31.9 523,32 522.82,31.96 522.63,32.1 522.4,32.14 521.99,31.91 521.91,31.9 521.66,31.9 
					521.41,32.04 521.04,32.32 520.64,32.75 520.25,33.39 520.07,33.66 519.82,34.16 519.7,34.52 519.42,35.2 519.23,35.75 
					518.88,37.69 518.86,38.31 518.83,38.8 518.84,39.39 519.28,41.77 519.54,42.02 519.68,42.1 519.92,42.14 520.01,42.19 
					520.12,42.33 520.16,42.58 520.101,42.77 520.19,42.94 520.17,43.15 520.24,43.42 520.9,44.49 521.32,44.89 522,45.91 
					522.021,46.09 522.04,46.21 522.11,46.39 522.38,46.69 522.61,47.16 522.66,47.26 523.17,47.71 523.28,48.19 523.45,48.33 
					524.16,48.89 524.18,48.89 524.66,49.15 524.87,49.33 525.05,49.43 525.5,49.45 525.74,49.39 525.83,49.37 526.36,49.14 
					526.5,49.02 526.7,49.06 526.95,48.94 527.11,49.02 527.51,49.06 527.601,49.21 527.78,49.35 527.83,49.45 527.48,50.04 
					527.48,50.2 527.561,50.39 527.54,50.52 527.45,50.39 527.36,50.38 527.32,50.42 527.32,50.77 527.36,51.01 527.48,51.2 
					527.7,51.37 528.23,51.62 528.42,51.68 528.53,51.66 528.71,51.88 528.96,51.97 529.13,52.08 529.7,52.2 530.45,52.37 
					530.72,52.51 531.09,52.52 531.26,52.58 531.38,52.79 531.7,52.89 531.84,53.04 532.49,53.14 532.811,53.31 532.83,53.45 
					532.82,53.58 532.73,54.01 532.5,54.41 532.45,54.87 532.45,55.09 532.45,55.33 532.521,55.63 532.811,56.31 533.061,56.53 
					533.25,56.59 533.62,56.58 533.65,56.66 533.44,56.83 533.21,56.92 533.12,57.07 532.67,58.72 532.811,59.54 532.82,59.71 
					532.521,60.04 532.49,60.49 532.521,61 532.58,61.39 532.62,61.48 532.78,61.81 533.63,62.74 533.83,63 534.28,63.37 
					534.311,63.41 534.41,63.52 534.561,63.7 535.01,64.06 535.061,64.08 535.45,64.27 535.49,64.35 535.49,64.41 535.49,64.42 
					535.49,64.48 535.49,64.5 535.43,64.48 535.36,64.52 535.061,64.52 534.71,64.51 534.59,64.58 534.28,65.04 534.311,65.29 
					534.19,65.44 533.72,66.1 533.74,66.33 533.561,66.41 533.36,66.39 533.18,66.46 533.04,66.46 532.88,66.55 532.311,67.69 
					532.25,68 532.271,68.31 532.38,68.53 532.4,68.59 532.33,68.7 532.271,69.41 532.17,69.68 531.95,70.03 531.82,70.36 
					531.42,70.58 530.93,70.9 530.57,71.14 530.12,71.52 529.94,71.66 529.83,71.96 529.82,72.58 529.87,72.81 529.82,73.04 
					529.88,73.48 529.78,74 529.55,74.31 529.101,74.71 528.98,74.91 528.87,75.19 528.5,75.52 528.41,75.67 528.41,75.85 
					528.49,75.95 528.5,75.99 528.61,76.18 528.59,76.33 528.5,76.39 528.16,76.41 527.771,76.52 527.62,76.66 527.37,76.85 
					527.2,77.1 527,77.16 526.73,77.42 526.12,77.86 526.16,77.96 526.37,78.13 526.43,78.28 526.43,78.41 526.38,78.33 
					526.25,78.25 526.16,78.27 526.19,78.37 526.13,78.37 526.03,78.39 525.92,78.4 525.86,78.4 525.82,78.46 525.74,78.56 
					525.74,78.6 525.68,78.76 525.66,78.87 525.63,78.97 525.59,79.14 525.65,79.39 525.65,79.6 525.24,80.16 525.12,80.44 
					524.98,80.59 524.84,80.6 524.63,80.62 524.58,80.62 524.51,80.62 524.41,80.64 524.16,80.64 523.99,80.59 523.54,80.8 
					523.49,80.8 523.37,80.83 523.13,81 522.98,81.31 522.83,81.45 522.73,81.47 522.65,81.74 522.49,82.02 522.09,82.41 
					521.99,82.69 522,83.38 521.96,83.5 521.78,83.64 521.16,83.98 521.04,83.98 521.04,83.89 520.95,83.83 520.79,83.86 
					520.33,84.06 520.271,83.95 519.79,83.98 519.53,84.13 519.521,84.13 518.84,84.4 518.67,84.46 518.03,84.92 517.91,85.2 
					517.19,86.09 517.08,86.26 517.061,86.29 517.01,86.37 516.95,86.45 516.75,86.71 516.49,86.89 516.351,86.91 516.14,86.66 
					515.99,86.66 515.88,86.75 515.811,87 515.69,86.93 515.601,87.07 515.66,87.14 515.771,87.14 515.86,87.08 515.95,87.01 
					516.05,86.92 516.12,86.93 516.16,86.98 516.11,87.24 515.99,87.35 515.601,87.52 515.45,87.58 515.32,87.54 515.23,87.49 
					514.92,87.41 514.79,87.29 514.66,87.31 514.521,87.41 514.29,87.46 514.24,87.52 514.25,87.87 514.16,88.08 514.12,88.2 
					514.03,88.25 513.74,88.33 513.63,88.33 513.45,88.33 513.32,88.39 512.98,88.72 512.771,88.87 512.63,88.91 512.54,88.72 
					512.44,88.69 512.24,88.62 511.82,89.35 511.74,89.32 511.66,89.47 511.33,89.42 510.74,89.73 510.53,89.77 510.17,90.08 
					510,90.28 509.72,90.82 509.54,91.04 509.32,91.58 509.12,92.06 508.71,92.68 508.58,92.81 508.57,93.04 508.46,93.54 
					508.37,93.68 508.03,93.67 507.95,93.76 507.95,93.89 508.12,94.09 508.17,94.36 508.17,94.45 508.25,94.93 508.19,95.14 
					508.16,95.24 508.15,95.47 508.25,95.64 508.311,95.93 508.33,96.43 508.43,96.91 508.38,97.09 508.38,97.34 508.61,97.9 
					508.62,98.26 508.58,98.31 508.41,98.31 508.34,98.33 508.2,98.39 507.771,98.41 507.771,98.49 507.86,98.54 508.62,98.38 
					508.76,98.6 508.9,98.73 509.04,99 509.24,99.73 509.42,100.03 509.99,100.96 510.32,101.32 510.59,101.83 511.4,102.68 
					511.54,102.87 511.92,103.39 511.94,103.51 511.9,103.63 511.92,103.69 511.99,103.63 512.08,103.62 512.15,103.75 
					512.3,103.79 512.46,103.91 512.771,104.27 512.93,104.39 513.24,104.56 513.41,104.71 513.58,104.8 513.61,104.86 
					513.521,105.08 513.771,105 514.01,105.06 514.08,105.14 514.13,105.35 514.36,105.64 514.33,105.73 514.55,105.74 
					514.73,105.88 515.24,106.29 515.561,106.63 516.771,107.41 517.62,107.81 517.67,107.89 517.78,107.87 517.97,107.84 
					518.13,107.92 518.84,108.06 518.98,108.12 518.99,108.12 519.021,108.14 519.11,108.19 519.16,108.33 518.87,108.37 
					518.84,108.5 518.7,108.66 518.58,108.7 518.39,108.66 518.25,108.81 518.271,108.95 518.33,108.94 518.39,108.81 
					518.601,108.81 518.84,108.67 518.98,108.45 519.12,108.43 519.2,108.48 519.23,108.66 519.351,108.73 519.58,108.61 
					520.17,108.29 520.67,108.28 521.12,108.17 521.11,108.31 521.061,108.62 521.13,108.68 521.41,108.73 521.44,108.83 
					521.75,108.66 521.72,108.59 521.48,108.62 521.3,108.59 521.18,108.49 521.18,108.45 521.18,108.34 521.23,108.26 
					521.25,108.19 521.41,108.08 521.83,107.96 522.28,107.73 522.4,107.73 523.01,107.53 523.25,107.41 523.37,107.26 
					523.83,106.93 523.92,106.89 524.2,106.75 524.46,106.62 524.771,106.57 524.96,106.64 525.23,106.83 525.42,107.08 
					525.47,107.23 525.45,107.42 525.28,108.2 525.11,108.54 525.17,108.91 525.19,109.09 525.21,109.24 525.16,109.51 
					525.04,109.72 524.93,110.08 524.83,110.26 524.57,110.38 524.37,110.58 524.12,110.7 524.021,110.8 523.95,111.02 
					523.97,111.07 523.99,111.26 524.04,111.43 524.12,111.56 524.23,111.73 524.25,111.79 524.34,111.94 524.39,112.1 
					524.33,112.36 524.37,112.52 524.67,112.7 525.11,112.78 525.33,112.85 525.62,113.11 525.73,113.12 525.95,113.11 
					526.34,113.09 526.59,112.95 527.13,112.66 527.29,112.66 527.54,112.46 527.72,112.42 527.771,112.39 528.021,112.16 
					528.65,112.01 528.87,111.88 529.13,111.83 529.76,111.64 529.92,111.55 530.32,110.95 530.37,110.71 530.34,110.49 
					530.33,110.45 530.21,110.2 530.04,110.04 529.99,109.85 529.73,109.63 529.54,109.62 529.5,109.52 529.55,109.29 
					529.74,109.12 530.2,108.94 530.33,108.85 530.44,108.77 530.54,108.77 530.561,108.77 530.98,108.92 531.4,108.91 
					531.47,108.82 531.37,108.66 531.37,108.54 531.49,108.52 531.61,108.67 531.98,108.67 532.54,109.03 532.87,109.03 
					533.23,109.31 533.39,109.54 533.7,109.84 533.88,110.08 534.2,110.49 534.42,110.98 534.61,111.49 534.65,112.64 534.4,112.96 
					534.29,113.31 534.08,114.02 534.021,114.2 534.04,114.25 534.08,114.41 534.28,114.67 534.351,115.14 534.58,115.54 
					534.68,115.85 534.68,116.08 534.59,116.2 534.53,116.45 534.66,116.41 534.68,116.39 534.96,116.16 535.22,116.2 
					535.62,116.54 535.811,116.83 535.91,117.1 535.94,117.19 536.12,117.29 536.601,117.55 536.9,117.66 537.14,117.73 
					537.28,117.85 537.59,117.94 537.95,118.18 538.49,118.41 538.76,118.6 538.811,118.69 538.74,118.76 538.58,118.76 
					538.34,118.64 537.37,118.16 536.79,118.04 536.62,117.94 536.11,117.77 535.66,117.55 535.33,117.54 535.13,117.67 
					535.01,117.62 534.86,117.79 534.84,118.01 534.75,118.15 534.74,118.33 534.79,118.5 535,118.7 535.24,119.08 535.4,119.14 
					535.62,119.35 535.67,119.54 535.83,119.81 535.851,120.08 535.851,120.2 536.061,120.61 536.23,120.74 536.39,120.76 
					536.53,120.66 536.69,120.7 536.98,120.68 537.04,120.68 537.37,120.76 538.29,120.77 538.91,121 538.95,121 540.41,121.36 
					540.63,121.36 540.73,121.41 540.98,121.42 541.08,121.36 541.19,121.24 541.33,121.23 541.57,121.41 541.811,121.5 
					542.34,121.48 542.46,121.34 542.45,121.21 542.46,121.15 542.5,121.08 542.03,120.79 541.88,120.68 541.521,120.5 
					540.24,119.45 540.04,119.27 539.65,119.11 539.63,119.05 539.74,119.04 539.93,119.08 540.45,119.44 541.57,120.35 
					541.9,120.58 541.94,120.59 543.8,121.57 544.24,121.7 544.73,121.79 545.11,121.79 545.271,121.76 				"/>
				<polyline fill="none" stroke="#666666" stroke-width="0.25" stroke-linejoin="round" stroke-miterlimit="3.8637" points="
					474.66,16.83 475.49,16.43 476.12,16.24 476.21,16.09 476.3,16.09 476.36,16.24 476.66,16.22 476.84,16.16 476.95,16.08 
					477.05,16.09 477.23,16.25 477.4,16.2 477.521,16.3 477.7,16.57 478.101,16.48 478.67,16.25 479.09,15.97 479.34,15.82 
					479.86,15.55 480.561,15 480.75,14.81 481.36,14.26 481.82,13.83 482.08,13.58 482.5,13.1 482.54,12.89 482.88,12.4 
					482.87,12.35 482.75,12.37 482.75,12.27 483.09,12.1 483.29,12.01 483.42,11.83 483.71,11.65 483.91,11.44 484.08,11.37 
					484.16,11.24 484.5,11.05 484.82,10.97 485.24,10.78 485.25,10.78 485.561,10.77 486.24,10.63 486.351,10.54 486.49,10.43 
					486.96,10.18 487.15,10.04 487.271,9.82 487.54,9.56 487.811,9.08 488.021,8.86 488.36,8.72 488.46,8.6 488.58,8.59 
					488.78,9.13 488.86,9.17 489.05,9.17 489.53,9.19 489.65,9.1 489.96,9.08 490.46,8.83 490.59,8.86 491.25,8.85 491.561,8.77 
					491.69,8.7 492.561,8.23 492.71,8.12 492.8,7.96 493.07,7.91 493.25,7.84 493.34,7.79 493.811,7.81 494.25,7.97 494.63,7.95 
					495.11,7.75 496.34,6.95 496.62,6.82 496.78,6.82 496.87,6.85 497.12,7.12 497.32,7.14 497.42,7.06 497.83,6.94 498.14,6.79 
					498.62,6.46 499.13,6 499.34,6 499.5,5.89 499.58,5.89 499.66,5.98 499.83,6 499.99,5.91 500.15,5.98 500.53,6.01 500.9,5.87 
					501.26,5.68 501.41,5.7 501.561,5.65 501.65,5.92 501.82,6.07 502.03,6.16 502.24,6.2 502.61,6.2 502.91,6.1 503.21,6.01 
					503.51,6.01 503.75,6.07 504.19,6.06 504.32,6.88 504.44,7.09 504.41,7.29 504.521,7.42 504.5,7.54 504.5,7.75 504.49,7.75 
					504.4,7.83 504.37,7.85 504.24,7.95 504.23,7.96 503.99,7.95 503.88,8 504.021,8.14 503.66,8.27 503.53,8.39 503.41,8.37 
					503.32,8.37 503.25,8.45 503.09,8.53 503.09,8.64 502.92,8.54 502.78,8.54 502.46,8.66 502.24,8.65 502.13,8.64 502.15,8.72 
					502.17,8.93 502.13,9.1 502.08,9.12 501.91,8.98 501.89,8.98 501.74,9.13 501.82,9.25 501.83,9.25 501.89,9.25 502.01,9.34 
					502.12,9.6 502.24,9.52 502.36,9.54 502.36,9.62 502.22,10.08 502.24,10.24 502.311,10.36 502.7,10.48 502.73,10.58 
					502.9,10.66 502.82,11 502.851,11.17 502.94,11.27 503.271,11.38 503.58,11.42 503.87,11.41 504.04,11.47 504.28,11.5 
					504.38,11.45 504.59,11.23 504.86,11 505.12,10.96 505.37,10.74 505.69,10.24 505.83,9.91 505.88,9.64 505.851,9.4 505.74,9.12 
					505.61,9.04 505.03,9.02 504.7,8.98 504.23,8.81 504.07,8.85 503.86,8.96 503.67,9.01 503.41,9.01 503.34,9 503.24,8.95 
					503.25,8.86 503.53,8.77 503.62,8.54 503.66,8.5 504.021,8.41 504.2,8.27 504.351,8.05 504.45,7.93 504.561,7.83 504.62,7.78 
					504.82,7.83 504.87,7.91 505.12,8.06 505.37,8.16 506.061,8.31 506.16,8.32 506.72,8.37 507.45,8.38 507.521,8.38 507.62,8.37 
					507.94,8.32 508.33,8.05 508.82,7.93 508.94,7.83 509.061,7.85 509.16,8.1 509.48,8.41 509.67,8.62 510.28,8.62 510.95,8.85 
					511.69,9.31 512.12,9.46 512.271,9.6 512.41,9.64 512.561,9.77 512.53,9.95 512.601,10 512.62,10.02 512.93,10.12 513.32,10.16 
					513.8,10.18 514.19,10.14 514.25,10.21 514.22,10.31 514.08,10.37 513.82,10.37 513.71,10.43 513.47,10.63 513.4,10.77 
					512.601,11.2 512.51,11.18 512.5,11.1 512.57,11.04 512.75,11 512.84,10.9 512.86,10.67 512.811,10.62 512.69,10.54 
					511.19,10.63 510.98,10.78 510.83,11.12 510.65,11.26 510.71,11.27 510.96,11.59 511.15,11.68 511.64,11.71 511.811,11.47 
					511.91,11.5 511.97,11.6 511.88,11.8 512.08,11.87 512.15,11.98 512.16,11.98 				"/>
				<polyline fill="none" stroke="#666666" stroke-width="0.25" stroke-linejoin="round" stroke-miterlimit="3.8637" points="
					497.2,203.09 497.021,202.41 496.99,202.25 496.92,202.04 496.16,198.68 496.16,198.64 495.7,196.48 495.53,196.08 493.03,185 
					492.521,182.81 492.45,182.71 491.98,180.68 491.99,180.58 490.73,175.29 489.59,170.44 489.561,170.04 488.061,163.98 
					487.88,163.23 487.88,163.09 487.66,162.17 487.49,161.21 487.48,161.17 486.91,159.08 486.7,157.89 486.65,157.76 
					486.61,157.66 486.42,154.23 485.23,151.91 485.03,151.54 467.69,139.9 467.62,139.48 467.15,136.42 467.03,135.59 
					467.03,132.92 467.03,131.75 466.91,131.54 462,123.81 461.93,123.68 460.43,123.71 456.65,121.56 454.64,121.64 452.87,119.51 
					452.83,119.47 452.96,114.61 452.96,114.56 451.811,112.87 451,111.68 449.99,109.84 449.51,108.97 449.58,107.62 
					449.53,107.27 449.23,106.95 449.04,106.6 448.95,106.41 448.9,105.95 449.03,105.48 449.03,105.33 448.59,104.92 
					448.101,104.6 447.87,104.42 447.87,104.37 447.84,104.06 447.87,103.95 448.03,103.7 448.13,103.37 448.15,103 448.101,102.62 
					447.66,101.38 447.73,101.12 448.04,100.34 448.061,100.29 448.061,99.87 447.96,99.35 448.28,98.44 448.29,98.18 448.04,97.41 
					448.17,97.09 448.22,97 448.24,96.99 448.36,96.87 448.62,96.59 449.08,96.48 449.46,96.08 449.75,95.64 449.771,95.49 
					449.87,94.36 449.91,94.21 450.07,93.79 450.37,93.22 452.12,92.93 452.51,92.91 452.88,92.89 453.54,92.83 454.28,92.79 
					454.45,92.71 454.41,92.41 454.46,92.09 454.4,91.98 454.94,90.91 454.95,90.85 455.09,90.26 455.23,89.71 455.36,89.32 
					455.51,88.27 455.48,87.4 455.48,87.35 455.72,87.29 456.28,87.25 457.19,87.06 457.22,87.02 457.28,86.95 457.87,86.38 
					458.13,86.18 458.39,86.05 458.7,85.99 458.83,85.96 459.11,85.95 459.82,85.27 459.98,85.12 460.04,85.06 460.69,84.83 
					460.78,84.83 460.88,84.58 461.04,84.35 461.271,84.35 461.65,84.43 461.67,84.43 461.78,84.43 461.83,84.45 461.91,84.22 
					461.93,84.2 462.16,83.87 462.83,83.65 462.95,83.41 463.08,83.38 463.311,82.74 463.5,82.66 463.57,82.69 463.64,82.67 
					464.13,82.64 464.18,82.62 464.29,82.56 464.34,82.31 464.271,82.12 464.33,81.91 464.72,81.7 465.21,81.64 465.33,81.37 
					465.17,80.96 465.5,80.66 465.521,80.39 465.32,80.06 465.09,79.69 465.23,79.25 465.83,78.56 466.271,78.37 466.7,78.46 
					466.73,78.22 466.71,78.22 466.7,78.2 466.311,77.75 466.16,77.6 466.03,77.29 466.2,77.06 466.2,77.05 466.19,77.04 
					466.08,76.85 466.07,76.78 466.04,76.57 466.04,76.56 466.07,76.21 466.07,76.2 466.01,75.85 466.061,75.71 465.92,75.31 
					465.91,75.06 465.79,74.86 465.73,74.59 465.71,74.5 465.71,74.49 465.7,74.39 465.66,74.35 465.59,74.24 465.49,74.08 
					466.01,72.64 466.37,72.22 466.59,71.87 466.66,71.7 466.69,71.56 466.79,71.21 466.811,70.9 466.811,70.78 466.88,70.24 
					467.04,69.95 467.2,69.62 467.63,68.37 467.74,68.2 468.2,67.91 468.61,67.51 468.87,67 469.12,66.68 469.28,66.08 
					469.36,65.87 469.57,65.47 469.62,65.37 469.88,64.93 470.58,64.18 470.57,64.06 470.53,64.04 469.82,64.2 469.43,64.21 
					469,64.04 468.79,63.92 468.58,63.81 468.09,63.46 467.13,63 467.061,62.86 466.97,62.81 466.95,62.66 466.851,61.96 
					466.83,61.39 466.83,60.89 466.91,59.85 466.99,59.42 467.46,58.25 467.74,58.12 467.79,58.1 468.47,57.76 468.4,57.37 
					468.2,57.12 468.07,57.06 467.95,56.64 467.87,55.77 467.87,55.66 467.87,55.56 467.88,55.42 467.78,54.92 467.65,53.85 
					467.7,53.59 467.771,53.41 467.84,52.83 467.74,52.43 467.67,52.31 467.58,52.18 467.39,52.03 466.5,51.49 465.68,50.54 
					465.42,50.05 465.32,49.72 465.33,49.52 465.49,49.21 465.58,48.91 465.62,48.71 465.73,48.19 465.74,47.52 465.58,46.9 
					465.61,46.69 465.63,46.51 465.63,46.48 465.71,46.31 465.73,46.27 465.96,45.77 466.16,45.24 466.17,45.19 466.17,45.17 
					466.19,45.16 466.4,44.83 466.41,44.8 466.41,44.79 466.4,44.75 466.22,44.33 466.22,44.27 466.22,44.18 466.22,44.1 
					466.271,43.41 466.36,42.97 466.38,42.82 466.33,42.29 466.43,42.02 466.76,41.41 466.82,41.31 466.99,40.67 467.44,40.25 
					467.53,40.29 467.62,40.31 467.57,40.21 467.37,39.92 467.36,39.88 467.37,39.4 467.34,39.25 467.24,39.16 467.04,39.04 
					466.67,38.6 466.67,38.54 466.66,38.47 466.64,38.44 466.67,38.32 467.04,37.91 467.21,37.7 467.33,37.39 467.5,37.15 
					467.561,37.06 467.58,36.99 467.63,36.91 467.63,36.88 467.62,36.2 467.48,35.45 467.88,35.05 468.14,34.87 468.47,34.77 
					468.561,34.62 468.561,34.54 468.44,34.42 468.23,34.12 468.2,34.09 468.21,33.61 468.4,33.25 468.42,33.19 468.62,33.02 
					468.61,32.77 468.4,32.27 468.87,31.84 468.92,31.72 469,31.6 469,31.57 469.03,31.33 468.32,31.25 468.17,31.2 468.16,31.15 
					468.08,31.09 467.811,30.89 467.561,30.85 467.16,31.06 466.83,31.1 466.82,31.06 466.71,31.06 466.55,30.88 466.36,30.74 
					466.2,30.71 466.12,30.7 465.66,30.83 465.49,30.83 465.16,30.74 464.2,30.61 464.021,30.55 464.04,30.52 463.811,30.29 
					463.5,30.22 463.271,30.12 463,29.64 462.98,29.62 462.98,29.58 462.89,29.26 462.96,29.14 463.271,29.06 463.34,28.93 
					463.49,28.81 463.78,28.85 463.9,28.87 464.09,28.83 464.72,28.6 465.47,28.16 465.91,28.15 465.94,28.15 465.98,28.14 
					466.45,27.97 466.46,27.97 466.71,27.81 466.92,27.55 466.95,27.43 467.95,26.66 468.38,26.59 468.54,26.5 468.73,26.32 
					468.79,26.17 468.83,26.05 468.95,25.9 469.19,25.83 469.82,25.89 470.09,25.66 470.271,25.14 470.29,24.89 470.21,24.76 
					470.39,24.52 470.67,24.45 470.811,23.98 470.811,23.95 470.84,23.75 470.74,23.37 470.42,22.79 470.42,22.77 470.39,22.57 
					470.42,22.45 470.37,22.39 470.25,22.3 470.13,22.3 470.04,22.37 469.79,22.39 469.7,22.35 469.62,22.1 469.811,21.92 
					470.44,21.71 470.46,21.68 470.7,21.56 470.99,21.58 471.32,21.54 471.71,21.34 471.82,21.34 471.83,21.34 471.95,21.47 
					472.03,21.49 472.19,21.43 472.521,21.4 472.78,21.47 472.79,21.47 473.15,21.45 473.42,21.01 473.62,20.93 473.78,20.93 
					474.11,20.93 474.38,20.71 474.47,20.64 474.8,20.53 475.37,20.21 475.48,20.05 475.48,19.84 475.4,19.69 475.2,19.52 
					474.98,19.45 474.54,19.31 474.311,19.36 474.24,19.3 474.24,19.25 474.24,19.03 474.37,18.61 474.4,18.04 474.44,17.65 
					474.53,17.54 474.79,17.45 474.94,17.5 474.79,17.29 474.68,17.02 474.65,16.83 				"/>
				<polyline fill="none" stroke="#666666" stroke-width="0.25" stroke-linejoin="round" stroke-miterlimit="3.8637" points="
					494.15,209.16 494.11,209.09 493.82,208.74 493.46,208.3 493.4,208.24 493.33,207.58 493.16,207.02 493.17,206.66 493,206.08 
					493.03,205.95 492.96,205.54 492.87,205.16 492.84,205.01 492.95,204.83 492.98,204.81 493.12,204.68 493.17,204.62 
					493.38,204.54 493.4,204.54 493.76,204.52 494.32,204.43 494.5,204.35 494.78,204.06 495.14,203.84 495.54,203.71 495.66,203.6 
					495.83,203.54 495.94,203.56 496.07,203.5 496.101,203.49 496.4,203.37 496.4,203.35 496.48,203.26 496.54,203.24 497.2,203.09 
									"/>
				<polyline fill="none" stroke="#666666" stroke-width="0.25" stroke-linejoin="round" stroke-miterlimit="3.8637" points="
					545.271,121.76 545.13,122.12 545.16,122.35 545.16,122.37 545.12,122.53 544.91,123.26 544.59,123.82 544.45,124.06 
					544.38,124.33 544.37,124.39 544.311,124.95 544.29,125.06 544.25,126.07 544.19,126.28 544.36,126.4 544.4,126.74 
					544.08,127.09 543.95,127.6 543.771,128.33 543.75,128.38 543.41,129.43 543.59,129.85 543.86,130.81 543.7,131.29 
					543.62,131.68 543.58,131.86 543.41,132.91 543.41,132.95 543.49,133.27 543.49,133.29 543.62,133.87 543.65,134.26 
					543.54,135.13 543.41,135.68 543.44,136 543.45,136.04 543.54,136.36 543.87,137.18 544.16,137.47 544.43,137.58 544.69,137.81 
					544.9,138.07 544.95,138.16 545.24,138.54 545.54,138.77 545.84,139.23 546.05,139.69 545.36,141.04 545.13,141.48 
					544.41,142.89 544.34,143.04 544.28,143.08 543.29,143.79 542.88,144.08 542.79,144.2 542.46,144.34 541.87,144.4 
					541.08,144.94 540.45,145.27 540.19,145.37 539.7,145.46 539.21,145.66 536.78,146.45 536.53,146.54 536.12,146.71 
					535.311,147.06 534.95,147.33 534.05,147.62 533.75,147.87 533.561,147.87 533.41,147.88 532.97,148.14 532.811,148.33 
					532.43,148.62 532,148.78 531.5,148.89 531.17,149.04 530.46,149.51 530.39,149.58 529.91,149.89 529.54,150.25 529.01,150.58 
					528.87,150.67 528.17,151.16 528.09,151.51 528.07,151.7 527.99,151.93 527.67,152.5 526.64,154.23 526,154.34 525.58,154.52 
					525.37,154.69 525.09,154.79 524.79,154.84 524.5,154.74 524.34,154.69 524.11,154.67 523.88,154.64 523.64,154.57 
					523.43,154.64 523.25,154.87 522.96,154.99 522.89,155.11 522.92,155.74 522.84,155.92 522.62,156.12 522.54,156.29 
					522.561,156.48 522.66,156.64 523,157.18 523.01,157.45 522.84,157.79 522.8,157.98 522.32,158.44 521.84,158.83 521.74,158.87 
					521.51,159.12 521.34,159.39 521.3,159.46 521.2,159.91 521.021,160.52 520.78,160.84 520.67,160.89 520.54,161.05 
					520.25,161.24 520.24,161.24 520.15,161.27 519.33,161.56 519.05,161.64 518.53,161.77 518.11,161.8 517.97,161.75 
					516.96,161.44 516.75,161.44 516.49,161.5 516.26,161.6 516.23,161.62 515.7,161.95 515.24,162.25 515.021,162.4 514.49,162.83 
					514.43,162.99 514.33,163.1 514.29,163.18 514.19,163.46 513.59,164.35 513.58,164.45 513.521,164.56 513.26,165.01 
					512.86,165.56 512.811,165.7 512.66,165.91 512.54,166.09 512.33,166.29 512.3,166.45 512.021,166.81 511.91,166.83 
					511.58,167.29 511.54,167.41 511.521,167.45 511.17,167.92 511.13,167.93 511.07,167.98 511,168.08 510.84,168.29 
					510.79,168.46 510.771,168.5 510.771,168.88 510.771,169.15 510.94,169.51 510.94,169.52 511,169.83 510.95,170.26 511,170.6 
					511.01,170.7 511.16,171.2 511.25,171.28 511.58,172.1 512.15,173.54 512.21,173.71 512.25,173.86 512.48,174.5 512.561,174.61 
					512.69,175.14 512.771,175.23 512.93,175.67 513.05,176 513.311,176.49 513.4,176.83 513.47,177.13 513.79,178.3 514,178.64 
					514.33,179.32 514.4,179.71 514.24,180.26 514.19,180.41 514.101,180.73 514.101,181.25 514.2,181.81 514.271,181.89 
					514.37,182.33 514.4,182.96 514.43,183.07 514.49,183.31 514.61,183.85 514.62,183.97 514.88,184.52 514.851,184.67 
					514.58,184.95 514.58,185 514.55,185.14 514.55,185.16 514.61,185.37 514.38,186.01 514.311,186.4 514.16,186.87 
					514.061,187.08 513.86,187.43 513.41,188.32 513.24,188.68 513.11,188.96 512.91,189.45 512.601,189.97 512.39,190.14 
					512.25,190.24 512.15,190.27 511.83,190.51 511.67,190.7 511.13,191.71 510.23,192.83 510.21,192.85 510.05,193.18 
					509.87,193.5 509.41,194.05 509.3,194.21 508.79,194.66 508.07,195.56 507.94,195.73 507.62,196.57 507.45,196.84 506.9,197.73 
					506.79,197.83 506.74,197.89 506.54,198.01 506.32,198.54 506.18,198.85 505.46,199.36 504.771,200.08 504.61,200.12 
					504.32,200.11 503.48,200.2 503.36,200.21 503.24,200.21 502.99,200.31 502.58,200.49 502.45,200.6 502.01,200.8 501.28,201 
					500.58,201.46 500.37,201.66 500.36,201.66 499.62,201.94 498.98,202.3 498.19,202.83 497.58,203.05 497.2,203.09 				"/>
				<polyline fill="none" stroke="#666666" stroke-width="0.25" stroke-linejoin="round" stroke-miterlimit="3.8637" points="
					512.16,11.98 512.18,11.98 512.34,11.96 512.42,11.95 512.5,11.89 512.57,11.79 				"/>
				<polyline fill="none" stroke="#666666" stroke-width="0.25" stroke-linejoin="round" stroke-miterlimit="3.8637" points="
					496.66,20.11 496.71,20.02 497.04,19.84 497.13,19.77 497.36,19.57 497.44,19.46 497.63,19.27 497.771,19.18 498.08,19.15 
					498.29,19.18 498.61,19.14 498.82,19.03 498.91,18.89 499.12,18.7 499.48,18.5 499.91,18.41 500.86,18.28 501.17,18.17 
					501.29,18.08 501.4,17.98 501.79,17.27 501.95,17.05 502.271,16.79 502.59,16.62 503.021,16.52 503.15,16.54 503.34,16.51 
					503.95,16.54 504.29,16.6 504.62,16.69 505.5,17.12 505.97,17.27 506.45,17.38 506.75,17.39 506.86,17.38 507.021,17.26 
					507.12,17.17 507.24,16.99 507.44,16.52 507.47,16.42 507.65,16.12 507.86,15.73 508.04,15.52 508.12,15.35 508.24,15.2 
					508.69,14.38 508.91,13.87 508.94,13.78 509.23,13.03 509.46,12.99 509.53,12.67 509.62,12.55 509.72,12.46 509.84,12.39 
					510.12,12.28 510.66,12.22 511.46,12.25 511.99,12.17 512.04,11.98 512.15,11.98 				"/>
				<polyline fill="none" stroke="#666666" stroke-width="0.25" stroke-linejoin="round" stroke-miterlimit="3.8637" points="
					485.24,10.78 485.29,11.24 485.271,11.44 485.33,11.95 485.25,12.28 485.13,12.56 485.08,12.99 485.12,13.46 485.2,13.77 
					485.271,13.89 485.5,13.99 485.72,14 486.14,14.02 487,13.96 487.2,13.97 487.43,14.02 487.62,14.14 487.74,14.24 487.88,14.44 
					488.08,14.87 488.44,16.02 488.601,16.36 488.87,16.7 489,17 489.09,17.49 489.21,17.68 490.03,18.4 490.24,18.61 490.69,18.85 
					491.061,18.92 491.561,19.09 491.771,19.2 491.88,19.27 492,19.31 492.21,19.51 492.23,19.84 492.21,20.06 492.14,20.39 
					491.99,20.77 491.96,20.91 491.88,21.01 491.87,21.12 491.75,21.35 491.67,21.66 491.66,21.77 491.69,22 491.75,22.14 
					491.86,22.35 492.07,22.56 492.4,22.81 492.73,22.97 493.04,23.02 493.271,22.99 493.38,22.93 493.82,22.57 493.88,22.48 
					494.7,21.62 494.83,21.54 495,21.34 495.24,21.16 495.42,20.93 495.82,20.58 496.061,20.39 496.15,20.31 496.4,20.17 
					496.66,20.11 				"/>
				<polyline fill="none" stroke="#666666" stroke-width="0.25" stroke-linejoin="round" stroke-miterlimit="3.8637" points="
					515.62,18.4 514.99,18.58 514.76,18.67 513.771,18.87 513.66,18.87 513.44,18.94 513.32,18.95 513.04,19.03 512.79,19.15 
					512.67,19.16 512.29,19.36 512.15,19.39 511.851,19.56 511.49,19.78 510.89,20.02 510.65,20.14 509.9,20.68 509.79,20.71 
					509.66,20.8 509.53,20.85 509.29,20.98 509.15,21 508.69,21.14 508.57,21.14 508.37,21.24 508.28,21.22 507.79,21.35 
					507.65,21.4 507.54,21.47 507.45,21.58 507.37,21.68 507.351,21.81 507.45,21.94 507.53,22 507.86,22.18 507.89,22.39 
					507.87,22.48 507.96,22.69 508.19,22.87 508.5,23.04 508.73,23.24 508.811,23.33 508.851,23.44 508.87,23.56 508.87,23.68 
					508.78,23.98 				"/>
				<polyline fill="none" stroke="#666666" stroke-width="0.25" stroke-linejoin="round" stroke-miterlimit="3.8637" points="
					514.34,21.01 514.15,20.72 513.96,20.66 513.84,20.72 513.75,20.86 513.73,21 513.73,21.17 513.63,21.28 513.62,21.47 
					513.32,22.33 513.29,22.45 513.23,22.54 512.99,22.62 512.75,22.89 512.65,23.08 512.561,23.17 512.44,23.24 512.3,23.26 
					512.16,23.24 512.04,23.24 511.73,23.32 511.521,23.31 511.41,23.29 511.17,23.2 510.98,23.17 510.87,23.23 510.8,23.32 
					510.7,23.54 510.49,23.86 510.38,23.95 510.17,24.02 510.05,24.02 509.62,24.1 509.29,24.1 509.04,24.06 508.78,23.98 				"/>
				<polyline fill="none" stroke="#666666" stroke-width="0.25" stroke-linejoin="round" stroke-miterlimit="3.8637" points="
					508.78,23.98 508.59,24.27 508.28,24.58 507.45,25.25 507.37,25.33 507.14,25.42 506.771,25.48 				"/>
				<polyline fill="none" stroke="#666666" stroke-width="0.25" stroke-linejoin="round" stroke-miterlimit="3.8637" points="
					503.98,27.29 504.5,27.24 504.61,27.22 504.83,27.08 504.91,26.96 505.17,26.32 505.46,25.77 505.58,25.48 505.7,25.29 
					505.79,25.2 505.91,25.12 506.21,25.03 506.41,25.04 506.51,25.09 506.62,25.2 506.771,25.48 				"/>
				<polyline fill="none" stroke="#666666" stroke-width="0.25" stroke-linejoin="round" stroke-miterlimit="3.8637" points="
					496.66,20.11 497.13,20.54 497.33,20.77 497.75,21.16 498.09,21.52 498.561,21.92 498.68,21.99 499.24,22.42 499.59,22.6 
					500.86,22.99 501.07,23 501.28,22.96 501.49,22.96 501.59,22.99 501.68,23.08 501.771,23.29 501.771,23.38 501.92,23.83 
					502.12,24.2 502.19,24.31 502.311,24.54 502.76,25.46 503.601,26.59 503.9,27.07 503.98,27.29 				"/>
				<polyline fill="none" stroke="#666666" stroke-width="0.25" stroke-linejoin="round" stroke-miterlimit="3.8637" points="
					517.45,23.11 517.34,23.37 517.311,23.75 517.271,24 517.061,24.55 516.87,24.91 516.37,25.79 516.29,25.9 516.05,26.27 
					515.83,26.72 515.87,26.83 516.49,27.31 516.4,27.55 516.19,27.94 516.11,28.16 516.11,28.29 515.84,29.16 515.69,30.06 				"/>
				<polyline fill="none" stroke="#666666" stroke-width="0.25" stroke-linejoin="round" stroke-miterlimit="3.8637" points="
					480.75,14.81 481.17,15.07 481.521,15.39 481.59,15.47 481.92,15.74 482.03,15.95 482.04,16.04 482.03,16.14 481.91,16.22 
					481.41,16.37 481.2,16.42 481.101,16.48 481.04,16.57 481.08,16.78 481.57,17.31 481.79,17.5 482.13,17.87 482.46,18.33 
					482.561,18.4 482.69,18.62 482.79,18.83 482.79,18.94 482.771,19.04 482.69,19.16 482.37,19.45 482.23,19.51 481.58,20.04 
					481.45,20.32 481.43,20.53 481.46,20.74 481.37,20.96 481.29,21.06 481.13,21.39 481.311,21.58 481.57,21.76 481.91,21.83 
					482.12,21.85 482.36,21.89 482.67,21.91 482.98,21.97 483.08,21.97 483.79,22.41 483.87,22.51 483.79,23.47 483.68,24.1 
					483.68,24.39 483.73,24.79 483.8,24.89 484.12,25.24 484.17,25.33 484.64,26.21 484.811,26.6 484.92,26.95 485.16,27.87 
					485.16,27.99 485,28.18 484.9,28.27 484.59,28.58 484.45,28.78 484.36,28.97 484.311,29.52 484.311,29.95 484.271,30.24 
					484.17,30.35 483.66,30.6 483.58,30.66 				"/>
				<polyline fill="none" stroke="#666666" stroke-width="0.25" stroke-linejoin="round" stroke-miterlimit="3.8637" points="
					503.98,27.29 503.88,27.37 503.78,27.43 503.67,27.54 503.021,27.94 502.61,28.25 502.311,28.54 502.08,28.85 502,29.06 
					501.96,29.17 501.89,29.35 501.82,29.45 501.71,29.58 501.59,29.68 501.33,29.96 501.19,30.25 501.021,30.74 500.95,30.83 				
					"/>
				<polyline fill="none" stroke="#666666" stroke-width="0.25" stroke-linejoin="round" stroke-miterlimit="3.8637" points="
					506.771,25.48 506.95,25.87 507,26 507.26,26.41 507.45,26.6 507.71,26.79 507.94,26.83 508.15,26.79 508.37,26.66 
					508.61,26.62 508.76,26.65 509.33,26.87 509.84,27.14 510.561,27.43 510.79,27.85 510.87,27.95 510.91,28.06 511.15,28.42 
					511.33,28.64 511.67,28.9 512.58,29.45 513.17,29.74 513.23,29.86 513.17,30.12 513.12,30.19 513.09,30.49 513.11,30.61 
					513.4,30.85 513.47,30.95 513.7,30.82 513.79,30.73 514,30.6 514.69,30.24 515.03,30.13 515.24,30.1 515.58,30.1 515.69,30.06 
									"/>
				<polyline fill="none" stroke="#666666" stroke-width="0.25" stroke-linejoin="round" stroke-miterlimit="3.8637" points="
					481.29,30.97 481.41,30.94 481.62,30.85 481.97,30.68 482.46,30.52 482.69,30.54 482.83,30.5 483.04,30.52 483.17,30.54 
					483.58,30.66 				"/>
				<polyline fill="none" stroke="#666666" stroke-width="0.25" stroke-linejoin="round" stroke-miterlimit="3.8637" points="
					515.69,30.06 515.65,30.58 515.601,30.92 515.561,31.7 515.58,32.17 515.62,32.38 515.65,32.49 515.84,32.81 516.05,32.96 
					516.28,33 				"/>
				<polyline fill="none" stroke="#666666" stroke-width="0.25" stroke-linejoin="round" stroke-miterlimit="3.8637" points="
					516.28,33 516.59,32.93 516.79,32.86 518.021,32.66 518.23,32.83 518.53,33.14 518.65,33.19 518.74,33.19 518.86,33.12 
					519.19,32.75 519.29,32.7 519.61,32.68 519.82,32.72 519.98,32.89 520.25,33.39 				"/>
				<polyline fill="none" stroke="#666666" stroke-width="0.25" stroke-linejoin="round" stroke-miterlimit="3.8637" points="
					468.4,33.25 468.71,33.29 468.92,33.37 469.13,33.4 469.37,33.39 469.49,33.4 469.88,33.37 470.12,33.29 470.601,33.1 
					471.311,32.71 471.89,32.42 472.15,32.27 472.5,32.1 472.74,32 473.09,31.91 473.32,31.89 473.561,31.91 475.12,31.87 
					475.46,31.9 475.95,31.87 476.86,31.87 477.63,31.84 478.28,31.79 478.79,31.7 478.9,31.7 479.9,31.43 480.83,31.15 
					481.29,30.97 				"/>
				<polyline fill="none" stroke="#666666" stroke-width="0.25" stroke-linejoin="round" stroke-miterlimit="3.8637" points="
					483.58,30.66 483.771,30.74 484.19,31.1 485.37,32.29 485.69,32.59 485.9,32.75 486.12,32.79 486.38,32.74 486.74,32.6 
					487.13,32.42 487.24,32.41 487.57,32.31 488,32.18 488.21,32.14 488.57,32.17 488.98,32.39 489.61,32.85 489.92,33.01 
					490.25,33.24 490.58,33.39 490.811,33.43 490.91,33.35 490.99,33.25 491.57,32.2 491.95,31.62 492.311,31.15 492.521,31 
					493,30.81 493.46,30.73 494.08,30.68 494.2,30.68 494.53,30.66 494.87,30.67 495.29,30.76 495.71,30.95 495.82,31.04 
					495.91,31.08 496.15,31.29 496.41,31.62 496.67,31.83 496.87,31.9 497.3,31.85 497.53,31.78 498.14,31.42 498.561,31.24 
					498.95,31.09 499.49,30.92 500.271,30.81 500.63,30.79 500.95,30.83 				"/>
				<polyline fill="none" stroke="#666666" stroke-width="0.25" stroke-linejoin="round" stroke-miterlimit="3.8637" points="
					516.28,33 516.311,33.04 516.311,33.22 516.33,33.62 516.32,34.87 516.28,34.97 516.21,35.06 515.67,35.37 515.63,35.45 
					515.66,35.56 515.75,35.64 516.021,35.85 516.11,35.87 516.21,35.98 516.24,36.07 516.24,36.16 516.23,36.25 516.17,36.35 
					516.07,36.46 515.83,36.54 515.24,36.66 514.9,36.68 514.79,36.73 514.34,36.82 514.22,36.82 513.91,36.89 513.83,36.99 
					513.8,37.09 513.91,37.41 513.98,37.56 514.01,37.96 513.98,38.12 513.92,38.32 513.771,38.62 513.521,38.92 513.19,39.14 
					512.7,39.33 512.58,39.4 512.44,39.43 				"/>
				<polyline fill="none" stroke="#666666" stroke-width="0.25" stroke-linejoin="round" stroke-miterlimit="3.8637" points="
					500.95,30.83 501.07,31.04 501.16,31.14 501.351,31.46 501.4,31.67 501.42,32.06 501.33,32.45 501.12,33.02 500.9,33.4 
					500.771,33.6 500.39,34.02 500.16,34.24 500.09,34.35 499.54,34.81 499.17,35.05 498.61,35.38 498.19,35.59 497.95,35.7 
					497.84,35.71 497.601,35.81 497.41,35.87 497.18,35.96 497.09,36.06 497.03,36.14 497.061,36.25 497.23,36.47 497.45,36.68 
					497.53,36.77 497.87,37.03 498.11,37.27 498.5,37.54 498.74,37.63 499.2,37.77 499.7,37.83 500.63,38.14 500.91,38.26 
					501.33,38.54 501.49,38.77 501.62,39.16 501.63,39.83 501.61,40.03 501.49,40.41 501.41,40.58 501.26,40.81 500.88,41.27 				
					"/>
				<polyline fill="none" stroke="#666666" stroke-width="0.25" stroke-linejoin="round" stroke-miterlimit="3.8637" points="
					512.44,39.43 512.04,39.54 511.82,39.56 511.03,39.77 510.74,39.92 510.65,40.03 510.47,40.36 510.41,40.56 510.32,40.77 
					510.17,40.97 510.09,41.06 509.75,41.21 509.65,41.18 509.54,41.08 509.29,40.67 509.2,40.78 509.15,40.9 509.09,41.16 
					509,41.72 508.97,42.02 508.811,42.74 508.71,42.88 508.58,42.94 508.46,42.94 508.2,42.83 507.98,42.62 507.86,42.5 
					507.54,42.19 507.45,42.12 507.28,42.01 507.04,41.91 506.72,41.83 506.58,41.83 506.09,41.77 505.76,41.6 505.2,41.27 
					504.91,41.11 504.8,41.08 504.24,41.05 504.11,41.06 503.33,41.24 502.73,41.44 502.22,41.53 501.86,41.53 501.5,41.49 
					501.05,41.35 500.95,41.27 500.88,41.27 				"/>
				<polyline fill="none" stroke="#666666" stroke-width="0.25" stroke-linejoin="round" stroke-miterlimit="3.8637" points="
					481.29,30.97 481.7,31.41 482.18,32.05 482.29,32.14 482.54,32.56 482.7,33.02 482.75,33.25 482.771,33.46 482.74,33.68 
					482.7,33.77 482.58,33.99 482.34,34.29 482.24,34.52 482.24,34.64 482.29,34.84 482.42,35.17 482.67,35.56 482.74,35.65 
					483.16,36.08 483.23,36.2 483.62,36.62 483.86,37.04 483.94,37.37 483.96,37.6 483.98,37.9 483.94,38.42 483.86,38.87 
					483.86,39.08 483.89,39.19 483.95,39.31 484.13,39.5 484.46,39.71 484.58,39.74 485.021,39.99 485.23,40.08 485.36,40.1 
					486.17,40.52 486.521,40.75 486.59,40.84 486.66,40.96 486.83,41.29 486.92,41.62 486.92,41.87 486.92,42.25 486.89,42.49 
					486.771,43.14 486.61,43.72 486.49,44.04 486.4,44.17 486.351,44.26 485.75,44.83 485.41,45.34 485.3,45.55 485.24,45.95 
					485.15,46.3 484.95,46.66 484.5,47 484.29,47.14 484.07,47.32 483.96,47.42 483.87,47.62 483.84,47.74 483.82,47.98 
					483.82,48.31 483.83,48.83 483.82,49.18 483.73,50.1 483.62,50.52 483.59,50.65 483.53,50.74 483.47,51.06 483.351,51.37 				
					"/>
				<polyline fill="none" stroke="#666666" stroke-width="0.25" stroke-linejoin="round" stroke-miterlimit="3.8637" points="
					467.7,53.59 468.11,53.59 468.311,53.54 468.63,53.32 469.101,52.81 469.41,52.51 469.64,52.35 470.061,52.21 470.39,52.2 
					470.62,52.22 470.72,52.25 470.86,52.35 471.23,52.51 471.66,52.75 471.771,52.78 472.061,52.93 472.33,53.02 472.79,53.1 
					473.03,53.1 473.42,53.05 473.57,52.99 473.771,52.83 473.9,52.62 474.021,52.06 474.12,50.92 474.17,50.7 474.26,50.42 
					474.351,50.18 474.59,49.81 474.92,49.41 475.15,49.24 475.37,49.14 475.59,49.1 476.03,49.12 476.271,49.16 477.08,49.41 
					477.19,49.45 477.87,49.6 478.59,49.84 478.74,49.91 479.34,50.16 481.01,50.89 482.03,51.27 482.271,51.33 482.54,51.37 
					483.23,51.33 483.351,51.37 				"/>
				<polyline fill="none" stroke="#666666" stroke-width="0.25" stroke-linejoin="round" stroke-miterlimit="3.8637" points="
					512.44,39.43 511.9,40.24 511.43,41.04 511.54,41.14 511.64,41.21 512.39,41.6 512.88,41.81 513.08,41.92 513.19,42.01 
					513.37,42.25 513.521,42.54 513.58,42.71 513.58,42.94 513.54,43.14 513.5,43.52 513.37,44.24 513.32,44.35 513.21,44.8 
					513.05,45.35 512.87,45.77 512.62,46.16 512.44,46.35 512.3,46.56 512.2,46.64 512.11,46.78 511.79,47.11 511.41,47.53 
					511.271,47.81 511.36,48.13 511.69,48.79 512.21,49.91 512.75,50.96 513.351,52.02 513.83,52.9 514.19,53.44 514.521,53.86 
					514.66,54.1 514.69,54.39 514.74,54.68 514.83,54.91 				"/>
				<polyline fill="none" stroke="#666666" stroke-width="0.25" stroke-linejoin="round" stroke-miterlimit="3.8637" points="
					524.16,48.89 524.04,49.12 523.87,49.33 523.67,49.52 523.33,49.79 523.12,50 522.98,50.2 522.92,50.42 522.87,50.66 
					522.89,51.29 523.03,52.37 523.03,52.72 522.96,53.12 522.8,53.45 522.73,53.58 522.5,53.75 522.021,54.04 521.25,54.31 
					520.4,54.47 520.2,54.55 520.101,54.62 520.03,54.73 520.01,54.82 520.04,54.94 520.2,55.12 520.4,55.31 520.45,55.42 
					520.46,55.51 520.41,55.62 520.22,55.81 519.8,56.05 519.09,56.29 				"/>
				<polyline fill="none" stroke="#666666" stroke-width="0.25" stroke-linejoin="round" stroke-miterlimit="3.8637" points="
					519.09,56.29 518.67,56.26 518.3,56.26 518.3,56.27 517.91,56.27 517.36,56.17 516.83,56.04 515.9,55.66 515.15,55.15 
					514.88,54.94 514.83,54.91 				"/>
				<polyline fill="none" stroke="#666666" stroke-width="0.25" stroke-linejoin="round" stroke-miterlimit="3.8637" points="
					500.88,41.27 500.74,41.45 500.15,41.89 499.62,42.25 499.19,42.56 499.04,42.64 498.351,43.14 497.33,43.89 497.04,44.05 
					496.54,44.47 495.89,45.06 495.45,45.37 495.33,45.47 495.17,45.7 495.09,45.94 495.11,46.16 495.311,46.81 495.351,47.29 
					495.26,47.71 495.14,48.02 495,48.27 494.93,48.49 494.88,48.73 494.95,49.02 494.99,49.14 495.14,49.37 495.24,49.51 
					495.68,49.9 495.75,50 495.79,50.11 495.771,50.18 495.74,50.27 495.66,50.37 494.95,50.5 494.7,50.58 494.37,50.72 
					494.18,50.85 493.49,51.28 493.37,51.34 493.101,51.43 492.73,51.45 492.28,51.4 492,51.31 491.2,51.01 490.36,50.8 
					490.13,50.79 490.03,50.85 489.92,50.93 489.87,51.02 489.86,51.14 489.86,51.25 489.98,51.56 490.15,51.79 491.16,52.99 
					491.65,53.53 492.84,54.77 493.33,55.39 493.69,56.05 493.73,56.16 494.061,56.8 494.18,56.98 494.25,57.19 494.271,57.35 				
					"/>
				<polyline fill="none" stroke="#666666" stroke-width="0.25" stroke-linejoin="round" stroke-miterlimit="3.8637" points="
					494.271,57.35 494.03,57.27 493.79,57.22 493.41,57.16 492.71,57.16 492.33,57.22 491.2,57.56 				"/>
				<polyline fill="none" stroke="#666666" stroke-width="0.25" stroke-linejoin="round" stroke-miterlimit="3.8637" points="
					483.351,51.37 483.68,51.62 483.86,51.88 484.19,52.57 484.48,53.04 484.58,53.14 484.73,53.37 485.11,53.74 485.3,53.87 
					485.5,53.91 485.74,53.87 486.05,53.72 486.17,53.7 486.37,53.7 486.84,53.85 487.2,54 487.43,54.13 487.66,54.29 487.74,54.49 
					488.03,55.24 488.21,55.43 488.32,55.48 488.91,55.57 489.26,55.66 489.8,55.9 490.41,56.29 490.71,56.58 490.95,56.87 
					491.11,57.17 491.18,57.37 491.2,57.56 				"/>
				<path fill="none" stroke="#666666" stroke-width="0.25" stroke-linejoin="round" stroke-miterlimit="3.8637" d="M518.3,56.32
					c0,0,0.15,0.93,1.021,1.57c0.85,0.63,1.83-0.29,1.83-0.29l0.81-0.6l0.021,0.01l0.688,0.19l0.34,0.08l0.75,0.3l0.62,0.18
					l0.99,0.18l0.938,0.2l1.222,0.07l0.239-0.06l0.23-0.57l0.2-0.3l0.148-0.18l0.399-0.4l0.36-0.28l0.54-0.32l0.51-0.23l1.01-0.31
					l1.271-0.47"/>
				<polyline fill="none" stroke="#666666" stroke-width="0.25" stroke-linejoin="round" stroke-miterlimit="3.8637" points="
					514.83,54.91 514.46,54.97 513.63,55.24 513.41,55.37 513.23,55.57 513.08,55.79 513.04,56 513.05,56.11 513.4,56.93 
					513.49,57.28 513.45,57.5 513.29,57.71 513.07,57.85 512.86,58.04 512.66,58.37 512.24,59.35 511.76,60.31 511.67,60.54 
					511.62,60.73 511.64,60.92 511.67,61.03 511.76,61.24 512.04,61.81 512.12,62.23 512.15,62.47 512.16,62.95 512.08,63.52 
					512.09,63.92 512.16,64.1 512.271,64.31 512.65,64.78 512.86,65.1 512.95,65.31 513.04,65.59 513.07,65.83 513.07,66.14 
					512.96,66.73 512.98,66.83 				"/>
				<polyline fill="none" stroke="#666666" stroke-width="0.25" stroke-linejoin="round" stroke-miterlimit="3.8637" points="
					532.37,68.53 531.65,68.18 531.521,68.16 530.93,68.11 530.72,68.16 530.62,68.12 530.51,68.02 530.36,67.72 530.061,67.29 
					529.79,66.83 529.36,66.2 529.16,66.02 529.061,66.06 528.96,66.13 528.86,66.24 528.66,66.54 528.49,66.73 528.37,66.81 
					528.19,66.87 528.07,66.88 527.98,66.87 527.771,66.77 527.65,66.66 527.44,66.31 527.12,65.47 527.061,65.26 527.03,65.17 
					526.95,64.79 526.87,64.18 526.73,63.85 526.29,63.25 526.2,63.19 526.04,63.37 525.92,63.68 525.86,63.79 525.7,64.14 
					525.53,64.36 525.33,64.57 525.21,64.66 524.84,64.85 524.72,64.87 524.48,64.87 524.13,64.78 523.54,64.54 523.04,64.27 
					522.83,64.2 522.73,64.16 522.521,64.16 522.29,64.2 522.19,64.39 522.16,64.57 522.05,64.77 521.91,64.87 521.45,65.08 
					521.39,65.18 521.33,65.27 521.32,65.39 521.34,65.7 521.34,65.74 521.271,65.87 521.09,66.08 520.76,66.37 520.311,66.68 
					519.96,66.85 519.63,66.97 518.811,67.37 518.13,67.67 517.5,67.97 517.271,68.04 517.15,68.04 516.75,67.89 516.07,67.41 
					515.84,67.29 515.3,67.18 514.7,67.16 514.25,67.12 512.98,66.83 				"/>
				<polyline fill="none" stroke="#666666" stroke-width="0.25" stroke-linejoin="round" stroke-miterlimit="3.8637" points="
					512.98,66.83 512.78,66.79 512.561,66.79 512.3,66.88 511.49,67.36 511.4,67.45 510.92,67.81 510.7,68.02 510.17,68.58 
					509.98,68.74 509.601,69.22 509.34,69.49 508.9,70.14 508.7,70.52 				"/>
				<polyline fill="none" stroke="#666666" stroke-width="0.25" stroke-linejoin="round" stroke-miterlimit="3.8637" points="
					508.7,70.52 508.58,70.37 508.28,70.1 508.15,69.81 507.95,69.06 507.5,67.67 507.38,67.06 507.23,66.56 507.11,66.5 
					506.98,66.54 506.09,66.83 505.69,67 505.54,66.97 505.311,66.92 504.8,66.71 504.4,66.58 503.83,66.41 503.12,66.27 
					501.82,66.06 501.08,65.87 500.84,65.79 500.63,65.68 500.39,65.47 500.15,65.24 500.021,65.05 499.83,64.64 499.76,64.54 
					498.96,63.85 498.44,63.27 498.19,62.93 497.87,63.04 497.63,63.06 497.04,63.01 496.95,63 496.74,62.86 496.34,62.45 
					495.53,61.78 494.87,61.18 494.74,60.89 494.72,60.74 494.74,60.62 494.86,60 494.99,59.56 494.99,59.44 495.08,58.97 
					495.12,58.51 495.05,58.27 494.87,57.95 494.48,57.47 494.271,57.35 				"/>
				<polyline fill="none" stroke="#666666" stroke-width="0.25" stroke-linejoin="round" stroke-miterlimit="3.8637" points="
					478.61,77.83 481.811,75.97 482.7,75.5 483.68,75.14 484.13,74.95 484.48,74.77 484.67,74.62 484.76,74.52 484.78,74.41 
					484.74,74.32 484.64,74.21 484.28,74.08 484.08,73.89 483.96,73.67 483.92,73.56 483.95,73.35 484.08,73.09 484.61,72.68 
					484.97,72.33 485.23,71.91 485.41,71.41 485.62,71 485.83,70.81 485.91,70.78 486.04,70.78 486.521,70.91 486.65,70.95 
					486.75,70.91 487.69,70.45 489.58,69.91 489.75,69.68 489.87,69.37 489.91,69.28 489.91,69.06 489.86,68.95 489.65,68.52 
					489.54,68.23 489.5,67.93 489.47,67.46 489.49,67.08 489.54,66.68 489.63,66.37 489.7,65.98 489.73,65.66 489.66,65.42 
					489.521,65.2 489.16,65 488.42,64.77 487.74,64.62 487.33,64.48 487.24,64.43 487.03,64.3 486.92,64.2 486.86,63.97 
					486.86,63.77 487.01,63.24 487.19,62.71 487.45,62.12 488.18,61.74 488.36,61.52 488.51,61.2 488.601,60.81 488.67,60.6 
					488.84,60.29 489.021,60.08 489.26,59.89 489.49,59.75 489.73,59.65 490.24,59.37 490.67,58.99 490.83,58.81 490.94,58.69 
					491.04,58.45 491.08,58.33 491.15,58.02 491.2,57.56 				"/>
				<polyline fill="none" stroke="#666666" stroke-width="0.25" stroke-linejoin="round" stroke-miterlimit="3.8637" points="
					466.7,78.2 466.71,78.2 466.73,78.22 466.83,78.28 467.13,78.56 467.21,78.68 467.3,78.77 467.57,78.91 468.07,79.02 
					468.42,79.04 468.74,79.14 469.311,79.35 469.62,79.42 469.78,79.48 469.95,79.51 470.09,79.56 470.34,79.7 470.57,79.87 
					470.9,80.08 471,80.18 471.351,80.42 471.44,80.53 471.8,80.75 472.49,81.04 472.851,81.13 473.03,80.66 473.12,80.26 
					473.2,80.08 473.42,79.89 473.66,79.74 474.37,79.45 474.96,79.12 476.13,78.56 476.45,78.47 476.98,78.43 477.53,78.34 
					478.15,78.1 478.61,77.83 				"/>
				<polyline fill="none" stroke="#666666" stroke-width="0.25" stroke-linejoin="round" stroke-miterlimit="3.8637" points="
					478.61,77.83 479.021,77.95 479.63,78.2 479.87,78.29 481.16,78.83 481.79,79.04 482.29,79.27 482.72,79.31 483.59,79.27 
					484.59,79.29 485.13,79.36 485.811,79.5 486.42,79.54 486.71,79.58 487.13,79.69 487.43,79.81 488.33,80.27 488.74,80.52 
					488.95,80.6 489.05,80.62 489.26,80.6 489.47,80.53 490.101,80.2 490.19,80.18 490.28,80.2 490.36,80.29 490.4,80.39 
					490.4,80.52 490.37,80.62 489.89,81.71 489.771,82.03 489.71,82.35 489.73,82.64 489.771,82.83 489.84,83.04 490.01,83.35 
					490.4,83.83 490.73,84.17 491.15,84.59 491.39,84.79 491.72,84.95 492.58,85.18 493.12,85.36 493.34,85.48 493.55,85.63 
					493.78,85.87 494.2,86.53 494.36,86.74 494.79,87.07 495.14,87.28 496.22,87.68 496.61,87.88 496.73,87.95 496.79,88.06 
					496.88,88.29 496.91,88.57 496.91,89.08 496.87,90.41 496.78,91.67 				"/>
				<polyline fill="none" stroke="#666666" stroke-width="0.25" stroke-linejoin="round" stroke-miterlimit="3.8637" points="
					496.78,91.67 497.11,91.5 497.3,91.31 497.601,91 497.83,90.89 498.521,90.68 498.87,90.54 498.96,90.5 499.24,90.54 
					499.36,90.59 499.58,90.7 500.061,91.03 500.29,91.21 500.46,91.54 500.51,91.72 500.54,91.78 				"/>
				<polyline fill="none" stroke="#666666" stroke-width="0.25" stroke-linejoin="round" stroke-miterlimit="3.8637" points="
					508.7,70.52 508.57,70.69 508.29,71.23 508.01,71.96 507.59,72.87 507.21,73.83 506.99,74.23 506.271,75.39 505.49,76.56 
					505.28,76.85 505.2,77 504.75,77.64 504.66,77.8 504.41,78.13 504.29,78.37 504.021,78.95 503.58,79.77 503.36,80.26 
					503.21,80.77 503.18,81.08 503.2,81.28 503.33,81.85 503.41,82.03 503.46,82.12 504.19,82.22 505.46,82.3 506.08,82.41 
					506.7,82.56 507.42,82.87 507.65,83 508.33,83.32 508.94,83.65 508.95,83.75 508.92,83.84 508.82,84.55 508.74,84.83 
					508.62,85.15 508.41,85.43 508.07,85.64 507.84,85.76 507.14,86.05 506.93,86.23 506.46,86.75 506.12,86.8 505.78,86.77 
					505.45,86.8 505.36,86.81 505.07,86.96 504.65,87.31 502.25,88.39 501.83,88.67 501.42,88.9 500.91,89.23 500.83,89.33 
					500.67,89.51 500.63,89.62 500.601,89.8 500.65,89.92 501.07,90.24 501.26,90.43 501.44,90.73 501.54,90.91 501.66,91.25 
					501.75,91.58 501.79,91.78 501.771,91.87 501.73,91.98 501.61,92.05 501.5,92.08 501.4,92.09 501.2,92.08 501,92 500.54,91.78 
									"/>
				<polyline fill="none" stroke="#666666" stroke-width="0.25" stroke-linejoin="round" stroke-miterlimit="3.8637" points="
					489.771,93 490.74,92.44 491.24,92.27 491.5,92.24 491.88,92.26 492.98,92.39 494.18,92.6 494.7,92.6 495.021,92.51 
					495.24,92.41 495.89,92.02 496.01,91.98 496.311,91.91 496.521,91.83 496.78,91.67 				"/>
				<polyline fill="none" stroke="#666666" stroke-width="0.25" stroke-linejoin="round" stroke-miterlimit="3.8637" points="
					500.54,91.78 500.601,91.96 500.74,92.16 500.84,92.26 501.04,92.41 501.32,92.56 501.75,92.7 502.07,92.73 502.41,92.71 
					502.87,92.64 503.16,92.51 503.37,92.47 503.58,92.45 503.79,92.53 503.91,92.62 504.14,92.86 504.521,93.43 504.79,93.73 
					505.07,93.99 505.521,94.23 506.021,94.33 506.29,94.37 506.57,94.37 506.66,94.34 506.771,94.25 506.79,94.15 506.78,93.39 
					506.86,93.29 506.96,93.31 507.17,93.41 507.61,93.76 508.16,94.36 				"/>
				<polyline fill="none" stroke="#666666" stroke-width="0.25" stroke-linejoin="round" stroke-miterlimit="3.8637" points="
					475.311,96.16 475.91,96.08 476.45,96.08 476.72,96.06 477.29,95.98 477.66,95.98 479.12,95.89 479.36,95.84 480.21,95.39 
					480.44,95.35 480.58,95.37 480.82,95.41 481.28,95.56 481.64,95.64 482.15,95.71 482.41,95.73 482.79,95.8 483.12,95.81 
					483.45,95.71 483.63,95.53 483.7,95.29 483.68,94.98 483.7,94.58 483.79,94.27 483.94,94.06 484.04,93.95 484.38,93.77 
					484.76,93.64 485.45,93.34 485.54,93.31 485.75,93.29 486.17,93.46 486.8,93.49 487.46,93.46 488.021,93.4 489.11,93.2 
					489.53,93.1 489.771,93 				"/>
				<polyline fill="none" stroke="#666666" stroke-width="0.25" stroke-linejoin="round" stroke-miterlimit="3.8637" points="
					461.91,84.22 461.93,84.25 461.96,84.45 461.9,84.79 461.83,85.09 461.63,85.62 461.53,85.85 461.45,86.08 461.45,86.29 
					461.48,86.39 461.66,86.59 462.11,87.01 462.59,87.4 462.74,87.59 462.74,87.68 462.66,87.77 462.42,87.89 462.07,87.94 
					461.93,87.94 461.62,87.97 461.061,88.06 460.71,88.41 459.91,89.39 459.7,89.68 459.68,89.79 460.101,90.08 461.09,90.66 
					461.44,90.88 461.9,91.27 462.32,91.67 462.49,91.89 462.68,92.17 463.101,92.89 463.17,93 463.38,93.13 463.5,93.16 
					464.39,93.22 464.86,93.34 465.61,93.58 466.25,93.83 466.46,93.97 467.08,94.45 467.16,94.57 467.29,94.9 467.36,95.35 
					467.41,95.77 467.5,95.95 467.601,96.06 467.69,96.12 468,96.14 468.8,96.13 470.46,95.98 471.29,95.86 472.101,95.83 
					473.08,95.81 473.9,95.87 474.21,95.92 475.311,96.16 				"/>
				<polyline fill="none" stroke="#666666" stroke-width="0.25" stroke-linejoin="round" stroke-miterlimit="3.8637" points="
					475.311,96.16 474.37,98.02 473.79,99.13 473.25,99.89 472.78,100.41 471.82,101.29 470.66,102.25 469.19,103.34 
					465.521,106.14 463.4,107.86 461.78,109.09 460.99,109.74 460.38,110.21 457.69,112.23 456.38,113.14 452.96,114.61 				"/>
				<polyline fill="none" stroke="#666666" stroke-width="0.25" stroke-linejoin="round" stroke-miterlimit="3.8637" points="
					489.771,93 489.771,93.24 489.92,93.52 490.13,93.82 490.29,94.01 490.5,94.21 491,94.56 491.41,94.75 491.78,94.87 
					491.88,94.95 491.96,95.05 491.96,95.14 491.96,95.24 491.84,95.42 491.39,95.84 490.49,96.46 489.94,96.94 489.86,97.03 
					489.62,97.51 489.54,97.72 489.49,98 489.47,98.31 489.49,98.53 489.53,98.95 489.61,100.03 489.74,100.83 489.89,101.44 
					490.03,101.87 490.29,102.59 490.43,102.91 490.55,103.18 490.811,103.76 491.15,104.41 491.62,105.13 492.38,106.45 
					492.45,106.56 492.65,106.69 492.96,106.85 493.49,107.02 493.851,107.17 494.18,107.39 494.36,107.6 494.74,108.33 
					494.91,108.54 495.021,108.61 495.12,108.67 495.38,108.7 495.8,108.59 495.89,108.61 496.03,108.68 496.38,109.03 
					496.69,109.36 497.3,109.96 497.45,110.17 497.53,110.38 497.48,110.71 497.42,110.91 497.24,111.31 496.87,111.87 
					496.78,111.99 496.59,112.29 496.5,112.52 496.49,112.63 496.521,112.81 496.67,113.05 496.79,113.17 497.08,113.42 
					498.05,114.22 498.41,114.54 498.68,114.83 498.84,115.06 498.98,115.29 499.66,116.58 499.82,116.84 500.12,117.26 
					500.3,117.46 500.811,117.95 501.19,118.37 				"/>
				<polyline fill="none" stroke="#666666" stroke-width="0.25" stroke-linejoin="round" stroke-miterlimit="3.8637" points="
					518.98,108.12 518.34,108.46 517.91,108.77 517.71,108.99 517.58,109.2 517.37,109.5 517.22,109.81 517.01,110.06 
					516.49,110.47 516.41,110.56 516.23,110.91 516.12,111.24 515.96,111.58 515.58,112.12 515.24,112.52 514.99,112.83 
					514.851,113.06 514.61,113.53 514.58,113.66 514.311,114.24 514.16,114.31 513.71,114.39 512.54,114.73 512.12,114.89 
					511.67,115.09 511.43,115.23 511.12,115.42 510.66,115.79 509.9,116.58 509.45,116.98 509.12,117.22 508.62,117.43 
					507.61,117.62 506.83,117.79 506.12,118.12 505.9,118.16 505.271,118.16 504.73,118.08 504.17,118.04 503.83,118.1 
					502.61,118.46 502.25,118.46 501.351,118.34 501.19,118.37 				"/>
				<polyline fill="none" stroke="#666666" stroke-width="0.25" stroke-linejoin="round" stroke-miterlimit="3.8637" points="
					501.19,118.37 502,119.33 502.28,119.65 502.59,119.92 502.82,120.07 503.3,120.26 503.84,120.43 503.98,120.45 504.21,120.46 
					504.86,120.37 505.16,120.39 505.25,120.43 505.38,120.5 505.49,120.59 505.57,120.68 505.67,120.91 505.7,121.09 
					505.71,121.62 505.69,121.93 505.7,123.2 505.67,123.4 505.61,123.61 505.271,124.37 				"/>
				<polyline fill="none" stroke="#666666" stroke-width="0.25" stroke-linejoin="round" stroke-miterlimit="3.8637" points="
					505.271,124.37 505.19,124.5 505.13,124.69 505.12,124.81 505.13,125.04 505.25,125.24 505.49,125.47 506.2,125.95 
					507.09,126.66 507.26,126.85 507.28,126.95 507.26,127.06 507.16,127.16 506.84,127.3 506.44,127.39 506.33,127.46 
					506.2,127.66 506.15,127.87 506.15,128.09 506.21,129.01 506.25,129.25 506.29,129.37 506.41,129.56 506.5,129.68 
					506.601,129.76 506.66,129.85 506.72,129.95 506.72,130.16 506.65,130.37 506.42,130.74 506.09,131.14 505.74,131.51 
					505.67,131.64 505.57,131.93 505.54,132.16 505.46,132.88 505.49,133.48 505.57,133.79 506.78,135.85 506.63,135.94 
					506.3,135.95 506.16,135.92 505.76,135.76 505.311,135.48 504.91,135.2 504.49,134.89 503.86,134.37 503.3,133.96 
					502.88,133.63 502.59,133.34 502.2,132.82 501.94,132.5 501.84,132.41 501.521,132.17 501.32,132.08 500.87,131.93 
					500.33,131.87 499.83,131.89 499.16,132.01 498.59,132.16 498.311,132.26 497.69,132.64 496.99,133.27 496.5,133.62 
					496.2,133.81 487.73,135.89 485.48,135.99 482.36,136.08 467.62,139.48 				"/>
				<polyline fill="none" stroke="#666666" stroke-width="0.25" stroke-linejoin="round" stroke-miterlimit="3.8637" points="
					505.271,124.37 505.4,124.42 505.64,124.39 506.16,124.42 506.95,124.41 508.2,124.2 508.97,123.92 509.41,123.7 
					509.561,123.52 509.98,122.91 510.24,122.6 510.37,122.5 510.47,122.42 510.68,122.35 510.89,122.32 511.22,122.33 
					511.82,122.44 512.65,122.64 512.87,122.65 512.99,122.62 513.08,122.56 513.311,122.23 513.38,122.14 513.59,121.98 
					513.8,121.84 514.101,121.74 514.66,121.58 515.18,121.42 515.771,121.03 516.07,120.88 516.311,120.77 516.79,120.62 
					517.48,120.43 517.9,120.26 518.45,120 519.311,119.53 519.62,119.39 519.84,119.33 520.15,119.32 520.48,119.33 521.46,119.51 
					521.75,119.5 522.09,119.41 522.71,119.18 522.92,119.14 523.01,119.16 523.12,119.21 523.19,119.33 523.19,119.42 
					523.17,119.51 523.12,119.62 522.91,119.91 522.87,120.12 522.92,120.31 522.92,120.4 522.71,120.41 522.521,120.39 
					522.29,120.43 522.17,120.62 522.2,120.73 522.32,120.92 522.41,121.03 522.66,121.21 522.98,121.37 523.311,121.46 
					523.58,121.51 524.061,121.54 524.57,121.6 524.96,121.7 525.521,121.9 526.2,122.23 527.12,122.7 527.54,122.84 528.66,123.35 
					530,124.04 531.38,124.6 531.7,124.76 531.89,124.93 532.01,125.12 532.25,126.02 532.311,126.37 532.4,126.61 532.64,126.94 
					532.83,127.14 533.16,127.41 533.87,128.05 534.09,128.18 534.38,128.29 534.58,128.41 534.74,128.62 534.83,128.91 
					534.86,129.08 534.8,129.55 534.68,130 534.4,130.72 534.32,130.93 534.28,131.12 534.24,131.35 534.24,131.79 534.32,133.08 
					534.351,133.87 534.33,134.09 534.28,134.33 534.14,134.74 534.07,135.07 534.05,135.17 534.08,135.29 534.19,135.41 
					535.16,136.23 535.83,136.66 537.521,137.95 538.271,138.62 539.39,139.7 540.16,140.27 540.47,140.49 540.74,140.65 
					541.04,140.71 541.24,140.7 541.851,140.56 542.08,140.56 542.18,140.64 542.21,140.8 542.08,141.02 541.83,141.33 
					541.46,141.64 540.96,141.97 540.68,142.14 540.47,142.24 539.79,142.45 539.32,142.64 538.95,142.84 538.61,143.08 
					538.2,143.38 537.98,143.6 537.49,144.17 536.601,145.79 536.37,146.18 536.12,146.71 				"/>
				<polyline fill="none" stroke="#666666" stroke-width="0.25" stroke-linejoin="round" stroke-miterlimit="3.8637" points="
					494.15,209.16 494.3,209.35 494.65,209.77 				"/>
			</g>
		</g>
	</g>
</g>
</svg>
