<?xml version="1.0" encoding="utf-8"?>
<!-- Generator: Adobe Illustrator 13.0.0, SVG Export Plug-In . SVG Version: 6.00 Build 14948)  -->
<!DOCTYPE svg PUBLIC "-//W3C//DTD SVG 1.0//EN" "http://www.w3.org/TR/2001/REC-SVG-20010904/DTD/svg10.dtd">
<svg version="1.0" id="Calque_1" xmlns="http://www.w3.org/2000/svg" xmlns:xlink="http://www.w3.org/1999/xlink" x="0px" y="0px"
	 width="567.734px" height="532.311px" viewBox="0 0 567.734 532.311" enable-background="new 0 0 567.734 532.311"
	 xml:space="preserve">
<g id="XMLID_2_">
	<g>
		<g id="XMLID_1_">
			<g>
				<polygon fill="#84B93B" points="504.644,94.21 504.433,94.01 504.275,93.82 504.064,93.521 503.914,93.24 503.914,93 
					504.884,92.44 505.384,92.271 505.644,92.24 506.025,92.26 507.125,92.39 508.324,92.6 508.843,92.6 509.164,92.51 
					509.384,92.41 510.035,92.021 510.154,91.98 510.455,91.91 510.664,91.83 510.923,91.67 511.253,91.5 511.445,91.311 
					511.744,91 511.974,90.89 512.664,90.68 513.013,90.541 513.103,90.5 513.384,90.541 513.503,90.59 513.724,90.7 514.205,91.03 
					514.433,91.21 514.603,91.541 514.654,91.72 514.683,91.78 514.744,91.96 514.884,92.16 514.984,92.26 515.183,92.41 
					515.464,92.561 515.894,92.7 516.214,92.73 516.554,92.71 517.013,92.64 517.304,92.51 517.513,92.47 517.724,92.45 
					517.933,92.53 518.054,92.62 518.285,92.86 518.664,93.43 518.933,93.73 519.214,93.99 519.664,94.23 520.164,94.33 
					520.433,94.37 520.714,94.37 520.804,94.34 520.914,94.25 520.933,94.15 520.923,93.39 521.003,93.291 521.103,93.311 
					521.314,93.41 521.753,93.76 522.304,94.36 522.314,94.36 522.314,94.45 522.394,94.93 522.333,95.14 522.304,95.24 
					522.294,95.47 522.394,95.64 522.455,95.93 522.474,96.43 522.574,96.91 522.525,97.09 522.525,97.34 522.753,97.9 
					522.763,98.26 522.724,98.311 522.554,98.311 522.484,98.33 522.343,98.39 521.914,98.41 521.914,98.49 522.003,98.541 
					522.763,98.38 522.904,98.6 523.044,98.73 523.183,99 523.384,99.73 523.564,100.03 524.134,100.96 524.464,101.32 
					524.734,101.83 525.544,102.68 525.683,102.87 526.064,103.39 526.083,103.51 526.044,103.63 526.064,103.69 526.134,103.63 
					526.224,103.62 526.294,103.75 526.445,103.791 526.603,103.91 526.914,104.271 527.074,104.39 527.384,104.561 527.554,104.71 
					527.724,104.8 527.753,104.86 527.664,105.08 527.914,105 528.154,105.061 528.224,105.14 528.275,105.35 528.503,105.64 
					528.474,105.73 528.695,105.74 528.875,105.88 529.384,106.291 529.705,106.63 530.914,107.41 531.763,107.811 531.814,107.89 
					531.923,107.87 532.115,107.84 532.275,107.92 532.984,108.061 533.125,108.12 532.484,108.46 532.054,108.771 531.853,108.99 
					531.724,109.2 531.513,109.5 531.365,109.811 531.154,110.061 530.634,110.47 530.554,110.561 530.375,110.91 530.263,111.24 
					530.103,111.58 529.724,112.12 529.384,112.521 529.134,112.83 528.994,113.061 528.753,113.53 528.724,113.66 528.455,114.24 
					528.304,114.311 527.853,114.39 526.683,114.73 526.263,114.89 525.814,115.09 525.574,115.23 525.263,115.42 524.804,115.791 
					524.044,116.58 523.593,116.98 523.263,117.22 522.763,117.43 521.753,117.62 520.974,117.791 520.263,118.12 520.044,118.16 
					519.414,118.16 518.875,118.08 518.314,118.041 517.974,118.1 516.753,118.46 516.394,118.46 515.494,118.34 515.333,118.37 
					514.955,117.95 514.445,117.46 514.263,117.26 513.964,116.84 513.804,116.58 513.125,115.291 512.984,115.061 512.824,114.83 
					512.554,114.541 512.195,114.22 511.224,113.42 510.933,113.17 510.814,113.05 510.664,112.811 510.634,112.63 510.644,112.521 
					510.734,112.291 510.923,111.99 511.013,111.87 511.384,111.311 511.564,110.91 511.625,110.71 511.673,110.38 511.593,110.17 
					511.445,109.96 510.833,109.36 510.525,109.03 510.173,108.68 510.035,108.61 509.945,108.59 509.525,108.7 509.263,108.67 
					509.164,108.61 509.054,108.541 508.884,108.33 508.503,107.6 508.324,107.39 507.994,107.17 507.634,107.021 507.103,106.85 
					506.794,106.69 506.593,106.561 506.525,106.45 505.763,105.13 505.294,104.41 504.955,103.76 504.695,103.18 504.574,102.91 
					504.433,102.59 504.173,101.87 504.035,101.44 503.884,100.83 503.753,100.03 503.673,98.95 503.634,98.53 503.615,98.311 
					503.634,98 503.683,97.72 503.763,97.51 504.003,97.03 504.083,96.94 504.634,96.46 505.535,95.84 505.984,95.42 506.103,95.24 
					506.103,95.14 506.103,95.05 506.025,94.95 505.923,94.87 505.554,94.75 505.144,94.561 				"/>
			</g>
			<g>
				<polygon fill="none" stroke="#666666" stroke-width="0.25" stroke-linejoin="round" stroke-miterlimit="3.8637" points="
					496.013,0.25 496.093,0.271 496.234,0.41 496.414,0.541 496.433,0.7 496.263,0.88 496.173,0.91 495.964,0.82 495.304,1.021 
					495.054,0.95 495.003,0.88 495.035,0.771 495.384,0.55 495.753,0.521 495.843,0.47 495.904,0.33 				"/>
				<polygon fill="none" stroke="#666666" stroke-width="0.25" stroke-linejoin="round" stroke-miterlimit="3.8637" points="
					516.474,9.28 516.474,9.14 516.634,8.85 516.753,8.72 516.904,8.71 516.853,8.98 516.753,9.14 				"/>
				<polygon fill="none" stroke="#666666" stroke-width="0.25" stroke-linejoin="round" stroke-miterlimit="3.8637" points="
					540.853,11.95 540.785,11.91 540.804,11.7 540.974,11.561 541.013,11.39 541.144,11.35 541.253,11.6 541.464,11.87 
					541.353,11.95 				"/>
				<polygon fill="none" stroke="#666666" stroke-width="0.25" stroke-linejoin="round" stroke-miterlimit="3.8637" points="
					542.875,12.2 542.894,12.291 542.824,12.35 542.734,12.291 542.763,12.22 				"/>
				<polygon fill="none" stroke="#666666" stroke-width="0.25" stroke-linejoin="round" stroke-miterlimit="3.8637" points="
					546.574,48.791 546.423,48.76 546.365,48.67 546.414,48.58 546.593,48.35 546.833,48.37 546.955,48.62 546.804,48.73 				"/>
				<polygon fill="none" stroke="#666666" stroke-width="0.25" stroke-linejoin="round" stroke-miterlimit="3.8637" points="
					546.125,49.521 545.933,49.3 546.013,49.21 546.144,49.25 546.183,49.35 				"/>
				<polygon fill="none" stroke="#666666" stroke-width="0.25" stroke-linejoin="round" stroke-miterlimit="3.8637" points="
					546.904,53.1 546.753,53 546.423,52.91 546.365,52.84 546.394,52.75 546.634,52.83 546.933,53.041 				"/>
				<polygon fill="none" stroke="#666666" stroke-width="0.25" stroke-linejoin="round" stroke-miterlimit="3.8637" points="
					553.414,75.76 553.275,75.71 553.234,75.6 553.183,75.47 553.304,75.45 553.503,75.66 553.865,75.82 553.714,75.88 
					553.535,75.87 				"/>
				<polygon fill="none" stroke="#666666" stroke-width="0.25" stroke-linejoin="round" stroke-miterlimit="3.8637" points="
					551.144,76.36 551.025,76.25 551.054,76.2 551.195,76.18 551.314,76.311 551.404,76.42 551.353,76.45 				"/>
				<polygon fill="none" stroke="#666666" stroke-width="0.25" stroke-linejoin="round" stroke-miterlimit="3.8637" points="
					553.205,77.24 553.173,77.271 552.974,77.16 552.875,77.041 552.875,76.96 552.955,76.95 552.994,77.061 				"/>
				<polygon fill="none" stroke="#666666" stroke-width="0.25" stroke-linejoin="round" stroke-miterlimit="3.8637" points="
					553.263,77.74 553.224,77.561 553.294,77.42 553.503,77.311 553.974,77.32 554.013,77.38 553.984,77.44 553.705,77.44 
					553.474,77.5 553.324,77.71 				"/>
				<polygon fill="none" stroke="#666666" stroke-width="0.25" stroke-linejoin="round" stroke-miterlimit="3.8637" points="
					549.884,78.13 549.853,78.07 549.814,77.92 549.833,77.92 549.853,77.83 550.013,77.87 550.044,77.41 549.955,77.291 
					549.994,77.24 550.183,77.33 550.224,77.58 550.294,77.66 550.705,77.811 551.044,77.791 551.234,77.89 551.285,77.86 
					551.253,77.75 551.214,77.65 551.375,77.58 551.314,77.39 551.353,77.08 551.234,76.96 551.134,76.84 551.093,76.78 
					551.093,76.67 551.314,76.69 551.353,76.66 551.705,76.36 551.664,76.2 551.634,76.041 551.775,75.87 551.705,75.791 
					551.683,75.68 551.794,75.561 551.794,75.45 551.964,75.5 552.154,75.6 552.314,75.88 552.365,75.97 552.384,76.03 
					552.455,76.12 552.513,76.12 552.574,76.061 552.574,75.89 552.414,75.811 552.474,75.7 552.574,75.71 552.785,75.89 
					553.044,75.89 553.503,76.15 553.474,76.22 553.304,76.22 553.164,76.1 553.044,76.1 552.853,76.21 552.875,76.35 
					552.814,76.37 552.763,76.45 552.814,76.521 552.814,76.67 552.843,76.74 552.753,76.811 552.625,76.85 552.525,76.771 
					552.513,76.99 552.525,77.17 552.875,77.41 553.054,77.6 553.134,77.811 553.134,78.01 553.083,78.08 552.753,78.08 
					552.603,78.13 552.414,78.271 552.214,78.43 551.945,78.43 551.933,78.58 551.853,78.64 550.894,78.97 550.593,79.03 
					550.064,79.291 549.974,79.41 549.964,79.43 549.833,79.521 549.593,79.6 549.343,79.771 549.093,79.84 548.945,79.96 
					548.894,79.95 548.875,79.95 548.843,79.62 549.013,79.35 549.054,79.16 549.125,79 549.294,78.92 549.455,78.791 
					549.625,78.46 549.875,78.2 549.904,78.17 				"/>
				<polygon fill="none" stroke="#666666" stroke-width="0.25" stroke-linejoin="round" stroke-miterlimit="3.8637" points="
					546.275,80.95 546.154,80.93 545.933,80.811 545.634,80.561 545.224,80.38 545.125,80.32 545.455,79.97 545.494,79.93 
					545.664,79.85 546.853,79.791 547.025,79.89 547.234,79.791 547.564,79.791 547.984,79.78 548.125,79.87 548.494,79.89 
					548.705,79.95 548.683,80.08 548.683,80.16 548.644,80.18 548.333,80.24 547.775,80.65 547.253,81.17 547.115,81.17 
					547.013,81.24 546.994,81.37 546.955,81.4 546.644,81.07 546.513,80.98 				"/>
				<polygon fill="none" stroke="#666666" stroke-width="0.25" stroke-linejoin="round" stroke-miterlimit="3.8637" points="
					540.294,107.16 540.414,107.18 540.455,107.37 540.384,107.41 				"/>
				<polygon fill="none" stroke="#666666" stroke-width="0.25" stroke-linejoin="round" stroke-miterlimit="3.8637" points="
					543.804,107.38 543.474,107.51 543.224,107.74 543.154,107.86 543.013,108.74 542.884,108.66 542.644,108.021 542.664,107.84 
					542.804,107.6 542.894,107.42 542.794,107.23 542.664,106.99 541.763,105.92 541.593,105.87 541.353,105.85 541.224,105.89 
					541.013,106.08 540.875,106.14 540.724,106.23 540.644,106.521 540.644,106.811 540.314,106.72 540.183,106.811 540.054,106.83 
					539.894,106.72 539.673,106.34 539.544,106.25 539.404,105.811 539.224,105.48 539.285,105.26 539.285,104.98 539.285,104.92 
					539.423,104.771 539.593,104.45 539.664,104.21 539.634,103.34 539.664,103.16 539.583,102.64 539.634,102.43 539.664,102.311 
					539.583,101.811 539.644,101.71 539.794,101.64 539.974,101.561 540.513,101.44 540.763,101.35 541.375,101.41 541.705,101.5 
					542.513,101.84 542.894,101.93 543.683,101.93 544.115,102.08 544.183,101.87 544.134,101.68 544.134,101.541 544.294,101.561 
					544.343,101.561 544.535,101.73 545.025,102.33 545.333,102.58 546.304,103.271 546.923,103.291 547.134,103.3 547.304,103.39 
					547.384,103.541 547.263,103.78 547.324,103.89 547.474,104.2 547.394,104.291 547.324,104.291 547.173,104.14 547.134,104.2 
					547.183,104.311 547.343,104.38 547.384,104.45 547.384,104.66 547.343,104.71 547.093,104.7 546.724,104.87 546.423,105.22 
					546.365,105.291 545.683,105.561 545.673,105.58 545.593,105.61 545.433,105.771 545.285,106.1 545.183,106.62 545.164,107.21 
					545.044,107.35 545.013,107.18 544.974,106.95 545.025,106.46 544.933,106.25 544.843,106.15 544.683,106.23 544.535,106.42 
					544.263,107.021 544.083,107.09 544.083,107.11 				"/>
				<polygon fill="none" stroke="#666666" stroke-width="0.25" stroke-linejoin="round" stroke-miterlimit="3.8637" points="
					542.564,109.84 542.525,109.57 542.583,109.521 542.664,109.521 542.705,109.62 542.664,109.74 				"/>
				<polygon fill="none" stroke="#666666" stroke-width="0.25" stroke-linejoin="round" stroke-miterlimit="3.8637" points="
					541.064,112.061 541.183,112.23 541.205,112.34 541.064,112.521 540.994,112.48 541.025,112.34 540.994,112.18 540.955,112.1 
					540.955,112.041 				"/>
				<polygon fill="none" stroke="#666666" stroke-width="0.25" stroke-linejoin="round" stroke-miterlimit="3.8637" points="
					549.054,115.85 548.664,115.23 548.683,115.09 549.125,115.57 549.154,115.7 				"/>
				<polyline fill="none" stroke="#666666" stroke-width="0.25" stroke-linejoin="round" stroke-miterlimit="3.8637" points="
					453.974,16.84 454.353,16.46 454.714,16.18 454.933,15.89 455.224,15.45 455.353,14.86 455.314,14.58 455.125,14.39 
					455.044,14.24 454.484,13.96 454.234,13.771 454.083,13.74 453.964,13.62 				"/>
				<polyline fill="none" stroke="#666666" stroke-width="0.25" stroke-linejoin="round" stroke-miterlimit="3.8637" points="
					453.974,13.03 454.275,12.82 454.554,12.89 454.775,12.89 455.134,13 455.314,13.15 455.554,13.22 455.554,13.24 455.634,13.35 
					455.824,13.35 455.945,13.291 456.035,13.15 456.003,13.041 456.294,13 456.484,13.09 456.955,13.311 457.173,13.39 
					457.414,13.37 457.763,13.22 458.003,13.24 458.125,13.12 458.103,12.94 458.263,12.91 458.333,12.85 458.474,12.88 
					458.564,12.97 458.683,13 458.583,13.24 458.423,13.43 458.433,13.561 458.634,13.771 458.763,13.83 458.884,13.89 
					459.035,14.061 459.183,14.1 459.593,14.061 459.933,13.96 460.375,13.91 460.603,13.93 460.914,14.041 461.224,14.05 
					461.375,14.11 461.664,14.35 461.884,14.65 462.054,14.791 462.423,15.061 462.544,15.34 463.554,16.021 463.894,16.15 
					464.224,16.21 464.384,16.16 464.664,16.18 464.933,15.92 464.984,15.811 465.054,15.83 465.013,15.91 465.125,16.03 
					465.384,16.08 465.474,15.99 465.554,16 465.634,16.14 465.853,16.291 465.974,16.22 466.054,16.22 466.093,16.541 
					466.164,16.62 466.324,16.58 466.554,16.48 467.375,16.42 467.664,16.36 467.724,16.3 467.884,16.14 468.013,16.08 
					468.154,16.08 468.244,16.14 468.244,16.22 468.035,16.42 468.003,16.58 467.843,16.67 467.593,17.18 467.615,17.311 
					467.974,17.811 468.003,17.92 467.875,18.1 467.593,18.5 467.593,18.62 467.804,18.811 468.144,19.1 468.394,19.271 
					469.714,19.62 470.843,19.62 471.734,19.5 471.884,19.51 472.083,19.63 472.134,19.48 472.583,19.291 474.144,18.87 
					474.833,18.47 475.324,18.33 475.484,18.25 475.683,18.14 476.353,17.71 477.003,17.49 477.384,17.26 477.804,17.061 
					478.064,16.87 478.384,16.83 478.673,16.63 478.794,16.6 478.833,16.6 479.003,16.58 479.074,16.7 479.093,16.96 
					479.183,17.021 479.593,17.08 479.683,17.14 479.705,17.23 479.664,17.38 479.724,17.44 480.144,17.561 480.904,17.49 
					481.164,17.42 481.375,17.42 481.464,17.47 481.804,17.45 481.833,17.44 482.054,17.39 482.263,17.541 482.914,17.53 
					483.093,17.66 483.343,18.01 483.664,18.061 483.884,17.96 484.025,17.98 484.183,18.07 484.384,18.021 484.554,18.061 
					484.724,17.96 485.234,17.92 485.554,17.87 485.884,17.71 486.154,17.541 486.503,17.41 486.544,17.39 486.554,17.39 
					487.775,17.061 487.955,16.87 488.044,16.87 488.224,17.021 488.615,16.97 488.794,16.83 				"/>
				<polyline fill="none" stroke="#666666" stroke-width="0.25" stroke-linejoin="round" stroke-miterlimit="3.8637" points="
					559.433,121.76 559.714,122 560.054,122.291 560.525,123.01 560.875,123.2 561.154,123.24 561.314,123.49 561.634,123.64 
					562.183,123.791 562.535,123.771 564.263,124.16 564.714,124.2 565.164,124.3 565.205,124.041 564.814,123.87 564.294,123.71 
					564.035,123.49 563.544,123.291 563.314,123.25 563.125,123.34 562.794,123.1 562.564,122.98 562.464,122.75 562.884,122.93 
					563.195,123.041 564.003,123.311 564.503,123.5 564.714,123.67 565.375,124 566.513,124.43 567.275,124.74 567.484,124.87 				
					"/>
				<polyline fill="none" stroke="#666666" stroke-width="0.25" stroke-linejoin="round" stroke-miterlimit="3.8637" points="
					526.324,11.98 526.375,11.96 526.503,11.64 526.433,11.38 526.474,11.24 526.593,11.32 526.654,11.66 526.714,11.771 
					526.714,11.791 526.894,11.95 527.343,12.17 527.384,12.271 527.423,12.47 527.314,12.66 527.144,12.68 527.044,12.66 
					527.025,12.6 527.134,12.43 527.103,12.35 526.933,12.28 526.865,12.271 526.603,12.35 526.224,12.41 526.115,12.55 
					526.164,12.6 526.234,12.6 526.394,12.5 526.164,12.89 525.904,13.561 525.923,13.97 525.785,13.84 525.695,13.87 
					525.843,14.08 525.763,14.16 525.814,14.2 525.904,14.17 525.974,14.21 526.093,14.53 526.093,14.59 526.134,14.811 
					526.445,15.5 526.884,16.061 527.794,16.85 528.304,17.21 528.394,17.24 528.593,17.33 528.603,17.33 529.183,17.45 
					529.294,17.541 529.384,17.68 529.324,17.8 529.304,17.83 529.384,18.1 529.484,18.25 529.625,18.33 529.714,18.37 
					529.763,18.4 529.865,18.47 530.183,18.7 530.214,18.83 530.195,18.94 529.923,19 529.763,19.271 529.564,19.43 529.554,19.64 
					529.083,20.291 529.025,20.47 528.804,20.521 528.875,20.65 528.625,20.74 528.525,20.83 528.484,21.01 528.753,21.5 
					528.734,21.561 529.115,22 529.445,22.41 529.644,22.541 529.804,22.66 530.314,22.91 530.513,22.99 530.554,23 530.964,23.11 
					531.365,23.14 531.593,23.11 531.875,23.061 532.115,23.021 532.775,22.78 533.134,22.57 533.234,22.69 533.125,22.84 
					533.164,22.91 533.333,22.89 533.433,22.791 533.263,22.541 533.304,22.5 534.455,22.061 534.714,21.87 534.843,21.68 
					534.974,21.25 535.183,20.83 535.263,20.33 535.394,20.061 535.445,19.69 535.503,19.51 535.724,19.42 535.775,19.3 
					535.744,19.061 536.125,18.95 536.375,18.74 536.423,18.561 536.554,18.541 536.753,18.7 537.634,18.45 537.904,18.55 
					538.583,18.521 538.843,18.45 539.144,18.35 539.455,18.19 539.593,18.12 539.884,17.92 540.414,17.42 540.853,16.99 
					541.294,16.9 541.564,16.58 541.673,16.541 541.724,16.41 541.884,16.45 542.333,16.15 542.525,16 542.843,15.67 542.945,15.64 
					543.173,15.39 543.343,14.98 543.644,15.021 543.734,14.93 543.753,14.62 543.574,14.41 543.644,14.35 543.634,14.24 
					543.554,14.17 543.634,14.041 543.625,13.9 543.664,13.84 543.753,13.85 543.814,13.97 543.955,13.91 544.205,13.84 
					544.375,13.83 544.564,13.74 544.914,13.74 545.134,13.83 545.894,13.541 546.173,13.311 546.455,13.21 546.593,13.12 
					546.634,12.99 546.603,12.82 546.683,12.74 546.814,12.88 546.904,12.88 546.923,12.99 546.923,13.021 547.064,13.14 
					547.173,13.09 547.234,13.16 547.253,13.39 547.353,13.561 547.603,13.78 547.644,13.95 547.583,14.021 547.394,14 
					547.294,14.1 547.224,14.65 547.263,14.98 547.414,15.34 547.714,15.791 548.125,16.37 548.474,18.12 548.664,18.37 
					548.964,18.58 549.013,18.791 548.984,18.95 548.945,19.16 548.705,19.72 548.544,19.85 548.304,19.85 547.683,20.11 
					547.464,20.32 547.275,20.41 547.205,20.47 546.683,20.93 546.455,21.271 546.144,21.6 545.615,22.271 544.974,23.271 
					544.343,24.45 543.814,24.99 543.183,26.291 543.154,26.32 542.984,26.5 542.644,27.25 542.384,27.791 541.933,29.061 
					541.375,30.2 541.205,30.37 541.115,30.41 540.923,30.49 540.843,30.58 540.625,30.541 540.455,30.61 540.314,30.6 
					539.763,30.791 539.525,30.811 539.384,30.91 539.314,30.91 539.093,30.91 538.763,31.1 538.224,31.3 537.843,31.541 
					537.484,31.87 537.224,31.9 537.144,32 536.964,31.96 536.775,32.1 536.544,32.14 536.134,31.91 536.054,31.9 535.804,31.9 
					535.554,32.041 535.183,32.32 534.785,32.75 534.394,33.39 534.214,33.66 533.964,34.16 533.843,34.521 533.564,35.2 
					533.375,35.75 533.025,37.69 533.003,38.311 532.974,38.8 532.984,39.39 533.423,41.771 533.683,42.021 533.824,42.1 
					534.064,42.14 534.154,42.19 534.263,42.33 534.304,42.58 534.244,42.771 534.333,42.94 534.314,43.15 534.384,43.42 
					535.044,44.49 535.464,44.89 536.144,45.91 536.164,46.09 536.183,46.21 536.253,46.39 536.525,46.69 536.753,47.16 
					536.804,47.26 537.314,47.71 537.423,48.19 537.593,48.33 538.304,48.89 538.324,48.89 538.804,49.15 539.013,49.33 
					539.195,49.43 539.644,49.45 539.884,49.39 539.974,49.37 540.503,49.14 540.644,49.021 540.843,49.061 541.093,48.94 
					541.253,49.021 541.654,49.061 541.744,49.21 541.923,49.35 541.974,49.45 541.625,50.041 541.625,50.2 541.705,50.39 
					541.683,50.521 541.593,50.39 541.503,50.38 541.464,50.42 541.464,50.771 541.503,51.01 541.625,51.2 541.843,51.37 
					542.375,51.62 542.564,51.68 542.673,51.66 542.853,51.88 543.103,51.97 543.275,52.08 543.843,52.2 544.593,52.37 
					544.865,52.51 545.234,52.521 545.404,52.58 545.525,52.791 545.843,52.89 545.984,53.041 546.634,53.14 546.955,53.311 
					546.974,53.45 546.964,53.58 546.875,54.01 546.644,54.41 546.593,54.87 546.593,55.09 546.593,55.33 546.664,55.63 
					546.955,56.311 547.205,56.53 547.394,56.59 547.763,56.58 547.794,56.66 547.583,56.83 547.353,56.92 547.263,57.07 
					546.814,58.72 546.955,59.541 546.964,59.71 546.664,60.041 546.634,60.49 546.664,61 546.724,61.39 546.763,61.48 
					546.923,61.811 547.775,62.74 547.974,63 548.423,63.37 548.455,63.41 548.554,63.521 548.705,63.7 549.154,64.061 
					549.205,64.08 549.593,64.271 549.634,64.35 549.634,64.41 549.634,64.42 549.634,64.48 549.634,64.5 549.574,64.48 
					549.503,64.521 549.205,64.521 548.853,64.51 548.734,64.58 548.423,65.041 548.455,65.291 548.333,65.44 547.865,66.1 
					547.884,66.33 547.705,66.41 547.503,66.39 547.324,66.46 547.183,66.46 547.025,66.55 546.455,67.69 546.394,68 
					546.414,68.311 546.525,68.53 546.544,68.59 546.474,68.7 546.414,69.41 546.314,69.68 546.093,70.03 545.964,70.36 
					545.564,70.58 545.074,70.9 544.714,71.14 544.263,71.521 544.083,71.66 543.974,71.96 543.964,72.58 544.013,72.811 
					543.964,73.041 544.025,73.48 543.923,74 543.695,74.311 543.244,74.71 543.125,74.91 543.013,75.19 542.644,75.521 
					542.554,75.67 542.554,75.85 542.634,75.95 542.644,75.99 542.753,76.18 542.734,76.33 542.644,76.39 542.304,76.41 
					541.914,76.521 541.763,76.66 541.513,76.85 541.343,77.1 541.144,77.16 540.875,77.42 540.263,77.86 540.304,77.96 
					540.513,78.13 540.574,78.28 540.574,78.41 540.525,78.33 540.394,78.25 540.304,78.271 540.333,78.37 540.275,78.37 
					540.173,78.39 540.064,78.4 540.003,78.4 539.964,78.46 539.884,78.561 539.884,78.6 539.824,78.76 539.804,78.87 
					539.775,78.97 539.734,79.14 539.794,79.39 539.794,79.6 539.384,80.16 539.263,80.44 539.125,80.59 538.984,80.6 
					538.775,80.62 538.724,80.62 538.654,80.62 538.554,80.64 538.304,80.64 538.134,80.59 537.683,80.8 537.634,80.8 
					537.513,80.83 537.275,81 537.125,81.311 536.974,81.45 536.875,81.47 536.794,81.74 536.634,82.021 536.234,82.41 
					536.134,82.69 536.144,83.38 536.103,83.5 535.923,83.64 535.304,83.98 535.183,83.98 535.183,83.89 535.093,83.83 
					534.933,83.86 534.474,84.061 534.414,83.95 533.933,83.98 533.673,84.13 533.664,84.13 532.984,84.4 532.814,84.46 
					532.173,84.92 532.054,85.2 531.333,86.09 531.224,86.26 531.205,86.291 531.154,86.37 531.093,86.45 530.894,86.71 
					530.634,86.89 530.494,86.91 530.285,86.66 530.134,86.66 530.025,86.75 529.955,87 529.833,86.93 529.744,87.07 529.804,87.14 
					529.914,87.14 530.003,87.08 530.093,87.01 530.195,86.92 530.263,86.93 530.304,86.98 530.253,87.24 530.134,87.35 
					529.744,87.521 529.593,87.58 529.464,87.541 529.375,87.49 529.064,87.41 528.933,87.291 528.804,87.311 528.664,87.41 
					528.433,87.46 528.384,87.521 528.394,87.87 528.304,88.08 528.263,88.2 528.173,88.25 527.884,88.33 527.775,88.33 
					527.593,88.33 527.464,88.39 527.125,88.72 526.914,88.87 526.775,88.91 526.683,88.72 526.583,88.69 526.384,88.62 
					525.964,89.35 525.884,89.32 525.804,89.47 525.474,89.42 524.884,89.73 524.673,89.771 524.314,90.08 524.144,90.28 
					523.865,90.82 523.683,91.041 523.464,91.58 523.263,92.061 522.853,92.68 522.724,92.811 522.714,93.041 522.603,93.541 
					522.513,93.68 522.173,93.67 522.093,93.76 522.093,93.89 522.263,94.09 522.314,94.36 522.314,94.45 522.394,94.93 
					522.333,95.14 522.304,95.24 522.294,95.47 522.394,95.64 522.455,95.93 522.474,96.43 522.574,96.91 522.525,97.09 
					522.525,97.34 522.753,97.9 522.763,98.26 522.724,98.311 522.554,98.311 522.484,98.33 522.343,98.39 521.914,98.41 
					521.914,98.49 522.003,98.541 522.763,98.38 522.904,98.6 523.044,98.73 523.183,99 523.384,99.73 523.564,100.03 
					524.134,100.96 524.464,101.32 524.734,101.83 525.544,102.68 525.683,102.87 526.064,103.39 526.083,103.51 526.044,103.63 
					526.064,103.69 526.134,103.63 526.224,103.62 526.294,103.75 526.445,103.791 526.603,103.91 526.914,104.271 527.074,104.39 
					527.384,104.561 527.554,104.71 527.724,104.8 527.753,104.86 527.664,105.08 527.914,105 528.154,105.061 528.224,105.14 
					528.275,105.35 528.503,105.64 528.474,105.73 528.695,105.74 528.875,105.88 529.384,106.291 529.705,106.63 530.914,107.41 
					531.763,107.811 531.814,107.89 531.923,107.87 532.115,107.84 532.275,107.92 532.984,108.061 533.125,108.12 533.134,108.12 
					533.164,108.14 533.253,108.19 533.304,108.33 533.013,108.37 532.984,108.5 532.843,108.66 532.724,108.7 532.535,108.66 
					532.394,108.811 532.414,108.95 532.474,108.94 532.535,108.811 532.744,108.811 532.984,108.67 533.125,108.45 533.263,108.43 
					533.343,108.48 533.375,108.66 533.494,108.73 533.724,108.61 534.314,108.291 534.814,108.28 535.263,108.17 535.253,108.311 
					535.205,108.62 535.275,108.68 535.554,108.73 535.583,108.83 535.894,108.66 535.865,108.59 535.625,108.62 535.445,108.59 
					535.324,108.49 535.324,108.45 535.324,108.34 535.375,108.26 535.394,108.19 535.554,108.08 535.974,107.96 536.423,107.73 
					536.544,107.73 537.154,107.53 537.394,107.41 537.513,107.26 537.974,106.93 538.064,106.89 538.343,106.75 538.603,106.62 
					538.914,106.57 539.103,106.64 539.375,106.83 539.564,107.08 539.615,107.23 539.593,107.42 539.423,108.2 539.253,108.541 
					539.314,108.91 539.333,109.09 539.353,109.24 539.304,109.51 539.183,109.72 539.074,110.08 538.974,110.26 538.714,110.38 
					538.513,110.58 538.263,110.7 538.164,110.8 538.093,111.021 538.115,111.07 538.134,111.26 538.183,111.43 538.263,111.561 
					538.375,111.73 538.394,111.791 538.484,111.94 538.535,112.1 538.474,112.36 538.513,112.521 538.814,112.7 539.253,112.78 
					539.474,112.85 539.763,113.11 539.875,113.12 540.093,113.11 540.484,113.09 540.734,112.95 541.275,112.66 541.433,112.66 
					541.683,112.46 541.865,112.42 541.914,112.39 542.164,112.16 542.794,112.01 543.013,111.88 543.275,111.83 543.904,111.64 
					544.064,111.55 544.464,110.95 544.513,110.71 544.484,110.49 544.474,110.45 544.353,110.2 544.183,110.041 544.134,109.85 
					543.875,109.63 543.683,109.62 543.644,109.521 543.695,109.291 543.884,109.12 544.343,108.94 544.474,108.85 544.583,108.771 
					544.683,108.771 544.705,108.771 545.125,108.92 545.544,108.91 545.615,108.82 545.513,108.66 545.513,108.541 
					545.634,108.521 545.753,108.67 546.125,108.67 546.683,109.03 547.013,109.03 547.375,109.311 547.535,109.541 547.843,109.84 
					548.025,110.08 548.343,110.49 548.564,110.98 548.753,111.49 548.794,112.64 548.544,112.96 548.433,113.311 548.224,114.021 
					548.164,114.2 548.183,114.25 548.224,114.41 548.423,114.67 548.494,115.14 548.724,115.541 548.824,115.85 548.824,116.08 
					548.734,116.2 548.673,116.45 548.804,116.41 548.824,116.39 549.103,116.16 549.365,116.2 549.763,116.541 549.955,116.83 
					550.054,117.1 550.083,117.19 550.263,117.291 550.744,117.55 551.044,117.66 551.285,117.73 551.423,117.85 551.734,117.94 
					552.093,118.18 552.634,118.41 552.904,118.6 552.955,118.69 552.884,118.76 552.724,118.76 552.484,118.64 551.513,118.16 
					550.933,118.041 550.763,117.94 550.253,117.771 549.804,117.55 549.474,117.541 549.275,117.67 549.154,117.62 
					549.003,117.791 548.984,118.01 548.894,118.15 548.884,118.33 548.933,118.5 549.144,118.7 549.384,119.08 549.544,119.14 
					549.763,119.35 549.814,119.541 549.974,119.811 549.994,120.08 549.994,120.2 550.205,120.61 550.375,120.74 550.535,120.76 
					550.673,120.66 550.833,120.7 551.125,120.68 551.183,120.68 551.513,120.76 552.433,120.771 553.054,121 553.093,121 
					554.554,121.36 554.775,121.36 554.875,121.41 555.125,121.42 555.224,121.36 555.333,121.24 555.474,121.23 555.714,121.41 
					555.955,121.5 556.484,121.48 556.603,121.34 556.593,121.21 556.603,121.15 556.644,121.08 556.173,120.791 556.025,120.68 
					555.664,120.5 554.384,119.45 554.183,119.271 553.794,119.11 553.775,119.05 553.884,119.041 554.074,119.08 554.593,119.44 
					555.714,120.35 556.044,120.58 556.083,120.59 557.945,121.57 558.384,121.7 558.875,121.791 559.253,121.791 559.414,121.76 
									"/>
				<polyline fill="none" stroke="#666666" stroke-width="0.25" stroke-linejoin="round" stroke-miterlimit="3.8637" points="
					488.804,16.83 489.634,16.43 490.263,16.24 490.353,16.09 490.445,16.09 490.503,16.24 490.804,16.22 490.984,16.16 
					491.093,16.08 491.195,16.09 491.375,16.25 491.544,16.2 491.664,16.3 491.843,16.57 492.244,16.48 492.814,16.25 
					493.234,15.97 493.484,15.82 494.003,15.55 494.705,15 494.894,14.811 495.503,14.26 495.964,13.83 496.224,13.58 496.644,13.1 
					496.683,12.89 497.025,12.4 497.013,12.35 496.894,12.37 496.894,12.271 497.234,12.1 497.433,12.01 497.564,11.83 
					497.853,11.65 498.054,11.44 498.224,11.37 498.304,11.24 498.644,11.05 498.964,10.97 499.384,10.78 499.394,10.78 
					499.705,10.771 500.384,10.63 500.494,10.541 500.634,10.43 501.103,10.18 501.294,10.041 501.414,9.82 501.683,9.561 
					501.955,9.08 502.164,8.86 502.503,8.72 502.603,8.6 502.724,8.59 502.923,9.13 503.003,9.17 503.195,9.17 503.673,9.19 
					503.794,9.1 504.103,9.08 504.603,8.83 504.734,8.86 505.394,8.85 505.705,8.771 505.833,8.7 506.705,8.23 506.853,8.12 
					506.945,7.96 507.214,7.91 507.394,7.84 507.484,7.791 507.955,7.811 508.394,7.97 508.775,7.95 509.253,7.75 510.484,6.95 
					510.763,6.82 510.923,6.82 511.013,6.85 511.263,7.12 511.464,7.14 511.564,7.061 511.974,6.94 512.285,6.791 512.763,6.46 
					513.275,6 513.484,6 513.644,5.89 513.724,5.89 513.804,5.98 513.974,6 514.134,5.91 514.294,5.98 514.673,6.01 515.044,5.87 
					515.404,5.68 515.554,5.7 515.705,5.65 515.794,5.92 515.964,6.07 516.173,6.16 516.384,6.2 516.753,6.2 517.054,6.1 
					517.353,6.01 517.654,6.01 517.894,6.07 518.333,6.061 518.464,6.88 518.583,7.09 518.554,7.291 518.664,7.42 518.644,7.541 
					518.644,7.75 518.634,7.75 518.544,7.83 518.513,7.85 518.384,7.95 518.375,7.96 518.134,7.95 518.025,8 518.164,8.14 
					517.804,8.271 517.673,8.39 517.554,8.37 517.464,8.37 517.394,8.45 517.234,8.53 517.234,8.64 517.064,8.541 516.923,8.541 
					516.603,8.66 516.384,8.65 516.275,8.64 516.294,8.72 516.314,8.93 516.275,9.1 516.224,9.12 516.054,8.98 516.035,8.98 
					515.884,9.13 515.964,9.25 515.974,9.25 516.035,9.25 516.154,9.34 516.263,9.6 516.384,9.521 516.503,9.541 516.503,9.62 
					516.365,10.08 516.384,10.24 516.455,10.36 516.843,10.48 516.875,10.58 517.044,10.66 516.964,11 516.994,11.17 
					517.083,11.271 517.414,11.38 517.724,11.42 518.013,11.41 518.183,11.47 518.423,11.5 518.525,11.45 518.734,11.23 519.003,11 
					519.263,10.96 519.513,10.74 519.833,10.24 519.974,9.91 520.025,9.64 519.994,9.4 519.884,9.12 519.753,9.041 519.173,9.021 
					518.843,8.98 518.375,8.811 518.214,8.85 518.003,8.96 517.814,9.01 517.554,9.01 517.484,9 517.384,8.95 517.394,8.86 
					517.673,8.771 517.763,8.541 517.804,8.5 518.164,8.41 518.343,8.271 518.494,8.05 518.593,7.93 518.705,7.83 518.763,7.78 
					518.964,7.83 519.013,7.91 519.263,8.061 519.513,8.16 520.205,8.311 520.304,8.32 520.865,8.37 521.593,8.38 521.664,8.38 
					521.763,8.37 522.083,8.32 522.474,8.05 522.964,7.93 523.083,7.83 523.205,7.85 523.304,8.1 523.625,8.41 523.814,8.62 
					524.423,8.62 525.093,8.85 525.833,9.311 526.263,9.46 526.414,9.6 526.554,9.64 526.705,9.771 526.673,9.95 526.744,10 
					526.763,10.021 527.074,10.12 527.464,10.16 527.945,10.18 528.333,10.14 528.394,10.21 528.365,10.311 528.224,10.37 
					527.964,10.37 527.853,10.43 527.615,10.63 527.544,10.771 526.744,11.2 526.654,11.18 526.644,11.1 526.714,11.041 526.894,11 
					526.984,10.9 527.003,10.67 526.955,10.62 526.833,10.541 525.333,10.63 525.125,10.78 524.974,11.12 524.794,11.26 
					524.853,11.271 525.103,11.59 525.294,11.68 525.785,11.71 525.955,11.47 526.054,11.5 526.115,11.6 526.025,11.8 
					526.224,11.87 526.294,11.98 526.304,11.98 				"/>
				<polyline fill="none" stroke="#666666" stroke-width="0.25" stroke-linejoin="round" stroke-miterlimit="3.8637" points="
					511.343,203.09 511.164,202.41 511.134,202.25 511.064,202.041 510.304,198.68 510.304,198.64 509.843,196.48 509.673,196.08 
					507.173,185 506.664,182.811 506.593,182.71 506.125,180.68 506.134,180.58 504.875,175.291 503.734,170.44 503.705,170.041 
					502.205,163.98 502.025,163.23 502.025,163.09 501.804,162.17 501.634,161.21 501.625,161.17 501.054,159.08 500.843,157.89 
					500.794,157.76 500.753,157.66 500.564,154.23 499.375,151.91 499.173,151.541 481.833,139.9 481.763,139.48 481.294,136.42 
					481.173,135.59 481.173,132.92 481.173,131.75 481.054,131.541 476.144,123.811 476.074,123.68 474.574,123.71 470.794,121.561 
					468.785,121.64 467.013,119.51 466.974,119.47 467.103,114.61 467.103,114.561 465.955,112.87 465.144,111.68 464.134,109.84 
					463.654,108.97 463.724,107.62 463.673,107.271 463.375,106.95 463.183,106.6 463.093,106.41 463.044,105.95 463.173,105.48 
					463.173,105.33 462.734,104.92 462.244,104.6 462.013,104.42 462.013,104.37 461.984,104.061 462.013,103.95 462.173,103.7 
					462.275,103.37 462.294,103 462.244,102.62 461.804,101.38 461.875,101.12 462.183,100.34 462.205,100.291 462.205,99.87 
					462.103,99.35 462.423,98.44 462.433,98.18 462.183,97.41 462.314,97.09 462.365,97 462.384,96.99 462.503,96.87 462.763,96.59 
					463.224,96.48 463.603,96.08 463.894,95.64 463.914,95.49 464.013,94.36 464.054,94.21 464.214,93.791 464.513,93.22 
					466.263,92.93 466.654,92.91 467.025,92.89 467.683,92.83 468.423,92.791 468.593,92.71 468.554,92.41 468.603,92.09 
					468.544,91.98 469.083,90.91 469.093,90.85 469.234,90.26 469.375,89.71 469.503,89.32 469.654,88.271 469.625,87.4 
					469.625,87.35 469.865,87.291 470.423,87.25 471.333,87.061 471.365,87.021 471.423,86.95 472.013,86.38 472.275,86.18 
					472.535,86.05 472.843,85.99 472.974,85.96 473.253,85.95 473.964,85.271 474.125,85.12 474.183,85.061 474.833,84.83 
					474.923,84.83 475.025,84.58 475.183,84.35 475.414,84.35 475.794,84.43 475.814,84.43 475.923,84.43 475.974,84.45 
					476.054,84.22 476.074,84.2 476.304,83.87 476.974,83.65 477.093,83.41 477.224,83.38 477.455,82.74 477.644,82.66 
					477.714,82.69 477.785,82.67 478.275,82.64 478.324,82.62 478.433,82.561 478.484,82.311 478.414,82.12 478.474,81.91 
					478.865,81.7 479.353,81.64 479.474,81.37 479.314,80.96 479.644,80.66 479.664,80.39 479.464,80.061 479.234,79.69 
					479.375,79.25 479.974,78.561 480.414,78.37 480.843,78.46 480.875,78.22 480.853,78.22 480.843,78.2 480.455,77.75 
					480.304,77.6 480.173,77.291 480.343,77.061 480.343,77.05 480.333,77.041 480.224,76.85 480.214,76.78 480.183,76.57 
					480.183,76.561 480.214,76.21 480.214,76.2 480.154,75.85 480.205,75.71 480.064,75.311 480.054,75.061 479.933,74.86 
					479.875,74.59 479.853,74.5 479.853,74.49 479.843,74.39 479.804,74.35 479.734,74.24 479.634,74.08 480.154,72.64 
					480.513,72.22 480.734,71.87 480.804,71.7 480.833,71.561 480.933,71.21 480.955,70.9 480.955,70.78 481.025,70.24 
					481.183,69.95 481.343,69.62 481.775,68.37 481.884,68.2 482.343,67.91 482.753,67.51 483.013,67 483.263,66.68 483.423,66.08 
					483.503,65.87 483.714,65.47 483.763,65.37 484.025,64.93 484.724,64.18 484.714,64.061 484.673,64.041 483.964,64.2 
					483.574,64.21 483.144,64.041 482.933,63.92 482.724,63.811 482.234,63.46 481.275,63 481.205,62.86 481.115,62.811 
					481.093,62.66 480.994,61.96 480.974,61.39 480.974,60.89 481.054,59.85 481.134,59.42 481.603,58.25 481.884,58.12 
					481.933,58.1 482.615,57.76 482.544,57.37 482.343,57.12 482.214,57.061 482.093,56.64 482.013,55.771 482.013,55.66 
					482.013,55.561 482.025,55.42 481.923,54.92 481.794,53.85 481.843,53.59 481.914,53.41 481.984,52.83 481.884,52.43 
					481.814,52.311 481.724,52.18 481.535,52.03 480.644,51.49 479.824,50.541 479.564,50.05 479.464,49.72 479.474,49.521 
					479.634,49.21 479.724,48.91 479.763,48.71 479.875,48.19 479.884,47.521 479.724,46.9 479.753,46.69 479.775,46.51 
					479.775,46.48 479.853,46.311 479.875,46.271 480.103,45.771 480.304,45.24 480.314,45.19 480.314,45.17 480.333,45.16 
					480.544,44.83 480.554,44.8 480.554,44.791 480.544,44.75 480.365,44.33 480.365,44.271 480.365,44.18 480.365,44.1 
					480.414,43.41 480.503,42.97 480.525,42.82 480.474,42.291 480.574,42.021 480.904,41.41 480.964,41.311 481.134,40.67 
					481.583,40.25 481.673,40.291 481.763,40.311 481.714,40.21 481.513,39.92 481.503,39.88 481.513,39.4 481.484,39.25 
					481.384,39.16 481.183,39.041 480.814,38.6 480.814,38.541 480.804,38.47 480.785,38.44 480.814,38.32 481.183,37.91 
					481.353,37.7 481.474,37.39 481.644,37.15 481.705,37.061 481.724,36.99 481.775,36.91 481.775,36.88 481.763,36.2 
					481.625,35.45 482.025,35.05 482.285,34.87 482.615,34.771 482.705,34.62 482.705,34.541 482.583,34.42 482.375,34.12 
					482.343,34.09 482.353,33.61 482.544,33.25 482.564,33.19 482.763,33.021 482.753,32.771 482.544,32.271 483.013,31.84 
					483.064,31.72 483.144,31.6 483.144,31.57 483.173,31.33 482.464,31.25 482.314,31.2 482.304,31.15 482.224,31.09 
					481.955,30.89 481.705,30.85 481.304,31.061 480.974,31.1 480.964,31.061 480.853,31.061 480.695,30.88 480.503,30.74 
					480.343,30.71 480.263,30.7 479.804,30.83 479.634,30.83 479.304,30.74 478.343,30.61 478.164,30.55 478.183,30.521 
					477.955,30.291 477.644,30.22 477.414,30.12 477.144,29.64 477.125,29.62 477.125,29.58 477.035,29.26 477.103,29.14 
					477.414,29.061 477.484,28.93 477.634,28.811 477.923,28.85 478.044,28.87 478.234,28.83 478.865,28.6 479.615,28.16 
					480.054,28.15 480.083,28.15 480.125,28.14 480.593,27.97 480.603,27.97 480.853,27.811 481.064,27.55 481.093,27.43 
					482.093,26.66 482.525,26.59 482.683,26.5 482.875,26.32 482.933,26.17 482.974,26.05 483.093,25.9 483.333,25.83 
					483.964,25.89 484.234,25.66 484.414,25.14 484.433,24.89 484.353,24.76 484.535,24.521 484.814,24.45 484.955,23.98 
					484.955,23.95 484.984,23.75 484.884,23.37 484.564,22.791 484.564,22.771 484.535,22.57 484.564,22.45 484.513,22.39 
					484.394,22.3 484.275,22.3 484.183,22.37 483.933,22.39 483.843,22.35 483.763,22.1 483.955,21.92 484.583,21.71 484.603,21.68 
					484.843,21.561 485.134,21.58 485.464,21.541 485.853,21.34 485.964,21.34 485.974,21.34 486.093,21.47 486.173,21.49 
					486.333,21.43 486.664,21.4 486.923,21.47 486.933,21.47 487.294,21.45 487.564,21.01 487.763,20.93 487.923,20.93 
					488.253,20.93 488.525,20.71 488.615,20.64 488.945,20.53 489.513,20.21 489.625,20.05 489.625,19.84 489.544,19.69 
					489.343,19.521 489.125,19.45 488.683,19.311 488.455,19.36 488.384,19.3 488.384,19.25 488.384,19.03 488.513,18.61 
					488.544,18.041 488.583,17.65 488.673,17.541 488.933,17.45 489.083,17.5 488.933,17.291 488.824,17.021 488.794,16.83 				"/>
				<polyline fill="none" stroke="#666666" stroke-width="0.25" stroke-linejoin="round" stroke-miterlimit="3.8637" points="
					508.294,209.16 508.253,209.09 507.964,208.74 507.603,208.3 507.544,208.24 507.474,207.58 507.304,207.021 507.314,206.66 
					507.144,206.08 507.173,205.95 507.103,205.541 507.013,205.16 506.984,205.01 507.093,204.83 507.125,204.811 507.263,204.68 
					507.314,204.62 507.525,204.541 507.544,204.541 507.904,204.521 508.464,204.43 508.644,204.35 508.923,204.061 
					509.285,203.84 509.683,203.71 509.804,203.6 509.974,203.541 510.083,203.561 510.214,203.5 510.244,203.49 510.544,203.37 
					510.544,203.35 510.625,203.26 510.683,203.24 511.343,203.09 				"/>
				<polyline fill="none" stroke="#666666" stroke-width="0.25" stroke-linejoin="round" stroke-miterlimit="3.8637" points="
					559.414,121.76 559.275,122.12 559.304,122.35 559.304,122.37 559.263,122.53 559.054,123.26 558.734,123.82 558.593,124.061 
					558.525,124.33 558.513,124.39 558.455,124.95 558.433,125.061 558.394,126.07 558.333,126.28 558.503,126.4 558.544,126.74 
					558.224,127.09 558.093,127.6 557.914,128.33 557.894,128.38 557.554,129.43 557.734,129.85 558.003,130.811 557.843,131.291 
					557.763,131.68 557.724,131.86 557.554,132.91 557.554,132.95 557.634,133.271 557.634,133.291 557.763,133.87 557.794,134.26 
					557.683,135.13 557.554,135.68 557.583,136 557.593,136.041 557.683,136.36 558.013,137.18 558.304,137.47 558.574,137.58 
					558.833,137.811 559.044,138.07 559.093,138.16 559.384,138.541 559.683,138.771 559.984,139.23 560.195,139.69 
					559.503,141.041 559.275,141.48 558.554,142.89 558.484,143.041 558.423,143.08 557.433,143.791 557.025,144.08 556.933,144.2 
					556.603,144.34 556.013,144.4 555.224,144.94 554.593,145.271 554.333,145.37 553.843,145.46 553.353,145.66 550.923,146.45 
					550.673,146.541 550.263,146.71 549.455,147.061 549.093,147.33 548.195,147.62 547.894,147.87 547.705,147.87 547.554,147.88 
					547.115,148.14 546.955,148.33 546.574,148.62 546.144,148.78 545.644,148.89 545.314,149.041 544.603,149.51 544.535,149.58 
					544.054,149.89 543.683,150.25 543.154,150.58 543.013,150.67 542.314,151.16 542.234,151.51 542.214,151.7 542.134,151.93 
					541.814,152.5 540.785,154.23 540.144,154.34 539.724,154.521 539.513,154.69 539.234,154.791 538.933,154.84 538.644,154.74 
					538.484,154.69 538.253,154.67 538.025,154.64 537.785,154.57 537.574,154.64 537.394,154.87 537.103,154.99 537.035,155.11 
					537.064,155.74 536.984,155.92 536.763,156.12 536.683,156.291 536.705,156.48 536.804,156.64 537.144,157.18 537.154,157.45 
					536.984,157.791 536.945,157.98 536.464,158.44 535.984,158.83 535.884,158.87 535.654,159.12 535.484,159.39 535.445,159.46 
					535.343,159.91 535.164,160.521 534.923,160.84 534.814,160.89 534.683,161.05 534.394,161.24 534.384,161.24 534.294,161.271 
					533.474,161.561 533.195,161.64 532.673,161.771 532.253,161.8 532.115,161.75 531.103,161.44 530.894,161.44 530.634,161.5 
					530.404,161.6 530.375,161.62 529.843,161.95 529.384,162.25 529.164,162.4 528.634,162.83 528.574,162.99 528.474,163.1 
					528.433,163.18 528.333,163.46 527.734,164.35 527.724,164.45 527.664,164.561 527.404,165.01 527.003,165.561 526.955,165.7 
					526.804,165.91 526.683,166.09 526.474,166.291 526.445,166.45 526.164,166.811 526.054,166.83 525.724,167.291 525.683,167.41 
					525.664,167.45 525.314,167.92 525.275,167.93 525.214,167.98 525.144,168.08 524.984,168.291 524.933,168.46 524.914,168.5 
					524.914,168.88 524.914,169.15 525.083,169.51 525.083,169.521 525.144,169.83 525.093,170.26 525.144,170.6 525.154,170.7 
					525.304,171.2 525.394,171.28 525.724,172.1 526.294,173.541 526.353,173.71 526.394,173.86 526.625,174.5 526.705,174.61 
					526.833,175.14 526.914,175.23 527.074,175.67 527.195,176 527.455,176.49 527.544,176.83 527.615,177.13 527.933,178.3 
					528.144,178.64 528.474,179.32 528.544,179.71 528.384,180.26 528.333,180.41 528.244,180.73 528.244,181.25 528.343,181.811 
					528.414,181.89 528.513,182.33 528.544,182.96 528.574,183.07 528.634,183.311 528.753,183.85 528.763,183.97 529.025,184.521 
					528.994,184.67 528.724,184.95 528.724,185 528.695,185.14 528.695,185.16 528.753,185.37 528.525,186.01 528.455,186.4 
					528.304,186.87 528.205,187.08 528.003,187.43 527.554,188.32 527.384,188.68 527.253,188.96 527.054,189.45 526.744,189.97 
					526.535,190.14 526.394,190.24 526.294,190.271 525.974,190.51 525.814,190.7 525.275,191.71 524.375,192.83 524.353,192.85 
					524.195,193.18 524.013,193.5 523.554,194.05 523.445,194.21 522.933,194.66 522.214,195.561 522.083,195.73 521.763,196.57 
					521.593,196.84 521.044,197.73 520.933,197.83 520.884,197.89 520.683,198.01 520.464,198.541 520.324,198.85 519.603,199.36 
					518.914,200.08 518.753,200.12 518.464,200.11 517.625,200.2 517.503,200.21 517.384,200.21 517.134,200.311 516.724,200.49 
					516.593,200.6 516.154,200.8 515.423,201 514.724,201.46 514.513,201.66 514.503,201.66 513.763,201.94 513.125,202.3 
					512.333,202.83 511.724,203.05 511.343,203.09 				"/>
				<polyline fill="none" stroke="#666666" stroke-width="0.25" stroke-linejoin="round" stroke-miterlimit="3.8637" points="
					526.304,11.98 526.324,11.98 526.484,11.96 526.564,11.95 526.644,11.89 526.714,11.791 				"/>
				<polyline fill="none" stroke="#666666" stroke-width="0.25" stroke-linejoin="round" stroke-miterlimit="3.8637" points="
					510.804,20.11 510.853,20.021 511.183,19.84 511.275,19.771 511.503,19.57 511.583,19.46 511.775,19.271 511.914,19.18 
					512.224,19.15 512.433,19.18 512.753,19.14 512.964,19.03 513.054,18.89 513.263,18.7 513.625,18.5 514.054,18.41 
					515.003,18.28 515.314,18.17 515.433,18.08 515.544,17.98 515.933,17.271 516.093,17.05 516.414,16.791 516.734,16.62 
					517.164,16.521 517.294,16.541 517.484,16.51 518.093,16.541 518.433,16.6 518.763,16.69 519.644,17.12 520.115,17.271 
					520.593,17.38 520.894,17.39 521.003,17.38 521.164,17.26 521.263,17.17 521.384,16.99 521.583,16.521 521.615,16.42 
					521.794,16.12 522.003,15.73 522.183,15.521 522.263,15.35 522.384,15.2 522.833,14.38 523.054,13.87 523.083,13.78 
					523.375,13.03 523.603,12.99 523.673,12.67 523.763,12.55 523.865,12.46 523.984,12.39 524.263,12.28 524.804,12.22 
					525.603,12.25 526.134,12.17 526.183,11.98 526.294,11.98 				"/>
				<polyline fill="none" stroke="#666666" stroke-width="0.25" stroke-linejoin="round" stroke-miterlimit="3.8637" points="
					499.384,10.78 499.433,11.24 499.414,11.44 499.474,11.95 499.394,12.28 499.275,12.561 499.224,12.99 499.263,13.46 
					499.343,13.771 499.414,13.89 499.644,13.99 499.865,14 500.285,14.021 501.144,13.96 501.343,13.97 501.574,14.021 
					501.763,14.14 501.884,14.24 502.025,14.44 502.224,14.87 502.583,16.021 502.744,16.36 503.013,16.7 503.144,17 503.234,17.49 
					503.353,17.68 504.173,18.4 504.384,18.61 504.833,18.85 505.205,18.92 505.705,19.09 505.914,19.2 506.025,19.271 
					506.144,19.311 506.353,19.51 506.375,19.84 506.353,20.061 506.285,20.39 506.134,20.771 506.103,20.91 506.025,21.01 
					506.013,21.12 505.894,21.35 505.814,21.66 505.804,21.771 505.833,22 505.894,22.14 506.003,22.35 506.214,22.561 
					506.544,22.811 506.875,22.97 507.183,23.021 507.414,22.99 507.525,22.93 507.964,22.57 508.025,22.48 508.843,21.62 
					508.974,21.541 509.144,21.34 509.384,21.16 509.564,20.93 509.964,20.58 510.205,20.39 510.294,20.311 510.544,20.17 
					510.804,20.11 				"/>
				<polyline fill="none" stroke="#666666" stroke-width="0.25" stroke-linejoin="round" stroke-miterlimit="3.8637" points="
					529.763,18.4 529.134,18.58 528.904,18.67 527.914,18.87 527.804,18.87 527.583,18.94 527.464,18.95 527.183,19.03 
					526.933,19.15 526.814,19.16 526.433,19.36 526.294,19.39 525.994,19.561 525.634,19.78 525.035,20.021 524.794,20.14 
					524.044,20.68 523.933,20.71 523.804,20.8 523.673,20.85 523.433,20.98 523.294,21 522.833,21.14 522.714,21.14 522.513,21.24 
					522.423,21.22 521.933,21.35 521.794,21.4 521.683,21.47 521.593,21.58 521.513,21.68 521.494,21.811 521.593,21.94 521.673,22 
					522.003,22.18 522.035,22.39 522.013,22.48 522.103,22.69 522.333,22.87 522.644,23.041 522.875,23.24 522.955,23.33 
					522.994,23.44 523.013,23.561 523.013,23.68 522.923,23.98 				"/>
				<polyline fill="none" stroke="#666666" stroke-width="0.25" stroke-linejoin="round" stroke-miterlimit="3.8637" points="
					528.484,21.01 528.294,20.72 528.103,20.66 527.984,20.72 527.894,20.86 527.875,21 527.875,21.17 527.775,21.28 527.763,21.47 
					527.464,22.33 527.433,22.45 527.375,22.541 527.134,22.62 526.894,22.89 526.794,23.08 526.705,23.17 526.583,23.24 
					526.445,23.26 526.304,23.24 526.183,23.24 525.875,23.32 525.664,23.311 525.554,23.291 525.314,23.2 525.125,23.17 
					525.013,23.23 524.945,23.32 524.843,23.541 524.634,23.86 524.525,23.95 524.314,24.021 524.195,24.021 523.763,24.1 
					523.433,24.1 523.183,24.061 522.923,23.98 				"/>
				<polyline fill="none" stroke="#666666" stroke-width="0.25" stroke-linejoin="round" stroke-miterlimit="3.8637" points="
					522.923,23.98 522.734,24.271 522.423,24.58 521.593,25.25 521.513,25.33 521.285,25.42 520.914,25.48 				"/>
				<polyline fill="none" stroke="#666666" stroke-width="0.25" stroke-linejoin="round" stroke-miterlimit="3.8637" points="
					518.125,27.291 518.644,27.24 518.753,27.22 518.974,27.08 519.054,26.96 519.314,26.32 519.603,25.771 519.724,25.48 
					519.843,25.291 519.933,25.2 520.054,25.12 520.353,25.03 520.554,25.041 520.654,25.09 520.763,25.2 520.914,25.48 				"/>
				<polyline fill="none" stroke="#666666" stroke-width="0.25" stroke-linejoin="round" stroke-miterlimit="3.8637" points="
					510.804,20.11 511.275,20.541 511.474,20.771 511.894,21.16 512.234,21.521 512.705,21.92 512.824,21.99 513.384,22.42 
					513.734,22.6 515.003,22.99 515.214,23 515.423,22.96 515.634,22.96 515.734,22.99 515.824,23.08 515.914,23.291 515.914,23.38 
					516.064,23.83 516.263,24.2 516.333,24.311 516.455,24.541 516.904,25.46 517.744,26.59 518.044,27.07 518.125,27.291 				"/>
				<polyline fill="none" stroke="#666666" stroke-width="0.25" stroke-linejoin="round" stroke-miterlimit="3.8637" points="
					531.593,23.11 531.484,23.37 531.455,23.75 531.414,24 531.205,24.55 531.013,24.91 530.513,25.791 530.433,25.9 
					530.195,26.271 529.974,26.72 530.013,26.83 530.634,27.311 530.544,27.55 530.333,27.94 530.253,28.16 530.253,28.291 
					529.984,29.16 529.833,30.061 				"/>
				<polyline fill="none" stroke="#666666" stroke-width="0.25" stroke-linejoin="round" stroke-miterlimit="3.8637" points="
					494.894,14.811 495.314,15.07 495.664,15.39 495.734,15.47 496.064,15.74 496.173,15.95 496.183,16.041 496.173,16.14 
					496.054,16.22 495.554,16.37 495.343,16.42 495.244,16.48 495.183,16.57 495.224,16.78 495.714,17.311 495.933,17.5 
					496.275,17.87 496.603,18.33 496.705,18.4 496.833,18.62 496.933,18.83 496.933,18.94 496.914,19.041 496.833,19.16 
					496.513,19.45 496.375,19.51 495.724,20.041 495.593,20.32 495.574,20.53 495.603,20.74 495.513,20.96 495.433,21.061 
					495.275,21.39 495.455,21.58 495.714,21.76 496.054,21.83 496.263,21.85 496.503,21.89 496.814,21.91 497.125,21.97 
					497.224,21.97 497.933,22.41 498.013,22.51 497.933,23.47 497.824,24.1 497.824,24.39 497.875,24.791 497.945,24.89 
					498.263,25.24 498.314,25.33 498.785,26.21 498.955,26.6 499.064,26.95 499.304,27.87 499.304,27.99 499.144,28.18 
					499.044,28.271 498.734,28.58 498.593,28.78 498.503,28.97 498.455,29.521 498.455,29.95 498.414,30.24 498.314,30.35 
					497.804,30.6 497.724,30.66 				"/>
				<polyline fill="none" stroke="#666666" stroke-width="0.25" stroke-linejoin="round" stroke-miterlimit="3.8637" points="
					518.125,27.291 518.025,27.37 517.923,27.43 517.814,27.541 517.164,27.94 516.753,28.25 516.455,28.541 516.224,28.85 
					516.144,29.061 516.103,29.17 516.035,29.35 515.964,29.45 515.853,29.58 515.734,29.68 515.474,29.96 515.333,30.25 
					515.164,30.74 515.093,30.83 				"/>
				<polyline fill="none" stroke="#666666" stroke-width="0.25" stroke-linejoin="round" stroke-miterlimit="3.8637" points="
					520.914,25.48 521.093,25.87 521.144,26 521.404,26.41 521.593,26.6 521.853,26.791 522.083,26.83 522.294,26.791 
					522.513,26.66 522.753,26.62 522.904,26.65 523.474,26.87 523.984,27.14 524.705,27.43 524.933,27.85 525.013,27.95 
					525.054,28.061 525.294,28.42 525.474,28.64 525.814,28.9 526.724,29.45 527.314,29.74 527.375,29.86 527.314,30.12 
					527.263,30.19 527.234,30.49 527.253,30.61 527.544,30.85 527.615,30.95 527.843,30.82 527.933,30.73 528.144,30.6 
					528.833,30.24 529.173,30.13 529.384,30.1 529.724,30.1 529.833,30.061 				"/>
				<polyline fill="none" stroke="#666666" stroke-width="0.25" stroke-linejoin="round" stroke-miterlimit="3.8637" points="
					495.433,30.97 495.554,30.94 495.763,30.85 496.115,30.68 496.603,30.521 496.833,30.541 496.974,30.5 497.183,30.521 
					497.314,30.541 497.724,30.66 				"/>
				<polyline fill="none" stroke="#666666" stroke-width="0.25" stroke-linejoin="round" stroke-miterlimit="3.8637" points="
					529.833,30.061 529.794,30.58 529.744,30.92 529.705,31.7 529.724,32.17 529.763,32.38 529.794,32.49 529.984,32.811 
					530.195,32.96 530.423,33 				"/>
				<polyline fill="none" stroke="#666666" stroke-width="0.25" stroke-linejoin="round" stroke-miterlimit="3.8637" points="
					530.423,33 530.734,32.93 530.933,32.86 532.164,32.66 532.375,32.83 532.673,33.14 532.794,33.19 532.884,33.19 533.003,33.12 
					533.333,32.75 533.433,32.7 533.753,32.68 533.964,32.72 534.125,32.89 534.394,33.39 				"/>
				<polyline fill="none" stroke="#666666" stroke-width="0.25" stroke-linejoin="round" stroke-miterlimit="3.8637" points="
					482.544,33.25 482.853,33.291 483.064,33.37 483.275,33.4 483.513,33.39 483.634,33.4 484.025,33.37 484.263,33.291 
					484.744,33.1 485.455,32.71 486.035,32.42 486.294,32.271 486.644,32.1 486.884,32 487.234,31.91 487.464,31.89 487.705,31.91 
					489.263,31.87 489.603,31.9 490.093,31.87 491.003,31.87 491.775,31.84 492.423,31.791 492.933,31.7 493.044,31.7 
					494.044,31.43 494.974,31.15 495.433,30.97 				"/>
				<polyline fill="none" stroke="#666666" stroke-width="0.25" stroke-linejoin="round" stroke-miterlimit="3.8637" points="
					497.724,30.66 497.914,30.74 498.333,31.1 499.513,32.291 499.833,32.59 500.044,32.75 500.263,32.791 500.525,32.74 
					500.884,32.6 501.275,32.42 501.384,32.41 501.714,32.311 502.144,32.18 502.353,32.14 502.714,32.17 503.125,32.39 
					503.753,32.85 504.064,33.01 504.394,33.24 504.724,33.39 504.955,33.43 505.054,33.35 505.134,33.25 505.714,32.2 
					506.093,31.62 506.455,31.15 506.664,31 507.144,30.811 507.603,30.73 508.224,30.68 508.343,30.68 508.673,30.66 
					509.013,30.67 509.433,30.76 509.853,30.95 509.964,31.041 510.054,31.08 510.294,31.291 510.554,31.62 510.814,31.83 
					511.013,31.9 511.445,31.85 511.673,31.78 512.285,31.42 512.705,31.24 513.093,31.09 513.634,30.92 514.414,30.811 
					514.775,30.791 515.093,30.83 				"/>
				<polyline fill="none" stroke="#666666" stroke-width="0.25" stroke-linejoin="round" stroke-miterlimit="3.8637" points="
					530.423,33 530.455,33.041 530.455,33.22 530.474,33.62 530.464,34.87 530.423,34.97 530.353,35.061 529.814,35.37 
					529.775,35.45 529.804,35.561 529.894,35.64 530.164,35.85 530.253,35.87 530.353,35.98 530.384,36.07 530.384,36.16 
					530.375,36.25 530.314,36.35 530.214,36.46 529.974,36.541 529.384,36.66 529.044,36.68 528.933,36.73 528.484,36.82 
					528.365,36.82 528.054,36.89 527.974,36.99 527.945,37.09 528.054,37.41 528.125,37.561 528.154,37.96 528.125,38.12 
					528.064,38.32 527.914,38.62 527.664,38.92 527.333,39.14 526.843,39.33 526.724,39.4 526.583,39.43 				"/>
				<polyline fill="none" stroke="#666666" stroke-width="0.25" stroke-linejoin="round" stroke-miterlimit="3.8637" points="
					515.093,30.83 515.214,31.041 515.304,31.14 515.494,31.46 515.544,31.67 515.564,32.061 515.474,32.45 515.263,33.021 
					515.044,33.4 514.914,33.6 514.535,34.021 514.304,34.24 514.234,34.35 513.683,34.811 513.314,35.05 512.753,35.38 
					512.333,35.59 512.093,35.7 511.984,35.71 511.744,35.811 511.554,35.87 511.324,35.96 511.234,36.061 511.173,36.14 
					511.205,36.25 511.375,36.47 511.593,36.68 511.673,36.771 512.013,37.03 512.253,37.271 512.644,37.541 512.884,37.63 
					513.343,37.771 513.843,37.83 514.775,38.14 515.054,38.26 515.474,38.541 515.634,38.771 515.763,39.16 515.775,39.83 
					515.753,40.03 515.634,40.41 515.554,40.58 515.404,40.811 515.025,41.271 				"/>
				<polyline fill="none" stroke="#666666" stroke-width="0.25" stroke-linejoin="round" stroke-miterlimit="3.8637" points="
					526.583,39.43 526.183,39.541 525.964,39.561 525.173,39.771 524.884,39.92 524.794,40.03 524.615,40.36 524.554,40.561 
					524.464,40.771 524.314,40.97 524.234,41.061 523.894,41.21 523.794,41.18 523.683,41.08 523.433,40.67 523.343,40.78 
					523.294,40.9 523.234,41.16 523.144,41.72 523.115,42.021 522.955,42.74 522.853,42.88 522.724,42.94 522.603,42.94 
					522.343,42.83 522.125,42.62 522.003,42.5 521.683,42.19 521.593,42.12 521.423,42.01 521.183,41.91 520.865,41.83 
					520.724,41.83 520.234,41.771 519.904,41.6 519.343,41.271 519.054,41.11 518.945,41.08 518.384,41.05 518.253,41.061 
					517.474,41.24 516.875,41.44 516.365,41.53 516.003,41.53 515.644,41.49 515.195,41.35 515.093,41.271 515.025,41.271 				"/>
				<polyline fill="none" stroke="#666666" stroke-width="0.25" stroke-linejoin="round" stroke-miterlimit="3.8637" points="
					495.433,30.97 495.843,31.41 496.324,32.05 496.433,32.14 496.683,32.561 496.843,33.021 496.894,33.25 496.914,33.46 
					496.884,33.68 496.843,33.771 496.724,33.99 496.484,34.291 496.384,34.521 496.384,34.64 496.433,34.84 496.564,35.17 
					496.814,35.561 496.884,35.65 497.304,36.08 497.375,36.2 497.763,36.62 498.003,37.041 498.083,37.37 498.103,37.6 
					498.125,37.9 498.083,38.42 498.003,38.87 498.003,39.08 498.035,39.19 498.093,39.311 498.275,39.5 498.603,39.71 
					498.724,39.74 499.164,39.99 499.375,40.08 499.503,40.1 500.314,40.521 500.664,40.75 500.734,40.84 500.804,40.96 
					500.974,41.291 501.064,41.62 501.064,41.87 501.064,42.25 501.035,42.49 500.914,43.14 500.753,43.72 500.634,44.041 
					500.544,44.17 500.494,44.26 499.894,44.83 499.554,45.34 499.445,45.55 499.384,45.95 499.294,46.3 499.093,46.66 498.644,47 
					498.433,47.14 498.214,47.32 498.103,47.42 498.013,47.62 497.984,47.74 497.964,47.98 497.964,48.311 497.974,48.83 
					497.964,49.18 497.875,50.1 497.763,50.521 497.734,50.65 497.673,50.74 497.615,51.061 497.494,51.37 				"/>
				<polyline fill="none" stroke="#666666" stroke-width="0.25" stroke-linejoin="round" stroke-miterlimit="3.8637" points="
					481.843,53.59 482.253,53.59 482.455,53.541 482.775,53.32 483.244,52.811 483.554,52.51 483.785,52.35 484.205,52.21 
					484.535,52.2 484.763,52.22 484.865,52.25 485.003,52.35 485.375,52.51 485.804,52.75 485.914,52.78 486.205,52.93 
					486.474,53.021 486.933,53.1 487.173,53.1 487.564,53.05 487.714,52.99 487.914,52.83 488.044,52.62 488.164,52.061 
					488.263,50.92 488.314,50.7 488.404,50.42 488.494,50.18 488.734,49.811 489.064,49.41 489.294,49.24 489.513,49.14 
					489.734,49.1 490.173,49.12 490.414,49.16 491.224,49.41 491.333,49.45 492.013,49.6 492.734,49.84 492.884,49.91 
					493.484,50.16 495.154,50.89 496.173,51.271 496.414,51.33 496.683,51.37 497.375,51.33 497.494,51.37 				"/>
				<polyline fill="none" stroke="#666666" stroke-width="0.25" stroke-linejoin="round" stroke-miterlimit="3.8637" points="
					526.583,39.43 526.044,40.24 525.574,41.041 525.683,41.14 525.785,41.21 526.535,41.6 527.025,41.811 527.224,41.92 
					527.333,42.01 527.513,42.25 527.664,42.541 527.724,42.71 527.724,42.94 527.683,43.14 527.644,43.521 527.513,44.24 
					527.464,44.35 527.353,44.8 527.195,45.35 527.013,45.771 526.763,46.16 526.583,46.35 526.445,46.561 526.343,46.64 
					526.253,46.78 525.933,47.11 525.554,47.53 525.414,47.811 525.503,48.13 525.833,48.791 526.353,49.91 526.894,50.96 
					527.494,52.021 527.974,52.9 528.333,53.44 528.664,53.86 528.804,54.1 528.833,54.39 528.884,54.68 528.974,54.91 				"/>
				<polyline fill="none" stroke="#666666" stroke-width="0.25" stroke-linejoin="round" stroke-miterlimit="3.8637" points="
					538.304,48.89 538.183,49.12 538.013,49.33 537.814,49.521 537.474,49.791 537.263,50 537.125,50.2 537.064,50.42 
					537.013,50.66 537.035,51.291 537.173,52.37 537.173,52.72 537.103,53.12 536.945,53.45 536.875,53.58 536.644,53.75 
					536.164,54.041 535.394,54.311 534.544,54.47 534.343,54.55 534.244,54.62 534.173,54.73 534.154,54.82 534.183,54.94 
					534.343,55.12 534.544,55.311 534.593,55.42 534.603,55.51 534.554,55.62 534.365,55.811 533.945,56.05 533.234,56.291 				"/>
				<polyline fill="none" stroke="#666666" stroke-width="0.25" stroke-linejoin="round" stroke-miterlimit="3.8637" points="
					533.234,56.291 532.814,56.26 532.445,56.26 532.445,56.271 532.054,56.271 531.503,56.17 530.974,56.041 530.044,55.66 
					529.294,55.15 529.025,54.94 528.974,54.91 				"/>
				<polyline fill="none" stroke="#666666" stroke-width="0.25" stroke-linejoin="round" stroke-miterlimit="3.8637" points="
					515.025,41.271 514.884,41.45 514.294,41.89 513.763,42.25 513.333,42.561 513.183,42.64 512.494,43.14 511.474,43.89 
					511.183,44.05 510.683,44.47 510.035,45.061 509.593,45.37 509.474,45.47 509.314,45.7 509.234,45.94 509.253,46.16 
					509.455,46.811 509.494,47.291 509.404,47.71 509.285,48.021 509.144,48.271 509.074,48.49 509.025,48.73 509.093,49.021 
					509.134,49.14 509.285,49.37 509.384,49.51 509.824,49.9 509.894,50 509.933,50.11 509.914,50.18 509.884,50.271 509.804,50.37 
					509.093,50.5 508.843,50.58 508.513,50.72 508.324,50.85 507.634,51.28 507.513,51.34 507.244,51.43 506.875,51.45 
					506.423,51.4 506.144,51.311 505.343,51.01 504.503,50.8 504.275,50.791 504.173,50.85 504.064,50.93 504.013,51.021 
					504.003,51.14 504.003,51.25 504.125,51.561 504.294,51.791 505.304,52.99 505.794,53.53 506.984,54.771 507.474,55.39 
					507.833,56.05 507.875,56.16 508.205,56.8 508.324,56.98 508.394,57.19 508.414,57.35 				"/>
				<polyline fill="none" stroke="#666666" stroke-width="0.25" stroke-linejoin="round" stroke-miterlimit="3.8637" points="
					508.414,57.35 508.173,57.271 507.933,57.22 507.554,57.16 506.853,57.16 506.474,57.22 505.343,57.561 				"/>
				<polyline fill="none" stroke="#666666" stroke-width="0.25" stroke-linejoin="round" stroke-miterlimit="3.8637" points="
					497.494,51.37 497.824,51.62 498.003,51.88 498.333,52.57 498.625,53.041 498.724,53.14 498.875,53.37 499.253,53.74 
					499.445,53.87 499.644,53.91 499.884,53.87 500.195,53.72 500.314,53.7 500.513,53.7 500.984,53.85 501.343,54 501.574,54.13 
					501.804,54.291 501.884,54.49 502.173,55.24 502.353,55.43 502.464,55.48 503.054,55.57 503.404,55.66 503.945,55.9 
					504.554,56.291 504.853,56.58 505.093,56.87 505.253,57.17 505.324,57.37 505.343,57.561 				"/>
				<path fill="none" stroke="#666666" stroke-width="0.25" stroke-linejoin="round" stroke-miterlimit="3.8637" d="M532.445,56.32
					c0,0,0.148,0.93,1.02,1.57c0.852,0.63,1.83-0.29,1.83-0.29l0.811-0.6l0.02,0.01l0.691,0.19l0.34,0.08l0.75,0.3l0.619,0.18
					l0.988,0.18l0.941,0.2l1.219,0.07l0.24-0.06l0.229-0.57l0.201-0.3l0.15-0.18l0.398-0.4l0.359-0.28l0.541-0.32l0.51-0.23
					l1.01-0.31l1.271-0.47"/>
				<polyline fill="none" stroke="#666666" stroke-width="0.25" stroke-linejoin="round" stroke-miterlimit="3.8637" points="
					528.974,54.91 528.603,54.97 527.775,55.24 527.554,55.37 527.375,55.57 527.224,55.791 527.183,56 527.195,56.11 
					527.544,56.93 527.634,57.28 527.593,57.5 527.433,57.71 527.214,57.85 527.003,58.041 526.804,58.37 526.384,59.35 
					525.904,60.311 525.814,60.541 525.763,60.73 525.785,60.92 525.814,61.03 525.904,61.24 526.183,61.811 526.263,62.23 
					526.294,62.47 526.304,62.95 526.224,63.521 526.234,63.92 526.304,64.1 526.414,64.311 526.794,64.78 527.003,65.1 
					527.093,65.311 527.183,65.59 527.214,65.83 527.214,66.14 527.103,66.73 527.125,66.83 				"/>
				<polyline fill="none" stroke="#666666" stroke-width="0.25" stroke-linejoin="round" stroke-miterlimit="3.8637" points="
					546.513,68.53 545.794,68.18 545.664,68.16 545.074,68.11 544.865,68.16 544.763,68.12 544.654,68.021 544.503,67.72 
					544.205,67.291 543.933,66.83 543.503,66.2 543.304,66.021 543.205,66.061 543.103,66.13 543.003,66.24 542.804,66.541 
					542.634,66.73 542.513,66.811 542.333,66.87 542.214,66.88 542.125,66.87 541.914,66.771 541.794,66.66 541.583,66.311 
					541.263,65.47 541.205,65.26 541.173,65.17 541.093,64.791 541.013,64.18 540.875,63.85 540.433,63.25 540.343,63.19 
					540.183,63.37 540.064,63.68 540.003,63.791 539.843,64.14 539.673,64.36 539.474,64.57 539.353,64.66 538.984,64.85 
					538.865,64.87 538.625,64.87 538.275,64.78 537.683,64.541 537.183,64.271 536.974,64.2 536.875,64.16 536.664,64.16 
					536.433,64.2 536.333,64.39 536.304,64.57 536.195,64.771 536.054,64.87 535.593,65.08 535.535,65.18 535.474,65.271 
					535.464,65.39 535.484,65.7 535.484,65.74 535.414,65.87 535.234,66.08 534.904,66.37 534.455,66.68 534.103,66.85 
					533.775,66.97 532.955,67.37 532.275,67.67 531.644,67.97 531.414,68.041 531.294,68.041 530.894,67.89 530.214,67.41 
					529.984,67.291 529.445,67.18 528.843,67.16 528.394,67.12 527.125,66.83 				"/>
				<polyline fill="none" stroke="#666666" stroke-width="0.25" stroke-linejoin="round" stroke-miterlimit="3.8637" points="
					527.125,66.83 526.923,66.791 526.705,66.791 526.445,66.88 525.634,67.36 525.544,67.45 525.064,67.811 524.843,68.021 
					524.314,68.58 524.125,68.74 523.744,69.22 523.484,69.49 523.044,70.14 522.843,70.521 				"/>
				<polyline fill="none" stroke="#666666" stroke-width="0.25" stroke-linejoin="round" stroke-miterlimit="3.8637" points="
					522.843,70.521 522.724,70.37 522.423,70.1 522.294,69.811 522.093,69.061 521.644,67.67 521.525,67.061 521.375,66.561 
					521.253,66.5 521.125,66.541 520.234,66.83 519.833,67 519.683,66.97 519.455,66.92 518.945,66.71 518.544,66.58 517.974,66.41 
					517.263,66.271 515.964,66.061 515.224,65.87 514.984,65.791 514.775,65.68 514.535,65.47 514.294,65.24 514.164,65.05 
					513.974,64.64 513.904,64.541 513.103,63.85 512.583,63.271 512.333,62.93 512.013,63.041 511.775,63.061 511.183,63.01 
					511.093,63 510.884,62.86 510.484,62.45 509.673,61.78 509.013,61.18 508.884,60.89 508.865,60.74 508.884,60.62 509.003,60 
					509.134,59.561 509.134,59.44 509.224,58.97 509.263,58.51 509.195,58.271 509.013,57.95 508.625,57.47 508.414,57.35 				"/>
				<polyline fill="none" stroke="#666666" stroke-width="0.25" stroke-linejoin="round" stroke-miterlimit="3.8637" points="
					492.753,77.83 495.955,75.97 496.843,75.5 497.824,75.14 498.275,74.95 498.625,74.771 498.814,74.62 498.904,74.521 
					498.923,74.41 498.884,74.32 498.785,74.21 498.423,74.08 498.224,73.89 498.103,73.67 498.064,73.561 498.093,73.35 
					498.224,73.09 498.753,72.68 499.115,72.33 499.375,71.91 499.554,71.41 499.763,71 499.974,70.811 500.054,70.78 
					500.183,70.78 500.664,70.91 500.794,70.95 500.894,70.91 501.833,70.45 503.724,69.91 503.894,69.68 504.013,69.37 
					504.054,69.28 504.054,69.061 504.003,68.95 503.794,68.521 503.683,68.23 503.644,67.93 503.615,67.46 503.634,67.08 
					503.683,66.68 503.775,66.37 503.843,65.98 503.875,65.66 503.804,65.42 503.664,65.2 503.304,65 502.564,64.771 501.884,64.62 
					501.474,64.48 501.384,64.43 501.173,64.3 501.064,64.2 501.003,63.97 501.003,63.771 501.154,63.24 501.333,62.71 
					501.593,62.12 502.324,61.74 502.503,61.521 502.654,61.2 502.744,60.811 502.814,60.6 502.984,60.291 503.164,60.08 
					503.404,59.89 503.634,59.75 503.875,59.65 504.384,59.37 504.814,58.99 504.974,58.811 505.083,58.69 505.183,58.45 
					505.224,58.33 505.294,58.021 505.343,57.561 				"/>
				<polyline fill="none" stroke="#666666" stroke-width="0.25" stroke-linejoin="round" stroke-miterlimit="3.8637" points="
					480.843,78.2 480.853,78.2 480.875,78.22 480.974,78.28 481.275,78.561 481.353,78.68 481.445,78.771 481.714,78.91 
					482.214,79.021 482.564,79.041 482.884,79.14 483.455,79.35 483.763,79.42 483.923,79.48 484.093,79.51 484.234,79.561 
					484.484,79.7 484.714,79.87 485.044,80.08 485.144,80.18 485.494,80.42 485.583,80.53 485.945,80.75 486.634,81.041 
					486.994,81.13 487.173,80.66 487.263,80.26 487.343,80.08 487.564,79.89 487.804,79.74 488.513,79.45 489.103,79.12 
					490.275,78.561 490.593,78.47 491.125,78.43 491.673,78.34 492.294,78.1 492.753,77.83 				"/>
				<polyline fill="none" stroke="#666666" stroke-width="0.25" stroke-linejoin="round" stroke-miterlimit="3.8637" points="
					492.753,77.83 493.164,77.95 493.775,78.2 494.013,78.291 495.304,78.83 495.933,79.041 496.433,79.271 496.865,79.311 
					497.734,79.271 498.734,79.291 499.275,79.36 499.955,79.5 500.564,79.541 500.853,79.58 501.275,79.69 501.574,79.811 
					502.474,80.271 502.884,80.521 503.093,80.6 503.195,80.62 503.404,80.6 503.615,80.53 504.244,80.2 504.333,80.18 
					504.423,80.2 504.503,80.291 504.544,80.39 504.544,80.521 504.513,80.62 504.035,81.71 503.914,82.03 503.853,82.35 
					503.875,82.64 503.914,82.83 503.984,83.041 504.154,83.35 504.544,83.83 504.875,84.17 505.294,84.59 505.535,84.791 
					505.865,84.95 506.724,85.18 507.263,85.36 507.484,85.48 507.695,85.63 507.923,85.87 508.343,86.53 508.503,86.74 
					508.933,87.07 509.285,87.28 510.365,87.68 510.753,87.88 510.875,87.95 510.933,88.061 511.025,88.291 511.054,88.57 
					511.054,89.08 511.013,90.41 510.923,91.67 				"/>
				<polyline fill="none" stroke="#666666" stroke-width="0.25" stroke-linejoin="round" stroke-miterlimit="3.8637" points="
					510.923,91.67 511.253,91.5 511.445,91.311 511.744,91 511.974,90.89 512.664,90.68 513.013,90.541 513.103,90.5 
					513.384,90.541 513.503,90.59 513.724,90.7 514.205,91.03 514.433,91.21 514.603,91.541 514.654,91.72 514.683,91.78 				"/>
				<polyline fill="none" stroke="#666666" stroke-width="0.25" stroke-linejoin="round" stroke-miterlimit="3.8637" points="
					522.843,70.521 522.714,70.69 522.433,71.23 522.154,71.96 521.734,72.87 521.353,73.83 521.134,74.23 520.414,75.39 
					519.634,76.561 519.423,76.85 519.343,77 518.894,77.64 518.804,77.8 518.554,78.13 518.433,78.37 518.164,78.95 
					517.724,79.771 517.503,80.26 517.353,80.771 517.324,81.08 517.343,81.28 517.474,81.85 517.554,82.03 517.603,82.12 
					518.333,82.22 519.603,82.3 520.224,82.41 520.843,82.561 521.564,82.87 521.794,83 522.474,83.32 523.083,83.65 523.093,83.75 
					523.064,83.84 522.964,84.55 522.884,84.83 522.763,85.15 522.554,85.43 522.214,85.64 521.984,85.76 521.285,86.05 
					521.074,86.23 520.603,86.75 520.263,86.8 519.923,86.771 519.593,86.8 519.503,86.811 519.214,86.96 518.794,87.311 
					516.394,88.39 515.974,88.67 515.564,88.9 515.054,89.23 514.974,89.33 514.814,89.51 514.775,89.62 514.744,89.8 
					514.794,89.92 515.214,90.24 515.404,90.43 515.583,90.73 515.683,90.91 515.804,91.25 515.894,91.58 515.933,91.78 
					515.914,91.87 515.875,91.98 515.753,92.05 515.644,92.08 515.544,92.09 515.343,92.08 515.144,92 514.683,91.78 				"/>
				<polyline fill="none" stroke="#666666" stroke-width="0.25" stroke-linejoin="round" stroke-miterlimit="3.8637" points="
					503.914,93 504.884,92.44 505.384,92.271 505.644,92.24 506.025,92.26 507.125,92.39 508.324,92.6 508.843,92.6 509.164,92.51 
					509.384,92.41 510.035,92.021 510.154,91.98 510.455,91.91 510.664,91.83 510.923,91.67 				"/>
				<polyline fill="none" stroke="#666666" stroke-width="0.25" stroke-linejoin="round" stroke-miterlimit="3.8637" points="
					514.683,91.78 514.744,91.96 514.884,92.16 514.984,92.26 515.183,92.41 515.464,92.561 515.894,92.7 516.214,92.73 
					516.554,92.71 517.013,92.64 517.304,92.51 517.513,92.47 517.724,92.45 517.933,92.53 518.054,92.62 518.285,92.86 
					518.664,93.43 518.933,93.73 519.214,93.99 519.664,94.23 520.164,94.33 520.433,94.37 520.714,94.37 520.804,94.34 
					520.914,94.25 520.933,94.15 520.923,93.39 521.003,93.291 521.103,93.311 521.314,93.41 521.753,93.76 522.304,94.36 				"/>
				<polyline fill="none" stroke="#666666" stroke-width="0.25" stroke-linejoin="round" stroke-miterlimit="3.8637" points="
					489.455,96.16 490.054,96.08 490.593,96.08 490.865,96.061 491.433,95.98 491.804,95.98 493.263,95.89 493.503,95.84 
					494.353,95.39 494.583,95.35 494.724,95.37 494.964,95.41 495.423,95.561 495.785,95.64 496.294,95.71 496.554,95.73 
					496.933,95.8 497.263,95.811 497.593,95.71 497.775,95.53 497.843,95.291 497.824,94.98 497.843,94.58 497.933,94.271 
					498.083,94.061 498.183,93.95 498.525,93.771 498.904,93.64 499.593,93.34 499.683,93.311 499.894,93.291 500.314,93.46 
					500.945,93.49 501.603,93.46 502.164,93.4 503.253,93.2 503.673,93.1 503.914,93 				"/>
				<polyline fill="none" stroke="#666666" stroke-width="0.25" stroke-linejoin="round" stroke-miterlimit="3.8637" points="
					476.054,84.22 476.074,84.25 476.103,84.45 476.044,84.791 475.974,85.09 475.775,85.62 475.673,85.85 475.593,86.08 
					475.593,86.291 475.625,86.39 475.804,86.59 476.253,87.01 476.734,87.4 476.884,87.59 476.884,87.68 476.804,87.771 
					476.564,87.89 476.214,87.94 476.074,87.94 475.763,87.97 475.205,88.061 474.853,88.41 474.054,89.39 473.843,89.68 
					473.824,89.791 474.244,90.08 475.234,90.66 475.583,90.88 476.044,91.271 476.464,91.67 476.634,91.89 476.824,92.17 
					477.244,92.89 477.314,93 477.525,93.13 477.644,93.16 478.535,93.22 479.003,93.34 479.753,93.58 480.394,93.83 480.603,93.97 
					481.224,94.45 481.304,94.57 481.433,94.9 481.503,95.35 481.554,95.771 481.644,95.95 481.744,96.061 481.833,96.12 
					482.144,96.14 482.945,96.13 484.603,95.98 485.433,95.86 486.244,95.83 487.224,95.811 488.044,95.87 488.353,95.92 
					489.455,96.16 				"/>
				<polyline fill="none" stroke="#666666" stroke-width="0.25" stroke-linejoin="round" stroke-miterlimit="3.8637" points="
					489.455,96.16 488.513,98.021 487.933,99.13 487.394,99.89 486.923,100.41 485.964,101.291 484.804,102.25 483.333,103.34 
					479.664,106.14 477.544,107.86 475.923,109.09 475.134,109.74 474.525,110.21 471.833,112.23 470.525,113.14 467.103,114.61 
									"/>
				<polyline fill="none" stroke="#666666" stroke-width="0.25" stroke-linejoin="round" stroke-miterlimit="3.8637" points="
					503.914,93 503.914,93.24 504.064,93.521 504.275,93.82 504.433,94.01 504.644,94.21 505.144,94.561 505.554,94.75 
					505.923,94.87 506.025,94.95 506.103,95.05 506.103,95.14 506.103,95.24 505.984,95.42 505.535,95.84 504.634,96.46 
					504.083,96.94 504.003,97.03 503.763,97.51 503.683,97.72 503.634,98 503.615,98.311 503.634,98.53 503.673,98.95 
					503.753,100.03 503.884,100.83 504.035,101.44 504.173,101.87 504.433,102.59 504.574,102.91 504.695,103.18 504.955,103.76 
					505.294,104.41 505.763,105.13 506.525,106.45 506.593,106.561 506.794,106.69 507.103,106.85 507.634,107.021 507.994,107.17 
					508.324,107.39 508.503,107.6 508.884,108.33 509.054,108.541 509.164,108.61 509.263,108.67 509.525,108.7 509.945,108.59 
					510.035,108.61 510.173,108.68 510.525,109.03 510.833,109.36 511.445,109.96 511.593,110.17 511.673,110.38 511.625,110.71 
					511.564,110.91 511.384,111.311 511.013,111.87 510.923,111.99 510.734,112.291 510.644,112.521 510.634,112.63 
					510.664,112.811 510.814,113.05 510.933,113.17 511.224,113.42 512.195,114.22 512.554,114.541 512.824,114.83 512.984,115.061 
					513.125,115.291 513.804,116.58 513.964,116.84 514.263,117.26 514.445,117.46 514.955,117.95 515.333,118.37 				"/>
				<polyline fill="none" stroke="#666666" stroke-width="0.25" stroke-linejoin="round" stroke-miterlimit="3.8637" points="
					533.125,108.12 532.484,108.46 532.054,108.771 531.853,108.99 531.724,109.2 531.513,109.5 531.365,109.811 531.154,110.061 
					530.634,110.47 530.554,110.561 530.375,110.91 530.263,111.24 530.103,111.58 529.724,112.12 529.384,112.521 529.134,112.83 
					528.994,113.061 528.753,113.53 528.724,113.66 528.455,114.24 528.304,114.311 527.853,114.39 526.683,114.73 526.263,114.89 
					525.814,115.09 525.574,115.23 525.263,115.42 524.804,115.791 524.044,116.58 523.593,116.98 523.263,117.22 522.763,117.43 
					521.753,117.62 520.974,117.791 520.263,118.12 520.044,118.16 519.414,118.16 518.875,118.08 518.314,118.041 517.974,118.1 
					516.753,118.46 516.394,118.46 515.494,118.34 515.333,118.37 				"/>
				<polyline fill="none" stroke="#666666" stroke-width="0.25" stroke-linejoin="round" stroke-miterlimit="3.8637" points="
					515.333,118.37 516.144,119.33 516.423,119.65 516.734,119.92 516.964,120.07 517.445,120.26 517.984,120.43 518.125,120.45 
					518.353,120.46 519.003,120.37 519.304,120.39 519.394,120.43 519.525,120.5 519.634,120.59 519.714,120.68 519.814,120.91 
					519.843,121.09 519.853,121.62 519.833,121.93 519.843,123.2 519.814,123.4 519.753,123.61 519.414,124.37 				"/>
				<polyline fill="none" stroke="#666666" stroke-width="0.25" stroke-linejoin="round" stroke-miterlimit="3.8637" points="
					519.414,124.37 519.333,124.5 519.275,124.69 519.263,124.811 519.275,125.041 519.394,125.24 519.634,125.47 520.343,125.95 
					521.234,126.66 521.404,126.85 521.423,126.95 521.404,127.061 521.304,127.16 520.984,127.3 520.583,127.39 520.474,127.46 
					520.343,127.66 520.294,127.87 520.294,128.09 520.353,129.01 520.394,129.25 520.433,129.37 520.554,129.561 520.644,129.68 
					520.744,129.76 520.804,129.85 520.865,129.95 520.865,130.16 520.794,130.37 520.564,130.74 520.234,131.14 519.884,131.51 
					519.814,131.64 519.714,131.93 519.683,132.16 519.603,132.88 519.634,133.48 519.714,133.791 520.923,135.85 520.775,135.94 
					520.445,135.95 520.304,135.92 519.904,135.76 519.455,135.48 519.054,135.2 518.634,134.89 518.003,134.37 517.445,133.96 
					517.025,133.63 516.734,133.34 516.343,132.82 516.083,132.5 515.984,132.41 515.664,132.17 515.464,132.08 515.013,131.93 
					514.474,131.87 513.974,131.89 513.304,132.01 512.734,132.16 512.455,132.26 511.833,132.64 511.134,133.271 510.644,133.62 
					510.343,133.811 501.875,135.89 499.625,135.99 496.503,136.08 481.763,139.48 				"/>
				<polyline fill="none" stroke="#666666" stroke-width="0.25" stroke-linejoin="round" stroke-miterlimit="3.8637" points="
					519.414,124.37 519.544,124.42 519.785,124.39 520.304,124.42 521.093,124.41 522.343,124.2 523.115,123.92 523.554,123.7 
					523.705,123.521 524.125,122.91 524.384,122.6 524.513,122.5 524.615,122.42 524.824,122.35 525.035,122.32 525.365,122.33 
					525.964,122.44 526.794,122.64 527.013,122.65 527.134,122.62 527.224,122.561 527.455,122.23 527.525,122.14 527.734,121.98 
					527.945,121.84 528.244,121.74 528.804,121.58 529.324,121.42 529.914,121.03 530.214,120.88 530.455,120.771 530.933,120.62 
					531.625,120.43 532.044,120.26 532.593,120 533.455,119.53 533.763,119.39 533.984,119.33 534.294,119.32 534.625,119.33 
					535.603,119.51 535.894,119.5 536.234,119.41 536.853,119.18 537.064,119.14 537.154,119.16 537.263,119.21 537.333,119.33 
					537.333,119.42 537.314,119.51 537.263,119.62 537.054,119.91 537.013,120.12 537.064,120.311 537.064,120.4 536.853,120.41 
					536.664,120.39 536.433,120.43 536.314,120.62 536.343,120.73 536.464,120.92 536.554,121.03 536.804,121.21 537.125,121.37 
					537.455,121.46 537.724,121.51 538.205,121.541 538.714,121.6 539.103,121.7 539.664,121.9 540.343,122.23 541.263,122.7 
					541.683,122.84 542.804,123.35 544.144,124.041 545.525,124.6 545.843,124.76 546.035,124.93 546.154,125.12 546.394,126.021 
					546.455,126.37 546.544,126.61 546.785,126.94 546.974,127.14 547.304,127.41 548.013,128.05 548.234,128.18 548.525,128.291 
					548.724,128.41 548.884,128.62 548.974,128.91 549.003,129.08 548.945,129.55 548.824,130 548.544,130.72 548.464,130.93 
					548.423,131.12 548.384,131.35 548.384,131.791 548.464,133.08 548.494,133.87 548.474,134.09 548.423,134.33 548.285,134.74 
					548.214,135.07 548.195,135.17 548.224,135.291 548.333,135.41 549.304,136.23 549.974,136.66 551.664,137.95 552.414,138.62 
					553.535,139.7 554.304,140.271 554.615,140.49 554.884,140.65 555.183,140.71 555.384,140.7 555.994,140.561 556.224,140.561 
					556.324,140.64 556.353,140.8 556.224,141.021 555.974,141.33 555.603,141.64 555.103,141.97 554.824,142.14 554.615,142.24 
					553.933,142.45 553.464,142.64 553.093,142.84 552.753,143.08 552.343,143.38 552.125,143.6 551.634,144.17 550.744,145.791 
					550.513,146.18 550.263,146.71 				"/>
				<polyline fill="none" stroke="#666666" stroke-width="0.25" stroke-linejoin="round" stroke-miterlimit="3.8637" points="
					508.294,209.16 508.445,209.35 508.794,209.771 				"/>
			</g>
		</g>
	</g>
</g>
<path fill="#84B93B" d="M190.124,173.883c0.139,1.388,1.034,1.767,1.2,2.64c0.206,1.079-2.475,5.479-2.88,7.2
	c0.08,4.319,0.16,8.64,0.24,12.96c3.443,2.366,5.108,7.289,6.96,11.28c0.389,0.839,2.088,3.749,1.68,4.32
	c-2.296,3.206-7.216,4.292-7.68,9.36c2.08,2,4.16,4,6.24,6c0.24,1.04,0.48,2.081,0.72,3.12c1.664,2.583,6.087,2.856,6.24,6.96
	c-2.161-0.059-3.201-1.17-4.8-1.68c-0.96-0.08-1.92-0.16-2.88-0.24c-0.08-0.16-0.16-0.32-0.24-0.48c-0.4,0.08-0.8,0.16-1.2,0.24
	c-0.197-0.055-0.763-0.656-0.96-0.72c-3.3-1.078-7.941,1.453-10.56,0c-0.64-0.72-1.28-1.44-1.92-2.16
	c-2.018-1.47-4.727-2.398-7.44-3.12c-7.079-1.882-16.189-0.003-23.04-1.92c-0.58-0.162-2-0.356-2.64-0.72
	c-0.8-0.96-1.6-1.92-2.4-2.88c-1.341-0.867-3.639-0.417-5.28-0.96c-1.548-0.513-2.847-1.838-4.32-2.4
	c-3.157-1.204-7.162-0.404-9.6-2.16c-4.76-3.428-9.292-14.031-12.24-19.68c-1.897-3.635-3.027-7.797-7.2-9.12
	c-1.992-0.631-12.072-1.54-14.64-0.96c-2.78,0.627-8.757,0.758-11.52,0c-0.845,0.344-1.461,1.417-2.16,1.92
	c-2.644,1.905-5.412,3.834-8.16,5.52c-1.271,0.779-3.411,2.114-4.8,2.4c-0.81,0.167-1.082-0.901-1.92-0.24
	c-0.528,0.417,0.019,1.436-0.24,2.16c-0.304,0.849-1.693,2.354-2.4,2.88c-4.021,2.995-9.029,3.657-14.88,5.04c-1.2,0-2.4,0-3.6,0
	c-0.362,0.054-2.554,0.252-3.6,0c-4.438-1.069-7.256-4.339-8.88-8.16c-0.278-0.654-0.544-4.05-0.72-4.32
	c-0.32-0.08-0.64-0.16-0.96-0.24c-0.849-1.095-0.444-2.891-1.2-4.08c-1.025-1.613-7.633-5.022-9.6-6.48
	c-2.06-1.527-4.281-4.377-5.76-6.48c-0.592-0.841-0.896-2.251-1.68-2.88c-0.54-0.433-1.32-0.366-1.68-0.96
	c-0.344-0.569-0.116-1.171-0.48-1.68c-1.082-1.513-3.354-1.542-3.36-3.6c1.36-1.52,2.72-3.04,4.08-4.56
	c4.773-3.581,9.548-6.883,16.32-8.4c2.654-0.595,8.304,0.427,10.32,0.96c6.896,1.823,12.348,3.624,19.2,5.52
	c2.538,0.702,7.077,1.653,10.32,0.72c4.202-1.208,7.391-4.366,10.8-6.479c2.404-1.491,5.582-2.315,7.2-4.56
	c1.923-2.667,1.492-8.11,1.44-12.72c-0.08-0.8-0.16-1.6-0.24-2.4c0.403-2.358,0.676-5.129,1.44-7.44
	c1.522,0.076,4.848-1.371,6.96-1.92c3.768-0.98,16.254-0.493,19.44,0.72c1.469,0.559,2.361,2.161,3.6,2.88
	c0.9,0.522,1.808,0.416,2.64,0.959c1.842,1.204,3.19,3.345,5.04,4.56c1.28,0.48,2.56,0.96,3.84,1.44
	c-0.324,1.728,4.293,4.835,5.28,6.96c1.641,3.533,2.583,7.786,4.08,11.28c0.426,0.994,0.813,3.36,1.68,3.84c2.08,0,4.16,0,6.24,0
	c5.895-0.001,11.707,0.268,16.32-0.96c0.129-0.364,0.162-0.406,0.24-0.96c-1.58-1.794,1.68-5.417,3.12-6
	c3.963-1.605,9.127,1.179,11.52,2.4c1.029,0.525,2.375,0.638,2.88,1.68c-1.799,2.643,1.704,8.567,2.88,9.36
	c-0.25,0.595-0.478,0.699-0.24,1.2c1.616,1.636,3.46,2.602,4.56,4.8c0.971-0.251,1.206-0.604,2.4-0.72
	C188.024,172.617,188.654,173.656,190.124,173.883z"/>
<path fill="#84B93B" d="M216.764,172.923c0.4,0,0.8,0,1.2,0c0.196,1.709,1.006,3.257,1.44,4.8c0.536,1.903,0.545,3.945,0.96,5.76
	c0.32,4.559,0.64,9.12,0.96,13.68c0.574,2.543,0.303,5.463,0.96,8.16c1.12,5.52,2.24,11.041,3.36,16.56
	c1.521,5.36,2.705,11.212,4.8,16.32c0.914,2.228,2.225,4.55,2.88,6.96c-3.371,0.908-6.917,3.85-8.64,6.48
	c-0.488,0.745-0.441,1.68-0.96,2.4c-0.82,1.139-4.537,2.854-6.72,2.4c-1.12-0.32-2.24-0.64-3.36-0.96
	c-1.527,2.316-3.35,3.354-4.08,6.72c1.268,0.813,5.869,6.552,4.8,8.399c-0.295,0.433-0.622,0.596-0.96,0.961
	c-3.614,0.326-5.783-1.457-8.64-2.4c-1.035-0.342-2.811,0.126-3.36-0.721c-0.427-0.606-0.478-1.623-0.48-2.64
	c-1.009-0.693-1.022-1.19-2.88-1.2c-1.539-0.988-10.604-1.439-13.44-1.44c0.273-4.203,3.721-7.336,5.52-10.32
	c0.863-1.432,0.801-3.331,1.68-4.8c0.74-1.237,2.337-1.713,2.88-3.12c-0.701-1.033-0.008-7.212,0.48-7.92
	c0.34-0.231,0.786-0.234,1.44-0.24c1.378,0.967,4.881,2.004,6.96,2.16c0-0.16,0-0.32,0-0.48c0.321-0.478,0.265-1.562,0.24-2.4
	c-0.934-0.954-1.565-2.319-2.64-3.12c-1.108-0.826-3.178-1.686-3.84-2.88c-0.725-1.307-0.282-2.614-1.2-3.6
	c-1.359-1.46-5.008-3.813-5.28-6c1.348-1.396,2.034-3.383,3.6-4.56c1.497-1.124,3.279-2.037,4.32-3.6
	c-0.599-0.677-0.555-1.461-0.96-2.4c-1.197-2.774-2.471-6.038-4.08-8.64c-0.828-1.338-1.914-2.773-2.88-4.08
	c-0.4-0.32-0.8-0.64-1.2-0.96c0-2.24,0-4.48,0-6.72c-0.639-1.008-0.25-4.229,0-5.28c0.287-1.207,0.061-1.884,0.48-2.88
	c1.311-3.113,2.603-2.464,1.44-6.48c1.04,0,2.08,0,3.12,0c2.918,2.542,6.66-2.522,6.96-5.28c-1.35-1.496-2.094-4.817-2.16-7.44
	c0.788-0.774,1.057-1.661,2.4-1.92c1.089,1.445,2.775,2.573,3.84,4.08c1.447,2.047,2.926,5.446,5.28,6.479
	c2.046,0.899,5.463-1.113,6.48-0.479c0.08,0,0.16,0,0.24,0C217.246,171.222,216.836,171.474,216.764,172.923z"/>
<path fill="#84B93B" d="M183.404,264.122c5.86-0.089,11.18,0.628,16.08,1.68c0.329,0.61,0.46,0.841,0.48,1.92
	c0.97,1.373,0.544,5.068,0,7.439c-1.126,4.91-8.427,16.081-1.92,20.16c-0.218,0.26,0.019,0.02-0.24,0.24
	c-0.657,0.799-1.5,0.609-2.4,1.198c-0.48,0.562-0.96,1.12-1.44,1.681c-0.039,3.98,1.689,6.966,2.88,9.84
	c1.34,3.232,1.854,7.438,1.68,10.801c-3.515,2.773-6.273,7.381-9.84,10.08c-3.979,3.01-7.68,6.49-11.76,9.359
	c-3.275,2.303-6.644,4.063-10.08,6.239c-1.948,1.234-3.339,3.646-5.52,4.56c-2.645,1.106-5.784-0.313-8.64,0.479
	c-1.904,0.529-3.146,1.783-5.52,1.92c-0.276-1.204-0.841-2.676-1.2-3.84c-3.259-10.573-10.643,1.666-13.92,3.36
	c-1.243,0.643-2.846,0.664-4.56,0.72c0.345,1.953-1.808,2.778-3.36,3.601c-1.479,0.782-3.254,1.983-5.04,2.399
	c-1.867,0.437-5.847-1.985-8.64-2.16c0,0.08,0,0.16,0,0.24c0.752,1.137,0.739,2.713,1.44,3.84c1.204,1.938,3.412,3.056,3.6,6
	c-1.078,1.058-1.698,2.651-2.64,3.84c-2.056,2.595-9.843,6.73-14.16,6.962c-1.638-2.3-6.853-4.99-10.08-5.761
	c-1.85-0.44-4.68,0.854-5.28,0.479c-3.797-2.76-6.812-11.998-12.72-12c-1.017,0.828-2.583,1.398-4.32,1.439
	c-0.978-0.947-2.104-1.204-2.64-2.641c-0.24-2.959-0.48-5.92-0.72-8.881c-1.879-5.062-9.049-13.142-15.6-12.719
	c-0.879-3.214-6.027-4.228-10.32-3.121c-1.032,0.268-2.995,1.076-3.84,0.721c-2.28-1.887-1.854-6.184-3.12-9.119
	c-0.377-0.875-1.949-2.084-2.16-2.641c-0.344-0.908,0.379-3.06,0-4.32c-1.521-5.053-5.878-8.264-7.92-12.959
	c-0.881-2.027-0.08-5.34-0.96-7.68c-1.256-3.34-4.329-5.451-6.24-8.16c-4.788-6.787-9.578-14.072-12-23.041
	c-1.37-5.071,0.378-11.466,1.44-15.36c0.763-2.799,0.522-5.166,1.2-8.16c0.351-1.551,0.906-4.325,0.48-6.24
	c-1.04-4.681-5.69-7.936-3.12-14.16c2.048-4.961,8.642-14.123,12.96-16.8c4.739-2.938,11.851-2.304,13.44-8.4c0.16,0,0.32,0,0.48,0
	c0.051,2.153,0.882,3.447,1.68,4.8c1.1,1.866,1.92,4.036,3.6,5.28c3.364,2.491,10.727,3.054,16.08,1.68
	c4.691-1.204,8.684-2.33,12-4.8c0.832-0.62,1.892-1.958,2.4-2.88c0.08-0.4,0.16-0.8,0.24-1.2c0.646-0.735,2.713-0.979,3.6-1.44
	c2.587-1.343,5.294-2.889,7.68-4.56c1.419-0.994,3.573-3.441,5.04-4.08c4,0,8,0,12,0c1.139-0.706,3.555-0.042,4.8,0
	c5.456,0.185,10.378,0.118,12.72,3.36c1.307,1.809,1.934,3.827,2.88,6c0.676,1.551,1.864,3.063,2.64,4.56
	c2.551,4.917,4.66,10.42,8.4,14.16c3.549,3.549,7.372,1.899,12,3.84c1.257,0.527,2.436,1.699,3.84,2.16c1.6,0.24,3.2,0.48,4.8,0.72
	c1.742,0.961,1.624,2.84,4.32,3.6c7.083,1.997,16.878,0.209,24.24,2.16c2.44,0.646,5.123,1.544,6.96,2.88
	c1.168,0.849,1.247,2.148,3.12,2.4c0.757,0.469,8.984,0.082,10.8,0.48c0.329,0.61,0.46,0.841,0.48,1.92
	c-0.899,1.391-0.51,4.842-0.48,6.96c-2.376,0.876-2.375,2.94-3.36,5.28C188.168,255.09,183.878,258.104,183.404,264.122z"/>
<path fill="#84B93B" d="M244.604,262.202c-0.64-0.08-1.28-0.16-1.92-0.24c-0.123,0.422-0.183,0.971-0.48,1.2
	c-0.742,0.572-1.969,0.314-2.88,0.72c-1.067,0.476-1.066,1.624-2.4,1.92c-1.135-0.802-2.698-0.92-3.84-1.68
	c-2.59-1.723-7.401-6.924-8.4-10.08c2.457-3.087,4.639-7.48,9.6-7.92c1.28,2.24,2.561,4.48,3.84,6.72c0.48,0.4,0.96,0.8,1.44,1.2
	c0.453,0.797,0.241,1.686,0.72,2.4C241.647,258.475,244.267,259.039,244.604,262.202z"/>
<path fill="#84B93B" d="M237.644,266.763c-0.043,6.211,3.376,4.473,3.84,7.918c-2.087,2.229-1.936,6.992-1.92,11.28
	c-2.007,0.905-3.877,2.312-5.28,3.84c-4.569-0.151-3.327-5.319-7.44-6c-1.07,1.638-2.274,2.761-2.88,5.04
	c-0.834,3.141-0.065,6.674-1.2,9.359c-0.814,1.93-2.492,3.371-3.84,4.801c-0.801,0.85-2.654,3.369-2.16,4.561
	c1.4,6.026,6.962,10.504,12.24,12.72c1.68,0.479,3.36,0.961,5.04,1.44c-0.45,1.521-1.447,3.285-2.16,4.799
	c-3.629-1.609-7.733-2.541-12.24-3.6c-3.714-0.873-7.755-0.402-11.28-1.199c-2.393-0.543-8.391-0.354-9.36-1.921
	c1.261-0.993,0.816-5.089,0.24-7.2c-1.28-4.69-3.942-8.565-4.32-13.92c1.247-0.76,3.804-1.867,4.32-3.359
	c-0.206-0.907-2.372-2.323-2.88-4.079c-0.8-2.763,1.457-7.203,2.16-8.882c0.454-1.082,0.219-2.338,1.2-2.879
	c0.283,0.192,0.403,0.187,0.96,0.239c0.269-0.501,0.344-0.438,0.48-1.2c-1.444-1.067,0.107-6.313,0.24-8.64c0.72,0,1.44,0,2.16,0
	c2.186,0.575,11.564,5.886,12,0.24c-0.709-1.093-0.597-2.679-1.2-3.84c-0.93-1.79-2.908-3.103-3.6-5.04
	c0.483-0.615,0.511-1.473,0.96-2.16c0.565-0.864,1.571-1.52,2.16-2.4c2.113,0.479,4.672,1.102,6.96,0.24
	c1.147-0.432,1.962-1.397,3.36-1.68C225.509,259.375,232.5,266.415,237.644,266.763z"/>
<path fill="#84B93B" d="M250.124,286.202c0.056-2.712-0.482-4.303-0.96-6.24c-0.56-0.398-1.12-0.8-1.68-1.199c-0.48,0-0.96,0-1.44,0
	c-0.835,0.872-2.135,1.461-2.88,2.399c-1.056,1.639-0.344,4.36-2.64,4.8c-0.047-2.761-0.223-5.756,0.48-7.92
	c0.461-1.421,1.402-2.475,1.68-4.08c-0.645-0.636-1.025-1.533-1.68-2.159c-1.974-1.891-2.995-2.178-2.16-6.241
	c1.835-1.041,4.313-2.22,6.24-2.4c2.863,4.563,6.853,8.418,10.08,12.72c1.612,2.148,4.359,3.446,5.04,6.479
	C255.621,280.817,254.271,286.535,250.124,286.202z"/>
<path fill="#84B93B" d="M261.404,306.603c-0.24-0.801-0.48-1.601-0.72-2.4c-0.48-0.398-0.96-0.799-1.44-1.199
	c-4.612-0.055-5.121,2.689-9.36,2.88c0.091,6.276,2.594,10.736,3.84,16.079c0.615,2.637-0.58,4.748-0.72,6.721
	c0.725,0.363,1.785,0.68,2.16,1.439c-0.852,0.57-0.861,0.926-2.4,0.961c-1.725-1.111-4.554-0.859-6.72-1.439
	c-3.983-1.069-8.479-2.387-12.96-2.641c0.156-2.711,1.875-4.133,2.88-6c-7.238-0.749-17.958-7.252-18.24-14.4
	c0.627-0.688,0.875-1.639,1.44-2.399c2.31-3.114,4.129-3.597,5.28-8.399c0.926-3.861-0.496-10.031,3.36-10.8
	c0.319,0.513,0.891,0.75,1.2,1.2c1.685,2.443,1.429,4.631,5.76,4.561c0.885-1.15,3.359-3.402,4.8-3.841
	c1.005-0.305,1.287,0.179,2.4-0.239c1.354-2.293,1.977-6.377,5.04-6.961c0.528,0.502,0.885,0.412,1.2,1.2
	c1.159,1.505,0.272,4.282,1.2,5.761c2.763,2.648,6.72-3.351,10.08-3.601c1.226,1.156,2.928,1.634,4.32,2.64
	c1.892,1.369,2.862,3.953,4.8,5.28c-0.488,2.822,1.181,6.816,0.24,10.32c-0.146,0.543-0.558,1.226-0.72,1.92
	C266.148,304.535,264.333,306.183,261.404,306.603z"/>
<path fill="#84B93B" d="M269.324,292.202c2.003,0.691,2.989,3.13,4.56,4.318c4.412,3.34,8.207,7.408,12.721,10.562
	c1.178,0.821,7.795,3.494,8.159,4.08c1.506,1.604,2.459,4.862,3.841,6.72c0.619,0.834,2.063,2.053,3.119,2.398
	c0.641,0.08,1.279,0.16,1.92,0.24c1.029,0.57,1.924,2.166,2.641,3.121c1.488,1.981,4.832,6.277,6.721,7.68
	c2.963,2.197,7.559,2.63,10.561,4.8c2.541,1.838,4.051,4.932,7.199,6.239c2.16,0.48,4.32,0.961,6.48,1.44
	c1.85,0.767,3.611,2.497,5.52,3.12c2.641,0.08,5.279,0.16,7.92,0.24c0.641,0.238,1.279,0.479,1.922,0.719
	c0.258,0.422,0.604,0.869,0.959,1.201c0.174,2.193-1.02,7.234-3.119,7.92c-0.928,0.609-2.111,0.328-3.361,0.719
	c-1.893,0.594-7.09,2.952-8.16,4.32c-1.121,1.549-1.543,8.627-2.879,9.6c-0.791,0.577-3.273-0.09-4.08,0.24
	c-2.512,1.029-5.838,6.057-6.961,8.641c-0.787,1.816-1.219,3.989-1.68,6c-0.443,1.941,0.285,4.064-0.24,5.76
	c-0.479,0.961-0.959,1.921-1.439,2.881c-0.469,0.372-1.162,0.122-1.68,0.479c-0.25,0.174-2.148,3.195-2.4,3.602
	c-0.643,1.035-1.121,2.343-1.439,3.6c-0.211,0.835,0.121,1.559-0.24,2.16c-2.283,3.823-8.338,5.841-11.039,9.602
	c-2.623,3.647-2.475,9.675-5.041,13.438c-0.77,1.13-10.676,4.639-12.719,4.8c-4.471-6.555-17.991,0.05-21.84,2.399
	c-1.364,0.834-3.498,1.056-4.08,2.641c-0.23,0.34-0.234,0.785-0.24,1.439c1.018,0.911,1.858,1.692,1.92,3.601
	c-3.005,1.665-5.686,4.129-8.88,5.521c-1.76,0.559-3.52,1.118-5.28,1.68c-0.624,0.634-0.735,1.32-0.72,2.64
	c1.297,1.31,3.398,3.266,3.6,5.521c-1.973,0.623-3.282,2.481-4.8,3.6c-5.585,4.108-11.064,9.73-20.16,10.08
	c-0.961,1.446-2.646,2.18-3.6,3.6c-0.08,0-0.16,0-0.24,0c0-0.159,0-0.319,0-0.479c-1.164-1.699-0.686-4.668-1.2-6.959
	c-2.234-9.956,3.226-17.845,6.72-24.48c1.078-2.047,2.092-4.022,3.12-6c0.249-0.477,0.134-1.239,0.48-1.68
	c2.544-3.229,7.982-4.175,10.32-7.92c1.31-2.1,1.538-5.18,2.16-7.92c0.16-1.76,0.32-3.521,0.48-5.28
	c0.351-0.544,1.169-0.614,1.44-1.44c0.509-1.549-0.096-3.834,0.72-5.039c1.386-0.994,2.004-0.52,1.92-3.119
	c-0.211-0.413-0.213-0.309,0-0.721c0.853-2.422,3.841-4.311,5.76-5.76c1.233-0.933,1.917-2.671,3.12-3.601
	c0.875-0.675,2.674-1.646,3.12-2.64c0-0.802,0-1.602,0-2.4c1.206-0.254,2.493-0.805,2.88-1.92c0.982-1.328,1.517-5.275,2.16-6.961
	c-0.66-0.24-0.527-0.346-0.96-0.719c1.228-3.9-1.243-6.461-2.16-10.08c0-2.32,0-4.642,0-6.961c-0.64-1.279-1.28-2.56-1.92-3.84
	c-0.779-2.35-0.083-5.087-0.72-7.681c-0.587-2.39-1.804-4.453-2.4-6.719c-0.08-2.16-0.16-4.32-0.24-6.48
	c-0.713-3.19-1.008-5.268-2.4-7.438c0.934-0.607,0.97-1.209,0.72-2.4c-0.857-0.346-1.453-0.359-1.68-1.439
	c0.612-0.871,0.85-4.184,0.48-5.76c-0.788-3.363-1.894-6.547-2.88-9.602c-0.32-1.76-0.64-3.52-0.96-5.279
	c3.515-0.24,4.279-2.75,8.16-2.88c0.752,1.237,1.492,2.688,2.16,4.079c6.628-1.848,8.947-3.355,8.64-12.239
	C269.768,294.771,269.635,293.09,269.324,292.202z"/>
<path fill="#84B93B" d="M247.964,406.921c-1.522,0.145-2.189,0.628-2.16,2.398c-0.394,0.683-0.029,1.716-0.72,2.16
	c-1.199-1.063-3-1.471-4.32-2.398c-2.101-1.479-7.345-6.721-6.48-10.8c0.32-1.12,0.64-2.24,0.96-3.36
	c-1.36-0.791-2.964-1.581-4.56-2.158c-0.72-0.16-1.44-0.32-2.16-0.48c-2.177-1.413-1.946-4.838-5.28-5.76c-5.2,0-10.401,0-15.6,0
	c-7.257,0-15.819-0.924-22.32,0.479c-2.387,0.516-4.902,0.032-6.96,0.479c-3.089,0.674-6.151,0.313-8.88,0.961
	c-0.56,0-1.12,0-1.68,0c-2.005,0.813-3.832,2.611-6.48,2.881c-3.659-5.631-12.606-4.633-19.92-6.721
	c-5.386-1.537-10.583-3.397-15.6-5.521c-5.083-2.149-10.158-4.506-17.28-4.56c0-0.16,0-0.32,0-0.48
	c2.334-1.109,4.798-3.023,6.24-5.039c0.747-1.045,1.056-2.438,1.92-3.361c-0.809-3.652-4.182-5.068-4.8-8.639
	c2.19,0.318,3.696,1.455,5.76,1.92c2.648,0.594,8.143-2.755,9.6-3.84c0.608-0.453,0.827-1.796,1.44-2.16
	c1.23-0.732,3.312-0.387,4.56-1.201c3.641-2.375,4.218-6.252,9.84-6.959c0.554,0.633,1.318,1.084,1.68,1.92
	c0.928,2.144,0.331,5.735,2.88,6.24c1.845-1.255,4.801-1.917,7.2-2.4c0.782-0.157,1.114,0.189,1.68,0.24
	c2.56,0.227,4.999-0.232,6.48-1.199c1.424-0.933,2.439-2.646,3.84-3.602c3.007-2.051,6.176-3.455,9.12-5.52
	c3.861-2.707,7.505-5.797,11.28-8.641c1.671-1.259,2.903-3.308,4.56-4.56c0.907-0.688,1.966-1.271,2.64-2.16
	c1.097-1.451,2.507-3.423,4.32-4.08c1.144,0.833,2.666,0.546,4.32,0.959c4.904,1.229,10.846,0.692,16.08,1.921
	c3.176,0.745,6.761,0.955,9.6,2.159c0.999,0.424,2.181,1.544,3.12,1.92c0.72,0,1.44,0,2.16,0c1.842,0.451,3.936,0.646,6,1.201
	c4.55,1.223,9.673,2.696,14.64,3.118c0.437,1.351,1.282,2.646,1.68,4.32c0.16,2.959,0.32,5.92,0.48,8.881
	c0.622,2.349,1.792,4.494,2.4,6.959c0.615,2.49-0.033,5.168,0.72,7.439c0.424,1.28,1.522,2.572,1.92,3.84c0,2.4,0,4.801,0,7.201
	c0.632,2.507,2.849,4.957,2.88,7.68c0.009,0.756-0.879,1.141-0.96,2.399c0.608,0.358,0.759,0.362,0.96,1.2
	c-1.083,1.215-1.481,4.277-1.92,6c-0.973,0.41-2.479,0.9-2.88,1.92c-0.355,0.578-0.085,1.047,0,1.92
	c-4.438,2.927-8.381,8.305-12.24,12C247.804,405.001,247.884,405.961,247.964,406.921z"/>
<path fill="#84B93B" d="M245.324,412.44c-0.08,0.399-0.16,0.801-0.24,1.199c-0.627,0.039-0.815,0.104-1.2,0.24
	c0.662,4.754-1.904,13.932-4.8,16.08c-2.131,1.58-6.846,3.402-8.16,5.52c-1.41,2.272-2.11,5.074-3.36,7.44
	c-2.772,5.249-5.935,10.841-7.68,17.04c-0.295,1.05,0.085,2.916,0.24,3.6c0.08,1.601,0.16,3.2,0.24,4.801
	c0.576,2.454,1.241,5.394,1.44,7.92c-0.547,0.294-0.54,0.394-1.44,0.479c-1.859-1.938-6.006-4.379-9.36-1.921
	c-1.574,1.154-1.87,3.47-4.08,4.08c-2.631,0.729-9.073-1.65-11.04-2.159c-1.205,1.593-3.275,3.561-5.52,4.079
	c-1.556-2.516-4.507-1.418-7.92-2.159c-4.399-0.956-12.383-0.995-15.6,0.96c-3.346,2.033-5.736,5.167-10.08,6.24
	c-3.265,0.807-8.062-2.301-10.32-3.121c-3.375-1.226-6.508,0.019-9.12,0.24c-1.327-2.042-3.595-3.553-5.04-5.52
	c-1.301-1.771-2.582-3.808-3.6-5.761c-0.424-0.813-0.408-1.871-0.96-2.641c-0.455-0.634-2.667-1.699-3.36-2.399
	c-0.64,0-1.28,0-1.92,0c-0.065-7.106-5.838-9.874-8.64-14.398c-0.784-1.269-0.808-2.599-1.44-4.08
	c-0.068-0.161-0.683-0.613-0.72-0.721c-0.491-1.404,0.96-3.265,1.2-4.32c0.442-1.949-1.146-4.446-1.92-5.521
	c-2.953-4.093-10.091-7.774-14.4-10.8c-3.509-2.464-6.407-5.879-9.84-8.398c-2.638-1.938-8.746-5.348-9.84-8.4
	c1.09-0.678,1.881-1.852,3.12-2.4c2.586-1.146,7.499-1.604,7.68-5.039c-1.134-1.752-0.26-5.588,0.24-7.201
	c1.96-6.325,6.515-8.418,10.32-12.719c0.364-0.412,1.26-1.485,1.44-1.92c0.472-1.141-0.292-1.918,0.48-2.641
	c4.118-2.953,11.371-3.271,17.52-1.199c7.313,2.463,14.147,5.686,21.6,8.159c5.494,1.824,12.212,1.438,17.28,3.601
	c2.138,0.912,3.132,3.16,5.04,4.08c0.627-0.586,5.83-3.065,6.72-3.361c2.56-0.238,5.121-0.479,7.68-0.719
	c2.906-0.637,6.408-0.041,9.6-0.721c6.375-1.357,14.719-0.479,21.84-0.48c5.2,0,10.401,0,15.6,0c2.859,0.84,2.82,4.488,5.04,5.762
	c1.819,1.042,5.034,0.558,6,2.398c-1.34,1.854-0.468,5.269,0.24,6.961C235.913,406.496,240.723,411.782,245.324,412.44z"/>
<text transform="matrix(1 0 0 1 87.0137 278.3398)" font-family="'MyriadPro-Regular'" font-size="12">El Hamma</text>
<text transform="matrix(1 0 0 1 60.1396 526.3105)" font-family="'MyriadPro-Regular'" font-size="24">Gouvernorat de Gabes</text>
<text transform="matrix(1 0 0 1 152.0137 367.3398)" font-family="'MyriadPro-Regular'" font-size="12">Nouvelle Matmata</text>
<text transform="matrix(1 0 0 1 119.7339 434.7773)" font-family="'MyriadPro-Regular'" font-size="12">Matmata</text>
<text transform="matrix(1 0 0 1 201.0137 223.3398)" font-family="'MyriadPro-Regular'" font-size="12">Mtouia</text>
<text transform="matrix(1 0 0 1 78.0137 182.3398)" font-family="'MyriadPro-Regular'" font-size="12">Menzel El Habib</text>
<text transform="matrix(1 0 0 1 274.0137 368.3398)" font-family="'MyriadPro-Regular'" font-size="12">Mareth</text>
<text transform="matrix(1 0 0 1 249.0137 246.3398)" font-family="'MyriadPro-Regular'" font-size="12">Ghannouch</text>
<text transform="matrix(1 0 0 1 274.0137 280.3398)" font-family="'MyriadPro-Regular'" font-size="12">Gabs Mdina</text>
<text transform="matrix(1 0 0 1 293.0132 299.3398)" font-family="'MyriadPro-Regular'" font-size="12">Gabs Sud</text>
<text transform="matrix(1 0 0 1 260.0137 262.3398)" font-family="'MyriadPro-Regular'" font-size="12">Gabs Ouest</text>
<line fill="none" stroke="#666666" x1="232.124" y1="254.32" x2="244.124" y2="246.32"/>
<line fill="none" stroke="#666666" x1="223.124" y1="267.319" x2="251.124" y2="259.32"/>
<line fill="none" stroke="#666666" x1="250.124" y1="276.319" x2="267.124" y2="277.319"/>
<line fill="none" stroke="#666666" x1="249.124" y1="295.319" x2="288.125" y2="297.319"/>
</svg>
