<?xml version="1.0" encoding="utf-8"?>
<!-- Generator: Adobe Illustrator 13.0.0, SVG Export Plug-In . SVG Version: 6.00 Build 14948)  -->
<!DOCTYPE svg PUBLIC "-//W3C//DTD SVG 1.0//EN" "http://www.w3.org/TR/2001/REC-SVG-20010904/DTD/svg10.dtd">
<svg version="1.0" id="Calque_1" xmlns="http://www.w3.org/2000/svg" xmlns:xlink="http://www.w3.org/1999/xlink" x="0px" y="0px"
	 width="613.649px" height="491.364px" viewBox="0 0 613.649 491.364" enable-background="new 0 0 613.649 491.364"
	 xml:space="preserve">
<path fill="#85BA3C" d="M263.56,204.057c0.24,1.52,0.479,3.041,0.72,4.56c-0.888,4.081-6.198,9.919-8.64,13.2
	c-1.59,2.135-5.988,5.379-5.041,9.6c0.842,3.747,4.141,4.409,6,6.96c0.674,0.923,0.342,2.246,0.961,3.36
	c1.049,1.892,3.289,2.494,4.317,4.801c-0.157,0-0.317,0-0.479,0c-4.354,2.463-11.746-0.199-14.641-1.681
	c-7.89-4.038-14.576-8.876-22.801-12.48c-2.188-0.959-6.6-3.942-9.12-3.36c-3.738,4.356,1.004,12.114,1.2,17.04
	c-0.48,0.08-0.96,0.16-1.44,0.24c-5.187-2.677-17.574-0.121-21.36,0.959c-0.498-1.389-0.937-0.58-1.44-1.199
	c-1.04-2.08-2.08-4.161-3.12-6.24c-3.779-7.304-6.938-14.673-11.52-21.12c-1.784-2.51-7.2-6.899-8.16-9.12
	c6.377-3.518,13.534-6.282,19.919-10.08c5.823-3.462,10.281-7.686,19.44-7.68c1.338-3.311,11.986-10.58,15.839-8.64
	c2.768,3.06,4.337,5.99,7.439,8.88c1.68-0.08,3.359-0.16,5.041-0.24c0.859,1.311,1.565,2.175,3.84,2.16
	c1.035-0.587,4.344-1.368,5.278-0.96C252.288,195.451,253.892,203.097,263.56,204.057z"/>
<path fill="#85BA3C" d="M69.642,191.817c2.699-0.032,3.501,0.974,5.28,1.44c1.68-0.08,3.36-0.16,5.04-0.24
	c2.318-0.353,5.592,0.938,7.44,1.68c1.36,0.72,2.72,1.439,4.08,2.16c0.32,0.72,0.64,1.44,0.96,2.16c3.439,1.6,6.88,3.2,10.32,4.8
	c3.449,1.437,11.07,1.136,13.92,3.12c2.8,2.479,5.6,4.96,8.4,7.44c1.44,0.64,2.88,1.28,4.32,1.92c2.422,2.045,2.814,5.552,5.76,7.2
	c-0.525,4.135-0.714,10.464-0.72,16.56c1.908,1.206,7.02,4.006,7.2,6.72c-1.6,1.92-3.2,3.841-4.8,5.761
	c-2.595,1.817-4.451,2.496-6.48,4.799c0.38,8.91,11.868,13.91,19.68,15.84c5.614,1.389,9.737-0.32,13.92,2.4
	c-0.08,0.08-0.16,0.16-0.24,0.24c-1.903,2.495-5.591,2.689-8.4,4.32c-1.68,1.279-3.36,2.56-5.04,3.84
	c-1.359,0.4-2.72,0.8-4.08,1.199c-6.416,3.949-10.444,14.217-14.4,20.641c-0.16,0-0.32,0-0.48,0
	c-2.179-2.807-9.745-10.406-15.12-8.88c-4.733,1.344-8.167,4.853-13.44,6c-4.834,1.052-9.37-0.812-13.92-0.96
	c-3.461-4.824-9.341-10.32-15.12-12.721c-1.44-0.319-2.88-0.639-4.32-0.959c-0.8-0.961-1.6-1.92-2.4-2.881
	c-2.229-1.701-6.374-4.192-10.8-3.359c-2.24,0.561-4.48,1.119-6.72,1.68c-2.303,0.991-3.354,2.568-6.72,2.641
	c-2.88-4.063-7.664-7.017-12-9.601c-2.034-1.212-4.554-1.806-6.24-3.36c1.195-1.867,0.347-6.252,1.2-7.92
	c3.027-2.849,6.596-4.789,8.88-8.4c1.437-2.27,1.676-5.23,3.12-7.68c3.12-0.08,6.24-0.16,9.36-0.24
	c0.88-0.238,1.76-0.479,2.64-0.719c0.08-0.641,0.16-1.281,0.24-1.92c-0.8-0.959-1.6-1.919-2.4-2.881
	c-0.667-3.559,7.983-10.397,12.72-8.4c0-0.8,0-1.6,0-2.4c-0.815-0.924-1.545-2.027-1.68-3.6c3.413-2.591,4.607-6.77,3.12-11.76
	c-2.27-1.27-4.649-1.735-4.56-5.52c1.151-1.523,1.39-3.593,2.16-5.52C62.133,199.419,63.637,195.792,69.642,191.817z"/>
<path fill="#85BA3C" d="M297.64,209.097c0.795-7.974,8.605-6.568,15.601-8.4c1.92-0.8,3.84-1.6,5.764-2.4
	c0.156,0.32,0.316,0.64,0.479,0.96c1.785,4.187-4.934,13.984-7.201,15.6c-0.83,0.591-3.457,0.898-4.08,1.68c0,1.2,0,2.4,0,3.6
	c-2.833,6.305,1.424,10.183-8.878,9.84c-2.586-1.291-7.596,1.071-8.398,2.64c-0.4,1.52-0.801,3.04-1.199,4.56
	c-1.271,1.071-2.639,1.749-3.602,3.12c-0.8,1.44-1.602,2.88-2.398,4.32c-1.041,0.56-2.08,1.12-3.121,1.68
	c-2.123,2.648-2.434,6.729-3.84,10.08c-0.881,1.279-1.761,2.561-2.641,3.84c-2.193,6.16-1.339,16.064,0.479,21.841
	c2.994,9.504,9.271,16.729,11.761,26.159c-0.158,0-0.318,0-0.479,0c-4.011,2.152-10.037,1.018-14.88,2.16
	c-5.04,1.438-10.079,2.879-15.12,4.317c-4.146,0.938-9.826-0.063-11.039-2.88c-1.406-2.563-1.953-6.887-2.16-10.318
	c-1.28-1.094-2.215-2.886-3.84-3.602c-1.869-0.825-4.709,0.34-6.24,0.96c-3.832-1.476-11.816-4.593-13.918-7.44
	c-3.143-4.254-3.053-9.901-4.562-16.08c-0.748-3.063,0.051-7.412-2.64-8.398c-2.732,1.34-5.85-0.928-7.2-1.92
	c-4.616-3.393-8.64-10.698-10.32-16.801c1.635,0.264,4.02-1.266,6-1.68c4.884-1.021,12.356-0.313,16.56,0.959c0-0.16,0-0.32,0-0.479
	c2.285-3.642-3.311-11.479-1.2-17.04c16.568,3.952,27.732,21.58,47.76,17.278c0-0.08,0-0.159,0-0.238
	c-0.318-0.88-0.641-1.76-0.96-2.64c-1.2-1.04-2.399-2.08-3.601-3.12c-0.616-1.003-0.332-2.471-0.961-3.36
	c-1.729-2.445-5.258-3.212-6-6.72c-0.698-3.307,2.813-5.981,4.08-7.68c3.467-4.646,10.547-11.258,9.121-18.72
	c3.471-2.4,5.83-5.829,8.879-8.64c0.16,0.08,0.319,0.16,0.479,0.24c1.75,1.843,3.214,3.743,5.761,4.8
	c3.77,1.565,8.236,1.802,11.52,3.84C293.716,206.455,293.884,208.941,297.64,209.097z"/>
<path fill="#85BA3C" d="M351.399,246.297c4.793,0.063,4.791-2.438,8.398-3.121c0.75,1.797,2.586,10.144,3.84,10.8
	c1.447,0.68,3.492-1.023,4.32-0.48c1.355,0.705,0.658,1.898,1.439,3.121c1.199,1.119,2.398,2.239,3.602,3.359
	c-0.105,4.706-3.463,4.962-3.602,9.84c0.58,0.641,0.984,1.143,1.68,1.68c-0.078,0.16-0.156,0.32-0.236,0.48
	c-5.104,2.961-7.055,4.372-6.961,12.48c-3.119,1.76-6.24,3.52-9.359,5.278c-0.193,4.929-3.428,6.854-5.521,9.841
	c-0.729,1.045-0.92,3.065-1.922,3.84c-2.314,0.721-4.639,1.439-6.959,2.16c-5.395,2.135-10.639,3.785-17.275,5.041
	c-5.348,1.008-11.791-0.955-16.08-1.922c-6.188-1.392-12.894-0.846-19.201-0.479c-4.262-10.93-10.031-18.971-12.959-31.678
	c-1.033-4.479-1.328-12.699,0.719-16.562c0.721-0.88,1.441-1.761,2.16-2.642c1.514-3.256,1.682-7.66,3.84-10.318
	c0.961-0.479,1.921-0.96,2.881-1.44c0.08-0.08,0.16-0.16,0.24-0.24c1.039-1.76,2.08-3.52,3.119-5.28
	c0.826-1.075,2.553-1.333,3.121-2.64c0.479-1.6,0.959-3.2,1.438-4.8c3.591-2.111,8.125-1.714,13.918-1.68c0.805-2,1.604-4,2.401-6
	c0.318-2.479,0.639-4.96,0.959-7.44c2.957-2.443,5.859-3.345,7.92-6.72c1.578-2.583,1.568-6.057,3.121-8.88
	c0.656-0.606,1.053-0.714,2.398-0.72c2.959,1.04,5.92,2.08,8.879,3.12c0.926-3.402,6.973-5.248,10.32-6
	c3.109,3.269,10.104,3.521,11.279,8.64c-0.08,0.16-0.16,0.32-0.24,0.48c-2.234,1.103-6.635,1.174-9.359,1.92
	c-0.996,1.469-1.479,2.333-1.438,5.04c0.16,0,0.318,0,0.479,0c2.229,1.073,5.258-0.979,6.721-1.68
	c3.238-1.556,6.453-2.336,10.318-1.44c0.76,1.086,1.012,1.745,0.961,3.84c-1.453,3.121-0.969,7.089-2.16,10.08
	C355.983,231.748,351.944,237.866,351.399,246.297z"/>
<path fill="#85BA3C" d="M167.32,210.537c0.32,0,0.64,0,0.96,0c2.25,3.211,5.84,5.606,8.16,8.88
	c5.461,7.708,9.206,16.739,13.68,25.44c1.167,2.271,3.012,3.808,4.08,6.24c3.351,7.633,6.206,17.147,17.28,17.04
	c1.653,5.555,1.826,14.395,4.08,19.92c0.831,2.037,2.645,4.734,4.32,6c0.854,0.645,2.583,1.184,2.881,1.68
	c-5.537,6.373-9.707,10.781-19.917,12.721c-0.622,1.375-0.783,4.156-1.68,5.521c-2.009,3.055-6.233,4.486-8.16,7.682
	c-3.527,5.84-3.94,13.938-10.8,16.318c-9.199,3.193-18.36-2.248-27.6-2.398c-1.129,2.799-3.753,5.222-5.04,8.158
	c-2.968,6.778-6.612,18.735-14.88,19.682c0-0.159,0-0.319,0-0.479c0.951-1.9-0.049-6.013-0.48-7.681
	c-1.179-4.562-2.372-7.856-4.8-11.039c-1.564-2.05-4.859-2.961-6.24-5.041c1.6-2.238,3.2-4.479,4.8-6.72
	c3.377-4.321,8.563-7.715,12.96-11.041c2.954-2.231,5.516-5.18,8.4-7.438c2.962-2.32,7.843-6.07,7.92-11.04
	c-0.08-0.079-0.16-0.159-0.24-0.239c-2.282-0.082-5.119,1.182-6.48-0.721c1.44-1.521,2.88-3.04,4.32-4.561
	c4.948-3.857,15.879-11.775,25.92-9.84c3.021,0.582,5.858,1.058,8.4,2.16c2.91,1.262,3.829,3.43,7.92,3.119
	c3.235-3.65,7.815-4.771,7.44-11.52c-3.925-3.262-7.104-6.121-12.72-7.92c-6.682-2.144-14.312-2.201-19.68-5.521
	c-6.958-4.301-10.391-12.75-17.52-17.04c-3.52-1.278-7.041-2.562-10.56-3.84c-1.02-0.702,0.152-0.771-0.48-1.68
	c-0.622-0.896-3.181-2.226-4.08-2.88c-1.36-0.96-2.72-1.92-4.08-2.88c0-2.88,0-5.76,0-8.64c0.764-1.711,0.085-4.891,1.44-6
	c2.487,2.154,20.152,8.144,20.88,0.72C154.644,219.482,165.064,213.021,167.32,210.537z"/>
<path fill="#85BA3C" d="M142.36,247.256c1.68,0.801,3.36,1.601,5.04,2.4c2.557,0.909,5.12,1.053,7.2,2.399
	c9.191,5.954,12.259,16.024,24.24,19.68c7.4,2.259,23.593,3.522,24.72,11.04c0.95,3.053-5.664,9.104-8.64,9.359
	c-2.358-1.828-5.542-3.604-8.64-4.561c-16.803-5.191-29.744,6.985-37.2,14.641c0.08,0.16,0.16,0.32,0.24,0.479
	c2.219,1.863,4.545,0.685,6.96,0.961c0,0.399,0,0.802,0,1.199c-3.464,3.034-5.673,7.444-9.36,10.317
	c-7.117,5.549-22.499,16.061-25.2,24.961c8.045,2.104,10.526,10.564,12.24,19.199c0.775,3.906-0.413,5.815,0.72,9.359
	c0.666,2.083,2.186,3.707,3.36,5.28c1.856,2.487,3.928,6.458,8.16,6.479c1.457-1.568,1.977-3.369,3.6-4.803
	c4.585-0.309,7.75,1.121,12,1.438c0.322,0.621,0.436,0.84,0.48,1.922c-0.48,2.238-0.96,4.479-1.44,6.721
	c-1.922,6.313-3.498,12.579-5.04,19.682c-0.844,3.887,0.309,8.756,1.2,11.278c0.32,1.04,0.64,2.08,0.96,3.12
	c-4.498,2.916-12.717-0.555-16.56-1.92c-1.84-0.563-3.68-1.12-5.52-1.682c-3.491-0.705-7.08,0.438-9.84,0.959
	c-8.186,1.553-16.172,0.49-23.52,2.399c-5.253,1.367-8.985,4.636-15.12,3.12c-0.08-0.721-0.16-1.439-0.24-2.159
	c0.515-0.991,2.306-7.563,1.92-8.881c-0.464-1.582-2.518-2.569-3.36-3.84c-0.4-1.279-0.8-2.562-1.2-3.841
	c-1.233-3.096-3.296-5.771-5.76-7.68c-7.814-6.063-17.861-8.479-27.839-12.723c-4.007-1.702-7.712-4.12-11.28-6.239
	c-2.24-0.959-4.48-1.92-6.72-2.879c-1.513-1.028-6.207-10.972-6.72-13.2c2.16-0.88,4.32-1.761,6.48-2.641
	c9.63-2.704,16.427-1.348,22.56-7.682c-1.223-6.104-4.431-9.395-7.44-13.682c-1.108-1.578-3.712-3.666-2.88-6.959
	c0.54-2.143,2.206-3.39,3.12-5.041c0.24-0.879,0.48-1.761,0.72-2.64c1.969-1.601,6.726-3.556,10.56-2.882
	c8.534,1.5,28.877,5.147,29.76-5.76c-1.475-2.146-2.17-7.968-0.48-10.32c2.709-1.821,8,1.277,12.24,0.48
	c1.92-0.4,3.84-0.802,5.76-1.199c3.638-1.479,8.432-6.398,13.44-5.041c4.179,1.133,5.865,5.146,8.88,7.438
	c0.562,0.429,2.834,1.981,3.12,1.681c5.576-5.783,7.364-15.625,13.92-20.397c1.481-1.079,3.477-1.095,5.28-1.921
	c1.36-1.119,2.72-2.239,4.08-3.359c3.511-2.277,7.674-2.416,10.08-5.76c-1.277-0.881-2.394-2.145-4.08-2.641
	c-3.6-0.24-7.2-0.479-10.8-0.72c-8.021-1.95-17.847-5.94-19.2-14.399C134.638,253.684,139.727,252.239,142.36,247.256z"/>
<path fill="#85BA3C" d="M435.637,317.577c-0.447,3.399-5.838,3.629-5.039,7.199c0.564,2.523,4.021,3.133,4.801,5.52
	c1.572,4.817,0.045,11.35-0.721,15.361c0.16,4.318,0.318,8.639,0.48,12.959c-1.906,7.645-14.504,16.205-24.234,15.84
	c-9.127-0.344-16.553-3.606-24.24-6c-3.672-1.143-9.564-2.854-14.16-1.438c-4.16,1.275-6.775,4.156-9.84,6.479
	c-8.549,6.479-18.385,16.146-34.08,12.961c0.104-1.391-0.639-2.569-0.961-4.08c-1.092-5.147,0.953-10.633-0.48-15.121
	c-1.232-3.866-3.662-7.243-4.559-11.521c-1.287-6.124,2.641-11.084,4.08-15.118c0.395-1.602,0.799-3.201,1.199-4.802
	c9.119-3.12,18.236-6.239,27.355-9.358c0.08-1.281,0.16-2.562,0.238-3.84c-0.719-2.08-1.438-4.16-2.158-6.24
	c-1.355-2.642-2.721-5.28-4.08-7.92c-0.645-1.492-1.396-3.813-0.721-5.762c1.67-4.759,6.381-6.314,6.961-12.48
	c1.158-0.307,9.063-4.4,9.359-5.039c0-1.119,0-2.239,0-3.359c1.51-3.013,0.934-6.165,3.602-7.92c1.52-0.398,3.039-0.8,4.563-1.2
	c2.188-1.372,3.068-3.636,6.234-4.319c4.109-0.889,7.631,1.772,9.84,3.121c4.564,2.776,9.742,6.77,16.805,6
	c1.068,7.111,8.018,8.969,11.521,13.68C423.917,299.938,421.411,316.445,435.637,317.577z"/>
<path fill="#85BA3C" d="M24.282,274.618c7.078,3.289,13.116,7.485,18.24,12.719c6.199-0.008,9.031-5.612,16.08-4.318
	c2.476,0.454,4.972,1.15,6.72,2.398c1.655,1.185,2.276,3.588,4.8,3.84c1.92,0.722,3.84,1.44,5.76,2.16
	c2.648,1.617,11.246,8.652,12,11.521c-2.919,3.495,0.755,9.01,0,12c-5.031,12.95-32.087-1.641-40.08,7.2
	c-0.16,0.8-0.32,1.6-0.48,2.399c-0.785,1.836-2.828,3.137-3.36,5.521c-1.554,6.965,9.641,12.848,10.08,20.88
	c-1.407,0.993-2.644,2.387-4.32,3.12c-5.303,2.319-12.308,2.032-18.24,3.84c-2.331,0.709-5.225,3.003-7.44,2.16
	c-1.702-1.728-3.093-3.808-5.04-5.28c-7.576-5.734-21.91-12.015-18.48-25.439c1.818-0.35,2.295-0.771,2.16-3.119
	c1.6-1.438,3.2-2.881,4.8-4.318c0.96-2,1.92-4,2.88-6c3.729-6.08,9.507-9.514,18.96-9.84c0-0.16,0-0.32,0-0.479
	c0-0.563,0-1.121,0-1.683c-2.232-5.54-9.29-7.563-10.08-14.88C21.963,285.95,23.151,278.974,24.282,274.618z"/>
<path fill="#85BA3C" d="M223.48,295.977c3.556,0.427,5.711,3.105,8.64,3.84c1.919-0.4,3.84-0.8,5.76-1.199
	c1.55,1.248,3.494,1.855,3.841,4.319c0.719,3.278,1.439,6.56,2.159,9.84c1.279,0.88,2.458,2.076,4.08,2.64
	c1.2,0.24,2.399,0.48,3.601,0.722c-8.871,6.032-22.633,22.204-23.521,35.762c-1.315,0.913-2.396,2.089-4.08,2.644
	c-0.69-5.826-4.163-18.57-9.12-19.684c-4.477,3.771-11.354-0.412-17.76,0.96c-1.52,0.563-3.04,1.12-4.56,1.683
	c-1.738,0.514-4.338,0.291-5.52-0.479c-0.08-0.399-0.16-0.8-0.24-1.2c3.865-2.949,4.654-8.85,6.96-13.439
	c2.879-2.799,5.76-5.6,8.64-8.396c0.32-1.521,0.64-3.041,0.96-4.563C211.296,307.231,221.269,303.426,223.48,295.977z"/>
<path fill="#85BA3C" d="M347.321,304.616c0.195,7.711,7.078,11.877,7.197,21.12c-9.277,3.12-18.561,6.24-27.84,9.36
	c-0.123,6.34-3.633,10.785-5.039,16.56c-1.563,6.413,3.998,13.831,5.279,18.96c1.154,4.639-0.848,9.971,0.48,13.92
	c0,0.881,0,1.76,0,2.641c-0.803,0-1.602,0-2.398,0c-1.783,0.98-10.871,5.359-12,5.039c-3.461-1.582-3.533-6.801-7.44-7.92
	c-3.569-1.021-7.246,1.67-9.602,2.881c-5.766,2.963-11.936,5.813-18.72,7.439c0,0.08,0,0.16,0,0.24c0.399,1.68,0.8,3.359,1.198,5.04
	c1.524,4.188,3.771,7.263,2.642,13.2c-5.315,3.557-26.17,6.345-29.278-0.961c1.813-3.219-1.213-6.877-4.32-6.719
	c-0.479,0.16-0.961,0.316-1.439,0.479c-0.08-0.08-0.16-0.16-0.238-0.238c0.045-0.527-0.246-3.264-0.962-3.842
	c-2.56,0-5.118,0-7.68,0c-8.394,0.004-21.766,0.048-20.64-8.641c0.484-3.733,3.04-4.416,3.122-10.08
	c-1.439-1.039-2.879-2.079-4.322-3.119c-4.042-5.396,4.171-9.389,5.281-12.479c1.215-3.39-1.375-5.537-0.721-8.883
	c2.498-1.257,8.938-4.279,9.12-7.681c1.647-3.14,1.998-6.988,3.358-10.08c3.104-7.04,8.548-13.104,13.682-18.237
	c2.061-2.062,4.95-6.359,8.398-6.723c2.879-0.643,5.762-1.277,8.642-1.92c2.571-0.816,5.563-1.946,8.399-2.643
	c4.479-0.561,8.959-1.121,13.438-1.68c2.942-0.67,7.729-1.837,11.28-1.201c4.879,0.641,9.762,1.28,14.641,1.92
	c3.236,0.68,8.133,1.965,12.238,1.201c5.043-0.938,9.404-1.668,13.682-3.361C339.987,306.939,343.393,305.057,347.321,304.616z"/>
<path fill="#85BA3C" d="M244.359,402.536c0.08,0.721,0.16,1.44,0.24,2.16c-1.279,0.16-2.562,0.32-3.84,0.48
	c-1.218,1.654-0.537,5.398-3.359,5.52c-1.674,1.708-2.771,3.917-4.563,5.52c-4.396,0.16-8.8,0.32-13.197,0.48
	c-10.583,0.955-21.327-0.633-30,1.68c-2.4,0.48-4.8,0.961-7.2,1.44c-1.52,0.64-3.04,1.28-4.56,1.92
	c-0.08-0.079-0.16-0.159-0.24-0.239c-2.088-0.621-4-1.685-6.48-2.16c-4.08,0-8.16,0-12.24,0c-0.72-2.479-1.44-4.961-2.16-7.438
	c-1.753-7.208,2.626-18.332,4.32-23.277c0.459-1.344,2.684-10.824,2.16-11.521c-1.383-1.469-11.649-3.533-14.4-2.159
	c-2.013,1.007-1.8,4.228-4.32,4.562c-3.671-3.612-9.812-8.15-9.12-15.121c8.155-2.146,11.502-11.271,14.64-18.479
	c1.455-3.343,2.734-9.338,7.44-9.359c1.84,0.32,3.68,0.642,5.52,0.961c7.05,1.686,16.574,3.451,22.8-0.239
	c0.701,1.263,3.683,1.955,6,1.438c1.84-0.641,3.68-1.279,5.52-1.92c3.052-0.682,6.736,0.277,9.12,0.721
	c3.911,0.728,6.389-1.049,9.12-1.438c3.295,4.575,4.2,6.942,6,13.438c0.477,1.721,1.813,4.242,0.959,5.76
	c-1.539,3.127-3.914,0.809-3.84,6.722c4.254,6.03-3.953,8.53-5.042,12.96c-1.772,7.201,5.042,5.652,5.042,11.521
	c-0.896,1.256-2.042,3.287-2.642,4.56c-1.401,2.979,0.388,6.364,1.92,7.921C223.011,404.063,234.728,402.668,244.359,402.536z"/>
<text transform="matrix(1 0 0 1 111.5278 485.3638)" font-family="'MyriadPro-Regular'" font-size="24">Gouvernorat de Gafsa</text>
<text transform="matrix(1 0 0 1 58.1235 258.6304)" font-family="'MyriadPro-Regular'" font-size="12">Om El Araies</text>
<text transform="matrix(1 0 0 1 36.1235 311.6304)" font-family="'MyriadPro-Regular'" font-size="12">Redeyef</text>
<text transform="matrix(1 0 0 1 71.1235 365.6304)" font-family="'MyriadPro-Regular'" font-size="12">Métlaoui</text>
<text transform="matrix(1 0 0 1 170.1235 368.6304)" font-family="'MyriadPro-Regular'" font-size="12">Mdhila</text>
<text transform="matrix(1 0 0 1 255.1235 358.6304)" font-family="'MyriadPro-Regular'" font-size="12">El Guettar</text>
<text transform="matrix(1 0 0 1 203.1235 315.6304)" font-family="'MyriadPro-Regular'" font-size="12">El Ksar</text>
<text transform="matrix(1 0 0 1 216.1235 265.6304)" font-family="'MyriadPro-Regular'" font-size="12">Gafsa Nord</text>
<text transform="matrix(1 0 0 1 136.1255 333.0708)" font-family="'MyriadPro-Regular'" font-size="12">Gafsa Sud</text>
<text transform="matrix(1 0 0 1 194.1235 221.6304)" font-family="'MyriadPro-Regular'" font-size="12">Sidi Aïch</text>
<text transform="matrix(1 0 0 1 311.1235 269.6304)" font-family="'MyriadPro-Regular'" font-size="12">Sened</text>
<text transform="matrix(1 0 0 1 371.1235 337.6304)" font-family="'MyriadPro-Regular'" font-size="12">Belkhir</text>
<g>
	<g id="XMLID_1_">
		<g>
			<polygon fill="#85BA3C" points="526.073,78.44 526.506,78.245 526.942,78.335 526.971,78.095 527.077,78.155 527.375,78.44 
				527.452,78.56 527.542,78.65 527.813,78.785 528.307,78.89 528.667,78.92 528.983,79.01 529.551,79.22 529.868,79.295 
				530.016,79.355 530.198,79.385 530.333,79.43 530.586,79.58 530.813,79.745 531.141,79.955 531.247,80.06 531.592,80.3 
				531.682,80.405 532.042,80.63 532.733,80.915 533.092,81.005 533.272,80.54 533.362,80.135 533.438,79.955 533.663,79.76 
				533.903,79.61 534.608,79.325 535.208,78.995 536.375,78.44 536.692,78.35 537.217,78.305 537.772,78.215 538.387,77.975 
				538.85,77.705 539.256,77.825 539.872,78.08 540.112,78.17 541.403,78.71 542.032,78.92 542.528,79.145 542.961,79.19 
				543.833,79.145 544.836,79.16 545.375,79.235 546.051,79.37 546.667,79.415 546.952,79.46 547.372,79.565 547.672,79.685 
				548.573,80.15 548.975,80.39 549.188,80.48 549.292,80.495 549.5,80.48 549.711,80.405 550.342,80.075 550.432,80.06 
				550.522,80.075 550.596,80.165 550.641,80.27 550.641,80.39 550.612,80.495 550.131,81.59 550.012,81.905 549.952,82.22 
				549.967,82.52 550.012,82.7 550.086,82.91 550.25,83.225 550.641,83.705 550.971,84.05 551.391,84.47 551.631,84.665 
				551.961,84.83 552.817,85.055 553.358,85.235 553.583,85.355 553.792,85.505 554.016,85.745 554.438,86.405 554.6,86.615 
				555.038,86.945 555.381,87.155 556.461,87.56 556.85,87.755 556.971,87.83 557.032,87.935 557.122,88.16 557.153,88.445 
				557.153,88.955 557.108,90.29 557.016,91.55 556.762,91.7 556.551,91.79 556.25,91.85 556.131,91.895 555.487,92.285 
				555.262,92.39 554.948,92.48 554.422,92.48 553.221,92.27 552.125,92.135 551.737,92.12 551.483,92.15 550.987,92.315 
				550.012,92.87 549.772,92.975 549.35,93.08 548.256,93.275 547.702,93.335 547.042,93.365 546.413,93.335 545.993,93.17 
				545.782,93.185 545.692,93.215 545,93.515 544.625,93.65 544.282,93.83 544.176,93.935 544.028,94.145 543.938,94.46 
				543.922,94.85 543.938,95.165 543.875,95.405 543.698,95.585 543.368,95.69 543.038,95.675 542.647,95.6 542.391,95.585 
				541.881,95.51 541.522,95.435 541.057,95.285 540.817,95.24 540.682,95.225 540.458,95.27 539.6,95.72 539.362,95.765 
				537.907,95.855 537.532,95.855 536.961,95.93 536.692,95.96 536.153,95.96 535.551,96.035 534.458,95.795 534.141,95.75 
				533.317,95.69 532.342,95.705 531.532,95.735 530.708,95.855 529.042,96.005 528.247,96.02 527.932,95.99 527.842,95.93 
				527.737,95.825 527.647,95.645 527.6,95.225 527.528,94.775 527.407,94.445 527.317,94.325 526.702,93.845 526.493,93.71 
				525.846,93.455 525.096,93.215 524.631,93.095 523.747,93.035 523.625,93.005 523.417,92.87 523.342,92.765 522.922,92.045 
				522.725,91.76 522.563,91.55 522.141,91.145 521.676,90.755 521.333,90.53 520.342,89.96 519.922,89.66 519.938,89.555 
				520.147,89.27 520.958,88.28 521.301,87.935 521.858,87.845 522.172,87.815 522.307,87.815 522.667,87.77 522.907,87.65 
				522.983,87.56 522.983,87.47 522.833,87.275 522.35,86.885 521.903,86.465 521.721,86.27 521.692,86.165 521.692,85.955 
				521.766,85.73 521.872,85.49 522.067,84.965 522.141,84.665 522.202,84.32 522.172,84.125 522.157,84.095 522.172,84.08 
				522.397,83.75 523.073,83.525 523.192,83.285 523.327,83.255 523.551,82.61 523.747,82.535 523.807,82.565 523.881,82.55 
				524.375,82.52 524.422,82.49 524.528,82.43 524.586,82.19 524.512,81.995 524.573,81.785 524.961,81.575 525.458,81.515 
				525.577,81.245 525.413,80.84 525.743,80.54 525.756,80.27 525.563,79.94 525.336,79.565 525.471,79.13 			"/>
		</g>
		<g>
			<polygon fill="none" stroke="#666666" stroke-width="0.25" stroke-linejoin="round" stroke-miterlimit="3.8637" points="
				542.108,0.125 542.198,0.14 542.333,0.29 542.512,0.41 542.528,0.575 542.362,0.755 542.272,0.785 542.063,0.695 541.403,0.89 
				541.147,0.83 541.1,0.755 541.131,0.65 541.475,0.425 541.85,0.395 541.942,0.35 542,0.2 			"/>
			<polygon fill="none" stroke="#666666" stroke-width="0.25" stroke-linejoin="round" stroke-miterlimit="3.8637" points="
				562.567,9.155 562.567,9.02 562.733,8.72 562.85,8.6 563,8.585 562.958,8.855 562.85,9.02 			"/>
			<polygon fill="none" stroke="#666666" stroke-width="0.25" stroke-linejoin="round" stroke-miterlimit="3.8637" points="
				586.958,11.825 586.881,11.78 586.897,11.57 587.077,11.435 587.108,11.27 587.243,11.225 587.346,11.48 587.557,11.75 
				587.452,11.825 			"/>
			<polygon fill="none" stroke="#666666" stroke-width="0.25" stroke-linejoin="round" stroke-miterlimit="3.8637" points="
				588.967,12.08 588.997,12.17 588.922,12.23 588.833,12.17 588.862,12.095 			"/>
			<polygon fill="none" stroke="#666666" stroke-width="0.25" stroke-linejoin="round" stroke-miterlimit="3.8637" points="
				592.672,48.665 592.522,48.635 592.461,48.545 592.506,48.455 592.688,48.23 592.926,48.245 593.047,48.5 592.897,48.605 			"/>
			<polygon fill="none" stroke="#666666" stroke-width="0.25" stroke-linejoin="round" stroke-miterlimit="3.8637" points="
				592.221,49.4 592.028,49.175 592.118,49.085 592.237,49.13 592.282,49.22 			"/>
			<polygon fill="none" stroke="#666666" stroke-width="0.25" stroke-linejoin="round" stroke-miterlimit="3.8637" points="
				593,52.97 592.85,52.88 592.522,52.79 592.461,52.715 592.493,52.625 592.733,52.7 593.032,52.91 			"/>
			<polygon fill="none" stroke="#666666" stroke-width="0.25" stroke-linejoin="round" stroke-miterlimit="3.8637" points="
				599.512,75.635 599.375,75.59 599.333,75.47 599.288,75.35 599.407,75.32 599.6,75.53 599.961,75.695 599.813,75.755 
				599.631,75.74 			"/>
			<polygon fill="none" stroke="#666666" stroke-width="0.25" stroke-linejoin="round" stroke-miterlimit="3.8637" points="
				597.247,76.235 597.125,76.13 597.157,76.07 597.292,76.055 597.413,76.19 597.5,76.295 597.458,76.325 			"/>
			<polygon fill="none" stroke="#666666" stroke-width="0.25" stroke-linejoin="round" stroke-miterlimit="3.8637" points="
				599.301,77.12 599.272,77.15 599.077,77.03 598.971,76.91 598.971,76.835 599.047,76.82 599.092,76.94 			"/>
			<polygon fill="none" stroke="#666666" stroke-width="0.25" stroke-linejoin="round" stroke-miterlimit="3.8637" points="
				599.362,77.615 599.317,77.435 599.391,77.3 599.6,77.18 600.067,77.195 600.112,77.255 600.083,77.315 599.797,77.315 
				599.573,77.375 599.422,77.585 			"/>
			<polygon fill="none" stroke="#666666" stroke-width="0.25" stroke-linejoin="round" stroke-miterlimit="3.8637" points="
				595.987,78.005 595.958,77.945 595.913,77.795 595.926,77.795 595.958,77.705 596.108,77.75 596.137,77.285 596.047,77.165 
				596.092,77.12 596.288,77.21 596.317,77.45 596.391,77.54 596.797,77.69 597.141,77.66 597.336,77.765 597.381,77.735 
				597.35,77.63 597.307,77.525 597.471,77.45 597.413,77.27 597.458,76.955 597.336,76.835 597.233,76.715 597.188,76.655 
				597.188,76.55 597.413,76.565 597.458,76.535 597.801,76.235 597.756,76.07 597.725,75.92 597.875,75.74 597.801,75.665 
				597.788,75.56 597.891,75.44 597.891,75.32 598.057,75.38 598.25,75.47 598.417,75.755 598.461,75.845 598.475,75.905 
				598.551,75.995 598.612,75.995 598.672,75.935 598.672,75.77 598.506,75.68 598.567,75.575 598.672,75.59 598.881,75.77 
				599.137,75.77 599.6,76.025 599.573,76.1 599.407,76.1 599.256,75.98 599.137,75.98 598.958,76.085 598.971,76.22 598.913,76.25 
				598.868,76.325 598.913,76.4 598.913,76.55 598.942,76.61 598.85,76.685 598.717,76.73 598.625,76.64 598.612,76.865 
				598.625,77.045 598.971,77.285 599.153,77.48 599.225,77.69 599.225,77.885 599.182,77.96 598.85,77.96 598.702,78.005 
				598.506,78.14 598.313,78.305 598.042,78.305 598.028,78.455 597.952,78.515 596.993,78.845 596.692,78.905 596.167,79.16 
				596.077,79.28 596.063,79.31 595.926,79.4 595.688,79.475 595.448,79.64 595.192,79.715 595.042,79.835 594.997,79.82 
				594.967,79.82 594.938,79.49 595.118,79.22 595.147,79.04 595.221,78.875 595.387,78.8 595.551,78.665 595.717,78.335 
				595.971,78.08 596,78.05 			"/>
			<polygon fill="none" stroke="#666666" stroke-width="0.25" stroke-linejoin="round" stroke-miterlimit="3.8637" points="
				592.372,80.825 592.25,80.81 592.028,80.69 591.725,80.435 591.323,80.255 591.217,80.195 591.547,79.85 591.592,79.805 
				591.756,79.73 592.958,79.67 593.122,79.76 593.333,79.67 593.663,79.67 594.083,79.655 594.217,79.745 594.592,79.76 
				594.801,79.82 594.788,79.955 594.788,80.03 594.743,80.06 594.426,80.12 593.872,80.525 593.346,81.05 593.211,81.05 
				593.108,81.11 593.092,81.245 593.047,81.275 592.747,80.945 592.612,80.855 			"/>
			<polygon fill="none" stroke="#666666" stroke-width="0.25" stroke-linejoin="round" stroke-miterlimit="3.8637" points="
				586.387,107.03 586.506,107.06 586.551,107.24 586.475,107.285 			"/>
			<polygon fill="none" stroke="#666666" stroke-width="0.25" stroke-linejoin="round" stroke-miterlimit="3.8637" points="
				589.897,107.255 589.567,107.39 589.327,107.615 589.25,107.735 589.118,108.62 588.983,108.53 588.743,107.9 588.756,107.72 
				588.907,107.48 588.997,107.3 588.891,107.105 588.756,106.865 587.858,105.8 587.692,105.74 587.452,105.725 587.317,105.77 
				587.108,105.95 586.971,106.01 586.823,106.1 586.747,106.4 586.747,106.685 586.417,106.595 586.282,106.685 586.147,106.7 
				585.997,106.595 585.772,106.22 585.637,106.13 585.5,105.68 585.323,105.35 585.381,105.14 585.381,104.855 585.381,104.795 
				585.516,104.645 585.698,104.33 585.756,104.09 585.725,103.22 585.756,103.04 585.682,102.515 585.725,102.305 585.756,102.185 
				585.682,101.69 585.743,101.585 585.891,101.51 586.073,101.435 586.612,101.315 586.868,101.225 587.467,101.285 
				587.797,101.375 588.608,101.72 588.997,101.81 589.778,101.81 590.211,101.96 590.288,101.75 590.225,101.555 590.225,101.42 
				590.391,101.435 590.438,101.435 590.631,101.6 591.125,102.2 591.426,102.455 592.403,103.145 593.016,103.16 593.225,103.175 
				593.407,103.265 593.483,103.415 593.362,103.655 593.422,103.76 593.573,104.075 593.497,104.165 593.422,104.165 
				593.272,104.015 593.225,104.075 593.288,104.18 593.438,104.255 593.483,104.33 593.483,104.54 593.438,104.585 593.198,104.57 
				592.823,104.75 592.522,105.095 592.461,105.17 591.788,105.44 591.772,105.455 591.698,105.485 591.532,105.65 591.381,105.98 
				591.278,106.49 591.262,107.09 591.141,107.225 591.112,107.06 591.067,106.82 591.125,106.34 591.038,106.13 590.948,106.025 
				590.782,106.1 590.631,106.295 590.362,106.895 590.182,106.97 590.182,106.985 			"/>
			<polygon fill="none" stroke="#666666" stroke-width="0.25" stroke-linejoin="round" stroke-miterlimit="3.8637" points="
				588.667,109.715 588.622,109.445 588.682,109.4 588.756,109.4 588.801,109.49 588.756,109.61 			"/>
			<polygon fill="none" stroke="#666666" stroke-width="0.25" stroke-linejoin="round" stroke-miterlimit="3.8637" points="
				587.167,111.935 587.288,112.1 587.301,112.22 587.167,112.4 587.092,112.355 587.122,112.22 587.092,112.055 587.047,111.98 
				587.047,111.92 			"/>
			<polygon fill="none" stroke="#666666" stroke-width="0.25" stroke-linejoin="round" stroke-miterlimit="3.8637" points="
				595.147,115.73 594.756,115.1 594.788,114.965 595.221,115.445 595.25,115.58 			"/>
			<polyline fill="none" stroke="#666666" stroke-width="0.25" stroke-linejoin="round" stroke-miterlimit="3.8637" points="
				500.077,16.715 500.452,16.34 500.813,16.055 501.038,15.77 501.323,15.32 501.458,14.735 501.413,14.45 501.217,14.27 
				501.141,14.12 500.586,13.835 500.333,13.64 500.182,13.61 500.063,13.49 			"/>
			<polyline fill="none" stroke="#666666" stroke-width="0.25" stroke-linejoin="round" stroke-miterlimit="3.8637" points="
				500.077,12.905 500.375,12.695 500.647,12.77 500.872,12.77 501.233,12.875 501.413,13.025 501.653,13.1 501.653,13.115 
				501.725,13.22 501.922,13.22 502.042,13.16 502.131,13.025 502.1,12.92 502.387,12.875 502.583,12.965 503.047,13.19 
				503.272,13.265 503.512,13.25 503.858,13.1 504.096,13.115 504.217,12.995 504.202,12.815 504.368,12.785 504.426,12.725 
				504.577,12.755 504.667,12.845 504.788,12.875 504.682,13.115 504.516,13.31 504.532,13.43 504.725,13.64 504.862,13.7 
				504.983,13.76 505.131,13.94 505.282,13.97 505.688,13.94 506.032,13.835 506.467,13.79 506.708,13.805 507.006,13.91 
				507.323,13.925 507.471,13.985 507.756,14.225 507.983,14.525 508.147,14.66 508.522,14.93 508.641,15.215 509.647,15.89 
				509.993,16.025 510.323,16.085 510.487,16.04 510.756,16.055 511.028,15.8 511.086,15.68 511.147,15.71 511.118,15.785 
				511.221,15.905 511.475,15.95 511.567,15.86 511.657,15.875 511.733,16.01 511.958,16.16 512.077,16.1 512.153,16.1 
				512.198,16.415 512.256,16.49 512.422,16.46 512.647,16.355 513.471,16.295 513.756,16.235 513.817,16.175 513.983,16.01 
				514.118,15.95 514.25,15.95 514.342,16.01 514.342,16.1 514.131,16.295 514.1,16.46 513.938,16.55 513.698,17.06 513.711,17.18 
				514.073,17.69 514.1,17.795 513.967,17.975 513.698,18.38 513.698,18.5 513.907,18.68 514.237,18.98 514.493,19.145 
				515.813,19.49 516.938,19.49 517.836,19.37 517.987,19.385 518.182,19.505 518.225,19.355 518.676,19.16 520.237,18.74 
				520.926,18.35 521.422,18.2 521.586,18.125 521.782,18.02 522.458,17.585 523.1,17.36 523.475,17.135 523.897,16.94 
				524.167,16.745 524.483,16.7 524.766,16.505 524.887,16.475 524.932,16.475 525.096,16.46 525.172,16.58 525.188,16.835 
				525.278,16.895 525.698,16.955 525.788,17.015 525.801,17.105 525.756,17.255 525.817,17.315 526.237,17.435 527,17.36 
				527.256,17.3 527.467,17.3 527.557,17.345 527.903,17.33 527.932,17.315 528.157,17.27 528.368,17.42 529.012,17.405 
				529.192,17.54 529.448,17.885 529.762,17.93 529.987,17.84 530.122,17.855 530.288,17.945 530.483,17.9 530.647,17.93 
				530.827,17.84 531.336,17.795 531.653,17.75 531.983,17.585 532.25,17.42 532.596,17.285 532.641,17.27 532.657,17.27 
				533.872,16.94 534.051,16.745 534.141,16.745 534.323,16.895 534.711,16.85 534.891,16.7 			"/>
			<polyline fill="none" stroke="#666666" stroke-width="0.25" stroke-linejoin="round" stroke-miterlimit="3.8637" points="
				605.528,121.64 605.813,121.88 606.157,122.165 606.622,122.885 606.967,123.08 607.25,123.11 607.417,123.365 607.733,123.515 
				608.288,123.665 608.631,123.65 610.358,124.04 610.807,124.07 611.256,124.175 611.301,123.92 610.913,123.74 610.387,123.59 
				610.131,123.365 609.637,123.17 609.413,123.125 609.217,123.215 608.887,122.975 608.663,122.855 608.557,122.63 
				608.975,122.81 609.292,122.915 610.1,123.185 610.596,123.38 610.807,123.545 611.467,123.875 612.608,124.31 613.372,124.61 
				613.583,124.745 			"/>
			<polyline fill="none" stroke="#666666" stroke-width="0.25" stroke-linejoin="round" stroke-miterlimit="3.8637" points="
				572.422,11.855 572.467,11.84 572.6,11.51 572.528,11.255 572.573,11.12 572.692,11.195 572.75,11.54 572.813,11.645 
				572.813,11.66 572.993,11.825 573.442,12.05 573.487,12.14 573.516,12.35 573.413,12.53 573.247,12.56 573.141,12.53 
				573.125,12.47 573.233,12.305 573.202,12.23 573.038,12.155 572.961,12.14 572.708,12.23 572.317,12.29 572.211,12.425 
				572.256,12.47 572.333,12.47 572.497,12.38 572.256,12.77 572,13.43 572.016,13.85 571.881,13.715 571.792,13.745 
				571.942,13.955 571.868,14.03 571.913,14.075 572,14.045 572.077,14.09 572.198,14.405 572.198,14.465 572.225,14.69 
				572.542,15.38 572.975,15.935 573.891,16.73 574.403,17.09 574.493,17.12 574.688,17.21 574.702,17.21 575.288,17.33 
				575.391,17.42 575.483,17.555 575.422,17.675 575.407,17.705 575.483,17.975 575.586,18.125 575.721,18.2 575.813,18.245 
				575.858,18.275 575.961,18.35 576.278,18.575 576.307,18.71 576.292,18.815 576.022,18.875 575.858,19.145 575.663,19.31 
				575.647,19.52 575.182,20.165 575.122,20.345 574.897,20.39 574.971,20.525 574.717,20.615 574.625,20.705 574.583,20.885 
				574.85,21.38 574.836,21.44 575.211,21.875 575.542,22.28 575.737,22.415 575.903,22.535 576.413,22.79 576.608,22.865 
				576.653,22.88 577.057,22.985 577.461,23.015 577.688,22.985 577.971,22.94 578.211,22.895 578.872,22.655 579.233,22.445 
				579.336,22.565 579.217,22.715 579.262,22.79 579.426,22.76 579.532,22.67 579.368,22.415 579.397,22.37 580.551,21.935 
				580.807,21.74 580.942,21.56 581.077,21.125 581.288,20.705 581.362,20.21 581.497,19.94 581.542,19.565 581.6,19.385 
				581.827,19.295 581.872,19.175 581.842,18.935 582.217,18.83 582.471,18.62 582.516,18.44 582.653,18.41 582.846,18.575 
				583.733,18.32 584,18.425 584.676,18.395 584.948,18.32 585.247,18.23 585.547,18.065 585.698,17.99 585.983,17.795 
				586.506,17.3 586.958,16.865 587.391,16.775 587.663,16.46 587.766,16.415 587.827,16.28 587.975,16.325 588.426,16.025 
				588.622,15.875 588.938,15.545 589.042,15.515 589.266,15.26 589.448,14.855 589.747,14.9 589.836,14.81 589.85,14.495 
				589.672,14.285 589.747,14.225 589.733,14.12 589.657,14.045 589.733,13.91 589.717,13.775 589.762,13.715 589.85,13.73 
				589.913,13.85 590.047,13.79 590.301,13.715 590.467,13.7 590.663,13.61 591.006,13.61 591.233,13.7 591.997,13.415 
				592.266,13.19 592.551,13.085 592.688,12.995 592.733,12.86 592.702,12.695 592.778,12.62 592.913,12.755 593,12.755 
				593.016,12.86 593.016,12.89 593.167,13.01 593.272,12.965 593.333,13.04 593.346,13.265 593.452,13.43 593.708,13.655 
				593.737,13.82 593.676,13.895 593.497,13.88 593.391,13.97 593.317,14.525 593.362,14.855 593.512,15.215 593.813,15.665 
				594.217,16.25 594.577,17.99 594.756,18.245 595.057,18.455 595.118,18.665 595.086,18.83 595.042,19.04 594.801,19.595 
				594.637,19.73 594.397,19.73 593.782,19.985 593.557,20.195 593.375,20.285 593.301,20.345 592.778,20.81 592.551,21.14 
				592.237,21.47 591.711,22.145 591.067,23.15 590.438,24.32 589.913,24.86 589.282,26.165 589.25,26.195 589.086,26.375 
				588.743,27.125 588.487,27.665 588.038,28.94 587.467,30.08 587.301,30.245 587.211,30.29 587.016,30.365 586.942,30.455 
				586.717,30.41 586.551,30.485 586.417,30.47 585.862,30.665 585.622,30.68 585.487,30.785 585.413,30.785 585.188,30.785 
				584.858,30.98 584.317,31.175 583.942,31.415 583.583,31.745 583.327,31.775 583.237,31.88 583.057,31.835 582.875,31.97 
				582.637,32.015 582.233,31.79 582.157,31.775 581.903,31.775 581.647,31.91 581.288,32.195 580.881,32.63 580.493,33.26 
				580.313,33.53 580.057,34.04 579.938,34.4 579.667,35.075 579.471,35.63 579.125,37.565 579.096,38.18 579.067,38.675 
				579.083,39.26 579.516,41.645 579.788,41.9 579.922,41.975 580.163,42.02 580.25,42.065 580.358,42.2 580.403,42.455 
				580.342,42.65 580.432,42.815 580.417,43.025 580.475,43.295 581.137,44.36 581.557,44.765 582.247,45.785 582.262,45.965 
				582.278,46.085 582.35,46.265 582.622,46.565 582.846,47.03 582.907,47.135 583.417,47.585 583.522,48.065 583.688,48.2 
				584.407,48.77 584.422,48.77 584.903,49.025 585.112,49.205 585.292,49.31 585.743,49.325 585.983,49.265 586.073,49.25 
				586.596,49.01 586.747,48.89 586.942,48.935 587.198,48.815 587.346,48.89 587.75,48.935 587.842,49.085 588.022,49.22 
				588.067,49.325 587.721,49.91 587.721,50.075 587.797,50.27 587.782,50.39 587.692,50.27 587.6,50.255 587.557,50.3 
				587.557,50.645 587.6,50.885 587.721,51.08 587.948,51.245 588.471,51.5 588.667,51.56 588.772,51.53 588.952,51.755 
				589.208,51.845 589.372,51.95 589.942,52.07 590.692,52.25 590.961,52.385 591.336,52.4 591.5,52.46 591.622,52.67 
				591.938,52.76 592.086,52.91 592.733,53.015 593.047,53.18 593.077,53.33 593.063,53.45 592.971,53.885 592.747,54.29 
				592.688,54.74 592.688,54.965 592.688,55.205 592.762,55.505 593.047,56.18 593.301,56.405 593.497,56.465 593.858,56.45 
				593.887,56.54 593.676,56.705 593.452,56.795 593.362,56.945 592.913,58.595 593.047,59.42 593.063,59.585 592.762,59.915 
				592.733,60.365 592.762,60.875 592.823,61.265 592.868,61.355 593.016,61.685 593.872,62.615 594.067,62.87 594.516,63.245 
				594.547,63.29 594.653,63.395 594.801,63.575 595.25,63.935 595.297,63.95 595.688,64.145 595.733,64.22 595.733,64.28 
				595.733,64.295 595.733,64.355 595.733,64.37 595.672,64.355 595.596,64.4 595.297,64.4 594.952,64.385 594.833,64.46 
				594.516,64.91 594.547,65.165 594.426,65.315 593.961,65.975 593.975,66.2 593.797,66.29 593.6,66.26 593.422,66.335 
				593.288,66.335 593.122,66.425 592.551,67.565 592.493,67.88 592.506,68.18 592.625,68.405 592.641,68.465 592.567,68.57 
				592.506,69.29 592.417,69.56 592.192,69.905 592.057,70.235 591.667,70.46 591.172,70.775 590.813,71.015 590.362,71.39 
				590.182,71.54 590.077,71.84 590.063,72.455 590.108,72.68 590.063,72.92 590.122,73.355 590.016,73.88 589.792,74.18 
				589.342,74.585 589.221,74.78 589.118,75.065 588.743,75.395 588.653,75.545 588.653,75.725 588.725,75.83 588.743,75.86 
				588.846,76.055 588.833,76.205 588.743,76.265 588.397,76.28 588.006,76.4 587.858,76.535 587.618,76.73 587.438,76.97 
				587.243,77.03 586.971,77.3 586.358,77.735 586.403,77.84 586.612,78.005 586.672,78.155 586.672,78.29 586.625,78.2 
				586.493,78.125 586.403,78.14 586.432,78.245 586.372,78.245 586.266,78.26 586.163,78.275 586.1,78.275 586.057,78.335 
				585.983,78.44 585.983,78.47 585.922,78.635 585.907,78.74 585.875,78.845 585.833,79.01 585.891,79.265 585.891,79.475 
				585.487,80.03 585.368,80.315 585.217,80.465 585.083,80.48 584.872,80.495 584.827,80.495 584.75,80.495 584.647,80.51 
				584.407,80.51 584.225,80.465 583.778,80.675 583.733,80.675 583.612,80.705 583.372,80.87 583.221,81.185 583.073,81.32 
				582.967,81.35 582.891,81.62 582.725,81.89 582.336,82.28 582.233,82.565 582.247,83.255 582.202,83.375 582.022,83.51 
				581.407,83.855 581.288,83.855 581.288,83.765 581.198,83.705 581.032,83.735 580.567,83.93 580.506,83.825 580.028,83.855 
				579.772,84.005 579.756,84.005 579.083,84.275 578.917,84.335 578.272,84.8 578.153,85.07 577.432,85.97 577.327,86.135 
				577.297,86.165 577.25,86.24 577.192,86.33 576.997,86.585 576.725,86.765 576.592,86.78 576.381,86.54 576.233,86.54 
				576.125,86.63 576.051,86.87 575.932,86.81 575.842,86.945 575.903,87.02 576.006,87.02 576.096,86.96 576.188,86.885 
				576.292,86.795 576.368,86.81 576.397,86.855 576.35,87.11 576.233,87.23 575.842,87.395 575.692,87.455 575.557,87.41 
				575.467,87.365 575.167,87.29 575.032,87.17 574.897,87.185 574.762,87.29 574.538,87.335 574.475,87.395 574.493,87.74 
				574.403,87.95 574.358,88.07 574.266,88.13 573.983,88.205 573.875,88.205 573.698,88.205 573.563,88.265 573.217,88.595 
				573.006,88.745 572.872,88.79 572.782,88.595 572.676,88.565 572.483,88.49 572.063,89.225 571.987,89.195 571.897,89.345 
				571.567,89.3 570.983,89.6 570.772,89.645 570.413,89.96 570.247,90.155 569.961,90.695 569.782,90.92 569.557,91.46 
				569.362,91.94 568.958,92.555 568.823,92.69 568.807,92.915 568.702,93.41 568.612,93.56 568.266,93.545 568.192,93.635 
				568.192,93.77 568.358,93.965 568.417,94.235 568.417,94.325 568.493,94.805 568.432,95.015 568.403,95.12 568.387,95.345 
				568.493,95.51 568.551,95.81 568.567,96.305 568.672,96.785 568.625,96.965 568.625,97.22 568.85,97.775 568.868,98.135 
				568.823,98.18 568.657,98.18 568.583,98.21 568.448,98.27 568.012,98.285 568.012,98.36 568.1,98.42 568.868,98.255 569,98.48 
				569.137,98.6 569.288,98.87 569.483,99.605 569.663,99.905 570.233,100.835 570.563,101.195 570.833,101.705 571.641,102.56 
				571.778,102.74 572.167,103.265 572.182,103.385 572.137,103.505 572.167,103.565 572.225,103.505 572.317,103.49 
				572.391,103.625 572.542,103.67 572.708,103.79 573.006,104.15 573.172,104.27 573.487,104.435 573.653,104.585 573.817,104.675 
				573.846,104.735 573.756,104.96 574.012,104.87 574.25,104.93 574.327,105.02 574.372,105.23 574.596,105.515 574.567,105.605 
				574.792,105.62 574.971,105.755 575.483,106.16 575.797,106.505 577.012,107.285 577.868,107.69 577.913,107.765 578.016,107.75 
				578.211,107.72 578.375,107.795 579.083,107.93 579.217,107.99 579.233,107.99 579.262,108.02 579.35,108.065 579.397,108.2 
				579.112,108.245 579.083,108.38 578.948,108.53 578.827,108.575 578.631,108.53 578.497,108.68 578.512,108.83 578.573,108.815 
				578.631,108.68 578.842,108.68 579.083,108.545 579.217,108.32 579.368,108.305 579.442,108.35 579.471,108.53 579.592,108.605 
				579.817,108.485 580.417,108.17 580.913,108.155 581.362,108.05 581.346,108.185 581.301,108.5 581.375,108.56 581.647,108.605 
				581.676,108.71 581.993,108.53 581.961,108.47 581.721,108.5 581.542,108.47 581.422,108.365 581.422,108.32 581.422,108.215 
				581.467,108.14 581.497,108.065 581.647,107.96 582.067,107.84 582.516,107.6 582.637,107.6 583.25,107.405 583.493,107.285 
				583.612,107.135 584.077,106.805 584.167,106.76 584.438,106.625 584.708,106.49 585.006,106.445 585.202,106.52 585.471,106.7 
				585.667,106.955 585.711,107.105 585.698,107.3 585.516,108.08 585.35,108.41 585.413,108.785 585.426,108.965 585.458,109.115 
				585.397,109.385 585.278,109.595 585.172,109.955 585.067,110.135 584.813,110.255 584.618,110.45 584.362,110.57 
				584.256,110.675 584.198,110.9 584.211,110.945 584.225,111.14 584.288,111.305 584.362,111.44 584.467,111.605 584.497,111.665 
				584.586,111.815 584.631,111.98 584.573,112.235 584.618,112.4 584.917,112.58 585.35,112.655 585.577,112.73 585.862,112.985 
				585.967,113 586.192,112.985 586.583,112.97 586.836,112.82 587.375,112.535 587.528,112.535 587.782,112.34 587.961,112.295 
				588.006,112.265 588.262,112.04 588.891,111.89 589.118,111.755 589.372,111.71 590,111.515 590.167,111.425 590.557,110.825 
				590.618,110.585 590.586,110.36 590.573,110.33 590.452,110.075 590.288,109.91 590.225,109.73 589.971,109.505 589.778,109.49 
				589.747,109.4 589.792,109.16 589.987,108.995 590.438,108.815 590.573,108.725 590.676,108.65 590.782,108.65 590.797,108.65 
				591.217,108.8 591.637,108.785 591.711,108.695 591.608,108.53 591.608,108.41 591.725,108.395 591.846,108.545 592.221,108.545 
				592.778,108.905 593.108,108.905 593.467,109.19 593.631,109.415 593.948,109.715 594.125,109.955 594.442,110.36 
				594.667,110.855 594.846,111.365 594.891,112.52 594.637,112.835 594.532,113.18 594.323,113.9 594.262,114.08 594.278,114.125 
				594.323,114.29 594.516,114.545 594.592,115.01 594.817,115.415 594.922,115.73 594.922,115.955 594.833,116.075 594.772,116.33 
				594.907,116.285 594.922,116.27 595.208,116.03 595.461,116.075 595.868,116.42 596.047,116.705 596.153,116.975 
				596.182,117.065 596.362,117.17 596.842,117.425 597.141,117.53 597.381,117.605 597.516,117.725 597.833,117.815 
				598.192,118.055 598.733,118.28 599,118.475 599.047,118.565 598.987,118.64 598.823,118.64 598.583,118.52 597.608,118.04 
				597.038,117.92 596.858,117.815 596.346,117.65 595.897,117.425 595.567,117.41 595.372,117.545 595.25,117.5 595.1,117.665 
				595.086,117.89 594.997,118.025 594.983,118.205 595.028,118.37 595.237,118.58 595.475,118.955 595.641,119.015 
				595.868,119.225 595.913,119.42 596.077,119.69 596.092,119.96 596.092,120.08 596.301,120.485 596.467,120.62 596.631,120.635 
				596.766,120.53 596.932,120.575 597.217,120.56 597.278,120.56 597.608,120.635 598.538,120.65 599.153,120.875 599.198,120.875 
				600.653,121.235 600.875,121.235 600.967,121.28 601.221,121.295 601.327,121.235 601.432,121.115 601.567,121.1 601.807,121.28 
				602.047,121.37 602.586,121.355 602.708,121.22 602.692,121.085 602.708,121.025 602.737,120.95 602.272,120.665 602.122,120.56 
				601.762,120.38 600.487,119.33 600.278,119.15 599.887,118.985 599.872,118.925 599.975,118.91 600.172,118.955 600.698,119.315 
				601.807,120.23 602.137,120.455 602.182,120.47 604.042,121.445 604.475,121.58 604.971,121.67 605.346,121.67 605.512,121.64 
							"/>
			<polyline fill="none" stroke="#666666" stroke-width="0.25" stroke-linejoin="round" stroke-miterlimit="3.8637" points="
				534.907,16.7 535.733,16.31 536.362,16.115 536.452,15.965 536.542,15.965 536.6,16.115 536.903,16.1 537.083,16.04 
				537.188,15.95 537.292,15.965 537.471,16.13 537.637,16.07 537.756,16.175 537.938,16.445 538.342,16.355 538.913,16.13 
				539.333,15.845 539.586,15.695 540.096,15.425 540.801,14.87 540.997,14.69 541.596,14.135 542.063,13.7 542.317,13.46 
				542.737,12.98 542.782,12.77 543.125,12.275 543.112,12.23 542.993,12.245 542.993,12.14 543.336,11.975 543.532,11.885 
				543.667,11.705 543.952,11.525 544.147,11.315 544.327,11.24 544.403,11.12 544.747,10.925 545.063,10.85 545.483,10.655 
				545.497,10.655 545.797,10.64 546.487,10.505 546.592,10.415 546.725,10.31 547.208,10.055 547.387,9.92 547.506,9.695 
				547.778,9.44 548.047,8.96 548.256,8.735 548.6,8.6 548.708,8.48 548.827,8.465 549.022,9.005 549.096,9.05 549.292,9.05 
				549.772,9.065 549.891,8.975 550.208,8.96 550.702,8.705 550.836,8.735 551.497,8.72 551.797,8.645 551.932,8.57 552.801,8.105 
				552.952,8 553.042,7.835 553.313,7.79 553.493,7.715 553.583,7.67 554.047,7.685 554.497,7.85 554.872,7.82 555.35,7.625 
				556.583,6.83 556.868,6.695 557.016,6.695 557.108,6.725 557.362,6.995 557.557,7.01 557.663,6.935 558.067,6.815 558.381,6.665 
				558.862,6.335 559.372,5.87 559.583,5.87 559.747,5.765 559.823,5.765 559.897,5.855 560.077,5.87 560.225,5.78 560.391,5.855 
				560.766,5.885 561.141,5.75 561.5,5.555 561.653,5.57 561.801,5.525 561.891,5.795 562.057,5.945 562.266,6.035 562.475,6.08 
				562.85,6.08 563.153,5.975 563.452,5.885 563.75,5.885 563.993,5.945 564.426,5.93 564.563,6.755 564.682,6.965 564.653,7.16 
				564.756,7.295 564.743,7.415 564.743,7.625 564.725,7.625 564.637,7.7 564.608,7.73 564.487,7.82 564.471,7.835 564.233,7.82 
				564.125,7.88 564.262,8.015 563.903,8.15 563.766,8.27 563.647,8.24 563.557,8.24 563.497,8.33 563.333,8.405 563.333,8.51 
				563.167,8.42 563.016,8.42 562.702,8.54 562.475,8.525 562.372,8.51 562.387,8.6 562.417,8.81 562.372,8.975 562.327,8.99 
				562.147,8.855 562.131,8.855 561.983,9.005 562.057,9.125 562.073,9.125 562.131,9.125 562.25,9.215 562.358,9.47 562.475,9.395 
				562.596,9.41 562.596,9.5 562.461,9.95 562.475,10.115 562.551,10.235 562.942,10.355 562.971,10.46 563.137,10.535 
				563.063,10.88 563.092,11.045 563.182,11.15 563.512,11.255 563.827,11.3 564.112,11.285 564.278,11.345 564.516,11.375 
				564.622,11.33 564.833,11.105 565.1,10.88 565.358,10.835 565.612,10.61 565.926,10.115 566.077,9.785 566.122,9.515 
				566.092,9.275 565.987,8.99 565.85,8.915 565.266,8.9 564.938,8.855 564.471,8.69 564.307,8.72 564.096,8.84 563.917,8.885 
				563.647,8.885 563.586,8.87 563.483,8.825 563.497,8.735 563.766,8.645 563.858,8.42 563.903,8.375 564.262,8.285 564.442,8.15 
				564.592,7.925 564.698,7.805 564.862,7.655 565.057,7.7 565.118,7.79 565.358,7.94 565.612,8.03 566.301,8.18 566.407,8.195 
				566.961,8.24 567.698,8.255 567.756,8.255 567.862,8.24 568.176,8.195 568.567,7.925 569.063,7.805 569.182,7.7 569.301,7.73 
				569.407,7.97 569.721,8.285 569.917,8.495 570.516,8.495 571.192,8.72 571.926,9.185 572.362,9.335 572.512,9.47 572.647,9.515 
				572.797,9.65 572.766,9.83 572.842,9.875 572.858,9.89 573.172,9.995 573.563,10.04 574.042,10.055 574.432,10.01 
				574.493,10.085 574.461,10.19 574.327,10.25 574.057,10.25 573.952,10.31 573.711,10.505 573.637,10.64 572.842,11.075 
				572.75,11.06 572.737,10.97 572.813,10.91 572.993,10.88 573.083,10.775 573.096,10.55 573.051,10.49 572.932,10.415 
				571.432,10.505 571.221,10.655 571.073,11 570.891,11.135 570.952,11.15 571.208,11.465 571.387,11.555 571.881,11.585 
				572.047,11.345 572.153,11.375 572.211,11.48 572.122,11.675 572.317,11.75 572.391,11.855 572.407,11.855 			"/>
			<polyline fill="none" stroke="#666666" stroke-width="0.25" stroke-linejoin="round" stroke-miterlimit="3.8637" points="
				557.438,202.97 557.256,202.28 557.225,202.13 557.167,201.92 556.403,198.56 556.403,198.515 555.938,196.355 555.772,195.95 
				553.266,184.88 552.756,182.69 552.698,182.585 552.217,180.56 552.233,180.455 550.971,175.16 549.833,170.315 549.801,169.91 
				548.301,163.85 548.122,163.1 548.122,162.965 547.897,162.05 547.733,161.09 547.717,161.045 547.147,158.96 546.938,157.76 
				546.891,157.64 546.846,157.535 546.667,154.1 545.467,151.79 545.272,151.415 527.932,139.775 527.858,139.355 527.391,136.295 
				527.272,135.47 527.272,132.8 527.272,131.63 527.153,131.42 522.247,123.68 522.172,123.56 520.672,123.59 516.891,121.43 
				514.881,121.52 513.112,119.39 513.067,119.345 513.202,114.485 513.202,114.44 512.047,112.745 511.237,111.56 510.233,109.715 
				509.75,108.845 509.827,107.495 509.766,107.15 509.467,106.82 509.288,106.475 509.198,106.28 509.137,105.83 509.272,105.35 
				509.272,105.2 508.836,104.795 508.342,104.48 508.118,104.3 508.118,104.24 508.086,103.94 508.118,103.82 508.266,103.58 
				508.372,103.25 508.387,102.875 508.342,102.5 507.907,101.255 507.967,101 508.282,100.22 508.297,100.16 508.297,99.74 
				508.208,99.23 508.522,98.315 508.538,98.06 508.282,97.28 508.417,96.965 508.461,96.875 508.475,96.86 508.596,96.74 
				508.868,96.47 509.317,96.35 509.708,95.96 509.993,95.51 510.006,95.36 510.112,94.235 510.157,94.085 510.307,93.665 
				510.608,93.095 512.362,92.81 512.75,92.78 513.125,92.765 513.788,92.705 514.522,92.66 514.688,92.585 514.657,92.285 
				514.702,91.97 514.641,91.85 515.182,90.785 515.198,90.725 515.333,90.14 515.467,89.585 515.6,89.195 515.75,88.145 
				515.721,87.275 515.721,87.23 515.961,87.17 516.516,87.125 517.432,86.93 517.461,86.9 517.522,86.825 518.108,86.255 
				518.375,86.06 518.631,85.925 518.948,85.865 519.067,85.835 519.35,85.82 520.057,85.145 520.221,84.995 520.282,84.935 
				520.926,84.71 521.016,84.71 521.122,84.455 521.288,84.23 521.512,84.23 521.887,84.305 521.917,84.305 522.022,84.305 
				522.067,84.32 522.157,84.095 522.172,84.08 522.397,83.75 523.073,83.525 523.192,83.285 523.327,83.255 523.551,82.61 
				523.747,82.535 523.807,82.565 523.881,82.55 524.375,82.52 524.422,82.49 524.528,82.43 524.586,82.19 524.512,81.995 
				524.573,81.785 524.961,81.575 525.458,81.515 525.577,81.245 525.413,80.84 525.743,80.54 525.756,80.27 525.563,79.94 
				525.336,79.565 525.471,79.13 526.073,78.44 526.506,78.245 526.942,78.335 526.971,78.095 526.958,78.095 526.942,78.08 
				526.551,77.63 526.403,77.48 526.266,77.165 526.448,76.94 526.448,76.925 526.432,76.91 526.327,76.73 526.313,76.655 
				526.282,76.445 526.282,76.43 526.313,76.085 526.313,76.07 526.25,75.725 526.297,75.59 526.163,75.185 526.147,74.93 
				526.028,74.735 525.967,74.465 525.952,74.375 525.952,74.36 525.938,74.27 525.907,74.225 525.833,74.12 525.725,73.955 
				526.25,72.515 526.612,72.095 526.836,71.75 526.897,71.57 526.926,71.435 527.032,71.09 527.047,70.775 527.047,70.655 
				527.122,70.115 527.288,69.83 527.438,69.5 527.872,68.24 527.975,68.075 528.442,67.79 528.846,67.385 529.118,66.875 
				529.358,66.56 529.522,65.96 529.596,65.75 529.807,65.345 529.868,65.24 530.122,64.805 530.827,64.055 530.813,63.935 
				530.766,63.92 530.063,64.07 529.672,64.085 529.237,63.92 529.028,63.8 528.817,63.68 528.336,63.335 527.375,62.87 
				527.301,62.735 527.211,62.69 527.198,62.54 527.092,61.835 527.077,61.265 527.077,60.77 527.153,59.72 527.225,59.3 
				527.708,58.13 527.975,57.995 528.038,57.98 528.711,57.635 528.637,57.245 528.442,56.99 528.307,56.93 528.188,56.51 
				528.112,55.64 528.112,55.535 528.112,55.43 528.125,55.295 528.022,54.8 527.887,53.72 527.948,53.465 528.006,53.285 
				528.083,52.7 527.975,52.31 527.917,52.19 527.827,52.055 527.631,51.905 526.747,51.365 525.922,50.42 525.667,49.925 
				525.563,49.595 525.577,49.4 525.725,49.085 525.817,48.785 525.862,48.59 525.967,48.065 525.983,47.39 525.817,46.775 
				525.846,46.565 525.875,46.385 525.875,46.355 525.952,46.19 525.967,46.145 526.208,45.65 526.403,45.11 526.417,45.065 
				526.417,45.05 526.432,45.035 526.641,44.705 526.657,44.675 526.657,44.66 526.641,44.63 526.461,44.21 526.461,44.15 
				526.461,44.06 526.461,43.97 526.506,43.28 526.596,42.845 526.625,42.695 526.567,42.17 526.672,41.9 527,41.285 527.063,41.18 
				527.225,40.55 527.676,40.13 527.766,40.16 527.858,40.19 527.813,40.085 527.618,39.8 527.6,39.755 527.618,39.275 
				527.586,39.125 527.483,39.035 527.288,38.915 526.913,38.48 526.913,38.42 526.897,38.345 526.881,38.315 526.913,38.195 
				527.288,37.79 527.452,37.58 527.573,37.265 527.737,37.025 527.797,36.935 527.827,36.86 527.872,36.785 527.872,36.755 
				527.858,36.08 527.721,35.33 528.125,34.925 528.381,34.745 528.711,34.64 528.801,34.49 528.801,34.415 528.682,34.295 
				528.471,33.995 528.442,33.965 528.458,33.485 528.637,33.125 528.667,33.065 528.862,32.9 528.846,32.645 528.637,32.15 
				529.118,31.715 529.163,31.595 529.237,31.475 529.237,31.445 529.266,31.205 528.563,31.13 528.413,31.07 528.397,31.025 
				528.323,30.965 528.051,30.77 527.797,30.725 527.407,30.935 527.077,30.98 527.063,30.935 526.958,30.935 526.792,30.755 
				526.596,30.62 526.448,30.59 526.358,30.575 525.907,30.71 525.725,30.71 525.397,30.62 524.438,30.485 524.256,30.425 
				524.288,30.395 524.047,30.17 523.747,30.095 523.506,29.99 523.237,29.51 523.221,29.495 523.221,29.45 523.131,29.135 
				523.208,29.015 523.506,28.94 523.583,28.805 523.733,28.685 524.016,28.73 524.137,28.745 524.333,28.7 524.961,28.475 
				525.711,28.04 526.147,28.025 526.176,28.025 526.221,28.01 526.688,27.845 526.702,27.845 526.958,27.68 527.167,27.425 
				527.198,27.305 528.188,26.54 528.622,26.465 528.788,26.375 528.967,26.195 529.028,26.045 529.073,25.925 529.192,25.775 
				529.432,25.7 530.063,25.76 530.333,25.535 530.512,25.01 530.528,24.77 530.452,24.635 530.631,24.395 530.917,24.32 
				531.051,23.855 531.051,23.825 531.083,23.63 530.975,23.24 530.663,22.67 530.663,22.64 530.631,22.445 530.663,22.325 
				530.618,22.265 530.497,22.175 530.375,22.175 530.288,22.25 530.032,22.265 529.942,22.22 529.868,21.98 530.047,21.8 
				530.676,21.59 530.708,21.56 530.948,21.44 531.233,21.455 531.563,21.41 531.952,21.215 532.057,21.215 532.073,21.215 
				532.192,21.35 532.266,21.365 532.432,21.305 532.762,21.275 533.016,21.35 533.032,21.35 533.391,21.32 533.663,20.885 
				533.858,20.81 534.022,20.81 534.35,20.81 534.622,20.585 534.711,20.51 535.042,20.405 535.612,20.09 535.717,19.925 
				535.717,19.715 535.641,19.565 535.448,19.4 535.221,19.325 534.788,19.19 534.547,19.235 534.487,19.175 534.487,19.13 
				534.487,18.905 534.608,18.485 534.637,17.915 534.682,17.525 534.772,17.42 535.028,17.33 535.176,17.375 535.028,17.165 
				534.922,16.895 534.891,16.7 			"/>
			<polyline fill="none" stroke="#666666" stroke-width="0.25" stroke-linejoin="round" stroke-miterlimit="3.8637" points="
				554.391,209.03 554.346,208.97 554.063,208.61 553.702,208.175 553.641,208.115 553.567,207.455 553.403,206.9 553.417,206.54 
				553.237,205.955 553.266,205.82 553.208,205.415 553.118,205.04 553.086,204.89 553.192,204.71 553.221,204.68 553.358,204.56 
				553.417,204.5 553.625,204.41 553.641,204.41 554,204.395 554.557,204.305 554.737,204.23 555.022,203.93 555.381,203.72 
				555.788,203.585 555.907,203.48 556.073,203.42 556.176,203.435 556.313,203.375 556.342,203.36 556.641,203.24 556.641,203.225 
				556.717,203.135 556.778,203.12 557.438,202.97 			"/>
			<polyline fill="none" stroke="#666666" stroke-width="0.25" stroke-linejoin="round" stroke-miterlimit="3.8637" points="
				605.512,121.64 605.375,122 605.407,122.225 605.407,122.24 605.362,122.405 605.153,123.14 604.836,123.695 604.688,123.935 
				604.625,124.205 604.612,124.265 604.551,124.82 604.538,124.94 604.493,125.945 604.432,126.155 604.596,126.275 
				604.641,126.62 604.327,126.965 604.192,127.475 604.012,128.21 603.997,128.255 603.653,129.305 603.833,129.725 604.1,130.685 
				603.938,131.165 603.862,131.555 603.817,131.735 603.653,132.785 603.653,132.83 603.725,133.145 603.725,133.16 
				603.862,133.745 603.891,134.135 603.788,135.005 603.653,135.56 603.682,135.875 603.698,135.92 603.788,136.235 
				604.118,137.06 604.403,137.345 604.672,137.45 604.926,137.69 605.137,137.945 605.198,138.035 605.483,138.41 605.782,138.65 
				606.083,139.1 606.292,139.565 605.6,140.915 605.375,141.35 604.657,142.76 604.583,142.91 604.522,142.955 603.532,143.66 
				603.125,143.96 603.038,144.08 602.708,144.215 602.108,144.275 601.327,144.815 600.698,145.145 600.426,145.25 599.948,145.34 
				599.452,145.535 597.022,146.33 596.766,146.42 596.362,146.585 595.551,146.93 595.192,147.2 594.292,147.5 593.993,147.74 
				593.797,147.74 593.647,147.755 593.211,148.01 593.047,148.205 592.672,148.49 592.237,148.655 591.743,148.76 591.413,148.91 
				590.708,149.39 590.631,149.45 590.153,149.765 589.778,150.125 589.25,150.455 589.118,150.545 588.413,151.04 588.336,151.385 
				588.307,151.58 588.233,151.805 587.917,152.375 586.881,154.1 586.237,154.22 585.817,154.4 585.608,154.565 585.336,154.67 
				585.038,154.715 584.737,154.61 584.586,154.565 584.346,154.55 584.122,154.52 583.881,154.445 583.672,154.52 583.493,154.745 
				583.208,154.865 583.131,154.985 583.163,155.615 583.086,155.795 582.862,155.99 582.788,156.17 582.801,156.35 
				582.907,156.515 583.237,157.055 583.25,157.325 583.086,157.67 583.042,157.85 582.563,158.315 582.083,158.705 581.975,158.75 
				581.75,158.99 581.586,159.26 581.542,159.335 581.438,159.785 581.256,160.4 581.016,160.715 580.913,160.76 580.778,160.925 
				580.493,161.12 580.475,161.12 580.387,161.15 579.577,161.435 579.292,161.51 578.766,161.645 578.346,161.675 578.211,161.63 
				577.208,161.315 576.997,161.315 576.725,161.375 576.5,161.48 576.471,161.495 575.948,161.825 575.483,162.125 
				575.256,162.275 574.733,162.71 574.672,162.86 574.567,162.98 574.538,163.055 574.432,163.34 573.833,164.225 573.817,164.33 
				573.756,164.435 573.5,164.885 573.096,165.44 573.051,165.575 572.903,165.785 572.782,165.965 572.573,166.16 572.542,166.325 
				572.256,166.685 572.153,166.7 571.823,167.165 571.778,167.285 571.762,167.33 571.417,167.795 571.372,167.81 571.313,167.855 
				571.237,167.96 571.086,168.17 571.028,168.335 571.012,168.38 571.012,168.755 571.012,169.025 571.176,169.385 571.176,169.4 
				571.237,169.7 571.192,170.135 571.237,170.48 571.25,170.57 571.403,171.08 571.493,171.155 571.823,171.98 572.391,173.42 
				572.452,173.585 572.497,173.735 572.721,174.38 572.797,174.485 572.932,175.01 573.006,175.1 573.172,175.55 573.292,175.88 
				573.547,176.36 573.637,176.705 573.711,177.005 574.028,178.175 574.237,178.52 574.567,179.195 574.641,179.585 
				574.475,180.14 574.432,180.29 574.342,180.605 574.342,181.13 574.448,181.685 574.506,181.76 574.612,182.21 574.641,182.84 
				574.672,182.945 574.733,183.185 574.85,183.725 574.868,183.845 575.122,184.4 575.092,184.55 574.823,184.82 574.823,184.88 
				574.792,185.015 574.792,185.03 574.85,185.24 574.625,185.885 574.551,186.275 574.403,186.74 574.297,186.95 574.1,187.31 
				573.653,188.195 573.487,188.555 573.35,188.84 573.157,189.32 572.842,189.845 572.631,190.01 572.497,190.115 572.391,190.145 
				572.077,190.385 571.913,190.58 571.372,191.585 570.471,192.71 570.458,192.725 570.292,193.055 570.112,193.37 
				569.647,193.925 569.542,194.09 569.032,194.54 568.313,195.44 568.176,195.605 567.862,196.445 567.698,196.715 567.141,197.6 
				567.038,197.705 566.975,197.765 566.782,197.885 566.557,198.41 566.422,198.725 565.702,199.235 565.012,199.955 564.846,200 
				564.563,199.985 563.721,200.075 563.6,200.09 563.483,200.09 563.225,200.18 562.823,200.36 562.688,200.48 562.25,200.675 
				561.516,200.87 560.827,201.335 560.618,201.53 560.6,201.53 559.868,201.815 559.221,202.175 558.426,202.7 557.827,202.925 
				557.438,202.97 			"/>
			<polyline fill="none" stroke="#666666" stroke-width="0.25" stroke-linejoin="round" stroke-miterlimit="3.8637" points="
				572.407,11.855 572.422,11.855 572.586,11.84 572.663,11.825 572.737,11.765 572.813,11.66 			"/>
			<polyline fill="none" stroke="#666666" stroke-width="0.25" stroke-linejoin="round" stroke-miterlimit="3.8637" points="
				556.897,19.985 556.958,19.895 557.288,19.715 557.375,19.64 557.6,19.445 557.676,19.34 557.872,19.145 558.006,19.055 
				558.323,19.025 558.532,19.055 558.846,19.01 559.057,18.905 559.147,18.77 559.358,18.575 559.717,18.38 560.153,18.29 
				561.096,18.155 561.413,18.05 561.532,17.96 561.637,17.855 562.028,17.15 562.192,16.925 562.506,16.67 562.836,16.49 
				563.256,16.4 563.391,16.415 563.586,16.385 564.188,16.415 564.532,16.475 564.862,16.565 565.747,17 566.211,17.15 
				566.692,17.255 566.993,17.27 567.096,17.255 567.262,17.135 567.368,17.045 567.487,16.865 567.682,16.4 567.711,16.295 
				567.891,15.995 568.1,15.605 568.282,15.395 568.358,15.23 568.475,15.08 568.926,14.255 569.153,13.745 569.182,13.655 
				569.467,12.905 569.708,12.86 569.766,12.545 569.858,12.425 569.961,12.335 570.083,12.26 570.368,12.155 570.907,12.095 
				571.702,12.125 572.225,12.05 572.288,11.855 572.391,11.855 			"/>
			<polyline fill="none" stroke="#666666" stroke-width="0.25" stroke-linejoin="round" stroke-miterlimit="3.8637" points="
				545.483,10.655 545.528,11.12 545.512,11.315 545.573,11.825 545.497,12.155 545.375,12.44 545.317,12.86 545.362,13.34 
				545.438,13.64 545.512,13.76 545.737,13.865 545.961,13.88 546.381,13.895 547.237,13.835 547.448,13.85 547.672,13.895 
				547.868,14.015 547.987,14.12 548.122,14.315 548.317,14.75 548.676,15.89 548.842,16.235 549.112,16.58 549.247,16.88 
				549.336,17.36 549.458,17.555 550.266,18.275 550.475,18.485 550.926,18.725 551.301,18.8 551.797,18.965 552.006,19.07 
				552.125,19.145 552.247,19.19 552.458,19.385 552.471,19.715 552.458,19.94 552.381,20.27 552.233,20.645 552.202,20.78 
				552.125,20.885 552.112,20.99 551.993,21.23 551.917,21.53 551.903,21.65 551.932,21.875 551.993,22.01 552.096,22.22 
				552.307,22.43 552.637,22.685 552.967,22.85 553.282,22.895 553.506,22.865 553.625,22.805 554.063,22.445 554.122,22.355 
				554.948,21.5 555.067,21.41 555.247,21.215 555.487,21.035 555.667,20.81 556.057,20.45 556.297,20.27 556.387,20.18 
				556.641,20.045 556.897,19.985 			"/>
			<polyline fill="none" stroke="#666666" stroke-width="0.25" stroke-linejoin="round" stroke-miterlimit="3.8637" points="
				575.858,18.275 575.225,18.455 575,18.545 574.012,18.74 573.907,18.74 573.682,18.815 573.563,18.83 573.278,18.905 
				573.038,19.025 572.917,19.04 572.528,19.235 572.391,19.265 572.092,19.43 571.733,19.655 571.131,19.895 570.891,20.015 
				570.141,20.555 570.038,20.585 569.903,20.675 569.766,20.72 569.528,20.855 569.391,20.87 568.926,21.02 568.807,21.02 
				568.612,21.11 568.522,21.095 568.028,21.23 567.891,21.275 567.788,21.35 567.698,21.455 567.608,21.56 567.592,21.68 
				567.698,21.815 567.772,21.875 568.1,22.055 568.131,22.265 568.118,22.355 568.208,22.565 568.432,22.745 568.747,22.91 
				568.971,23.12 569.047,23.21 569.092,23.315 569.108,23.435 569.108,23.555 569.016,23.855 			"/>
			<polyline fill="none" stroke="#666666" stroke-width="0.25" stroke-linejoin="round" stroke-miterlimit="3.8637" points="
				574.583,20.885 574.387,20.6 574.208,20.54 574.086,20.6 573.997,20.735 573.967,20.87 573.967,21.05 573.875,21.155 
				573.862,21.35 573.563,22.205 573.532,22.325 573.471,22.415 573.233,22.49 572.993,22.76 572.887,22.955 572.797,23.045 
				572.676,23.12 572.542,23.135 572.407,23.12 572.288,23.12 571.971,23.195 571.762,23.18 571.657,23.165 571.417,23.075 
				571.221,23.045 571.118,23.105 571.042,23.195 570.938,23.42 570.725,23.735 570.622,23.825 570.413,23.9 570.292,23.9 
				569.858,23.975 569.528,23.975 569.288,23.93 569.016,23.855 			"/>
			<polyline fill="none" stroke="#666666" stroke-width="0.25" stroke-linejoin="round" stroke-miterlimit="3.8637" points="
				569.016,23.855 568.836,24.14 568.522,24.455 567.698,25.13 567.608,25.205 567.381,25.295 567.006,25.355 			"/>
			<polyline fill="none" stroke="#666666" stroke-width="0.25" stroke-linejoin="round" stroke-miterlimit="3.8637" points="
				564.217,27.17 564.743,27.11 564.846,27.095 565.073,26.96 565.147,26.84 565.417,26.195 565.702,25.64 565.823,25.355 
				565.942,25.16 566.032,25.07 566.153,24.995 566.452,24.905 566.647,24.92 566.75,24.965 566.858,25.07 567.006,25.355 			"/>
			<polyline fill="none" stroke="#666666" stroke-width="0.25" stroke-linejoin="round" stroke-miterlimit="3.8637" points="
				556.897,19.985 557.375,20.42 557.573,20.645 557.993,21.035 558.336,21.395 558.801,21.8 558.922,21.86 559.475,22.295 
				559.836,22.475 561.096,22.865 561.307,22.88 561.516,22.835 561.725,22.835 561.833,22.865 561.922,22.955 562.012,23.165 
				562.012,23.255 562.163,23.705 562.358,24.08 562.432,24.185 562.551,24.41 563,25.34 563.842,26.465 564.141,26.945 
				564.217,27.17 			"/>
			<polyline fill="none" stroke="#666666" stroke-width="0.25" stroke-linejoin="round" stroke-miterlimit="3.8637" points="
				577.688,22.985 577.583,23.24 577.551,23.63 577.506,23.87 577.297,24.425 577.118,24.785 576.608,25.67 576.532,25.775 
				576.292,26.15 576.067,26.6 576.112,26.705 576.725,27.185 576.637,27.425 576.426,27.815 576.35,28.04 576.35,28.16 
				576.083,29.03 575.932,29.93 			"/>
			<polyline fill="none" stroke="#666666" stroke-width="0.25" stroke-linejoin="round" stroke-miterlimit="3.8637" points="
				540.997,14.69 541.417,14.945 541.762,15.26 541.836,15.35 542.167,15.62 542.272,15.83 542.288,15.92 542.272,16.01 
				542.153,16.1 541.657,16.25 541.448,16.295 541.342,16.355 541.282,16.445 541.327,16.655 541.807,17.18 542.032,17.375 
				542.375,17.75 542.708,18.2 542.797,18.275 542.932,18.5 543.038,18.71 543.038,18.815 543.006,18.92 542.932,19.04 
				542.618,19.325 542.467,19.385 541.823,19.91 541.688,20.195 541.672,20.405 541.702,20.615 541.612,20.84 541.538,20.93 
				541.372,21.26 541.551,21.455 541.807,21.635 542.153,21.71 542.362,21.725 542.6,21.77 542.917,21.785 543.217,21.845 
				543.323,21.845 544.028,22.28 544.118,22.385 544.028,23.345 543.922,23.975 543.922,24.26 543.967,24.665 544.042,24.77 
				544.358,25.115 544.417,25.205 544.881,26.09 545.047,26.48 545.167,26.825 545.407,27.74 545.407,27.86 545.243,28.055 
				545.137,28.145 544.836,28.46 544.688,28.655 544.596,28.85 544.551,29.39 544.551,29.825 544.506,30.11 544.417,30.23 
				543.907,30.47 543.817,30.53 			"/>
			<polyline fill="none" stroke="#666666" stroke-width="0.25" stroke-linejoin="round" stroke-miterlimit="3.8637" points="
				564.217,27.17 564.125,27.245 564.022,27.305 563.917,27.41 563.256,27.815 562.85,28.13 562.551,28.415 562.327,28.73 
				562.237,28.94 562.208,29.045 562.131,29.225 562.057,29.33 561.952,29.45 561.833,29.555 561.577,29.84 561.426,30.125 
				561.262,30.62 561.188,30.71 			"/>
			<polyline fill="none" stroke="#666666" stroke-width="0.25" stroke-linejoin="round" stroke-miterlimit="3.8637" points="
				567.006,25.355 567.188,25.745 567.247,25.88 567.5,26.285 567.698,26.48 567.952,26.66 568.176,26.705 568.387,26.66 
				568.612,26.54 568.85,26.495 569,26.525 569.573,26.75 570.083,27.02 570.801,27.305 571.028,27.725 571.118,27.83 
				571.147,27.935 571.387,28.295 571.567,28.52 571.913,28.775 572.827,29.33 573.413,29.615 573.471,29.735 573.413,29.99 
				573.368,30.065 573.336,30.365 573.35,30.485 573.637,30.725 573.711,30.83 573.938,30.695 574.028,30.605 574.237,30.47 
				574.926,30.11 575.272,30.005 575.483,29.975 575.827,29.975 575.932,29.93 			"/>
			<polyline fill="none" stroke="#666666" stroke-width="0.25" stroke-linejoin="round" stroke-miterlimit="3.8637" points="
				541.538,30.845 541.657,30.815 541.868,30.725 542.211,30.56 542.708,30.395 542.932,30.41 543.067,30.38 543.278,30.395 
				543.413,30.41 543.817,30.53 			"/>
			<polyline fill="none" stroke="#666666" stroke-width="0.25" stroke-linejoin="round" stroke-miterlimit="3.8637" points="
				575.932,29.93 575.887,30.455 575.842,30.8 575.797,31.58 575.827,32.045 575.858,32.255 575.887,32.36 576.083,32.69 
				576.292,32.84 576.516,32.87 			"/>
			<polyline fill="none" stroke="#666666" stroke-width="0.25" stroke-linejoin="round" stroke-miterlimit="3.8637" points="
				576.516,32.87 576.833,32.81 577.028,32.735 578.256,32.54 578.467,32.705 578.766,33.02 578.887,33.065 578.975,33.065 
				579.096,32.99 579.426,32.63 579.532,32.57 579.846,32.555 580.057,32.6 580.221,32.765 580.493,33.26 			"/>
			<polyline fill="none" stroke="#666666" stroke-width="0.25" stroke-linejoin="round" stroke-miterlimit="3.8637" points="
				528.637,33.125 528.952,33.17 529.163,33.245 529.372,33.275 529.612,33.26 529.733,33.275 530.122,33.245 530.362,33.17 
				530.842,32.975 531.547,32.585 532.131,32.3 532.387,32.15 532.747,31.97 532.987,31.88 533.333,31.79 533.557,31.76 
				533.797,31.79 535.358,31.745 535.702,31.775 536.198,31.745 537.096,31.745 537.875,31.715 538.522,31.67 539.032,31.58 
				539.137,31.58 540.141,31.31 541.073,31.025 541.538,30.845 			"/>
			<polyline fill="none" stroke="#666666" stroke-width="0.25" stroke-linejoin="round" stroke-miterlimit="3.8637" points="
				543.817,30.53 544.012,30.62 544.432,30.98 545.618,32.165 545.932,32.465 546.141,32.63 546.368,32.66 546.622,32.615 
				546.983,32.48 547.372,32.3 547.475,32.285 547.807,32.18 548.243,32.06 548.452,32.015 548.813,32.045 549.217,32.27 
				549.846,32.72 550.163,32.885 550.493,33.11 550.823,33.26 551.047,33.305 551.153,33.23 551.225,33.125 551.813,32.075 
				552.188,31.49 552.547,31.025 552.756,30.875 553.237,30.68 553.702,30.605 554.317,30.56 554.438,30.56 554.766,30.53 
				555.112,30.545 555.532,30.635 555.952,30.83 556.057,30.92 556.147,30.95 556.387,31.16 556.657,31.49 556.913,31.7 
				557.108,31.775 557.542,31.73 557.766,31.655 558.381,31.295 558.801,31.115 559.192,30.965 559.733,30.8 560.512,30.68 
				560.872,30.665 561.188,30.71 			"/>
			<polyline fill="none" stroke="#666666" stroke-width="0.25" stroke-linejoin="round" stroke-miterlimit="3.8637" points="
				576.516,32.87 576.547,32.915 576.547,33.095 576.577,33.5 576.563,34.745 576.516,34.85 576.458,34.94 575.917,35.24 
				575.872,35.33 575.903,35.435 575.993,35.51 576.262,35.72 576.35,35.75 576.458,35.855 576.487,35.945 576.487,36.035 
				576.471,36.125 576.413,36.23 576.307,36.335 576.067,36.41 575.483,36.53 575.137,36.56 575.032,36.605 574.583,36.695 
				574.461,36.695 574.147,36.77 574.073,36.86 574.042,36.965 574.147,37.28 574.221,37.43 574.25,37.835 574.221,38 
				574.163,38.195 574.012,38.495 573.756,38.795 573.426,39.02 572.948,39.2 572.827,39.275 572.676,39.305 			"/>
			<polyline fill="none" stroke="#666666" stroke-width="0.25" stroke-linejoin="round" stroke-miterlimit="3.8637" points="
				561.188,30.71 561.307,30.92 561.397,31.01 561.592,31.34 561.637,31.55 561.667,31.94 561.577,32.33 561.368,32.9 
				561.141,33.275 561.006,33.47 560.631,33.89 560.407,34.115 560.333,34.22 559.778,34.685 559.417,34.925 558.846,35.255 
				558.426,35.465 558.188,35.57 558.083,35.585 557.842,35.69 557.647,35.75 557.422,35.84 557.333,35.93 557.272,36.02 
				557.301,36.125 557.467,36.35 557.692,36.56 557.766,36.65 558.112,36.905 558.35,37.145 558.743,37.415 558.983,37.505 
				559.448,37.64 559.942,37.7 560.872,38.015 561.157,38.135 561.577,38.42 561.725,38.645 561.862,39.035 561.875,39.71 
				561.846,39.905 561.725,40.28 561.653,40.46 561.5,40.685 561.125,41.15 			"/>
			<polyline fill="none" stroke="#666666" stroke-width="0.25" stroke-linejoin="round" stroke-miterlimit="3.8637" points="
				572.676,39.305 572.288,39.41 572.063,39.44 571.266,39.65 570.983,39.8 570.891,39.905 570.711,40.235 570.653,40.43 
				570.563,40.64 570.413,40.85 570.336,40.94 569.993,41.09 569.887,41.06 569.782,40.955 569.528,40.55 569.438,40.655 
				569.391,40.775 569.333,41.03 569.243,41.6 569.211,41.9 569.047,42.62 568.958,42.755 568.823,42.815 568.702,42.815 
				568.448,42.71 568.221,42.5 568.1,42.38 567.788,42.065 567.698,41.99 567.516,41.885 567.278,41.78 566.961,41.705 
				566.827,41.705 566.333,41.645 566,41.48 565.448,41.15 565.147,40.985 565.042,40.955 564.487,40.925 564.35,40.94 
				563.573,41.12 562.971,41.315 562.461,41.405 562.1,41.405 561.743,41.36 561.292,41.225 561.188,41.15 561.125,41.15 			"/>
			<polyline fill="none" stroke="#666666" stroke-width="0.25" stroke-linejoin="round" stroke-miterlimit="3.8637" points="
				541.538,30.845 541.942,31.28 542.422,31.925 542.528,32.015 542.782,32.435 542.948,32.9 542.993,33.125 543.006,33.335 
				542.975,33.56 542.948,33.65 542.827,33.86 542.586,34.16 542.483,34.4 542.483,34.52 542.528,34.715 542.663,35.045 
				542.917,35.435 542.975,35.525 543.397,35.96 543.471,36.08 543.862,36.5 544.1,36.92 544.176,37.25 544.208,37.475 
				544.221,37.775 544.176,38.3 544.1,38.75 544.1,38.96 544.131,39.065 544.192,39.185 544.372,39.38 544.702,39.59 544.823,39.62 
				545.256,39.86 545.467,39.95 545.6,39.98 546.413,40.4 546.756,40.625 546.833,40.715 546.907,40.835 547.073,41.165 
				547.163,41.495 547.163,41.75 547.163,42.125 547.131,42.365 547.012,43.01 546.846,43.595 546.725,43.91 546.637,44.045 
				546.592,44.135 545.993,44.705 545.647,45.215 545.542,45.425 545.483,45.83 545.391,46.175 545.198,46.535 544.747,46.88 
				544.538,47.015 544.313,47.195 544.208,47.3 544.118,47.495 544.086,47.615 544.057,47.855 544.057,48.185 544.073,48.71 
				544.057,49.055 543.967,49.97 543.862,50.39 543.833,50.525 543.772,50.615 543.711,50.93 543.592,51.245 			"/>
			<polyline fill="none" stroke="#666666" stroke-width="0.25" stroke-linejoin="round" stroke-miterlimit="3.8637" points="
				527.948,53.465 528.35,53.465 528.547,53.42 528.875,53.195 529.342,52.685 529.657,52.385 529.881,52.22 530.301,52.085 
				530.631,52.07 530.858,52.1 530.961,52.13 531.096,52.22 531.471,52.385 531.907,52.625 532.012,52.655 532.297,52.805 
				532.567,52.895 533.032,52.97 533.272,52.97 533.663,52.925 533.813,52.865 534.006,52.7 534.141,52.49 534.262,51.935 
				534.368,50.795 534.413,50.57 534.5,50.3 534.592,50.06 534.833,49.685 535.163,49.28 535.387,49.115 535.612,49.01 
				535.836,48.98 536.272,48.995 536.512,49.04 537.323,49.28 537.426,49.325 538.118,49.475 538.836,49.715 538.987,49.79 
				539.586,50.03 541.25,50.765 542.272,51.14 542.512,51.2 542.782,51.245 543.471,51.2 543.592,51.245 			"/>
			<polyline fill="none" stroke="#666666" stroke-width="0.25" stroke-linejoin="round" stroke-miterlimit="3.8637" points="
				572.676,39.305 572.137,40.115 571.672,40.91 571.778,41.015 571.881,41.09 572.631,41.48 573.125,41.69 573.323,41.795 
				573.426,41.885 573.608,42.125 573.756,42.41 573.817,42.59 573.817,42.815 573.788,43.01 573.743,43.4 573.608,44.12 
				573.563,44.225 573.458,44.675 573.292,45.23 573.112,45.65 572.858,46.04 572.676,46.22 572.542,46.43 572.438,46.52 
				572.346,46.655 572.032,46.985 571.657,47.405 571.506,47.69 571.596,48.005 571.926,48.665 572.452,49.79 572.993,50.84 
				573.592,51.89 574.073,52.775 574.432,53.315 574.762,53.735 574.897,53.975 574.926,54.26 574.987,54.56 575.077,54.785 			"/>
			<polyline fill="none" stroke="#666666" stroke-width="0.25" stroke-linejoin="round" stroke-miterlimit="3.8637" points="
				584.407,48.77 584.288,48.995 584.108,49.205 583.913,49.4 583.567,49.67 583.358,49.88 583.221,50.075 583.163,50.3 
				583.118,50.54 583.131,51.17 583.266,52.25 583.266,52.595 583.208,53 583.042,53.33 582.967,53.45 582.743,53.63 
				582.262,53.915 581.497,54.185 580.641,54.35 580.448,54.425 580.342,54.5 580.266,54.605 580.25,54.695 580.282,54.815 
				580.448,54.995 580.641,55.19 580.688,55.295 580.702,55.385 580.657,55.49 580.461,55.685 580.042,55.925 579.336,56.165 			"/>
			<polyline fill="none" stroke="#666666" stroke-width="0.25" stroke-linejoin="round" stroke-miterlimit="3.8637" points="
				579.336,56.165 578.917,56.135 578.542,56.135 578.542,56.15 578.153,56.15 577.596,56.045 577.073,55.91 576.141,55.535 
				575.391,55.025 575.122,54.815 575.077,54.785 			"/>
			<polyline fill="none" stroke="#666666" stroke-width="0.25" stroke-linejoin="round" stroke-miterlimit="3.8637" points="
				561.125,41.15 560.975,41.33 560.391,41.765 559.868,42.125 559.432,42.44 559.282,42.515 558.592,43.01 557.573,43.76 
				557.288,43.925 556.778,44.345 556.131,44.93 555.698,45.245 555.577,45.35 555.413,45.575 555.336,45.815 555.35,46.04 
				555.547,46.685 555.592,47.165 555.5,47.585 555.381,47.9 555.247,48.14 555.172,48.365 555.125,48.605 555.188,48.89 
				555.233,49.01 555.381,49.25 555.487,49.385 555.922,49.775 555.997,49.88 556.028,49.985 556.012,50.06 555.983,50.15 
				555.907,50.24 555.188,50.375 554.948,50.45 554.618,50.6 554.422,50.72 553.733,51.155 553.612,51.215 553.342,51.305 
				552.967,51.32 552.516,51.275 552.247,51.185 551.438,50.885 550.596,50.675 550.372,50.66 550.266,50.72 550.163,50.81 
				550.118,50.9 550.1,51.02 550.1,51.125 550.221,51.44 550.387,51.665 551.407,52.865 551.887,53.405 553.086,54.65 
				553.567,55.265 553.926,55.925 553.971,56.03 554.301,56.675 554.422,56.855 554.497,57.065 554.512,57.23 			"/>
			<polyline fill="none" stroke="#666666" stroke-width="0.25" stroke-linejoin="round" stroke-miterlimit="3.8637" points="
				554.512,57.23 554.272,57.14 554.032,57.095 553.657,57.035 552.952,57.035 552.577,57.095 551.438,57.44 			"/>
			<polyline fill="none" stroke="#666666" stroke-width="0.25" stroke-linejoin="round" stroke-miterlimit="3.8637" points="
				543.592,51.245 543.922,51.5 544.1,51.755 544.432,52.445 544.717,52.91 544.823,53.015 544.971,53.24 545.346,53.615 
				545.542,53.75 545.737,53.78 545.975,53.75 546.292,53.6 546.413,53.57 546.608,53.57 547.086,53.72 547.448,53.87 
				547.672,54.005 547.897,54.17 547.987,54.365 548.272,55.115 548.452,55.31 548.557,55.355 549.157,55.445 549.5,55.535 
				550.042,55.775 550.657,56.165 550.958,56.45 551.198,56.75 551.346,57.05 551.422,57.245 551.438,57.44 			"/>
			<path fill="none" stroke="#666666" stroke-width="0.25" stroke-linejoin="round" stroke-miterlimit="3.8637" d="M578.542,56.195
				c0,0,0.148,0.93,1.021,1.575c0.854,0.63,1.828-0.3,1.828-0.3l0.813-0.6l0.018,0.015l0.688,0.195l0.348,0.075l0.75,0.3l0.611,0.18
				l0.99,0.18l0.945,0.195l1.215,0.075l0.24-0.06l0.238-0.57l0.195-0.3l0.148-0.18l0.402-0.405l0.359-0.27l0.541-0.33l0.51-0.225
				l1.004-0.315l1.275-0.465"/>
			<polyline fill="none" stroke="#666666" stroke-width="0.25" stroke-linejoin="round" stroke-miterlimit="3.8637" points="
				575.077,54.785 574.702,54.845 573.875,55.115 573.653,55.25 573.471,55.445 573.323,55.67 573.278,55.88 573.292,55.985 
				573.637,56.81 573.725,57.155 573.698,57.38 573.532,57.59 573.307,57.725 573.096,57.92 572.903,58.25 572.483,59.225 
				572,60.185 571.913,60.41 571.868,60.605 571.881,60.8 571.913,60.905 572,61.115 572.288,61.685 572.362,62.105 572.391,62.345 
				572.407,62.825 572.317,63.395 572.333,63.8 572.407,63.98 572.512,64.19 572.887,64.655 573.096,64.97 573.188,65.18 
				573.278,65.465 573.307,65.705 573.307,66.02 573.202,66.605 573.217,66.71 			"/>
			<polyline fill="none" stroke="#666666" stroke-width="0.25" stroke-linejoin="round" stroke-miterlimit="3.8637" points="
				592.612,68.405 591.891,68.06 591.756,68.03 591.172,67.985 590.961,68.03 590.858,68 590.75,67.895 590.6,67.595 590.301,67.16 
				590.032,66.71 589.596,66.08 589.403,65.9 589.297,65.93 589.208,66.005 589.1,66.11 588.907,66.41 588.725,66.605 
				588.608,66.68 588.426,66.74 588.307,66.755 588.217,66.74 588.006,66.65 587.887,66.53 587.676,66.185 587.362,65.345 
				587.301,65.135 587.272,65.045 587.198,64.67 587.108,64.055 586.971,63.725 586.538,63.125 586.448,63.065 586.282,63.245 
				586.163,63.56 586.1,63.665 585.938,64.01 585.772,64.235 585.577,64.445 585.458,64.535 585.083,64.73 584.961,64.745 
				584.721,64.745 584.375,64.655 583.778,64.415 583.282,64.145 583.073,64.07 582.967,64.04 582.756,64.04 582.532,64.07 
				582.426,64.265 582.397,64.445 582.292,64.64 582.157,64.745 581.692,64.955 581.631,65.06 581.573,65.15 581.557,65.27 
				581.586,65.57 581.586,65.615 581.512,65.75 581.333,65.96 581,66.245 580.551,66.56 580.208,66.725 579.875,66.845 
				579.051,67.25 578.375,67.55 577.747,67.85 577.506,67.91 577.387,67.91 576.997,67.76 576.307,67.28 576.083,67.16 
				575.542,67.055 574.942,67.04 574.493,66.995 573.217,66.71 			"/>
			<polyline fill="none" stroke="#666666" stroke-width="0.25" stroke-linejoin="round" stroke-miterlimit="3.8637" points="
				573.217,66.71 573.022,66.665 572.797,66.665 572.542,66.755 571.733,67.235 571.641,67.325 571.163,67.685 570.938,67.895 
				570.413,68.45 570.217,68.615 569.842,69.095 569.586,69.365 569.137,70.01 568.942,70.4 			"/>
			<polyline fill="none" stroke="#666666" stroke-width="0.25" stroke-linejoin="round" stroke-miterlimit="3.8637" points="
				568.942,70.4 568.823,70.25 568.522,69.98 568.387,69.68 568.192,68.93 567.743,67.55 567.622,66.935 567.471,66.44 
				567.35,66.38 567.217,66.41 566.333,66.71 565.926,66.875 565.778,66.845 565.551,66.8 565.042,66.59 564.637,66.455 
				564.067,66.29 563.362,66.14 562.057,65.93 561.323,65.75 561.083,65.66 560.872,65.555 560.631,65.345 560.391,65.12 
				560.256,64.925 560.077,64.52 560,64.415 559.208,63.725 558.682,63.14 558.426,62.81 558.112,62.915 557.872,62.93 
				557.288,62.885 557.198,62.87 556.987,62.735 556.583,62.33 555.772,61.655 555.112,61.055 554.975,60.77 554.961,60.62 
				554.975,60.5 555.096,59.87 555.233,59.435 555.233,59.315 555.323,58.85 555.368,58.385 555.292,58.145 555.112,57.83 
				554.721,57.35 554.512,57.23 			"/>
			<polyline fill="none" stroke="#666666" stroke-width="0.25" stroke-linejoin="round" stroke-miterlimit="3.8637" points="
				538.85,77.705 542.047,75.845 542.948,75.38 543.922,75.02 544.372,74.825 544.717,74.645 544.913,74.495 545,74.39 
				545.016,74.285 544.987,74.195 544.881,74.09 544.522,73.955 544.327,73.76 544.208,73.55 544.163,73.43 544.192,73.22 
				544.327,72.965 544.85,72.56 545.211,72.2 545.467,71.78 545.647,71.285 545.858,70.88 546.067,70.685 546.157,70.655 
				546.278,70.655 546.756,70.79 546.891,70.82 546.997,70.79 547.926,70.325 549.817,69.785 549.997,69.56 550.118,69.245 
				550.147,69.155 550.147,68.93 550.1,68.825 549.891,68.39 549.788,68.105 549.743,67.805 549.711,67.34 549.725,66.95 
				549.788,66.56 549.875,66.245 549.938,65.855 549.967,65.54 549.907,65.3 549.756,65.075 549.397,64.88 548.663,64.64 
				547.987,64.49 547.567,64.355 547.475,64.31 547.266,64.175 547.163,64.07 547.1,63.845 547.1,63.65 547.25,63.11 
				547.432,62.585 547.688,62 548.422,61.61 548.6,61.4 548.75,61.07 548.842,60.68 548.917,60.47 549.083,60.17 549.262,59.96 
				549.5,59.765 549.725,59.63 549.967,59.525 550.475,59.24 550.913,58.865 551.077,58.685 551.182,58.565 551.288,58.325 
				551.317,58.205 551.391,57.89 551.438,57.44 			"/>
			<polyline fill="none" stroke="#666666" stroke-width="0.25" stroke-linejoin="round" stroke-miterlimit="3.8637" points="
				526.942,78.08 526.958,78.08 526.971,78.095 527.077,78.155 527.375,78.44 527.452,78.56 527.542,78.65 527.813,78.785 
				528.307,78.89 528.667,78.92 528.983,79.01 529.551,79.22 529.868,79.295 530.016,79.355 530.198,79.385 530.333,79.43 
				530.586,79.58 530.813,79.745 531.141,79.955 531.247,80.06 531.592,80.3 531.682,80.405 532.042,80.63 532.733,80.915 
				533.092,81.005 533.272,80.54 533.362,80.135 533.438,79.955 533.663,79.76 533.903,79.61 534.608,79.325 535.208,78.995 
				536.375,78.44 536.692,78.35 537.217,78.305 537.772,78.215 538.387,77.975 538.85,77.705 			"/>
			<polyline fill="none" stroke="#666666" stroke-width="0.25" stroke-linejoin="round" stroke-miterlimit="3.8637" points="
				538.85,77.705 539.256,77.825 539.872,78.08 540.112,78.17 541.403,78.71 542.032,78.92 542.528,79.145 542.961,79.19 
				543.833,79.145 544.836,79.16 545.375,79.235 546.051,79.37 546.667,79.415 546.952,79.46 547.372,79.565 547.672,79.685 
				548.573,80.15 548.975,80.39 549.188,80.48 549.292,80.495 549.5,80.48 549.711,80.405 550.342,80.075 550.432,80.06 
				550.522,80.075 550.596,80.165 550.641,80.27 550.641,80.39 550.612,80.495 550.131,81.59 550.012,81.905 549.952,82.22 
				549.967,82.52 550.012,82.7 550.086,82.91 550.25,83.225 550.641,83.705 550.971,84.05 551.391,84.47 551.631,84.665 
				551.961,84.83 552.817,85.055 553.358,85.235 553.583,85.355 553.792,85.505 554.016,85.745 554.438,86.405 554.6,86.615 
				555.038,86.945 555.381,87.155 556.461,87.56 556.85,87.755 556.971,87.83 557.032,87.935 557.122,88.16 557.153,88.445 
				557.153,88.955 557.108,90.29 557.016,91.55 			"/>
			<polyline fill="none" stroke="#666666" stroke-width="0.25" stroke-linejoin="round" stroke-miterlimit="3.8637" points="
				557.016,91.55 557.346,91.37 557.542,91.19 557.842,90.875 558.067,90.77 558.756,90.56 559.118,90.41 559.208,90.38 
				559.475,90.41 559.596,90.47 559.823,90.575 560.301,90.905 560.528,91.085 560.708,91.415 560.75,91.595 560.782,91.655 			"/>
			<polyline fill="none" stroke="#666666" stroke-width="0.25" stroke-linejoin="round" stroke-miterlimit="3.8637" points="
				568.942,70.4 568.807,70.565 568.538,71.105 568.25,71.84 567.833,72.74 567.458,73.7 567.233,74.105 566.512,75.26 
				565.733,76.43 565.522,76.73 565.448,76.88 564.997,77.51 564.907,77.675 564.653,78.005 564.532,78.245 564.262,78.83 
				563.827,79.64 563.6,80.135 563.452,80.645 563.422,80.96 563.438,81.155 563.573,81.725 563.647,81.905 563.708,81.995 
				564.426,82.1 565.702,82.175 566.317,82.28 566.948,82.43 567.667,82.745 567.891,82.88 568.567,83.195 569.182,83.525 
				569.198,83.63 569.167,83.72 569.063,84.425 568.987,84.71 568.868,85.025 568.657,85.31 568.313,85.52 568.086,85.64 
				567.381,85.925 567.172,86.105 566.708,86.63 566.362,86.675 566.016,86.645 565.688,86.675 565.596,86.69 565.313,86.84 
				564.891,87.185 562.493,88.265 562.073,88.55 561.667,88.775 561.157,89.105 561.067,89.21 560.917,89.39 560.872,89.495 
				560.842,89.675 560.887,89.795 561.307,90.11 561.5,90.305 561.682,90.605 561.788,90.785 561.907,91.13 561.997,91.46 
				562.028,91.655 562.012,91.745 561.967,91.85 561.846,91.925 561.743,91.955 561.637,91.97 561.442,91.955 561.247,91.88 
				560.782,91.655 			"/>
			<polyline fill="none" stroke="#666666" stroke-width="0.25" stroke-linejoin="round" stroke-miterlimit="3.8637" points="
				550.012,92.87 550.987,92.315 551.483,92.15 551.737,92.12 552.125,92.135 553.221,92.27 554.422,92.48 554.948,92.48 
				555.262,92.39 555.487,92.285 556.131,91.895 556.25,91.85 556.551,91.79 556.762,91.7 557.016,91.55 			"/>
			<polyline fill="none" stroke="#666666" stroke-width="0.25" stroke-linejoin="round" stroke-miterlimit="3.8637" points="
				560.782,91.655 560.842,91.835 560.975,92.03 561.083,92.135 561.278,92.285 561.563,92.435 561.997,92.57 562.313,92.6 
				562.657,92.585 563.108,92.51 563.407,92.39 563.618,92.345 563.827,92.33 564.038,92.405 564.157,92.495 564.381,92.735 
				564.756,93.305 565.028,93.605 565.313,93.86 565.762,94.1 566.256,94.205 566.528,94.25 566.813,94.25 566.903,94.22 
				567.006,94.13 567.038,94.025 567.022,93.26 567.096,93.17 567.202,93.185 567.413,93.29 567.846,93.635 568.403,94.235 			"/>
			<polyline fill="none" stroke="#666666" stroke-width="0.25" stroke-linejoin="round" stroke-miterlimit="3.8637" points="
				535.551,96.035 536.153,95.96 536.692,95.96 536.961,95.93 537.532,95.855 537.907,95.855 539.362,95.765 539.6,95.72 
				540.458,95.27 540.682,95.225 540.817,95.24 541.057,95.285 541.522,95.435 541.881,95.51 542.391,95.585 542.647,95.6 
				543.038,95.675 543.368,95.69 543.698,95.585 543.875,95.405 543.938,95.165 543.922,94.85 543.938,94.46 544.028,94.145 
				544.176,93.935 544.282,93.83 544.625,93.65 545,93.515 545.692,93.215 545.782,93.185 545.993,93.17 546.413,93.335 
				547.042,93.365 547.702,93.335 548.256,93.275 549.35,93.08 549.772,92.975 550.012,92.87 			"/>
			<polyline fill="none" stroke="#666666" stroke-width="0.25" stroke-linejoin="round" stroke-miterlimit="3.8637" points="
				522.157,84.095 522.172,84.125 522.202,84.32 522.141,84.665 522.067,84.965 521.872,85.49 521.766,85.73 521.692,85.955 
				521.692,86.165 521.721,86.27 521.903,86.465 522.35,86.885 522.833,87.275 522.983,87.47 522.983,87.56 522.907,87.65 
				522.667,87.77 522.307,87.815 522.172,87.815 521.858,87.845 521.301,87.935 520.958,88.28 520.147,89.27 519.938,89.555 
				519.922,89.66 520.342,89.96 521.333,90.53 521.676,90.755 522.141,91.145 522.563,91.55 522.725,91.76 522.922,92.045 
				523.342,92.765 523.417,92.87 523.625,93.005 523.747,93.035 524.631,93.095 525.096,93.215 525.846,93.455 526.493,93.71 
				526.702,93.845 527.317,94.325 527.407,94.445 527.528,94.775 527.6,95.225 527.647,95.645 527.737,95.825 527.842,95.93 
				527.932,95.99 528.247,96.02 529.042,96.005 530.708,95.855 531.532,95.735 532.342,95.705 533.317,95.69 534.141,95.75 
				534.458,95.795 535.551,96.035 			"/>
			<polyline fill="none" stroke="#666666" stroke-width="0.25" stroke-linejoin="round" stroke-miterlimit="3.8637" points="
				535.551,96.035 534.608,97.895 534.038,99.005 533.497,99.77 533.016,100.28 532.057,101.165 530.903,102.125 529.432,103.22 
				525.756,106.01 523.641,107.735 522.022,108.965 521.225,109.61 520.625,110.09 517.926,112.1 516.622,113.015 513.202,114.485 
							"/>
			<polyline fill="none" stroke="#666666" stroke-width="0.25" stroke-linejoin="round" stroke-miterlimit="3.8637" points="
				550.012,92.87 550.012,93.11 550.163,93.395 550.372,93.695 550.538,93.89 550.747,94.085 551.243,94.43 551.647,94.625 
				552.022,94.745 552.125,94.82 552.202,94.925 552.202,95.015 552.202,95.12 552.083,95.3 551.631,95.72 550.733,96.335 
				550.176,96.815 550.1,96.905 549.862,97.385 549.788,97.595 549.725,97.88 549.711,98.18 549.725,98.405 549.772,98.825 
				549.846,99.905 549.983,100.7 550.131,101.315 550.266,101.75 550.538,102.47 550.672,102.785 550.792,103.055 551.047,103.64 
				551.391,104.285 551.858,105.005 552.622,106.325 552.698,106.43 552.891,106.565 553.208,106.73 553.733,106.895 
				554.092,107.045 554.422,107.27 554.6,107.48 554.975,108.2 555.157,108.41 555.262,108.485 555.368,108.545 555.622,108.575 
				556.042,108.47 556.131,108.485 556.266,108.56 556.625,108.905 556.926,109.235 557.542,109.835 557.692,110.045 
				557.766,110.255 557.721,110.585 557.663,110.78 557.483,111.185 557.108,111.74 557.016,111.86 556.836,112.16 556.747,112.4 
				556.733,112.505 556.762,112.685 556.913,112.925 557.032,113.045 557.317,113.3 558.292,114.095 558.653,114.41 558.922,114.71 
				559.086,114.935 559.221,115.16 559.897,116.45 560.063,116.72 560.362,117.14 560.542,117.335 561.051,117.83 561.426,118.25 
							"/>
			<polyline fill="none" stroke="#666666" stroke-width="0.25" stroke-linejoin="round" stroke-miterlimit="3.8637" points="
				579.217,107.99 578.586,108.335 578.153,108.65 577.958,108.86 577.823,109.07 577.612,109.37 577.461,109.685 577.25,109.94 
				576.725,110.345 576.653,110.435 576.471,110.78 576.368,111.11 576.202,111.455 575.827,111.995 575.483,112.4 575.225,112.7 
				575.092,112.94 574.85,113.405 574.823,113.54 574.551,114.11 574.403,114.185 573.952,114.26 572.782,114.605 572.362,114.77 
				571.913,114.965 571.672,115.1 571.358,115.295 570.907,115.67 570.141,116.45 569.692,116.855 569.362,117.095 568.868,117.305 
				567.846,117.5 567.067,117.665 566.362,117.995 566.137,118.04 565.506,118.04 564.967,117.95 564.413,117.92 564.067,117.98 
				562.85,118.34 562.493,118.34 561.592,118.22 561.426,118.25 			"/>
			<polyline fill="none" stroke="#666666" stroke-width="0.25" stroke-linejoin="round" stroke-miterlimit="3.8637" points="
				561.426,118.25 562.237,119.21 562.522,119.525 562.836,119.795 563.063,119.945 563.542,120.14 564.083,120.305 564.217,120.32 
				564.458,120.335 565.1,120.245 565.403,120.26 565.493,120.305 565.625,120.38 565.733,120.47 565.807,120.56 565.913,120.785 
				565.942,120.965 565.958,121.49 565.926,121.805 565.942,123.08 565.913,123.275 565.85,123.485 565.506,124.25 			"/>
			<polyline fill="none" stroke="#666666" stroke-width="0.25" stroke-linejoin="round" stroke-miterlimit="3.8637" points="
				565.506,124.25 565.432,124.37 565.372,124.565 565.358,124.685 565.372,124.91 565.493,125.12 565.733,125.345 566.438,125.825 
				567.336,126.53 567.5,126.725 567.516,126.83 567.5,126.935 567.397,127.04 567.083,127.175 566.676,127.265 566.573,127.34 
				566.438,127.535 566.391,127.745 566.391,127.97 566.452,128.885 566.497,129.125 566.528,129.245 566.647,129.44 
				566.737,129.56 566.842,129.635 566.903,129.725 566.961,129.83 566.961,130.04 566.887,130.25 566.663,130.61 566.333,131.015 
				565.987,131.39 565.913,131.51 565.807,131.81 565.778,132.035 565.702,132.755 565.733,133.355 565.807,133.67 567.022,135.725 
				566.872,135.815 566.542,135.83 566.407,135.8 566,135.635 565.551,135.35 565.147,135.08 564.725,134.765 564.096,134.24 
				563.542,133.835 563.122,133.505 562.836,133.22 562.448,132.695 562.176,132.38 562.086,132.29 561.756,132.05 561.563,131.96 
				561.112,131.81 560.573,131.75 560.077,131.765 559.403,131.885 558.833,132.035 558.547,132.14 557.932,132.515 
				557.225,133.145 556.747,133.49 556.448,133.685 547.971,135.77 545.721,135.86 542.6,135.95 527.858,139.355 			"/>
			<polyline fill="none" stroke="#666666" stroke-width="0.25" stroke-linejoin="round" stroke-miterlimit="3.8637" points="
				565.506,124.25 565.641,124.295 565.881,124.265 566.407,124.295 567.188,124.28 568.448,124.07 569.211,123.8 569.647,123.575 
				569.797,123.395 570.217,122.78 570.487,122.48 570.608,122.375 570.711,122.3 570.922,122.225 571.131,122.195 571.461,122.21 
				572.063,122.315 572.887,122.51 573.112,122.525 573.233,122.495 573.323,122.435 573.547,122.105 573.622,122.015 
				573.833,121.85 574.042,121.715 574.342,121.61 574.897,121.46 575.422,121.295 576.006,120.905 576.307,120.755 576.547,120.65 
				577.028,120.5 577.717,120.305 578.137,120.14 578.692,119.87 579.547,119.405 579.862,119.27 580.086,119.21 580.387,119.195 
				580.717,119.21 581.708,119.39 581.993,119.375 582.336,119.285 582.952,119.06 583.163,119.015 583.25,119.03 583.358,119.09 
				583.432,119.21 583.432,119.3 583.417,119.39 583.358,119.495 583.147,119.78 583.118,119.99 583.163,120.185 583.163,120.275 
				582.952,120.29 582.756,120.26 582.532,120.305 582.413,120.5 582.442,120.605 582.563,120.8 582.653,120.905 582.907,121.085 
				583.221,121.25 583.551,121.34 583.823,121.385 584.301,121.415 584.813,121.475 585.202,121.58 585.756,121.775 
				586.448,122.105 587.362,122.57 587.782,122.72 588.907,123.23 590.243,123.92 591.622,124.475 591.938,124.64 592.131,124.805 
				592.25,125 592.493,125.9 592.551,126.245 592.641,126.485 592.881,126.815 593.077,127.01 593.407,127.28 594.112,127.925 
				594.336,128.06 594.622,128.165 594.817,128.285 594.983,128.495 595.073,128.78 595.1,128.96 595.042,129.425 594.922,129.875 
				594.637,130.595 594.563,130.805 594.516,131 594.487,131.225 594.487,131.66 594.563,132.95 594.592,133.745 594.577,133.97 
				594.516,134.21 594.381,134.615 594.307,134.945 594.292,135.05 594.323,135.17 594.426,135.29 595.403,136.1 596.077,136.535 
				597.756,137.825 598.506,138.5 599.631,139.58 600.397,140.15 600.711,140.36 600.983,140.525 601.282,140.585 601.475,140.57 
				602.092,140.435 602.317,140.435 602.422,140.51 602.452,140.675 602.317,140.9 602.077,141.2 601.702,141.515 601.208,141.845 
				600.922,142.01 600.711,142.115 600.038,142.325 599.557,142.52 599.198,142.715 598.85,142.955 598.448,143.255 598.221,143.48 
				597.725,144.05 596.842,145.67 596.618,146.06 596.362,146.585 			"/>
			<polyline fill="none" stroke="#666666" stroke-width="0.25" stroke-linejoin="round" stroke-miterlimit="3.8637" points="
				554.391,209.03 554.542,209.225 554.887,209.645 			"/>
		</g>
	</g>
</g>
</svg>
