<?xml version="1.0" encoding="utf-8"?>
<!-- Generator: Adobe Illustrator 13.0.0, SVG Export Plug-In . SVG Version: 6.00 Build 14948)  -->
<!DOCTYPE svg PUBLIC "-//W3C//DTD SVG 1.0//EN" "http://www.w3.org/TR/2001/REC-SVG-20010904/DTD/svg10.dtd">
<svg version="1.0" id="Calque_1" xmlns="http://www.w3.org/2000/svg" xmlns:xlink="http://www.w3.org/1999/xlink" x="0px" y="0px"
	 width="570.149px" height="543.894px" viewBox="0 0 570.149 543.894" enable-background="new 0 0 570.149 543.894"
	 xml:space="preserve">
<g id="XMLID_2_">
	<g>
		<g id="XMLID_1_">
			<g>
				<polygon fill="#84B93C" points="506.69,50.79 506.918,50.8 507.76,51.01 508.559,51.31 508.838,51.4 509.29,51.45 
					509.659,51.43 509.93,51.34 510.049,51.28 510.739,50.85 510.93,50.72 511.26,50.58 511.51,50.5 512.219,50.37 512.299,50.27 
					512.329,50.18 512.35,50.11 512.309,50 512.239,49.9 511.799,49.51 511.7,49.37 511.549,49.14 511.51,49.02 511.44,48.73 
					511.489,48.49 511.559,48.27 511.7,48.02 511.819,47.71 511.909,47.29 511.87,46.81 511.668,46.16 511.649,45.94 511.729,45.7 
					511.889,45.47 512.01,45.37 512.45,45.06 513.1,44.47 513.6,44.05 513.889,43.89 514.909,43.14 515.6,42.64 515.749,42.56 
					516.18,42.25 516.709,41.89 517.299,41.45 517.44,41.27 517.51,41.27 517.61,41.35 518.059,41.49 518.418,41.53 518.78,41.53 
					519.29,41.44 519.889,41.24 520.668,41.06 520.799,41.05 521.36,41.08 521.469,41.11 521.76,41.27 522.319,41.6 522.649,41.77 
					523.139,41.83 523.28,41.83 523.6,41.91 523.838,42.01 524.01,42.12 524.1,42.19 524.418,42.5 524.54,42.62 524.76,42.83 
					525.02,42.94 525.139,42.94 525.27,42.88 525.37,42.74 525.53,42.02 525.559,41.72 525.649,41.16 525.709,40.9 525.76,40.78 
					525.85,40.67 526.1,41.08 526.209,41.18 526.309,41.21 526.649,41.06 526.729,40.97 526.879,40.77 526.969,40.56 527.03,40.36 
					527.209,40.03 527.299,39.92 527.588,39.77 528.379,39.56 528.6,39.54 528.999,39.43 528.459,40.24 527.989,41.04 528.1,41.14 
					528.2,41.21 528.95,41.6 529.44,41.81 529.639,41.92 529.749,42.01 529.93,42.25 530.079,42.54 530.139,42.71 530.139,42.94 
					530.1,43.14 530.059,43.52 529.93,44.24 529.879,44.35 529.77,44.8 529.61,45.35 529.43,45.77 529.18,46.16 528.999,46.35 
					528.86,46.56 528.76,46.64 528.668,46.78 528.35,47.11 527.969,47.53 527.829,47.81 527.918,48.13 528.249,48.79 528.77,49.91 
					529.309,50.96 529.909,52.02 530.389,52.9 530.749,53.44 531.079,53.86 531.219,54.1 531.249,54.39 531.299,54.68 
					531.389,54.91 531.02,54.97 530.19,55.24 529.969,55.37 529.79,55.57 529.639,55.79 529.6,56 529.61,56.11 529.959,56.93 
					530.049,57.28 530.01,57.5 529.85,57.71 529.629,57.85 529.418,58.04 529.219,58.37 528.799,59.35 528.319,60.31 528.229,60.54 
					528.18,60.73 528.2,60.92 528.229,61.03 528.319,61.24 528.6,61.81 528.68,62.23 528.709,62.47 528.719,62.95 528.639,63.52 
					528.649,63.92 528.719,64.1 528.829,64.31 529.209,64.78 529.418,65.1 529.51,65.31 529.6,65.59 529.629,65.83 529.629,66.14 
					529.52,66.73 529.54,66.83 529.338,66.79 529.12,66.79 528.86,66.88 528.049,67.36 527.959,67.45 527.479,67.81 527.26,68.02 
					526.729,68.58 526.54,68.74 526.159,69.22 525.899,69.49 525.459,70.14 525.26,70.52 525.139,70.37 524.838,70.1 524.709,69.81 
					524.51,69.06 524.059,67.67 523.94,67.06 523.79,66.56 523.668,66.5 523.54,66.54 522.649,66.83 522.249,67 522.1,66.97 
					521.87,66.92 521.36,66.71 520.959,66.58 520.389,66.41 519.68,66.27 518.379,66.06 517.639,65.87 517.399,65.79 517.19,65.68 
					516.95,65.47 516.709,65.24 516.579,65.05 516.389,64.64 516.319,64.54 515.52,63.85 514.999,63.27 514.749,62.93 514.43,63.04 
					514.19,63.06 513.6,63.01 513.51,63 513.299,62.86 512.899,62.45 512.088,61.78 511.43,61.18 511.299,60.89 511.28,60.74 
					511.299,60.62 511.418,60 511.549,59.56 511.549,59.44 511.639,58.97 511.68,58.51 511.61,58.27 511.43,57.95 511.04,57.47 
					510.829,57.35 510.809,57.19 510.739,56.98 510.62,56.8 510.29,56.16 510.249,56.05 509.889,55.39 509.399,54.77 508.209,53.53 
					507.719,52.99 506.709,51.79 506.54,51.56 506.418,51.25 506.418,51.14 506.43,51.02 506.479,50.93 506.588,50.85 				"/>
			</g>
			<g>
				<polygon fill="none" stroke="#666666" stroke-width="0.25" stroke-linejoin="round" stroke-miterlimit="3.8637" points="
					498.43,0.25 498.51,0.27 498.649,0.41 498.829,0.54 498.85,0.7 498.68,0.88 498.588,0.91 498.379,0.82 497.719,1.02 
					497.469,0.95 497.418,0.88 497.45,0.77 497.799,0.55 498.168,0.52 498.26,0.47 498.319,0.33 				"/>
				<polygon fill="none" stroke="#666666" stroke-width="0.25" stroke-linejoin="round" stroke-miterlimit="3.8637" points="
					518.889,9.28 518.889,9.14 519.049,8.85 519.168,8.72 519.319,8.71 519.27,8.98 519.168,9.14 				"/>
				<polygon fill="none" stroke="#666666" stroke-width="0.25" stroke-linejoin="round" stroke-miterlimit="3.8637" points="
					543.27,11.95 543.2,11.91 543.219,11.7 543.389,11.56 543.43,11.39 543.559,11.35 543.668,11.6 543.879,11.87 543.77,11.95 				
					"/>
				<polygon fill="none" stroke="#666666" stroke-width="0.25" stroke-linejoin="round" stroke-miterlimit="3.8637" points="
					545.29,12.2 545.309,12.29 545.239,12.35 545.149,12.29 545.18,12.22 				"/>
				<polygon fill="none" stroke="#666666" stroke-width="0.25" stroke-linejoin="round" stroke-miterlimit="3.8637" points="
					548.989,48.79 548.838,48.76 548.78,48.67 548.829,48.58 549.01,48.35 549.249,48.37 549.37,48.62 549.219,48.73 				"/>
				<polygon fill="none" stroke="#666666" stroke-width="0.25" stroke-linejoin="round" stroke-miterlimit="3.8637" points="
					548.54,49.52 548.35,49.3 548.43,49.21 548.559,49.25 548.6,49.35 				"/>
				<polygon fill="none" stroke="#666666" stroke-width="0.25" stroke-linejoin="round" stroke-miterlimit="3.8637" points="
					549.319,53.1 549.168,53 548.838,52.91 548.78,52.84 548.809,52.75 549.049,52.83 549.35,53.04 				"/>
				<polygon fill="none" stroke="#666666" stroke-width="0.25" stroke-linejoin="round" stroke-miterlimit="3.8637" points="
					555.829,75.76 555.69,75.71 555.649,75.6 555.6,75.47 555.719,75.45 555.918,75.66 556.28,75.82 556.129,75.88 555.95,75.87 
									"/>
				<polygon fill="none" stroke="#666666" stroke-width="0.25" stroke-linejoin="round" stroke-miterlimit="3.8637" points="
					553.559,76.36 553.44,76.25 553.469,76.2 553.61,76.18 553.729,76.31 553.819,76.42 553.77,76.45 				"/>
				<polygon fill="none" stroke="#666666" stroke-width="0.25" stroke-linejoin="round" stroke-miterlimit="3.8637" points="
					555.62,77.24 555.588,77.27 555.389,77.16 555.29,77.04 555.29,76.96 555.37,76.95 555.409,77.06 				"/>
				<polygon fill="none" stroke="#666666" stroke-width="0.25" stroke-linejoin="round" stroke-miterlimit="3.8637" points="
					555.68,77.74 555.639,77.56 555.709,77.42 555.918,77.31 556.389,77.32 556.43,77.38 556.399,77.44 556.12,77.44 555.889,77.5 
					555.739,77.71 				"/>
				<polygon fill="none" stroke="#666666" stroke-width="0.25" stroke-linejoin="round" stroke-miterlimit="3.8637" points="
					552.299,78.13 552.27,78.07 552.229,77.92 552.249,77.92 552.27,77.83 552.43,77.87 552.459,77.41 552.37,77.29 552.409,77.24 
					552.6,77.33 552.639,77.58 552.709,77.66 553.12,77.81 553.459,77.79 553.649,77.89 553.7,77.86 553.668,77.75 553.629,77.65 
					553.79,77.58 553.729,77.39 553.77,77.08 553.649,76.96 553.549,76.84 553.51,76.78 553.51,76.67 553.729,76.69 553.77,76.66 
					554.12,76.36 554.079,76.2 554.049,76.04 554.19,75.87 554.12,75.79 554.1,75.68 554.209,75.56 554.209,75.45 554.379,75.5 
					554.569,75.6 554.729,75.88 554.78,75.97 554.799,76.03 554.87,76.12 554.93,76.12 554.989,76.06 554.989,75.89 554.829,75.81 
					554.889,75.7 554.989,75.71 555.2,75.89 555.459,75.89 555.918,76.15 555.889,76.22 555.719,76.22 555.579,76.1 555.459,76.1 
					555.27,76.21 555.29,76.35 555.229,76.37 555.18,76.45 555.229,76.52 555.229,76.67 555.26,76.74 555.168,76.81 555.04,76.85 
					554.94,76.77 554.93,76.99 554.94,77.17 555.29,77.41 555.469,77.6 555.549,77.81 555.549,78.01 555.499,78.08 555.168,78.08 
					555.02,78.13 554.829,78.27 554.629,78.43 554.36,78.43 554.35,78.58 554.27,78.64 553.309,78.97 553.01,79.03 552.479,79.29 
					552.389,79.41 552.379,79.43 552.249,79.52 552.01,79.6 551.76,79.77 551.51,79.84 551.36,79.96 551.309,79.95 551.29,79.95 
					551.26,79.62 551.43,79.35 551.469,79.16 551.54,79 551.709,78.92 551.87,78.79 552.04,78.46 552.29,78.2 552.319,78.17 				"/>
				<polygon fill="none" stroke="#666666" stroke-width="0.25" stroke-linejoin="round" stroke-miterlimit="3.8637" points="
					548.69,80.95 548.569,80.93 548.35,80.81 548.049,80.56 547.639,80.38 547.54,80.32 547.87,79.97 547.909,79.93 548.079,79.85 
					549.27,79.79 549.44,79.89 549.649,79.79 549.979,79.79 550.399,79.78 550.54,79.87 550.909,79.89 551.12,79.95 551.1,80.08 
					551.1,80.16 551.059,80.18 550.749,80.24 550.19,80.65 549.668,81.17 549.53,81.17 549.43,81.24 549.409,81.37 549.37,81.4 
					549.059,81.07 548.93,80.98 				"/>
				<polygon fill="none" stroke="#666666" stroke-width="0.25" stroke-linejoin="round" stroke-miterlimit="3.8637" points="
					542.709,107.16 542.829,107.18 542.87,107.37 542.799,107.41 				"/>
				<polygon fill="none" stroke="#666666" stroke-width="0.25" stroke-linejoin="round" stroke-miterlimit="3.8637" points="
					546.219,107.38 545.889,107.51 545.639,107.74 545.569,107.86 545.43,108.74 545.299,108.66 545.059,108.02 545.079,107.84 
					545.219,107.6 545.309,107.42 545.209,107.23 545.079,106.99 544.18,105.92 544.01,105.87 543.77,105.85 543.639,105.89 
					543.43,106.08 543.29,106.14 543.139,106.23 543.059,106.52 543.059,106.81 542.729,106.72 542.6,106.81 542.469,106.83 
					542.309,106.72 542.088,106.34 541.959,106.25 541.819,105.81 541.639,105.48 541.7,105.26 541.7,104.98 541.7,104.92 
					541.838,104.77 542.01,104.45 542.079,104.21 542.049,103.34 542.079,103.16 541.999,102.64 542.049,102.43 542.079,102.31 
					541.999,101.81 542.059,101.71 542.209,101.64 542.389,101.56 542.93,101.44 543.18,101.35 543.79,101.41 544.12,101.5 
					544.93,101.84 545.309,101.93 546.1,101.93 546.53,102.08 546.6,101.87 546.549,101.68 546.549,101.54 546.709,101.56 
					546.76,101.56 546.95,101.73 547.44,102.33 547.749,102.58 548.719,103.27 549.338,103.29 549.549,103.3 549.719,103.39 
					549.799,103.54 549.68,103.78 549.739,103.89 549.889,104.2 549.809,104.29 549.739,104.29 549.588,104.14 549.549,104.2 
					549.6,104.31 549.76,104.38 549.799,104.45 549.799,104.66 549.76,104.71 549.51,104.7 549.139,104.87 548.838,105.22 
					548.78,105.29 548.1,105.56 548.088,105.58 548.01,105.61 547.85,105.77 547.7,106.1 547.6,106.62 547.579,107.21 
					547.459,107.35 547.43,107.18 547.389,106.95 547.44,106.46 547.35,106.25 547.26,106.15 547.1,106.23 546.95,106.42 
					546.68,107.02 546.499,107.09 546.499,107.11 				"/>
				<polygon fill="none" stroke="#666666" stroke-width="0.25" stroke-linejoin="round" stroke-miterlimit="3.8637" points="
					544.979,109.84 544.94,109.57 544.999,109.52 545.079,109.52 545.12,109.62 545.079,109.74 				"/>
				<polygon fill="none" stroke="#666666" stroke-width="0.25" stroke-linejoin="round" stroke-miterlimit="3.8637" points="
					543.479,112.06 543.6,112.23 543.62,112.34 543.479,112.52 543.409,112.48 543.44,112.34 543.409,112.18 543.37,112.1 
					543.37,112.04 				"/>
				<polygon fill="none" stroke="#666666" stroke-width="0.25" stroke-linejoin="round" stroke-miterlimit="3.8637" points="
					551.469,115.85 551.079,115.23 551.1,115.09 551.54,115.57 551.569,115.7 				"/>
				<polyline fill="none" stroke="#666666" stroke-width="0.25" stroke-linejoin="round" stroke-miterlimit="3.8637" points="
					456.389,16.84 456.77,16.46 457.129,16.18 457.35,15.89 457.639,15.45 457.77,14.86 457.729,14.58 457.54,14.39 457.459,14.24 
					456.899,13.96 456.649,13.77 456.499,13.74 456.379,13.62 				"/>
				<polyline fill="none" stroke="#666666" stroke-width="0.25" stroke-linejoin="round" stroke-miterlimit="3.8637" points="
					456.389,13.03 456.69,12.82 456.969,12.89 457.19,12.89 457.549,13 457.729,13.15 457.969,13.22 457.969,13.24 458.049,13.35 
					458.239,13.35 458.36,13.29 458.45,13.15 458.418,13.04 458.709,13 458.899,13.09 459.37,13.31 459.588,13.39 459.829,13.37 
					460.18,13.22 460.418,13.24 460.54,13.12 460.52,12.94 460.68,12.91 460.749,12.85 460.889,12.88 460.979,12.97 461.1,13 
					460.999,13.24 460.838,13.43 460.85,13.56 461.049,13.77 461.18,13.83 461.299,13.89 461.45,14.06 461.6,14.1 462.01,14.06 
					462.35,13.96 462.79,13.91 463.02,13.93 463.329,14.04 463.639,14.05 463.79,14.11 464.079,14.35 464.299,14.65 464.469,14.79 
					464.838,15.06 464.959,15.34 465.969,16.02 466.309,16.15 466.639,16.21 466.799,16.16 467.079,16.18 467.35,15.92 
					467.399,15.81 467.469,15.83 467.43,15.91 467.54,16.03 467.799,16.08 467.889,15.99 467.969,16 468.049,16.14 468.27,16.29 
					468.389,16.22 468.469,16.22 468.51,16.54 468.579,16.62 468.739,16.58 468.969,16.48 469.79,16.42 470.079,16.36 470.139,16.3 
					470.299,16.14 470.43,16.08 470.569,16.08 470.659,16.14 470.659,16.22 470.45,16.42 470.418,16.58 470.26,16.67 470.01,17.18 
					470.03,17.31 470.389,17.81 470.418,17.92 470.29,18.1 470.01,18.5 470.01,18.62 470.219,18.81 470.559,19.1 470.809,19.27 
					472.129,19.62 473.26,19.62 474.149,19.5 474.299,19.51 474.499,19.63 474.549,19.48 474.999,19.29 476.559,18.87 
					477.249,18.47 477.739,18.33 477.899,18.25 478.1,18.14 478.77,17.71 479.418,17.49 479.799,17.26 480.219,17.06 480.479,16.87 
					480.799,16.83 481.088,16.63 481.209,16.6 481.249,16.6 481.418,16.58 481.489,16.7 481.51,16.96 481.6,17.02 482.01,17.08 
					482.1,17.14 482.12,17.23 482.079,17.38 482.139,17.44 482.559,17.56 483.319,17.49 483.579,17.42 483.79,17.42 483.879,17.47 
					484.219,17.45 484.249,17.44 484.469,17.39 484.68,17.54 485.329,17.53 485.51,17.66 485.76,18.01 486.079,18.06 486.299,17.96 
					486.44,17.98 486.6,18.07 486.799,18.02 486.969,18.06 487.139,17.96 487.649,17.92 487.969,17.87 488.299,17.71 488.569,17.54 
					488.918,17.41 488.959,17.39 488.969,17.39 490.19,17.06 490.37,16.87 490.459,16.87 490.639,17.02 491.03,16.97 491.209,16.83 
									"/>
				<polyline fill="none" stroke="#666666" stroke-width="0.25" stroke-linejoin="round" stroke-miterlimit="3.8637" points="
					561.85,121.76 562.129,122 562.469,122.29 562.94,123.01 563.29,123.2 563.569,123.24 563.729,123.49 564.049,123.64 
					564.6,123.79 564.95,123.77 566.68,124.16 567.129,124.2 567.579,124.3 567.62,124.04 567.229,123.87 566.709,123.71 
					566.45,123.49 565.959,123.29 565.729,123.25 565.54,123.34 565.209,123.1 564.979,122.98 564.879,122.75 565.299,122.93 
					565.61,123.04 566.418,123.31 566.918,123.5 567.129,123.67 567.79,124 568.93,124.43 569.69,124.74 569.899,124.87 				"/>
				<polyline fill="none" stroke="#666666" stroke-width="0.25" stroke-linejoin="round" stroke-miterlimit="3.8637" points="
					528.739,11.98 528.79,11.96 528.918,11.64 528.85,11.38 528.889,11.24 529.01,11.32 529.069,11.66 529.129,11.77 529.129,11.79 
					529.309,11.95 529.76,12.17 529.799,12.27 529.838,12.47 529.729,12.66 529.559,12.68 529.459,12.66 529.44,12.6 529.549,12.43 
					529.52,12.35 529.35,12.28 529.28,12.27 529.02,12.35 528.639,12.41 528.53,12.55 528.579,12.6 528.649,12.6 528.809,12.5 
					528.579,12.89 528.319,13.56 528.338,13.97 528.2,13.84 528.11,13.87 528.26,14.08 528.18,14.16 528.229,14.2 528.319,14.17 
					528.389,14.21 528.51,14.53 528.51,14.59 528.549,14.81 528.86,15.5 529.299,16.06 530.209,16.85 530.719,17.21 530.809,17.24 
					531.01,17.33 531.02,17.33 531.6,17.45 531.709,17.54 531.799,17.68 531.739,17.8 531.719,17.83 531.799,18.1 531.899,18.25 
					532.04,18.33 532.129,18.37 532.18,18.4 532.28,18.47 532.6,18.7 532.629,18.83 532.61,18.94 532.338,19 532.18,19.27 
					531.979,19.43 531.969,19.64 531.499,20.29 531.44,20.47 531.219,20.52 531.29,20.65 531.04,20.74 530.94,20.83 530.899,21.01 
					531.168,21.5 531.149,21.56 531.53,22 531.86,22.41 532.059,22.54 532.219,22.66 532.729,22.91 532.93,22.99 532.969,23 
					533.379,23.11 533.78,23.14 534.01,23.11 534.29,23.06 534.53,23.02 535.19,22.78 535.549,22.57 535.649,22.69 535.54,22.84 
					535.579,22.91 535.749,22.89 535.85,22.79 535.68,22.54 535.719,22.5 536.87,22.06 537.129,21.87 537.26,21.68 537.389,21.25 
					537.6,20.83 537.68,20.33 537.809,20.06 537.86,19.69 537.918,19.51 538.139,19.42 538.19,19.3 538.159,19.06 538.54,18.95 
					538.79,18.74 538.838,18.56 538.969,18.54 539.168,18.7 540.049,18.45 540.319,18.55 540.999,18.52 541.26,18.45 541.559,18.35 
					541.87,18.19 542.01,18.12 542.299,17.92 542.829,17.42 543.27,16.99 543.709,16.9 543.979,16.58 544.088,16.54 544.139,16.41 
					544.299,16.45 544.749,16.15 544.94,16 545.26,15.67 545.36,15.64 545.588,15.39 545.76,14.98 546.059,15.02 546.149,14.93 
					546.168,14.62 545.989,14.41 546.059,14.35 546.049,14.24 545.969,14.17 546.049,14.04 546.04,13.9 546.079,13.84 
					546.168,13.85 546.229,13.97 546.37,13.91 546.62,13.84 546.79,13.83 546.979,13.74 547.329,13.74 547.549,13.83 548.309,13.54 
					548.588,13.31 548.87,13.21 549.01,13.12 549.049,12.99 549.02,12.82 549.1,12.74 549.229,12.88 549.319,12.88 549.338,12.99 
					549.338,13.02 549.479,13.14 549.588,13.09 549.649,13.16 549.668,13.39 549.77,13.56 550.02,13.78 550.059,13.95 
					549.999,14.02 549.809,14 549.709,14.1 549.639,14.65 549.68,14.98 549.829,15.34 550.129,15.79 550.54,16.37 550.889,18.12 
					551.079,18.37 551.379,18.58 551.43,18.79 551.399,18.95 551.36,19.16 551.12,19.72 550.959,19.85 550.719,19.85 550.1,20.11 
					549.879,20.32 549.69,20.41 549.62,20.47 549.1,20.93 548.87,21.27 548.559,21.6 548.03,22.27 547.389,23.27 546.76,24.45 
					546.229,24.99 545.6,26.29 545.569,26.32 545.399,26.5 545.059,27.25 544.799,27.79 544.35,29.06 543.79,30.2 543.62,30.37 
					543.53,30.41 543.338,30.49 543.26,30.58 543.04,30.54 542.87,30.61 542.729,30.6 542.18,30.79 541.94,30.81 541.799,30.91 
					541.729,30.91 541.51,30.91 541.18,31.1 540.639,31.3 540.26,31.54 539.899,31.87 539.639,31.9 539.559,32 539.379,31.96 
					539.19,32.1 538.959,32.14 538.549,31.91 538.469,31.9 538.219,31.9 537.969,32.04 537.6,32.32 537.2,32.75 536.809,33.39 
					536.629,33.66 536.379,34.16 536.26,34.52 535.979,35.2 535.79,35.75 535.44,37.69 535.418,38.31 535.389,38.8 535.399,39.39 
					535.838,41.77 536.1,42.02 536.239,42.1 536.479,42.14 536.569,42.19 536.68,42.33 536.719,42.58 536.659,42.77 536.749,42.94 
					536.729,43.15 536.799,43.42 537.459,44.49 537.879,44.89 538.559,45.91 538.579,46.09 538.6,46.21 538.668,46.39 538.94,46.69 
					539.168,47.16 539.219,47.26 539.729,47.71 539.838,48.19 540.01,48.33 540.719,48.89 540.739,48.89 541.219,49.15 
					541.43,49.33 541.61,49.43 542.059,49.45 542.299,49.39 542.389,49.37 542.918,49.14 543.059,49.02 543.26,49.06 543.51,48.94 
					543.668,49.02 544.069,49.06 544.159,49.21 544.338,49.35 544.389,49.45 544.04,50.04 544.04,50.2 544.12,50.39 544.1,50.52 
					544.01,50.39 543.918,50.38 543.879,50.42 543.879,50.77 543.918,51.01 544.04,51.2 544.26,51.37 544.79,51.62 544.979,51.68 
					545.088,51.66 545.27,51.88 545.52,51.97 545.69,52.08 546.26,52.2 547.01,52.37 547.28,52.51 547.649,52.52 547.819,52.58 
					547.94,52.79 548.26,52.89 548.399,53.04 549.049,53.14 549.37,53.31 549.389,53.45 549.379,53.58 549.29,54.01 549.059,54.41 
					549.01,54.87 549.01,55.09 549.01,55.33 549.079,55.63 549.37,56.31 549.62,56.53 549.809,56.59 550.18,56.58 550.209,56.66 
					549.999,56.83 549.77,56.92 549.68,57.07 549.229,58.72 549.37,59.54 549.379,59.71 549.079,60.04 549.049,60.49 549.079,61 
					549.139,61.39 549.18,61.48 549.338,61.81 550.19,62.74 550.389,63 550.838,63.37 550.87,63.41 550.969,63.52 551.12,63.7 
					551.569,64.06 551.62,64.08 552.01,64.27 552.049,64.35 552.049,64.41 552.049,64.42 552.049,64.48 552.049,64.5 551.989,64.48 
					551.918,64.52 551.62,64.52 551.27,64.51 551.149,64.58 550.838,65.04 550.87,65.29 550.749,65.44 550.28,66.1 550.299,66.33 
					550.12,66.41 549.918,66.39 549.739,66.46 549.6,66.46 549.44,66.55 548.87,67.69 548.809,68 548.829,68.31 548.94,68.53 
					548.959,68.59 548.889,68.7 548.829,69.41 548.729,69.68 548.51,70.03 548.379,70.36 547.979,70.58 547.489,70.9 547.129,71.14 
					546.68,71.52 546.499,71.66 546.389,71.96 546.379,72.58 546.43,72.81 546.379,73.04 546.44,73.48 546.338,74 546.11,74.31 
					545.659,74.71 545.54,74.91 545.43,75.19 545.059,75.52 544.969,75.67 544.969,75.85 545.049,75.95 545.059,75.99 
					545.168,76.18 545.149,76.33 545.059,76.39 544.719,76.41 544.329,76.52 544.18,76.66 543.93,76.85 543.76,77.1 543.559,77.16 
					543.29,77.42 542.68,77.86 542.719,77.96 542.93,78.13 542.989,78.28 542.989,78.41 542.94,78.33 542.809,78.25 542.719,78.27 
					542.749,78.37 542.69,78.37 542.588,78.39 542.479,78.4 542.418,78.4 542.379,78.46 542.299,78.56 542.299,78.6 542.239,78.76 
					542.219,78.87 542.19,78.97 542.149,79.14 542.209,79.39 542.209,79.6 541.799,80.16 541.68,80.44 541.54,80.59 541.399,80.6 
					541.19,80.62 541.139,80.62 541.069,80.62 540.969,80.64 540.719,80.64 540.549,80.59 540.1,80.8 540.049,80.8 539.93,80.83 
					539.69,81 539.54,81.31 539.389,81.45 539.29,81.47 539.209,81.74 539.049,82.02 538.649,82.41 538.549,82.69 538.559,83.38 
					538.52,83.5 538.338,83.64 537.719,83.98 537.6,83.98 537.6,83.89 537.51,83.83 537.35,83.86 536.889,84.06 536.829,83.95 
					536.35,83.98 536.088,84.13 536.079,84.13 535.399,84.4 535.229,84.46 534.588,84.92 534.469,85.2 533.749,86.09 533.639,86.26 
					533.62,86.29 533.569,86.37 533.51,86.45 533.309,86.71 533.049,86.89 532.909,86.91 532.7,86.66 532.549,86.66 532.44,86.75 
					532.37,87 532.249,86.93 532.159,87.07 532.219,87.14 532.329,87.14 532.418,87.08 532.51,87.01 532.61,86.92 532.68,86.93 
					532.719,86.98 532.668,87.24 532.549,87.35 532.159,87.52 532.01,87.58 531.879,87.54 531.79,87.49 531.479,87.41 531.35,87.29 
					531.219,87.31 531.079,87.41 530.85,87.46 530.799,87.52 530.809,87.87 530.719,88.08 530.68,88.2 530.588,88.25 530.299,88.33 
					530.19,88.33 530.01,88.33 529.879,88.39 529.54,88.72 529.329,88.87 529.19,88.91 529.1,88.72 528.999,88.69 528.799,88.62 
					528.379,89.35 528.299,89.32 528.219,89.47 527.889,89.42 527.299,89.73 527.088,89.77 526.729,90.08 526.559,90.28 
					526.28,90.82 526.1,91.04 525.879,91.58 525.68,92.06 525.27,92.68 525.139,92.81 525.129,93.04 525.02,93.54 524.93,93.68 
					524.588,93.67 524.51,93.76 524.51,93.89 524.68,94.09 524.729,94.36 524.729,94.45 524.809,94.93 524.749,95.14 524.719,95.24 
					524.709,95.47 524.809,95.64 524.87,95.93 524.889,96.43 524.989,96.91 524.94,97.09 524.94,97.34 525.168,97.9 525.18,98.26 
					525.139,98.31 524.969,98.31 524.899,98.33 524.76,98.39 524.329,98.41 524.329,98.49 524.418,98.54 525.18,98.38 525.319,98.6 
					525.459,98.73 525.6,99 525.799,99.73 525.979,100.03 526.549,100.96 526.879,101.32 527.149,101.83 527.959,102.68 
					528.1,102.87 528.479,103.39 528.499,103.51 528.459,103.63 528.479,103.69 528.549,103.63 528.639,103.62 528.709,103.75 
					528.86,103.79 529.02,103.91 529.329,104.27 529.489,104.39 529.799,104.56 529.969,104.71 530.139,104.8 530.168,104.86 
					530.079,105.08 530.329,105 530.569,105.06 530.639,105.14 530.69,105.35 530.918,105.64 530.889,105.73 531.11,105.74 
					531.29,105.88 531.799,106.29 532.12,106.63 533.329,107.41 534.18,107.81 534.229,107.89 534.338,107.87 534.53,107.84 
					534.69,107.92 535.399,108.06 535.54,108.12 535.549,108.12 535.579,108.14 535.668,108.19 535.719,108.33 535.43,108.37 
					535.399,108.5 535.26,108.66 535.139,108.7 534.95,108.66 534.809,108.81 534.829,108.95 534.889,108.94 534.95,108.81 
					535.159,108.81 535.399,108.67 535.54,108.45 535.68,108.43 535.76,108.48 535.79,108.66 535.909,108.73 536.139,108.61 
					536.729,108.29 537.229,108.28 537.68,108.17 537.668,108.31 537.62,108.62 537.69,108.68 537.969,108.73 537.999,108.83 
					538.309,108.66 538.28,108.59 538.04,108.62 537.86,108.59 537.739,108.49 537.739,108.45 537.739,108.34 537.79,108.26 
					537.809,108.19 537.969,108.08 538.389,107.96 538.838,107.73 538.959,107.73 539.569,107.53 539.809,107.41 539.93,107.26 
					540.389,106.93 540.479,106.89 540.76,106.75 541.02,106.62 541.329,106.57 541.52,106.64 541.79,106.83 541.979,107.08 
					542.03,107.23 542.01,107.42 541.838,108.2 541.668,108.54 541.729,108.91 541.749,109.09 541.77,109.24 541.719,109.51 
					541.6,109.72 541.489,110.08 541.389,110.26 541.129,110.38 540.93,110.58 540.68,110.7 540.579,110.8 540.51,111.02 
					540.53,111.07 540.549,111.26 540.6,111.43 540.68,111.56 540.79,111.73 540.809,111.79 540.899,111.94 540.95,112.1 
					540.889,112.36 540.93,112.52 541.229,112.7 541.668,112.78 541.889,112.85 542.18,113.11 542.29,113.12 542.51,113.11 
					542.899,113.09 543.149,112.95 543.69,112.66 543.85,112.66 544.1,112.46 544.28,112.42 544.329,112.39 544.579,112.16 
					545.209,112.01 545.43,111.88 545.69,111.83 546.319,111.64 546.479,111.55 546.879,110.95 546.93,110.71 546.899,110.49 
					546.889,110.45 546.77,110.2 546.6,110.04 546.549,109.85 546.29,109.63 546.1,109.62 546.059,109.52 546.11,109.29 
					546.299,109.12 546.76,108.94 546.889,108.85 546.999,108.77 547.1,108.77 547.12,108.77 547.54,108.92 547.959,108.91 
					548.03,108.82 547.93,108.66 547.93,108.54 548.049,108.52 548.168,108.67 548.54,108.67 549.1,109.03 549.43,109.03 
					549.79,109.31 549.95,109.54 550.26,109.84 550.44,110.08 550.76,110.49 550.979,110.98 551.168,111.49 551.209,112.64 
					550.959,112.96 550.85,113.31 550.639,114.02 550.579,114.2 550.6,114.25 550.639,114.41 550.838,114.67 550.909,115.14 
					551.139,115.54 551.239,115.85 551.239,116.08 551.149,116.2 551.088,116.45 551.219,116.41 551.239,116.39 551.52,116.16 
					551.78,116.2 552.18,116.54 552.37,116.83 552.469,117.1 552.499,117.19 552.68,117.29 553.159,117.55 553.459,117.66 
					553.7,117.73 553.838,117.85 554.149,117.94 554.51,118.18 555.049,118.41 555.319,118.6 555.37,118.69 555.299,118.76 
					555.139,118.76 554.899,118.64 553.93,118.16 553.35,118.04 553.18,117.94 552.668,117.77 552.219,117.55 551.889,117.54 
					551.69,117.67 551.569,117.62 551.418,117.79 551.399,118.01 551.309,118.15 551.299,118.33 551.35,118.5 551.559,118.7 
					551.799,119.08 551.959,119.14 552.18,119.35 552.229,119.54 552.389,119.81 552.409,120.08 552.409,120.2 552.62,120.61 
					552.79,120.74 552.95,120.76 553.088,120.66 553.249,120.7 553.54,120.68 553.6,120.68 553.93,120.76 554.85,120.77 
					555.469,121 555.51,121 556.969,121.36 557.19,121.36 557.29,121.41 557.54,121.42 557.639,121.36 557.749,121.24 
					557.889,121.23 558.129,121.41 558.37,121.5 558.899,121.48 559.02,121.34 559.01,121.21 559.02,121.15 559.059,121.08 
					558.588,120.79 558.44,120.68 558.079,120.5 556.799,119.45 556.6,119.27 556.209,119.11 556.19,119.05 556.299,119.04 
					556.489,119.08 557.01,119.44 558.129,120.35 558.459,120.58 558.499,120.59 560.36,121.57 560.799,121.7 561.29,121.79 
					561.668,121.79 561.829,121.76 				"/>
				<polyline fill="none" stroke="#666666" stroke-width="0.25" stroke-linejoin="round" stroke-miterlimit="3.8637" points="
					491.219,16.83 492.049,16.43 492.68,16.24 492.77,16.09 492.86,16.09 492.918,16.24 493.219,16.22 493.399,16.16 493.51,16.08 
					493.61,16.09 493.79,16.25 493.959,16.2 494.079,16.3 494.26,16.57 494.659,16.48 495.229,16.25 495.649,15.97 495.899,15.82 
					496.418,15.55 497.12,15 497.309,14.81 497.918,14.26 498.379,13.83 498.639,13.58 499.059,13.1 499.1,12.89 499.44,12.4 
					499.43,12.35 499.309,12.37 499.309,12.27 499.649,12.1 499.85,12.01 499.979,11.83 500.27,11.65 500.469,11.44 500.639,11.37 
					500.719,11.24 501.059,11.05 501.379,10.97 501.799,10.78 501.809,10.78 502.12,10.77 502.799,10.63 502.909,10.54 
					503.049,10.43 503.52,10.18 503.709,10.04 503.829,9.82 504.1,9.56 504.37,9.08 504.579,8.86 504.918,8.72 505.02,8.6 
					505.139,8.59 505.338,9.13 505.418,9.17 505.61,9.17 506.088,9.19 506.209,9.1 506.52,9.08 507.02,8.83 507.149,8.86 
					507.809,8.85 508.12,8.77 508.249,8.7 509.12,8.23 509.27,8.12 509.36,7.96 509.629,7.91 509.809,7.84 509.899,7.79 
					510.37,7.81 510.809,7.97 511.19,7.95 511.668,7.75 512.899,6.95 513.18,6.82 513.338,6.82 513.43,6.85 513.68,7.12 
					513.879,7.14 513.979,7.06 514.389,6.94 514.7,6.79 515.18,6.46 515.69,6 515.899,6 516.059,5.89 516.139,5.89 516.219,5.98 
					516.389,6 516.549,5.91 516.709,5.98 517.088,6.01 517.459,5.87 517.819,5.68 517.969,5.7 518.12,5.65 518.209,5.92 
					518.379,6.07 518.588,6.16 518.799,6.2 519.168,6.2 519.469,6.1 519.77,6.01 520.069,6.01 520.309,6.07 520.749,6.06 
					520.879,6.88 520.999,7.09 520.969,7.29 521.079,7.42 521.059,7.54 521.059,7.75 521.049,7.75 520.959,7.83 520.93,7.85 
					520.799,7.95 520.79,7.96 520.549,7.95 520.44,8 520.579,8.14 520.219,8.27 520.088,8.39 519.969,8.37 519.879,8.37 
					519.809,8.45 519.649,8.53 519.649,8.64 519.479,8.54 519.338,8.54 519.02,8.66 518.799,8.65 518.69,8.64 518.709,8.72 
					518.729,8.93 518.69,9.1 518.639,9.12 518.469,8.98 518.45,8.98 518.299,9.13 518.379,9.25 518.389,9.25 518.45,9.25 
					518.569,9.34 518.68,9.6 518.799,9.52 518.918,9.54 518.918,9.62 518.78,10.08 518.799,10.24 518.87,10.36 519.26,10.48 
					519.29,10.58 519.459,10.66 519.379,11 519.409,11.17 519.499,11.27 519.829,11.38 520.139,11.42 520.43,11.41 520.6,11.47 
					520.838,11.5 520.94,11.45 521.149,11.23 521.418,11 521.68,10.96 521.93,10.74 522.249,10.24 522.389,9.91 522.44,9.64 
					522.409,9.4 522.299,9.12 522.168,9.04 521.588,9.02 521.26,8.98 520.79,8.81 520.629,8.85 520.418,8.96 520.229,9.01 
					519.969,9.01 519.899,9 519.799,8.95 519.809,8.86 520.088,8.77 520.18,8.54 520.219,8.5 520.579,8.41 520.76,8.27 
					520.909,8.05 521.01,7.93 521.12,7.83 521.18,7.78 521.379,7.83 521.43,7.91 521.68,8.06 521.93,8.16 522.62,8.31 522.719,8.32 
					523.28,8.37 524.01,8.38 524.079,8.38 524.18,8.37 524.499,8.32 524.889,8.05 525.379,7.93 525.499,7.83 525.62,7.85 
					525.719,8.1 526.04,8.41 526.229,8.62 526.838,8.62 527.51,8.85 528.249,9.31 528.68,9.46 528.829,9.6 528.969,9.64 
					529.12,9.77 529.088,9.95 529.159,10 529.18,10.02 529.489,10.12 529.879,10.16 530.36,10.18 530.749,10.14 530.809,10.21 
					530.78,10.31 530.639,10.37 530.379,10.37 530.27,10.43 530.03,10.63 529.959,10.77 529.159,11.2 529.069,11.18 529.059,11.1 
					529.129,11.04 529.309,11 529.399,10.9 529.418,10.67 529.37,10.62 529.249,10.54 527.749,10.63 527.54,10.78 527.389,11.12 
					527.209,11.26 527.27,11.27 527.52,11.59 527.709,11.68 528.2,11.71 528.37,11.47 528.469,11.5 528.53,11.6 528.44,11.8 
					528.639,11.87 528.709,11.98 528.719,11.98 				"/>
				<polyline fill="none" stroke="#666666" stroke-width="0.25" stroke-linejoin="round" stroke-miterlimit="3.8637" points="
					513.76,203.09 513.579,202.41 513.549,202.25 513.479,202.04 512.719,198.68 512.719,198.64 512.26,196.48 512.088,196.08 
					509.588,185 509.079,182.81 509.01,182.71 508.54,180.68 508.549,180.58 507.29,175.29 506.149,170.44 506.12,170.04 
					504.62,163.98 504.44,163.23 504.44,163.09 504.219,162.17 504.049,161.21 504.04,161.17 503.469,159.08 503.26,157.89 
					503.209,157.76 503.168,157.66 502.979,154.23 501.79,151.91 501.588,151.54 484.249,139.9 484.18,139.48 483.709,136.42 
					483.588,135.59 483.588,132.92 483.588,131.75 483.469,131.54 478.559,123.81 478.489,123.68 476.989,123.71 473.209,121.56 
					471.2,121.64 469.43,119.51 469.389,119.47 469.52,114.61 469.52,114.56 468.37,112.87 467.559,111.68 466.549,109.84 
					466.069,108.97 466.139,107.62 466.088,107.27 465.79,106.95 465.6,106.6 465.51,106.41 465.459,105.95 465.588,105.48 
					465.588,105.33 465.149,104.92 464.659,104.6 464.43,104.42 464.43,104.37 464.399,104.06 464.43,103.95 464.588,103.7 
					464.69,103.37 464.709,103 464.659,102.62 464.219,101.38 464.29,101.12 464.6,100.34 464.62,100.29 464.62,99.87 464.52,99.35 
					464.838,98.44 464.85,98.18 464.6,97.41 464.729,97.09 464.78,97 464.799,96.99 464.918,96.87 465.18,96.59 465.639,96.48 
					466.02,96.08 466.309,95.64 466.329,95.49 466.43,94.36 466.469,94.21 466.629,93.79 466.93,93.22 468.68,92.93 469.069,92.91 
					469.44,92.89 470.1,92.83 470.838,92.79 471.01,92.71 470.969,92.41 471.02,92.09 470.959,91.98 471.499,90.91 471.51,90.85 
					471.649,90.26 471.79,89.71 471.918,89.32 472.069,88.27 472.04,87.4 472.04,87.35 472.28,87.29 472.838,87.25 473.749,87.06 
					473.78,87.02 473.838,86.95 474.43,86.38 474.69,86.18 474.95,86.05 475.26,85.99 475.389,85.96 475.668,85.95 476.379,85.27 
					476.54,85.12 476.6,85.06 477.249,84.83 477.338,84.83 477.44,84.58 477.6,84.35 477.829,84.35 478.209,84.43 478.229,84.43 
					478.338,84.43 478.389,84.45 478.469,84.22 478.489,84.2 478.719,83.87 479.389,83.65 479.51,83.41 479.639,83.38 479.87,82.74 
					480.059,82.66 480.129,82.69 480.2,82.67 480.69,82.64 480.739,82.62 480.85,82.56 480.899,82.31 480.829,82.12 480.889,81.91 
					481.28,81.7 481.77,81.64 481.889,81.37 481.729,80.96 482.059,80.66 482.079,80.39 481.879,80.06 481.649,79.69 481.79,79.25 
					482.389,78.56 482.829,78.37 483.26,78.46 483.29,78.22 483.27,78.22 483.26,78.2 482.87,77.75 482.719,77.6 482.588,77.29 
					482.76,77.06 482.76,77.05 482.749,77.04 482.639,76.85 482.629,76.78 482.6,76.57 482.6,76.56 482.629,76.21 482.629,76.2 
					482.569,75.85 482.62,75.71 482.479,75.31 482.469,75.06 482.35,74.86 482.29,74.59 482.27,74.5 482.27,74.49 482.26,74.39 
					482.219,74.35 482.149,74.24 482.049,74.08 482.569,72.64 482.93,72.22 483.149,71.87 483.219,71.7 483.249,71.56 483.35,71.21 
					483.37,70.9 483.37,70.78 483.44,70.24 483.6,69.95 483.76,69.62 484.19,68.37 484.299,68.2 484.76,67.91 485.168,67.51 
					485.43,67 485.68,66.68 485.838,66.08 485.918,65.87 486.129,65.47 486.18,65.37 486.44,64.93 487.139,64.18 487.129,64.06 
					487.088,64.04 486.379,64.2 485.989,64.21 485.559,64.04 485.35,63.92 485.139,63.81 484.649,63.46 483.69,63 483.62,62.86 
					483.53,62.81 483.51,62.66 483.409,61.96 483.389,61.39 483.389,60.89 483.469,59.85 483.549,59.42 484.02,58.25 484.299,58.12 
					484.35,58.1 485.03,57.76 484.959,57.37 484.76,57.12 484.629,57.06 484.51,56.64 484.43,55.77 484.43,55.66 484.43,55.56 
					484.44,55.42 484.338,54.92 484.209,53.85 484.26,53.59 484.329,53.41 484.399,52.83 484.299,52.43 484.229,52.31 
					484.139,52.18 483.95,52.03 483.059,51.49 482.239,50.54 481.979,50.05 481.879,49.72 481.889,49.52 482.049,49.21 
					482.139,48.91 482.18,48.71 482.29,48.19 482.299,47.52 482.139,46.9 482.168,46.69 482.19,46.51 482.19,46.48 482.27,46.31 
					482.29,46.27 482.52,45.77 482.719,45.24 482.729,45.19 482.729,45.17 482.749,45.16 482.959,44.83 482.969,44.8 482.969,44.79 
					482.959,44.75 482.78,44.33 482.78,44.27 482.78,44.18 482.78,44.1 482.829,43.41 482.918,42.97 482.94,42.82 482.889,42.29 
					482.989,42.02 483.319,41.41 483.379,41.31 483.549,40.67 483.999,40.25 484.088,40.29 484.18,40.31 484.129,40.21 
					483.93,39.92 483.918,39.88 483.93,39.4 483.899,39.25 483.799,39.16 483.6,39.04 483.229,38.6 483.229,38.54 483.219,38.47 
					483.2,38.44 483.229,38.32 483.6,37.91 483.77,37.7 483.889,37.39 484.059,37.15 484.12,37.06 484.139,36.99 484.19,36.91 
					484.19,36.88 484.18,36.2 484.04,35.45 484.44,35.05 484.7,34.87 485.03,34.77 485.12,34.62 485.12,34.54 484.999,34.42 
					484.79,34.12 484.76,34.09 484.77,33.61 484.959,33.25 484.979,33.19 485.18,33.02 485.168,32.77 484.959,32.27 485.43,31.84 
					485.479,31.72 485.559,31.6 485.559,31.57 485.588,31.33 484.879,31.25 484.729,31.2 484.719,31.15 484.639,31.09 484.37,30.89 
					484.12,30.85 483.719,31.06 483.389,31.1 483.379,31.06 483.27,31.06 483.11,30.88 482.918,30.74 482.76,30.71 482.68,30.7 
					482.219,30.83 482.049,30.83 481.719,30.74 480.76,30.61 480.579,30.55 480.6,30.52 480.37,30.29 480.059,30.22 479.829,30.12 
					479.559,29.64 479.54,29.62 479.54,29.58 479.45,29.26 479.52,29.14 479.829,29.06 479.899,28.93 480.049,28.81 480.338,28.85 
					480.459,28.87 480.649,28.83 481.28,28.6 482.03,28.16 482.469,28.15 482.499,28.15 482.54,28.14 483.01,27.97 483.02,27.97 
					483.27,27.81 483.479,27.55 483.51,27.43 484.51,26.66 484.94,26.59 485.1,26.5 485.29,26.32 485.35,26.17 485.389,26.05 
					485.51,25.9 485.749,25.83 486.379,25.89 486.649,25.66 486.829,25.14 486.85,24.89 486.77,24.76 486.95,24.52 487.229,24.45 
					487.37,23.98 487.37,23.95 487.399,23.75 487.299,23.37 486.979,22.79 486.979,22.77 486.95,22.57 486.979,22.45 486.93,22.39 
					486.809,22.3 486.69,22.3 486.6,22.37 486.35,22.39 486.26,22.35 486.18,22.1 486.37,21.92 486.999,21.71 487.02,21.68 
					487.26,21.56 487.549,21.58 487.879,21.54 488.27,21.34 488.379,21.34 488.389,21.34 488.51,21.47 488.588,21.49 488.749,21.43 
					489.079,21.4 489.338,21.47 489.35,21.47 489.709,21.45 489.979,21.01 490.18,20.93 490.338,20.93 490.668,20.93 490.94,20.71 
					491.03,20.64 491.36,20.53 491.93,20.21 492.04,20.05 492.04,19.84 491.959,19.69 491.76,19.52 491.54,19.45 491.1,19.31 
					490.87,19.36 490.799,19.3 490.799,19.25 490.799,19.03 490.93,18.61 490.959,18.04 490.999,17.65 491.088,17.54 491.35,17.45 
					491.499,17.5 491.35,17.29 491.239,17.02 491.209,16.83 				"/>
				<polyline fill="none" stroke="#666666" stroke-width="0.25" stroke-linejoin="round" stroke-miterlimit="3.8637" points="
					510.709,209.16 510.668,209.09 510.379,208.74 510.02,208.3 509.959,208.24 509.889,207.58 509.719,207.02 509.729,206.66 
					509.559,206.08 509.588,205.95 509.52,205.54 509.43,205.16 509.399,205.01 509.51,204.83 509.54,204.81 509.68,204.68 
					509.729,204.62 509.94,204.54 509.959,204.54 510.319,204.52 510.879,204.43 511.059,204.35 511.338,204.06 511.7,203.84 
					512.1,203.71 512.219,203.6 512.389,203.54 512.499,203.56 512.629,203.5 512.659,203.49 512.959,203.37 512.959,203.35 
					513.04,203.26 513.1,203.24 513.76,203.09 				"/>
				<polyline fill="none" stroke="#666666" stroke-width="0.25" stroke-linejoin="round" stroke-miterlimit="3.8637" points="
					561.829,121.76 561.69,122.12 561.719,122.35 561.719,122.37 561.68,122.53 561.469,123.26 561.149,123.82 561.01,124.06 
					560.94,124.33 560.93,124.39 560.87,124.95 560.85,125.06 560.809,126.07 560.749,126.28 560.918,126.4 560.959,126.74 
					560.639,127.09 560.51,127.6 560.329,128.33 560.309,128.38 559.969,129.43 560.149,129.85 560.418,130.81 560.26,131.29 
					560.18,131.68 560.139,131.86 559.969,132.91 559.969,132.95 560.049,133.27 560.049,133.29 560.18,133.87 560.209,134.26 
					560.1,135.13 559.969,135.68 559.999,136 560.01,136.04 560.1,136.36 560.43,137.18 560.719,137.47 560.989,137.58 
					561.249,137.81 561.459,138.07 561.51,138.16 561.799,138.54 562.1,138.77 562.399,139.23 562.61,139.69 561.918,141.04 
					561.69,141.48 560.969,142.89 560.899,143.04 560.838,143.08 559.85,143.79 559.44,144.08 559.35,144.2 559.02,144.34 
					558.43,144.4 557.639,144.94 557.01,145.27 556.749,145.37 556.26,145.46 555.77,145.66 553.338,146.45 553.088,146.54 
					552.68,146.71 551.87,147.06 551.51,147.33 550.61,147.62 550.309,147.87 550.12,147.87 549.969,147.88 549.53,148.14 
					549.37,148.33 548.989,148.62 548.559,148.78 548.059,148.89 547.729,149.04 547.02,149.51 546.95,149.58 546.469,149.89 
					546.1,150.25 545.569,150.58 545.43,150.67 544.729,151.16 544.649,151.51 544.629,151.7 544.549,151.93 544.229,152.5 
					543.2,154.23 542.559,154.34 542.139,154.52 541.93,154.69 541.649,154.79 541.35,154.84 541.059,154.74 540.899,154.69 
					540.668,154.67 540.44,154.64 540.2,154.57 539.989,154.64 539.809,154.87 539.52,154.99 539.45,155.11 539.479,155.74 
					539.399,155.92 539.18,156.12 539.1,156.29 539.12,156.48 539.219,156.64 539.559,157.18 539.569,157.45 539.399,157.79 
					539.36,157.98 538.879,158.44 538.399,158.83 538.299,158.87 538.069,159.12 537.899,159.39 537.86,159.46 537.76,159.91 
					537.579,160.52 537.338,160.84 537.229,160.89 537.1,161.05 536.809,161.24 536.799,161.24 536.709,161.27 535.889,161.56 
					535.61,161.64 535.088,161.77 534.668,161.8 534.53,161.75 533.52,161.44 533.309,161.44 533.049,161.5 532.819,161.6 
					532.79,161.62 532.26,161.95 531.799,162.25 531.579,162.4 531.049,162.83 530.989,162.99 530.889,163.1 530.85,163.18 
					530.749,163.46 530.149,164.35 530.139,164.45 530.079,164.56 529.819,165.01 529.418,165.56 529.37,165.7 529.219,165.91 
					529.1,166.09 528.889,166.29 528.86,166.45 528.579,166.81 528.469,166.83 528.139,167.29 528.1,167.41 528.079,167.45 
					527.729,167.92 527.69,167.93 527.629,167.98 527.559,168.08 527.399,168.29 527.35,168.46 527.329,168.5 527.329,168.88 
					527.329,169.15 527.499,169.51 527.499,169.52 527.559,169.83 527.51,170.26 527.559,170.6 527.569,170.7 527.719,171.2 
					527.809,171.28 528.139,172.1 528.709,173.54 528.77,173.71 528.809,173.86 529.04,174.5 529.12,174.61 529.249,175.14 
					529.329,175.23 529.489,175.67 529.61,176 529.87,176.49 529.959,176.83 530.03,177.13 530.35,178.3 530.559,178.64 
					530.889,179.32 530.959,179.71 530.799,180.26 530.749,180.41 530.659,180.73 530.659,181.25 530.76,181.81 530.829,181.89 
					530.93,182.33 530.959,182.96 530.989,183.07 531.049,183.31 531.168,183.85 531.18,183.97 531.44,184.52 531.409,184.67 
					531.139,184.95 531.139,185 531.11,185.14 531.11,185.16 531.168,185.37 530.94,186.01 530.87,186.4 530.719,186.87 
					530.62,187.08 530.418,187.43 529.969,188.32 529.799,188.68 529.668,188.96 529.469,189.45 529.159,189.97 528.95,190.14 
					528.809,190.24 528.709,190.27 528.389,190.51 528.229,190.7 527.69,191.71 526.79,192.83 526.77,192.85 526.61,193.18 
					526.43,193.5 525.969,194.05 525.86,194.21 525.35,194.66 524.629,195.56 524.499,195.73 524.18,196.57 524.01,196.84 
					523.459,197.73 523.35,197.83 523.299,197.89 523.1,198.01 522.879,198.54 522.739,198.85 522.02,199.36 521.329,200.08 
					521.168,200.12 520.879,200.11 520.04,200.2 519.918,200.21 519.799,200.21 519.549,200.31 519.139,200.49 519.01,200.6 
					518.569,200.8 517.838,201 517.139,201.46 516.93,201.66 516.918,201.66 516.18,201.94 515.54,202.3 514.749,202.83 
					514.139,203.05 513.76,203.09 				"/>
				<polyline fill="none" stroke="#666666" stroke-width="0.25" stroke-linejoin="round" stroke-miterlimit="3.8637" points="
					528.719,11.98 528.739,11.98 528.899,11.96 528.979,11.95 529.059,11.89 529.129,11.79 				"/>
				<polyline fill="none" stroke="#666666" stroke-width="0.25" stroke-linejoin="round" stroke-miterlimit="3.8637" points="
					513.219,20.11 513.27,20.02 513.6,19.84 513.69,19.77 513.918,19.57 513.999,19.46 514.19,19.27 514.329,19.18 514.639,19.15 
					514.85,19.18 515.168,19.14 515.379,19.03 515.469,18.89 515.68,18.7 516.04,18.5 516.469,18.41 517.418,18.28 517.729,18.17 
					517.85,18.08 517.959,17.98 518.35,17.27 518.51,17.05 518.829,16.79 519.149,16.62 519.579,16.52 519.709,16.54 519.899,16.51 
					520.51,16.54 520.85,16.6 521.18,16.69 522.059,17.12 522.53,17.27 523.01,17.38 523.309,17.39 523.418,17.38 523.579,17.26 
					523.68,17.17 523.799,16.99 523.999,16.52 524.03,16.42 524.209,16.12 524.418,15.73 524.6,15.52 524.68,15.35 524.799,15.2 
					525.249,14.38 525.469,13.87 525.499,13.78 525.79,13.03 526.02,12.99 526.088,12.67 526.18,12.55 526.28,12.46 526.399,12.39 
					526.68,12.28 527.219,12.22 528.02,12.25 528.549,12.17 528.6,11.98 528.709,11.98 				"/>
				<polyline fill="none" stroke="#666666" stroke-width="0.25" stroke-linejoin="round" stroke-miterlimit="3.8637" points="
					501.799,10.78 501.85,11.24 501.829,11.44 501.889,11.95 501.809,12.28 501.69,12.56 501.639,12.99 501.68,13.46 501.76,13.77 
					501.829,13.89 502.059,13.99 502.28,14 502.7,14.02 503.559,13.96 503.76,13.97 503.989,14.02 504.18,14.14 504.299,14.24 
					504.44,14.44 504.639,14.87 504.999,16.02 505.159,16.36 505.43,16.7 505.559,17 505.649,17.49 505.77,17.68 506.588,18.4 
					506.799,18.61 507.249,18.85 507.62,18.92 508.12,19.09 508.329,19.2 508.44,19.27 508.559,19.31 508.77,19.51 508.79,19.84 
					508.77,20.06 508.7,20.39 508.549,20.77 508.52,20.91 508.44,21.01 508.43,21.12 508.309,21.35 508.229,21.66 508.219,21.77 
					508.249,22 508.309,22.14 508.418,22.35 508.629,22.56 508.959,22.81 509.29,22.97 509.6,23.02 509.829,22.99 509.94,22.93 
					510.379,22.57 510.44,22.48 511.26,21.62 511.389,21.54 511.559,21.34 511.799,21.16 511.979,20.93 512.379,20.58 512.62,20.39 
					512.709,20.31 512.959,20.17 513.219,20.11 				"/>
				<polyline fill="none" stroke="#666666" stroke-width="0.25" stroke-linejoin="round" stroke-miterlimit="3.8637" points="
					532.18,18.4 531.549,18.58 531.319,18.67 530.329,18.87 530.219,18.87 529.999,18.94 529.879,18.95 529.6,19.03 529.35,19.15 
					529.229,19.16 528.85,19.36 528.709,19.39 528.409,19.56 528.049,19.78 527.45,20.02 527.209,20.14 526.459,20.68 526.35,20.71 
					526.219,20.8 526.088,20.85 525.85,20.98 525.709,21 525.249,21.14 525.129,21.14 524.93,21.24 524.838,21.22 524.35,21.35 
					524.209,21.4 524.1,21.47 524.01,21.58 523.93,21.68 523.909,21.81 524.01,21.94 524.088,22 524.418,22.18 524.45,22.39 
					524.43,22.48 524.52,22.69 524.749,22.87 525.059,23.04 525.29,23.24 525.37,23.33 525.409,23.44 525.43,23.56 525.43,23.68 
					525.338,23.98 				"/>
				<polyline fill="none" stroke="#666666" stroke-width="0.25" stroke-linejoin="round" stroke-miterlimit="3.8637" points="
					530.899,21.01 530.709,20.72 530.52,20.66 530.399,20.72 530.309,20.86 530.29,21 530.29,21.17 530.19,21.28 530.18,21.47 
					529.879,22.33 529.85,22.45 529.79,22.54 529.549,22.62 529.309,22.89 529.209,23.08 529.12,23.17 528.999,23.24 528.86,23.26 
					528.719,23.24 528.6,23.24 528.29,23.32 528.079,23.31 527.969,23.29 527.729,23.2 527.54,23.17 527.43,23.23 527.36,23.32 
					527.26,23.54 527.049,23.86 526.94,23.95 526.729,24.02 526.61,24.02 526.18,24.1 525.85,24.1 525.6,24.06 525.338,23.98 				
					"/>
				<polyline fill="none" stroke="#666666" stroke-width="0.25" stroke-linejoin="round" stroke-miterlimit="3.8637" points="
					525.338,23.98 525.149,24.27 524.838,24.58 524.01,25.25 523.93,25.33 523.7,25.42 523.329,25.48 				"/>
				<polyline fill="none" stroke="#666666" stroke-width="0.25" stroke-linejoin="round" stroke-miterlimit="3.8637" points="
					520.54,27.29 521.059,27.24 521.168,27.22 521.389,27.08 521.469,26.96 521.729,26.32 522.02,25.77 522.139,25.48 522.26,25.29 
					522.35,25.2 522.469,25.12 522.77,25.03 522.969,25.04 523.069,25.09 523.18,25.2 523.329,25.48 				"/>
				<polyline fill="none" stroke="#666666" stroke-width="0.25" stroke-linejoin="round" stroke-miterlimit="3.8637" points="
					513.219,20.11 513.69,20.54 513.889,20.77 514.309,21.16 514.649,21.52 515.12,21.92 515.239,21.99 515.799,22.42 516.149,22.6 
					517.418,22.99 517.629,23 517.838,22.96 518.049,22.96 518.149,22.99 518.239,23.08 518.329,23.29 518.329,23.38 518.479,23.83 
					518.68,24.2 518.749,24.31 518.87,24.54 519.319,25.46 520.159,26.59 520.459,27.07 520.54,27.29 				"/>
				<polyline fill="none" stroke="#666666" stroke-width="0.25" stroke-linejoin="round" stroke-miterlimit="3.8637" points="
					534.01,23.11 533.899,23.37 533.87,23.75 533.829,24 533.62,24.55 533.43,24.91 532.93,25.79 532.85,25.9 532.61,26.27 
					532.389,26.72 532.43,26.83 533.049,27.31 532.959,27.55 532.749,27.94 532.668,28.16 532.668,28.29 532.399,29.16 
					532.249,30.06 				"/>
				<polyline fill="none" stroke="#666666" stroke-width="0.25" stroke-linejoin="round" stroke-miterlimit="3.8637" points="
					497.309,14.81 497.729,15.07 498.079,15.39 498.149,15.47 498.479,15.74 498.588,15.95 498.6,16.04 498.588,16.14 
					498.469,16.22 497.969,16.37 497.76,16.42 497.659,16.48 497.6,16.57 497.639,16.78 498.129,17.31 498.35,17.5 498.69,17.87 
					499.02,18.33 499.12,18.4 499.249,18.62 499.35,18.83 499.35,18.94 499.329,19.04 499.249,19.16 498.93,19.45 498.79,19.51 
					498.139,20.04 498.01,20.32 497.989,20.53 498.02,20.74 497.93,20.96 497.85,21.06 497.69,21.39 497.87,21.58 498.129,21.76 
					498.469,21.83 498.68,21.85 498.918,21.89 499.229,21.91 499.54,21.97 499.639,21.97 500.35,22.41 500.43,22.51 500.35,23.47 
					500.239,24.1 500.239,24.39 500.29,24.79 500.36,24.89 500.68,25.24 500.729,25.33 501.2,26.21 501.37,26.6 501.479,26.95 
					501.719,27.87 501.719,27.99 501.559,28.18 501.459,28.27 501.149,28.58 501.01,28.78 500.918,28.97 500.87,29.52 500.87,29.95 
					500.829,30.24 500.729,30.35 500.219,30.6 500.139,30.66 				"/>
				<polyline fill="none" stroke="#666666" stroke-width="0.25" stroke-linejoin="round" stroke-miterlimit="3.8637" points="
					520.54,27.29 520.44,27.37 520.338,27.43 520.229,27.54 519.579,27.94 519.168,28.25 518.87,28.54 518.639,28.85 518.559,29.06 
					518.52,29.17 518.45,29.35 518.379,29.45 518.27,29.58 518.149,29.68 517.889,29.96 517.749,30.25 517.579,30.74 517.51,30.83 
									"/>
				<polyline fill="none" stroke="#666666" stroke-width="0.25" stroke-linejoin="round" stroke-miterlimit="3.8637" points="
					523.329,25.48 523.51,25.87 523.559,26 523.819,26.41 524.01,26.6 524.27,26.79 524.499,26.83 524.709,26.79 524.93,26.66 
					525.168,26.62 525.319,26.65 525.889,26.87 526.399,27.14 527.12,27.43 527.35,27.85 527.43,27.95 527.469,28.06 527.709,28.42 
					527.889,28.64 528.229,28.9 529.139,29.45 529.729,29.74 529.79,29.86 529.729,30.12 529.68,30.19 529.649,30.49 529.668,30.61 
					529.959,30.85 530.03,30.95 530.26,30.82 530.35,30.73 530.559,30.6 531.249,30.24 531.588,30.13 531.799,30.1 532.139,30.1 
					532.249,30.06 				"/>
				<polyline fill="none" stroke="#666666" stroke-width="0.25" stroke-linejoin="round" stroke-miterlimit="3.8637" points="
					497.85,30.97 497.969,30.94 498.18,30.85 498.53,30.68 499.02,30.52 499.249,30.54 499.389,30.5 499.6,30.52 499.729,30.54 
					500.139,30.66 				"/>
				<polyline fill="none" stroke="#666666" stroke-width="0.25" stroke-linejoin="round" stroke-miterlimit="3.8637" points="
					532.249,30.06 532.209,30.58 532.159,30.92 532.12,31.7 532.139,32.17 532.18,32.38 532.209,32.49 532.399,32.81 532.61,32.96 
					532.838,33 				"/>
				<polyline fill="none" stroke="#666666" stroke-width="0.25" stroke-linejoin="round" stroke-miterlimit="3.8637" points="
					532.838,33 533.149,32.93 533.35,32.86 534.579,32.66 534.79,32.83 535.088,33.14 535.209,33.19 535.299,33.19 535.418,33.12 
					535.749,32.75 535.85,32.7 536.168,32.68 536.379,32.72 536.54,32.89 536.809,33.39 				"/>
				<polyline fill="none" stroke="#666666" stroke-width="0.25" stroke-linejoin="round" stroke-miterlimit="3.8637" points="
					484.959,33.25 485.27,33.29 485.479,33.37 485.69,33.4 485.93,33.39 486.049,33.4 486.44,33.37 486.68,33.29 487.159,33.1 
					487.87,32.71 488.45,32.42 488.709,32.27 489.059,32.1 489.299,32 489.649,31.91 489.879,31.89 490.12,31.91 491.68,31.87 
					492.02,31.9 492.51,31.87 493.418,31.87 494.19,31.84 494.838,31.79 495.35,31.7 495.459,31.7 496.459,31.43 497.389,31.15 
					497.85,30.97 				"/>
				<polyline fill="none" stroke="#666666" stroke-width="0.25" stroke-linejoin="round" stroke-miterlimit="3.8637" points="
					500.139,30.66 500.329,30.74 500.749,31.1 501.93,32.29 502.249,32.59 502.459,32.75 502.68,32.79 502.94,32.74 503.299,32.6 
					503.69,32.42 503.799,32.41 504.129,32.31 504.559,32.18 504.77,32.14 505.129,32.17 505.54,32.39 506.168,32.85 506.479,33.01 
					506.809,33.24 507.139,33.39 507.37,33.43 507.469,33.35 507.549,33.25 508.129,32.2 508.51,31.62 508.87,31.15 509.079,31 
					509.559,30.81 510.02,30.73 510.639,30.68 510.76,30.68 511.088,30.66 511.43,30.67 511.85,30.76 512.27,30.95 512.379,31.04 
					512.469,31.08 512.709,31.29 512.969,31.62 513.229,31.83 513.43,31.9 513.86,31.85 514.088,31.78 514.7,31.42 515.12,31.24 
					515.51,31.09 516.049,30.92 516.829,30.81 517.19,30.79 517.51,30.83 				"/>
				<polyline fill="none" stroke="#666666" stroke-width="0.25" stroke-linejoin="round" stroke-miterlimit="3.8637" points="
					532.838,33 532.87,33.04 532.87,33.22 532.889,33.62 532.879,34.87 532.838,34.97 532.77,35.06 532.229,35.37 532.19,35.45 
					532.219,35.56 532.309,35.64 532.579,35.85 532.668,35.87 532.77,35.98 532.799,36.07 532.799,36.16 532.79,36.25 
					532.729,36.35 532.629,36.46 532.389,36.54 531.799,36.66 531.459,36.68 531.35,36.73 530.899,36.82 530.78,36.82 
					530.469,36.89 530.389,36.99 530.36,37.09 530.469,37.41 530.54,37.56 530.569,37.96 530.54,38.12 530.479,38.32 530.329,38.62 
					530.079,38.92 529.749,39.14 529.26,39.33 529.139,39.4 528.999,39.43 				"/>
				<polyline fill="none" stroke="#666666" stroke-width="0.25" stroke-linejoin="round" stroke-miterlimit="3.8637" points="
					517.51,30.83 517.629,31.04 517.719,31.14 517.909,31.46 517.959,31.67 517.979,32.06 517.889,32.45 517.68,33.02 517.459,33.4 
					517.329,33.6 516.95,34.02 516.719,34.24 516.649,34.35 516.1,34.81 515.729,35.05 515.168,35.38 514.749,35.59 514.51,35.7 
					514.399,35.71 514.159,35.81 513.969,35.87 513.739,35.96 513.649,36.06 513.588,36.14 513.62,36.25 513.79,36.47 514.01,36.68 
					514.088,36.77 514.43,37.03 514.668,37.27 515.059,37.54 515.299,37.63 515.76,37.77 516.26,37.83 517.19,38.14 517.469,38.26 
					517.889,38.54 518.049,38.77 518.18,39.16 518.19,39.83 518.168,40.03 518.049,40.41 517.969,40.58 517.819,40.81 517.44,41.27 
									"/>
				<polyline fill="none" stroke="#666666" stroke-width="0.25" stroke-linejoin="round" stroke-miterlimit="3.8637" points="
					528.999,39.43 528.6,39.54 528.379,39.56 527.588,39.77 527.299,39.92 527.209,40.03 527.03,40.36 526.969,40.56 526.879,40.77 
					526.729,40.97 526.649,41.06 526.309,41.21 526.209,41.18 526.1,41.08 525.85,40.67 525.76,40.78 525.709,40.9 525.649,41.16 
					525.559,41.72 525.53,42.02 525.37,42.74 525.27,42.88 525.139,42.94 525.02,42.94 524.76,42.83 524.54,42.62 524.418,42.5 
					524.1,42.19 524.01,42.12 523.838,42.01 523.6,41.91 523.28,41.83 523.139,41.83 522.649,41.77 522.319,41.6 521.76,41.27 
					521.469,41.11 521.36,41.08 520.799,41.05 520.668,41.06 519.889,41.24 519.29,41.44 518.78,41.53 518.418,41.53 518.059,41.49 
					517.61,41.35 517.51,41.27 517.44,41.27 				"/>
				<polyline fill="none" stroke="#666666" stroke-width="0.25" stroke-linejoin="round" stroke-miterlimit="3.8637" points="
					497.85,30.97 498.26,31.41 498.739,32.05 498.85,32.14 499.1,32.56 499.26,33.02 499.309,33.25 499.329,33.46 499.299,33.68 
					499.26,33.77 499.139,33.99 498.899,34.29 498.799,34.52 498.799,34.64 498.85,34.84 498.979,35.17 499.229,35.56 
					499.299,35.65 499.719,36.08 499.79,36.2 500.18,36.62 500.418,37.04 500.499,37.37 500.52,37.6 500.54,37.9 500.499,38.42 
					500.418,38.87 500.418,39.08 500.45,39.19 500.51,39.31 500.69,39.5 501.02,39.71 501.139,39.74 501.579,39.99 501.79,40.08 
					501.918,40.1 502.729,40.52 503.079,40.75 503.149,40.84 503.219,40.96 503.389,41.29 503.479,41.62 503.479,41.87 
					503.479,42.25 503.45,42.49 503.329,43.14 503.168,43.72 503.049,44.04 502.959,44.17 502.909,44.26 502.309,44.83 
					501.969,45.34 501.86,45.55 501.799,45.95 501.709,46.3 501.51,46.66 501.059,47 500.85,47.14 500.629,47.32 500.52,47.42 
					500.43,47.62 500.399,47.74 500.379,47.98 500.379,48.31 500.389,48.83 500.379,49.18 500.29,50.1 500.18,50.52 500.149,50.65 
					500.088,50.74 500.03,51.06 499.909,51.37 				"/>
				<polyline fill="none" stroke="#666666" stroke-width="0.25" stroke-linejoin="round" stroke-miterlimit="3.8637" points="
					484.26,53.59 484.668,53.59 484.87,53.54 485.19,53.32 485.659,52.81 485.969,52.51 486.2,52.35 486.62,52.21 486.95,52.2 
					487.18,52.22 487.28,52.25 487.418,52.35 487.79,52.51 488.219,52.75 488.329,52.78 488.62,52.93 488.889,53.02 489.35,53.1 
					489.588,53.1 489.979,53.05 490.129,52.99 490.329,52.83 490.459,52.62 490.579,52.06 490.68,50.92 490.729,50.7 490.819,50.42 
					490.909,50.18 491.149,49.81 491.479,49.41 491.709,49.24 491.93,49.14 492.149,49.1 492.588,49.12 492.829,49.16 
					493.639,49.41 493.749,49.45 494.43,49.6 495.149,49.84 495.299,49.91 495.899,50.16 497.569,50.89 498.588,51.27 
					498.829,51.33 499.1,51.37 499.79,51.33 499.909,51.37 				"/>
				<polyline fill="none" stroke="#666666" stroke-width="0.25" stroke-linejoin="round" stroke-miterlimit="3.8637" points="
					528.999,39.43 528.459,40.24 527.989,41.04 528.1,41.14 528.2,41.21 528.95,41.6 529.44,41.81 529.639,41.92 529.749,42.01 
					529.93,42.25 530.079,42.54 530.139,42.71 530.139,42.94 530.1,43.14 530.059,43.52 529.93,44.24 529.879,44.35 529.77,44.8 
					529.61,45.35 529.43,45.77 529.18,46.16 528.999,46.35 528.86,46.56 528.76,46.64 528.668,46.78 528.35,47.11 527.969,47.53 
					527.829,47.81 527.918,48.13 528.249,48.79 528.77,49.91 529.309,50.96 529.909,52.02 530.389,52.9 530.749,53.44 
					531.079,53.86 531.219,54.1 531.249,54.39 531.299,54.68 531.389,54.91 				"/>
				<polyline fill="none" stroke="#666666" stroke-width="0.25" stroke-linejoin="round" stroke-miterlimit="3.8637" points="
					540.719,48.89 540.6,49.12 540.43,49.33 540.229,49.52 539.889,49.79 539.68,50 539.54,50.2 539.479,50.42 539.43,50.66 
					539.45,51.29 539.588,52.37 539.588,52.72 539.52,53.12 539.36,53.45 539.29,53.58 539.059,53.75 538.579,54.04 537.809,54.31 
					536.959,54.47 536.76,54.55 536.659,54.62 536.588,54.73 536.569,54.82 536.6,54.94 536.76,55.12 536.959,55.31 537.01,55.42 
					537.02,55.51 536.969,55.62 536.78,55.81 536.36,56.05 535.649,56.29 				"/>
				<polyline fill="none" stroke="#666666" stroke-width="0.25" stroke-linejoin="round" stroke-miterlimit="3.8637" points="
					535.649,56.29 535.229,56.26 534.86,56.26 534.86,56.27 534.469,56.27 533.918,56.17 533.389,56.04 532.459,55.66 
					531.709,55.15 531.44,54.94 531.389,54.91 				"/>
				<polyline fill="none" stroke="#666666" stroke-width="0.25" stroke-linejoin="round" stroke-miterlimit="3.8637" points="
					517.44,41.27 517.299,41.45 516.709,41.89 516.18,42.25 515.749,42.56 515.6,42.64 514.909,43.14 513.889,43.89 513.6,44.05 
					513.1,44.47 512.45,45.06 512.01,45.37 511.889,45.47 511.729,45.7 511.649,45.94 511.668,46.16 511.87,46.81 511.909,47.29 
					511.819,47.71 511.7,48.02 511.559,48.27 511.489,48.49 511.44,48.73 511.51,49.02 511.549,49.14 511.7,49.37 511.799,49.51 
					512.239,49.9 512.309,50 512.35,50.11 512.329,50.18 512.299,50.27 512.219,50.37 511.51,50.5 511.26,50.58 510.93,50.72 
					510.739,50.85 510.049,51.28 509.93,51.34 509.659,51.43 509.29,51.45 508.838,51.4 508.559,51.31 507.76,51.01 506.918,50.8 
					506.69,50.79 506.588,50.85 506.479,50.93 506.43,51.02 506.418,51.14 506.418,51.25 506.54,51.56 506.709,51.79 507.719,52.99 
					508.209,53.53 509.399,54.77 509.889,55.39 510.249,56.05 510.29,56.16 510.62,56.8 510.739,56.98 510.809,57.19 510.829,57.35 
									"/>
				<polyline fill="none" stroke="#666666" stroke-width="0.25" stroke-linejoin="round" stroke-miterlimit="3.8637" points="
					510.829,57.35 510.588,57.27 510.35,57.22 509.969,57.16 509.27,57.16 508.889,57.22 507.76,57.56 				"/>
				<polyline fill="none" stroke="#666666" stroke-width="0.25" stroke-linejoin="round" stroke-miterlimit="3.8637" points="
					499.909,51.37 500.239,51.62 500.418,51.88 500.749,52.57 501.04,53.04 501.139,53.14 501.29,53.37 501.668,53.74 501.86,53.87 
					502.059,53.91 502.299,53.87 502.61,53.72 502.729,53.7 502.93,53.7 503.399,53.85 503.76,54 503.989,54.13 504.219,54.29 
					504.299,54.49 504.588,55.24 504.77,55.43 504.879,55.48 505.469,55.57 505.819,55.66 506.36,55.9 506.969,56.29 507.27,56.58 
					507.51,56.87 507.668,57.17 507.739,57.37 507.76,57.56 				"/>
				<path fill="none" stroke="#666666" stroke-width="0.25" stroke-linejoin="round" stroke-miterlimit="3.8637" d="M534.86,56.32
					c0,0,0.148,0.93,1.02,1.57c0.852,0.63,1.83-0.29,1.83-0.29l0.811-0.6l0.02,0.01l0.691,0.19l0.34,0.08l0.75,0.3l0.619,0.18
					l0.99,0.18l0.939,0.2l1.219,0.07l0.24-0.06l0.23-0.57l0.199-0.3l0.15-0.18l0.398-0.4l0.359-0.28l0.541-0.32l0.51-0.23
					l1.012-0.31l1.27-0.47"/>
				<polyline fill="none" stroke="#666666" stroke-width="0.25" stroke-linejoin="round" stroke-miterlimit="3.8637" points="
					531.389,54.91 531.02,54.97 530.19,55.24 529.969,55.37 529.79,55.57 529.639,55.79 529.6,56 529.61,56.11 529.959,56.93 
					530.049,57.28 530.01,57.5 529.85,57.71 529.629,57.85 529.418,58.04 529.219,58.37 528.799,59.35 528.319,60.31 528.229,60.54 
					528.18,60.73 528.2,60.92 528.229,61.03 528.319,61.24 528.6,61.81 528.68,62.23 528.709,62.47 528.719,62.95 528.639,63.52 
					528.649,63.92 528.719,64.1 528.829,64.31 529.209,64.78 529.418,65.1 529.51,65.31 529.6,65.59 529.629,65.83 529.629,66.14 
					529.52,66.73 529.54,66.83 				"/>
				<polyline fill="none" stroke="#666666" stroke-width="0.25" stroke-linejoin="round" stroke-miterlimit="3.8637" points="
					548.93,68.53 548.209,68.18 548.079,68.16 547.489,68.11 547.28,68.16 547.18,68.12 547.069,68.02 546.918,67.72 546.62,67.29 
					546.35,66.83 545.918,66.2 545.719,66.02 545.62,66.06 545.52,66.13 545.418,66.24 545.219,66.54 545.049,66.73 544.93,66.81 
					544.749,66.87 544.629,66.88 544.54,66.87 544.329,66.77 544.209,66.66 543.999,66.31 543.68,65.47 543.62,65.26 543.588,65.17 
					543.51,64.79 543.43,64.18 543.29,63.85 542.85,63.25 542.76,63.19 542.6,63.37 542.479,63.68 542.418,63.79 542.26,64.14 
					542.088,64.36 541.889,64.57 541.77,64.66 541.399,64.85 541.28,64.87 541.04,64.87 540.69,64.78 540.1,64.54 539.6,64.27 
					539.389,64.2 539.29,64.16 539.079,64.16 538.85,64.2 538.749,64.39 538.719,64.57 538.61,64.77 538.469,64.87 538.01,65.08 
					537.95,65.18 537.889,65.27 537.879,65.39 537.899,65.7 537.899,65.74 537.829,65.87 537.649,66.08 537.319,66.37 536.87,66.68 
					536.52,66.85 536.19,66.97 535.37,67.37 534.69,67.67 534.059,67.97 533.829,68.04 533.709,68.04 533.309,67.89 532.629,67.41 
					532.399,67.29 531.86,67.18 531.26,67.16 530.809,67.12 529.54,66.83 				"/>
				<polyline fill="none" stroke="#666666" stroke-width="0.25" stroke-linejoin="round" stroke-miterlimit="3.8637" points="
					529.54,66.83 529.338,66.79 529.12,66.79 528.86,66.88 528.049,67.36 527.959,67.45 527.479,67.81 527.26,68.02 526.729,68.58 
					526.54,68.74 526.159,69.22 525.899,69.49 525.459,70.14 525.26,70.52 				"/>
				<polyline fill="none" stroke="#666666" stroke-width="0.25" stroke-linejoin="round" stroke-miterlimit="3.8637" points="
					525.26,70.52 525.139,70.37 524.838,70.1 524.709,69.81 524.51,69.06 524.059,67.67 523.94,67.06 523.79,66.56 523.668,66.5 
					523.54,66.54 522.649,66.83 522.249,67 522.1,66.97 521.87,66.92 521.36,66.71 520.959,66.58 520.389,66.41 519.68,66.27 
					518.379,66.06 517.639,65.87 517.399,65.79 517.19,65.68 516.95,65.47 516.709,65.24 516.579,65.05 516.389,64.64 
					516.319,64.54 515.52,63.85 514.999,63.27 514.749,62.93 514.43,63.04 514.19,63.06 513.6,63.01 513.51,63 513.299,62.86 
					512.899,62.45 512.088,61.78 511.43,61.18 511.299,60.89 511.28,60.74 511.299,60.62 511.418,60 511.549,59.56 511.549,59.44 
					511.639,58.97 511.68,58.51 511.61,58.27 511.43,57.95 511.04,57.47 510.829,57.35 				"/>
				<polyline fill="none" stroke="#666666" stroke-width="0.25" stroke-linejoin="round" stroke-miterlimit="3.8637" points="
					495.168,77.83 498.37,75.97 499.26,75.5 500.239,75.14 500.69,74.95 501.04,74.77 501.229,74.62 501.319,74.52 501.338,74.41 
					501.299,74.32 501.2,74.21 500.838,74.08 500.639,73.89 500.52,73.67 500.479,73.56 500.51,73.35 500.639,73.09 501.168,72.68 
					501.53,72.33 501.79,71.91 501.969,71.41 502.18,71 502.389,70.81 502.469,70.78 502.6,70.78 503.079,70.91 503.209,70.95 
					503.309,70.91 504.249,70.45 506.139,69.91 506.309,69.68 506.43,69.37 506.469,69.28 506.469,69.06 506.418,68.95 
					506.209,68.52 506.1,68.23 506.059,67.93 506.03,67.46 506.049,67.08 506.1,66.68 506.19,66.37 506.26,65.98 506.29,65.66 
					506.219,65.42 506.079,65.2 505.719,65 504.979,64.77 504.299,64.62 503.889,64.48 503.799,64.43 503.588,64.3 503.479,64.2 
					503.418,63.97 503.418,63.77 503.569,63.24 503.749,62.71 504.01,62.12 504.739,61.74 504.918,61.52 505.069,61.2 
					505.159,60.81 505.229,60.6 505.399,60.29 505.579,60.08 505.819,59.89 506.049,59.75 506.29,59.65 506.799,59.37 
					507.229,58.99 507.389,58.81 507.499,58.69 507.6,58.45 507.639,58.33 507.709,58.02 507.76,57.56 				"/>
				<polyline fill="none" stroke="#666666" stroke-width="0.25" stroke-linejoin="round" stroke-miterlimit="3.8637" points="
					483.26,78.2 483.27,78.2 483.29,78.22 483.389,78.28 483.69,78.56 483.77,78.68 483.86,78.77 484.129,78.91 484.629,79.02 
					484.979,79.04 485.299,79.14 485.87,79.35 486.18,79.42 486.338,79.48 486.51,79.51 486.649,79.56 486.899,79.7 487.129,79.87 
					487.459,80.08 487.559,80.18 487.909,80.42 487.999,80.53 488.36,80.75 489.049,81.04 489.409,81.13 489.588,80.66 
					489.68,80.26 489.76,80.08 489.979,79.89 490.219,79.74 490.93,79.45 491.52,79.12 492.69,78.56 493.01,78.47 493.54,78.43 
					494.088,78.34 494.709,78.1 495.168,77.83 				"/>
				<polyline fill="none" stroke="#666666" stroke-width="0.25" stroke-linejoin="round" stroke-miterlimit="3.8637" points="
					495.168,77.83 495.579,77.95 496.19,78.2 496.43,78.29 497.719,78.83 498.35,79.04 498.85,79.27 499.28,79.31 500.149,79.27 
					501.149,79.29 501.69,79.36 502.37,79.5 502.979,79.54 503.27,79.58 503.69,79.69 503.989,79.81 504.889,80.27 505.299,80.52 
					505.51,80.6 505.61,80.62 505.819,80.6 506.03,80.53 506.659,80.2 506.749,80.18 506.838,80.2 506.918,80.29 506.959,80.39 
					506.959,80.52 506.93,80.62 506.45,81.71 506.329,82.03 506.27,82.35 506.29,82.64 506.329,82.83 506.399,83.04 506.569,83.35 
					506.959,83.83 507.29,84.17 507.709,84.59 507.95,84.79 508.28,84.95 509.139,85.18 509.68,85.36 509.899,85.48 510.11,85.63 
					510.338,85.87 510.76,86.53 510.918,86.74 511.35,87.07 511.7,87.28 512.78,87.68 513.168,87.88 513.29,87.95 513.35,88.06 
					513.44,88.29 513.469,88.57 513.469,89.08 513.43,90.41 513.338,91.67 				"/>
				<polyline fill="none" stroke="#666666" stroke-width="0.25" stroke-linejoin="round" stroke-miterlimit="3.8637" points="
					513.338,91.67 513.668,91.5 513.86,91.31 514.159,91 514.389,90.89 515.079,90.68 515.43,90.54 515.52,90.5 515.799,90.54 
					515.918,90.59 516.139,90.7 516.62,91.03 516.85,91.21 517.02,91.54 517.069,91.72 517.1,91.78 				"/>
				<polyline fill="none" stroke="#666666" stroke-width="0.25" stroke-linejoin="round" stroke-miterlimit="3.8637" points="
					525.26,70.52 525.129,70.69 524.85,71.23 524.569,71.96 524.149,72.87 523.77,73.83 523.549,74.23 522.829,75.39 522.049,76.56 
					521.838,76.85 521.76,77 521.309,77.64 521.219,77.8 520.969,78.13 520.85,78.37 520.579,78.95 520.139,79.77 519.918,80.26 
					519.77,80.77 519.739,81.08 519.76,81.28 519.889,81.85 519.969,82.03 520.02,82.12 520.749,82.22 522.02,82.3 522.639,82.41 
					523.26,82.56 523.979,82.87 524.209,83 524.889,83.32 525.499,83.65 525.51,83.75 525.479,83.84 525.379,84.55 525.299,84.83 
					525.18,85.15 524.969,85.43 524.629,85.64 524.399,85.76 523.7,86.05 523.489,86.23 523.02,86.75 522.68,86.8 522.338,86.77 
					522.01,86.8 521.918,86.81 521.629,86.96 521.209,87.31 518.809,88.39 518.389,88.67 517.979,88.9 517.469,89.23 517.389,89.33 
					517.229,89.51 517.19,89.62 517.159,89.8 517.209,89.92 517.629,90.24 517.819,90.43 517.999,90.73 518.1,90.91 518.219,91.25 
					518.309,91.58 518.35,91.78 518.329,91.87 518.29,91.98 518.168,92.05 518.059,92.08 517.959,92.09 517.76,92.08 517.559,92 
					517.1,91.78 				"/>
				<polyline fill="none" stroke="#666666" stroke-width="0.25" stroke-linejoin="round" stroke-miterlimit="3.8637" points="
					506.329,93 507.299,92.44 507.799,92.27 508.059,92.24 508.44,92.26 509.54,92.39 510.739,92.6 511.26,92.6 511.579,92.51 
					511.799,92.41 512.45,92.02 512.569,91.98 512.87,91.91 513.079,91.83 513.338,91.67 				"/>
				<polyline fill="none" stroke="#666666" stroke-width="0.25" stroke-linejoin="round" stroke-miterlimit="3.8637" points="
					517.1,91.78 517.159,91.96 517.299,92.16 517.399,92.26 517.6,92.41 517.879,92.56 518.309,92.7 518.629,92.73 518.969,92.71 
					519.43,92.64 519.719,92.51 519.93,92.47 520.139,92.45 520.35,92.53 520.469,92.62 520.7,92.86 521.079,93.43 521.35,93.73 
					521.629,93.99 522.079,94.23 522.579,94.33 522.85,94.37 523.129,94.37 523.219,94.34 523.329,94.25 523.35,94.15 
					523.338,93.39 523.418,93.29 523.52,93.31 523.729,93.41 524.168,93.76 524.719,94.36 				"/>
				<polyline fill="none" stroke="#666666" stroke-width="0.25" stroke-linejoin="round" stroke-miterlimit="3.8637" points="
					491.87,96.16 492.469,96.08 493.01,96.08 493.28,96.06 493.85,95.98 494.219,95.98 495.68,95.89 495.918,95.84 496.77,95.39 
					496.999,95.35 497.139,95.37 497.379,95.41 497.838,95.56 498.2,95.64 498.709,95.71 498.969,95.73 499.35,95.8 499.68,95.81 
					500.01,95.71 500.19,95.53 500.26,95.29 500.239,94.98 500.26,94.58 500.35,94.27 500.499,94.06 500.6,93.95 500.94,93.77 
					501.319,93.64 502.01,93.34 502.1,93.31 502.309,93.29 502.729,93.46 503.36,93.49 504.02,93.46 504.579,93.4 505.668,93.2 
					506.088,93.1 506.329,93 				"/>
				<polyline fill="none" stroke="#666666" stroke-width="0.25" stroke-linejoin="round" stroke-miterlimit="3.8637" points="
					478.469,84.22 478.489,84.25 478.52,84.45 478.459,84.79 478.389,85.09 478.19,85.62 478.088,85.85 478.01,86.08 478.01,86.29 
					478.04,86.39 478.219,86.59 478.668,87.01 479.149,87.4 479.299,87.59 479.299,87.68 479.219,87.77 478.979,87.89 
					478.629,87.94 478.489,87.94 478.18,87.97 477.62,88.06 477.27,88.41 476.469,89.39 476.26,89.68 476.239,89.79 476.659,90.08 
					477.649,90.66 477.999,90.88 478.459,91.27 478.879,91.67 479.049,91.89 479.239,92.17 479.659,92.89 479.729,93 479.94,93.13 
					480.059,93.16 480.95,93.22 481.418,93.34 482.168,93.58 482.809,93.83 483.02,93.97 483.639,94.45 483.719,94.57 483.85,94.9 
					483.918,95.35 483.969,95.77 484.059,95.95 484.159,96.06 484.249,96.12 484.559,96.14 485.36,96.13 487.02,95.98 487.85,95.86 
					488.659,95.83 489.639,95.81 490.459,95.87 490.77,95.92 491.87,96.16 				"/>
				<polyline fill="none" stroke="#666666" stroke-width="0.25" stroke-linejoin="round" stroke-miterlimit="3.8637" points="
					491.87,96.16 490.93,98.02 490.35,99.13 489.809,99.89 489.338,100.41 488.379,101.29 487.219,102.25 485.749,103.34 
					482.079,106.14 479.959,107.86 478.338,109.09 477.549,109.74 476.94,110.21 474.249,112.23 472.94,113.14 469.52,114.61 				
					"/>
				<polyline fill="none" stroke="#666666" stroke-width="0.25" stroke-linejoin="round" stroke-miterlimit="3.8637" points="
					506.329,93 506.329,93.24 506.479,93.52 506.69,93.82 506.85,94.01 507.059,94.21 507.559,94.56 507.969,94.75 508.338,94.87 
					508.44,94.95 508.52,95.05 508.52,95.14 508.52,95.24 508.399,95.42 507.95,95.84 507.049,96.46 506.499,96.94 506.418,97.03 
					506.18,97.51 506.1,97.72 506.049,98 506.03,98.31 506.049,98.53 506.088,98.95 506.168,100.03 506.299,100.83 506.45,101.44 
					506.588,101.87 506.85,102.59 506.989,102.91 507.11,103.18 507.37,103.76 507.709,104.41 508.18,105.13 508.94,106.45 
					509.01,106.56 509.209,106.69 509.52,106.85 510.049,107.02 510.409,107.17 510.739,107.39 510.918,107.6 511.299,108.33 
					511.469,108.54 511.579,108.61 511.68,108.67 511.94,108.7 512.36,108.59 512.45,108.61 512.588,108.68 512.94,109.03 
					513.249,109.36 513.86,109.96 514.01,110.17 514.088,110.38 514.04,110.71 513.979,110.91 513.799,111.31 513.43,111.87 
					513.338,111.99 513.149,112.29 513.059,112.52 513.049,112.63 513.079,112.81 513.229,113.05 513.35,113.17 513.639,113.42 
					514.61,114.22 514.969,114.54 515.239,114.83 515.399,115.06 515.54,115.29 516.219,116.58 516.379,116.84 516.68,117.26 
					516.86,117.46 517.37,117.95 517.749,118.37 				"/>
				<polyline fill="none" stroke="#666666" stroke-width="0.25" stroke-linejoin="round" stroke-miterlimit="3.8637" points="
					535.54,108.12 534.899,108.46 534.469,108.77 534.27,108.99 534.139,109.2 533.93,109.5 533.78,109.81 533.569,110.06 
					533.049,110.47 532.969,110.56 532.79,110.91 532.68,111.24 532.52,111.58 532.139,112.12 531.799,112.52 531.549,112.83 
					531.409,113.06 531.168,113.53 531.139,113.66 530.87,114.24 530.719,114.31 530.27,114.39 529.1,114.73 528.68,114.89 
					528.229,115.09 527.989,115.23 527.68,115.42 527.219,115.79 526.459,116.58 526.01,116.98 525.68,117.22 525.18,117.43 
					524.168,117.62 523.389,117.79 522.68,118.12 522.459,118.16 521.829,118.16 521.29,118.08 520.729,118.04 520.389,118.1 
					519.168,118.46 518.809,118.46 517.909,118.34 517.749,118.37 				"/>
				<polyline fill="none" stroke="#666666" stroke-width="0.25" stroke-linejoin="round" stroke-miterlimit="3.8637" points="
					517.749,118.37 518.559,119.33 518.838,119.65 519.149,119.92 519.379,120.07 519.86,120.26 520.399,120.43 520.54,120.45 
					520.77,120.46 521.418,120.37 521.719,120.39 521.809,120.43 521.94,120.5 522.049,120.59 522.129,120.68 522.229,120.91 
					522.26,121.09 522.27,121.62 522.249,121.93 522.26,123.2 522.229,123.4 522.168,123.61 521.829,124.37 				"/>
				<polyline fill="none" stroke="#666666" stroke-width="0.25" stroke-linejoin="round" stroke-miterlimit="3.8637" points="
					521.829,124.37 521.749,124.5 521.69,124.69 521.68,124.81 521.69,125.04 521.809,125.24 522.049,125.47 522.76,125.95 
					523.649,126.66 523.819,126.85 523.838,126.95 523.819,127.06 523.719,127.16 523.399,127.3 522.999,127.39 522.889,127.46 
					522.76,127.66 522.709,127.87 522.709,128.09 522.77,129.01 522.809,129.25 522.85,129.37 522.969,129.56 523.059,129.68 
					523.159,129.76 523.219,129.85 523.28,129.95 523.28,130.16 523.209,130.37 522.979,130.74 522.649,131.14 522.299,131.51 
					522.229,131.64 522.129,131.93 522.1,132.16 522.02,132.88 522.049,133.48 522.129,133.79 523.338,135.85 523.19,135.94 
					522.86,135.95 522.719,135.92 522.319,135.76 521.87,135.48 521.469,135.2 521.049,134.89 520.418,134.37 519.86,133.96 
					519.44,133.63 519.149,133.34 518.76,132.82 518.499,132.5 518.399,132.41 518.079,132.17 517.879,132.08 517.43,131.93 
					516.889,131.87 516.389,131.89 515.719,132.01 515.149,132.16 514.87,132.26 514.249,132.64 513.549,133.27 513.059,133.62 
					512.76,133.81 504.29,135.89 502.04,135.99 498.918,136.08 484.18,139.48 				"/>
				<polyline fill="none" stroke="#666666" stroke-width="0.25" stroke-linejoin="round" stroke-miterlimit="3.8637" points="
					521.829,124.37 521.959,124.42 522.2,124.39 522.719,124.42 523.51,124.41 524.76,124.2 525.53,123.92 525.969,123.7 
					526.12,123.52 526.54,122.91 526.799,122.6 526.93,122.5 527.03,122.42 527.239,122.35 527.45,122.32 527.78,122.33 
					528.379,122.44 529.209,122.64 529.43,122.65 529.549,122.62 529.639,122.56 529.87,122.23 529.94,122.14 530.149,121.98 
					530.36,121.84 530.659,121.74 531.219,121.58 531.739,121.42 532.329,121.03 532.629,120.88 532.87,120.77 533.35,120.62 
					534.04,120.43 534.459,120.26 535.01,120 535.87,119.53 536.18,119.39 536.399,119.33 536.709,119.32 537.04,119.33 
					538.02,119.51 538.309,119.5 538.649,119.41 539.27,119.18 539.479,119.14 539.569,119.16 539.68,119.21 539.749,119.33 
					539.749,119.42 539.729,119.51 539.68,119.62 539.469,119.91 539.43,120.12 539.479,120.31 539.479,120.4 539.27,120.41 
					539.079,120.39 538.85,120.43 538.729,120.62 538.76,120.73 538.879,120.92 538.969,121.03 539.219,121.21 539.54,121.37 
					539.87,121.46 540.139,121.51 540.62,121.54 541.129,121.6 541.52,121.7 542.079,121.9 542.76,122.23 543.68,122.7 
					544.1,122.84 545.219,123.35 546.559,124.04 547.94,124.6 548.26,124.76 548.45,124.93 548.569,125.12 548.809,126.02 
					548.87,126.37 548.959,126.61 549.2,126.94 549.389,127.14 549.719,127.41 550.43,128.05 550.649,128.18 550.94,128.29 
					551.139,128.41 551.299,128.62 551.389,128.91 551.418,129.08 551.36,129.55 551.239,130 550.959,130.72 550.879,130.93 
					550.838,131.12 550.799,131.35 550.799,131.79 550.879,133.08 550.909,133.87 550.889,134.09 550.838,134.33 550.7,134.74 
					550.629,135.07 550.61,135.17 550.639,135.29 550.749,135.41 551.719,136.23 552.389,136.66 554.079,137.95 554.829,138.62 
					555.95,139.7 556.719,140.27 557.03,140.49 557.299,140.65 557.6,140.71 557.799,140.7 558.409,140.56 558.639,140.56 
					558.739,140.64 558.77,140.8 558.639,141.02 558.389,141.33 558.02,141.64 557.52,141.97 557.239,142.14 557.03,142.24 
					556.35,142.45 555.879,142.64 555.51,142.84 555.168,143.08 554.76,143.38 554.54,143.6 554.049,144.17 553.159,145.79 
					552.93,146.18 552.68,146.71 				"/>
				<polyline fill="none" stroke="#666666" stroke-width="0.25" stroke-linejoin="round" stroke-miterlimit="3.8637" points="
					510.709,209.16 510.86,209.35 511.209,209.77 				"/>
			</g>
		</g>
	</g>
</g>
<path fill="#84B93C" d="M264.988,92.723c-0.667,11.838,1.351,20.922,3.6,30.48c3.57,2.184,7.886,2.025,12.24,3.36
	c1.613,0.495,3.274,0.399,3.839,1.92c1.812,2.311,1.175,7.749,1.919,11.28c0.468,2.209,0.484,6.432,0,8.64
	c-0.541,2.47-0.094,4.473-0.719,6.72c-2.045,7.343-4.67,13.389-8.641,18.72c-1.145,1.537-2.997,2.455-4.56,3.6
	c-1.924,1.411-4.01,3.714-5.28,5.76c-3.37,5.433-1.146,15.39-7.2,18.24c-0.292,3.425-1.133,7.141,0,10.56
	c0.876,2.644,2.814,3.759,2.88,7.2c-0.16,0-0.32,0-0.48,0c-0.575,0.363-1.527,0.052-2.4,0.24c-0.914,0.197-9.401,1.002-10.08,0.72
	c-0.715-0.297-0.644-0.82-1.92-0.96c-0.475,0.749-0.678,0.921-1.92,0.96c-0.481-0.472-1.111-0.548-1.68-0.96c-1.84-2-3.68-4-5.52-6
	c-2,0-4,0-6,0c-2.443-1.604-8.05-0.07-10.08,0.48c-0.497,0.781-1.291,1.511-1.68,2.4c-0.32,1.04-0.64,2.08-0.96,3.12
	c-0.517,0.673-1.891,0.736-2.64,1.2c-1.808,1.118-3.472,2.609-5.28,3.84c-0.905,0.616-3.735,3.265-4.8,2.64
	c-3.369-2.316-5.72-7.579-7.92-11.04c-0.857-1.349-1.911-3.916-3.36-4.56c-1.04,0-2.08,0-3.12,0c-1.021,0.657-6.542,0.689-7.92,0.24
	c-4.812-1.569-8.564-6.487-14.4-6.24c-2.98-5.073-7.063-10.085-15.12-10.08c-0.597-2.23-2.897-2.727-4.08-4.32
	c-0.264-0.356-0.38-1.447-0.72-1.68c-2.08,0-4.16,0-6.24,0c-0.345-0.252-0.941-0.374-1.44-0.48c-0.403-1.192-0.861-2.322-1.2-3.36
	c4.208-4.984,10.005-8.18,13.92-13.44c1.448-1.946,3.623-3.821,4.08-6.72c-2.656-3.397-1.65-14.069-0.48-18.479
	c0.388-1.463,1.919-5.129,1.2-6.48c-0.758-2.331-3.389-3.089-3.6-5.76c0.861-1.043,1.08-2.546,2.16-3.36
	c2.609-1.966,7.691-2.671,7.68-7.2c-0.773-0.443-2.514-1.024-2.88-1.92c-0.252-0.345-0.374-0.941-0.48-1.44
	c0.975-0.678,1.824-1.853,2.88-2.4c2.776-1.438,9.957-1.558,11.28,1.2c0.843,1.26,0.579,3.316,1.2,4.8
	c0.632,1.512,1.831,2.505,2.88,3.6c9.728-0.063,20.688-1.174,26.88,2.88c1.49,0.976,3.455,2.97,4.32,4.56
	c0.613,1.125,0.846,3.423,1.92,4.08c0.567-0.605,1.027-0.876,2.16-0.96c1.394,1.531,2.874,3.337,5.76,3.36
	c3.286-5.459,5.306-12.151,6.96-19.44c5.466-0.582,11.572-5.404,15.6-7.92c1.358-0.848,4.041-1.245,4.32-3.12
	c1.367-2.082-1.564-7.568-1.68-10.08c1.559-1.726,3.248-7.166,5.28-7.92C255.508,91.632,261.823,92.641,264.988,92.723z"/>
<path fill="#84B93C" d="M152.188,104.003c0.582,3.896,4.321,4.262,6.24,6.72c1.399,1.793,1.182,4.383,2.16,6.72
	c0.416,0.993,2.025,2.117,2.16,2.4c0.124,0.258-0.094,1.858,0.24,2.64c0.735,1.721,2.896,0.729,3.12,3.12
	c-3.871,2.376-9.462,4.671-10.08,10.32c1.814,1.206,2.599,3.271,4.08,4.8c-1.131,3.09-3.608,13.8-2.64,18.24
	c0.513,2.354,1.321,4.781,1.44,7.2c-0.96,0.995-1.349,2.445-2.16,3.6c-1.921,2.736-5.73,6.653-8.4,8.64
	c-2.575,1.916-6.968,3.543-7.2,7.68c0.719,0.77,0.807,2.001,1.2,3.12c1.856,1.067,4.826,0.987,7.92,0.96
	c1.186,2.34,4.271,3.271,4.8,6c5.072-0.012,9.105,1.683,11.28,4.56c1.409,1.865,2.731,5.438,5.76,5.52
	c0.371-0.17,0.032-0.031,0.72,0c0,0.08,0,0.16,0,0.24c-1.161,1.05,0.387,3.863,0.48,5.76c-1.677,1.066-5.284,4.272-5.28,6.96
	c-0.642,1.018-0.357,2.526-0.72,3.84c-0.811,2.934-1.798,6.034-1.92,9.6c-4.584,2.613-9.248,5.721-13.44,8.88
	c-1.471,1.108-3.057,2.956-4.32,4.32c-0.16,0.32-0.32,0.64-0.48,0.96c-1.469,0.944-3.497,0.278-5.52,0.72
	c-2.177,0.475-5.249,0.245-7.44,0.72c-1.52,0-3.04,0-4.56,0c-1.107,0.24-4.06,0.684-5.52,0.24c-0.408-0.124-1.271-0.836-1.68-0.96
	c-3.114-0.943-3.909,1.65-6,1.92c-0.914-1.816-2.684-3.208-4.56-4.08c-0.116-2.643-1.044-4.832-1.68-6.96
	c-0.24-1.52-0.48-3.04-0.72-4.56c-0.102-0.43-0.571-2.163-0.48-2.64c0.102-0.534,0.979-1.408,1.2-1.92
	c0.64-1.919,1.28-3.84,1.92-5.76c-0.16,0-0.32,0-0.48,0c-2.459-2.063-10.035-0.965-10.56,1.92c0.93,1.408,0.037,3.562-0.48,4.8
	c-1.333,3.193-3.043,5.442-5.28,7.68c-1.041,1.041-2.932,2.027-3.6,3.36c0.16,0,0.32,0,0.48,0c0.745,0.656,3.077,0.521,3.36,0.96
	c-1.367,1.184,0.098,3.11-0.48,4.32c-0.221,0.664-3.772,4.558-4.32,4.8c-0.959,0-1.92,0-2.88,0c-0.684,0.417-2.016,0.274-2.64,0.72
	c-4.351,1.359-3.218,7.61-3.12,12.96c-0.08,0-0.16,0-0.24,0c0-0.16,0-0.32,0-0.48c-1.392-0.919-3.775-2.59-4.56-4.08
	c-2.234-4.241-0.041-10.09,0.96-13.92c0.734-2.809,0.421-6.853-2.16-7.2c0-0.64,0-1.28,0-1.92c-1.754-1.141-3.21-2.941-5.04-4.08
	c-3.705-2.305-8.424-3.856-10.8-7.44c-1.173-1.77-1.758-5.766-0.48-7.92c1.807-3.045,9.689-6.081,10.32-8.64
	c-0.506-0.311-0.754-0.911-1.2-1.2c-1.451-0.94-3.871-0.464-4.56-2.16c-0.297-0.441-0.262-1.369-0.24-2.16
	c0.4-0.56,0.8-1.12,1.2-1.68c2.119-1.623,3.845-1.902,3.84-5.76c-1.271-0.716-8.791-4.079-9.12-4.8c0-4.159,0-8.32,0-12.48
	c3.283,0.059,5.619-0.399,7.92-0.96c0.262-0.479,0.349-1.37,0.72-1.92c0.604-0.893,3.462-1.873,4.32-2.88
	c2.568-3.014,5.376-5.616,8.16-8.4c1.12-1.2,2.24-2.4,3.36-3.6c1.925-1.431,4.076-2.408,6-3.84c0.918-0.683,1.782-1.898,2.16-3.12
	c0-0.4,0-0.8,0-1.2c0.35-0.717,1.599-1.658,2.16-2.4c1.6-1.52,3.2-3.04,4.8-4.56c3.072-3.072,5.863-6.478,9.36-9.12
	c2.103-1.588,3.27-5.172,5.28-6.48c1.12-0.4,2.24-0.8,3.36-1.2c0.8-0.88,1.6-1.76,2.4-2.64c3.688-2.746,6.955-6.337,9.6-10.08
	c0.783-1.107,0.673-2.883,1.44-4.08c1.785-2.786,4.767-4.471,5.76-8.16c1.666,0.239,2.291,0.913,3.84,1.44
	c1.875,0.637,6.504,1.177,8.64,1.2c0.415-0.715,1.157-2.49,1.92-2.88C151.511,104.05,151.632,104.057,152.188,104.003z"/>
<path fill="#84B93C" d="M173.308,207.202c4.966,0.006,6.821,3.329,10.32,4.8c3.497,1.47,8.198,0.213,12.24,0.24
	c1.025,1.573,2.583,2.947,3.6,4.56c1.66,2.635,2.792,5.406,4.56,7.92c1.057,1.502,2.963,2.166,3.12,4.56
	c-0.935,1.461-0.676,4.006-1.2,5.76c-1.561,5.226-4.273,14.514-0.48,19.44c0.327,0.424,6.772,4.089,7.44,4.32
	c1.428,0.495,2.83-0.221,3.84,0.48c0.209,0.178,0.271,0.302,0.48,0.48c-0.279,1.471-0.153,2.841-0.24,4.32
	c-0.559,0.071-0.595,0.108-0.96,0.24c-1.759,3.803-0.999,9.625-2.64,13.439c-1.075,2.498-3.549,2.014-3.6,5.76
	c1.031,0.334,1.862,1.16,2.88,1.439c4.449,1.225,7.92-1.717,12-0.959c0.269,0.502,0.344,0.438,0.48,1.199
	c-0.47,0.483-0.548,1.111-0.96,1.68c-1.497,2.066-4.498,2.986-4.8,6.24c2.791,1.824,4.617,3.953,8.88,4.561
	c-0.045,1.254-1.513,3.799-1.44,3.84c2.285,3.568,3.269,6.786,1.92,12c-1.342,0.852-2.92,2.227-4.56,2.641
	c-3.146,0.795-5.845-0.926-7.68-1.439c-1.161-0.325-1.917,0.429-3.12,0.479c-0.684-1.074-1.907-1.658-2.64-2.639
	c-1.039-1.393-2.001-3.107-2.88-4.561c-0.673-1.113-0.354-2.142-1.68-2.642c0-0.079,0-0.159,0-0.239c-0.08,0-0.16,0-0.24,0
	c0,0.08,0,0.159,0,0.239c-2.172,1.521-2.915,4.646-4.32,6.961c-3.39,5.58-6.054,11.074-12.48,13.681
	c-0.55-1.492-2.229-1.473-3.84-1.92c-3.467-0.965-7.814-0.254-10.56,0.959c-1.459,0.646-1.994,1.754-4.08,1.92
	c-0.799-0.642-2.034-0.857-2.64-1.681c-1.302-1.764-1.465-4.341-2.4-6.479c-0.976-2.23-3.385-4.637-5.28-6
	c-1.995-1.434-8.617-3.715-9.36-5.76c-0.751-1.106-0.232-2.847-0.72-4.318c-0.525-1.588-1.844-2.65-2.16-4.561
	c4.514,0.021,8.081-0.627,11.76-1.439c2.252-0.498,4.37,0.355,6.24,0.479c-0.025-4.094-0.54-8.736-1.68-12.24
	c-0.625-1.92-1.917-3.604-2.16-5.76c0.836-0.804,1.215-1.932,1.92-2.88c1.669-2.245,4.61-4.436,6.96-6
	c1.382-0.92,5.418-2.453,6-3.84c-2.068-2.694-1.999-7.486-3.36-10.8c-0.712-1.734-2.139-3.101-2.16-4.8
	c0.928-0.639,1.79-1.646,2.64-2.4c0-0.72,0-1.44,0-2.16c-1.233-1.151-3.191-2.399-4.08-3.84c-0.4-1.12-0.8-2.24-1.2-3.36
	c-0.622-0.608-1.43-0.139-1.92-0.96c-0.798-1.015-1.172-4.729-0.72-6.72c1.012-4.453,2.466-8.691,2.64-13.68
	c1.76-1.68,3.52-3.36,5.28-5.04c0-0.96,0-1.92,0-2.88C173.742,209.197,173.438,208.218,173.308,207.202z"/>
<path fill="#84B93C" d="M264.028,220.162c0-0.56,0-1.12,0-1.68c0.08,0,0.16,0,0.24,0c0.524,0.228,0.914-0.214,1.44,0
	c4.468,1.328,8.273,9.15,10.08,13.44c0.944,2.241,1.295,7.091,3.6,7.92c0.372,0.252,0.98,0.248,1.68,0.24
	c0.63-0.65,1.531-1.03,2.16-1.68c0.24,0.08,0.48,0.16,0.72,0.24c1.413,3.007,6.57,7.024,6.958,9.36
	c0.246,1.469-1.806,3.134-2.16,4.56c-0.582,2.352,0.713,4.427,0.961,6.24c-0.547,0.294-0.541,0.393-1.439,0.48
	c-0.895-0.524-3.463,0-5.04,0c-3.665,0-6.593-0.373-9.36-0.96c-0.199-2.347-1.312-8.412-2.88-9.12c-1.36,0-2.72,0-4.08,0
	c-0.963,0.583-2.45,0.34-3.6,0.72c-2.801,0.927-5.501,2.502-8.16,3.6c-1.04,0.24-2.081,0.48-3.12,0.72
	c-0.572,0.317-1.127,1.291-1.68,1.68c-1.021,0.718-1.971,0.594-3.12,1.2c-0.48,0.56-0.96,1.12-1.44,1.68
	c-1.424,1.028-3.645,1.683-5.52,2.16c-2.357,0.6-6.815,0.529-9.12,0c-1.04,0-2.08,0-3.12,0c-2.964-0.667-6.354-0.718-9.84-0.72
	c-0.082-0.751-0.25-1.126-0.48-1.68c-0.448-0.185-1.206-0.598-1.68-0.72c-0.88,0-1.76,0-2.64,0c-0.696-0.248-6.872-3.654-7.2-4.08
	c-3.802-4.94-0.438-14.256,0.96-19.2c0.641-2.267,0.35-5.166,1.68-6.72c0.857-0.804,2.09-1.028,3.12-1.68
	c1.438-0.911,2.697-2.389,4.08-3.36c1.505-1.057,3.294-1.515,4.8-2.64c1.845-1.379,0.854-4.835,3.36-5.76
	c2.308-1.641,10.589-0.281,14.4-0.24c1.507,2.316,5.615,6.766,8.88,7.2c0.314-0.354,1.246-1.265,1.44-0.96
	C251.604,222.063,260.274,220.375,264.028,220.162z"/>
<path fill="#84B93C" d="M111.148,246.562c0.608,0.018,0.892,0.029,1.2,0.24c2.323,0.86,2.099,3.53,5.28,3.6
	c3.031-3.134,4.739-0.956,9.6-0.96c5.839-0.32,11.681-0.64,17.52-0.96c4.044-0.953,4.721-3.706,7.44-5.76
	c2.766-2.09,5.694-3.801,8.64-5.76c1.416-0.942,2.748-2.358,4.56-2.88c-0.038,2.105,0.354,3.44,0.72,5.04
	c3,1.324,2.159,2.489,3.84,4.8c1.236,1.699,3.285,1.264,3.36,4.32c-1.034,0.49-3.357,2.058-2.88,3.84
	c0.263,0.98,1.711,2.31,2.16,3.36c1.006,2.354,1.078,4.649,1.92,7.2c0.277,0.838,1.617,3.256,1.2,3.84
	c-0.881,0.816-2.05,1.016-3.12,1.68c-3.583,2.223-10.689,7.156-11.52,11.759c2.431,2.633,3.786,11.021,3.84,16.08
	c-6.506-0.324-11.034,1.144-17.76,1.201c-0.029,2.832,1.176,3.48,1.92,5.279c0.32,1.84,0.64,3.68,0.96,5.52
	c4.291,2.795,10.465,4.99,13.44,9.121c1.644,2.281,1.835,5.719,3.36,8.158c0.787,1.26,2.706,1.621,3.36,2.881c-0.08,0-0.16,0-0.24,0
	c-0.739,1.133-2.155,1.034-4.08,0.959c-1.099,0.699-2.765,0.537-3.84,1.201c-1.257,0.775-1.879,2.336-3.36,2.879
	c-1.045-0.729-2.549-0.729-3.6-1.438c-0.767-0.519-0.889-1.304-1.92-1.681c-2.683,4.539-8.731,7.049-13.44,9.601
	c-1.354,0.733-3.04,2.179-4.56,2.642c-1.071,0.323-5.982-2.228-6.24-2.642c-1.632-1.751-2.211-4.781-3.6-6.72
	c-4.199-5.864-13.486-11.596-23.28-11.762c0.011,4.994-1.106,16.578-4.56,17.762c-1.333,1.134-4.718,0.236-5.28-0.961
	c1.156-0.875,1.894-2.561,1.92-4.561c-0.951-0.954-1.366-2.227-2.16-3.359c-3.362-4.799-8.213-10.006-8.64-17.52
	c2.863-1.939,3.72-4.902,8.64-4.32c1.11-2.175,2.614-4.703,4.08-6.721c0.67-0.92,2.659-1.678,3.12-2.641c0-1.039,0-2.08,0-3.119
	c0.612-0.945,0.475-2.273,0.96-3.359c0.323-0.725,1.044-1.388,1.44-2.16c3.247,0.743,6.192,2.986,7.92,5.279
	c1.25,1.661,1.637,3.538,4.56,3.602c0.903,0.549,2.426,0.191,3.6,0.479c2.457,0.604,5.08,1.464,7.68,1.68c0-0.158,0-0.318,0-0.479
	c-1.49-2.012,0.108-6.926-1.68-9.12c-1.429-1.753-6.331-4.147-8.88-4.8c-1.881-0.479-3.103,0.554-4.32-0.239
	c-3.235-2.11-4.341-6.729-8.16-8.399c-3.202-1.4-7.144,0.717-10.32,0c-2.363-0.533-3.188-1.57-4.8-2.642
	c0.038,1.308-0.021,1.801-0.96,2.16c-0.708,0.584-4.518,0.922-5.52,0.239c-2.061-0.692-4.015-3.551-4.32-6c0.16,0,0.32,0,0.48,0
	c2.108-1.387,4.865-0.742,5.76-3.36c2.6-3.586-2.463-13.511,2.64-15.36c1.339-1.187,4.209-0.301,5.52-0.96
	c2.204-0.773,3.91-3.748,5.52-5.28c-0.021-1.22-0.753-2.705-0.48-3.6c0.223-0.73,1.159-1.021,1.2-1.44
	c-0.304-0.989-0.628-1.176-1.92-1.2c-0.311,0.21-0.592,0.215-1.2,0.24c0-0.16,0-0.32,0-0.48c3.081-2.033,7.301-7.327,8.4-11.28
	c0.461-1.658,0.028-2.627,0-4.32c2.66-0.879,5.42-1.94,8.64-0.72c-0.78,1.674-1.13,3.511-1.92,5.28
	c-0.165,0.368-0.845,0.82-0.96,1.2c-0.381,1.257,0.465,3.814,0.72,4.8C109.725,239.296,110.655,242.7,111.148,246.562z"/>
<path fill="#84B93C" d="M123.869,299.841c-3.744-0.118-6.926-1.557-11.04-1.68c-1.961-3.062-4.852-5.933-8.16-7.681
	c-0.765-0.403-2.55-1.659-3.36-1.2c-2.324,1.565-3.146,5.198-3.12,9.12c-2.309,1.229-3.693,3.593-5.04,5.761
	c-0.485,0.778-0.878,2.496-1.68,2.879c-0.8,0-1.6,0-2.4,0c-0.93,0.67-2.2,0.787-3.12,1.44c-0.466,0.33-2.643,3.127-2.88,2.64
	c-0.972-1.41-0.77-3.875-1.44-5.521c-1.175-2.884-2.792-5.588-4.56-7.92c-1.975-2.604-7.342-5.587-12.24-4.32
	c-1.784,0.462-3.741,2.166-6.479,1.44c-4.044-1.071-6.732-3.879-11.76-4.079c0,0.159,0,0.319,0,0.479
	c0.578,0.821,2.22,5.982,1.44,7.199c-0.647,1.961-6.987,7.521-10.08,6.721c-2.007-0.521-4.213-1.971-5.76-3.121
	c-8.102-6.021-10.952-21.323-16.56-30.239c-2.159-3.433-6.399-7.903-9.6-10.32c-1.823-1.377-4.049-3.117-5.28-5.04
	c-2.34-3.655,1.396-6.33,3.12-8.16c3.092,0.06,4.543,1.899,6.48,3.12c2.379,1.5,5.214,3.103,8.16,3.84
	c3.859,0.966,7.141-2.243,10.8-0.72c3.708,1.543,1.49,4.982,8.4,5.04c2.388-2.366,4.771-5.159,7.68-6.96
	c1.797-1.113,5.074-1.227,6.72-2.4c1.619-1.715,2.151-3.563,4.56-4.56c4.124-1.706,9.655-0.068,14.4-0.96
	c0.892-2.344,2.269-4.342,5.52-4.32c0.08,0.24,0.16,0.48,0.24,0.72c0.888,0.982,0.913,3.404,0.48,5.04
	c-0.8,3.027-2.894,7.281-1.92,11.52c0.29,1.26,0.755,3.063,1.44,4.08c1.77,2.627,5.712,2.868,4.8,6.96
	c-2.119,1.35-3.728,1.99-6.72,2.64c0,0.08,0,0.16,0,0.24c0.56,0.826,0.516,1.91,0.96,2.88c1.849,4.037,4.001,4.916,10.08,4.801
	c0.73-0.572,1.389-0.652,1.92-1.441c1.17,0.541,2.384,1.111,3.84,1.441c3.444,0.777,6.928-1.324,10.08,0
	c2.636,1.106,4.14,3.821,5.76,6c0.988,1.326,2.664,1.975,3.84,3.119c3.351-1.557,10.849,2.693,12,4.801
	C124.201,294.607,123.93,297.667,123.869,299.841z"/>
<path fill="#84B93C" d="M289.948,260.242c0.158,3.071,1.645,5.992,2.639,8.4c2.609,6.318,4.783,12.215,8.16,17.76
	c1.344,2.206,3.945,4.794,4.32,7.68c-0.783,0.504-1.439,1.373-2.4,1.681c-1.752,0.562-3.988-0.218-6,0.239
	c-1.842,0.42-3.844,0.98-5.278,1.92c-4.673,3.06-6.426,9.398-11.04,12.48c2.131,4.574,6.076,7.631,8.88,11.52
	c0.44,0.611,2.716,3.875,2.399,4.08c-1.112,1.638-3.157,2.674-4.319,4.32c-0.521,0.739-0.953,2.643-1.681,3.119
	c-1.6,0-3.2,0-4.799,0c-1.005,0.65-4.032,0.271-5.52,0.24c0-0.08,0-0.16,0-0.24c-0.08,0-0.16,0-0.24,0
	c-0.287-2.656-1.616-5.369-2.64-7.439c-0.72-0.08-1.44-0.16-2.16-0.239c-2.883,3.004-6.962,4.868-6.24,10.8
	c-6.857,0.02-11.694-4.975-14.64-8.88c-1.877-2.489-2.982-4.771-7.44-4.8c-1.68,2.683-4.87,3.998-6.72,6.479
	c-0.986,1.324-1.501,3.35-2.64,4.561c0-0.08,0-0.159,0-0.239c-1.669-1.188-1.924-3.918-4.56-4.08
	c-1.421,0.862-4.05,0.269-5.76,0.722c-4.671,1.231-9.258,2.776-12.72,5.278c-1.867,1.351-3.944,3.944-4.8,6.239
	c-0.593,1.592-0.007,2.854-1.68,3.359c-1.141-0.772-4.165-0.633-5.76-0.24c-3.018,0.746-6.001,1.604-9.36,0.961
	c-0.697-2.914-5.517-1.67-5.76-4.801c0.479-1.68,0.96-3.358,1.44-5.039c1.002-2.348,2.601-4.74,4.08-6.721
	c1.779-2.381,4.326-3.26,6.72-5.039c2.138-1.59,4.094-4.676,5.52-6.961c1.246-1.996,4.875-10.29,6.24-10.561
	c2.431,3.023,3.54,8.922,8.16,9.602c2.101-1.766,6.047,1.756,10.08,0.721c2.251-0.58,4.929-2.264,5.76-4.32
	c1.489-3.688-0.469-9.648-2.16-11.28c0.507-1.577,1.192-2.127,1.2-4.56c-2.589-0.295-8.404-2.487-8.64-5.041
	c1.644-1.141,5.566-5.412,5.76-7.92c-3.568-1.756-6.13-0.879-10.08,0c-2.535,0.564-5.274-0.201-5.52-2.16
	c3.749-2.229,3.717-5.295,4.8-10.319c0.08-1.439,0.16-2.88,0.24-4.32c0.797-2.773,2.584-2.13,2.16-6
	c8.273,0.088,19.022,2.781,26.16-0.24c1.517-0.643,2.477-2.285,3.6-2.88c0.883-0.468,1.629-0.242,2.4-0.72
	c0.853-0.529,1.578-1.646,2.4-2.16c1.6-0.48,3.2-0.96,4.8-1.44c4.04-1.74,7.164-3.531,13.2-3.6c1.354,2.449,1.604,6.368,2.88,9.12
	c1.472,0.192,3.272,0.628,4.8,0.96C281.614,260.986,286.899,260.206,289.948,260.242z"/>
<path fill="#84B93C" d="M47.789,291.921c3.847,0.283,6.23,2.584,9.36,3.6c4.88,1.586,7.826-2.491,12.48-1.199
	c6.668,1.85,10.136,8.205,12,14.881c1.155,4.135,1.166,7.937,2.88,11.279c1.785,3.48,3.871,6.666,6,9.84
	c0.916,1.365,2.393,2.28,2.64,4.319c-0.688,0.804-2.346,3.392-1.92,4.319c1.602,1.563,4.754,1.553,7.2,0.961
	c0.696-1.098,1.854-1.836,2.4-3.121c1.115-2.623,1.011-6.084,1.68-9.119c0.411-1.865-0.438-4.688,0.96-5.52
	c1.02,0.642,2.527,0.352,3.84,0.719c2.16,0.721,4.32,1.44,6.48,2.16c7.044,3.061,11.514,8.797,14.4,16.08
	c1.802-0.006,4.951,1.533,6,2.399c-0.08,0-0.16,0-0.24,0c0,0.08,0,0.16,0,0.239c-3.756,2.066-8.578,3.476-12,5.761
	c1.37,3.713,3.033,14.103,1.92,19.2c-0.335,1.533-2.071,8.837-1.68,10.078c0.77,2.445,4.203,2.681,4.56,4.802
	c-1.419,2.082,0.179,6.489-0.48,9.358c-0.578,2.517-1.569,4.82-2.16,7.201c-1.052,4.232,2.092,7.232,0.96,11.279
	c-0.444,1.587-1.859,2.788-2.16,4.561c-0.267,1.574,1.418,2.707,0.96,3.84c-0.629,1.929-1.879,2.234-1.92,5.039
	c0.434,0.391,0.943,0.879,1.2,1.441c-0.56,0-1.12,0-1.68,0c-1.328-1.014-3.083-1.32-4.08-2.641c-2.17-2.875-4.312-6.277-7.44-8.16
	c-3.156-1.9-7.515-1.965-10.56-3.84c-0.996-0.613-4.73-5.776-6.48-4.32c-1.311,0.424-2.943,1.932-3.84,2.881
	c-2.306,0.047-3.432-0.518-5.04-0.961c-1.163-9.135-13.212-20.018-19.44-24.72c-2.546-1.923-4.159-5.034-6.48-7.2
	c-0.064-2.209,1.516-7.219,2.4-8.4c3.457-3.226,8.442-3.473,8.4-10.318c-2.021-1.264-8.75-5.508-7.68-9.359
	c0.626-2.255,2.218-4.144,2.88-6.479c-2.426-0.843-6.07-5.56-8.4-7.2c-2.073-1.459-4.673-2.678-7.44-3.359
	c-1.105-0.272-2.525,0.041-3.36-0.24c-0.533-3.801-2.799-7.371-5.04-9.6c-1.04-0.801-2.08-1.602-3.12-2.4
	c-1.967-3.426,1.507-10.51,2.16-13.68c4.984-1.203,7.355-4.479,10.32-7.68C49.311,295.572,48.659,293.939,47.789,291.921z"/>
<path fill="#84B93C" d="M284.907,334.402c-0.219,1.631-1.201,3.109-1.68,4.561c-0.64,2.879-1.28,5.761-1.92,8.64
	c-7.891,2.169-10.048,10.974-12.24,18.96c-0.24,1.76-0.48,3.521-0.72,5.279c-0.72,3.039-1.44,6.08-2.16,9.119
	c5.255,2.022,10.969,4.949,11.76,11.281c-4.131,3.211-8.958,13.986-6.48,21.6c1.013,3.111,2.682,5.912,4.32,8.4
	c0.393,0.596,1.711,2.605,1.44,2.879c-1.377,0.951-6.705,0.762-8.64,0.24c-6.042-1.627-11.319-3.934-18.72-4.08
	c-1.25-2.121-2.932-7.527-6.96-6c-1.746,0.662-2.365,2.473-4.56,2.881c-3.563-3.343-10.135,2.344-13.44,2.879
	c-0.001-4.724,2.231-6.709,3.12-10.319c0.572-2.322-0.718-3.867-0.96-5.521c-3.893-0.076-7.58,0.193-11.04,0.961
	c-3.199,0.709-4.32-1.757-7.2-0.961c-3.648,1.008-5.577,4.404-9.84,4.801c-0.134-2.076-3.427-5.188-2.88-6.239
	c0.24-0.08,0.48-0.16,0.72-0.24c0.793-1.101,1.106-2.489,1.92-3.601c0.468-0.641,1.084-0.58,1.44-1.439
	c-0.845-0.923-1-2.238-1.68-3.359c-2.295-3.781-4.727-7.979-6.24-12.479c-0.367-1.093-1.55-6.382-1.2-6.96
	c1.475-1.633,4.01,0.168,4.08-3.12c-1.564-1.499-2.235-1.829-2.16-5.04c0.572-0.736,1.418-3.504,0.72-4.561
	c-1.375-3.603-8.496-2.822-8.64-6.719c0.79-1.209,2.732-7.396,2.88-9.121c4.307,0.119,7.563-0.633,11.28-1.439
	c1.911-0.415,3.322,0.525,4.8,0.721c1.135-1.959,1.811-5.148,3.12-6.961c2.818-3.898,7.587-5.535,12.72-7.199
	c1.544-0.502,7.209-2.195,8.88-1.439c1.356,1.046,2.676,3.104,3.6,4.561c0.421-0.15,0.233-0.047,0.48-0.24
	c1.204-0.648,1.184-2.232,1.92-3.359c1.396-2.139,6.659-7.912,9.84-7.92c1.002,1.525,2.766,2.42,3.84,3.84
	c3.935,5.204,7.874,10.27,17.04,9.6c0-0.16,0-0.318,0-0.479c-3.172-3.391,3.775-8.534,5.28-10.08
	c3.221,0.919,1.548,6.318,4.08,7.682C276.279,335.328,282.751,334.435,284.907,334.402z"/>
<path fill="#84B93C" d="M198.028,411.201c5.009-0.121,6.939-3.755,11.04-4.8c0,0.239,0,0.479,0,0.72
	c-0.865,1.463-0.284,3.937-0.72,5.76c-0.969,4.059-1.975,9.949-1.2,15.121c0.24,1.439,0.48,2.879,0.72,4.32
	c-1.462,6.016-3.759,12.326-6,17.76c-1.042,2.525-1.959,4.863-2.88,7.199c-0.32,0.811-0.487,2.523-1.2,2.879c-0.56,0-1.12,0-1.68,0
	c-1.904-1.191-5.543-1.463-7.68-2.398c-4.854-2.127-9.387-5.168-14.88-6.721c-3.28-0.24-6.561-0.479-9.84-0.721
	c-2.05-0.73-3.921-2.467-6.24-3.119c-4.529-1.275-9.251,1.52-14.16,0.24c-5.178-1.352-9.594-5.521-13.44-8.4
	c-0.685-0.512-3.542-2.07-3.84-2.641c0-1.998,0-4,0-6c-0.579-0.803-0.998-2.068-1.44-2.879c-0.08,0-0.16,0-0.24,0
	c0.08-0.4,0.16-0.801,0.24-1.199c-0.414-1.398-1.607-1.02-1.68-3.121c1.099-0.848,2.093-2.451,2.16-4.32
	c-3.104-3.223,2.083-5.928,0.96-11.039c-0.414-1.887-1.575-4.639-0.96-7.2c0.58-2.414,1.574-4.665,2.16-7.199c0-2.88,0-5.76,0-8.641
	c0.205-0.742,0.736-1.558,0.96-2.399c-2.145-1.027-3.477-2.285-5.04-3.84c0.099-3.219,1.005-6.48,1.68-9.602c0-1.358,0-2.719,0-4.08
	c1.003-4.742-0.812-11.039-1.68-15.118c1.055-0.597,2.182-1.437,3.36-1.92c2.372-0.976,4.911-1.125,6.96-2.4
	c1.054-0.655,1.684-1.965,2.64-2.64c2.558-1.807,6.017-3.167,8.64-4.801c3.043-1.895,6.714-3.512,8.64-6.479
	c0.711,0.472,5.177,3.649,6.24,2.642c3.624-2.842,3.437-4.342,10.08-3.84c1.59-3.197,6.462-4.844,10.32-5.761
	c2.914-0.692,8.066,0.552,8.16,2.879c-3.816,3.66-6.381,8.978-7.2,15.601c1.662,0.369,4.595,1.422,5.52,2.641
	c1.386,1.99-2.328,8.404-2.4,12.48c1.858,1.105,8.035,3.521,8.64,5.278c0.971,1.701-1.972,4.979-0.48,7.438
	c0.307,0.803,1.316,1.613,1.92,2.16c-0.151,0.422-0.046,0.233-0.24,0.48c-0.721,0.545-2.662,0.754-3.6,0.96
	c-1.452,5.495,3.647,15.567,6,19.44c0.867,1.426,2.054,2.856,2.4,4.799c-1.15,0.798-3.594,4.498-3.6,6.48
	C196.59,406.664,198.025,408.322,198.028,411.201z"/>
<path fill="#84B93C" d="M286.107,451.281c0,0.4,0,0.801,0,1.199c-2.147,0.529-4.302,1.932-6.48,2.641
	c-5.199,1.039-10.4,2.08-15.6,3.119c0.193,2.498,1.032,5.775-0.48,7.682c-0.547,0.688-1.926,0.406-2.88,0.719
	c-1.324,0.438-2.972,1.355-4.08,2.16c-1.78,1.293-3.379,3.881-4.56,5.76c-0.289,0.461-0.312,1.381-0.72,1.682
	c-0.532,0.395-2.565,0.631-3.36,1.201c-1.025,0.732-1.753,1.984-2.64,2.879c-2.111,2.127-4.357,4.123-6.72,6
	c-1.332,1.059-4.08,4.717-5.04,6.238c-0.778,1.234-0.498,2.449-2.4,2.643c-0.496,0.645-2.282-0.303-3.36-0.721
	c-3.503-1.357-7.554-2.451-10.8-4.08c-0.835-6.584-1.621-15.08,0-21.842c1.04-5.117,2.08-10.238,3.12-15.357
	c-4.657,0.059-7.835,2.412-11.52,3.6c-2.365,0.764-5.54,0.313-8.16,0.24c0.35-2.643,2.153-5.355,3.12-7.68
	c2.177-5.242,3.885-11.195,5.28-16.803c0.295-1.186-0.301-2.195-0.48-2.879c-0.531-2.023-0.77-6.297-0.24-8.641
	c1.053-4.656,1.689-9.94,1.92-14.879c1.071,0.172,1.564,0.73,2.4,0.959c2.833,0.775,6.52-0.479,8.64-0.959
	c2.019-0.457,3.501-0.033,5.28,0c0,0.159,0,0.319,0,0.479c0.94,1.207,0.868,4.008,0.24,5.521c-1.225,2.949-3.194,5.563-2.4,10.08
	c0.24,0,0.48,0,0.72,0c0.674-0.469,1.555-0.363,2.4-0.721c2.373-1.002,4.329-2.771,7.2-3.359c1.961-0.402,3.031,1.407,4.8,0.959
	c2.246-0.568,2.895-2.728,5.76-3.119c0.858,0.976,3.753,5.986,4.32,6.24c1.04,0,2.08,0,3.12,0c1.592,0.949,4.174,0.605,6,1.199
	c4.375,1.424,8.784,2.268,13.92,3.359c2.005,0.426,5.184-0.438,6.72-0.959c0.626,0.287,1.468,1.146,2.16,1.439
	c2.158,0.914,7.275,0.813,7.68,3.357c-0.6,0.752-0.673,1.787-1.199,2.643c-1.113,1.801-2.97,3.504-3.601,5.76
	c-0.915,3.27,0.833,6.617,1.681,8.641c0.317,0.76,1.414,2.607,0.959,3.359C286.57,451.22,286.601,451.185,286.107,451.281z"/>
<text transform="matrix(1 0 0 1 46.4805 537.894)" font-family="'MyriadPro-Regular'" font-size="24">Gouvernorat de Kairouan</text>
<text transform="matrix(1 0 0 1 82.3545 193.9233)" font-family="'MyriadPro-Regular'" font-size="12">El Ouslatia</text>
<text transform="matrix(1 0 0 1 38.3545 277.9233)" font-family="'MyriadPro-Regular'" font-size="12">Alaa</text>
<text transform="matrix(1 0 0 1 73.3545 354.9233)" font-family="'MyriadPro-Regular'" font-size="12">Hajeb  </text>
<text transform="matrix(1 0 0 1 73.3545 369.3237)" font-family="'MyriadPro-Regular'" font-size="12">El Ayoun</text>
<text transform="matrix(1 0 0 1 137.3545 395.9233)" font-family="'MyriadPro-Regular'" font-size="12">Nasrallah</text>
<text transform="matrix(1 0 0 1 210.3545 377.9233)" font-family="'MyriadPro-Regular'" font-size="12">Bouhajla</text>
<text transform="matrix(1 0 0 1 219.3545 443.9233)" font-family="'MyriadPro-Regular'" font-size="12">Echrarda</text>
<text transform="matrix(1 0 0 1 229.3545 293.9233)" font-family="'MyriadPro-Regular'" font-size="12">Kairouan Sud</text>
<text transform="matrix(1 0 0 1 208.3545 247.9233)" font-family="'MyriadPro-Regular'" font-size="12">Kairouan Nord</text>
<text transform="matrix(1 0 0 1 195.3545 173.9233)" font-family="'MyriadPro-Regular'" font-size="12">Sbikha</text>
<text transform="matrix(1 0 0 1 167.3545 286.9233)" font-family="'MyriadPro-Regular'" font-size="12">Chebika</text>
<text transform="matrix(1 0 0 1 116.3545 268.9233)" font-family="'MyriadPro-Regular'" font-size="12">Haffouz</text>
</svg>
