<?xml version="1.0" encoding="utf-8"?>
<!-- Generator: Adobe Illustrator 13.0.0, SVG Export Plug-In . SVG Version: 6.00 Build 14948)  -->
<!DOCTYPE svg PUBLIC "-//W3C//DTD SVG 1.0//EN" "http://www.w3.org/TR/2001/REC-SVG-20010904/DTD/svg10.dtd">
<svg version="1.0" id="Calque_1" xmlns="http://www.w3.org/2000/svg" xmlns:xlink="http://www.w3.org/1999/xlink" x="0px" y="0px"
	 width="588.234px" height="500.807px" viewBox="0 0 588.234 500.807" enable-background="new 0 0 588.234 500.807"
	 xml:space="preserve">
<g id="XMLID_1_">
	<g>
		<g id="XMLID_2_">
			<g>
				<polygon fill="#85BA3B" points="501.792,136.42 501.673,135.59 501.673,132.92 501.673,131.75 501.552,131.54 496.642,123.81 
					496.574,123.68 495.074,123.71 491.292,121.56 489.283,121.64 487.513,119.51 487.472,119.47 487.604,114.61 491.023,113.14 
					492.333,112.23 495.023,110.21 495.632,109.74 496.423,109.09 498.042,107.86 500.164,106.14 503.833,103.34 505.302,102.25 
					506.462,101.29 507.423,100.41 507.892,99.89 508.433,99.13 509.013,98.02 509.955,96.16 510.552,96.08 511.093,96.08 
					511.363,96.06 511.933,95.98 512.302,95.98 513.763,95.89 514.003,95.84 514.854,95.39 515.083,95.35 515.222,95.37 
					515.462,95.41 515.923,95.56 516.283,95.64 516.792,95.71 517.052,95.73 517.433,95.8 517.763,95.81 518.093,95.71 
					518.273,95.53 518.343,95.29 518.324,94.98 518.343,94.58 518.433,94.27 518.583,94.06 518.683,93.95 519.023,93.77 
					519.404,93.64 520.093,93.34 520.183,93.31 520.392,93.29 520.813,93.46 521.443,93.49 522.104,93.46 522.664,93.4 
					523.753,93.2 524.173,93.1 524.414,93 524.414,93.24 524.563,93.52 524.773,93.82 524.933,94.01 525.142,94.21 525.642,94.56 
					526.052,94.75 526.423,94.87 526.523,94.95 526.604,95.05 526.604,95.14 526.604,95.24 526.484,95.42 526.033,95.84 
					525.132,96.46 524.583,96.94 524.503,97.03 524.263,97.51 524.183,97.72 524.132,98 524.113,98.31 524.132,98.53 524.173,98.95 
					524.253,100.03 524.382,100.83 524.533,101.44 524.673,101.87 524.933,102.59 525.074,102.91 525.193,103.18 525.455,103.76 
					525.792,104.41 526.263,105.13 527.023,106.45 527.093,106.56 527.292,106.69 527.604,106.85 528.132,107.02 528.494,107.17 
					528.824,107.39 529.003,107.6 529.382,108.33 529.552,108.54 529.664,108.61 529.763,108.67 530.023,108.7 530.443,108.59 
					530.533,108.61 530.673,108.68 531.023,109.03 531.333,109.36 531.943,109.96 532.093,110.17 532.173,110.38 532.125,110.71 
					532.063,110.91 531.882,111.31 531.513,111.87 531.423,111.99 531.234,112.29 531.142,112.52 531.132,112.63 531.164,112.81 
					531.313,113.05 531.433,113.17 531.722,113.42 532.693,114.22 533.052,114.54 533.324,114.83 533.484,115.06 533.625,115.29 
					534.302,116.58 534.462,116.84 534.763,117.26 534.943,117.46 535.455,117.95 535.833,118.37 536.642,119.33 536.923,119.65 
					537.234,119.92 537.462,120.07 537.943,120.26 538.484,120.43 538.625,120.45 538.854,120.46 539.503,120.37 539.802,120.39 
					539.892,120.43 540.023,120.5 540.132,120.59 540.212,120.68 540.313,120.91 540.343,121.09 540.354,121.62 540.333,121.93 
					540.343,123.2 540.313,123.4 540.253,123.61 539.914,124.37 539.833,124.5 539.773,124.69 539.763,124.81 539.773,125.04 
					539.892,125.24 540.132,125.47 540.843,125.95 541.734,126.66 541.904,126.85 541.923,126.95 541.904,127.06 541.802,127.16 
					541.484,127.3 541.083,127.39 540.972,127.46 540.843,127.66 540.792,127.87 540.792,128.09 540.854,129.01 540.892,129.25 
					540.933,129.37 541.052,129.56 541.142,129.68 541.244,129.76 541.302,129.85 541.363,129.95 541.363,130.16 541.292,130.37 
					541.063,130.74 540.734,131.14 540.382,131.51 540.313,131.64 540.212,131.93 540.183,132.16 540.104,132.88 540.132,133.48 
					540.212,133.79 541.423,135.85 541.273,135.94 540.943,135.95 540.802,135.92 540.404,135.76 539.955,135.48 539.552,135.2 
					539.132,134.89 538.503,134.37 537.943,133.96 537.523,133.63 537.234,133.34 536.843,132.82 536.583,132.5 536.484,132.41 
					536.164,132.17 535.962,132.08 535.513,131.93 534.972,131.87 534.472,131.89 533.802,132.01 533.234,132.16 532.955,132.26 
					532.333,132.64 531.632,133.27 531.142,133.62 530.843,133.81 522.375,135.89 520.125,135.99 517.003,136.08 502.263,139.48 
									"/>
			</g>
			<g>
				<polygon fill="none" stroke="#666666" stroke-width="0.25" stroke-linejoin="round" stroke-miterlimit="3.8637" points="
					516.513,0.25 516.593,0.27 516.734,0.41 516.914,0.54 516.933,0.7 516.763,0.88 516.673,0.91 516.462,0.82 515.802,1.02 
					515.552,0.95 515.503,0.88 515.533,0.77 515.882,0.55 516.253,0.52 516.343,0.47 516.404,0.33 				"/>
				<polygon fill="none" stroke="#666666" stroke-width="0.25" stroke-linejoin="round" stroke-miterlimit="3.8637" points="
					536.972,9.28 536.972,9.14 537.132,8.85 537.253,8.72 537.404,8.71 537.354,8.98 537.253,9.14 				"/>
				<polygon fill="none" stroke="#666666" stroke-width="0.25" stroke-linejoin="round" stroke-miterlimit="3.8637" points="
					561.354,11.95 561.283,11.91 561.302,11.7 561.472,11.56 561.513,11.39 561.642,11.35 561.753,11.6 561.962,11.87 
					561.854,11.95 				"/>
				<polygon fill="none" stroke="#666666" stroke-width="0.25" stroke-linejoin="round" stroke-miterlimit="3.8637" points="
					563.375,12.2 563.392,12.29 563.324,12.35 563.234,12.29 563.263,12.22 				"/>
				<polygon fill="none" stroke="#666666" stroke-width="0.25" stroke-linejoin="round" stroke-miterlimit="3.8637" points="
					567.074,48.79 566.923,48.76 566.863,48.67 566.914,48.58 567.093,48.35 567.333,48.37 567.455,48.62 567.302,48.73 				"/>
				<polygon fill="none" stroke="#666666" stroke-width="0.25" stroke-linejoin="round" stroke-miterlimit="3.8637" points="
					566.625,49.52 566.433,49.3 566.513,49.21 566.642,49.25 566.683,49.35 				"/>
				<polygon fill="none" stroke="#666666" stroke-width="0.25" stroke-linejoin="round" stroke-miterlimit="3.8637" points="
					567.404,53.1 567.253,53 566.923,52.91 566.863,52.84 566.892,52.75 567.132,52.83 567.433,53.04 				"/>
				<polygon fill="none" stroke="#666666" stroke-width="0.25" stroke-linejoin="round" stroke-miterlimit="3.8637" points="
					573.914,75.76 573.773,75.71 573.734,75.6 573.683,75.47 573.802,75.45 574.003,75.66 574.363,75.82 574.212,75.88 
					574.033,75.87 				"/>
				<polygon fill="none" stroke="#666666" stroke-width="0.25" stroke-linejoin="round" stroke-miterlimit="3.8637" points="
					571.642,76.36 571.523,76.25 571.552,76.2 571.693,76.18 571.813,76.31 571.904,76.42 571.854,76.45 				"/>
				<polygon fill="none" stroke="#666666" stroke-width="0.25" stroke-linejoin="round" stroke-miterlimit="3.8637" points="
					573.705,77.24 573.673,77.27 573.472,77.16 573.375,77.04 573.375,76.96 573.455,76.95 573.494,77.06 				"/>
				<polygon fill="none" stroke="#666666" stroke-width="0.25" stroke-linejoin="round" stroke-miterlimit="3.8637" points="
					573.763,77.74 573.722,77.56 573.792,77.42 574.003,77.31 574.472,77.32 574.513,77.38 574.484,77.44 574.205,77.44 
					573.972,77.5 573.824,77.71 				"/>
				<polygon fill="none" stroke="#666666" stroke-width="0.25" stroke-linejoin="round" stroke-miterlimit="3.8637" points="
					570.382,78.13 570.354,78.07 570.313,77.92 570.333,77.92 570.354,77.83 570.513,77.87 570.542,77.41 570.455,77.29 
					570.494,77.24 570.683,77.33 570.722,77.58 570.792,77.66 571.205,77.81 571.542,77.79 571.734,77.89 571.783,77.86 
					571.753,77.75 571.712,77.65 571.875,77.58 571.813,77.39 571.854,77.08 571.734,76.96 571.632,76.84 571.593,76.78 
					571.593,76.67 571.813,76.69 571.854,76.66 572.205,76.36 572.164,76.2 572.132,76.04 572.273,75.87 572.205,75.79 
					572.183,75.68 572.292,75.56 572.292,75.45 572.462,75.5 572.654,75.6 572.813,75.88 572.863,75.97 572.882,76.03 
					572.955,76.12 573.013,76.12 573.074,76.06 573.074,75.89 572.914,75.81 572.972,75.7 573.074,75.71 573.283,75.89 
					573.542,75.89 574.003,76.15 573.972,76.22 573.802,76.22 573.664,76.1 573.542,76.1 573.354,76.21 573.375,76.35 
					573.313,76.37 573.263,76.45 573.313,76.52 573.313,76.67 573.343,76.74 573.253,76.81 573.125,76.85 573.023,76.77 
					573.013,76.99 573.023,77.17 573.375,77.41 573.552,77.6 573.632,77.81 573.632,78.01 573.583,78.08 573.253,78.08 
					573.104,78.13 572.914,78.27 572.712,78.43 572.443,78.43 572.433,78.58 572.354,78.64 571.392,78.97 571.093,79.03 
					570.563,79.29 570.472,79.41 570.462,79.43 570.333,79.52 570.093,79.6 569.843,79.77 569.593,79.84 569.443,79.96 
					569.392,79.95 569.375,79.95 569.343,79.62 569.513,79.35 569.552,79.16 569.625,79 569.792,78.92 569.955,78.79 570.125,78.46 
					570.375,78.2 570.404,78.17 				"/>
				<polygon fill="none" stroke="#666666" stroke-width="0.25" stroke-linejoin="round" stroke-miterlimit="3.8637" points="
					566.773,80.95 566.654,80.93 566.433,80.81 566.132,80.56 565.722,80.38 565.625,80.32 565.955,79.97 565.994,79.93 
					566.164,79.85 567.354,79.79 567.523,79.89 567.734,79.79 568.063,79.79 568.484,79.78 568.625,79.87 568.994,79.89 
					569.205,79.95 569.183,80.08 569.183,80.16 569.142,80.18 568.833,80.24 568.273,80.65 567.753,81.17 567.613,81.17 
					567.513,81.24 567.494,81.37 567.455,81.4 567.142,81.07 567.013,80.98 				"/>
				<polygon fill="none" stroke="#666666" stroke-width="0.25" stroke-linejoin="round" stroke-miterlimit="3.8637" points="
					560.792,107.16 560.914,107.18 560.955,107.37 560.882,107.41 				"/>
				<polygon fill="none" stroke="#666666" stroke-width="0.25" stroke-linejoin="round" stroke-miterlimit="3.8637" points="
					564.302,107.38 563.972,107.51 563.722,107.74 563.654,107.86 563.513,108.74 563.382,108.66 563.142,108.02 563.164,107.84 
					563.302,107.6 563.392,107.42 563.292,107.23 563.164,106.99 562.263,105.92 562.093,105.87 561.854,105.85 561.722,105.89 
					561.513,106.08 561.375,106.14 561.222,106.23 561.142,106.52 561.142,106.81 560.813,106.72 560.683,106.81 560.552,106.83 
					560.392,106.72 560.173,106.34 560.042,106.25 559.904,105.81 559.722,105.48 559.783,105.26 559.783,104.98 559.783,104.92 
					559.923,104.77 560.093,104.45 560.164,104.21 560.132,103.34 560.164,103.16 560.083,102.64 560.132,102.43 560.164,102.31 
					560.083,101.81 560.142,101.71 560.292,101.64 560.472,101.56 561.013,101.44 561.263,101.35 561.875,101.41 562.205,101.5 
					563.013,101.84 563.392,101.93 564.183,101.93 564.613,102.08 564.683,101.87 564.632,101.68 564.632,101.54 564.792,101.56 
					564.843,101.56 565.033,101.73 565.523,102.33 565.833,102.58 566.802,103.27 567.423,103.29 567.632,103.3 567.802,103.39 
					567.882,103.54 567.763,103.78 567.824,103.89 567.972,104.2 567.892,104.29 567.824,104.29 567.673,104.14 567.632,104.2 
					567.683,104.31 567.843,104.38 567.882,104.45 567.882,104.66 567.843,104.71 567.593,104.7 567.222,104.87 566.923,105.22 
					566.863,105.29 566.183,105.56 566.173,105.58 566.093,105.61 565.933,105.77 565.783,106.1 565.683,106.62 565.664,107.21 
					565.542,107.35 565.513,107.18 565.472,106.95 565.523,106.46 565.433,106.25 565.343,106.15 565.183,106.23 565.033,106.42 
					564.763,107.02 564.583,107.09 564.583,107.11 				"/>
				<polygon fill="none" stroke="#666666" stroke-width="0.25" stroke-linejoin="round" stroke-miterlimit="3.8637" points="
					563.063,109.84 563.023,109.57 563.083,109.52 563.164,109.52 563.205,109.62 563.164,109.74 				"/>
				<polygon fill="none" stroke="#666666" stroke-width="0.25" stroke-linejoin="round" stroke-miterlimit="3.8637" points="
					561.563,112.06 561.683,112.23 561.705,112.34 561.563,112.52 561.494,112.48 561.523,112.34 561.494,112.18 561.455,112.1 
					561.455,112.04 				"/>
				<polygon fill="none" stroke="#666666" stroke-width="0.25" stroke-linejoin="round" stroke-miterlimit="3.8637" points="
					569.552,115.85 569.164,115.23 569.183,115.09 569.625,115.57 569.654,115.7 				"/>
				<polyline fill="none" stroke="#666666" stroke-width="0.25" stroke-linejoin="round" stroke-miterlimit="3.8637" points="
					474.472,16.84 474.854,16.46 475.212,16.18 475.433,15.89 475.722,15.45 475.854,14.86 475.813,14.58 475.625,14.39 
					475.542,14.24 474.984,13.96 474.734,13.77 474.583,13.74 474.462,13.62 				"/>
				<polyline fill="none" stroke="#666666" stroke-width="0.25" stroke-linejoin="round" stroke-miterlimit="3.8637" points="
					474.472,13.03 474.773,12.82 475.052,12.89 475.273,12.89 475.632,13 475.813,13.15 476.052,13.22 476.052,13.24 476.132,13.35 
					476.324,13.35 476.443,13.29 476.533,13.15 476.503,13.04 476.792,13 476.984,13.09 477.455,13.31 477.673,13.39 477.914,13.37 
					478.263,13.22 478.503,13.24 478.625,13.12 478.604,12.94 478.763,12.91 478.833,12.85 478.972,12.88 479.063,12.97 479.183,13 
					479.083,13.24 478.923,13.43 478.933,13.56 479.132,13.77 479.263,13.83 479.382,13.89 479.533,14.06 479.683,14.1 
					480.093,14.06 480.433,13.96 480.875,13.91 481.104,13.93 481.414,14.04 481.722,14.05 481.875,14.11 482.164,14.35 
					482.382,14.65 482.552,14.79 482.923,15.06 483.042,15.34 484.052,16.02 484.392,16.15 484.722,16.21 484.882,16.16 
					485.164,16.18 485.433,15.92 485.484,15.81 485.552,15.83 485.513,15.91 485.625,16.03 485.882,16.08 485.972,15.99 486.052,16 
					486.132,16.14 486.354,16.29 486.472,16.22 486.552,16.22 486.593,16.54 486.664,16.62 486.824,16.58 487.052,16.48 
					487.875,16.42 488.164,16.36 488.222,16.3 488.382,16.14 488.513,16.08 488.654,16.08 488.744,16.14 488.744,16.22 
					488.533,16.42 488.503,16.58 488.343,16.67 488.093,17.18 488.113,17.31 488.472,17.81 488.503,17.92 488.375,18.1 
					488.093,18.5 488.093,18.62 488.302,18.81 488.642,19.1 488.892,19.27 490.212,19.62 491.343,19.62 492.234,19.5 492.382,19.51 
					492.583,19.63 492.632,19.48 493.083,19.29 494.642,18.87 495.333,18.47 495.824,18.33 495.984,18.25 496.183,18.14 
					496.854,17.71 497.503,17.49 497.882,17.26 498.302,17.06 498.563,16.87 498.882,16.83 499.173,16.63 499.292,16.6 
					499.333,16.6 499.503,16.58 499.574,16.7 499.593,16.96 499.683,17.02 500.093,17.08 500.183,17.14 500.205,17.23 
					500.164,17.38 500.222,17.44 500.642,17.56 501.404,17.49 501.664,17.42 501.875,17.42 501.962,17.47 502.302,17.45 
					502.333,17.44 502.552,17.39 502.763,17.54 503.414,17.53 503.593,17.66 503.843,18.01 504.164,18.06 504.382,17.96 
					504.523,17.98 504.683,18.07 504.882,18.02 505.052,18.06 505.222,17.96 505.734,17.92 506.052,17.87 506.382,17.71 
					506.654,17.54 507.003,17.41 507.042,17.39 507.052,17.39 508.273,17.06 508.455,16.87 508.542,16.87 508.722,17.02 
					509.113,16.97 509.292,16.83 				"/>
				<polyline fill="none" stroke="#666666" stroke-width="0.25" stroke-linejoin="round" stroke-miterlimit="3.8637" points="
					579.933,121.76 580.212,122 580.552,122.29 581.023,123.01 581.375,123.2 581.654,123.24 581.813,123.49 582.132,123.64 
					582.683,123.79 583.033,123.77 584.763,124.16 585.212,124.2 585.664,124.3 585.705,124.04 585.313,123.87 584.792,123.71 
					584.533,123.49 584.042,123.29 583.813,123.25 583.625,123.34 583.292,123.1 583.063,122.98 582.962,122.75 583.382,122.93 
					583.693,123.04 584.503,123.31 585.003,123.5 585.212,123.67 585.875,124 587.013,124.43 587.773,124.74 587.984,124.87 				"/>
				<polyline fill="none" stroke="#666666" stroke-width="0.25" stroke-linejoin="round" stroke-miterlimit="3.8637" points="
					546.824,11.98 546.875,11.96 547.003,11.64 546.933,11.38 546.972,11.24 547.093,11.32 547.154,11.66 547.212,11.77 
					547.212,11.79 547.392,11.95 547.843,12.17 547.882,12.27 547.923,12.47 547.813,12.66 547.642,12.68 547.542,12.66 
					547.523,12.6 547.632,12.43 547.604,12.35 547.433,12.28 547.363,12.27 547.104,12.35 546.722,12.41 546.613,12.55 
					546.664,12.6 546.734,12.6 546.892,12.5 546.664,12.89 546.404,13.56 546.423,13.97 546.283,13.84 546.193,13.87 546.343,14.08 
					546.263,14.16 546.313,14.2 546.404,14.17 546.472,14.21 546.593,14.53 546.593,14.59 546.632,14.81 546.943,15.5 
					547.382,16.06 548.292,16.85 548.802,17.21 548.892,17.24 549.093,17.33 549.104,17.33 549.683,17.45 549.792,17.54 
					549.882,17.68 549.824,17.8 549.802,17.83 549.882,18.1 549.984,18.25 550.125,18.33 550.212,18.37 550.263,18.4 550.363,18.47 
					550.683,18.7 550.712,18.83 550.693,18.94 550.423,19 550.263,19.27 550.063,19.43 550.052,19.64 549.583,20.29 549.523,20.47 
					549.302,20.52 549.375,20.65 549.125,20.74 549.023,20.83 548.984,21.01 549.253,21.5 549.234,21.56 549.613,22 549.943,22.41 
					550.142,22.54 550.302,22.66 550.813,22.91 551.013,22.99 551.052,23 551.462,23.11 551.863,23.14 552.093,23.11 552.375,23.06 
					552.613,23.02 553.273,22.78 553.632,22.57 553.734,22.69 553.625,22.84 553.664,22.91 553.833,22.89 553.933,22.79 
					553.763,22.54 553.802,22.5 554.955,22.06 555.212,21.87 555.343,21.68 555.472,21.25 555.683,20.83 555.763,20.33 
					555.892,20.06 555.943,19.69 556.003,19.51 556.222,19.42 556.273,19.3 556.244,19.06 556.625,18.95 556.875,18.74 
					556.923,18.56 557.052,18.54 557.253,18.7 558.132,18.45 558.404,18.55 559.083,18.52 559.343,18.45 559.642,18.35 
					559.955,18.19 560.093,18.12 560.382,17.92 560.914,17.42 561.354,16.99 561.792,16.9 562.063,16.58 562.173,16.54 
					562.222,16.41 562.382,16.45 562.833,16.15 563.023,16 563.343,15.67 563.443,15.64 563.673,15.39 563.843,14.98 564.142,15.02 
					564.234,14.93 564.253,14.62 564.074,14.41 564.142,14.35 564.132,14.24 564.052,14.17 564.132,14.04 564.125,13.9 
					564.164,13.84 564.253,13.85 564.313,13.97 564.455,13.91 564.705,13.84 564.875,13.83 565.063,13.74 565.414,13.74 
					565.632,13.83 566.392,13.54 566.673,13.31 566.955,13.21 567.093,13.12 567.132,12.99 567.104,12.82 567.183,12.74 
					567.313,12.88 567.404,12.88 567.423,12.99 567.423,13.02 567.563,13.14 567.673,13.09 567.734,13.16 567.753,13.39 
					567.854,13.56 568.104,13.78 568.142,13.95 568.083,14.02 567.892,14 567.792,14.1 567.722,14.65 567.763,14.98 567.914,15.34 
					568.212,15.79 568.625,16.37 568.972,18.12 569.164,18.37 569.462,18.58 569.513,18.79 569.484,18.95 569.443,19.16 
					569.205,19.72 569.042,19.85 568.802,19.85 568.183,20.11 567.962,20.32 567.773,20.41 567.705,20.47 567.183,20.93 
					566.955,21.27 566.642,21.6 566.113,22.27 565.472,23.27 564.843,24.45 564.313,24.99 563.683,26.29 563.654,26.32 
					563.484,26.5 563.142,27.25 562.882,27.79 562.433,29.06 561.875,30.2 561.705,30.37 561.613,30.41 561.423,30.49 
					561.343,30.58 561.125,30.54 560.955,30.61 560.813,30.6 560.263,30.79 560.023,30.81 559.882,30.91 559.813,30.91 
					559.593,30.91 559.263,31.1 558.722,31.3 558.343,31.54 557.984,31.87 557.722,31.9 557.642,32 557.462,31.96 557.273,32.1 
					557.042,32.14 556.632,31.91 556.552,31.9 556.302,31.9 556.052,32.04 555.683,32.32 555.283,32.75 554.892,33.39 
					554.712,33.66 554.462,34.16 554.343,34.52 554.063,35.2 553.875,35.75 553.523,37.69 553.503,38.31 553.472,38.8 
					553.484,39.39 553.923,41.77 554.183,42.02 554.324,42.1 554.563,42.14 554.654,42.19 554.763,42.33 554.802,42.58 
					554.744,42.77 554.833,42.94 554.813,43.15 554.882,43.42 555.542,44.49 555.962,44.89 556.642,45.91 556.664,46.09 
					556.683,46.21 556.753,46.39 557.023,46.69 557.253,47.16 557.302,47.26 557.813,47.71 557.923,48.19 558.093,48.33 
					558.802,48.89 558.824,48.89 559.302,49.15 559.513,49.33 559.693,49.43 560.142,49.45 560.382,49.39 560.472,49.37 
					561.003,49.14 561.142,49.02 561.343,49.06 561.593,48.94 561.753,49.02 562.154,49.06 562.244,49.21 562.423,49.35 
					562.472,49.45 562.125,50.04 562.125,50.2 562.205,50.39 562.183,50.52 562.093,50.39 562.003,50.38 561.962,50.42 
					561.962,50.77 562.003,51.01 562.125,51.2 562.343,51.37 562.875,51.62 563.063,51.68 563.173,51.66 563.354,51.88 
					563.604,51.97 563.773,52.08 564.343,52.2 565.093,52.37 565.363,52.51 565.734,52.52 565.904,52.58 566.023,52.79 
					566.343,52.89 566.484,53.04 567.132,53.14 567.455,53.31 567.472,53.45 567.462,53.58 567.375,54.01 567.142,54.41 
					567.093,54.87 567.093,55.09 567.093,55.33 567.164,55.63 567.455,56.31 567.705,56.53 567.892,56.59 568.263,56.58 
					568.292,56.66 568.083,56.83 567.854,56.92 567.763,57.07 567.313,58.72 567.455,59.54 567.462,59.71 567.164,60.04 
					567.132,60.49 567.164,61 567.222,61.39 567.263,61.48 567.423,61.81 568.273,62.74 568.472,63 568.923,63.37 568.955,63.41 
					569.052,63.52 569.205,63.7 569.654,64.06 569.705,64.08 570.093,64.27 570.132,64.35 570.132,64.41 570.132,64.42 
					570.132,64.48 570.132,64.5 570.074,64.48 570.003,64.52 569.705,64.52 569.354,64.51 569.234,64.58 568.923,65.04 
					568.955,65.29 568.833,65.44 568.363,66.1 568.382,66.33 568.205,66.41 568.003,66.39 567.824,66.46 567.683,66.46 
					567.523,66.55 566.955,67.69 566.892,68 566.914,68.31 567.023,68.53 567.042,68.59 566.972,68.7 566.914,69.41 566.813,69.68 
					566.593,70.03 566.462,70.36 566.063,70.58 565.574,70.9 565.212,71.14 564.763,71.52 564.583,71.66 564.472,71.96 
					564.462,72.58 564.513,72.81 564.462,73.04 564.523,73.48 564.423,74 564.193,74.31 563.744,74.71 563.625,74.91 563.513,75.19 
					563.142,75.52 563.052,75.67 563.052,75.85 563.132,75.95 563.142,75.99 563.253,76.18 563.234,76.33 563.142,76.39 
					562.802,76.41 562.414,76.52 562.263,76.66 562.013,76.85 561.843,77.1 561.642,77.16 561.375,77.42 560.763,77.86 
					560.802,77.96 561.013,78.13 561.074,78.28 561.074,78.41 561.023,78.33 560.892,78.25 560.802,78.27 560.833,78.37 
					560.773,78.37 560.673,78.39 560.563,78.4 560.503,78.4 560.462,78.46 560.382,78.56 560.382,78.6 560.324,78.76 560.302,78.87 
					560.273,78.97 560.234,79.14 560.292,79.39 560.292,79.6 559.882,80.16 559.763,80.44 559.625,80.59 559.484,80.6 
					559.273,80.62 559.222,80.62 559.154,80.62 559.052,80.64 558.802,80.64 558.632,80.59 558.183,80.8 558.132,80.8 
					558.013,80.83 557.773,81 557.625,81.31 557.472,81.45 557.375,81.47 557.292,81.74 557.132,82.02 556.734,82.41 556.632,82.69 
					556.642,83.38 556.604,83.5 556.423,83.64 555.802,83.98 555.683,83.98 555.683,83.89 555.593,83.83 555.433,83.86 
					554.972,84.06 554.914,83.95 554.433,83.98 554.173,84.13 554.164,84.13 553.484,84.4 553.313,84.46 552.673,84.92 
					552.552,85.2 551.833,86.09 551.722,86.26 551.705,86.29 551.654,86.37 551.593,86.45 551.392,86.71 551.132,86.89 
					550.994,86.91 550.783,86.66 550.632,86.66 550.523,86.75 550.455,87 550.333,86.93 550.244,87.07 550.302,87.14 550.414,87.14 
					550.503,87.08 550.593,87.01 550.693,86.92 550.763,86.93 550.802,86.98 550.753,87.24 550.632,87.35 550.244,87.52 
					550.093,87.58 549.962,87.54 549.875,87.49 549.563,87.41 549.433,87.29 549.302,87.31 549.164,87.41 548.933,87.46 
					548.882,87.52 548.892,87.87 548.802,88.08 548.763,88.2 548.673,88.25 548.382,88.33 548.273,88.33 548.093,88.33 
					547.962,88.39 547.625,88.72 547.414,88.87 547.273,88.91 547.183,88.72 547.083,88.69 546.882,88.62 546.462,89.35 
					546.382,89.32 546.302,89.47 545.972,89.42 545.382,89.73 545.173,89.77 544.813,90.08 544.642,90.28 544.363,90.82 
					544.183,91.04 543.962,91.58 543.763,92.06 543.354,92.68 543.222,92.81 543.212,93.04 543.104,93.54 543.013,93.68 
					542.673,93.67 542.593,93.76 542.593,93.89 542.763,94.09 542.813,94.36 542.813,94.45 542.892,94.93 542.833,95.14 
					542.802,95.24 542.792,95.47 542.892,95.64 542.955,95.93 542.972,96.43 543.074,96.91 543.023,97.09 543.023,97.34 
					543.253,97.9 543.263,98.26 543.222,98.31 543.052,98.31 542.984,98.33 542.843,98.39 542.414,98.41 542.414,98.49 
					542.503,98.54 543.263,98.38 543.404,98.6 543.542,98.73 543.683,99 543.882,99.73 544.063,100.03 544.632,100.96 
					544.962,101.32 545.234,101.83 546.042,102.68 546.183,102.87 546.563,103.39 546.583,103.51 546.542,103.63 546.563,103.69 
					546.632,103.63 546.722,103.62 546.792,103.75 546.943,103.79 547.104,103.91 547.414,104.27 547.574,104.39 547.882,104.56 
					548.052,104.71 548.222,104.8 548.253,104.86 548.164,105.08 548.414,105 548.654,105.06 548.722,105.14 548.773,105.35 
					549.003,105.64 548.972,105.73 549.193,105.74 549.375,105.88 549.882,106.29 550.205,106.63 551.414,107.41 552.263,107.81 
					552.313,107.89 552.423,107.87 552.613,107.84 552.773,107.92 553.484,108.06 553.625,108.12 553.632,108.12 553.664,108.14 
					553.753,108.19 553.802,108.33 553.513,108.37 553.484,108.5 553.343,108.66 553.222,108.7 553.033,108.66 552.892,108.81 
					552.914,108.95 552.972,108.94 553.033,108.81 553.244,108.81 553.484,108.67 553.625,108.45 553.763,108.43 553.843,108.48 
					553.875,108.66 553.994,108.73 554.222,108.61 554.813,108.29 555.313,108.28 555.763,108.17 555.753,108.31 555.705,108.62 
					555.773,108.68 556.052,108.73 556.083,108.83 556.392,108.66 556.363,108.59 556.125,108.62 555.943,108.59 555.824,108.49 
					555.824,108.45 555.824,108.34 555.875,108.26 555.892,108.19 556.052,108.08 556.472,107.96 556.923,107.73 557.042,107.73 
					557.654,107.53 557.892,107.41 558.013,107.26 558.472,106.93 558.563,106.89 558.843,106.75 559.104,106.62 559.414,106.57 
					559.604,106.64 559.875,106.83 560.063,107.08 560.113,107.23 560.093,107.42 559.923,108.2 559.753,108.54 559.813,108.91 
					559.833,109.09 559.854,109.24 559.802,109.51 559.683,109.72 559.574,110.08 559.472,110.26 559.212,110.38 559.013,110.58 
					558.763,110.7 558.664,110.8 558.593,111.02 558.613,111.07 558.632,111.26 558.683,111.43 558.763,111.56 558.875,111.73 
					558.892,111.79 558.984,111.94 559.033,112.1 558.972,112.36 559.013,112.52 559.313,112.7 559.753,112.78 559.972,112.85 
					560.263,113.11 560.375,113.12 560.593,113.11 560.984,113.09 561.234,112.95 561.773,112.66 561.933,112.66 562.183,112.46 
					562.363,112.42 562.414,112.39 562.664,112.16 563.292,112.01 563.513,111.88 563.773,111.83 564.404,111.64 564.563,111.55 
					564.962,110.95 565.013,110.71 564.984,110.49 564.972,110.45 564.854,110.2 564.683,110.04 564.632,109.85 564.375,109.63 
					564.183,109.62 564.142,109.52 564.193,109.29 564.382,109.12 564.843,108.94 564.972,108.85 565.083,108.77 565.183,108.77 
					565.205,108.77 565.625,108.92 566.042,108.91 566.113,108.82 566.013,108.66 566.013,108.54 566.132,108.52 566.253,108.67 
					566.625,108.67 567.183,109.03 567.513,109.03 567.875,109.31 568.033,109.54 568.343,109.84 568.523,110.08 568.843,110.49 
					569.063,110.98 569.253,111.49 569.292,112.64 569.042,112.96 568.933,113.31 568.722,114.02 568.664,114.2 568.683,114.25 
					568.722,114.41 568.923,114.67 568.994,115.14 569.222,115.54 569.324,115.85 569.324,116.08 569.234,116.2 569.173,116.45 
					569.302,116.41 569.324,116.39 569.604,116.16 569.863,116.2 570.263,116.54 570.455,116.83 570.552,117.1 570.583,117.19 
					570.763,117.29 571.244,117.55 571.542,117.66 571.783,117.73 571.923,117.85 572.234,117.94 572.593,118.18 573.132,118.41 
					573.404,118.6 573.455,118.69 573.382,118.76 573.222,118.76 572.984,118.64 572.013,118.16 571.433,118.04 571.263,117.94 
					570.753,117.77 570.302,117.55 569.972,117.54 569.773,117.67 569.654,117.62 569.503,117.79 569.484,118.01 569.392,118.15 
					569.382,118.33 569.433,118.5 569.642,118.7 569.882,119.08 570.042,119.14 570.263,119.35 570.313,119.54 570.472,119.81 
					570.494,120.08 570.494,120.2 570.705,120.61 570.875,120.74 571.033,120.76 571.173,120.66 571.333,120.7 571.625,120.68 
					571.683,120.68 572.013,120.76 572.933,120.77 573.552,121 573.593,121 575.052,121.36 575.273,121.36 575.375,121.41 
					575.625,121.42 575.722,121.36 575.833,121.24 575.972,121.23 576.212,121.41 576.455,121.5 576.984,121.48 577.104,121.34 
					577.093,121.21 577.104,121.15 577.142,121.08 576.673,120.79 576.523,120.68 576.164,120.5 574.882,119.45 574.683,119.27 
					574.292,119.11 574.273,119.05 574.382,119.04 574.574,119.08 575.093,119.44 576.212,120.35 576.542,120.58 576.583,120.59 
					578.443,121.57 578.882,121.7 579.375,121.79 579.753,121.79 579.914,121.76 				"/>
				<polyline fill="none" stroke="#666666" stroke-width="0.25" stroke-linejoin="round" stroke-miterlimit="3.8637" points="
					509.302,16.83 510.132,16.43 510.763,16.24 510.854,16.09 510.943,16.09 511.003,16.24 511.302,16.22 511.484,16.16 
					511.593,16.08 511.693,16.09 511.875,16.25 512.042,16.2 512.164,16.3 512.343,16.57 512.744,16.48 513.313,16.25 
					513.734,15.97 513.984,15.82 514.503,15.55 515.205,15 515.392,14.81 516.003,14.26 516.462,13.83 516.722,13.58 517.142,13.1 
					517.183,12.89 517.523,12.4 517.513,12.35 517.392,12.37 517.392,12.27 517.734,12.1 517.933,12.01 518.063,11.83 
					518.354,11.65 518.552,11.44 518.722,11.37 518.802,11.24 519.142,11.05 519.462,10.97 519.882,10.78 519.892,10.78 
					520.205,10.77 520.882,10.63 520.994,10.54 521.132,10.43 521.604,10.18 521.792,10.04 521.914,9.82 522.183,9.56 522.455,9.08 
					522.664,8.86 523.003,8.72 523.104,8.6 523.222,8.59 523.423,9.13 523.503,9.17 523.693,9.17 524.173,9.19 524.292,9.1 
					524.604,9.08 525.104,8.83 525.234,8.86 525.892,8.85 526.205,8.77 526.333,8.7 527.205,8.23 527.354,8.12 527.443,7.96 
					527.712,7.91 527.892,7.84 527.984,7.79 528.455,7.81 528.892,7.97 529.273,7.95 529.753,7.75 530.984,6.95 531.263,6.82 
					531.423,6.82 531.513,6.85 531.763,7.12 531.962,7.14 532.063,7.06 532.472,6.94 532.783,6.79 533.263,6.46 533.773,6 
					533.984,6 534.142,5.89 534.222,5.89 534.302,5.98 534.472,6 534.632,5.91 534.792,5.98 535.173,6.01 535.542,5.87 
					535.904,5.68 536.052,5.7 536.205,5.65 536.292,5.92 536.462,6.07 536.673,6.16 536.882,6.2 537.253,6.2 537.552,6.1 
					537.854,6.01 538.154,6.01 538.392,6.07 538.833,6.06 538.962,6.88 539.083,7.09 539.052,7.29 539.164,7.42 539.142,7.54 
					539.142,7.75 539.132,7.75 539.042,7.83 539.013,7.85 538.882,7.95 538.875,7.96 538.632,7.95 538.523,8 538.664,8.14 
					538.302,8.27 538.173,8.39 538.052,8.37 537.962,8.37 537.892,8.45 537.734,8.53 537.734,8.64 537.563,8.54 537.423,8.54 
					537.104,8.66 536.882,8.65 536.773,8.64 536.792,8.72 536.813,8.93 536.773,9.1 536.722,9.12 536.552,8.98 536.533,8.98 
					536.382,9.13 536.462,9.25 536.472,9.25 536.533,9.25 536.654,9.34 536.763,9.6 536.882,9.52 537.003,9.54 537.003,9.62 
					536.863,10.08 536.882,10.24 536.955,10.36 537.343,10.48 537.375,10.58 537.542,10.66 537.462,11 537.494,11.17 537.583,11.27 
					537.914,11.38 538.222,11.42 538.513,11.41 538.683,11.47 538.923,11.5 539.023,11.45 539.234,11.23 539.503,11 539.763,10.96 
					540.013,10.74 540.333,10.24 540.472,9.91 540.523,9.64 540.494,9.4 540.382,9.12 540.253,9.04 539.673,9.02 539.343,8.98 
					538.875,8.81 538.712,8.85 538.503,8.96 538.313,9.01 538.052,9.01 537.984,9 537.882,8.95 537.892,8.86 538.173,8.77 
					538.263,8.54 538.302,8.5 538.664,8.41 538.843,8.27 538.994,8.05 539.093,7.93 539.205,7.83 539.263,7.78 539.462,7.83 
					539.513,7.91 539.763,8.06 540.013,8.16 540.705,8.31 540.802,8.32 541.363,8.37 542.093,8.38 542.164,8.38 542.263,8.37 
					542.583,8.32 542.972,8.05 543.462,7.93 543.583,7.83 543.705,7.85 543.802,8.1 544.125,8.41 544.313,8.62 544.923,8.62 
					545.593,8.85 546.333,9.31 546.763,9.46 546.914,9.6 547.052,9.64 547.205,9.77 547.173,9.95 547.244,10 547.263,10.02 
					547.574,10.12 547.962,10.16 548.443,10.18 548.833,10.14 548.892,10.21 548.863,10.31 548.722,10.37 548.462,10.37 
					548.354,10.43 548.113,10.63 548.042,10.77 547.244,11.2 547.154,11.18 547.142,11.1 547.212,11.04 547.392,11 547.484,10.9 
					547.503,10.67 547.455,10.62 547.333,10.54 545.833,10.63 545.625,10.78 545.472,11.12 545.292,11.26 545.354,11.27 
					545.604,11.59 545.792,11.68 546.283,11.71 546.455,11.47 546.552,11.5 546.613,11.6 546.523,11.8 546.722,11.87 546.792,11.98 
					546.802,11.98 				"/>
				<polyline fill="none" stroke="#666666" stroke-width="0.25" stroke-linejoin="round" stroke-miterlimit="3.8637" points="
					531.843,203.09 531.664,202.41 531.632,202.25 531.563,202.04 530.802,198.68 530.802,198.64 530.343,196.48 530.173,196.08 
					527.673,185 527.164,182.81 527.093,182.71 526.625,180.68 526.632,180.58 525.375,175.29 524.234,170.44 524.205,170.04 
					522.705,163.98 522.523,163.23 522.523,163.09 522.302,162.17 522.132,161.21 522.125,161.17 521.552,159.08 521.343,157.89 
					521.292,157.76 521.253,157.66 521.063,154.23 519.875,151.91 519.673,151.54 502.333,139.9 502.263,139.48 501.792,136.42 
					501.673,135.59 501.673,132.92 501.673,131.75 501.552,131.54 496.642,123.81 496.574,123.68 495.074,123.71 491.292,121.56 
					489.283,121.64 487.513,119.51 487.472,119.47 487.604,114.61 487.604,114.56 486.455,112.87 485.642,111.68 484.632,109.84 
					484.154,108.97 484.222,107.62 484.173,107.27 483.875,106.95 483.683,106.6 483.593,106.41 483.542,105.95 483.673,105.48 
					483.673,105.33 483.234,104.92 482.744,104.6 482.513,104.42 482.513,104.37 482.484,104.06 482.513,103.95 482.673,103.7 
					482.773,103.37 482.792,103 482.744,102.62 482.302,101.38 482.375,101.12 482.683,100.34 482.705,100.29 482.705,99.87 
					482.604,99.35 482.923,98.44 482.933,98.18 482.683,97.41 482.813,97.09 482.863,97 482.882,96.99 483.003,96.87 483.263,96.59 
					483.722,96.48 484.104,96.08 484.392,95.64 484.414,95.49 484.513,94.36 484.552,94.21 484.712,93.79 485.013,93.22 
					486.763,92.93 487.154,92.91 487.523,92.89 488.183,92.83 488.923,92.79 489.093,92.71 489.052,92.41 489.104,92.09 
					489.042,91.98 489.583,90.91 489.593,90.85 489.734,90.26 489.875,89.71 490.003,89.32 490.154,88.27 490.125,87.4 
					490.125,87.35 490.363,87.29 490.923,87.25 491.833,87.06 491.863,87.02 491.923,86.95 492.513,86.38 492.773,86.18 
					493.033,86.05 493.343,85.99 493.472,85.96 493.753,85.95 494.462,85.27 494.625,85.12 494.683,85.06 495.333,84.83 
					495.423,84.83 495.523,84.58 495.683,84.35 495.914,84.35 496.292,84.43 496.313,84.43 496.423,84.43 496.472,84.45 
					496.552,84.22 496.574,84.2 496.802,83.87 497.472,83.65 497.593,83.41 497.722,83.38 497.955,82.74 498.142,82.66 
					498.212,82.69 498.283,82.67 498.773,82.64 498.824,82.62 498.933,82.56 498.984,82.31 498.914,82.12 498.972,81.91 
					499.363,81.7 499.854,81.64 499.972,81.37 499.813,80.96 500.142,80.66 500.164,80.39 499.962,80.06 499.734,79.69 
					499.875,79.25 500.472,78.56 500.914,78.37 501.343,78.46 501.375,78.22 501.354,78.22 501.343,78.2 500.955,77.75 
					500.802,77.6 500.673,77.29 500.843,77.06 500.843,77.05 500.833,77.04 500.722,76.85 500.712,76.78 500.683,76.57 
					500.683,76.56 500.712,76.21 500.712,76.2 500.654,75.85 500.705,75.71 500.563,75.31 500.552,75.06 500.433,74.86 
					500.375,74.59 500.354,74.5 500.354,74.49 500.343,74.39 500.302,74.35 500.234,74.24 500.132,74.08 500.654,72.64 
					501.013,72.22 501.234,71.87 501.302,71.7 501.333,71.56 501.433,71.21 501.455,70.9 501.455,70.78 501.523,70.24 
					501.683,69.95 501.843,69.62 502.273,68.37 502.382,68.2 502.843,67.91 503.253,67.51 503.513,67 503.763,66.68 503.923,66.08 
					504.003,65.87 504.212,65.47 504.263,65.37 504.523,64.93 505.222,64.18 505.212,64.06 505.173,64.04 504.462,64.2 
					504.074,64.21 503.642,64.04 503.433,63.92 503.222,63.81 502.734,63.46 501.773,63 501.705,62.86 501.613,62.81 501.593,62.66 
					501.494,61.96 501.472,61.39 501.472,60.89 501.552,59.85 501.632,59.42 502.104,58.25 502.382,58.12 502.433,58.1 
					503.113,57.76 503.042,57.37 502.843,57.12 502.712,57.06 502.593,56.64 502.513,55.77 502.513,55.66 502.513,55.56 
					502.523,55.42 502.423,54.92 502.292,53.85 502.343,53.59 502.414,53.41 502.484,52.83 502.382,52.43 502.313,52.31 
					502.222,52.18 502.033,52.03 501.142,51.49 500.324,50.54 500.063,50.05 499.962,49.72 499.972,49.52 500.132,49.21 
					500.222,48.91 500.263,48.71 500.375,48.19 500.382,47.52 500.222,46.9 500.253,46.69 500.273,46.51 500.273,46.48 
					500.354,46.31 500.375,46.27 500.604,45.77 500.802,45.24 500.813,45.19 500.813,45.17 500.833,45.16 501.042,44.83 
					501.052,44.8 501.052,44.79 501.042,44.75 500.863,44.33 500.863,44.27 500.863,44.18 500.863,44.1 500.914,43.41 
					501.003,42.97 501.023,42.82 500.972,42.29 501.074,42.02 501.404,41.41 501.462,41.31 501.632,40.67 502.083,40.25 
					502.173,40.29 502.263,40.31 502.212,40.21 502.013,39.92 502.003,39.88 502.013,39.4 501.984,39.25 501.882,39.16 
					501.683,39.04 501.313,38.6 501.313,38.54 501.302,38.47 501.283,38.44 501.313,38.32 501.683,37.91 501.854,37.7 
					501.972,37.39 502.142,37.15 502.205,37.06 502.222,36.99 502.273,36.91 502.273,36.88 502.263,36.2 502.125,35.45 
					502.523,35.05 502.783,34.87 503.113,34.77 503.205,34.62 503.205,34.54 503.083,34.42 502.875,34.12 502.843,34.09 
					502.854,33.61 503.042,33.25 503.063,33.19 503.263,33.02 503.253,32.77 503.042,32.27 503.513,31.84 503.563,31.72 
					503.642,31.6 503.642,31.57 503.673,31.33 502.962,31.25 502.813,31.2 502.802,31.15 502.722,31.09 502.455,30.89 
					502.205,30.85 501.802,31.06 501.472,31.1 501.462,31.06 501.354,31.06 501.193,30.88 501.003,30.74 500.843,30.71 
					500.763,30.7 500.302,30.83 500.132,30.83 499.802,30.74 498.843,30.61 498.664,30.55 498.683,30.52 498.455,30.29 
					498.142,30.22 497.914,30.12 497.642,29.64 497.625,29.62 497.625,29.58 497.533,29.26 497.604,29.14 497.914,29.06 
					497.984,28.93 498.132,28.81 498.423,28.85 498.542,28.87 498.734,28.83 499.363,28.6 500.113,28.16 500.552,28.15 
					500.583,28.15 500.625,28.14 501.093,27.97 501.104,27.97 501.354,27.81 501.563,27.55 501.593,27.43 502.593,26.66 
					503.023,26.59 503.183,26.5 503.375,26.32 503.433,26.17 503.472,26.05 503.593,25.9 503.833,25.83 504.462,25.89 
					504.734,25.66 504.914,25.14 504.933,24.89 504.854,24.76 505.033,24.52 505.313,24.45 505.455,23.98 505.455,23.95 
					505.484,23.75 505.382,23.37 505.063,22.79 505.063,22.77 505.033,22.57 505.063,22.45 505.013,22.39 504.892,22.3 
					504.773,22.3 504.683,22.37 504.433,22.39 504.343,22.35 504.263,22.1 504.455,21.92 505.083,21.71 505.104,21.68 
					505.343,21.56 505.632,21.58 505.962,21.54 506.354,21.34 506.462,21.34 506.472,21.34 506.593,21.47 506.673,21.49 
					506.833,21.43 507.164,21.4 507.423,21.47 507.433,21.47 507.792,21.45 508.063,21.01 508.263,20.93 508.423,20.93 
					508.753,20.93 509.023,20.71 509.113,20.64 509.443,20.53 510.013,20.21 510.125,20.05 510.125,19.84 510.042,19.69 
					509.843,19.52 509.625,19.45 509.183,19.31 508.955,19.36 508.882,19.3 508.882,19.25 508.882,19.03 509.013,18.61 
					509.042,18.04 509.083,17.65 509.173,17.54 509.433,17.45 509.583,17.5 509.433,17.29 509.324,17.02 509.292,16.83 				"/>
				<polyline fill="none" stroke="#666666" stroke-width="0.25" stroke-linejoin="round" stroke-miterlimit="3.8637" points="
					528.792,209.16 528.753,209.09 528.462,208.74 528.104,208.3 528.042,208.24 527.972,207.58 527.802,207.02 527.813,206.66 
					527.642,206.08 527.673,205.95 527.604,205.54 527.513,205.16 527.484,205.01 527.593,204.83 527.625,204.81 527.763,204.68 
					527.813,204.62 528.023,204.54 528.042,204.54 528.404,204.52 528.962,204.43 529.142,204.35 529.423,204.06 529.783,203.84 
					530.183,203.71 530.302,203.6 530.472,203.54 530.583,203.56 530.712,203.5 530.744,203.49 531.042,203.37 531.042,203.35 
					531.125,203.26 531.183,203.24 531.843,203.09 				"/>
				<polyline fill="none" stroke="#666666" stroke-width="0.25" stroke-linejoin="round" stroke-miterlimit="3.8637" points="
					579.914,121.76 579.773,122.12 579.802,122.35 579.802,122.37 579.763,122.53 579.552,123.26 579.234,123.82 579.093,124.06 
					579.023,124.33 579.013,124.39 578.955,124.95 578.933,125.06 578.892,126.07 578.833,126.28 579.003,126.4 579.042,126.74 
					578.722,127.09 578.593,127.6 578.414,128.33 578.392,128.38 578.052,129.43 578.234,129.85 578.503,130.81 578.343,131.29 
					578.263,131.68 578.222,131.86 578.052,132.91 578.052,132.95 578.132,133.27 578.132,133.29 578.263,133.87 578.292,134.26 
					578.183,135.13 578.052,135.68 578.083,136 578.093,136.04 578.183,136.36 578.513,137.18 578.802,137.47 579.074,137.58 
					579.333,137.81 579.542,138.07 579.593,138.16 579.882,138.54 580.183,138.77 580.484,139.23 580.693,139.69 580.003,141.04 
					579.773,141.48 579.052,142.89 578.984,143.04 578.923,143.08 577.933,143.79 577.523,144.08 577.433,144.2 577.104,144.34 
					576.513,144.4 575.722,144.94 575.093,145.27 574.833,145.37 574.343,145.46 573.854,145.66 571.423,146.45 571.173,146.54 
					570.763,146.71 569.955,147.06 569.593,147.33 568.693,147.62 568.392,147.87 568.205,147.87 568.052,147.88 567.613,148.14 
					567.455,148.33 567.074,148.62 566.642,148.78 566.142,148.89 565.813,149.04 565.104,149.51 565.033,149.58 564.552,149.89 
					564.183,150.25 563.654,150.58 563.513,150.67 562.813,151.16 562.734,151.51 562.712,151.7 562.632,151.93 562.313,152.5 
					561.283,154.23 560.642,154.34 560.222,154.52 560.013,154.69 559.734,154.79 559.433,154.84 559.142,154.74 558.984,154.69 
					558.753,154.67 558.523,154.64 558.283,154.57 558.074,154.64 557.892,154.87 557.604,154.99 557.533,155.11 557.563,155.74 
					557.484,155.92 557.263,156.12 557.183,156.29 557.205,156.48 557.302,156.64 557.642,157.18 557.654,157.45 557.484,157.79 
					557.443,157.98 556.962,158.44 556.484,158.83 556.382,158.87 556.154,159.12 555.984,159.39 555.943,159.46 555.843,159.91 
					555.664,160.52 555.423,160.84 555.313,160.89 555.183,161.05 554.892,161.24 554.882,161.24 554.792,161.27 553.972,161.56 
					553.693,161.64 553.173,161.77 552.753,161.8 552.613,161.75 551.604,161.44 551.392,161.44 551.132,161.5 550.904,161.6 
					550.875,161.62 550.343,161.95 549.882,162.25 549.664,162.4 549.132,162.83 549.074,162.99 548.972,163.1 548.933,163.18 
					548.833,163.46 548.234,164.35 548.222,164.45 548.164,164.56 547.904,165.01 547.503,165.56 547.455,165.7 547.302,165.91 
					547.183,166.09 546.972,166.29 546.943,166.45 546.664,166.81 546.552,166.83 546.222,167.29 546.183,167.41 546.164,167.45 
					545.813,167.92 545.773,167.93 545.712,167.98 545.642,168.08 545.484,168.29 545.433,168.46 545.414,168.5 545.414,168.88 
					545.414,169.15 545.583,169.51 545.583,169.52 545.642,169.83 545.593,170.26 545.642,170.6 545.654,170.7 545.802,171.2 
					545.892,171.28 546.222,172.1 546.792,173.54 546.854,173.71 546.892,173.86 547.125,174.5 547.205,174.61 547.333,175.14 
					547.414,175.23 547.574,175.67 547.693,176 547.955,176.49 548.042,176.83 548.113,177.13 548.433,178.3 548.642,178.64 
					548.972,179.32 549.042,179.71 548.882,180.26 548.833,180.41 548.744,180.73 548.744,181.25 548.843,181.81 548.914,181.89 
					549.013,182.33 549.042,182.96 549.074,183.07 549.132,183.31 549.253,183.85 549.263,183.97 549.523,184.52 549.494,184.67 
					549.222,184.95 549.222,185 549.193,185.14 549.193,185.16 549.253,185.37 549.023,186.01 548.955,186.4 548.802,186.87 
					548.705,187.08 548.503,187.43 548.052,188.32 547.882,188.68 547.753,188.96 547.552,189.45 547.244,189.97 547.033,190.14 
					546.892,190.24 546.792,190.27 546.472,190.51 546.313,190.7 545.773,191.71 544.875,192.83 544.854,192.85 544.693,193.18 
					544.513,193.5 544.052,194.05 543.943,194.21 543.433,194.66 542.712,195.56 542.583,195.73 542.263,196.57 542.093,196.84 
					541.542,197.73 541.433,197.83 541.382,197.89 541.183,198.01 540.962,198.54 540.824,198.85 540.104,199.36 539.414,200.08 
					539.253,200.12 538.962,200.11 538.125,200.2 538.003,200.21 537.882,200.21 537.632,200.31 537.222,200.49 537.093,200.6 
					536.654,200.8 535.923,201 535.222,201.46 535.013,201.66 535.003,201.66 534.263,201.94 533.625,202.3 532.833,202.83 
					532.222,203.05 531.843,203.09 				"/>
				<polyline fill="none" stroke="#666666" stroke-width="0.25" stroke-linejoin="round" stroke-miterlimit="3.8637" points="
					546.802,11.98 546.824,11.98 546.984,11.96 547.063,11.95 547.142,11.89 547.212,11.79 				"/>
				<polyline fill="none" stroke="#666666" stroke-width="0.25" stroke-linejoin="round" stroke-miterlimit="3.8637" points="
					531.302,20.11 531.354,20.02 531.683,19.84 531.773,19.77 532.003,19.57 532.083,19.46 532.273,19.27 532.414,19.18 
					532.722,19.15 532.933,19.18 533.253,19.14 533.462,19.03 533.552,18.89 533.763,18.7 534.125,18.5 534.552,18.41 
					535.503,18.28 535.813,18.17 535.933,18.08 536.042,17.98 536.433,17.27 536.593,17.05 536.914,16.79 537.234,16.62 
					537.664,16.52 537.792,16.54 537.984,16.51 538.593,16.54 538.933,16.6 539.263,16.69 540.142,17.12 540.613,17.27 
					541.093,17.38 541.392,17.39 541.503,17.38 541.664,17.26 541.763,17.17 541.882,16.99 542.083,16.52 542.113,16.42 
					542.292,16.12 542.503,15.73 542.683,15.52 542.763,15.35 542.882,15.2 543.333,14.38 543.552,13.87 543.583,13.78 
					543.875,13.03 544.104,12.99 544.173,12.67 544.263,12.55 544.363,12.46 544.484,12.39 544.763,12.28 545.302,12.22 
					546.104,12.25 546.632,12.17 546.683,11.98 546.792,11.98 				"/>
				<polyline fill="none" stroke="#666666" stroke-width="0.25" stroke-linejoin="round" stroke-miterlimit="3.8637" points="
					519.882,10.78 519.933,11.24 519.914,11.44 519.972,11.95 519.892,12.28 519.773,12.56 519.722,12.99 519.763,13.46 
					519.843,13.77 519.914,13.89 520.142,13.99 520.363,14 520.783,14.02 521.642,13.96 521.843,13.97 522.074,14.02 522.263,14.14 
					522.382,14.24 522.523,14.44 522.722,14.87 523.083,16.02 523.244,16.36 523.513,16.7 523.642,17 523.734,17.49 523.854,17.68 
					524.673,18.4 524.882,18.61 525.333,18.85 525.705,18.92 526.205,19.09 526.414,19.2 526.523,19.27 526.642,19.31 
					526.854,19.51 526.875,19.84 526.854,20.06 526.783,20.39 526.632,20.77 526.604,20.91 526.523,21.01 526.513,21.12 
					526.392,21.35 526.313,21.66 526.302,21.77 526.333,22 526.392,22.14 526.503,22.35 526.712,22.56 527.042,22.81 527.375,22.97 
					527.683,23.02 527.914,22.99 528.023,22.93 528.462,22.57 528.523,22.48 529.343,21.62 529.472,21.54 529.642,21.34 
					529.882,21.16 530.063,20.93 530.462,20.58 530.705,20.39 530.792,20.31 531.042,20.17 531.302,20.11 				"/>
				<polyline fill="none" stroke="#666666" stroke-width="0.25" stroke-linejoin="round" stroke-miterlimit="3.8637" points="
					550.263,18.4 549.632,18.58 549.404,18.67 548.414,18.87 548.302,18.87 548.083,18.94 547.962,18.95 547.683,19.03 
					547.433,19.15 547.313,19.16 546.933,19.36 546.792,19.39 546.494,19.56 546.132,19.78 545.533,20.02 545.292,20.14 
					544.542,20.68 544.433,20.71 544.302,20.8 544.173,20.85 543.933,20.98 543.792,21 543.333,21.14 543.212,21.14 543.013,21.24 
					542.923,21.22 542.433,21.35 542.292,21.4 542.183,21.47 542.093,21.58 542.013,21.68 541.994,21.81 542.093,21.94 542.173,22 
					542.503,22.18 542.533,22.39 542.513,22.48 542.604,22.69 542.833,22.87 543.142,23.04 543.375,23.24 543.455,23.33 
					543.494,23.44 543.513,23.56 543.513,23.68 543.423,23.98 				"/>
				<polyline fill="none" stroke="#666666" stroke-width="0.25" stroke-linejoin="round" stroke-miterlimit="3.8637" points="
					548.984,21.01 548.792,20.72 548.604,20.66 548.484,20.72 548.392,20.86 548.375,21 548.375,21.17 548.273,21.28 548.263,21.47 
					547.962,22.33 547.933,22.45 547.875,22.54 547.632,22.62 547.392,22.89 547.292,23.08 547.205,23.17 547.083,23.24 
					546.943,23.26 546.802,23.24 546.683,23.24 546.375,23.32 546.164,23.31 546.052,23.29 545.813,23.2 545.625,23.17 
					545.513,23.23 545.443,23.32 545.343,23.54 545.132,23.86 545.023,23.95 544.813,24.02 544.693,24.02 544.263,24.1 
					543.933,24.1 543.683,24.06 543.423,23.98 				"/>
				<polyline fill="none" stroke="#666666" stroke-width="0.25" stroke-linejoin="round" stroke-miterlimit="3.8637" points="
					543.423,23.98 543.234,24.27 542.923,24.58 542.093,25.25 542.013,25.33 541.783,25.42 541.414,25.48 				"/>
				<polyline fill="none" stroke="#666666" stroke-width="0.25" stroke-linejoin="round" stroke-miterlimit="3.8637" points="
					538.625,27.29 539.142,27.24 539.253,27.22 539.472,27.08 539.552,26.96 539.813,26.32 540.104,25.77 540.222,25.48 
					540.343,25.29 540.433,25.2 540.552,25.12 540.854,25.03 541.052,25.04 541.154,25.09 541.263,25.2 541.414,25.48 				"/>
				<polyline fill="none" stroke="#666666" stroke-width="0.25" stroke-linejoin="round" stroke-miterlimit="3.8637" points="
					531.302,20.11 531.773,20.54 531.972,20.77 532.392,21.16 532.734,21.52 533.205,21.92 533.324,21.99 533.882,22.42 
					534.234,22.6 535.503,22.99 535.712,23 535.923,22.96 536.132,22.96 536.234,22.99 536.324,23.08 536.414,23.29 536.414,23.38 
					536.563,23.83 536.763,24.2 536.833,24.31 536.955,24.54 537.404,25.46 538.244,26.59 538.542,27.07 538.625,27.29 				"/>
				<polyline fill="none" stroke="#666666" stroke-width="0.25" stroke-linejoin="round" stroke-miterlimit="3.8637" points="
					552.093,23.11 551.984,23.37 551.955,23.75 551.914,24 551.705,24.55 551.513,24.91 551.013,25.79 550.933,25.9 550.693,26.27 
					550.472,26.72 550.513,26.83 551.132,27.31 551.042,27.55 550.833,27.94 550.753,28.16 550.753,28.29 550.484,29.16 
					550.333,30.06 				"/>
				<polyline fill="none" stroke="#666666" stroke-width="0.25" stroke-linejoin="round" stroke-miterlimit="3.8637" points="
					515.392,14.81 515.813,15.07 516.164,15.39 516.234,15.47 516.563,15.74 516.673,15.95 516.683,16.04 516.673,16.14 
					516.552,16.22 516.052,16.37 515.843,16.42 515.744,16.48 515.683,16.57 515.722,16.78 516.212,17.31 516.433,17.5 
					516.773,17.87 517.104,18.33 517.205,18.4 517.333,18.62 517.433,18.83 517.433,18.94 517.414,19.04 517.333,19.16 
					517.013,19.45 516.875,19.51 516.222,20.04 516.093,20.32 516.074,20.53 516.104,20.74 516.013,20.96 515.933,21.06 
					515.773,21.39 515.955,21.58 516.212,21.76 516.552,21.83 516.763,21.85 517.003,21.89 517.313,21.91 517.625,21.97 
					517.722,21.97 518.433,22.41 518.513,22.51 518.433,23.47 518.324,24.1 518.324,24.39 518.375,24.79 518.443,24.89 
					518.763,25.24 518.813,25.33 519.283,26.21 519.455,26.6 519.563,26.95 519.802,27.87 519.802,27.99 519.642,28.18 
					519.542,28.27 519.234,28.58 519.093,28.78 519.003,28.97 518.955,29.52 518.955,29.95 518.914,30.24 518.813,30.35 
					518.302,30.6 518.222,30.66 				"/>
				<polyline fill="none" stroke="#666666" stroke-width="0.25" stroke-linejoin="round" stroke-miterlimit="3.8637" points="
					538.625,27.29 538.523,27.37 538.423,27.43 538.313,27.54 537.664,27.94 537.253,28.25 536.955,28.54 536.722,28.85 
					536.642,29.06 536.604,29.17 536.533,29.35 536.462,29.45 536.354,29.58 536.234,29.68 535.972,29.96 535.833,30.25 
					535.664,30.74 535.593,30.83 				"/>
				<polyline fill="none" stroke="#666666" stroke-width="0.25" stroke-linejoin="round" stroke-miterlimit="3.8637" points="
					541.414,25.48 541.593,25.87 541.642,26 541.904,26.41 542.093,26.6 542.354,26.79 542.583,26.83 542.792,26.79 543.013,26.66 
					543.253,26.62 543.404,26.65 543.972,26.87 544.484,27.14 545.205,27.43 545.433,27.85 545.513,27.95 545.552,28.06 
					545.792,28.42 545.972,28.64 546.313,28.9 547.222,29.45 547.813,29.74 547.875,29.86 547.813,30.12 547.763,30.19 
					547.734,30.49 547.753,30.61 548.042,30.85 548.113,30.95 548.343,30.82 548.433,30.73 548.642,30.6 549.333,30.24 
					549.673,30.13 549.882,30.1 550.222,30.1 550.333,30.06 				"/>
				<polyline fill="none" stroke="#666666" stroke-width="0.25" stroke-linejoin="round" stroke-miterlimit="3.8637" points="
					515.933,30.97 516.052,30.94 516.263,30.85 516.613,30.68 517.104,30.52 517.333,30.54 517.472,30.5 517.683,30.52 
					517.813,30.54 518.222,30.66 				"/>
				<polyline fill="none" stroke="#666666" stroke-width="0.25" stroke-linejoin="round" stroke-miterlimit="3.8637" points="
					550.333,30.06 550.292,30.58 550.244,30.92 550.205,31.7 550.222,32.17 550.263,32.38 550.292,32.49 550.484,32.81 
					550.693,32.96 550.923,33 				"/>
				<polyline fill="none" stroke="#666666" stroke-width="0.25" stroke-linejoin="round" stroke-miterlimit="3.8637" points="
					550.923,33 551.234,32.93 551.433,32.86 552.664,32.66 552.875,32.83 553.173,33.14 553.292,33.19 553.382,33.19 553.503,33.12 
					553.833,32.75 553.933,32.7 554.253,32.68 554.462,32.72 554.625,32.89 554.892,33.39 				"/>
				<polyline fill="none" stroke="#666666" stroke-width="0.25" stroke-linejoin="round" stroke-miterlimit="3.8637" points="
					503.042,33.25 503.354,33.29 503.563,33.37 503.773,33.4 504.013,33.39 504.132,33.4 504.523,33.37 504.763,33.29 505.244,33.1 
					505.955,32.71 506.533,32.42 506.792,32.27 507.142,32.1 507.382,32 507.734,31.91 507.962,31.89 508.205,31.91 509.763,31.87 
					510.104,31.9 510.593,31.87 511.503,31.87 512.273,31.84 512.923,31.79 513.433,31.7 513.542,31.7 514.542,31.43 515.472,31.15 
					515.933,30.97 				"/>
				<polyline fill="none" stroke="#666666" stroke-width="0.25" stroke-linejoin="round" stroke-miterlimit="3.8637" points="
					518.222,30.66 518.414,30.74 518.833,31.1 520.013,32.29 520.333,32.59 520.542,32.75 520.763,32.79 521.023,32.74 
					521.382,32.6 521.773,32.42 521.882,32.41 522.212,32.31 522.642,32.18 522.854,32.14 523.212,32.17 523.625,32.39 
					524.253,32.85 524.563,33.01 524.892,33.24 525.222,33.39 525.455,33.43 525.552,33.35 525.632,33.25 526.212,32.2 
					526.593,31.62 526.955,31.15 527.164,31 527.642,30.81 528.104,30.73 528.722,30.68 528.843,30.68 529.173,30.66 529.513,30.67 
					529.933,30.76 530.354,30.95 530.462,31.04 530.552,31.08 530.792,31.29 531.052,31.62 531.313,31.83 531.513,31.9 
					531.943,31.85 532.173,31.78 532.783,31.42 533.205,31.24 533.593,31.09 534.132,30.92 534.914,30.81 535.273,30.79 
					535.593,30.83 				"/>
				<polyline fill="none" stroke="#666666" stroke-width="0.25" stroke-linejoin="round" stroke-miterlimit="3.8637" points="
					550.923,33 550.955,33.04 550.955,33.22 550.972,33.62 550.962,34.87 550.923,34.97 550.854,35.06 550.313,35.37 550.273,35.45 
					550.302,35.56 550.392,35.64 550.664,35.85 550.753,35.87 550.854,35.98 550.882,36.07 550.882,36.16 550.875,36.25 
					550.813,36.35 550.712,36.46 550.472,36.54 549.882,36.66 549.542,36.68 549.433,36.73 548.984,36.82 548.863,36.82 
					548.552,36.89 548.472,36.99 548.443,37.09 548.552,37.41 548.625,37.56 548.654,37.96 548.625,38.12 548.563,38.32 
					548.414,38.62 548.164,38.92 547.833,39.14 547.343,39.33 547.222,39.4 547.083,39.43 				"/>
				<polyline fill="none" stroke="#666666" stroke-width="0.25" stroke-linejoin="round" stroke-miterlimit="3.8637" points="
					535.593,30.83 535.712,31.04 535.802,31.14 535.994,31.46 536.042,31.67 536.063,32.06 535.972,32.45 535.763,33.02 
					535.542,33.4 535.414,33.6 535.033,34.02 534.802,34.24 534.734,34.35 534.183,34.81 533.813,35.05 533.253,35.38 
					532.833,35.59 532.593,35.7 532.484,35.71 532.244,35.81 532.052,35.87 531.824,35.96 531.734,36.06 531.673,36.14 
					531.705,36.25 531.875,36.47 532.093,36.68 532.173,36.77 532.513,37.03 532.753,37.27 533.142,37.54 533.382,37.63 
					533.843,37.77 534.343,37.83 535.273,38.14 535.552,38.26 535.972,38.54 536.132,38.77 536.263,39.16 536.273,39.83 
					536.253,40.03 536.132,40.41 536.052,40.58 535.904,40.81 535.523,41.27 				"/>
				<polyline fill="none" stroke="#666666" stroke-width="0.25" stroke-linejoin="round" stroke-miterlimit="3.8637" points="
					547.083,39.43 546.683,39.54 546.462,39.56 545.673,39.77 545.382,39.92 545.292,40.03 545.113,40.36 545.052,40.56 
					544.962,40.77 544.813,40.97 544.734,41.06 544.392,41.21 544.292,41.18 544.183,41.08 543.933,40.67 543.843,40.78 
					543.792,40.9 543.734,41.16 543.642,41.72 543.613,42.02 543.455,42.74 543.354,42.88 543.222,42.94 543.104,42.94 
					542.843,42.83 542.625,42.62 542.503,42.5 542.183,42.19 542.093,42.12 541.923,42.01 541.683,41.91 541.363,41.83 
					541.222,41.83 540.734,41.77 540.404,41.6 539.843,41.27 539.552,41.11 539.443,41.08 538.882,41.05 538.753,41.06 
					537.972,41.24 537.375,41.44 536.863,41.53 536.503,41.53 536.142,41.49 535.693,41.35 535.593,41.27 535.523,41.27 				"/>
				<polyline fill="none" stroke="#666666" stroke-width="0.25" stroke-linejoin="round" stroke-miterlimit="3.8637" points="
					515.933,30.97 516.343,31.41 516.824,32.05 516.933,32.14 517.183,32.56 517.343,33.02 517.392,33.25 517.414,33.46 
					517.382,33.68 517.343,33.77 517.222,33.99 516.984,34.29 516.882,34.52 516.882,34.64 516.933,34.84 517.063,35.17 
					517.313,35.56 517.382,35.65 517.802,36.08 517.875,36.2 518.263,36.62 518.503,37.04 518.583,37.37 518.604,37.6 518.625,37.9 
					518.583,38.42 518.503,38.87 518.503,39.08 518.533,39.19 518.593,39.31 518.773,39.5 519.104,39.71 519.222,39.74 
					519.664,39.99 519.875,40.08 520.003,40.1 520.813,40.52 521.164,40.75 521.234,40.84 521.302,40.96 521.472,41.29 
					521.563,41.62 521.563,41.87 521.563,42.25 521.533,42.49 521.414,43.14 521.253,43.72 521.132,44.04 521.042,44.17 
					520.994,44.26 520.392,44.83 520.052,45.34 519.943,45.55 519.882,45.95 519.792,46.3 519.593,46.66 519.142,47 518.933,47.14 
					518.712,47.32 518.604,47.42 518.513,47.62 518.484,47.74 518.462,47.98 518.462,48.31 518.472,48.83 518.462,49.18 
					518.375,50.1 518.263,50.52 518.234,50.65 518.173,50.74 518.113,51.06 517.994,51.37 				"/>
				<polyline fill="none" stroke="#666666" stroke-width="0.25" stroke-linejoin="round" stroke-miterlimit="3.8637" points="
					502.343,53.59 502.753,53.59 502.955,53.54 503.273,53.32 503.744,52.81 504.052,52.51 504.283,52.35 504.705,52.21 
					505.033,52.2 505.263,52.22 505.363,52.25 505.503,52.35 505.875,52.51 506.302,52.75 506.414,52.78 506.705,52.93 
					506.972,53.02 507.433,53.1 507.673,53.1 508.063,53.05 508.212,52.99 508.414,52.83 508.542,52.62 508.664,52.06 
					508.763,50.92 508.813,50.7 508.904,50.42 508.994,50.18 509.234,49.81 509.563,49.41 509.792,49.24 510.013,49.14 
					510.234,49.1 510.673,49.12 510.914,49.16 511.722,49.41 511.833,49.45 512.513,49.6 513.234,49.84 513.382,49.91 
					513.984,50.16 515.654,50.89 516.673,51.27 516.914,51.33 517.183,51.37 517.875,51.33 517.994,51.37 				"/>
				<polyline fill="none" stroke="#666666" stroke-width="0.25" stroke-linejoin="round" stroke-miterlimit="3.8637" points="
					547.083,39.43 546.542,40.24 546.074,41.04 546.183,41.14 546.283,41.21 547.033,41.6 547.523,41.81 547.722,41.92 
					547.833,42.01 548.013,42.25 548.164,42.54 548.222,42.71 548.222,42.94 548.183,43.14 548.142,43.52 548.013,44.24 
					547.962,44.35 547.854,44.8 547.693,45.35 547.513,45.77 547.263,46.16 547.083,46.35 546.943,46.56 546.843,46.64 
					546.753,46.78 546.433,47.11 546.052,47.53 545.914,47.81 546.003,48.13 546.333,48.79 546.854,49.91 547.392,50.96 
					547.994,52.02 548.472,52.9 548.833,53.44 549.164,53.86 549.302,54.1 549.333,54.39 549.382,54.68 549.472,54.91 				"/>
				<polyline fill="none" stroke="#666666" stroke-width="0.25" stroke-linejoin="round" stroke-miterlimit="3.8637" points="
					558.802,48.89 558.683,49.12 558.513,49.33 558.313,49.52 557.972,49.79 557.763,50 557.625,50.2 557.563,50.42 557.513,50.66 
					557.533,51.29 557.673,52.37 557.673,52.72 557.604,53.12 557.443,53.45 557.375,53.58 557.142,53.75 556.664,54.04 
					555.892,54.31 555.042,54.47 554.843,54.55 554.744,54.62 554.673,54.73 554.654,54.82 554.683,54.94 554.843,55.12 
					555.042,55.31 555.093,55.42 555.104,55.51 555.052,55.62 554.863,55.81 554.443,56.05 553.734,56.29 				"/>
				<polyline fill="none" stroke="#666666" stroke-width="0.25" stroke-linejoin="round" stroke-miterlimit="3.8637" points="
					553.734,56.29 553.313,56.26 552.943,56.26 552.943,56.27 552.552,56.27 552.003,56.17 551.472,56.04 550.542,55.66 
					549.792,55.15 549.523,54.94 549.472,54.91 				"/>
				<polyline fill="none" stroke="#666666" stroke-width="0.25" stroke-linejoin="round" stroke-miterlimit="3.8637" points="
					535.523,41.27 535.382,41.45 534.792,41.89 534.263,42.25 533.833,42.56 533.683,42.64 532.994,43.14 531.972,43.89 
					531.683,44.05 531.183,44.47 530.533,45.06 530.093,45.37 529.972,45.47 529.813,45.7 529.734,45.94 529.753,46.16 
					529.955,46.81 529.994,47.29 529.904,47.71 529.783,48.02 529.642,48.27 529.574,48.49 529.523,48.73 529.593,49.02 
					529.632,49.14 529.783,49.37 529.882,49.51 530.324,49.9 530.392,50 530.433,50.11 530.414,50.18 530.382,50.27 530.302,50.37 
					529.593,50.5 529.343,50.58 529.013,50.72 528.824,50.85 528.132,51.28 528.013,51.34 527.744,51.43 527.375,51.45 
					526.923,51.4 526.642,51.31 525.843,51.01 525.003,50.8 524.773,50.79 524.673,50.85 524.563,50.93 524.513,51.02 
					524.503,51.14 524.503,51.25 524.625,51.56 524.792,51.79 525.802,52.99 526.292,53.53 527.484,54.77 527.972,55.39 
					528.333,56.05 528.375,56.16 528.705,56.8 528.824,56.98 528.892,57.19 528.914,57.35 				"/>
				<polyline fill="none" stroke="#666666" stroke-width="0.25" stroke-linejoin="round" stroke-miterlimit="3.8637" points="
					528.914,57.35 528.673,57.27 528.433,57.22 528.052,57.16 527.354,57.16 526.972,57.22 525.843,57.56 				"/>
				<polyline fill="none" stroke="#666666" stroke-width="0.25" stroke-linejoin="round" stroke-miterlimit="3.8637" points="
					517.994,51.37 518.324,51.62 518.503,51.88 518.833,52.57 519.125,53.04 519.222,53.14 519.375,53.37 519.753,53.74 
					519.943,53.87 520.142,53.91 520.382,53.87 520.693,53.72 520.813,53.7 521.013,53.7 521.484,53.85 521.843,54 522.074,54.13 
					522.302,54.29 522.382,54.49 522.673,55.24 522.854,55.43 522.962,55.48 523.552,55.57 523.904,55.66 524.443,55.9 
					525.052,56.29 525.354,56.58 525.593,56.87 525.753,57.17 525.824,57.37 525.843,57.56 				"/>
				<path fill="none" stroke="#666666" stroke-width="0.25" stroke-linejoin="round" stroke-miterlimit="3.8637" d="M552.943,56.32
					c0,0,0.149,0.93,1.021,1.57c0.851,0.63,1.83-0.29,1.83-0.29l0.81-0.6l0.021,0.01l0.689,0.19l0.34,0.08l0.75,0.3l0.621,0.18
					l0.987,0.18l0.941,0.2l1.219,0.07l0.24-0.06l0.229-0.57l0.201-0.3l0.15-0.18l0.397-0.4l0.359-0.28l0.541-0.32l0.51-0.23
					l1.011-0.31l1.271-0.47"/>
				<polyline fill="none" stroke="#666666" stroke-width="0.25" stroke-linejoin="round" stroke-miterlimit="3.8637" points="
					549.472,54.91 549.104,54.97 548.273,55.24 548.052,55.37 547.875,55.57 547.722,55.79 547.683,56 547.693,56.11 548.042,56.93 
					548.132,57.28 548.093,57.5 547.933,57.71 547.712,57.85 547.503,58.04 547.302,58.37 546.882,59.35 546.404,60.31 
					546.313,60.54 546.263,60.73 546.283,60.92 546.313,61.03 546.404,61.24 546.683,61.81 546.763,62.23 546.792,62.47 
					546.802,62.95 546.722,63.52 546.734,63.92 546.802,64.1 546.914,64.31 547.292,64.78 547.503,65.1 547.593,65.31 
					547.683,65.59 547.712,65.83 547.712,66.14 547.604,66.73 547.625,66.83 				"/>
				<polyline fill="none" stroke="#666666" stroke-width="0.25" stroke-linejoin="round" stroke-miterlimit="3.8637" points="
					567.013,68.53 566.292,68.18 566.164,68.16 565.574,68.11 565.363,68.16 565.263,68.12 565.154,68.02 565.003,67.72 
					564.705,67.29 564.433,66.83 564.003,66.2 563.802,66.02 563.705,66.06 563.604,66.13 563.503,66.24 563.302,66.54 
					563.132,66.73 563.013,66.81 562.833,66.87 562.712,66.88 562.625,66.87 562.414,66.77 562.292,66.66 562.083,66.31 
					561.763,65.47 561.705,65.26 561.673,65.17 561.593,64.79 561.513,64.18 561.375,63.85 560.933,63.25 560.843,63.19 
					560.683,63.37 560.563,63.68 560.503,63.79 560.343,64.14 560.173,64.36 559.972,64.57 559.854,64.66 559.484,64.85 
					559.363,64.87 559.125,64.87 558.773,64.78 558.183,64.54 557.683,64.27 557.472,64.2 557.375,64.16 557.164,64.16 
					556.933,64.2 556.833,64.39 556.802,64.57 556.693,64.77 556.552,64.87 556.093,65.08 556.033,65.18 555.972,65.27 
					555.962,65.39 555.984,65.7 555.984,65.74 555.914,65.87 555.734,66.08 555.404,66.37 554.955,66.68 554.604,66.85 
					554.273,66.97 553.455,67.37 552.773,67.67 552.142,67.97 551.914,68.04 551.792,68.04 551.392,67.89 550.712,67.41 
					550.484,67.29 549.943,67.18 549.343,67.16 548.892,67.12 547.625,66.83 				"/>
				<polyline fill="none" stroke="#666666" stroke-width="0.25" stroke-linejoin="round" stroke-miterlimit="3.8637" points="
					547.625,66.83 547.423,66.79 547.205,66.79 546.943,66.88 546.132,67.36 546.042,67.45 545.563,67.81 545.343,68.02 
					544.813,68.58 544.625,68.74 544.244,69.22 543.984,69.49 543.542,70.14 543.343,70.52 				"/>
				<polyline fill="none" stroke="#666666" stroke-width="0.25" stroke-linejoin="round" stroke-miterlimit="3.8637" points="
					543.343,70.52 543.222,70.37 542.923,70.1 542.792,69.81 542.593,69.06 542.142,67.67 542.023,67.06 541.875,66.56 
					541.753,66.5 541.625,66.54 540.734,66.83 540.333,67 540.183,66.97 539.955,66.92 539.443,66.71 539.042,66.58 538.472,66.41 
					537.763,66.27 536.462,66.06 535.722,65.87 535.484,65.79 535.273,65.68 535.033,65.47 534.792,65.24 534.664,65.05 
					534.472,64.64 534.404,64.54 533.604,63.85 533.083,63.27 532.833,62.93 532.513,63.04 532.273,63.06 531.683,63.01 531.593,63 
					531.382,62.86 530.984,62.45 530.173,61.78 529.513,61.18 529.382,60.89 529.363,60.74 529.382,60.62 529.503,60 529.632,59.56 
					529.632,59.44 529.722,58.97 529.763,58.51 529.693,58.27 529.513,57.95 529.125,57.47 528.914,57.35 				"/>
				<polyline fill="none" stroke="#666666" stroke-width="0.25" stroke-linejoin="round" stroke-miterlimit="3.8637" points="
					513.253,77.83 516.455,75.97 517.343,75.5 518.324,75.14 518.773,74.95 519.125,74.77 519.313,74.62 519.404,74.52 
					519.423,74.41 519.382,74.32 519.283,74.21 518.923,74.08 518.722,73.89 518.604,73.67 518.563,73.56 518.593,73.35 
					518.722,73.09 519.253,72.68 519.613,72.33 519.875,71.91 520.052,71.41 520.263,71 520.472,70.81 520.552,70.78 520.683,70.78 
					521.164,70.91 521.292,70.95 521.392,70.91 522.333,70.45 524.222,69.91 524.392,69.68 524.513,69.37 524.552,69.28 
					524.552,69.06 524.503,68.95 524.292,68.52 524.183,68.23 524.142,67.93 524.113,67.46 524.132,67.08 524.183,66.68 
					524.273,66.37 524.343,65.98 524.375,65.66 524.302,65.42 524.164,65.2 523.802,65 523.063,64.77 522.382,64.62 521.972,64.48 
					521.882,64.43 521.673,64.3 521.563,64.2 521.503,63.97 521.503,63.77 521.654,63.24 521.833,62.71 522.093,62.12 
					522.824,61.74 523.003,61.52 523.154,61.2 523.244,60.81 523.313,60.6 523.484,60.29 523.664,60.08 523.904,59.89 
					524.132,59.75 524.375,59.65 524.882,59.37 525.313,58.99 525.472,58.81 525.583,58.69 525.683,58.45 525.722,58.33 
					525.792,58.02 525.843,57.56 				"/>
				<polyline fill="none" stroke="#666666" stroke-width="0.25" stroke-linejoin="round" stroke-miterlimit="3.8637" points="
					501.343,78.2 501.354,78.2 501.375,78.22 501.472,78.28 501.773,78.56 501.854,78.68 501.943,78.77 502.212,78.91 
					502.712,79.02 503.063,79.04 503.382,79.14 503.955,79.35 504.263,79.42 504.423,79.48 504.593,79.51 504.734,79.56 
					504.984,79.7 505.212,79.87 505.542,80.08 505.642,80.18 505.994,80.42 506.083,80.53 506.443,80.75 507.132,81.04 
					507.494,81.13 507.673,80.66 507.763,80.26 507.843,80.08 508.063,79.89 508.302,79.74 509.013,79.45 509.604,79.12 
					510.773,78.56 511.093,78.47 511.625,78.43 512.173,78.34 512.792,78.1 513.253,77.83 				"/>
				<polyline fill="none" stroke="#666666" stroke-width="0.25" stroke-linejoin="round" stroke-miterlimit="3.8637" points="
					513.253,77.83 513.664,77.95 514.273,78.2 514.513,78.29 515.802,78.83 516.433,79.04 516.933,79.27 517.363,79.31 
					518.234,79.27 519.234,79.29 519.773,79.36 520.455,79.5 521.063,79.54 521.354,79.58 521.773,79.69 522.074,79.81 
					522.972,80.27 523.382,80.52 523.593,80.6 523.693,80.62 523.904,80.6 524.113,80.53 524.744,80.2 524.833,80.18 524.923,80.2 
					525.003,80.29 525.042,80.39 525.042,80.52 525.013,80.62 524.533,81.71 524.414,82.03 524.354,82.35 524.375,82.64 
					524.414,82.83 524.484,83.04 524.654,83.35 525.042,83.83 525.375,84.17 525.792,84.59 526.033,84.79 526.363,84.95 
					527.222,85.18 527.763,85.36 527.984,85.48 528.193,85.63 528.423,85.87 528.843,86.53 529.003,86.74 529.433,87.07 
					529.783,87.28 530.863,87.68 531.253,87.88 531.375,87.95 531.433,88.06 531.523,88.29 531.552,88.57 531.552,89.08 
					531.513,90.41 531.423,91.67 				"/>
				<polyline fill="none" stroke="#666666" stroke-width="0.25" stroke-linejoin="round" stroke-miterlimit="3.8637" points="
					531.423,91.67 531.753,91.5 531.943,91.31 532.244,91 532.472,90.89 533.164,90.68 533.513,90.54 533.604,90.5 533.882,90.54 
					534.003,90.59 534.222,90.7 534.705,91.03 534.933,91.21 535.104,91.54 535.154,91.72 535.183,91.78 				"/>
				<polyline fill="none" stroke="#666666" stroke-width="0.25" stroke-linejoin="round" stroke-miterlimit="3.8637" points="
					543.343,70.52 543.212,70.69 542.933,71.23 542.654,71.96 542.234,72.87 541.854,73.83 541.632,74.23 540.914,75.39 
					540.132,76.56 539.923,76.85 539.843,77 539.392,77.64 539.302,77.8 539.052,78.13 538.933,78.37 538.664,78.95 538.222,79.77 
					538.003,80.26 537.854,80.77 537.824,81.08 537.843,81.28 537.972,81.85 538.052,82.03 538.104,82.12 538.833,82.22 
					540.104,82.3 540.722,82.41 541.343,82.56 542.063,82.87 542.292,83 542.972,83.32 543.583,83.65 543.593,83.75 543.563,83.84 
					543.462,84.55 543.382,84.83 543.263,85.15 543.052,85.43 542.712,85.64 542.484,85.76 541.783,86.05 541.574,86.23 
					541.104,86.75 540.763,86.8 540.423,86.77 540.093,86.8 540.003,86.81 539.712,86.96 539.292,87.31 536.892,88.39 
					536.472,88.67 536.063,88.9 535.552,89.23 535.472,89.33 535.313,89.51 535.273,89.62 535.244,89.8 535.292,89.92 
					535.712,90.24 535.904,90.43 536.083,90.73 536.183,90.91 536.302,91.25 536.392,91.58 536.433,91.78 536.414,91.87 
					536.375,91.98 536.253,92.05 536.142,92.08 536.042,92.09 535.843,92.08 535.642,92 535.183,91.78 				"/>
				<polyline fill="none" stroke="#666666" stroke-width="0.25" stroke-linejoin="round" stroke-miterlimit="3.8637" points="
					524.414,93 525.382,92.44 525.882,92.27 526.142,92.24 526.523,92.26 527.625,92.39 528.824,92.6 529.343,92.6 529.664,92.51 
					529.882,92.41 530.533,92.02 530.654,91.98 530.955,91.91 531.164,91.83 531.423,91.67 				"/>
				<polyline fill="none" stroke="#666666" stroke-width="0.25" stroke-linejoin="round" stroke-miterlimit="3.8637" points="
					535.183,91.78 535.244,91.96 535.382,92.16 535.484,92.26 535.683,92.41 535.962,92.56 536.392,92.7 536.712,92.73 
					537.052,92.71 537.513,92.64 537.802,92.51 538.013,92.47 538.222,92.45 538.433,92.53 538.552,92.62 538.783,92.86 
					539.164,93.43 539.433,93.73 539.712,93.99 540.164,94.23 540.664,94.33 540.933,94.37 541.212,94.37 541.302,94.34 
					541.414,94.25 541.433,94.15 541.423,93.39 541.503,93.29 541.604,93.31 541.813,93.41 542.253,93.76 542.802,94.36 				"/>
				<polyline fill="none" stroke="#666666" stroke-width="0.25" stroke-linejoin="round" stroke-miterlimit="3.8637" points="
					509.955,96.16 510.552,96.08 511.093,96.08 511.363,96.06 511.933,95.98 512.302,95.98 513.763,95.89 514.003,95.84 
					514.854,95.39 515.083,95.35 515.222,95.37 515.462,95.41 515.923,95.56 516.283,95.64 516.792,95.71 517.052,95.73 
					517.433,95.8 517.763,95.81 518.093,95.71 518.273,95.53 518.343,95.29 518.324,94.98 518.343,94.58 518.433,94.27 
					518.583,94.06 518.683,93.95 519.023,93.77 519.404,93.64 520.093,93.34 520.183,93.31 520.392,93.29 520.813,93.46 
					521.443,93.49 522.104,93.46 522.664,93.4 523.753,93.2 524.173,93.1 524.414,93 				"/>
				<polyline fill="none" stroke="#666666" stroke-width="0.25" stroke-linejoin="round" stroke-miterlimit="3.8637" points="
					496.552,84.22 496.574,84.25 496.604,84.45 496.542,84.79 496.472,85.09 496.273,85.62 496.173,85.85 496.093,86.08 
					496.093,86.29 496.125,86.39 496.302,86.59 496.753,87.01 497.234,87.4 497.382,87.59 497.382,87.68 497.302,87.77 
					497.063,87.89 496.712,87.94 496.574,87.94 496.263,87.97 495.705,88.06 495.354,88.41 494.552,89.39 494.343,89.68 
					494.324,89.79 494.744,90.08 495.734,90.66 496.083,90.88 496.542,91.27 496.962,91.67 497.132,91.89 497.324,92.17 
					497.744,92.89 497.813,93 498.023,93.13 498.142,93.16 499.033,93.22 499.503,93.34 500.253,93.58 500.892,93.83 501.104,93.97 
					501.722,94.45 501.802,94.57 501.933,94.9 502.003,95.35 502.052,95.77 502.142,95.95 502.244,96.06 502.333,96.12 
					502.642,96.14 503.443,96.13 505.104,95.98 505.933,95.86 506.744,95.83 507.722,95.81 508.542,95.87 508.854,95.92 
					509.955,96.16 				"/>
				<polyline fill="none" stroke="#666666" stroke-width="0.25" stroke-linejoin="round" stroke-miterlimit="3.8637" points="
					509.955,96.16 509.013,98.02 508.433,99.13 507.892,99.89 507.423,100.41 506.462,101.29 505.302,102.25 503.833,103.34 
					500.164,106.14 498.042,107.86 496.423,109.09 495.632,109.74 495.023,110.21 492.333,112.23 491.023,113.14 487.604,114.61 
									"/>
				<polyline fill="none" stroke="#666666" stroke-width="0.25" stroke-linejoin="round" stroke-miterlimit="3.8637" points="
					524.414,93 524.414,93.24 524.563,93.52 524.773,93.82 524.933,94.01 525.142,94.21 525.642,94.56 526.052,94.75 526.423,94.87 
					526.523,94.95 526.604,95.05 526.604,95.14 526.604,95.24 526.484,95.42 526.033,95.84 525.132,96.46 524.583,96.94 
					524.503,97.03 524.263,97.51 524.183,97.72 524.132,98 524.113,98.31 524.132,98.53 524.173,98.95 524.253,100.03 
					524.382,100.83 524.533,101.44 524.673,101.87 524.933,102.59 525.074,102.91 525.193,103.18 525.455,103.76 525.792,104.41 
					526.263,105.13 527.023,106.45 527.093,106.56 527.292,106.69 527.604,106.85 528.132,107.02 528.494,107.17 528.824,107.39 
					529.003,107.6 529.382,108.33 529.552,108.54 529.664,108.61 529.763,108.67 530.023,108.7 530.443,108.59 530.533,108.61 
					530.673,108.68 531.023,109.03 531.333,109.36 531.943,109.96 532.093,110.17 532.173,110.38 532.125,110.71 532.063,110.91 
					531.882,111.31 531.513,111.87 531.423,111.99 531.234,112.29 531.142,112.52 531.132,112.63 531.164,112.81 531.313,113.05 
					531.433,113.17 531.722,113.42 532.693,114.22 533.052,114.54 533.324,114.83 533.484,115.06 533.625,115.29 534.302,116.58 
					534.462,116.84 534.763,117.26 534.943,117.46 535.455,117.95 535.833,118.37 				"/>
				<polyline fill="none" stroke="#666666" stroke-width="0.25" stroke-linejoin="round" stroke-miterlimit="3.8637" points="
					553.625,108.12 552.984,108.46 552.552,108.77 552.354,108.99 552.222,109.2 552.013,109.5 551.863,109.81 551.654,110.06 
					551.132,110.47 551.052,110.56 550.875,110.91 550.763,111.24 550.604,111.58 550.222,112.12 549.882,112.52 549.632,112.83 
					549.494,113.06 549.253,113.53 549.222,113.66 548.955,114.24 548.802,114.31 548.354,114.39 547.183,114.73 546.763,114.89 
					546.313,115.09 546.074,115.23 545.763,115.42 545.302,115.79 544.542,116.58 544.093,116.98 543.763,117.22 543.263,117.43 
					542.253,117.62 541.472,117.79 540.763,118.12 540.542,118.16 539.914,118.16 539.375,118.08 538.813,118.04 538.472,118.1 
					537.253,118.46 536.892,118.46 535.994,118.34 535.833,118.37 				"/>
				<polyline fill="none" stroke="#666666" stroke-width="0.25" stroke-linejoin="round" stroke-miterlimit="3.8637" points="
					535.833,118.37 536.642,119.33 536.923,119.65 537.234,119.92 537.462,120.07 537.943,120.26 538.484,120.43 538.625,120.45 
					538.854,120.46 539.503,120.37 539.802,120.39 539.892,120.43 540.023,120.5 540.132,120.59 540.212,120.68 540.313,120.91 
					540.343,121.09 540.354,121.62 540.333,121.93 540.343,123.2 540.313,123.4 540.253,123.61 539.914,124.37 				"/>
				<polyline fill="none" stroke="#666666" stroke-width="0.25" stroke-linejoin="round" stroke-miterlimit="3.8637" points="
					539.914,124.37 539.833,124.5 539.773,124.69 539.763,124.81 539.773,125.04 539.892,125.24 540.132,125.47 540.843,125.95 
					541.734,126.66 541.904,126.85 541.923,126.95 541.904,127.06 541.802,127.16 541.484,127.3 541.083,127.39 540.972,127.46 
					540.843,127.66 540.792,127.87 540.792,128.09 540.854,129.01 540.892,129.25 540.933,129.37 541.052,129.56 541.142,129.68 
					541.244,129.76 541.302,129.85 541.363,129.95 541.363,130.16 541.292,130.37 541.063,130.74 540.734,131.14 540.382,131.51 
					540.313,131.64 540.212,131.93 540.183,132.16 540.104,132.88 540.132,133.48 540.212,133.79 541.423,135.85 541.273,135.94 
					540.943,135.95 540.802,135.92 540.404,135.76 539.955,135.48 539.552,135.2 539.132,134.89 538.503,134.37 537.943,133.96 
					537.523,133.63 537.234,133.34 536.843,132.82 536.583,132.5 536.484,132.41 536.164,132.17 535.962,132.08 535.513,131.93 
					534.972,131.87 534.472,131.89 533.802,132.01 533.234,132.16 532.955,132.26 532.333,132.64 531.632,133.27 531.142,133.62 
					530.843,133.81 522.375,135.89 520.125,135.99 517.003,136.08 502.263,139.48 				"/>
				<polyline fill="none" stroke="#666666" stroke-width="0.25" stroke-linejoin="round" stroke-miterlimit="3.8637" points="
					539.914,124.37 540.042,124.42 540.283,124.39 540.802,124.42 541.593,124.41 542.843,124.2 543.613,123.92 544.052,123.7 
					544.205,123.52 544.625,122.91 544.882,122.6 545.013,122.5 545.113,122.42 545.324,122.35 545.533,122.32 545.863,122.33 
					546.462,122.44 547.292,122.64 547.513,122.65 547.632,122.62 547.722,122.56 547.955,122.23 548.023,122.14 548.234,121.98 
					548.443,121.84 548.744,121.74 549.302,121.58 549.824,121.42 550.414,121.03 550.712,120.88 550.955,120.77 551.433,120.62 
					552.125,120.43 552.542,120.26 553.093,120 553.955,119.53 554.263,119.39 554.484,119.33 554.792,119.32 555.125,119.33 
					556.104,119.51 556.392,119.5 556.734,119.41 557.354,119.18 557.563,119.14 557.654,119.16 557.763,119.21 557.833,119.33 
					557.833,119.42 557.813,119.51 557.763,119.62 557.552,119.91 557.513,120.12 557.563,120.31 557.563,120.4 557.354,120.41 
					557.164,120.39 556.933,120.43 556.813,120.62 556.843,120.73 556.962,120.92 557.052,121.03 557.302,121.21 557.625,121.37 
					557.955,121.46 558.222,121.51 558.705,121.54 559.212,121.6 559.604,121.7 560.164,121.9 560.843,122.23 561.763,122.7 
					562.183,122.84 563.302,123.35 564.642,124.04 566.023,124.6 566.343,124.76 566.533,124.93 566.654,125.12 566.892,126.02 
					566.955,126.37 567.042,126.61 567.283,126.94 567.472,127.14 567.802,127.41 568.513,128.05 568.734,128.18 569.023,128.29 
					569.222,128.41 569.382,128.62 569.472,128.91 569.503,129.08 569.443,129.55 569.324,130 569.042,130.72 568.962,130.93 
					568.923,131.12 568.882,131.35 568.882,131.79 568.962,133.08 568.994,133.87 568.972,134.09 568.923,134.33 568.783,134.74 
					568.712,135.07 568.693,135.17 568.722,135.29 568.833,135.41 569.802,136.23 570.472,136.66 572.164,137.95 572.914,138.62 
					574.033,139.7 574.802,140.27 575.113,140.49 575.382,140.65 575.683,140.71 575.882,140.7 576.494,140.56 576.722,140.56 
					576.824,140.64 576.854,140.8 576.722,141.02 576.472,141.33 576.104,141.64 575.604,141.97 575.324,142.14 575.113,142.24 
					574.433,142.45 573.962,142.64 573.593,142.84 573.253,143.08 572.843,143.38 572.625,143.6 572.132,144.17 571.244,145.79 
					571.013,146.18 570.763,146.71 				"/>
				<polyline fill="none" stroke="#666666" stroke-width="0.25" stroke-linejoin="round" stroke-miterlimit="3.8637" points="
					528.792,209.16 528.943,209.35 529.292,209.77 				"/>
			</g>
		</g>
	</g>
</g>
<path fill="#85BA3B" d="M240.783,132.582c1.74,0.609,2.49,2.579,3.84,3.6c1.957,1.482,9.131,7.353,9.84,9.36
	c-0.956,1.157-1.605,2.803-2.881,3.6c-1.119,0.24-2.239,0.48-3.359,0.72c-2.048,0.852-4.304,2.827-5.52,4.56
	c-0.938,1.334-4.857,8.871-3.84,11.52c0.106,0.278,0.817,0.863,0.959,1.2c0.529,1.254,0.685,2.951,0.961,4.32
	c0.781,3.868-1.905,8.485-0.961,12.72c0.535,2.397,1.533,4.071,2.16,6c-0.479,0-0.96,0-1.439,0c-1.594-1.004-4.106-0.225-6.24-0.72
	c-4.854-1.127-12.07-1.376-17.28-0.24c-1.343,0.293-4.477-0.394-5.28,0.48c-2.258,2.457-0.779,6.672-1.68,10.56
	c-0.958,4.136-1.242,10.64-4.32,12.72c-1.92,0.72-3.84,1.44-5.76,2.16c-1.039,0.648-1.234,1.849-2.64,2.16
	c-1.493-1.083-3.719-1.188-5.52-1.92c-1.888-0.769-7.498-3.654-10.32-2.88c-0.868,0.238-1.489,1.083-2.16,1.44
	c-1.381,0.734-1.893-1.12-2.4,0.96c1.085,1.405,0.746,4.6,0.72,6.96c-2.841,1.67-5.286,4.017-7.92,6
	c-0.585,0.44-0.702,1.083-1.44,1.44c-1.64-1.077-3.867-1.138-5.76-1.92c-4.423-1.828-9.253-3.835-13.92-5.28
	c-1.455-0.45-2.483-0.213-3.84-0.72c-4.404-1.645-8.69-3.986-12.96-5.76c-2.149-0.893-4.343-0.808-6.72-1.68
	c-2.532-0.929-5.223-2.34-7.68-3.36c-1.732-0.719-3.484-0.597-5.28-1.44c-0.274-0.128-0.695-0.797-0.96-0.96
	c-1.196-0.733-3.028-1.199-4.32-1.68c-2.024-0.754-4.354-0.824-4.8-3.12c5.081-2.542,9.348-7.1,13.92-10.32
	c3.47-2.444,8.458-5.197,10.8-8.64c0.58-0.854,0.655-1.773,1.2-2.64c1.187-1.888,2.724-3.715,4.08-5.52
	c3.847-5.119,9.027-9.038,11.76-15.36c0.934-2.16,0.865-4.791,1.68-7.2c2.281-0.291,4.832-1.145,7.2-1.68
	c3.925-0.888,9.292-0.48,13.68-0.48c1.52,0,3.04,0,4.56,0c1.819-0.397,4.027-0.651,6-0.72c0.73-2.88,1.727-1.542,2.64-2.64
	c0.08-0.56,0.16-1.12,0.24-1.68c0.305-0.581,1.058-1.104,1.44-1.68c0.08,0,0.16,0,0.24,0c0,0.08,0,0.16,0,0.24
	c3.738,2.579,7.373,7.667,14.64,6c2.526-0.579,6.271-0.301,6.48-3.12c0.853-1.417-0.877-3.736-1.2-5.04
	c-0.382-1.543,0.252-3.113,0.479-4.08c3.42-2.083,8.394-3.97,12.721-5.04c2.898,4.543,9.895,2.654,14.88,1.44
	c2.235-0.544,5.306,0.684,6.72,0.24C237.742,134.502,239.262,133.542,240.783,132.582z"/>
<path fill="#85BA3B" d="M242.462,191.141c0.555,3.958,4.609,6.275,6.48,9.12c0.928,1.413,1.494,3.486,1.92,5.28
	c0.234,0.99-0.197,2.201,0.239,2.88c1.457,1.233,2.948,2.313,3.601,4.32c0.08,1.04,0.16,2.08,0.24,3.12
	c0.194,0.556,0.922,1.213,1.199,1.68c0.754,1.268,0.719,2.982,0.721,5.04c2.789-0.085,7.683-0.935,8.64,0.96
	c0.391,0.528,0.46,1.243,0.479,2.16c-2.285,0.569-4.582,2.003-6.72,2.88c-3.219,1.321-6.931,1.57-10.56,2.4
	c-5.608,1.282-9.776-1.519-13.2-2.4c-2.066-0.532-7.211,0.655-8.88,1.2c-6.238,2.036-11.146,5.447-17.28,7.92
	c-1.315,0.53-6.009,2.412-7.919,1.92c-2.281-0.587-4.618-3.863-7.2-4.8c-2.934-1.065-6.058,2.196-10.32,0.96
	c-5.098-1.478-9.078-4.555-14.16-5.76c0-0.24,0-0.48,0-0.72c2.529-1.446,4.415-3.854,6.72-5.52c1.003-0.725,2.079-0.719,2.4-2.16
	c-0.644-1.012-0.48-5.005-0.48-6.48c1.771-0.207,2.181-1.358,3.6-1.68c1.578-0.358,3.734,0.807,4.8,1.2
	c3.294,1.214,8.503,3.612,12,3.84c1.037-3.838,7.482-3.432,9.601-6.96c1.667-2.777,1.864-7.625,2.64-11.04
	c0.987-4.346-1.525-10.099,3.84-10.08c1.523-0.962,6.715-0.587,9.121-0.72C230.348,189.349,236.123,191.046,242.462,191.141z"/>
<path fill="#85BA3B" d="M139.742,220.181c0,0.32,0,0.64,0,0.96c2.275,1.82,4.891,7.23,6.72,9.84
	c4.849,6.918,10.298,13.428,15.36,20.161c2.227,2.961,5.177,5.406,7.44,8.399c1.145,1.515,3.375,2.399,4.08,4.319
	c-1.597,0.496-2.98,1.824-4.32,2.641c-4.14,2.521-8.131,4.316-11.76,7.2c-1.161,0.922-1.71,2.665-2.88,3.601
	c0.218,0.26-0.019,0.021,0.24,0.239c2.337,3.46,10.28,7.403,15.84,7.681c0.478,2.041,1.746,4.045,2.4,6
	c0.8,3.279,1.6,6.562,2.4,9.84c0.24,1.92,0.48,3.84,0.72,5.762c1.861,7.355,2.125,15.345,4.8,21.84
	c2.477,6.018,4.966,12.084,7.92,17.76c1.851,3.559,4.163,6.961,5.52,11.04c0.996,2.993,1.02,5.945,1.92,9.12
	c1.564,5.516,2.827,11.45,4.32,17.279c1.042,4.066,0.984,8.313,1.92,12.238c0.8,6.319,1.6,12.644,2.4,18.961
	c0.815,3.369,0.949,7.097,1.92,10.562c0.634,2.267,1.572,4.834,1.92,7.2c-2.978,0.056-6.065,1.189-8.641,1.92
	c-5.082,1.438-10.435,1.846-15.36,3.12c-1.76,0.239-3.52,0.479-5.28,0.72c-11.033,2.861-23.353,3.432-34.56,6.24
	c-3.444,0.863-6.642,0.557-10.08,1.438c-6.15,1.58-12.826,1.729-19.2,3.36c-4.663,1.194-10.063,2.61-15.12,2.88
	c-0.8-5.679-1.6-11.359-2.4-17.04c-1.527-6.763-0.672-14.678-2.16-21.36c-0.08-1.68-0.16-3.357-0.24-5.039
	c-0.785-3.521-0.647-7.808-1.44-11.278c-0.16-1.683-0.32-3.36-0.48-5.04c-0.689-1.704-2.772-3.122-3.84-4.563
	c-2.617-3.523-5.529-6.597-8.16-10.08c-0.64-0.56-1.28-1.119-1.92-1.68c-3.926-5.188-8.802-9.451-12.72-14.64
	c-0.914-1.21-2.446-2.149-3.36-3.36c-1.657-2.195-3.672-4.089-5.28-6.24c-1.332-1.781-2.476-3.771-4.08-5.277
	c0.793-1.229,4.5-4.026,3.12-6.24c-1.261-2.021-7.285-0.703-9.6-1.682c-8.781-3.705-14.524-11.021-23.52-14.641
	c-2.191-0.881-4.68-0.98-7.68-0.959c-1.385,0.01-3.046,0.641-3.84,0.239c-2.667-0.871-4.951-3.419-6.48-5.521
	c-2.425-3.332-4.047-6.789-5.28-11.521c-2.145-8.229-0.25-19.883-0.24-29.04c0.26-0.218,0.02,0.021,0.24-0.238
	c3.673-0.086,6.877-1.719,9.6-2.882c8.222-3.51,14.242-8.313,20.88-13.197c3.278-2.414,6.539-4.553,9.84-6.961
	c2.16-2.24,4.32-4.479,6.48-6.722c5.6-4.237,10.713-8.969,16.32-13.2c4.14-3.124,7.588-7.43,11.76-10.56
	c4.923-3.694,9.476-7.903,14.4-11.521c3.457-2.539,7.636-4.827,10.56-7.92c0.16,0,0.32,0,0.48,0c1.176,3.071,5.664,2.986,8.64,4.32
	c0.597,0.268,1.155,1.192,1.68,1.44c1.402,0.663,2.729,0.406,4.08,0.96c2.5,1.024,5.203,2.344,7.68,3.36
	c2.119,0.869,4.618,0.819,6.72,1.68C133.166,217.339,136.4,219.61,139.742,220.181z"/>
<path fill="#85BA3B" d="M141.422,221.141c5.664,1.188,11.754,3.69,16.8,5.76c4.603,1.888,9.185,2.841,13.68,4.8
	c3.474,1.514,6.951,3.56,10.8,4.8c1.836,0.591,5.162,0.836,7.2,0.24c0.856-0.25,2.046-1.383,3.12-1.2
	c2.06,0.351,6.608,3.668,7.921,5.04c11.004-0.006,18.557-7.638,28.079-10.32c2.257-0.636,5.601-1.11,7.681-0.24
	c0.813,0.341,1.732,1.158,2.64,1.44c3.008,0.938,10.106,0.776,13.2,0c3.72-0.933,7.447-1.903,10.8-3.36
	c1.375-0.597,3.403-2.532,6-1.68c2.821,0.926,3.776,4.937,4.8,7.68c0.566,1.521,0.469,3.434,2.16,3.84
	c2.977-2.365,7.572,3.828,8.16,5.76c-3.604,2.304-6.012,5.729-10.801,6.959c-1.858,0.478-3.541-0.479-4.56-0.72
	c-0.399,0.08-0.8,0.16-1.2,0.24c-0.978-0.178-2.263-0.388-3.359-0.72c-3.174-0.96-8.289-3.375-12-1.92
	c-0.155,0.475-0.012,1.472-0.24,2.16c-1.814,5.473-8.294,4.412-14.4,5.76c-2.052,0.453-5.965,1.061-8.64,0.48
	c-5.183-1.125-11.388-0.321-16.56-1.44c-1.041,0-2.08,0-3.121,0c-4.012-0.873-8.957-0.335-12.959-1.2c-1.2,0-2.4,0-3.601,0
	c-1.741-0.384-3.081-1.072-4.56-1.439c-2.419-0.6-4.759,0.438-6.959,0.48c-1.067,3.315-3.983,9.902-7.44,10.561
	c-3.279-3.521-6.56-7.041-9.84-10.561c-5.204-6.899-10.563-13.453-15.6-20.641C146.708,228.971,142.355,224.361,141.422,221.141z"/>
<path fill="#85BA3B" d="M363.421,363.701c-4.365-0.082-8.92-0.257-11.281,1.681c-0.606,0.5-0.893,1.579-1.438,2.159
	c0.94,5.688,3.447,15.33,6.959,18c-1.064,2.153-2.627,5.181-4.562,6.479c-1.114,0.75-4.92,0.707-5.278,1.201
	c2.246,2.473,2.623,7.783,2.16,11.52c-0.613,0.438-1.005,1.33-1.683,1.68c-1.811,0.934-3.223-0.02-3.358,2.641
	c1.457,0.969,2.223,2.799,3.602,3.84c2.885,2.184,5.559,4.509,8.16,6.961c0.121,2.271-0.133,3.92-2.16,4.08
	c-1.252-0.83-2.914-0.852-4.08-1.682c-2.354-1.673-4.065-4.391-6.479-6c-1.166-0.775-2.918-0.8-4.08-1.68
	c-1.177-0.893-1.453-3.204-2.642-4.08c-1.461-1.078-3.063-1.412-4.317-2.641c-4.207-4.119-6.482-10.414-12.961-12.239
	c-5.261-1.481-8.109,1.97-11.279,3.36c-5.828,2.56-12.473,3.97-17.761,7.199c-3.261,1.99-5.453,5.219-8.64,7.199
	c-7.229,4.493-18.215,5.084-27.36,7.682c-9.408,2.666-19.283,4.441-29.039,7.197c-3.441,0.975-7.121,1.533-10.801,2.643
	c-1.703,0.512-3.547,1.254-5.52,1.438c0-0.16,0-0.32,0-0.479c-1.916-2.652-2.145-10.26-3.12-14.16
	c-2.235-8.934-2.167-19.334-4.32-28.319c-0.619-2.584-0.31-4.668-0.96-7.2c-1.477-5.742-2.775-11.513-4.32-17.039
	c-1.002-3.586-1.082-6.892-2.399-10.08c-2.187-5.297-5.626-10.146-7.92-15.359c-2.518-5.727-4.814-11.454-6.72-17.76
	c-2.915-9.647-2.699-21.228-6-30.24c-0.822-2.245-1.378-7.323-4.08-7.44c-1.129-0.686-2.75-0.509-4.08-0.959
	c-2.456-0.834-9.07-4.053-9.84-6.239c1.2-1.279,2.4-2.563,3.6-3.84c1.428-1.076,3.074-2.199,4.56-3.121
	c2.8-1.733,8.199-3.326,10.08-5.761c0.654,0.41,0.6,0.609,1.68,0.722c-0.129-0.828-0.269-0.748-0.48-1.439
	c2.324-1.571,4.24-3.879,5.52-6.479c0.868-1.765,0.068-3.672,2.64-3.841c1.078-0.679,4.447-0.729,5.76-0.239
	c5.434,2.021,13.799,1.022,20.16,2.398c3.199,0.16,6.4,0.32,9.6,0.479c6.469,1.396,16.838,1.438,23.04,0
	c2.312-0.533,4.487-0.133,6.48-0.959c1.565-0.649,3.487-2.426,4.319-3.84c0.484-0.823,0.176-2.346,0.961-2.881
	c1.297-0.796,3.922,0.385,5.039,0.72c4.213,1.263,8.707,2.672,13.681,2.64c4.505-0.03,7.388-2.786,10.079-4.8
	c1.543-1.153,2.729-4.072,6.24-3.12c2.254,0.611,3.373,2.238,5.04,3.36c0,0.08,0,0.16,0,0.24c-0.08,0-0.159,0-0.239,0
	c-1.471,2.375-3.373,4.724-4.561,7.44c-1,2.291-1.507,4.586-2.88,6.48c-0.962,1.324-3.642,1.771-4.319,2.879
	c2.09,2.056,3.354,4.713,5.76,6.479c4.371,3.209,10.034,5.938,13.2,10.318c1.252,1.734,0.381,2.597,0.959,5.039
	c0.475,2.004,1.174,4.142,2.16,5.763c2.061,3.381,4.955,6.577,7.682,9.358c1.279,1.199,2.559,2.399,3.84,3.602
	c2.941,3.917,6.354,7.706,10.562,10.318c2.846,1.771,6.063,2.75,9.84,3.602c3.018,0.68,7.387-1.475,8.641-0.96
	c6.242,1.983,2.89,14.249,1.681,19.681c-0.574,2.582,0.264,5.688,0.479,7.682c-1.268,0.416-1.578,1.341-2.4,2.16
	c0.021,0.797,0.117,1.086,0.24,1.68c0.924,0.248,3.943,1.332,4.318,2.16c0,0.879,0,1.76,0,2.64c1.477,2.201,0.646,3.772,3.602,5.04
	C356.279,360.332,362.688,358.903,363.421,363.701z"/>
<text transform="matrix(1 0 0 1 97.4409 318.9375)" font-family="'MyriadPro-Regular'" font-size="12">Faouar</text>
<text transform="matrix(1 0 0 1 102.2993 494.8066)" font-family="'MyriadPro-Regular'" font-size="24">Gouvernorat de Kbili</text>
<text transform="matrix(1 0 0 1 230.4409 326.9375)" font-family="'MyriadPro-Regular'" font-size="12">Douz</text>
<text transform="matrix(1 0 0 1 153.4409 182.9375)" font-family="'MyriadPro-Regular'" font-size="12">Souk Lahad</text>
<text transform="matrix(1 0 0 1 193.4409 221.9375)" font-family="'MyriadPro-Regular'" font-size="12">Kbili Nord</text>
<text transform="matrix(1 0 0 1 193.4409 248.9375)" font-family="'MyriadPro-Regular'" font-size="12">Kbili Sud</text>
</svg>
