<?xml version="1.0" encoding="utf-8"?>
<!-- Generator: Adobe Illustrator 13.0.0, SVG Export Plug-In . SVG Version: 6.00 Build 14948)  -->
<!DOCTYPE svg PUBLIC "-//W3C//DTD SVG 1.0//EN" "http://www.w3.org/TR/2001/REC-SVG-20010904/DTD/svg10.dtd">
<svg version="1.0" id="Calque_1" xmlns="http://www.w3.org/2000/svg" xmlns:xlink="http://www.w3.org/1999/xlink" x="0px" y="0px"
	 width="585.587px" height="548.995px" viewBox="0 0 585.587 548.995" enable-background="new 0 0 585.587 548.995"
	 xml:space="preserve">
<g id="XMLID_2_">
	<g>
		<g id="XMLID_1_">
			<g>
				<polygon fill="#84B93C" points="558.167,106.72 558.037,106.81 557.907,106.83 557.747,106.72 557.527,106.34 557.396,106.25 
					557.257,105.81 557.077,105.48 557.137,105.26 557.137,104.98 557.137,104.92 557.277,104.77 557.447,104.45 557.517,104.21 
					557.487,103.34 557.517,103.16 557.437,102.64 557.487,102.43 557.517,102.31 557.437,101.81 557.497,101.71 557.646,101.64 
					557.827,101.56 558.367,101.44 558.617,101.35 559.227,101.41 559.557,101.5 560.367,101.84 560.747,101.93 561.537,101.93 
					561.967,102.08 562.037,101.87 561.987,101.68 561.987,101.54 562.146,101.56 562.197,101.56 562.387,101.73 562.877,102.33 
					563.187,102.58 564.157,103.27 564.777,103.29 564.987,103.3 565.157,103.39 565.237,103.54 565.117,103.78 565.177,103.89 
					565.327,104.2 565.247,104.29 565.177,104.29 565.027,104.14 564.987,104.2 565.037,104.31 565.197,104.38 565.237,104.45 
					565.237,104.66 565.197,104.71 564.947,104.7 564.577,104.87 564.277,105.22 564.217,105.29 563.537,105.56 563.527,105.58 
					563.447,105.61 563.287,105.77 563.137,106.1 563.037,106.62 563.017,107.21 562.896,107.35 562.867,107.18 562.827,106.95 
					562.877,106.46 562.787,106.25 562.697,106.15 562.537,106.23 562.387,106.42 562.117,107.02 561.937,107.09 561.937,107.11 
					561.657,107.38 561.327,107.51 561.077,107.74 561.007,107.86 560.867,108.74 560.737,108.66 560.497,108.02 560.517,107.84 
					560.657,107.6 560.747,107.42 560.646,107.23 560.517,106.99 559.617,105.92 559.447,105.87 559.207,105.85 559.077,105.89 
					558.867,106.08 558.727,106.14 558.577,106.23 558.497,106.52 558.497,106.81 				"/>
				<polygon fill="#84B93C" points="534.277,119.65 533.997,119.33 533.187,118.37 533.347,118.34 534.247,118.46 534.606,118.46 
					535.827,118.1 536.167,118.04 536.727,118.08 537.267,118.16 537.896,118.16 538.117,118.12 538.827,117.79 539.606,117.62 
					540.617,117.43 541.117,117.22 541.447,116.98 541.896,116.58 542.657,115.79 543.117,115.42 543.427,115.23 543.667,115.09 
					544.117,114.89 544.537,114.73 545.707,114.39 546.157,114.31 546.307,114.24 546.577,113.66 546.606,113.53 546.847,113.06 
					546.987,112.83 547.237,112.52 547.577,112.12 547.957,111.58 548.117,111.24 548.227,110.91 548.407,110.56 548.487,110.47 
					549.007,110.06 549.217,109.81 549.367,109.5 549.577,109.2 549.707,108.99 549.907,108.77 550.337,108.46 550.977,108.12 
					550.987,108.12 551.017,108.14 551.106,108.19 551.157,108.33 550.867,108.37 550.837,108.5 550.697,108.66 550.577,108.7 
					550.387,108.66 550.247,108.81 550.267,108.95 550.327,108.94 550.387,108.81 550.597,108.81 550.837,108.67 550.977,108.45 
					551.117,108.43 551.197,108.48 551.227,108.66 551.347,108.73 551.577,108.61 552.167,108.29 552.667,108.28 553.117,108.17 
					553.106,108.31 553.057,108.62 553.127,108.68 553.407,108.73 553.437,108.83 553.747,108.66 553.717,108.59 553.477,108.62 
					553.297,108.59 553.177,108.49 553.177,108.45 553.177,108.34 553.227,108.26 553.247,108.19 553.407,108.08 553.827,107.96 
					554.277,107.73 554.396,107.73 555.007,107.53 555.247,107.41 555.367,107.26 555.827,106.93 555.917,106.89 556.197,106.75 
					556.457,106.62 556.767,106.57 556.957,106.64 557.227,106.83 557.417,107.08 557.467,107.23 557.447,107.42 557.277,108.2 
					557.106,108.54 557.167,108.91 557.187,109.09 557.207,109.24 557.157,109.51 557.037,109.72 556.927,110.08 556.827,110.26 
					556.567,110.38 556.367,110.58 556.117,110.7 556.017,110.8 555.947,111.02 555.967,111.07 555.987,111.26 556.037,111.43 
					556.117,111.56 556.227,111.73 556.247,111.79 556.337,111.94 556.387,112.1 556.327,112.36 556.367,112.52 556.667,112.7 
					557.106,112.78 557.327,112.85 557.617,113.11 557.727,113.12 557.947,113.11 558.337,113.09 558.587,112.95 559.127,112.66 
					559.287,112.66 559.537,112.46 559.717,112.42 559.767,112.39 560.017,112.16 560.646,112.01 560.867,111.88 561.127,111.83 
					561.757,111.64 561.917,111.55 562.317,110.95 562.367,110.71 562.337,110.49 562.327,110.45 562.207,110.2 562.037,110.04 
					561.987,109.85 561.727,109.63 561.537,109.62 561.497,109.52 561.547,109.29 561.737,109.12 562.197,108.94 562.327,108.85 
					562.437,108.77 562.537,108.77 562.557,108.77 562.977,108.92 563.396,108.91 563.467,108.82 563.367,108.66 563.367,108.54 
					563.487,108.52 563.606,108.67 563.977,108.67 564.537,109.03 564.867,109.03 565.227,109.31 565.387,109.54 565.697,109.84 
					565.877,110.08 566.197,110.49 566.417,110.98 566.606,111.49 566.646,112.64 566.396,112.96 566.287,113.31 566.077,114.02 
					566.017,114.2 566.037,114.25 566.077,114.41 566.277,114.67 566.347,115.14 566.577,115.54 566.677,115.85 566.677,116.08 
					566.587,116.2 566.527,116.45 566.657,116.41 566.677,116.39 566.957,116.16 567.217,116.2 567.617,116.54 567.807,116.83 
					567.907,117.1 567.937,117.19 568.117,117.29 568.597,117.55 568.896,117.66 569.137,117.73 569.277,117.85 569.587,117.94 
					569.947,118.18 570.487,118.41 570.757,118.6 570.807,118.69 570.737,118.76 570.577,118.76 570.337,118.64 569.367,118.16 
					568.787,118.04 568.617,117.94 568.106,117.77 567.657,117.55 567.327,117.54 567.127,117.67 567.007,117.62 566.856,117.79 
					566.837,118.01 566.747,118.15 566.737,118.33 566.787,118.5 566.997,118.7 567.237,119.08 567.396,119.14 567.617,119.35 
					567.667,119.54 567.827,119.81 567.847,120.08 567.847,120.2 568.057,120.61 568.227,120.74 568.387,120.76 568.527,120.66 
					568.687,120.7 568.977,120.68 569.037,120.68 569.367,120.76 570.287,120.77 570.907,121 570.947,121 572.407,121.36 
					572.627,121.36 572.727,121.41 572.977,121.42 573.077,121.36 573.187,121.24 573.327,121.23 573.567,121.41 573.807,121.5 
					574.337,121.48 574.457,121.34 574.447,121.21 574.457,121.15 574.497,121.08 574.027,120.79 573.877,120.68 573.517,120.5 
					572.237,119.45 572.037,119.27 571.646,119.11 571.627,119.05 571.737,119.04 571.927,119.08 572.447,119.44 573.567,120.35 
					573.896,120.58 573.937,120.59 575.797,121.57 576.237,121.7 576.727,121.79 577.106,121.79 577.267,121.76 577.127,122.12 
					577.157,122.35 577.157,122.37 577.117,122.53 576.907,123.26 576.587,123.82 576.447,124.06 576.377,124.33 576.367,124.39 
					576.307,124.95 576.287,125.06 576.247,126.07 576.187,126.28 576.356,126.4 576.396,126.74 576.077,127.09 575.947,127.6 
					575.767,128.33 575.747,128.38 575.407,129.43 575.587,129.85 575.856,130.81 575.697,131.29 575.617,131.68 575.577,131.86 
					575.407,132.91 575.407,132.95 575.487,133.27 575.487,133.29 575.617,133.87 575.646,134.26 575.537,135.13 575.407,135.68 
					575.437,136 575.447,136.04 575.537,136.36 575.867,137.18 576.157,137.47 576.427,137.58 576.687,137.81 576.896,138.07 
					576.947,138.16 577.237,138.54 577.537,138.77 577.837,139.23 578.047,139.69 577.356,141.04 577.127,141.48 576.407,142.89 
					576.337,143.04 576.277,143.08 575.287,143.79 574.877,144.08 574.787,144.2 574.457,144.34 573.867,144.4 573.077,144.94 
					572.447,145.27 572.187,145.37 571.697,145.46 571.207,145.66 568.777,146.45 568.527,146.54 568.117,146.71 568.367,146.18 
					568.597,145.79 569.487,144.17 569.977,143.6 570.197,143.38 570.606,143.08 570.947,142.84 571.317,142.64 571.787,142.45 
					572.467,142.24 572.677,142.14 572.957,141.97 573.457,141.64 573.827,141.33 574.077,141.02 574.207,140.8 574.177,140.64 
					574.077,140.56 573.847,140.56 573.237,140.7 573.037,140.71 572.737,140.65 572.467,140.49 572.157,140.27 571.387,139.7 
					570.267,138.62 569.517,137.95 567.827,136.66 567.157,136.23 566.187,135.41 566.077,135.29 566.047,135.17 566.067,135.07 
					566.137,134.74 566.277,134.33 566.327,134.09 566.347,133.87 566.317,133.08 566.237,131.79 566.237,131.35 566.277,131.12 
					566.317,130.93 566.396,130.72 566.677,130 566.797,129.55 566.856,129.08 566.827,128.91 566.737,128.62 566.577,128.41 
					566.377,128.29 566.087,128.18 565.867,128.05 565.157,127.41 564.827,127.14 564.637,126.94 564.396,126.61 564.307,126.37 
					564.247,126.02 564.007,125.12 563.887,124.93 563.697,124.76 563.377,124.6 561.997,124.04 560.657,123.35 559.537,122.84 
					559.117,122.7 558.197,122.23 557.517,121.9 556.957,121.7 556.567,121.6 556.057,121.54 555.577,121.51 555.307,121.46 
					554.977,121.37 554.657,121.21 554.407,121.03 554.317,120.92 554.197,120.73 554.167,120.62 554.287,120.43 554.517,120.39 
					554.707,120.41 554.917,120.4 554.917,120.31 554.867,120.12 554.907,119.91 555.117,119.62 555.167,119.51 555.187,119.42 
					555.187,119.33 555.117,119.21 555.007,119.16 554.917,119.14 554.707,119.18 554.087,119.41 553.747,119.5 553.457,119.51 
					552.477,119.33 552.146,119.32 551.837,119.33 551.617,119.39 551.307,119.53 550.447,120 549.896,120.26 549.477,120.43 
					548.787,120.62 548.307,120.77 548.067,120.88 547.767,121.03 547.177,121.42 546.657,121.58 546.097,121.74 545.797,121.84 
					545.587,121.98 545.377,122.14 545.307,122.23 545.077,122.56 544.987,122.62 544.867,122.65 544.646,122.64 543.817,122.44 
					543.217,122.33 542.887,122.32 542.677,122.35 542.467,122.42 542.367,122.5 542.237,122.6 541.977,122.91 541.557,123.52 
					541.407,123.7 540.967,123.92 540.197,124.2 538.947,124.41 538.157,124.42 537.637,124.39 537.396,124.42 537.267,124.37 
					537.606,123.61 537.667,123.4 537.697,123.2 537.687,121.93 537.707,121.62 537.697,121.09 537.667,120.91 537.567,120.68 
					537.487,120.59 537.377,120.5 537.247,120.43 537.157,120.39 536.856,120.37 536.207,120.46 535.977,120.45 535.837,120.43 
					535.297,120.26 534.817,120.07 534.587,119.92 				"/>
			</g>
			<g>
				<polygon fill="none" stroke="#666666" stroke-width="0.25" stroke-linejoin="round" stroke-miterlimit="3.8637" points="
					513.867,0.25 513.947,0.27 514.087,0.41 514.267,0.54 514.287,0.7 514.117,0.88 514.027,0.91 513.817,0.82 513.157,1.02 
					512.907,0.95 512.856,0.88 512.887,0.77 513.237,0.55 513.606,0.52 513.697,0.47 513.757,0.33 				"/>
				<polygon fill="none" stroke="#666666" stroke-width="0.25" stroke-linejoin="round" stroke-miterlimit="3.8637" points="
					534.327,9.28 534.327,9.14 534.487,8.85 534.606,8.72 534.757,8.71 534.707,8.98 534.606,9.14 				"/>
				<polygon fill="none" stroke="#666666" stroke-width="0.25" stroke-linejoin="round" stroke-miterlimit="3.8637" points="
					558.707,11.95 558.637,11.91 558.657,11.7 558.827,11.56 558.867,11.39 558.997,11.35 559.106,11.6 559.317,11.87 
					559.207,11.95 				"/>
				<polygon fill="none" stroke="#666666" stroke-width="0.25" stroke-linejoin="round" stroke-miterlimit="3.8637" points="
					560.727,12.2 560.747,12.29 560.677,12.35 560.587,12.29 560.617,12.22 				"/>
				<polygon fill="none" stroke="#666666" stroke-width="0.25" stroke-linejoin="round" stroke-miterlimit="3.8637" points="
					564.427,48.79 564.277,48.76 564.217,48.67 564.267,48.58 564.447,48.35 564.687,48.37 564.807,48.62 564.657,48.73 				"/>
				<polygon fill="none" stroke="#666666" stroke-width="0.25" stroke-linejoin="round" stroke-miterlimit="3.8637" points="
					563.977,49.52 563.787,49.3 563.867,49.21 563.997,49.25 564.037,49.35 				"/>
				<polygon fill="none" stroke="#666666" stroke-width="0.25" stroke-linejoin="round" stroke-miterlimit="3.8637" points="
					564.757,53.1 564.606,53 564.277,52.91 564.217,52.84 564.247,52.75 564.487,52.83 564.787,53.04 				"/>
				<polygon fill="none" stroke="#666666" stroke-width="0.25" stroke-linejoin="round" stroke-miterlimit="3.8637" points="
					571.267,75.76 571.127,75.71 571.087,75.6 571.037,75.47 571.157,75.45 571.356,75.66 571.717,75.82 571.567,75.88 
					571.387,75.87 				"/>
				<polygon fill="none" stroke="#666666" stroke-width="0.25" stroke-linejoin="round" stroke-miterlimit="3.8637" points="
					568.997,76.36 568.877,76.25 568.907,76.2 569.047,76.18 569.167,76.31 569.257,76.42 569.207,76.45 				"/>
				<polygon fill="none" stroke="#666666" stroke-width="0.25" stroke-linejoin="round" stroke-miterlimit="3.8637" points="
					571.057,77.24 571.027,77.27 570.827,77.16 570.727,77.04 570.727,76.96 570.807,76.95 570.847,77.06 				"/>
				<polygon fill="none" stroke="#666666" stroke-width="0.25" stroke-linejoin="round" stroke-miterlimit="3.8637" points="
					571.117,77.74 571.077,77.56 571.146,77.42 571.356,77.31 571.827,77.32 571.867,77.38 571.837,77.44 571.557,77.44 
					571.327,77.5 571.177,77.71 				"/>
				<polygon fill="none" stroke="#666666" stroke-width="0.25" stroke-linejoin="round" stroke-miterlimit="3.8637" points="
					567.737,78.13 567.707,78.07 567.667,77.92 567.687,77.92 567.707,77.83 567.867,77.87 567.896,77.41 567.807,77.29 
					567.847,77.24 568.037,77.33 568.077,77.58 568.146,77.66 568.557,77.81 568.896,77.79 569.087,77.89 569.137,77.86 
					569.106,77.75 569.067,77.65 569.227,77.58 569.167,77.39 569.207,77.08 569.087,76.96 568.987,76.84 568.947,76.78 
					568.947,76.67 569.167,76.69 569.207,76.66 569.557,76.36 569.517,76.2 569.487,76.04 569.627,75.87 569.557,75.79 
					569.537,75.68 569.646,75.56 569.646,75.45 569.817,75.5 570.007,75.6 570.167,75.88 570.217,75.97 570.237,76.03 
					570.307,76.12 570.367,76.12 570.427,76.06 570.427,75.89 570.267,75.81 570.327,75.7 570.427,75.71 570.637,75.89 
					570.896,75.89 571.356,76.15 571.327,76.22 571.157,76.22 571.017,76.1 570.896,76.1 570.707,76.21 570.727,76.35 
					570.667,76.37 570.617,76.45 570.667,76.52 570.667,76.67 570.697,76.74 570.606,76.81 570.477,76.85 570.377,76.77 
					570.367,76.99 570.377,77.17 570.727,77.41 570.907,77.6 570.987,77.81 570.987,78.01 570.937,78.08 570.606,78.08 
					570.457,78.13 570.267,78.27 570.067,78.43 569.797,78.43 569.787,78.58 569.707,78.64 568.747,78.97 568.447,79.03 
					567.917,79.29 567.827,79.41 567.817,79.43 567.687,79.52 567.447,79.6 567.197,79.77 566.947,79.84 566.797,79.96 
					566.747,79.95 566.727,79.95 566.697,79.62 566.867,79.35 566.907,79.16 566.977,79 567.146,78.92 567.307,78.79 567.477,78.46 
					567.727,78.2 567.757,78.17 				"/>
				<polygon fill="none" stroke="#666666" stroke-width="0.25" stroke-linejoin="round" stroke-miterlimit="3.8637" points="
					564.127,80.95 564.007,80.93 563.787,80.81 563.487,80.56 563.077,80.38 562.977,80.32 563.307,79.97 563.347,79.93 
					563.517,79.85 564.707,79.79 564.877,79.89 565.087,79.79 565.417,79.79 565.837,79.78 565.977,79.87 566.347,79.89 
					566.557,79.95 566.537,80.08 566.537,80.16 566.497,80.18 566.187,80.24 565.627,80.65 565.106,81.17 564.967,81.17 
					564.867,81.24 564.847,81.37 564.807,81.4 564.497,81.07 564.367,80.98 				"/>
				<polygon fill="none" stroke="#666666" stroke-width="0.25" stroke-linejoin="round" stroke-miterlimit="3.8637" points="
					558.146,107.16 558.267,107.18 558.307,107.37 558.237,107.41 				"/>
				<polygon fill="none" stroke="#666666" stroke-width="0.25" stroke-linejoin="round" stroke-miterlimit="3.8637" points="
					561.657,107.38 561.327,107.51 561.077,107.74 561.007,107.86 560.867,108.74 560.737,108.66 560.497,108.02 560.517,107.84 
					560.657,107.6 560.747,107.42 560.646,107.23 560.517,106.99 559.617,105.92 559.447,105.87 559.207,105.85 559.077,105.89 
					558.867,106.08 558.727,106.14 558.577,106.23 558.497,106.52 558.497,106.81 558.167,106.72 558.037,106.81 557.907,106.83 
					557.747,106.72 557.527,106.34 557.396,106.25 557.257,105.81 557.077,105.48 557.137,105.26 557.137,104.98 557.137,104.92 
					557.277,104.77 557.447,104.45 557.517,104.21 557.487,103.34 557.517,103.16 557.437,102.64 557.487,102.43 557.517,102.31 
					557.437,101.81 557.497,101.71 557.646,101.64 557.827,101.56 558.367,101.44 558.617,101.35 559.227,101.41 559.557,101.5 
					560.367,101.84 560.747,101.93 561.537,101.93 561.967,102.08 562.037,101.87 561.987,101.68 561.987,101.54 562.146,101.56 
					562.197,101.56 562.387,101.73 562.877,102.33 563.187,102.58 564.157,103.27 564.777,103.29 564.987,103.3 565.157,103.39 
					565.237,103.54 565.117,103.78 565.177,103.89 565.327,104.2 565.247,104.29 565.177,104.29 565.027,104.14 564.987,104.2 
					565.037,104.31 565.197,104.38 565.237,104.45 565.237,104.66 565.197,104.71 564.947,104.7 564.577,104.87 564.277,105.22 
					564.217,105.29 563.537,105.56 563.527,105.58 563.447,105.61 563.287,105.77 563.137,106.1 563.037,106.62 563.017,107.21 
					562.896,107.35 562.867,107.18 562.827,106.95 562.877,106.46 562.787,106.25 562.697,106.15 562.537,106.23 562.387,106.42 
					562.117,107.02 561.937,107.09 561.937,107.11 				"/>
				<polygon fill="none" stroke="#666666" stroke-width="0.25" stroke-linejoin="round" stroke-miterlimit="3.8637" points="
					560.417,109.84 560.377,109.57 560.437,109.52 560.517,109.52 560.557,109.62 560.517,109.74 				"/>
				<polygon fill="none" stroke="#666666" stroke-width="0.25" stroke-linejoin="round" stroke-miterlimit="3.8637" points="
					558.917,112.06 559.037,112.23 559.057,112.34 558.917,112.52 558.847,112.48 558.877,112.34 558.847,112.18 558.807,112.1 
					558.807,112.04 				"/>
				<polygon fill="none" stroke="#666666" stroke-width="0.25" stroke-linejoin="round" stroke-miterlimit="3.8637" points="
					566.907,115.85 566.517,115.23 566.537,115.09 566.977,115.57 567.007,115.7 				"/>
				<polyline fill="none" stroke="#666666" stroke-width="0.25" stroke-linejoin="round" stroke-miterlimit="3.8637" points="
					471.827,16.84 472.207,16.46 472.567,16.18 472.787,15.89 473.077,15.45 473.207,14.86 473.167,14.58 472.977,14.39 
					472.896,14.24 472.337,13.96 472.087,13.77 471.937,13.74 471.817,13.62 				"/>
				<polyline fill="none" stroke="#666666" stroke-width="0.25" stroke-linejoin="round" stroke-miterlimit="3.8637" points="
					471.827,13.03 472.127,12.82 472.407,12.89 472.627,12.89 472.987,13 473.167,13.15 473.407,13.22 473.407,13.24 473.487,13.35 
					473.677,13.35 473.797,13.29 473.887,13.15 473.856,13.04 474.146,13 474.337,13.09 474.807,13.31 475.027,13.39 475.267,13.37 
					475.617,13.22 475.856,13.24 475.977,13.12 475.957,12.94 476.117,12.91 476.187,12.85 476.327,12.88 476.417,12.97 476.537,13 
					476.437,13.24 476.277,13.43 476.287,13.56 476.487,13.77 476.617,13.83 476.737,13.89 476.887,14.06 477.037,14.1 
					477.447,14.06 477.787,13.96 478.227,13.91 478.457,13.93 478.767,14.04 479.077,14.05 479.227,14.11 479.517,14.35 
					479.737,14.65 479.907,14.79 480.277,15.06 480.396,15.34 481.407,16.02 481.747,16.15 482.077,16.21 482.237,16.16 
					482.517,16.18 482.787,15.92 482.837,15.81 482.907,15.83 482.867,15.91 482.977,16.03 483.237,16.08 483.327,15.99 483.407,16 
					483.487,16.14 483.707,16.29 483.827,16.22 483.907,16.22 483.947,16.54 484.017,16.62 484.177,16.58 484.407,16.48 
					485.227,16.42 485.517,16.36 485.577,16.3 485.737,16.14 485.867,16.08 486.007,16.08 486.097,16.14 486.097,16.22 
					485.887,16.42 485.856,16.58 485.697,16.67 485.447,17.18 485.467,17.31 485.827,17.81 485.856,17.92 485.727,18.1 
					485.447,18.5 485.447,18.62 485.657,18.81 485.997,19.1 486.247,19.27 487.567,19.62 488.697,19.62 489.587,19.5 489.737,19.51 
					489.937,19.63 489.987,19.48 490.437,19.29 491.997,18.87 492.687,18.47 493.177,18.33 493.337,18.25 493.537,18.14 
					494.207,17.71 494.856,17.49 495.237,17.26 495.657,17.06 495.917,16.87 496.237,16.83 496.527,16.63 496.646,16.6 
					496.687,16.6 496.856,16.58 496.927,16.7 496.947,16.96 497.037,17.02 497.447,17.08 497.537,17.14 497.557,17.23 
					497.517,17.38 497.577,17.44 497.997,17.56 498.757,17.49 499.017,17.42 499.227,17.42 499.317,17.47 499.657,17.45 
					499.687,17.44 499.907,17.39 500.117,17.54 500.767,17.53 500.947,17.66 501.197,18.01 501.517,18.06 501.737,17.96 
					501.877,17.98 502.037,18.07 502.237,18.02 502.407,18.06 502.577,17.96 503.087,17.92 503.407,17.87 503.737,17.71 
					504.007,17.54 504.356,17.41 504.396,17.39 504.407,17.39 505.627,17.06 505.807,16.87 505.896,16.87 506.077,17.02 
					506.467,16.97 506.646,16.83 				"/>
				<polyline fill="none" stroke="#666666" stroke-width="0.25" stroke-linejoin="round" stroke-miterlimit="3.8637" points="
					577.287,121.76 577.567,122 577.907,122.29 578.377,123.01 578.727,123.2 579.007,123.24 579.167,123.49 579.487,123.64 
					580.037,123.79 580.387,123.77 582.117,124.16 582.567,124.2 583.017,124.3 583.057,124.04 582.667,123.87 582.146,123.71 
					581.887,123.49 581.396,123.29 581.167,123.25 580.977,123.34 580.646,123.1 580.417,122.98 580.317,122.75 580.737,122.93 
					581.047,123.04 581.856,123.31 582.356,123.5 582.567,123.67 583.227,124 584.367,124.43 585.127,124.74 585.337,124.87 				"/>
				<polyline fill="none" stroke="#666666" stroke-width="0.25" stroke-linejoin="round" stroke-miterlimit="3.8637" points="
					544.177,11.98 544.227,11.96 544.356,11.64 544.287,11.38 544.327,11.24 544.447,11.32 544.507,11.66 544.567,11.77 
					544.567,11.79 544.747,11.95 545.197,12.17 545.237,12.27 545.277,12.47 545.167,12.66 544.997,12.68 544.896,12.66 
					544.877,12.6 544.987,12.43 544.957,12.35 544.787,12.28 544.717,12.27 544.457,12.35 544.077,12.41 543.967,12.55 
					544.017,12.6 544.087,12.6 544.247,12.5 544.017,12.89 543.757,13.56 543.777,13.97 543.637,13.84 543.547,13.87 543.697,14.08 
					543.617,14.16 543.667,14.2 543.757,14.17 543.827,14.21 543.947,14.53 543.947,14.59 543.987,14.81 544.297,15.5 
					544.737,16.06 545.646,16.85 546.157,17.21 546.247,17.24 546.447,17.33 546.457,17.33 547.037,17.45 547.146,17.54 
					547.237,17.68 547.177,17.8 547.157,17.83 547.237,18.1 547.337,18.25 547.477,18.33 547.567,18.37 547.617,18.4 547.717,18.47 
					548.037,18.7 548.067,18.83 548.047,18.94 547.777,19 547.617,19.27 547.417,19.43 547.407,19.64 546.937,20.29 546.877,20.47 
					546.657,20.52 546.727,20.65 546.477,20.74 546.377,20.83 546.337,21.01 546.606,21.5 546.587,21.56 546.967,22 547.297,22.41 
					547.497,22.54 547.657,22.66 548.167,22.91 548.367,22.99 548.407,23 548.817,23.11 549.217,23.14 549.447,23.11 549.727,23.06 
					549.967,23.02 550.627,22.78 550.987,22.57 551.087,22.69 550.977,22.84 551.017,22.91 551.187,22.89 551.287,22.79 
					551.117,22.54 551.157,22.5 552.307,22.06 552.567,21.87 552.697,21.68 552.827,21.25 553.037,20.83 553.117,20.33 
					553.247,20.06 553.297,19.69 553.356,19.51 553.577,19.42 553.627,19.3 553.597,19.06 553.977,18.95 554.227,18.74 
					554.277,18.56 554.407,18.54 554.606,18.7 555.487,18.45 555.757,18.55 556.437,18.52 556.697,18.45 556.997,18.35 
					557.307,18.19 557.447,18.12 557.737,17.92 558.267,17.42 558.707,16.99 559.146,16.9 559.417,16.58 559.527,16.54 
					559.577,16.41 559.737,16.45 560.187,16.15 560.377,16 560.697,15.67 560.797,15.64 561.027,15.39 561.197,14.98 561.497,15.02 
					561.587,14.93 561.606,14.62 561.427,14.41 561.497,14.35 561.487,14.24 561.407,14.17 561.487,14.04 561.477,13.9 
					561.517,13.84 561.606,13.85 561.667,13.97 561.807,13.91 562.057,13.84 562.227,13.83 562.417,13.74 562.767,13.74 
					562.987,13.83 563.747,13.54 564.027,13.31 564.307,13.21 564.447,13.12 564.487,12.99 564.457,12.82 564.537,12.74 
					564.667,12.88 564.757,12.88 564.777,12.99 564.777,13.02 564.917,13.14 565.027,13.09 565.087,13.16 565.106,13.39 
					565.207,13.56 565.457,13.78 565.497,13.95 565.437,14.02 565.247,14 565.146,14.1 565.077,14.65 565.117,14.98 565.267,15.34 
					565.567,15.79 565.977,16.37 566.327,18.12 566.517,18.37 566.817,18.58 566.867,18.79 566.837,18.95 566.797,19.16 
					566.557,19.72 566.396,19.85 566.157,19.85 565.537,20.11 565.317,20.32 565.127,20.41 565.057,20.47 564.537,20.93 
					564.307,21.27 563.997,21.6 563.467,22.27 562.827,23.27 562.197,24.45 561.667,24.99 561.037,26.29 561.007,26.32 
					560.837,26.5 560.497,27.25 560.237,27.79 559.787,29.06 559.227,30.2 559.057,30.37 558.967,30.41 558.777,30.49 
					558.697,30.58 558.477,30.54 558.307,30.61 558.167,30.6 557.617,30.79 557.377,30.81 557.237,30.91 557.167,30.91 
					556.947,30.91 556.617,31.1 556.077,31.3 555.697,31.54 555.337,31.87 555.077,31.9 554.997,32 554.817,31.96 554.627,32.1 
					554.396,32.14 553.987,31.91 553.907,31.9 553.657,31.9 553.407,32.04 553.037,32.32 552.637,32.75 552.247,33.39 
					552.067,33.66 551.817,34.16 551.697,34.52 551.417,35.2 551.227,35.75 550.877,37.69 550.856,38.31 550.827,38.8 
					550.837,39.39 551.277,41.77 551.537,42.02 551.677,42.1 551.917,42.14 552.007,42.19 552.117,42.33 552.157,42.58 
					552.097,42.77 552.187,42.94 552.167,43.15 552.237,43.42 552.896,44.49 553.317,44.89 553.997,45.91 554.017,46.09 
					554.037,46.21 554.106,46.39 554.377,46.69 554.606,47.16 554.657,47.26 555.167,47.71 555.277,48.19 555.447,48.33 
					556.157,48.89 556.177,48.89 556.657,49.15 556.867,49.33 557.047,49.43 557.497,49.45 557.737,49.39 557.827,49.37 
					558.356,49.14 558.497,49.02 558.697,49.06 558.947,48.94 559.106,49.02 559.507,49.06 559.597,49.21 559.777,49.35 
					559.827,49.45 559.477,50.04 559.477,50.2 559.557,50.39 559.537,50.52 559.447,50.39 559.356,50.38 559.317,50.42 
					559.317,50.77 559.356,51.01 559.477,51.2 559.697,51.37 560.227,51.62 560.417,51.68 560.527,51.66 560.707,51.88 
					560.957,51.97 561.127,52.08 561.697,52.2 562.447,52.37 562.717,52.51 563.087,52.52 563.257,52.58 563.377,52.79 
					563.697,52.89 563.837,53.04 564.487,53.14 564.807,53.31 564.827,53.45 564.817,53.58 564.727,54.01 564.497,54.41 
					564.447,54.87 564.447,55.09 564.447,55.33 564.517,55.63 564.807,56.31 565.057,56.53 565.247,56.59 565.617,56.58 
					565.646,56.66 565.437,56.83 565.207,56.92 565.117,57.07 564.667,58.72 564.807,59.54 564.817,59.71 564.517,60.04 
					564.487,60.49 564.517,61 564.577,61.39 564.617,61.48 564.777,61.81 565.627,62.74 565.827,63 566.277,63.37 566.307,63.41 
					566.407,63.52 566.557,63.7 567.007,64.06 567.057,64.08 567.447,64.27 567.487,64.35 567.487,64.41 567.487,64.42 
					567.487,64.48 567.487,64.5 567.427,64.48 567.356,64.52 567.057,64.52 566.707,64.51 566.587,64.58 566.277,65.04 
					566.307,65.29 566.187,65.44 565.717,66.1 565.737,66.33 565.557,66.41 565.356,66.39 565.177,66.46 565.037,66.46 
					564.877,66.55 564.307,67.69 564.247,68 564.267,68.31 564.377,68.53 564.396,68.59 564.327,68.7 564.267,69.41 564.167,69.68 
					563.947,70.03 563.817,70.36 563.417,70.58 562.927,70.9 562.567,71.14 562.117,71.52 561.937,71.66 561.827,71.96 
					561.817,72.58 561.867,72.81 561.817,73.04 561.877,73.48 561.777,74 561.547,74.31 561.097,74.71 560.977,74.91 560.867,75.19 
					560.497,75.52 560.407,75.67 560.407,75.85 560.487,75.95 560.497,75.99 560.606,76.18 560.587,76.33 560.497,76.39 
					560.157,76.41 559.767,76.52 559.617,76.66 559.367,76.85 559.197,77.1 558.997,77.16 558.727,77.42 558.117,77.86 
					558.157,77.96 558.367,78.13 558.427,78.28 558.427,78.41 558.377,78.33 558.247,78.25 558.157,78.27 558.187,78.37 
					558.127,78.37 558.027,78.39 557.917,78.4 557.856,78.4 557.817,78.46 557.737,78.56 557.737,78.6 557.677,78.76 557.657,78.87 
					557.627,78.97 557.587,79.14 557.646,79.39 557.646,79.6 557.237,80.16 557.117,80.44 556.977,80.59 556.837,80.6 
					556.627,80.62 556.577,80.62 556.507,80.62 556.407,80.64 556.157,80.64 555.987,80.59 555.537,80.8 555.487,80.8 
					555.367,80.83 555.127,81 554.977,81.31 554.827,81.45 554.727,81.47 554.646,81.74 554.487,82.02 554.087,82.41 553.987,82.69 
					553.997,83.38 553.957,83.5 553.777,83.64 553.157,83.98 553.037,83.98 553.037,83.89 552.947,83.83 552.787,83.86 
					552.327,84.06 552.267,83.95 551.787,83.98 551.527,84.13 551.517,84.13 550.837,84.4 550.667,84.46 550.027,84.92 
					549.907,85.2 549.187,86.09 549.077,86.26 549.057,86.29 549.007,86.37 548.947,86.45 548.747,86.71 548.487,86.89 
					548.347,86.91 548.137,86.66 547.987,86.66 547.877,86.75 547.807,87 547.687,86.93 547.597,87.07 547.657,87.14 547.767,87.14 
					547.856,87.08 547.947,87.01 548.047,86.92 548.117,86.93 548.157,86.98 548.106,87.24 547.987,87.35 547.597,87.52 
					547.447,87.58 547.317,87.54 547.227,87.49 546.917,87.41 546.787,87.29 546.657,87.31 546.517,87.41 546.287,87.46 
					546.237,87.52 546.247,87.87 546.157,88.08 546.117,88.2 546.027,88.25 545.737,88.33 545.627,88.33 545.447,88.33 
					545.317,88.39 544.977,88.72 544.767,88.87 544.627,88.91 544.537,88.72 544.437,88.69 544.237,88.62 543.817,89.35 
					543.737,89.32 543.657,89.47 543.327,89.42 542.737,89.73 542.527,89.77 542.167,90.08 541.997,90.28 541.717,90.82 
					541.537,91.04 541.317,91.58 541.117,92.06 540.707,92.68 540.577,92.81 540.567,93.04 540.457,93.54 540.367,93.68 
					540.027,93.67 539.947,93.76 539.947,93.89 540.117,94.09 540.167,94.36 540.167,94.45 540.247,94.93 540.187,95.14 
					540.157,95.24 540.146,95.47 540.247,95.64 540.307,95.93 540.327,96.43 540.427,96.91 540.377,97.09 540.377,97.34 
					540.606,97.9 540.617,98.26 540.577,98.31 540.407,98.31 540.337,98.33 540.197,98.39 539.767,98.41 539.767,98.49 
					539.856,98.54 540.617,98.38 540.757,98.6 540.896,98.73 541.037,99 541.237,99.73 541.417,100.03 541.987,100.96 
					542.317,101.32 542.587,101.83 543.396,102.68 543.537,102.87 543.917,103.39 543.937,103.51 543.896,103.63 543.917,103.69 
					543.987,103.63 544.077,103.62 544.146,103.75 544.297,103.79 544.457,103.91 544.767,104.27 544.927,104.39 545.237,104.56 
					545.407,104.71 545.577,104.8 545.606,104.86 545.517,105.08 545.767,105 546.007,105.06 546.077,105.14 546.127,105.35 
					546.356,105.64 546.327,105.73 546.547,105.74 546.727,105.88 547.237,106.29 547.557,106.63 548.767,107.41 549.617,107.81 
					549.667,107.89 549.777,107.87 549.967,107.84 550.127,107.92 550.837,108.06 550.977,108.12 550.987,108.12 551.017,108.14 
					551.106,108.19 551.157,108.33 550.867,108.37 550.837,108.5 550.697,108.66 550.577,108.7 550.387,108.66 550.247,108.81 
					550.267,108.95 550.327,108.94 550.387,108.81 550.597,108.81 550.837,108.67 550.977,108.45 551.117,108.43 551.197,108.48 
					551.227,108.66 551.347,108.73 551.577,108.61 552.167,108.29 552.667,108.28 553.117,108.17 553.106,108.31 553.057,108.62 
					553.127,108.68 553.407,108.73 553.437,108.83 553.747,108.66 553.717,108.59 553.477,108.62 553.297,108.59 553.177,108.49 
					553.177,108.45 553.177,108.34 553.227,108.26 553.247,108.19 553.407,108.08 553.827,107.96 554.277,107.73 554.396,107.73 
					555.007,107.53 555.247,107.41 555.367,107.26 555.827,106.93 555.917,106.89 556.197,106.75 556.457,106.62 556.767,106.57 
					556.957,106.64 557.227,106.83 557.417,107.08 557.467,107.23 557.447,107.42 557.277,108.2 557.106,108.54 557.167,108.91 
					557.187,109.09 557.207,109.24 557.157,109.51 557.037,109.72 556.927,110.08 556.827,110.26 556.567,110.38 556.367,110.58 
					556.117,110.7 556.017,110.8 555.947,111.02 555.967,111.07 555.987,111.26 556.037,111.43 556.117,111.56 556.227,111.73 
					556.247,111.79 556.337,111.94 556.387,112.1 556.327,112.36 556.367,112.52 556.667,112.7 557.106,112.78 557.327,112.85 
					557.617,113.11 557.727,113.12 557.947,113.11 558.337,113.09 558.587,112.95 559.127,112.66 559.287,112.66 559.537,112.46 
					559.717,112.42 559.767,112.39 560.017,112.16 560.646,112.01 560.867,111.88 561.127,111.83 561.757,111.64 561.917,111.55 
					562.317,110.95 562.367,110.71 562.337,110.49 562.327,110.45 562.207,110.2 562.037,110.04 561.987,109.85 561.727,109.63 
					561.537,109.62 561.497,109.52 561.547,109.29 561.737,109.12 562.197,108.94 562.327,108.85 562.437,108.77 562.537,108.77 
					562.557,108.77 562.977,108.92 563.396,108.91 563.467,108.82 563.367,108.66 563.367,108.54 563.487,108.52 563.606,108.67 
					563.977,108.67 564.537,109.03 564.867,109.03 565.227,109.31 565.387,109.54 565.697,109.84 565.877,110.08 566.197,110.49 
					566.417,110.98 566.606,111.49 566.646,112.64 566.396,112.96 566.287,113.31 566.077,114.02 566.017,114.2 566.037,114.25 
					566.077,114.41 566.277,114.67 566.347,115.14 566.577,115.54 566.677,115.85 566.677,116.08 566.587,116.2 566.527,116.45 
					566.657,116.41 566.677,116.39 566.957,116.16 567.217,116.2 567.617,116.54 567.807,116.83 567.907,117.1 567.937,117.19 
					568.117,117.29 568.597,117.55 568.896,117.66 569.137,117.73 569.277,117.85 569.587,117.94 569.947,118.18 570.487,118.41 
					570.757,118.6 570.807,118.69 570.737,118.76 570.577,118.76 570.337,118.64 569.367,118.16 568.787,118.04 568.617,117.94 
					568.106,117.77 567.657,117.55 567.327,117.54 567.127,117.67 567.007,117.62 566.856,117.79 566.837,118.01 566.747,118.15 
					566.737,118.33 566.787,118.5 566.997,118.7 567.237,119.08 567.396,119.14 567.617,119.35 567.667,119.54 567.827,119.81 
					567.847,120.08 567.847,120.2 568.057,120.61 568.227,120.74 568.387,120.76 568.527,120.66 568.687,120.7 568.977,120.68 
					569.037,120.68 569.367,120.76 570.287,120.77 570.907,121 570.947,121 572.407,121.36 572.627,121.36 572.727,121.41 
					572.977,121.42 573.077,121.36 573.187,121.24 573.327,121.23 573.567,121.41 573.807,121.5 574.337,121.48 574.457,121.34 
					574.447,121.21 574.457,121.15 574.497,121.08 574.027,120.79 573.877,120.68 573.517,120.5 572.237,119.45 572.037,119.27 
					571.646,119.11 571.627,119.05 571.737,119.04 571.927,119.08 572.447,119.44 573.567,120.35 573.896,120.58 573.937,120.59 
					575.797,121.57 576.237,121.7 576.727,121.79 577.106,121.79 577.267,121.76 				"/>
				<polyline fill="none" stroke="#666666" stroke-width="0.25" stroke-linejoin="round" stroke-miterlimit="3.8637" points="
					506.657,16.83 507.487,16.43 508.117,16.24 508.207,16.09 508.297,16.09 508.356,16.24 508.657,16.22 508.837,16.16 
					508.947,16.08 509.047,16.09 509.227,16.25 509.396,16.2 509.517,16.3 509.697,16.57 510.097,16.48 510.667,16.25 
					511.087,15.97 511.337,15.82 511.856,15.55 512.557,15 512.747,14.81 513.356,14.26 513.817,13.83 514.077,13.58 514.497,13.1 
					514.537,12.89 514.877,12.4 514.867,12.35 514.747,12.37 514.747,12.27 515.087,12.1 515.287,12.01 515.417,11.83 
					515.707,11.65 515.907,11.44 516.077,11.37 516.157,11.24 516.497,11.05 516.817,10.97 517.237,10.78 517.247,10.78 
					517.557,10.77 518.237,10.63 518.347,10.54 518.487,10.43 518.957,10.18 519.146,10.04 519.267,9.82 519.537,9.56 519.807,9.08 
					520.017,8.86 520.356,8.72 520.457,8.6 520.577,8.59 520.777,9.13 520.856,9.17 521.047,9.17 521.527,9.19 521.646,9.1 
					521.957,9.08 522.457,8.83 522.587,8.86 523.247,8.85 523.557,8.77 523.687,8.7 524.557,8.23 524.707,8.12 524.797,7.96 
					525.067,7.91 525.247,7.84 525.337,7.79 525.807,7.81 526.247,7.97 526.627,7.95 527.106,7.75 528.337,6.95 528.617,6.82 
					528.777,6.82 528.867,6.85 529.117,7.12 529.317,7.14 529.417,7.06 529.827,6.94 530.137,6.79 530.617,6.46 531.127,6 
					531.337,6 531.497,5.89 531.577,5.89 531.657,5.98 531.827,6 531.987,5.91 532.146,5.98 532.527,6.01 532.896,5.87 
					533.257,5.68 533.407,5.7 533.557,5.65 533.646,5.92 533.817,6.07 534.027,6.16 534.237,6.2 534.606,6.2 534.907,6.1 
					535.207,6.01 535.507,6.01 535.747,6.07 536.187,6.06 536.317,6.88 536.437,7.09 536.407,7.29 536.517,7.42 536.497,7.54 
					536.497,7.75 536.487,7.75 536.396,7.83 536.367,7.85 536.237,7.95 536.227,7.96 535.987,7.95 535.877,8 536.017,8.14 
					535.657,8.27 535.527,8.39 535.407,8.37 535.317,8.37 535.247,8.45 535.087,8.53 535.087,8.64 534.917,8.54 534.777,8.54 
					534.457,8.66 534.237,8.65 534.127,8.64 534.146,8.72 534.167,8.93 534.127,9.1 534.077,9.12 533.907,8.98 533.887,8.98 
					533.737,9.13 533.817,9.25 533.827,9.25 533.887,9.25 534.007,9.34 534.117,9.6 534.237,9.52 534.356,9.54 534.356,9.62 
					534.217,10.08 534.237,10.24 534.307,10.36 534.697,10.48 534.727,10.58 534.896,10.66 534.817,11 534.847,11.17 534.937,11.27 
					535.267,11.38 535.577,11.42 535.867,11.41 536.037,11.47 536.277,11.5 536.377,11.45 536.587,11.23 536.856,11 537.117,10.96 
					537.367,10.74 537.687,10.24 537.827,9.91 537.877,9.64 537.847,9.4 537.737,9.12 537.606,9.04 537.027,9.02 536.697,8.98 
					536.227,8.81 536.067,8.85 535.856,8.96 535.667,9.01 535.407,9.01 535.337,9 535.237,8.95 535.247,8.86 535.527,8.77 
					535.617,8.54 535.657,8.5 536.017,8.41 536.197,8.27 536.347,8.05 536.447,7.93 536.557,7.83 536.617,7.78 536.817,7.83 
					536.867,7.91 537.117,8.06 537.367,8.16 538.057,8.31 538.157,8.32 538.717,8.37 539.447,8.38 539.517,8.38 539.617,8.37 
					539.937,8.32 540.327,8.05 540.817,7.93 540.937,7.83 541.057,7.85 541.157,8.1 541.477,8.41 541.667,8.62 542.277,8.62 
					542.947,8.85 543.687,9.31 544.117,9.46 544.267,9.6 544.407,9.64 544.557,9.77 544.527,9.95 544.597,10 544.617,10.02 
					544.927,10.12 545.317,10.16 545.797,10.18 546.187,10.14 546.247,10.21 546.217,10.31 546.077,10.37 545.817,10.37 
					545.707,10.43 545.467,10.63 545.396,10.77 544.597,11.2 544.507,11.18 544.497,11.1 544.567,11.04 544.747,11 544.837,10.9 
					544.856,10.67 544.807,10.62 544.687,10.54 543.187,10.63 542.977,10.78 542.827,11.12 542.646,11.26 542.707,11.27 
					542.957,11.59 543.146,11.68 543.637,11.71 543.807,11.47 543.907,11.5 543.967,11.6 543.877,11.8 544.077,11.87 544.146,11.98 
					544.157,11.98 				"/>
				<polyline fill="none" stroke="#666666" stroke-width="0.25" stroke-linejoin="round" stroke-miterlimit="3.8637" points="
					529.197,203.09 529.017,202.41 528.987,202.25 528.917,202.04 528.157,198.68 528.157,198.64 527.697,196.48 527.527,196.08 
					525.027,185 524.517,182.81 524.447,182.71 523.977,180.68 523.987,180.58 522.727,175.29 521.587,170.44 521.557,170.04 
					520.057,163.98 519.877,163.23 519.877,163.09 519.657,162.17 519.487,161.21 519.477,161.17 518.907,159.08 518.697,157.89 
					518.646,157.76 518.606,157.66 518.417,154.23 517.227,151.91 517.027,151.54 499.687,139.9 499.617,139.48 499.146,136.42 
					499.027,135.59 499.027,132.92 499.027,131.75 498.907,131.54 493.997,123.81 493.927,123.68 492.427,123.71 488.646,121.56 
					486.637,121.64 484.867,119.51 484.827,119.47 484.957,114.61 484.957,114.56 483.807,112.87 482.997,111.68 481.987,109.84 
					481.507,108.97 481.577,107.62 481.527,107.27 481.227,106.95 481.037,106.6 480.947,106.41 480.896,105.95 481.027,105.48 
					481.027,105.33 480.587,104.92 480.097,104.6 479.867,104.42 479.867,104.37 479.837,104.06 479.867,103.95 480.027,103.7 
					480.127,103.37 480.146,103 480.097,102.62 479.657,101.38 479.727,101.12 480.037,100.34 480.057,100.29 480.057,99.87 
					479.957,99.35 480.277,98.44 480.287,98.18 480.037,97.41 480.167,97.09 480.217,97 480.237,96.99 480.356,96.87 480.617,96.59 
					481.077,96.48 481.457,96.08 481.747,95.64 481.767,95.49 481.867,94.36 481.907,94.21 482.067,93.79 482.367,93.22 
					484.117,92.93 484.507,92.91 484.877,92.89 485.537,92.83 486.277,92.79 486.447,92.71 486.407,92.41 486.457,92.09 
					486.396,91.98 486.937,90.91 486.947,90.85 487.087,90.26 487.227,89.71 487.356,89.32 487.507,88.27 487.477,87.4 
					487.477,87.35 487.717,87.29 488.277,87.25 489.187,87.06 489.217,87.02 489.277,86.95 489.867,86.38 490.127,86.18 
					490.387,86.05 490.697,85.99 490.827,85.96 491.106,85.95 491.817,85.27 491.977,85.12 492.037,85.06 492.687,84.83 
					492.777,84.83 492.877,84.58 493.037,84.35 493.267,84.35 493.646,84.43 493.667,84.43 493.777,84.43 493.827,84.45 
					493.907,84.22 493.927,84.2 494.157,83.87 494.827,83.65 494.947,83.41 495.077,83.38 495.307,82.74 495.497,82.66 
					495.567,82.69 495.637,82.67 496.127,82.64 496.177,82.62 496.287,82.56 496.337,82.31 496.267,82.12 496.327,81.91 
					496.717,81.7 497.207,81.64 497.327,81.37 497.167,80.96 497.497,80.66 497.517,80.39 497.317,80.06 497.087,79.69 
					497.227,79.25 497.827,78.56 498.267,78.37 498.697,78.46 498.727,78.22 498.707,78.22 498.697,78.2 498.307,77.75 
					498.157,77.6 498.027,77.29 498.197,77.06 498.197,77.05 498.187,77.04 498.077,76.85 498.067,76.78 498.037,76.57 
					498.037,76.56 498.067,76.21 498.067,76.2 498.007,75.85 498.057,75.71 497.917,75.31 497.907,75.06 497.787,74.86 
					497.727,74.59 497.707,74.5 497.707,74.49 497.697,74.39 497.657,74.35 497.587,74.24 497.487,74.08 498.007,72.64 
					498.367,72.22 498.587,71.87 498.657,71.7 498.687,71.56 498.787,71.21 498.807,70.9 498.807,70.78 498.877,70.24 
					499.037,69.95 499.197,69.62 499.627,68.37 499.737,68.2 500.197,67.91 500.606,67.51 500.867,67 501.117,66.68 501.277,66.08 
					501.356,65.87 501.567,65.47 501.617,65.37 501.877,64.93 502.577,64.18 502.567,64.06 502.527,64.04 501.817,64.2 
					501.427,64.21 500.997,64.04 500.787,63.92 500.577,63.81 500.087,63.46 499.127,63 499.057,62.86 498.967,62.81 498.947,62.66 
					498.847,61.96 498.827,61.39 498.827,60.89 498.907,59.85 498.987,59.42 499.457,58.25 499.737,58.12 499.787,58.1 
					500.467,57.76 500.396,57.37 500.197,57.12 500.067,57.06 499.947,56.64 499.867,55.77 499.867,55.66 499.867,55.56 
					499.877,55.42 499.777,54.92 499.646,53.85 499.697,53.59 499.767,53.41 499.837,52.83 499.737,52.43 499.667,52.31 
					499.577,52.18 499.387,52.03 498.497,51.49 497.677,50.54 497.417,50.05 497.317,49.72 497.327,49.52 497.487,49.21 
					497.577,48.91 497.617,48.71 497.727,48.19 497.737,47.52 497.577,46.9 497.606,46.69 497.627,46.51 497.627,46.48 
					497.707,46.31 497.727,46.27 497.957,45.77 498.157,45.24 498.167,45.19 498.167,45.17 498.187,45.16 498.396,44.83 
					498.407,44.8 498.407,44.79 498.396,44.75 498.217,44.33 498.217,44.27 498.217,44.18 498.217,44.1 498.267,43.41 
					498.356,42.97 498.377,42.82 498.327,42.29 498.427,42.02 498.757,41.41 498.817,41.31 498.987,40.67 499.437,40.25 
					499.527,40.29 499.617,40.31 499.567,40.21 499.367,39.92 499.356,39.88 499.367,39.4 499.337,39.25 499.237,39.16 
					499.037,39.04 498.667,38.6 498.667,38.54 498.657,38.47 498.637,38.44 498.667,38.32 499.037,37.91 499.207,37.7 
					499.327,37.39 499.497,37.15 499.557,37.06 499.577,36.99 499.627,36.91 499.627,36.88 499.617,36.2 499.477,35.45 
					499.877,35.05 500.137,34.87 500.467,34.77 500.557,34.62 500.557,34.54 500.437,34.42 500.227,34.12 500.197,34.09 
					500.207,33.61 500.396,33.25 500.417,33.19 500.617,33.02 500.606,32.77 500.396,32.27 500.867,31.84 500.917,31.72 
					500.997,31.6 500.997,31.57 501.027,31.33 500.317,31.25 500.167,31.2 500.157,31.15 500.077,31.09 499.807,30.89 
					499.557,30.85 499.157,31.06 498.827,31.1 498.817,31.06 498.707,31.06 498.547,30.88 498.356,30.74 498.197,30.71 
					498.117,30.7 497.657,30.83 497.487,30.83 497.157,30.74 496.197,30.61 496.017,30.55 496.037,30.52 495.807,30.29 
					495.497,30.22 495.267,30.12 494.997,29.64 494.977,29.62 494.977,29.58 494.887,29.26 494.957,29.14 495.267,29.06 
					495.337,28.93 495.487,28.81 495.777,28.85 495.896,28.87 496.087,28.83 496.717,28.6 497.467,28.16 497.907,28.15 
					497.937,28.15 497.977,28.14 498.447,27.97 498.457,27.97 498.707,27.81 498.917,27.55 498.947,27.43 499.947,26.66 
					500.377,26.59 500.537,26.5 500.727,26.32 500.787,26.17 500.827,26.05 500.947,25.9 501.187,25.83 501.817,25.89 
					502.087,25.66 502.267,25.14 502.287,24.89 502.207,24.76 502.387,24.52 502.667,24.45 502.807,23.98 502.807,23.95 
					502.837,23.75 502.737,23.37 502.417,22.79 502.417,22.77 502.387,22.57 502.417,22.45 502.367,22.39 502.247,22.3 
					502.127,22.3 502.037,22.37 501.787,22.39 501.697,22.35 501.617,22.1 501.807,21.92 502.437,21.71 502.457,21.68 
					502.697,21.56 502.987,21.58 503.317,21.54 503.707,21.34 503.817,21.34 503.827,21.34 503.947,21.47 504.027,21.49 
					504.187,21.43 504.517,21.4 504.777,21.47 504.787,21.47 505.146,21.45 505.417,21.01 505.617,20.93 505.777,20.93 
					506.106,20.93 506.377,20.71 506.467,20.64 506.797,20.53 507.367,20.21 507.477,20.05 507.477,19.84 507.396,19.69 
					507.197,19.52 506.977,19.45 506.537,19.31 506.307,19.36 506.237,19.3 506.237,19.25 506.237,19.03 506.367,18.61 
					506.396,18.04 506.437,17.65 506.527,17.54 506.787,17.45 506.937,17.5 506.787,17.29 506.677,17.02 506.646,16.83 				"/>
				<polyline fill="none" stroke="#666666" stroke-width="0.25" stroke-linejoin="round" stroke-miterlimit="3.8637" points="
					526.146,209.16 526.106,209.09 525.817,208.74 525.457,208.3 525.396,208.24 525.327,207.58 525.157,207.02 525.167,206.66 
					524.997,206.08 525.027,205.95 524.957,205.54 524.867,205.16 524.837,205.01 524.947,204.83 524.977,204.81 525.117,204.68 
					525.167,204.62 525.377,204.54 525.396,204.54 525.757,204.52 526.317,204.43 526.497,204.35 526.777,204.06 527.137,203.84 
					527.537,203.71 527.657,203.6 527.827,203.54 527.937,203.56 528.067,203.5 528.097,203.49 528.396,203.37 528.396,203.35 
					528.477,203.26 528.537,203.24 529.197,203.09 				"/>
				<polyline fill="none" stroke="#666666" stroke-width="0.25" stroke-linejoin="round" stroke-miterlimit="3.8637" points="
					577.267,121.76 577.127,122.12 577.157,122.35 577.157,122.37 577.117,122.53 576.907,123.26 576.587,123.82 576.447,124.06 
					576.377,124.33 576.367,124.39 576.307,124.95 576.287,125.06 576.247,126.07 576.187,126.28 576.356,126.4 576.396,126.74 
					576.077,127.09 575.947,127.6 575.767,128.33 575.747,128.38 575.407,129.43 575.587,129.85 575.856,130.81 575.697,131.29 
					575.617,131.68 575.577,131.86 575.407,132.91 575.407,132.95 575.487,133.27 575.487,133.29 575.617,133.87 575.646,134.26 
					575.537,135.13 575.407,135.68 575.437,136 575.447,136.04 575.537,136.36 575.867,137.18 576.157,137.47 576.427,137.58 
					576.687,137.81 576.896,138.07 576.947,138.16 577.237,138.54 577.537,138.77 577.837,139.23 578.047,139.69 577.356,141.04 
					577.127,141.48 576.407,142.89 576.337,143.04 576.277,143.08 575.287,143.79 574.877,144.08 574.787,144.2 574.457,144.34 
					573.867,144.4 573.077,144.94 572.447,145.27 572.187,145.37 571.697,145.46 571.207,145.66 568.777,146.45 568.527,146.54 
					568.117,146.71 567.307,147.06 566.947,147.33 566.047,147.62 565.747,147.87 565.557,147.87 565.407,147.88 564.967,148.14 
					564.807,148.33 564.427,148.62 563.997,148.78 563.497,148.89 563.167,149.04 562.457,149.51 562.387,149.58 561.907,149.89 
					561.537,150.25 561.007,150.58 560.867,150.67 560.167,151.16 560.087,151.51 560.067,151.7 559.987,151.93 559.667,152.5 
					558.637,154.23 557.997,154.34 557.577,154.52 557.367,154.69 557.087,154.79 556.787,154.84 556.497,154.74 556.337,154.69 
					556.106,154.67 555.877,154.64 555.637,154.57 555.427,154.64 555.247,154.87 554.957,154.99 554.887,155.11 554.917,155.74 
					554.837,155.92 554.617,156.12 554.537,156.29 554.557,156.48 554.657,156.64 554.997,157.18 555.007,157.45 554.837,157.79 
					554.797,157.98 554.317,158.44 553.837,158.83 553.737,158.87 553.507,159.12 553.337,159.39 553.297,159.46 553.197,159.91 
					553.017,160.52 552.777,160.84 552.667,160.89 552.537,161.05 552.247,161.24 552.237,161.24 552.146,161.27 551.327,161.56 
					551.047,161.64 550.527,161.77 550.106,161.8 549.967,161.75 548.957,161.44 548.747,161.44 548.487,161.5 548.257,161.6 
					548.227,161.62 547.697,161.95 547.237,162.25 547.017,162.4 546.487,162.83 546.427,162.99 546.327,163.1 546.287,163.18 
					546.187,163.46 545.587,164.35 545.577,164.45 545.517,164.56 545.257,165.01 544.856,165.56 544.807,165.7 544.657,165.91 
					544.537,166.09 544.327,166.29 544.297,166.45 544.017,166.81 543.907,166.83 543.577,167.29 543.537,167.41 543.517,167.45 
					543.167,167.92 543.127,167.93 543.067,167.98 542.997,168.08 542.837,168.29 542.787,168.46 542.767,168.5 542.767,168.88 
					542.767,169.15 542.937,169.51 542.937,169.52 542.997,169.83 542.947,170.26 542.997,170.6 543.007,170.7 543.157,171.2 
					543.247,171.28 543.577,172.1 544.146,173.54 544.207,173.71 544.247,173.86 544.477,174.5 544.557,174.61 544.687,175.14 
					544.767,175.23 544.927,175.67 545.047,176 545.307,176.49 545.396,176.83 545.467,177.13 545.787,178.3 545.997,178.64 
					546.327,179.32 546.396,179.71 546.237,180.26 546.187,180.41 546.097,180.73 546.097,181.25 546.197,181.81 546.267,181.89 
					546.367,182.33 546.396,182.96 546.427,183.07 546.487,183.31 546.606,183.85 546.617,183.97 546.877,184.52 546.847,184.67 
					546.577,184.95 546.577,185 546.547,185.14 546.547,185.16 546.606,185.37 546.377,186.01 546.307,186.4 546.157,186.87 
					546.057,187.08 545.856,187.43 545.407,188.32 545.237,188.68 545.106,188.96 544.907,189.45 544.597,189.97 544.387,190.14 
					544.247,190.24 544.146,190.27 543.827,190.51 543.667,190.7 543.127,191.71 542.227,192.83 542.207,192.85 542.047,193.18 
					541.867,193.5 541.407,194.05 541.297,194.21 540.787,194.66 540.067,195.56 539.937,195.73 539.617,196.57 539.447,196.84 
					538.896,197.73 538.787,197.83 538.737,197.89 538.537,198.01 538.317,198.54 538.177,198.85 537.457,199.36 536.767,200.08 
					536.606,200.12 536.317,200.11 535.477,200.2 535.356,200.21 535.237,200.21 534.987,200.31 534.577,200.49 534.447,200.6 
					534.007,200.8 533.277,201 532.577,201.46 532.367,201.66 532.356,201.66 531.617,201.94 530.977,202.3 530.187,202.83 
					529.577,203.05 529.197,203.09 				"/>
				<polyline fill="none" stroke="#666666" stroke-width="0.25" stroke-linejoin="round" stroke-miterlimit="3.8637" points="
					544.157,11.98 544.177,11.98 544.337,11.96 544.417,11.95 544.497,11.89 544.567,11.79 				"/>
				<polyline fill="none" stroke="#666666" stroke-width="0.25" stroke-linejoin="round" stroke-miterlimit="3.8637" points="
					528.657,20.11 528.707,20.02 529.037,19.84 529.127,19.77 529.356,19.57 529.437,19.46 529.627,19.27 529.767,19.18 
					530.077,19.15 530.287,19.18 530.606,19.14 530.817,19.03 530.907,18.89 531.117,18.7 531.477,18.5 531.907,18.41 
					532.856,18.28 533.167,18.17 533.287,18.08 533.396,17.98 533.787,17.27 533.947,17.05 534.267,16.79 534.587,16.62 
					535.017,16.52 535.146,16.54 535.337,16.51 535.947,16.54 536.287,16.6 536.617,16.69 537.497,17.12 537.967,17.27 
					538.447,17.38 538.747,17.39 538.856,17.38 539.017,17.26 539.117,17.17 539.237,16.99 539.437,16.52 539.467,16.42 
					539.646,16.12 539.856,15.73 540.037,15.52 540.117,15.35 540.237,15.2 540.687,14.38 540.907,13.87 540.937,13.78 
					541.227,13.03 541.457,12.99 541.527,12.67 541.617,12.55 541.717,12.46 541.837,12.39 542.117,12.28 542.657,12.22 
					543.457,12.25 543.987,12.17 544.037,11.98 544.146,11.98 				"/>
				<polyline fill="none" stroke="#666666" stroke-width="0.25" stroke-linejoin="round" stroke-miterlimit="3.8637" points="
					517.237,10.78 517.287,11.24 517.267,11.44 517.327,11.95 517.247,12.28 517.127,12.56 517.077,12.99 517.117,13.46 
					517.197,13.77 517.267,13.89 517.497,13.99 517.717,14 518.137,14.02 518.997,13.96 519.197,13.97 519.427,14.02 519.617,14.14 
					519.737,14.24 519.877,14.44 520.077,14.87 520.437,16.02 520.597,16.36 520.867,16.7 520.997,17 521.087,17.49 521.207,17.68 
					522.027,18.4 522.237,18.61 522.687,18.85 523.057,18.92 523.557,19.09 523.767,19.2 523.877,19.27 523.997,19.31 
					524.207,19.51 524.227,19.84 524.207,20.06 524.137,20.39 523.987,20.77 523.957,20.91 523.877,21.01 523.867,21.12 
					523.747,21.35 523.667,21.66 523.657,21.77 523.687,22 523.747,22.14 523.856,22.35 524.067,22.56 524.396,22.81 524.727,22.97 
					525.037,23.02 525.267,22.99 525.377,22.93 525.817,22.57 525.877,22.48 526.697,21.62 526.827,21.54 526.997,21.34 
					527.237,21.16 527.417,20.93 527.817,20.58 528.057,20.39 528.146,20.31 528.396,20.17 528.657,20.11 				"/>
				<polyline fill="none" stroke="#666666" stroke-width="0.25" stroke-linejoin="round" stroke-miterlimit="3.8637" points="
					547.617,18.4 546.987,18.58 546.757,18.67 545.767,18.87 545.657,18.87 545.437,18.94 545.317,18.95 545.037,19.03 
					544.787,19.15 544.667,19.16 544.287,19.36 544.146,19.39 543.847,19.56 543.487,19.78 542.887,20.02 542.646,20.14 
					541.896,20.68 541.787,20.71 541.657,20.8 541.527,20.85 541.287,20.98 541.146,21 540.687,21.14 540.567,21.14 540.367,21.24 
					540.277,21.22 539.787,21.35 539.646,21.4 539.537,21.47 539.447,21.58 539.367,21.68 539.347,21.81 539.447,21.94 539.527,22 
					539.856,22.18 539.887,22.39 539.867,22.48 539.957,22.69 540.187,22.87 540.497,23.04 540.727,23.24 540.807,23.33 
					540.847,23.44 540.867,23.56 540.867,23.68 540.777,23.98 				"/>
				<polyline fill="none" stroke="#666666" stroke-width="0.25" stroke-linejoin="round" stroke-miterlimit="3.8637" points="
					546.337,21.01 546.146,20.72 545.957,20.66 545.837,20.72 545.747,20.86 545.727,21 545.727,21.17 545.627,21.28 545.617,21.47 
					545.317,22.33 545.287,22.45 545.227,22.54 544.987,22.62 544.747,22.89 544.646,23.08 544.557,23.17 544.437,23.24 
					544.297,23.26 544.157,23.24 544.037,23.24 543.727,23.32 543.517,23.31 543.407,23.29 543.167,23.2 542.977,23.17 
					542.867,23.23 542.797,23.32 542.697,23.54 542.487,23.86 542.377,23.95 542.167,24.02 542.047,24.02 541.617,24.1 
					541.287,24.1 541.037,24.06 540.777,23.98 				"/>
				<polyline fill="none" stroke="#666666" stroke-width="0.25" stroke-linejoin="round" stroke-miterlimit="3.8637" points="
					540.777,23.98 540.587,24.27 540.277,24.58 539.447,25.25 539.367,25.33 539.137,25.42 538.767,25.48 				"/>
				<polyline fill="none" stroke="#666666" stroke-width="0.25" stroke-linejoin="round" stroke-miterlimit="3.8637" points="
					535.977,27.29 536.497,27.24 536.606,27.22 536.827,27.08 536.907,26.96 537.167,26.32 537.457,25.77 537.577,25.48 
					537.697,25.29 537.787,25.2 537.907,25.12 538.207,25.03 538.407,25.04 538.507,25.09 538.617,25.2 538.767,25.48 				"/>
				<polyline fill="none" stroke="#666666" stroke-width="0.25" stroke-linejoin="round" stroke-miterlimit="3.8637" points="
					528.657,20.11 529.127,20.54 529.327,20.77 529.747,21.16 530.087,21.52 530.557,21.92 530.677,21.99 531.237,22.42 
					531.587,22.6 532.856,22.99 533.067,23 533.277,22.96 533.487,22.96 533.587,22.99 533.677,23.08 533.767,23.29 533.767,23.38 
					533.917,23.83 534.117,24.2 534.187,24.31 534.307,24.54 534.757,25.46 535.597,26.59 535.896,27.07 535.977,27.29 				"/>
				<polyline fill="none" stroke="#666666" stroke-width="0.25" stroke-linejoin="round" stroke-miterlimit="3.8637" points="
					549.447,23.11 549.337,23.37 549.307,23.75 549.267,24 549.057,24.55 548.867,24.91 548.367,25.79 548.287,25.9 548.047,26.27 
					547.827,26.72 547.867,26.83 548.487,27.31 548.396,27.55 548.187,27.94 548.106,28.16 548.106,28.29 547.837,29.16 
					547.687,30.06 				"/>
				<polyline fill="none" stroke="#666666" stroke-width="0.25" stroke-linejoin="round" stroke-miterlimit="3.8637" points="
					512.747,14.81 513.167,15.07 513.517,15.39 513.587,15.47 513.917,15.74 514.027,15.95 514.037,16.04 514.027,16.14 
					513.907,16.22 513.407,16.37 513.197,16.42 513.097,16.48 513.037,16.57 513.077,16.78 513.567,17.31 513.787,17.5 
					514.127,17.87 514.457,18.33 514.557,18.4 514.687,18.62 514.787,18.83 514.787,18.94 514.767,19.04 514.687,19.16 
					514.367,19.45 514.227,19.51 513.577,20.04 513.447,20.32 513.427,20.53 513.457,20.74 513.367,20.96 513.287,21.06 
					513.127,21.39 513.307,21.58 513.567,21.76 513.907,21.83 514.117,21.85 514.356,21.89 514.667,21.91 514.977,21.97 
					515.077,21.97 515.787,22.41 515.867,22.51 515.787,23.47 515.677,24.1 515.677,24.39 515.727,24.79 515.797,24.89 
					516.117,25.24 516.167,25.33 516.637,26.21 516.807,26.6 516.917,26.95 517.157,27.87 517.157,27.99 516.997,28.18 
					516.896,28.27 516.587,28.58 516.447,28.78 516.356,28.97 516.307,29.52 516.307,29.95 516.267,30.24 516.167,30.35 
					515.657,30.6 515.577,30.66 				"/>
				<polyline fill="none" stroke="#666666" stroke-width="0.25" stroke-linejoin="round" stroke-miterlimit="3.8637" points="
					535.977,27.29 535.877,27.37 535.777,27.43 535.667,27.54 535.017,27.94 534.606,28.25 534.307,28.54 534.077,28.85 
					533.997,29.06 533.957,29.17 533.887,29.35 533.817,29.45 533.707,29.58 533.587,29.68 533.327,29.96 533.187,30.25 
					533.017,30.74 532.947,30.83 				"/>
				<polyline fill="none" stroke="#666666" stroke-width="0.25" stroke-linejoin="round" stroke-miterlimit="3.8637" points="
					538.767,25.48 538.947,25.87 538.997,26 539.257,26.41 539.447,26.6 539.707,26.79 539.937,26.83 540.146,26.79 540.367,26.66 
					540.606,26.62 540.757,26.65 541.327,26.87 541.837,27.14 542.557,27.43 542.787,27.85 542.867,27.95 542.907,28.06 
					543.146,28.42 543.327,28.64 543.667,28.9 544.577,29.45 545.167,29.74 545.227,29.86 545.167,30.12 545.117,30.19 
					545.087,30.49 545.106,30.61 545.396,30.85 545.467,30.95 545.697,30.82 545.787,30.73 545.997,30.6 546.687,30.24 
					547.027,30.13 547.237,30.1 547.577,30.1 547.687,30.06 				"/>
				<polyline fill="none" stroke="#666666" stroke-width="0.25" stroke-linejoin="round" stroke-miterlimit="3.8637" points="
					513.287,30.97 513.407,30.94 513.617,30.85 513.967,30.68 514.457,30.52 514.687,30.54 514.827,30.5 515.037,30.52 
					515.167,30.54 515.577,30.66 				"/>
				<polyline fill="none" stroke="#666666" stroke-width="0.25" stroke-linejoin="round" stroke-miterlimit="3.8637" points="
					547.687,30.06 547.646,30.58 547.597,30.92 547.557,31.7 547.577,32.17 547.617,32.38 547.646,32.49 547.837,32.81 
					548.047,32.96 548.277,33 				"/>
				<polyline fill="none" stroke="#666666" stroke-width="0.25" stroke-linejoin="round" stroke-miterlimit="3.8637" points="
					548.277,33 548.587,32.93 548.787,32.86 550.017,32.66 550.227,32.83 550.527,33.14 550.646,33.19 550.737,33.19 550.856,33.12 
					551.187,32.75 551.287,32.7 551.606,32.68 551.817,32.72 551.977,32.89 552.247,33.39 				"/>
				<polyline fill="none" stroke="#666666" stroke-width="0.25" stroke-linejoin="round" stroke-miterlimit="3.8637" points="
					500.396,33.25 500.707,33.29 500.917,33.37 501.127,33.4 501.367,33.39 501.487,33.4 501.877,33.37 502.117,33.29 502.597,33.1 
					503.307,32.71 503.887,32.42 504.146,32.27 504.497,32.1 504.737,32 505.087,31.91 505.317,31.89 505.557,31.91 507.117,31.87 
					507.457,31.9 507.947,31.87 508.856,31.87 509.627,31.84 510.277,31.79 510.787,31.7 510.896,31.7 511.896,31.43 512.827,31.15 
					513.287,30.97 				"/>
				<polyline fill="none" stroke="#666666" stroke-width="0.25" stroke-linejoin="round" stroke-miterlimit="3.8637" points="
					515.577,30.66 515.767,30.74 516.187,31.1 517.367,32.29 517.687,32.59 517.896,32.75 518.117,32.79 518.377,32.74 
					518.737,32.6 519.127,32.42 519.237,32.41 519.567,32.31 519.997,32.18 520.207,32.14 520.567,32.17 520.977,32.39 
					521.606,32.85 521.917,33.01 522.247,33.24 522.577,33.39 522.807,33.43 522.907,33.35 522.987,33.25 523.567,32.2 
					523.947,31.62 524.307,31.15 524.517,31 524.997,30.81 525.457,30.73 526.077,30.68 526.197,30.68 526.527,30.66 526.867,30.67 
					527.287,30.76 527.707,30.95 527.817,31.04 527.907,31.08 528.146,31.29 528.407,31.62 528.667,31.83 528.867,31.9 
					529.297,31.85 529.527,31.78 530.137,31.42 530.557,31.24 530.947,31.09 531.487,30.92 532.267,30.81 532.627,30.79 
					532.947,30.83 				"/>
				<polyline fill="none" stroke="#666666" stroke-width="0.25" stroke-linejoin="round" stroke-miterlimit="3.8637" points="
					548.277,33 548.307,33.04 548.307,33.22 548.327,33.62 548.317,34.87 548.277,34.97 548.207,35.06 547.667,35.37 547.627,35.45 
					547.657,35.56 547.747,35.64 548.017,35.85 548.106,35.87 548.207,35.98 548.237,36.07 548.237,36.16 548.227,36.25 
					548.167,36.35 548.067,36.46 547.827,36.54 547.237,36.66 546.896,36.68 546.787,36.73 546.337,36.82 546.217,36.82 
					545.907,36.89 545.827,36.99 545.797,37.09 545.907,37.41 545.977,37.56 546.007,37.96 545.977,38.12 545.917,38.32 
					545.767,38.62 545.517,38.92 545.187,39.14 544.697,39.33 544.577,39.4 544.437,39.43 				"/>
				<polyline fill="none" stroke="#666666" stroke-width="0.25" stroke-linejoin="round" stroke-miterlimit="3.8637" points="
					532.947,30.83 533.067,31.04 533.157,31.14 533.347,31.46 533.396,31.67 533.417,32.06 533.327,32.45 533.117,33.02 
					532.896,33.4 532.767,33.6 532.387,34.02 532.157,34.24 532.087,34.35 531.537,34.81 531.167,35.05 530.606,35.38 
					530.187,35.59 529.947,35.7 529.837,35.71 529.597,35.81 529.407,35.87 529.177,35.96 529.087,36.06 529.027,36.14 
					529.057,36.25 529.227,36.47 529.447,36.68 529.527,36.77 529.867,37.03 530.106,37.27 530.497,37.54 530.737,37.63 
					531.197,37.77 531.697,37.83 532.627,38.14 532.907,38.26 533.327,38.54 533.487,38.77 533.617,39.16 533.627,39.83 
					533.606,40.03 533.487,40.41 533.407,40.58 533.257,40.81 532.877,41.27 				"/>
				<polyline fill="none" stroke="#666666" stroke-width="0.25" stroke-linejoin="round" stroke-miterlimit="3.8637" points="
					544.437,39.43 544.037,39.54 543.817,39.56 543.027,39.77 542.737,39.92 542.646,40.03 542.467,40.36 542.407,40.56 
					542.317,40.77 542.167,40.97 542.087,41.06 541.747,41.21 541.646,41.18 541.537,41.08 541.287,40.67 541.197,40.78 
					541.146,40.9 541.087,41.16 540.997,41.72 540.967,42.02 540.807,42.74 540.707,42.88 540.577,42.94 540.457,42.94 
					540.197,42.83 539.977,42.62 539.856,42.5 539.537,42.19 539.447,42.12 539.277,42.01 539.037,41.91 538.717,41.83 
					538.577,41.83 538.087,41.77 537.757,41.6 537.197,41.27 536.907,41.11 536.797,41.08 536.237,41.05 536.106,41.06 
					535.327,41.24 534.727,41.44 534.217,41.53 533.856,41.53 533.497,41.49 533.047,41.35 532.947,41.27 532.877,41.27 				"/>
				<polyline fill="none" stroke="#666666" stroke-width="0.25" stroke-linejoin="round" stroke-miterlimit="3.8637" points="
					513.287,30.97 513.697,31.41 514.177,32.05 514.287,32.14 514.537,32.56 514.697,33.02 514.747,33.25 514.767,33.46 
					514.737,33.68 514.697,33.77 514.577,33.99 514.337,34.29 514.237,34.52 514.237,34.64 514.287,34.84 514.417,35.17 
					514.667,35.56 514.737,35.65 515.157,36.08 515.227,36.2 515.617,36.62 515.856,37.04 515.937,37.37 515.957,37.6 515.977,37.9 
					515.937,38.42 515.856,38.87 515.856,39.08 515.887,39.19 515.947,39.31 516.127,39.5 516.457,39.71 516.577,39.74 
					517.017,39.99 517.227,40.08 517.356,40.1 518.167,40.52 518.517,40.75 518.587,40.84 518.657,40.96 518.827,41.29 
					518.917,41.62 518.917,41.87 518.917,42.25 518.887,42.49 518.767,43.14 518.606,43.72 518.487,44.04 518.396,44.17 
					518.347,44.26 517.747,44.83 517.407,45.34 517.297,45.55 517.237,45.95 517.146,46.3 516.947,46.66 516.497,47 516.287,47.14 
					516.067,47.32 515.957,47.42 515.867,47.62 515.837,47.74 515.817,47.98 515.817,48.31 515.827,48.83 515.817,49.18 
					515.727,50.1 515.617,50.52 515.587,50.65 515.527,50.74 515.467,51.06 515.347,51.37 				"/>
				<polyline fill="none" stroke="#666666" stroke-width="0.25" stroke-linejoin="round" stroke-miterlimit="3.8637" points="
					499.697,53.59 500.106,53.59 500.307,53.54 500.627,53.32 501.097,52.81 501.407,52.51 501.637,52.35 502.057,52.21 
					502.387,52.2 502.617,52.22 502.717,52.25 502.856,52.35 503.227,52.51 503.657,52.75 503.767,52.78 504.057,52.93 
					504.327,53.02 504.787,53.1 505.027,53.1 505.417,53.05 505.567,52.99 505.767,52.83 505.896,52.62 506.017,52.06 
					506.117,50.92 506.167,50.7 506.257,50.42 506.347,50.18 506.587,49.81 506.917,49.41 507.146,49.24 507.367,49.14 
					507.587,49.1 508.027,49.12 508.267,49.16 509.077,49.41 509.187,49.45 509.867,49.6 510.587,49.84 510.737,49.91 
					511.337,50.16 513.007,50.89 514.027,51.27 514.267,51.33 514.537,51.37 515.227,51.33 515.347,51.37 				"/>
				<polyline fill="none" stroke="#666666" stroke-width="0.25" stroke-linejoin="round" stroke-miterlimit="3.8637" points="
					544.437,39.43 543.896,40.24 543.427,41.04 543.537,41.14 543.637,41.21 544.387,41.6 544.877,41.81 545.077,41.92 
					545.187,42.01 545.367,42.25 545.517,42.54 545.577,42.71 545.577,42.94 545.537,43.14 545.497,43.52 545.367,44.24 
					545.317,44.35 545.207,44.8 545.047,45.35 544.867,45.77 544.617,46.16 544.437,46.35 544.297,46.56 544.197,46.64 
					544.106,46.78 543.787,47.11 543.407,47.53 543.267,47.81 543.356,48.13 543.687,48.79 544.207,49.91 544.747,50.96 
					545.347,52.02 545.827,52.9 546.187,53.44 546.517,53.86 546.657,54.1 546.687,54.39 546.737,54.68 546.827,54.91 				"/>
				<polyline fill="none" stroke="#666666" stroke-width="0.25" stroke-linejoin="round" stroke-miterlimit="3.8637" points="
					556.157,48.89 556.037,49.12 555.867,49.33 555.667,49.52 555.327,49.79 555.117,50 554.977,50.2 554.917,50.42 554.867,50.66 
					554.887,51.29 555.027,52.37 555.027,52.72 554.957,53.12 554.797,53.45 554.727,53.58 554.497,53.75 554.017,54.04 
					553.247,54.31 552.396,54.47 552.197,54.55 552.097,54.62 552.027,54.73 552.007,54.82 552.037,54.94 552.197,55.12 
					552.396,55.31 552.447,55.42 552.457,55.51 552.407,55.62 552.217,55.81 551.797,56.05 551.087,56.29 				"/>
				<polyline fill="none" stroke="#666666" stroke-width="0.25" stroke-linejoin="round" stroke-miterlimit="3.8637" points="
					551.087,56.29 550.667,56.26 550.297,56.26 550.297,56.27 549.907,56.27 549.356,56.17 548.827,56.04 547.896,55.66 
					547.146,55.15 546.877,54.94 546.827,54.91 				"/>
				<polyline fill="none" stroke="#666666" stroke-width="0.25" stroke-linejoin="round" stroke-miterlimit="3.8637" points="
					532.877,41.27 532.737,41.45 532.146,41.89 531.617,42.25 531.187,42.56 531.037,42.64 530.347,43.14 529.327,43.89 
					529.037,44.05 528.537,44.47 527.887,45.06 527.447,45.37 527.327,45.47 527.167,45.7 527.087,45.94 527.106,46.16 
					527.307,46.81 527.347,47.29 527.257,47.71 527.137,48.02 526.997,48.27 526.927,48.49 526.877,48.73 526.947,49.02 
					526.987,49.14 527.137,49.37 527.237,49.51 527.677,49.9 527.747,50 527.787,50.11 527.767,50.18 527.737,50.27 527.657,50.37 
					526.947,50.5 526.697,50.58 526.367,50.72 526.177,50.85 525.487,51.28 525.367,51.34 525.097,51.43 524.727,51.45 
					524.277,51.4 523.997,51.31 523.197,51.01 522.356,50.8 522.127,50.79 522.027,50.85 521.917,50.93 521.867,51.02 
					521.856,51.14 521.856,51.25 521.977,51.56 522.146,51.79 523.157,52.99 523.646,53.53 524.837,54.77 525.327,55.39 
					525.687,56.05 525.727,56.16 526.057,56.8 526.177,56.98 526.247,57.19 526.267,57.35 				"/>
				<polyline fill="none" stroke="#666666" stroke-width="0.25" stroke-linejoin="round" stroke-miterlimit="3.8637" points="
					526.267,57.35 526.027,57.27 525.787,57.22 525.407,57.16 524.707,57.16 524.327,57.22 523.197,57.56 				"/>
				<polyline fill="none" stroke="#666666" stroke-width="0.25" stroke-linejoin="round" stroke-miterlimit="3.8637" points="
					515.347,51.37 515.677,51.62 515.856,51.88 516.187,52.57 516.477,53.04 516.577,53.14 516.727,53.37 517.106,53.74 
					517.297,53.87 517.497,53.91 517.737,53.87 518.047,53.72 518.167,53.7 518.367,53.7 518.837,53.85 519.197,54 519.427,54.13 
					519.657,54.29 519.737,54.49 520.027,55.24 520.207,55.43 520.317,55.48 520.907,55.57 521.257,55.66 521.797,55.9 
					522.407,56.29 522.707,56.58 522.947,56.87 523.106,57.17 523.177,57.37 523.197,57.56 				"/>
				<path fill="none" stroke="#666666" stroke-width="0.25" stroke-linejoin="round" stroke-miterlimit="3.8637" d="M550.297,56.32
					c0,0,0.15,0.93,1.021,1.57c0.85,0.63,1.829-0.29,1.829-0.29l0.811-0.6l0.02,0.01l0.69,0.19l0.34,0.08l0.75,0.3l0.62,0.18
					l0.99,0.18l0.939,0.2l1.221,0.07l0.239-0.06l0.23-0.57l0.2-0.3l0.149-0.18l0.391-0.4l0.359-0.28l0.54-0.32l0.51-0.23l1.021-0.31
					l1.27-0.47"/>
				<polyline fill="none" stroke="#666666" stroke-width="0.25" stroke-linejoin="round" stroke-miterlimit="3.8637" points="
					546.827,54.91 546.457,54.97 545.627,55.24 545.407,55.37 545.227,55.57 545.077,55.79 545.037,56 545.047,56.11 545.396,56.93 
					545.487,57.28 545.447,57.5 545.287,57.71 545.067,57.85 544.856,58.04 544.657,58.37 544.237,59.35 543.757,60.31 
					543.667,60.54 543.617,60.73 543.637,60.92 543.667,61.03 543.757,61.24 544.037,61.81 544.117,62.23 544.146,62.47 
					544.157,62.95 544.077,63.52 544.087,63.92 544.157,64.1 544.267,64.31 544.646,64.78 544.856,65.1 544.947,65.31 
					545.037,65.59 545.067,65.83 545.067,66.14 544.957,66.73 544.977,66.83 				"/>
				<polyline fill="none" stroke="#666666" stroke-width="0.25" stroke-linejoin="round" stroke-miterlimit="3.8637" points="
					564.367,68.53 563.646,68.18 563.517,68.16 562.927,68.11 562.717,68.16 562.617,68.12 562.507,68.02 562.356,67.72 
					562.057,67.29 561.787,66.83 561.356,66.2 561.157,66.02 561.057,66.06 560.957,66.13 560.856,66.24 560.657,66.54 
					560.487,66.73 560.367,66.81 560.187,66.87 560.067,66.88 559.977,66.87 559.767,66.77 559.646,66.66 559.437,66.31 
					559.117,65.47 559.057,65.26 559.027,65.17 558.947,64.79 558.867,64.18 558.727,63.85 558.287,63.25 558.197,63.19 
					558.037,63.37 557.917,63.68 557.856,63.79 557.697,64.14 557.527,64.36 557.327,64.57 557.207,64.66 556.837,64.85 
					556.717,64.87 556.477,64.87 556.127,64.78 555.537,64.54 555.037,64.27 554.827,64.2 554.727,64.16 554.517,64.16 
					554.287,64.2 554.187,64.39 554.157,64.57 554.047,64.77 553.907,64.87 553.447,65.08 553.387,65.18 553.327,65.27 
					553.317,65.39 553.337,65.7 553.337,65.74 553.267,65.87 553.087,66.08 552.757,66.37 552.307,66.68 551.957,66.85 
					551.627,66.97 550.807,67.37 550.127,67.67 549.497,67.97 549.267,68.04 549.146,68.04 548.747,67.89 548.067,67.41 
					547.837,67.29 547.297,67.18 546.697,67.16 546.247,67.12 544.977,66.83 				"/>
				<polyline fill="none" stroke="#666666" stroke-width="0.25" stroke-linejoin="round" stroke-miterlimit="3.8637" points="
					544.977,66.83 544.777,66.79 544.557,66.79 544.297,66.88 543.487,67.36 543.396,67.45 542.917,67.81 542.697,68.02 
					542.167,68.58 541.977,68.74 541.597,69.22 541.337,69.49 540.896,70.14 540.697,70.52 				"/>
				<polyline fill="none" stroke="#666666" stroke-width="0.25" stroke-linejoin="round" stroke-miterlimit="3.8637" points="
					540.697,70.52 540.577,70.37 540.277,70.1 540.146,69.81 539.947,69.06 539.497,67.67 539.377,67.06 539.227,66.56 
					539.106,66.5 538.977,66.54 538.087,66.83 537.687,67 537.537,66.97 537.307,66.92 536.797,66.71 536.396,66.58 535.827,66.41 
					535.117,66.27 533.817,66.06 533.077,65.87 532.837,65.79 532.627,65.68 532.387,65.47 532.146,65.24 532.017,65.05 
					531.827,64.64 531.757,64.54 530.957,63.85 530.437,63.27 530.187,62.93 529.867,63.04 529.627,63.06 529.037,63.01 528.947,63 
					528.737,62.86 528.337,62.45 527.527,61.78 526.867,61.18 526.737,60.89 526.717,60.74 526.737,60.62 526.856,60 526.987,59.56 
					526.987,59.44 527.077,58.97 527.117,58.51 527.047,58.27 526.867,57.95 526.477,57.47 526.267,57.35 				"/>
				<polyline fill="none" stroke="#666666" stroke-width="0.25" stroke-linejoin="round" stroke-miterlimit="3.8637" points="
					510.606,77.83 513.807,75.97 514.697,75.5 515.677,75.14 516.127,74.95 516.477,74.77 516.667,74.62 516.757,74.52 
					516.777,74.41 516.737,74.32 516.637,74.21 516.277,74.08 516.077,73.89 515.957,73.67 515.917,73.56 515.947,73.35 
					516.077,73.09 516.606,72.68 516.967,72.33 517.227,71.91 517.407,71.41 517.617,71 517.827,70.81 517.907,70.78 518.037,70.78 
					518.517,70.91 518.646,70.95 518.747,70.91 519.687,70.45 521.577,69.91 521.747,69.68 521.867,69.37 521.907,69.28 
					521.907,69.06 521.856,68.95 521.646,68.52 521.537,68.23 521.497,67.93 521.467,67.46 521.487,67.08 521.537,66.68 
					521.627,66.37 521.697,65.98 521.727,65.66 521.657,65.42 521.517,65.2 521.157,65 520.417,64.77 519.737,64.62 519.327,64.48 
					519.237,64.43 519.027,64.3 518.917,64.2 518.856,63.97 518.856,63.77 519.007,63.24 519.187,62.71 519.447,62.12 
					520.177,61.74 520.356,61.52 520.507,61.2 520.597,60.81 520.667,60.6 520.837,60.29 521.017,60.08 521.257,59.89 
					521.487,59.75 521.727,59.65 522.237,59.37 522.667,58.99 522.827,58.81 522.937,58.69 523.037,58.45 523.077,58.33 
					523.146,58.02 523.197,57.56 				"/>
				<polyline fill="none" stroke="#666666" stroke-width="0.25" stroke-linejoin="round" stroke-miterlimit="3.8637" points="
					498.697,78.2 498.707,78.2 498.727,78.22 498.827,78.28 499.127,78.56 499.207,78.68 499.297,78.77 499.567,78.91 
					500.067,79.02 500.417,79.04 500.737,79.14 501.307,79.35 501.617,79.42 501.777,79.48 501.947,79.51 502.087,79.56 
					502.337,79.7 502.567,79.87 502.896,80.08 502.997,80.18 503.347,80.42 503.437,80.53 503.797,80.75 504.487,81.04 
					504.847,81.13 505.027,80.66 505.117,80.26 505.197,80.08 505.417,79.89 505.657,79.74 506.367,79.45 506.957,79.12 
					508.127,78.56 508.447,78.47 508.977,78.43 509.527,78.34 510.146,78.1 510.606,77.83 				"/>
				<polyline fill="none" stroke="#666666" stroke-width="0.25" stroke-linejoin="round" stroke-miterlimit="3.8637" points="
					510.606,77.83 511.017,77.95 511.627,78.2 511.867,78.29 513.157,78.83 513.787,79.04 514.287,79.27 514.717,79.31 
					515.587,79.27 516.587,79.29 517.127,79.36 517.807,79.5 518.417,79.54 518.707,79.58 519.127,79.69 519.427,79.81 
					520.327,80.27 520.737,80.52 520.947,80.6 521.047,80.62 521.257,80.6 521.467,80.53 522.097,80.2 522.187,80.18 522.277,80.2 
					522.356,80.29 522.396,80.39 522.396,80.52 522.367,80.62 521.887,81.71 521.767,82.03 521.707,82.35 521.727,82.64 
					521.767,82.83 521.837,83.04 522.007,83.35 522.396,83.83 522.727,84.17 523.146,84.59 523.387,84.79 523.717,84.95 
					524.577,85.18 525.117,85.36 525.337,85.48 525.547,85.63 525.777,85.87 526.197,86.53 526.356,86.74 526.787,87.07 
					527.137,87.28 528.217,87.68 528.606,87.88 528.727,87.95 528.787,88.06 528.877,88.29 528.907,88.57 528.907,89.08 
					528.867,90.41 528.777,91.67 				"/>
				<polyline fill="none" stroke="#666666" stroke-width="0.25" stroke-linejoin="round" stroke-miterlimit="3.8637" points="
					528.777,91.67 529.106,91.5 529.297,91.31 529.597,91 529.827,90.89 530.517,90.68 530.867,90.54 530.957,90.5 531.237,90.54 
					531.356,90.59 531.577,90.7 532.057,91.03 532.287,91.21 532.457,91.54 532.507,91.72 532.537,91.78 				"/>
				<polyline fill="none" stroke="#666666" stroke-width="0.25" stroke-linejoin="round" stroke-miterlimit="3.8637" points="
					540.697,70.52 540.567,70.69 540.287,71.23 540.007,71.96 539.587,72.87 539.207,73.83 538.987,74.23 538.267,75.39 
					537.487,76.56 537.277,76.85 537.197,77 536.747,77.64 536.657,77.8 536.407,78.13 536.287,78.37 536.017,78.95 535.577,79.77 
					535.356,80.26 535.207,80.77 535.177,81.08 535.197,81.28 535.327,81.85 535.407,82.03 535.457,82.12 536.187,82.22 
					537.457,82.3 538.077,82.41 538.697,82.56 539.417,82.87 539.646,83 540.327,83.32 540.937,83.65 540.947,83.75 540.917,83.84 
					540.817,84.55 540.737,84.83 540.617,85.15 540.407,85.43 540.067,85.64 539.837,85.76 539.137,86.05 538.927,86.23 
					538.457,86.75 538.117,86.8 537.777,86.77 537.447,86.8 537.356,86.81 537.067,86.96 536.646,87.31 534.247,88.39 
					533.827,88.67 533.417,88.9 532.907,89.23 532.827,89.33 532.667,89.51 532.627,89.62 532.597,89.8 532.646,89.92 
					533.067,90.24 533.257,90.43 533.437,90.73 533.537,90.91 533.657,91.25 533.747,91.58 533.787,91.78 533.767,91.87 
					533.727,91.98 533.606,92.05 533.497,92.08 533.396,92.09 533.197,92.08 532.997,92 532.537,91.78 				"/>
				<polyline fill="none" stroke="#666666" stroke-width="0.25" stroke-linejoin="round" stroke-miterlimit="3.8637" points="
					521.767,93 522.737,92.44 523.237,92.27 523.497,92.24 523.877,92.26 524.977,92.39 526.177,92.6 526.697,92.6 527.017,92.51 
					527.237,92.41 527.887,92.02 528.007,91.98 528.307,91.91 528.517,91.83 528.777,91.67 				"/>
				<polyline fill="none" stroke="#666666" stroke-width="0.25" stroke-linejoin="round" stroke-miterlimit="3.8637" points="
					532.537,91.78 532.597,91.96 532.737,92.16 532.837,92.26 533.037,92.41 533.317,92.56 533.747,92.7 534.067,92.73 
					534.407,92.71 534.867,92.64 535.157,92.51 535.367,92.47 535.577,92.45 535.787,92.53 535.907,92.62 536.137,92.86 
					536.517,93.43 536.787,93.73 537.067,93.99 537.517,94.23 538.017,94.33 538.287,94.37 538.567,94.37 538.657,94.34 
					538.767,94.25 538.787,94.15 538.777,93.39 538.856,93.29 538.957,93.31 539.167,93.41 539.606,93.76 540.157,94.36 				"/>
				<polyline fill="none" stroke="#666666" stroke-width="0.25" stroke-linejoin="round" stroke-miterlimit="3.8637" points="
					507.307,96.16 507.907,96.08 508.447,96.08 508.717,96.06 509.287,95.98 509.657,95.98 511.117,95.89 511.356,95.84 
					512.207,95.39 512.437,95.35 512.577,95.37 512.817,95.41 513.277,95.56 513.637,95.64 514.146,95.71 514.407,95.73 
					514.787,95.8 515.117,95.81 515.447,95.71 515.627,95.53 515.697,95.29 515.677,94.98 515.697,94.58 515.787,94.27 
					515.937,94.06 516.037,93.95 516.377,93.77 516.757,93.64 517.447,93.34 517.537,93.31 517.747,93.29 518.167,93.46 
					518.797,93.49 519.457,93.46 520.017,93.4 521.106,93.2 521.527,93.1 521.767,93 				"/>
				<polyline fill="none" stroke="#666666" stroke-width="0.25" stroke-linejoin="round" stroke-miterlimit="3.8637" points="
					493.907,84.22 493.927,84.25 493.957,84.45 493.896,84.79 493.827,85.09 493.627,85.62 493.527,85.85 493.447,86.08 
					493.447,86.29 493.477,86.39 493.657,86.59 494.106,87.01 494.587,87.4 494.737,87.59 494.737,87.68 494.657,87.77 
					494.417,87.89 494.067,87.94 493.927,87.94 493.617,87.97 493.057,88.06 492.707,88.41 491.907,89.39 491.697,89.68 
					491.677,89.79 492.097,90.08 493.087,90.66 493.437,90.88 493.896,91.27 494.317,91.67 494.487,91.89 494.677,92.17 
					495.097,92.89 495.167,93 495.377,93.13 495.497,93.16 496.387,93.22 496.856,93.34 497.606,93.58 498.247,93.83 498.457,93.97 
					499.077,94.45 499.157,94.57 499.287,94.9 499.356,95.35 499.407,95.77 499.497,95.95 499.597,96.06 499.687,96.12 
					499.997,96.14 500.797,96.13 502.457,95.98 503.287,95.86 504.097,95.83 505.077,95.81 505.896,95.87 506.207,95.92 
					507.307,96.16 				"/>
				<polyline fill="none" stroke="#666666" stroke-width="0.25" stroke-linejoin="round" stroke-miterlimit="3.8637" points="
					507.307,96.16 506.367,98.02 505.787,99.13 505.247,99.89 504.777,100.41 503.817,101.29 502.657,102.25 501.187,103.34 
					497.517,106.14 495.396,107.86 493.777,109.09 492.987,109.74 492.377,110.21 489.687,112.23 488.377,113.14 484.957,114.61 
									"/>
				<polyline fill="none" stroke="#666666" stroke-width="0.25" stroke-linejoin="round" stroke-miterlimit="3.8637" points="
					521.767,93 521.767,93.24 521.917,93.52 522.127,93.82 522.287,94.01 522.497,94.21 522.997,94.56 523.407,94.75 523.777,94.87 
					523.877,94.95 523.957,95.05 523.957,95.14 523.957,95.24 523.837,95.42 523.387,95.84 522.487,96.46 521.937,96.94 
					521.856,97.03 521.617,97.51 521.537,97.72 521.487,98 521.467,98.31 521.487,98.53 521.527,98.95 521.606,100.03 
					521.737,100.83 521.887,101.44 522.027,101.87 522.287,102.59 522.427,102.91 522.547,103.18 522.807,103.76 523.146,104.41 
					523.617,105.13 524.377,106.45 524.447,106.56 524.646,106.69 524.957,106.85 525.487,107.02 525.847,107.17 526.177,107.39 
					526.356,107.6 526.737,108.33 526.907,108.54 527.017,108.61 527.117,108.67 527.377,108.7 527.797,108.59 527.887,108.61 
					528.027,108.68 528.377,109.03 528.687,109.36 529.297,109.96 529.447,110.17 529.527,110.38 529.477,110.71 529.417,110.91 
					529.237,111.31 528.867,111.87 528.777,111.99 528.587,112.29 528.497,112.52 528.487,112.63 528.517,112.81 528.667,113.05 
					528.787,113.17 529.077,113.42 530.047,114.22 530.407,114.54 530.677,114.83 530.837,115.06 530.977,115.29 531.657,116.58 
					531.817,116.84 532.117,117.26 532.297,117.46 532.807,117.95 533.187,118.37 				"/>
				<polyline fill="none" stroke="#666666" stroke-width="0.25" stroke-linejoin="round" stroke-miterlimit="3.8637" points="
					550.977,108.12 550.337,108.46 549.907,108.77 549.707,108.99 549.577,109.2 549.367,109.5 549.217,109.81 549.007,110.06 
					548.487,110.47 548.407,110.56 548.227,110.91 548.117,111.24 547.957,111.58 547.577,112.12 547.237,112.52 546.987,112.83 
					546.847,113.06 546.606,113.53 546.577,113.66 546.307,114.24 546.157,114.31 545.707,114.39 544.537,114.73 544.117,114.89 
					543.667,115.09 543.427,115.23 543.117,115.42 542.657,115.79 541.896,116.58 541.447,116.98 541.117,117.22 540.617,117.43 
					539.606,117.62 538.827,117.79 538.117,118.12 537.896,118.16 537.267,118.16 536.727,118.08 536.167,118.04 535.827,118.1 
					534.606,118.46 534.247,118.46 533.347,118.34 533.187,118.37 				"/>
				<polyline fill="none" stroke="#666666" stroke-width="0.25" stroke-linejoin="round" stroke-miterlimit="3.8637" points="
					533.187,118.37 533.997,119.33 534.277,119.65 534.587,119.92 534.817,120.07 535.297,120.26 535.837,120.43 535.977,120.45 
					536.207,120.46 536.856,120.37 537.157,120.39 537.247,120.43 537.377,120.5 537.487,120.59 537.567,120.68 537.667,120.91 
					537.697,121.09 537.707,121.62 537.687,121.93 537.697,123.2 537.667,123.4 537.606,123.61 537.267,124.37 				"/>
				<polyline fill="none" stroke="#666666" stroke-width="0.25" stroke-linejoin="round" stroke-miterlimit="3.8637" points="
					537.267,124.37 537.187,124.5 537.127,124.69 537.117,124.81 537.127,125.04 537.247,125.24 537.487,125.47 538.197,125.95 
					539.087,126.66 539.257,126.85 539.277,126.95 539.257,127.06 539.157,127.16 538.837,127.3 538.437,127.39 538.327,127.46 
					538.197,127.66 538.146,127.87 538.146,128.09 538.207,129.01 538.247,129.25 538.287,129.37 538.407,129.56 538.497,129.68 
					538.597,129.76 538.657,129.85 538.717,129.95 538.717,130.16 538.646,130.37 538.417,130.74 538.087,131.14 537.737,131.51 
					537.667,131.64 537.567,131.93 537.537,132.16 537.457,132.88 537.487,133.48 537.567,133.79 538.777,135.85 538.627,135.94 
					538.297,135.95 538.157,135.92 537.757,135.76 537.307,135.48 536.907,135.2 536.487,134.89 535.856,134.37 535.297,133.96 
					534.877,133.63 534.587,133.34 534.197,132.82 533.937,132.5 533.837,132.41 533.517,132.17 533.317,132.08 532.867,131.93 
					532.327,131.87 531.827,131.89 531.157,132.01 530.587,132.16 530.307,132.26 529.687,132.64 528.987,133.27 528.497,133.62 
					528.197,133.81 519.727,135.89 517.477,135.99 514.356,136.08 499.617,139.48 				"/>
				<polyline fill="none" stroke="#666666" stroke-width="0.25" stroke-linejoin="round" stroke-miterlimit="3.8637" points="
					537.267,124.37 537.396,124.42 537.637,124.39 538.157,124.42 538.947,124.41 540.197,124.2 540.967,123.92 541.407,123.7 
					541.557,123.52 541.977,122.91 542.237,122.6 542.367,122.5 542.467,122.42 542.677,122.35 542.887,122.32 543.217,122.33 
					543.817,122.44 544.646,122.64 544.867,122.65 544.987,122.62 545.077,122.56 545.307,122.23 545.377,122.14 545.587,121.98 
					545.797,121.84 546.097,121.74 546.657,121.58 547.177,121.42 547.767,121.03 548.067,120.88 548.307,120.77 548.787,120.62 
					549.477,120.43 549.896,120.26 550.447,120 551.307,119.53 551.617,119.39 551.837,119.33 552.146,119.32 552.477,119.33 
					553.457,119.51 553.747,119.5 554.087,119.41 554.707,119.18 554.917,119.14 555.007,119.16 555.117,119.21 555.187,119.33 
					555.187,119.42 555.167,119.51 555.117,119.62 554.907,119.91 554.867,120.12 554.917,120.31 554.917,120.4 554.707,120.41 
					554.517,120.39 554.287,120.43 554.167,120.62 554.197,120.73 554.317,120.92 554.407,121.03 554.657,121.21 554.977,121.37 
					555.307,121.46 555.577,121.51 556.057,121.54 556.567,121.6 556.957,121.7 557.517,121.9 558.197,122.23 559.117,122.7 
					559.537,122.84 560.657,123.35 561.997,124.04 563.377,124.6 563.697,124.76 563.887,124.93 564.007,125.12 564.247,126.02 
					564.307,126.37 564.396,126.61 564.637,126.94 564.827,127.14 565.157,127.41 565.867,128.05 566.087,128.18 566.377,128.29 
					566.577,128.41 566.737,128.62 566.827,128.91 566.856,129.08 566.797,129.55 566.677,130 566.396,130.72 566.317,130.93 
					566.277,131.12 566.237,131.35 566.237,131.79 566.317,133.08 566.347,133.87 566.327,134.09 566.277,134.33 566.137,134.74 
					566.067,135.07 566.047,135.17 566.077,135.29 566.187,135.41 567.157,136.23 567.827,136.66 569.517,137.95 570.267,138.62 
					571.387,139.7 572.157,140.27 572.467,140.49 572.737,140.65 573.037,140.71 573.237,140.7 573.847,140.56 574.077,140.56 
					574.177,140.64 574.207,140.8 574.077,141.02 573.827,141.33 573.457,141.64 572.957,141.97 572.677,142.14 572.467,142.24 
					571.787,142.45 571.317,142.64 570.947,142.84 570.606,143.08 570.197,143.38 569.977,143.6 569.487,144.17 568.597,145.79 
					568.367,146.18 568.117,146.71 				"/>
				<polyline fill="none" stroke="#666666" stroke-width="0.25" stroke-linejoin="round" stroke-miterlimit="3.8637" points="
					526.146,209.16 526.297,209.35 526.646,209.77 				"/>
			</g>
		</g>
	</g>
</g>
<path fill="#84B93C" d="M233.04,107.573c-2.64,0-5.28,0-7.92,0c-1.319-0.396-2.274-0.931-4.32-0.96c-2.241,2.144-5.647,3.978-6,7.92
	c-3.809-0.353-10.066-2.344-13.44-3.6c-1.051-0.391-3.365-0.544-3.84-1.44c0-1.2,0-2.4,0-3.6c-0.853-1.369-0.734-11.216-0.72-13.92
	c1.654-0.98,3.431-2.09,5.521-2.64c3.881-1.021,8.291,0.43,11.039,1.44c5.687,2.089,12.327,4.594,19.921,3.12
	c0.134-0.385,0.192-0.577,0.239-1.2c-0.617-0.771-1.167-2.094-1.439-3.12c0.16,0,0.32,0,0.48,0c1.637,2.324,7.33,4.163,7.68,7.2
	c-0.911,1.178-1.294,2.685-2.16,3.84C236.326,102.951,233.566,103.898,233.04,107.573z"/>
<path fill="#84B93C" d="M223.2,149.093c0.297-8.32-0.579-14.396-5.04-18.48c0.235-0.677,0.776-0.899,0.96-1.44
	c1.095-3.224-2.31-4.998-2.399-7.44c-0.08-2.143,2.13-2.852,2.159-6c-0.45-0.157-0.938-0.229-1.68-0.24
	c-0.341,0.23-0.786,0.234-1.44,0.24c-0.129-0.364-0.162-0.407-0.24-0.96c1.955-2.573,2.715-7.027,6.961-7.2
	c2.211,1.588,7.623,0.987,11.279,0.96c1.516-4.573,3.711-5.132,6-8.4c0.603-0.859,0.783-2.574,1.68-3.12c0,0.08,0,0.16,0,0.24
	c1.838,1.756,2.029,4.364,4.561,5.52c2.697,1.231,9.047,0.761,10.32,3.36c0.871,1.379,0.74,6.351,0.72,8.64
	c-4.59,2.982-12.388,8.384-14.399,13.68c-1.082,2.845,0.25,6.425-0.721,8.64c-0.16,0-0.32,0-0.48,0
	c-0.204-0.351-0.434-0.688-0.719-0.96c-0.129-2.171,0.355-4.11,0.239-6.24c-0.239-0.08-0.479-0.16-0.72-0.24
	c-0.682-0.644-1.674-0.46-2.641-0.24c-0.771,2.641-1.854,5.96-3.84,7.44c-2.578,1.921-6.285,3.404-8.16,6
	c-0.427,0.592-1.01,1.721-1.199,2.4c0,1.2,0,2.4,0,3.6c-0.16,0-0.32,0-0.48,0C223.662,149.033,223.693,148.998,223.2,149.093z"/>
<path fill="#84B93C" d="M204.721,135.173c-7.145,0.112-7.994-4.249-9.601-9.6c-0.31-1.032-1.193-2.681-1.2-3.84
	c-0.004-0.732,1.596-2.376,1.92-3.12c1.022-2.346,0.758-5.227,1.68-7.92c3.224,1.226,7.006,2.284,10.561,3.36
	c1.84,0.4,3.68,0.8,5.52,1.2c0.441,0.217,0.571,0.995,0.961,1.2c1.024,0.54,2.739-0.222,3.359,0.72
	c-4.295,4.966,0.063,6.351,0.24,11.76c-0.497,0.308-0.553,0.499-1.2,0.72c-1.161-1.656-4.292-3.298-6.96-3.36
	c-0.854,2.03-3.686,4.228-5.279,5.76C204.721,133.093,204.721,134.133,204.721,135.173z"/>
<path fill="#84B93C" d="M188.16,135.173c3.098-0.112,6.219,0.651,6.96,2.88c2.131,2.247,0.165,6.584-0.479,8.88
	c-0.08,0-0.16,0-0.24,0c-1.172-1.13-1.646-0.02-2.881-0.24c-0.58-0.579-0.209-0.472-1.439-0.48c-0.561,0.4-1.12,0.8-1.68,1.2
	c-0.589,0.792-0.631,1.801-1.2,2.64c-2.56,2.479-5.12,4.96-7.681,7.44c-0.918,0.931-1.285,3.498-2.399,3.84
	c-0.311-0.21-0.593-0.214-1.2-0.24c-0.406,0.95-0.302,1.036-0.24,2.4c-1.412,0.712-4.202,1.349-4.8,2.88
	c-0.452,0.489-0.479,0.92-0.479,1.92c1.98,2.549,1.486,3.342,5.52,4.08c0.768,1.67,1.5,3.467,1.68,5.76
	c-0.861,0.91-1.399,2.112-2.16,3.12c-1.391,1.845-4.106,3.952-6,5.28c-1.846,1.295-4.98,2.233-6.239,4.08
	c-0.8,1.84-1.6,3.68-2.4,5.52c-0.854,1.305-2.448,2.136-3.36,3.36c-1.009,1.354-2.021,2.912-2.88,4.32
	c-0.985,1.616-1.449,4.653-3.12,5.52c-0.73,0.477-2.443,0.544-3.36,0.72c-0.462-0.652-0.783-0.495-1.44-0.96
	c-1.471-1.042-1.556-2.388-3.6-3.36c-0.289-4.33-4.16-10.905-7.44-12.24c-1.533-0.624-3.59,0.479-4.56,0
	c-3.588-1.77-4.686-6.234-6.96-9.36c-0.779-1.071-2.13-1.486-2.64-2.88c2.693-3.5,2.715-10.438,5.04-14.4
	c0.583-0.993,1.801-2.88,2.88-3.36c1.074-0.477,2.496-0.046,3.12-0.96c0.939-1.423,0.964-3.274,1.92-4.56
	c1.759-2.366,5.273-3.532,7.68-5.28c1.073-0.779,1.283-2.07,2.88-2.4c1.976,1.957,10.219-0.442,12.96-1.2
	c6.212-1.717,11.705-2.692,17.04-5.04c4.085-1.798,6.481-5.048,9.84-7.44C185.754,135.934,187.188,135.878,188.16,135.173z"/>
<path fill="#84B93C" d="M189.6,185.813c4.652-0.025,6.931,2.249,10.32,3.36c1.883,0.617,3.498,0.26,5.52,0.24
	c0.007,2.139-1.156,3.801-0.719,5.76c0.101,0.455,0.399,1.908,0.719,2.4c0.24,0.08,0.48,0.16,0.721,0.24
	c0.505,1.225-0.992,2.848-1.2,3.84c0.16,1.44,0.32,2.88,0.479,4.32c-0.224,0.724-1.141,1.458-1.439,2.16
	c-0.723,1.695-0.723,3.411-1.439,5.04c-0.453,1.027-1.482,2.055-1.92,3.12c-0.32,1.84-0.641,3.681-0.961,5.52
	c-0.904,1.77-2.838,1.982-3.119,4.56c3.046,3.038-1.551,8.124-2.881,10.8c-5.041-0.073-7.086,1.822-11.76,1.92
	c-1.82,2.983-4.255,10.017-7.199,11.52c-1.518,0.774-3.695,0.365-5.041,0.72c0,0.24,0,0.48,0,0.72
	c-6.479,0.048-11.941-1.144-18.479-1.2c-0.493-1.23-0.608-3.04-2.4-3.12c-1.494,1.058-3.87,1.945-5.76,2.4
	c0.184-1.904,0.765-4.037,1.2-5.76c0.24-2.08,0.48-4.16,0.72-6.24c1.104-4.487,1.954-9.638,2.88-13.92c-0.08-1.6-0.16-3.2-0.24-4.8
	c0.376-1.476,0.805-3.313,1.44-4.8c0.815-1.908,2.474-3.043,3.6-4.56c1.49-2.005,2.034-4.582,3.36-6.72
	c1.371-2.211,3.577-3.751,5.04-5.76c1.373-1.885,1.724-4.542,3.12-6.48c0.979-1.359,6.236-4.029,7.92-5.28
	c2.654-1.971,4.16-4.917,6.48-7.2c0.067-2.466-0.627-6.282-2.4-6.96c-1.997-1.635-4.297-0.406-4.801-4.32
	c0.304-0.326,0.328-0.424,0.48-0.96c2.037-0.521,4.844-1.3,4.801-4.08c0.56,0,1.119,0,1.68,0c0.481-0.876,0.46-2.215,0.96-3.12
	c1.6-1.52,3.2-3.04,4.8-4.56c2.295-2.294,4.018-5.064,6.24-7.439c0.511,0.163,0.696,0.645,0.96,0.72
	c1.011,0.289,1.11-0.787,1.92-0.48c0.711,0.199,0.655,0.106,0.96,0.72c-0.547,0.958,0.227,3.625,0.48,4.8
	c0.424,1.971-0.425,6.44-0.961,7.92c-0.99,2.737-3.092,5.851-5.279,7.44c-2.238,1.627-3.591,1.219-3.601,5.28
	c-0.181,0.258-0.144,0.227-0.239,0.72C188.148,176.093,188.99,181.176,189.6,185.813z"/>
<path fill="#84B93C" d="M271.68,214.133c1.355-0.076,2.398-0.871,3.84-0.48c3.488,0.946,5.951,5.37,7.44,8.4
	c3.187,0.296,8.274,1.739,9.84,3.84c0.08,0,0.16,0,0.24,0c0,0.08,0,0.16,0,0.24c-0.72,0-1.44,0-2.16,0
	c-0.806-0.522-2.152-0.377-3.12-0.72c-3.025-1.074-9.139-3.681-12.96-1.44c-0.522,0.307-2.132,1.378-2.399,1.92
	c-0.748,1.514,0.136,2.451-1.44,3.12c0,0.08,0,0.16,0,0.24c-0.08,0-0.16,0-0.239,0c0-0.08,0-0.16,0-0.24
	c-1.704-0.447-2.158-1.623-4.08-1.92c-1.022,0.865-2.08,1.867-3.841,1.92c-1.03-0.706-2.366-0.679-3.6-1.2
	c-2.261-0.955-4.734-2.317-7.2-3.12c-2.479-0.48-4.96-0.96-7.439-1.44c-4.165-0.935-6.782,2.024-10.561,0.96
	c-2.503-0.705-4.137-3.091-6.48-4.08c-2.841-1.2-7.338-1.22-10.319-1.92c-2.42-5.073-7.823-6.122-12.479-8.88
	c0.455-0.992,1.377-2.157,1.68-3.12c0.494-1.569-0.697-2.981-0.48-4.32c0.213-1.306,1.652-2.666,1.439-4.08
	c-0.109-0.729-0.933-0.754-1.199-1.2c-0.521-0.871-0.184-6.624,0.48-7.68c0.924-2.449,4.216-3.86,6.479-5.04
	c6.4-3.338,13.644-4.976,19.2-9.12c1.666-1.243,6.158-5.994,5.279-9.36c-0.666-2.557-3.025-5.142-4.8-6.72
	c-0.802-0.713-1.493-0.778-1.92-1.92c0.947-1.027,1.462-2.581,2.64-3.36c4.164-2.753,8.563,1.185,12.961,1.2
	c2.443,0.009,7.921-1.783,9.6-0.72c2.043,0.747,3.795,3.627,5.04,5.28c3.538,4.694,6.804,7.973,8.88,14.4
	c0.596,1.847,0.255,3.352,0.721,5.52c0.223,1.037,0.352,2.896,0,4.32c-1.036,4.186-5.742,8.375-4.32,14.16
	C267.82,203.353,271.582,206.779,271.68,214.133z"/>
<path fill="#84B93C" d="M120.72,182.693c4.883,1.81,5.037,11.597,11.52,12c2.135-1.585,5.085,0.901,6,2.16
	c1.34,1.845,2.552,4.503,3.36,6.72c0.337,0.925,0.009,1.792,0.48,2.64c0.269,0.483,0.982,0.396,1.44,0.72
	c1.849,1.31,2.262,3.851,5.28,4.08c0.34-0.23,0.786-0.234,1.44-0.24c0,0.08,0,0.16,0,0.24c-1.859,1.847-2.897,5.228-3.6,8.16
	c-0.38,1.585,0.453,3.587,0.24,4.8c-0.572,3.259-1.57,7.365-2.4,10.8c-1.566,6.481-1.201,12.823-3.84,18c-0.08,0-0.16,0-0.24,0
	c-0.71-7.159-5.273-15.778-8.4-20.88c-1.432-2.336-2.509-5.546-4.8-6.96c-0.935-0.577-2.703-0.169-3.6-0.72
	c-1.026-1.233-0.435-2.182-2.88-2.16c-0.34,0.23-0.786,0.234-1.44,0.24c-0.837-1.092-4.195-4.498-5.28-5.28
	c-0.801-0.577-1.804-0.627-2.64-1.2c-2.597-1.778-3.567-6.174-5.28-8.88c-0.694-1.096-2.141-1.907-2.64-3.12
	c2.52-0.423,3.419-2.476,4.56-4.32c1.761-2.846,3.298-5.999,5.28-8.64C115.462,187.945,119.473,186.566,120.72,182.693z"/>
<path fill="#84B93C" d="M35.04,289.252c-0.692-10.829,1.817-21.684,2.64-31.92c-1.49-0.922-2.764-1.921-4.8-2.4
	c-4.567-1.075-8.226,1.967-12.72,0.96c-7.383-1.655-10.898-5.677-15.6-9.84c-2.103-1.862-4.278-3.009-4.56-6.72
	c0.16,0,0.32,0,0.48,0c1.779-0.956,6.365,1.742,9.6,0.96c3.991-0.965,5.651-4.199,9.36-5.28c4.584-1.336,9.272,2.376,13.44,1.2
	c1.36-0.72,2.72-1.44,4.08-2.16c1.921-0.437,3.305,1.729,5.52,1.2c2.281-0.544,4.028-2.125,6-2.88c1.747-0.668,5.76,0.72,5.76,0.72
	c1.134-0.359,1.949-1.349,2.88-1.92c1.464-0.898,2.928-1.2,4.56-1.92c2.14-0.944,4.294-2.458,6.24-3.6
	c2.131-1.25,4.447-1.027,4.56-4.32c-1.586-2.09-0.673-5.078,1.44-6c0.96-0.08,1.92-0.16,2.88-0.24c1.196-0.412,1.239-1.67,2.88-1.92
	c-0.083-6.749,3.658-7.443,8.4-9.36c1.308-0.529,3.789-2.125,5.76-1.68c2.005,0.453,3.521,2.028,5.28,2.64
	c1.33,0.462,2.388-0.323,3.12,0c3.183,1.177,4.071,5.634,5.76,8.4c1.749,2.865,2.731,2.75,5.28,4.56
	c3.094,2.196,3.384,5.665,8.64,5.28c0.345,0.977,0.422,1.792,1.44,2.16c0.838,0.553,2.476,0.174,3.36,0.72
	c2.425,1.497,3.533,5.199,5.04,7.68c3.055,5.03,7.068,12.802,7.68,19.92c-3.787,1.618-7.426,3.458-10.56,5.76
	c-2.528,1.857-4.653,4.66-7.68,6c-5.811,2.572-13.431,2.338-18.48,5.52c-4.836,3.047-7.801,8.281-12.72,11.28
	c-1.411,0.86-6.363,2.465-8.88,1.92c-1.536-0.332-4.599-1.345-6.48-0.72c-1.923,0.639-3.492,3.634-4.8,5.04
	c-7.839,0-15.681,0-23.52,0c-0.322,0.443-0.89,0.552-1.2,0.96c-0.58,0.762-0.73,2.026-1.44,2.64
	C41.461,293.811,37.962,289.379,35.04,289.252z"/>
<path fill="#84B93C" d="M337.68,250.132c-3.328-0.018-6.332-1.069-6.72-4.08c0.862-0.18,1.042-0.893,1.92-0.72
	c2.937,0.578,6.952,3.568,9.36,5.04c5.188,3.17,10.59,4.728,18.96,4.8c0.25,0.847,0.474,1.328,0.479,2.64
	c-0.479,2.479-0.959,4.96-1.439,7.44c-2.063,6.28-4.163,12.055-5.76,19.2c-0.544,2.432-0.106,6.311,0.479,8.161
	c0.466,1.469,1.896,3.529,1.2,6c-0.512,1.813-1.775,3.869-2.4,5.76c-1.177,3.564-1.615,6.912-2.88,10.32
	c-0.673,1.814-1.935,3.4-2.159,5.52c3.478,2.746,3.506,12.117,2.159,17.52c-2.052,8.236-0.788,18.289,0.96,26.4
	c1.125,5.215-2.682,8.891-1.439,14.16c0.543,2.307,2.744,7.723,4.32,8.879c2.527,1.857,6.08,2.471,8.639,4.32
	c2.007,1.451,3.17,4.389,4.561,6.48c4.354,6.545,7.605,11.713,7.68,22.799c-1.531,1.029-2.729,2.85-3.84,4.32
	c-2.354,3.117-5.099,5.254-6.96,9.121c-4.287,0.172-12.29,4.523-14.159,6.959c-1.076,1.402-2.096,3.135-3.601,4.08
	c-2.85,1.789-7.274,1.617-10.08,3.359c-2.915,1.813-4.94,4.963-7.92,6.721c-6.175,3.646-14.313,5.047-21.601,7.439
	c-4.635,1.523-9.695,3.287-14.159,5.041c-0.883,0.346-4.926,1.777-5.04,1.68c-1.754-1.92,0.566-4.967,1.199-6.721
	c0.08-0.879,0.16-1.76,0.24-2.639c0.402-0.525,2.524-0.641,3.12-0.961c1.06-0.568,1.921-1.871,2.88-2.4c2-0.398,4-0.799,6-1.199
	c6.943-2.908,11.286-9.264,17.521-12.961c0-0.078,0-0.158,0-0.238c-6.245-0.826-11.771,0.582-17.761,0.719
	c-6.227-16.475-14.361-31.859-21.359-47.76c-2.117-4.811-4.715-9.859-7.2-14.639c-1.085-2.09-2.909-4.156-3.12-6.961
	c0.867-1.111,0.936-2.852,1.68-4.08c2.021-3.332,4.277-6.053,5.281-10.561c0.795-3.574-2.483-11.408-3.361-14.158
	c-0.783-2.459-1.986-8.717-0.959-11.76c0.31-0.92,1.025-1.156,1.199-2.4c-0.514-0.68-0.495-1.609-0.959-2.4
	c-1.668-2.838-3.648-5.379-4.801-8.881c-1.539-4.68-1.514-9.939-3.359-14.16c-1.424-3.252-4.222-4.16-5.76-6.479
	c-0.809-1.219-0.178-3.23-0.721-4.801c-0.579-1.675-2.371-2.773-3.6-3.84c-0.24-3.04-0.48-6.081-0.721-9.12
	c-5.951,0.465-10.965-0.831-16.08-2.16c-1.949-0.507-5.652-1.398-8.399-0.72c-1.601,0.395-3.224,1.501-4.8,1.92
	c-2.639,0.701-5.824-0.688-7.68-1.2c-1.789-0.494-3.203-0.234-5.041-0.72c-2.262-0.599-4.846-1.371-7.199-1.92
	c-3.451-0.805-10.027,0.128-12.721,0.72c-3.143,0.69-13.217,0.671-16.32,0c-3.525-0.762-7.239,0.475-10.319-0.48
	c-2.849-0.883-4.834-4.057-6.48-6.24c-1.285-1.704-2.771-2.202-3.12-5.04c0.26-0.218,0.021,0.019,0.24-0.24
	c1.289-0.136,2.31-0.693,3.36-0.959c1.179-0.299,2.833,0.257,3.36,0c2.486-1.761,3.941-5.219,5.76-7.68
	c1.01-1.368,2.539-1.978,2.88-4.08c7.226-0.276,8.818-7.301,11.28-12.24c3.11,0.024,4.884-1.036,7.199-1.68
	c1.68-0.08,3.361-0.16,5.041-0.24c0.416-3.173,2.961-4.864,3.84-7.68c0.729-2.339-0.789-3.522-0.721-5.04
	c1.02-0.989,2.616-2.433,3.12-3.84c0.16-1.44,0.32-2.88,0.479-4.32c0.254-0.765,2.879-6.198,3.361-6.72
	c2.34,2.172,6.523,2.695,9.119,4.56c1.387,0.996,1.715,3.432,3.36,4.08c2.249,1.525,6.662,0.69,9.36,1.68
	c2.615,0.959,4.354,3.486,6.959,4.32c2.477,0.792,5.35-0.572,6.961-0.959c2.113-0.508,4.975,0.037,6.72,0.48
	c2.9,0.735,5.802,1.28,8.399,2.4c2.686,1.157,5.32,2.807,8.881,3.12c0.516-0.835,1.241-1.706,2.399-1.92
	c1.349-0.077,2.688,2.363,4.8,1.68c0.227,4.254,7.47,6.64,9.12,9.84c1.415,2.742,0.53,9.192,4.32,9.36
	c0.485-0.31,8.405-1.373,9.36-0.96c0.825,0.357,0.59,0.875,2.16,0.96c1.607-1.272,5.139-1.411,7.439-0.72
	c4.611,1.386,8.786,3.372,13.68,4.56c4.384,1.064,7.298-1.201,10.561-1.68c1.32,2.022,4.116,2.567,7.199,2.16
	c0.566-0.751,1.469-1.735,2.16-2.4C337.68,250.772,337.68,250.453,337.68,250.132z"/>
<text transform="matrix(1 0 0 1 89.8423 542.9946)" font-family="'MyriadPro-Regular'" font-size="24">Gouvernorat de Mdenine</text>
<text transform="matrix(1 0 0 1 273.9834 322.1255)" font-family="'MyriadPro-Regular'" font-size="12">Ben Gardane</text>
<text transform="matrix(1 0 0 1 45.3433 257.1353)" font-family="'MyriadPro-Regular'" font-size="12">Beni Khedech</text>
<text transform="matrix(1 0 0 1 63.1489 211.5137)" font-family="'MyriadPro-Regular'" font-size="12">Mdenine Nord</text>
<text transform="matrix(1 0 0 1 156.0713 225.4839)" enable-background="new    "><tspan x="0" y="0" font-family="'MyriadPro-Regular'" font-size="12">Mdenine </tspan><tspan x="0" y="14.4" font-family="'MyriadPro-Regular'" font-size="12">Sud</tspan></text>
<text transform="matrix(1 0 0 1 226.2646 200.3003)" font-family="'MyriadPro-Regular'" font-size="12">Zarzis</text>
<text transform="matrix(1 0 0 1 98.4307 177.1152)" font-family="'MyriadPro-Regular'" font-size="12">Sidi Makhlouf</text>
<text transform="matrix(1 0 0 1 176.8877 94.0176)" font-family="'MyriadPro-Regular'" font-size="12">Djerba-Houmet Souk</text>
<text transform="matrix(1 0 0 1 231.1592 120.1338)" font-family="'MyriadPro-Regular'" font-size="12">Djerba-Midoun</text>
<text transform="matrix(1 0 0 1 153.0625 124.9883)" font-family="'MyriadPro-Regular'" font-size="12">Djerba-Ajim</text>
</svg>
