<?xml version="1.0" encoding="utf-8"?>
<!-- Generator: Adobe Illustrator 13.0.0, SVG Export Plug-In . SVG Version: 6.00 Build 14948)  -->
<!DOCTYPE svg PUBLIC "-//W3C//DTD SVG 1.0//EN" "http://www.w3.org/TR/2001/REC-SVG-20010904/DTD/svg10.dtd">
<svg version="1.0" id="Calque_1" xmlns="http://www.w3.org/2000/svg" xmlns:xlink="http://www.w3.org/1999/xlink" x="0px" y="0px"
	 width="541.65px" height="521.416px" viewBox="0 0 541.65 521.416" enable-background="new 0 0 541.65 521.416"
	 xml:space="preserve">
<g id="XMLID_1_">
	<g>
		<g id="XMLID_2_">
			<g>
				<polygon fill="#84B93B" points="503.9,32.82 503.71,32.49 503.68,32.38 503.65,32.17 503.62,31.71 503.66,30.93 503.71,30.58 
					503.75,30.06 503.9,29.16 504.17,28.29 504.17,28.17 504.25,27.94 504.46,27.55 504.55,27.31 503.93,26.83 503.891,26.73 
					504.12,26.28 504.351,25.9 504.43,25.8 504.94,24.91 505.12,24.55 505.33,24 505.38,23.76 505.4,23.37 505.51,23.11 
					505.79,23.07 506.04,23.02 506.69,22.79 507.05,22.57 507.16,22.69 507.04,22.84 507.08,22.92 507.25,22.89 507.351,22.8 
					507.19,22.54 507.22,22.5 508.38,22.06 508.63,21.87 508.76,21.69 508.9,21.25 509.11,20.83 509.18,20.34 509.32,20.07 
					509.37,19.69 509.42,19.51 509.65,19.42 509.69,19.3 509.66,19.06 510.04,18.96 510.29,18.75 510.34,18.57 510.47,18.54 
					510.67,18.71 511.55,18.45 511.83,18.55 512.5,18.52 512.771,18.45 513.07,18.36 513.37,18.19 513.521,18.12 513.8,17.92 
					514.33,17.43 514.78,16.99 515.22,16.9 515.48,16.59 515.59,16.54 515.65,16.41 515.8,16.46 516.25,16.15 516.44,16 
					516.76,15.67 516.87,15.64 517.09,15.39 517.271,14.98 517.57,15.03 517.66,14.94 517.67,14.62 517.49,14.41 517.57,14.35 
					517.55,14.25 517.48,14.17 517.55,14.04 517.54,13.9 517.58,13.84 517.67,13.86 517.73,13.98 517.87,13.92 518.13,13.84 
					518.29,13.83 518.48,13.74 518.83,13.74 519.05,13.83 519.82,13.54 520.09,13.32 520.38,13.21 520.51,13.12 520.55,12.99 
					520.521,12.82 520.601,12.75 520.73,12.88 520.83,12.88 520.84,12.99 520.84,13.02 520.99,13.14 521.09,13.09 521.15,13.17 
					521.17,13.39 521.271,13.56 521.53,13.79 521.561,13.95 521.5,14.02 521.32,14.01 521.22,14.1 521.141,14.65 521.18,14.98 
					521.33,15.34 521.63,15.79 522.04,16.38 522.4,18.12 522.58,18.37 522.88,18.58 522.94,18.79 522.91,18.96 522.87,19.17 
					522.63,19.73 522.46,19.86 522.22,19.86 521.601,20.11 521.38,20.32 521.2,20.41 521.13,20.48 520.601,20.94 520.38,21.27 
					520.061,21.6 519.54,22.27 518.891,23.28 518.26,24.45 517.73,24.99 517.101,26.29 517.08,26.32 516.91,26.5 516.561,27.25 
					516.311,27.79 515.86,29.07 515.29,30.21 515.13,30.37 515.04,30.42 514.84,30.49 514.76,30.58 514.54,30.54 514.38,30.61 
					514.24,30.6 513.68,30.79 513.44,30.81 513.311,30.91 513.23,30.91 513.01,30.91 512.68,31.11 512.141,31.3 511.76,31.54 
					511.4,31.87 511.15,31.9 511.061,32.01 510.88,31.96 510.7,32.1 510.46,32.14 510.05,31.92 509.98,31.9 509.72,31.9 
					509.47,32.04 509.11,32.32 508.7,32.76 508.311,33.39 508.04,32.89 507.88,32.73 507.67,32.68 507.351,32.7 507.25,32.76 
					506.92,33.12 506.8,33.19 506.71,33.19 506.59,33.15 506.29,32.83 506.08,32.67 504.851,32.86 504.65,32.94 504.34,33 
					504.12,32.97 				"/>
			</g>
			<g>
				<polygon fill="none" stroke="#666666" stroke-width="0.25" stroke-linejoin="round" stroke-miterlimit="3.8637" points="
					469.93,0.25 470.021,0.27 470.15,0.42 470.33,0.54 470.351,0.71 470.18,0.88 470.09,0.91 469.88,0.82 469.22,1.02 468.97,0.96 
					468.92,0.88 468.95,0.78 469.3,0.55 469.67,0.52 469.76,0.48 469.83,0.33 				"/>
				<polygon fill="none" stroke="#666666" stroke-width="0.25" stroke-linejoin="round" stroke-miterlimit="3.8637" points="
					490.391,9.29 490.391,9.15 490.55,8.85 490.67,8.73 490.83,8.71 490.78,8.98 490.67,9.15 				"/>
				<polygon fill="none" stroke="#666666" stroke-width="0.25" stroke-linejoin="round" stroke-miterlimit="3.8637" points="
					514.78,11.96 514.7,11.91 514.72,11.7 514.9,11.56 514.93,11.4 515.061,11.35 515.17,11.61 515.38,11.88 515.271,11.96 				"/>
				<polygon fill="none" stroke="#666666" stroke-width="0.25" stroke-linejoin="round" stroke-miterlimit="3.8637" points="
					516.79,12.21 516.82,12.3 516.74,12.36 516.65,12.3 516.68,12.23 				"/>
				<polygon fill="none" stroke="#666666" stroke-width="0.25" stroke-linejoin="round" stroke-miterlimit="3.8637" points="
					520.49,48.79 520.34,48.76 520.28,48.67 520.33,48.58 520.51,48.36 520.75,48.37 520.87,48.63 520.72,48.73 				"/>
				<polygon fill="none" stroke="#666666" stroke-width="0.25" stroke-linejoin="round" stroke-miterlimit="3.8637" points="
					520.04,49.53 519.851,49.3 519.94,49.21 520.061,49.26 520.101,49.35 				"/>
				<polygon fill="none" stroke="#666666" stroke-width="0.25" stroke-linejoin="round" stroke-miterlimit="3.8637" points="
					520.83,53.1 520.67,53.01 520.34,52.92 520.28,52.84 520.311,52.75 520.55,52.83 520.851,53.04 				"/>
				<polygon fill="none" stroke="#666666" stroke-width="0.25" stroke-linejoin="round" stroke-miterlimit="3.8637" points="
					527.33,75.76 527.2,75.72 527.15,75.6 527.11,75.48 527.23,75.45 527.42,75.66 527.78,75.82 527.63,75.88 527.45,75.87 				"/>
				<polygon fill="none" stroke="#666666" stroke-width="0.25" stroke-linejoin="round" stroke-miterlimit="3.8637" points="
					525.07,76.36 524.95,76.26 524.98,76.2 525.12,76.18 525.23,76.32 525.33,76.42 525.28,76.46 				"/>
				<polygon fill="none" stroke="#666666" stroke-width="0.25" stroke-linejoin="round" stroke-miterlimit="3.8637" points="
					527.13,77.25 527.09,77.28 526.9,77.16 526.79,77.04 526.79,76.96 526.87,76.95 526.91,77.07 				"/>
				<polygon fill="none" stroke="#666666" stroke-width="0.25" stroke-linejoin="round" stroke-miterlimit="3.8637" points="
					527.18,77.74 527.141,77.56 527.22,77.43 527.42,77.31 527.891,77.32 527.93,77.38 527.9,77.44 527.62,77.44 527.391,77.5 
					527.24,77.71 				"/>
				<polygon fill="none" stroke="#666666" stroke-width="0.25" stroke-linejoin="round" stroke-miterlimit="3.8637" points="
					523.811,78.13 523.78,78.07 523.73,77.92 523.75,77.92 523.78,77.83 523.93,77.88 523.96,77.41 523.87,77.29 523.91,77.25 
					524.11,77.34 524.141,77.58 524.22,77.67 524.62,77.82 524.97,77.79 525.16,77.89 525.2,77.86 525.17,77.76 525.13,77.65 
					525.29,77.58 525.23,77.4 525.28,77.08 525.16,76.96 525.05,76.84 525.01,76.79 525.01,76.68 525.23,76.69 525.28,76.66 
					525.63,76.36 525.58,76.2 525.55,76.05 525.7,75.87 525.63,75.79 525.61,75.69 525.72,75.57 525.72,75.45 525.88,75.51 
					526.08,75.6 526.24,75.88 526.28,75.98 526.3,76.03 526.38,76.12 526.43,76.12 526.49,76.06 526.49,75.9 526.33,75.81 
					526.391,75.71 526.49,75.72 526.7,75.9 526.96,75.9 527.42,76.15 527.391,76.23 527.23,76.23 527.08,76.11 526.96,76.11 
					526.78,76.21 526.79,76.35 526.73,76.38 526.69,76.46 526.73,76.53 526.73,76.68 526.76,76.74 526.67,76.81 526.54,76.86 
					526.45,76.77 526.43,76.99 526.45,77.17 526.79,77.41 526.97,77.61 527.05,77.82 527.05,78.01 527,78.09 526.67,78.09 
					526.521,78.13 526.33,78.27 526.13,78.43 525.87,78.43 525.851,78.58 525.771,78.64 524.811,78.98 524.51,79.03 523.99,79.29 
					523.9,79.41 523.88,79.44 523.75,79.53 523.51,79.6 523.271,79.77 523.01,79.84 522.87,79.96 522.82,79.95 522.79,79.95 
					522.76,79.62 522.94,79.35 522.97,79.17 523.04,79 523.21,78.93 523.38,78.79 523.54,78.46 523.79,78.21 523.83,78.18 				"/>
				<polygon fill="none" stroke="#666666" stroke-width="0.25" stroke-linejoin="round" stroke-miterlimit="3.8637" points="
					520.19,80.96 520.08,80.94 519.851,80.82 519.55,80.56 519.141,80.38 519.04,80.32 519.37,79.98 519.41,79.93 519.58,79.86 
					520.78,79.8 520.94,79.89 521.15,79.8 521.48,79.8 521.9,79.79 522.04,79.87 522.41,79.89 522.63,79.95 522.61,80.08 
					522.61,80.16 522.561,80.19 522.25,80.25 521.69,80.65 521.17,81.18 521.04,81.18 520.93,81.24 520.91,81.37 520.87,81.4 
					520.57,81.07 520.43,80.98 				"/>
				<polygon fill="none" stroke="#666666" stroke-width="0.25" stroke-linejoin="round" stroke-miterlimit="3.8637" points="
					514.21,107.16 514.33,107.19 514.38,107.37 514.3,107.41 				"/>
				<polygon fill="none" stroke="#666666" stroke-width="0.25" stroke-linejoin="round" stroke-miterlimit="3.8637" points="
					517.72,107.38 517.391,107.52 517.15,107.74 517.08,107.86 516.94,108.75 516.8,108.66 516.561,108.03 516.58,107.85 
					516.73,107.61 516.82,107.43 516.72,107.23 516.58,106.99 515.68,105.93 515.51,105.87 515.271,105.85 515.141,105.9 
					514.93,106.08 514.79,106.14 514.641,106.23 514.57,106.53 514.57,106.81 514.24,106.73 514.101,106.81 513.97,106.83 
					513.82,106.73 513.59,106.35 513.46,106.26 513.33,105.81 513.141,105.48 513.2,105.27 513.2,104.98 513.2,104.92 
					513.34,104.77 513.521,104.46 513.58,104.22 513.55,103.35 513.58,103.17 513.5,102.64 513.55,102.43 513.58,102.31 
					513.5,101.82 513.561,101.71 513.72,101.64 513.891,101.56 514.43,101.44 514.69,101.35 515.29,101.41 515.62,101.5 
					516.43,101.85 516.82,101.94 517.601,101.94 518.04,102.09 518.11,101.88 518.05,101.68 518.05,101.55 518.22,101.56 
					518.26,101.56 518.45,101.73 518.95,102.33 519.25,102.58 520.22,103.27 520.84,103.29 521.05,103.3 521.23,103.39 
					521.3,103.54 521.18,103.79 521.24,103.89 521.391,104.21 521.32,104.29 521.24,104.29 521.09,104.14 521.05,104.21 
					521.11,104.31 521.26,104.38 521.3,104.46 521.3,104.67 521.26,104.71 521.021,104.7 520.641,104.88 520.34,105.23 
					520.28,105.3 519.61,105.57 519.59,105.58 519.521,105.61 519.351,105.78 519.2,106.11 519.101,106.62 519.08,107.22 
					518.97,107.35 518.93,107.19 518.891,106.95 518.95,106.47 518.86,106.26 518.771,106.15 518.601,106.23 518.45,106.42 
					518.18,107.02 518,107.1 518,107.11 				"/>
				<polygon fill="none" stroke="#666666" stroke-width="0.25" stroke-linejoin="round" stroke-miterlimit="3.8637" points="
					516.49,109.84 516.44,109.57 516.5,109.53 516.58,109.53 516.63,109.62 516.58,109.74 				"/>
				<polygon fill="none" stroke="#666666" stroke-width="0.25" stroke-linejoin="round" stroke-miterlimit="3.8637" points="
					514.99,112.06 515.11,112.23 515.13,112.35 514.99,112.53 514.91,112.48 514.94,112.35 514.91,112.18 514.87,112.11 
					514.87,112.05 				"/>
				<polygon fill="none" stroke="#666666" stroke-width="0.25" stroke-linejoin="round" stroke-miterlimit="3.8637" points="
					522.97,115.86 522.58,115.23 522.61,115.09 523.04,115.57 523.08,115.71 				"/>
				<polyline fill="none" stroke="#666666" stroke-width="0.25" stroke-linejoin="round" stroke-miterlimit="3.8637" points="
					427.9,16.84 428.271,16.47 428.63,16.18 428.86,15.9 429.141,15.45 429.28,14.86 429.23,14.58 429.04,14.4 428.97,14.25 
					428.41,13.96 428.15,13.77 428,13.74 427.88,13.62 				"/>
				<polyline fill="none" stroke="#666666" stroke-width="0.25" stroke-linejoin="round" stroke-miterlimit="3.8637" points="
					427.9,13.03 428.2,12.82 428.47,12.9 428.69,12.9 429.05,13 429.23,13.15 429.47,13.23 429.47,13.24 429.55,13.35 429.74,13.35 
					429.87,13.29 429.95,13.15 429.92,13.05 430.21,13 430.4,13.09 430.87,13.32 431.09,13.39 431.33,13.38 431.68,13.23 
					431.92,13.24 432.04,13.12 432.021,12.94 432.19,12.91 432.25,12.85 432.4,12.88 432.49,12.98 432.61,13 432.5,13.24 
					432.34,13.44 432.351,13.56 432.55,13.77 432.68,13.83 432.8,13.89 432.95,14.07 433.101,14.1 433.51,14.07 433.851,13.96 
					434.29,13.92 434.53,13.93 434.83,14.04 435.141,14.05 435.29,14.11 435.58,14.35 435.8,14.65 435.97,14.79 436.34,15.06 
					436.47,15.34 437.47,16.02 437.811,16.15 438.141,16.21 438.311,16.17 438.58,16.18 438.851,15.93 438.91,15.81 438.97,15.84 
					438.94,15.91 439.04,16.03 439.3,16.08 439.391,15.99 439.48,16 439.55,16.14 439.78,16.29 439.9,16.23 439.97,16.23 
					440.021,16.54 440.08,16.62 440.24,16.59 440.47,16.48 441.29,16.42 441.58,16.36 441.641,16.3 441.8,16.14 441.94,16.08 
					442.08,16.08 442.16,16.14 442.16,16.23 441.95,16.42 441.92,16.59 441.76,16.68 441.521,17.19 441.54,17.31 441.891,17.82 
					441.92,17.92 441.79,18.1 441.521,18.51 441.521,18.63 441.73,18.81 442.061,19.11 442.311,19.27 443.63,19.62 444.76,19.62 
					445.66,19.5 445.811,19.51 446,19.63 446.05,19.48 446.5,19.29 448.061,18.87 448.75,18.48 449.24,18.33 449.41,18.25 
					449.601,18.15 450.28,17.71 450.92,17.49 451.3,17.26 451.72,17.07 451.99,16.87 452.3,16.83 452.59,16.63 452.71,16.6 
					452.75,16.6 452.92,16.59 452.99,16.71 453.01,16.96 453.101,17.02 453.521,17.08 453.61,17.14 453.63,17.23 453.58,17.38 
					453.641,17.44 454.061,17.56 454.83,17.49 455.08,17.43 455.29,17.43 455.38,17.48 455.72,17.46 455.75,17.44 455.98,17.4 
					456.19,17.55 456.83,17.53 457.01,17.67 457.271,18.01 457.58,18.06 457.811,17.97 457.94,17.98 458.11,18.07 458.3,18.03 
					458.47,18.06 458.65,17.97 459.16,17.92 459.47,17.88 459.8,17.71 460.08,17.55 460.42,17.41 460.47,17.4 460.48,17.4 
					461.69,17.07 461.88,16.87 461.97,16.87 462.141,17.02 462.54,16.98 462.72,16.83 				"/>
				<polyline fill="none" stroke="#666666" stroke-width="0.25" stroke-linejoin="round" stroke-miterlimit="3.8637" points="
					533.351,121.77 533.63,122.01 533.98,122.29 534.44,123.01 534.79,123.21 535.08,123.24 535.24,123.49 535.55,123.64 
					536.11,123.79 536.45,123.78 538.18,124.17 538.63,124.2 539.08,124.3 539.13,124.05 538.73,123.87 538.21,123.72 
					537.95,123.49 537.46,123.3 537.23,123.25 537.04,123.34 536.71,123.1 536.48,122.98 536.38,122.76 536.8,122.94 537.12,123.04 
					537.92,123.31 538.42,123.51 538.63,123.67 539.29,124 540.43,124.44 541.19,124.74 541.4,124.87 				"/>
				<polyline fill="none" stroke="#666666" stroke-width="0.25" stroke-linejoin="round" stroke-miterlimit="3.8637" points="
					500.26,11.98 500.29,11.97 500.42,11.64 500.351,11.38 500.391,11.25 500.51,11.32 500.58,11.67 500.63,11.77 500.63,11.79 
					500.811,11.96 501.26,12.18 501.311,12.27 501.34,12.48 501.23,12.66 501.07,12.69 500.97,12.66 500.95,12.6 501.05,12.43 
					501.021,12.36 500.86,12.29 500.78,12.27 500.53,12.36 500.141,12.42 500.04,12.55 500.08,12.6 500.15,12.6 500.32,12.51 
					500.08,12.9 499.83,13.56 499.84,13.98 499.7,13.84 499.62,13.87 499.76,14.08 499.69,14.16 499.73,14.21 499.83,14.17 
					499.9,14.22 500.021,14.53 500.021,14.59 500.05,14.82 500.37,15.51 500.8,16.06 501.72,16.86 502.22,17.22 502.311,17.25 
					502.51,17.34 502.521,17.34 503.11,17.46 503.22,17.55 503.3,17.68 503.24,17.8 503.23,17.83 503.3,18.1 503.41,18.25 
					503.54,18.33 503.63,18.37 503.68,18.4 503.78,18.48 504.101,18.71 504.13,18.84 504.12,18.94 503.84,19 503.68,19.27 
					503.48,19.44 503.47,19.65 503,20.29 502.94,20.48 502.72,20.52 502.79,20.65 502.54,20.74 502.45,20.83 502.4,21.01 
					502.67,21.51 502.66,21.57 503.04,22 503.37,22.41 503.561,22.54 503.72,22.66 504.23,22.92 504.43,22.99 504.47,23.01 
					504.88,23.11 505.28,23.14 505.51,23.11 505.79,23.07 506.04,23.02 506.69,22.79 507.05,22.57 507.16,22.69 507.04,22.84 
					507.08,22.92 507.25,22.89 507.351,22.8 507.19,22.54 507.22,22.5 508.38,22.06 508.63,21.87 508.76,21.69 508.9,21.25 
					509.11,20.83 509.18,20.34 509.32,20.07 509.37,19.69 509.42,19.51 509.65,19.42 509.69,19.3 509.66,19.06 510.04,18.96 
					510.29,18.75 510.34,18.57 510.47,18.54 510.67,18.71 511.55,18.45 511.83,18.55 512.5,18.52 512.771,18.45 513.07,18.36 
					513.37,18.19 513.521,18.12 513.8,17.92 514.33,17.43 514.78,16.99 515.22,16.9 515.48,16.59 515.59,16.54 515.65,16.41 
					515.8,16.46 516.25,16.15 516.44,16 516.76,15.67 516.87,15.64 517.09,15.39 517.271,14.98 517.57,15.03 517.66,14.94 
					517.67,14.62 517.49,14.41 517.57,14.35 517.55,14.25 517.48,14.17 517.55,14.04 517.54,13.9 517.58,13.84 517.67,13.86 
					517.73,13.98 517.87,13.92 518.13,13.84 518.29,13.83 518.48,13.74 518.83,13.74 519.05,13.83 519.82,13.54 520.09,13.32 
					520.38,13.21 520.51,13.12 520.55,12.99 520.521,12.82 520.601,12.75 520.73,12.88 520.83,12.88 520.84,12.99 520.84,13.02 
					520.99,13.14 521.09,13.09 521.15,13.17 521.17,13.39 521.271,13.56 521.53,13.79 521.561,13.95 521.5,14.02 521.32,14.01 
					521.22,14.1 521.141,14.65 521.18,14.98 521.33,15.34 521.63,15.79 522.04,16.38 522.4,18.12 522.58,18.37 522.88,18.58 
					522.94,18.79 522.91,18.96 522.87,19.17 522.63,19.73 522.46,19.86 522.22,19.86 521.601,20.11 521.38,20.32 521.2,20.41 
					521.13,20.48 520.601,20.94 520.38,21.27 520.061,21.6 519.54,22.27 518.891,23.28 518.26,24.45 517.73,24.99 517.101,26.29 
					517.08,26.32 516.91,26.5 516.561,27.25 516.311,27.79 515.86,29.07 515.29,30.21 515.13,30.37 515.04,30.42 514.84,30.49 
					514.76,30.58 514.54,30.54 514.38,30.61 514.24,30.6 513.68,30.79 513.44,30.81 513.311,30.91 513.23,30.91 513.01,30.91 
					512.68,31.11 512.141,31.3 511.76,31.54 511.4,31.87 511.15,31.9 511.061,32.01 510.88,31.96 510.7,32.1 510.46,32.14 
					510.05,31.92 509.98,31.9 509.72,31.9 509.47,32.04 509.11,32.32 508.7,32.76 508.311,33.39 508.13,33.66 507.88,34.17 
					507.76,34.53 507.49,35.21 507.29,35.76 506.95,37.69 506.92,38.31 506.891,38.8 506.9,39.39 507.34,41.77 507.61,42.03 
					507.74,42.1 507.98,42.15 508.08,42.19 508.18,42.33 508.22,42.58 508.16,42.78 508.25,42.94 508.24,43.15 508.3,43.42 
					508.96,44.49 509.38,44.89 510.07,45.91 510.08,46.09 510.101,46.21 510.17,46.39 510.44,46.69 510.67,47.16 510.73,47.26 
					511.24,47.71 511.34,48.19 511.51,48.33 512.23,48.9 512.24,48.9 512.72,49.15 512.93,49.33 513.12,49.44 513.561,49.46 
					513.8,49.39 513.891,49.38 514.42,49.14 514.57,49.02 514.76,49.06 515.021,48.94 515.17,49.02 515.58,49.06 515.66,49.21 
					515.84,49.35 515.891,49.46 515.54,50.04 515.54,50.21 515.62,50.4 515.601,50.52 515.51,50.4 515.42,50.38 515.38,50.43 
					515.38,50.77 515.42,51.01 515.54,51.21 515.771,51.37 516.29,51.63 516.49,51.69 516.59,51.66 516.771,51.88 517.03,51.98 
					517.19,52.08 517.76,52.2 518.51,52.38 518.78,52.51 519.16,52.53 519.33,52.59 519.44,52.8 519.76,52.89 519.91,53.04 
					520.55,53.14 520.87,53.31 520.9,53.46 520.88,53.58 520.79,54.01 520.57,54.42 520.51,54.87 520.51,55.09 520.51,55.33 
					520.58,55.63 520.87,56.31 521.13,56.53 521.32,56.59 521.68,56.58 521.71,56.67 521.5,56.83 521.271,56.92 521.18,57.07 
					520.73,58.73 520.87,59.55 520.88,59.71 520.58,60.04 520.55,60.49 520.58,61 520.641,61.39 520.69,61.48 520.84,61.81 
					521.69,62.74 521.891,63 522.34,63.37 522.37,63.42 522.47,63.52 522.63,63.71 523.08,64.06 523.12,64.08 523.51,64.27 
					523.55,64.35 523.55,64.41 523.55,64.42 523.55,64.48 523.55,64.5 523.49,64.48 523.42,64.53 523.12,64.53 522.771,64.51 
					522.65,64.59 522.34,65.04 522.37,65.29 522.25,65.44 521.78,66.1 521.8,66.33 521.62,66.42 521.42,66.39 521.24,66.46 
					521.11,66.46 520.94,66.55 520.38,67.69 520.311,68.01 520.33,68.31 520.45,68.53 520.47,68.59 520.391,68.7 520.33,69.42 
					520.24,69.69 520.01,70.03 519.88,70.36 519.49,70.59 518.99,70.9 518.63,71.14 518.18,71.52 518,71.67 517.9,71.97 
					517.88,72.58 517.93,72.81 517.88,73.05 517.94,73.48 517.84,74.01 517.62,74.31 517.16,74.71 517.04,74.91 516.94,75.19 
					516.561,75.52 516.47,75.67 516.47,75.85 516.55,75.96 516.561,75.99 516.67,76.18 516.65,76.33 516.561,76.39 516.22,76.41 
					515.83,76.53 515.68,76.66 515.44,76.86 515.26,77.1 515.061,77.16 514.79,77.43 514.18,77.86 514.22,77.97 514.43,78.13 
					514.49,78.29 514.49,78.42 514.45,78.33 514.311,78.25 514.22,78.27 514.25,78.37 514.19,78.37 514.09,78.39 513.98,78.4 
					513.92,78.4 513.88,78.46 513.8,78.57 513.8,78.6 513.74,78.76 513.73,78.87 513.7,78.98 513.65,79.14 513.72,79.39 
					513.72,79.6 513.311,80.16 513.19,80.44 513.04,80.59 512.9,80.61 512.69,80.62 512.65,80.62 512.58,80.62 512.47,80.64 
					512.23,80.64 512.05,80.59 511.601,80.8 511.55,80.8 511.43,80.83 511.19,81 511.04,81.31 510.891,81.45 510.79,81.48 
					510.72,81.75 510.55,82.02 510.16,82.41 510.05,82.69 510.07,83.38 510.021,83.5 509.84,83.64 509.23,83.98 509.11,83.98 
					509.11,83.89 509.021,83.83 508.851,83.86 508.391,84.06 508.33,83.96 507.851,83.98 507.59,84.13 507.58,84.13 506.9,84.4 
					506.74,84.46 506.09,84.93 505.97,85.2 505.25,86.1 505.15,86.26 505.12,86.29 505.08,86.37 505.01,86.46 504.82,86.71 
					504.55,86.89 504.41,86.91 504.2,86.67 504.05,86.67 503.95,86.76 503.88,87 503.75,86.94 503.66,87.07 503.72,87.15 
					503.83,87.15 503.92,87.09 504.01,87.01 504.12,86.92 504.19,86.94 504.22,86.98 504.17,87.24 504.05,87.36 503.66,87.52 
					503.51,87.58 503.38,87.54 503.29,87.49 502.99,87.42 502.851,87.3 502.72,87.31 502.58,87.42 502.36,87.46 502.3,87.52 
					502.311,87.87 502.22,88.08 502.18,88.2 502.09,88.26 501.8,88.33 501.7,88.33 501.521,88.33 501.38,88.39 501.04,88.73 
					500.83,88.87 500.69,88.92 500.601,88.73 500.5,88.69 500.3,88.62 499.88,89.35 499.811,89.32 499.72,89.48 499.391,89.43 
					498.8,89.73 498.59,89.77 498.23,90.09 498.07,90.29 497.78,90.82 497.601,91.05 497.38,91.59 497.18,92.07 496.78,92.68 
					496.641,92.82 496.63,93.04 496.521,93.54 496.43,93.69 496.09,93.67 496.01,93.76 496.01,93.9 496.18,94.09 496.24,94.36 
					496.24,94.46 496.311,94.93 496.25,95.14 496.22,95.25 496.21,95.48 496.311,95.64 496.38,95.94 496.391,96.43 496.49,96.91 
					496.45,97.09 496.45,97.35 496.67,97.9 496.69,98.26 496.641,98.31 496.48,98.31 496.4,98.34 496.271,98.4 495.83,98.41 
					495.83,98.49 495.92,98.55 496.69,98.38 496.83,98.61 496.96,98.73 497.11,99 497.3,99.73 497.48,100.03 498.05,100.96 
					498.38,101.32 498.65,101.83 499.47,102.69 499.601,102.87 499.99,103.39 500,103.51 499.96,103.63 499.99,103.69 
					500.05,103.63 500.141,103.62 500.22,103.75 500.37,103.8 500.53,103.92 500.83,104.28 500.99,104.4 501.311,104.56 
					501.47,104.71 501.641,104.8 501.67,104.86 501.58,105.09 501.83,105 502.08,105.06 502.15,105.15 502.19,105.36 502.42,105.64 
					502.391,105.73 502.62,105.75 502.79,105.88 503.3,106.29 503.62,106.63 504.83,107.41 505.69,107.82 505.73,107.89 
					505.84,107.88 506.04,107.85 506.2,107.92 506.9,108.06 507.04,108.12 507.05,108.12 507.08,108.15 507.17,108.19 
					507.22,108.33 506.93,108.37 506.9,108.51 506.771,108.66 506.65,108.71 506.45,108.66 506.32,108.81 506.33,108.96 
					506.391,108.94 506.45,108.81 506.66,108.81 506.9,108.67 507.04,108.45 507.19,108.43 507.26,108.48 507.29,108.66 
					507.41,108.73 507.641,108.61 508.24,108.3 508.73,108.29 509.18,108.18 509.17,108.31 509.13,108.63 509.2,108.69 
					509.47,108.73 509.5,108.84 509.811,108.66 509.78,108.6 509.54,108.63 509.37,108.6 509.24,108.49 509.24,108.45 
					509.24,108.34 509.29,108.27 509.32,108.19 509.47,108.09 509.891,107.97 510.34,107.73 510.46,107.73 511.08,107.53 
					511.311,107.41 511.43,107.26 511.9,106.93 511.99,106.89 512.26,106.75 512.53,106.62 512.83,106.57 513.021,106.65 
					513.29,106.83 513.49,107.08 513.54,107.23 513.521,107.43 513.34,108.21 513.17,108.54 513.23,108.91 513.25,109.09 
					513.28,109.24 513.22,109.51 513.101,109.73 512.99,110.08 512.891,110.26 512.63,110.38 512.44,110.58 512.18,110.7 
					512.08,110.8 512.021,111.03 512.04,111.07 512.05,111.27 512.11,111.43 512.18,111.57 512.29,111.73 512.32,111.79 
					512.41,111.94 512.45,112.11 512.391,112.36 512.44,112.53 512.74,112.71 513.17,112.79 513.4,112.86 513.68,113.11 
					513.79,113.13 514.01,113.11 514.4,113.1 514.66,112.95 515.2,112.66 515.351,112.66 515.601,112.47 515.78,112.42 
					515.83,112.39 516.08,112.17 516.72,112.02 516.94,111.88 517.19,111.84 517.83,111.64 517.99,111.55 518.38,110.96 
					518.44,110.71 518.41,110.49 518.391,110.46 518.271,110.21 518.11,110.04 518.05,109.86 517.79,109.63 517.601,109.62 
					517.57,109.53 517.62,109.29 517.811,109.12 518.26,108.94 518.391,108.85 518.5,108.78 518.601,108.78 518.62,108.78 
					519.04,108.93 519.46,108.91 519.54,108.82 519.43,108.66 519.43,108.54 519.55,108.52 519.67,108.67 520.04,108.67 
					520.601,109.03 520.93,109.03 521.29,109.32 521.45,109.54 521.771,109.84 521.95,110.08 522.26,110.49 522.49,110.98 
					522.67,111.49 522.72,112.65 522.46,112.96 522.351,113.31 522.141,114.03 522.08,114.21 522.101,114.25 522.141,114.42 
					522.34,114.67 522.41,115.14 522.641,115.54 522.74,115.86 522.74,116.08 522.65,116.21 522.59,116.46 522.73,116.41 
					522.74,116.4 523.03,116.16 523.28,116.21 523.69,116.55 523.87,116.83 523.97,117.1 524,117.19 524.18,117.3 524.66,117.55 
					524.97,117.66 525.2,117.73 525.34,117.85 525.65,117.94 526.01,118.18 526.55,118.41 526.83,118.6 526.87,118.69 
					526.811,118.77 526.641,118.77 526.4,118.65 525.43,118.17 524.86,118.05 524.68,117.94 524.17,117.78 523.72,117.55 
					523.391,117.54 523.19,117.67 523.08,117.63 522.92,117.79 522.91,118.02 522.82,118.15 522.8,118.33 522.851,118.5 
					523.061,118.71 523.3,119.08 523.47,119.14 523.69,119.35 523.73,119.55 523.9,119.82 523.91,120.09 523.91,120.21 
					524.13,120.61 524.29,120.75 524.45,120.76 524.59,120.66 524.75,120.71 525.04,120.69 525.101,120.69 525.43,120.76 
					526.36,120.78 526.97,121 527.021,121 528.47,121.36 528.7,121.36 528.79,121.41 529.04,121.42 529.15,121.36 529.25,121.24 
					529.391,121.23 529.63,121.41 529.87,121.5 530.41,121.48 530.53,121.35 530.51,121.21 530.53,121.15 530.561,121.08 
					530.09,120.79 529.94,120.69 529.58,120.51 528.311,119.46 528.101,119.28 527.71,119.11 527.69,119.05 527.8,119.04 
					527.99,119.08 528.521,119.44 529.63,120.36 529.96,120.58 530,120.6 531.87,121.57 532.3,121.71 532.79,121.8 533.17,121.8 
					533.33,121.77 				"/>
				<polyline fill="none" stroke="#666666" stroke-width="0.25" stroke-linejoin="round" stroke-miterlimit="3.8637" points="
					462.73,16.83 463.55,16.44 464.18,16.24 464.271,16.09 464.37,16.09 464.42,16.24 464.72,16.23 464.9,16.17 465.01,16.08 
					465.12,16.09 465.29,16.26 465.46,16.2 465.58,16.3 465.76,16.57 466.16,16.48 466.73,16.26 467.15,15.98 467.41,15.82 
					467.92,15.55 468.63,15 468.82,14.82 469.42,14.26 469.88,13.83 470.141,13.59 470.561,13.11 470.601,12.9 470.95,12.4 
					470.93,12.36 470.811,12.37 470.811,12.27 471.16,12.1 471.351,12.01 471.49,11.83 471.771,11.65 471.97,11.44 472.15,11.37 
					472.22,11.25 472.57,11.05 472.88,10.98 473.3,10.79 473.32,10.79 473.62,10.77 474.311,10.63 474.41,10.54 474.55,10.44 
					475.03,10.18 475.21,10.05 475.33,9.82 475.601,9.57 475.87,9.09 476.08,8.86 476.42,8.73 476.53,8.61 476.65,8.59 476.84,9.13 
					476.92,9.18 477.12,9.18 477.59,9.19 477.72,9.1 478.03,9.09 478.521,8.83 478.66,8.86 479.32,8.85 479.62,8.77 479.75,8.7 
					480.63,8.23 480.771,8.13 480.87,7.96 481.13,7.92 481.311,7.84 481.4,7.8 481.87,7.81 482.32,7.98 482.69,7.95 483.17,7.75 
					484.4,6.96 484.69,6.82 484.84,6.82 484.93,6.85 485.18,7.12 485.38,7.14 485.48,7.06 485.891,6.94 486.2,6.79 486.68,6.46 
					487.19,6 487.4,6 487.57,5.89 487.641,5.89 487.72,5.98 487.9,6 488.05,5.91 488.22,5.98 488.59,6.01 488.97,5.88 489.33,5.68 
					489.47,5.7 489.63,5.65 489.72,5.92 489.88,6.07 490.09,6.16 490.3,6.21 490.67,6.21 490.97,6.1 491.271,6.01 491.58,6.01 
					491.811,6.07 492.25,6.06 492.38,6.88 492.5,7.09 492.47,7.29 492.58,7.42 492.561,7.54 492.561,7.75 492.55,7.75 492.46,7.83 
					492.43,7.86 492.311,7.95 492.29,7.96 492.05,7.95 491.95,8.01 492.08,8.14 491.72,8.28 491.59,8.4 491.47,8.37 491.38,8.37 
					491.32,8.46 491.15,8.53 491.15,8.64 490.99,8.55 490.84,8.55 490.521,8.67 490.3,8.65 490.19,8.64 490.21,8.73 490.24,8.94 
					490.19,9.1 490.15,9.12 489.97,8.98 489.95,8.98 489.8,9.13 489.88,9.25 489.891,9.25 489.95,9.25 490.08,9.34 490.18,9.6 
					490.3,9.52 490.42,9.54 490.42,9.63 490.28,10.08 490.3,10.24 490.38,10.36 490.76,10.48 490.79,10.59 490.96,10.66 
					490.88,11.01 490.91,11.17 491,11.28 491.33,11.38 491.65,11.43 491.93,11.41 492.101,11.48 492.34,11.5 492.44,11.46 
					492.65,11.23 492.92,11.01 493.18,10.96 493.43,10.74 493.75,10.24 493.9,9.91 493.94,9.64 493.91,9.4 493.811,9.12 
					493.67,9.04 493.09,9.03 492.76,8.98 492.29,8.82 492.13,8.85 491.92,8.97 491.74,9.01 491.47,9.01 491.41,9 491.3,8.96 
					491.32,8.86 491.59,8.77 491.68,8.55 491.72,8.5 492.08,8.41 492.26,8.28 492.41,8.05 492.521,7.93 492.63,7.83 492.68,7.79 
					492.88,7.83 492.94,7.92 493.18,8.07 493.43,8.16 494.13,8.31 494.23,8.32 494.78,8.37 495.521,8.38 495.58,8.38 495.68,8.37 
					496,8.32 496.391,8.05 496.88,7.93 497,7.83 497.13,7.86 497.23,8.1 497.54,8.41 497.74,8.62 498.34,8.62 499.01,8.85 
					499.75,9.31 500.18,9.46 500.33,9.6 500.47,9.64 500.62,9.78 500.59,9.96 500.66,10 500.68,10.02 500.99,10.12 501.38,10.17 
					501.87,10.18 502.25,10.14 502.311,10.21 502.28,10.32 502.15,10.38 501.88,10.38 501.771,10.44 501.54,10.63 501.46,10.77 
					500.66,11.21 500.58,11.19 500.561,11.1 500.63,11.04 500.811,11.01 500.9,10.9 500.92,10.68 500.88,10.62 500.75,10.54 
					499.25,10.63 499.04,10.79 498.891,11.13 498.72,11.26 498.771,11.28 499.03,11.59 499.21,11.68 499.7,11.71 499.87,11.48 
					499.97,11.5 500.04,11.61 499.94,11.8 500.141,11.88 500.22,11.98 500.23,11.98 				"/>
				<polyline fill="none" stroke="#666666" stroke-width="0.25" stroke-linejoin="round" stroke-miterlimit="3.8637" points="
					485.26,203.1 485.08,202.41 485.05,202.26 484.99,202.05 484.22,198.69 484.22,198.64 483.76,196.48 483.59,196.08 
					481.09,185.01 480.58,182.82 480.521,182.71 480.04,180.69 480.05,180.58 478.79,175.29 477.65,170.44 477.63,170.04 
					476.13,163.98 475.94,163.23 475.94,163.09 475.72,162.18 475.55,161.22 475.54,161.17 474.97,159.09 474.76,157.89 
					474.72,157.77 474.67,157.66 474.49,154.23 473.29,151.92 473.09,151.54 455.75,139.9 455.68,139.48 455.22,136.42 
					455.09,135.6 455.09,132.93 455.09,131.76 454.97,131.55 450.07,123.81 449.99,123.69 448.49,123.72 444.72,121.56 
					442.7,121.65 440.93,119.52 440.891,119.48 441.021,114.61 441.021,114.57 439.87,112.87 439.061,111.69 438.05,109.84 
					437.58,108.98 437.65,107.62 437.59,107.28 437.29,106.95 437.11,106.6 437.021,106.41 436.96,105.96 437.09,105.48 
					437.09,105.33 436.66,104.92 436.16,104.61 435.94,104.43 435.94,104.37 435.91,104.07 435.94,103.95 436.09,103.71 
					436.19,103.38 436.21,103 436.16,102.63 435.73,101.38 435.79,101.13 436.101,100.35 436.12,100.29 436.12,99.87 436.03,99.36 
					436.34,98.44 436.36,98.19 436.101,97.41 436.24,97.09 436.28,97 436.3,96.99 436.42,96.87 436.69,96.6 437.141,96.48 
					437.53,96.09 437.811,95.64 437.83,95.49 437.93,94.36 437.98,94.21 438.13,93.79 438.43,93.23 440.18,92.94 440.58,92.91 
					440.95,92.89 441.61,92.83 442.34,92.79 442.51,92.71 442.48,92.41 442.521,92.1 442.47,91.98 443,90.91 443.021,90.85 
					443.15,90.27 443.29,89.71 443.42,89.32 443.58,88.27 443.54,87.4 443.54,87.36 443.78,87.3 444.34,87.25 445.25,87.06 
					445.28,87.03 445.34,86.96 445.93,86.38 446.2,86.19 446.45,86.05 446.771,85.99 446.891,85.96 447.17,85.95 447.88,85.27 
					448.04,85.12 448.101,85.06 448.75,84.84 448.84,84.84 448.94,84.58 449.11,84.36 449.33,84.36 449.71,84.43 449.74,84.43 
					449.84,84.43 449.891,84.45 449.98,84.23 449.99,84.21 450.22,83.88 450.891,83.65 451.01,83.41 451.15,83.38 451.38,82.74 
					451.57,82.66 451.63,82.69 451.7,82.68 452.2,82.65 452.24,82.62 452.351,82.56 452.41,82.32 452.33,82.12 452.391,81.91 
					452.78,81.71 453.28,81.64 453.4,81.37 453.23,80.97 453.561,80.67 453.58,80.4 453.38,80.07 453.16,79.69 453.29,79.26 
					453.891,78.57 454.33,78.37 454.76,78.46 454.79,78.23 454.78,78.23 454.76,78.21 454.38,77.76 454.22,77.61 454.09,77.29 
					454.271,77.07 454.271,77.05 454.25,77.04 454.15,76.86 454.13,76.79 454.101,76.57 454.101,76.56 454.13,76.21 454.13,76.2 
					454.08,75.85 454.12,75.72 453.98,75.31 453.97,75.06 453.851,74.86 453.79,74.59 453.771,74.5 453.771,74.49 453.76,74.4 
					453.73,74.35 453.65,74.25 453.55,74.08 454.08,72.64 454.43,72.23 454.66,71.88 454.72,71.7 454.75,71.56 454.851,71.22 
					454.87,70.9 454.87,70.79 454.94,70.24 455.11,69.96 455.26,69.63 455.69,68.37 455.8,68.21 456.26,67.92 456.67,67.51 
					456.94,67 457.18,66.69 457.34,66.09 457.42,65.88 457.63,65.48 457.69,65.37 457.94,64.93 458.65,64.18 458.63,64.06 
					458.59,64.05 457.88,64.2 457.49,64.21 457.061,64.05 456.851,63.93 456.641,63.81 456.16,63.46 455.2,63 455.13,62.86 
					455.04,62.82 455.021,62.67 454.91,61.96 454.9,61.39 454.9,60.9 454.97,59.85 455.05,59.43 455.53,58.26 455.8,58.12 
					455.86,58.11 456.54,57.76 456.46,57.37 456.26,57.12 456.13,57.06 456.01,56.64 455.93,55.77 455.93,55.66 455.93,55.56 
					455.95,55.42 455.84,54.93 455.71,53.85 455.771,53.59 455.83,53.41 455.9,52.83 455.8,52.44 455.74,52.32 455.65,52.18 
					455.45,52.03 454.57,51.49 453.74,50.55 453.49,50.05 453.38,49.73 453.4,49.53 453.55,49.21 453.641,48.91 453.68,48.72 
					453.79,48.19 453.8,47.52 453.641,46.9 453.67,46.69 453.7,46.51 453.7,46.48 453.771,46.32 453.79,46.27 454.03,45.78 
					454.22,45.24 454.24,45.19 454.24,45.18 454.25,45.16 454.47,44.83 454.48,44.8 454.48,44.79 454.47,44.76 454.28,44.34 
					454.28,44.28 454.28,44.19 454.28,44.1 454.33,43.41 454.42,42.98 454.45,42.82 454.391,42.3 454.49,42.03 454.83,41.41 
					454.88,41.31 455.05,40.68 455.5,40.26 455.59,40.29 455.68,40.32 455.63,40.21 455.44,39.93 455.42,39.88 455.44,39.4 
					455.41,39.25 455.3,39.16 455.11,39.04 454.73,38.61 454.73,38.55 454.72,38.48 454.7,38.44 454.73,38.32 455.11,37.92 
					455.271,37.71 455.391,37.39 455.561,37.15 455.62,37.06 455.65,36.99 455.69,36.91 455.69,36.88 455.68,36.21 455.54,35.46 
					455.95,35.05 456.2,34.87 456.54,34.77 456.63,34.62 456.63,34.54 456.5,34.42 456.29,34.12 456.26,34.09 456.28,33.61 
					456.46,33.25 456.49,33.19 456.68,33.03 456.67,32.77 456.46,32.28 456.94,31.84 456.98,31.73 457.061,31.6 457.061,31.57 
					457.09,31.33 456.38,31.26 456.23,31.2 456.22,31.15 456.141,31.09 455.88,30.9 455.62,30.85 455.23,31.06 454.9,31.11 
					454.88,31.06 454.78,31.06 454.62,30.88 454.42,30.75 454.271,30.72 454.18,30.71 453.73,30.84 453.55,30.84 453.22,30.75 
					452.26,30.61 452.08,30.55 452.11,30.52 451.87,30.3 451.57,30.23 451.33,30.12 451.061,29.64 451.04,29.62 451.04,29.58 
					450.95,29.26 451.03,29.14 451.33,29.07 451.4,28.93 451.55,28.81 451.84,28.86 451.96,28.87 452.15,28.83 452.78,28.6 
					453.54,28.17 453.97,28.15 454,28.15 454.04,28.14 454.51,27.98 454.521,27.98 454.78,27.81 454.99,27.55 455.021,27.43 
					456.01,26.67 456.44,26.59 456.61,26.5 456.79,26.32 456.851,26.17 456.891,26.05 457.01,25.9 457.25,25.83 457.88,25.89 
					458.15,25.66 458.33,25.14 458.351,24.9 458.271,24.76 458.45,24.52 458.74,24.45 458.88,23.98 458.88,23.96 458.9,23.76 
					458.8,23.37 458.48,22.8 458.48,22.77 458.45,22.57 458.48,22.46 458.44,22.39 458.32,22.3 458.2,22.3 458.11,22.38 
					457.851,22.39 457.76,22.35 457.69,22.11 457.87,21.93 458.5,21.72 458.53,21.69 458.771,21.57 459.05,21.58 459.38,21.54 
					459.771,21.34 459.88,21.34 459.891,21.34 460.01,21.48 460.09,21.49 460.25,21.43 460.58,21.4 460.84,21.48 460.851,21.48 
					461.22,21.45 461.48,21.01 461.68,20.94 461.84,20.94 462.17,20.94 462.44,20.71 462.54,20.64 462.87,20.53 463.43,20.22 
					463.54,20.05 463.54,19.84 463.47,19.69 463.271,19.53 463.04,19.46 462.61,19.32 462.37,19.36 462.311,19.3 462.311,19.26 
					462.311,19.03 462.43,18.61 462.46,18.04 462.5,17.65 462.59,17.55 462.851,17.46 463,17.5 462.851,17.29 462.74,17.02 
					462.72,16.83 				"/>
				<polyline fill="none" stroke="#666666" stroke-width="0.25" stroke-linejoin="round" stroke-miterlimit="3.8637" points="
					482.22,209.16 482.17,209.1 481.88,208.74 481.521,208.3 481.47,208.25 481.391,207.58 481.22,207.03 481.24,206.67 
					481.061,206.08 481.09,205.95 481.03,205.54 480.94,205.17 480.91,205.02 481.01,204.84 481.04,204.81 481.18,204.69 
					481.24,204.63 481.45,204.54 481.47,204.54 481.83,204.52 482.38,204.43 482.561,204.36 482.84,204.06 483.2,203.85 
					483.61,203.71 483.73,203.61 483.891,203.55 484,203.56 484.13,203.5 484.16,203.49 484.47,203.37 484.47,203.35 484.54,203.26 
					484.601,203.25 485.26,203.1 				"/>
				<polyline fill="none" stroke="#666666" stroke-width="0.25" stroke-linejoin="round" stroke-miterlimit="3.8637" points="
					533.33,121.77 533.2,122.13 533.23,122.35 533.23,122.37 533.18,122.53 532.97,123.27 532.66,123.82 532.51,124.06 
					532.45,124.33 532.43,124.39 532.38,124.95 532.36,125.07 532.311,126.07 532.25,126.29 532.42,126.4 532.47,126.75 
					532.15,127.09 532.01,127.6 531.83,128.34 531.82,128.38 531.47,129.43 531.65,129.85 531.92,130.81 531.76,131.29 
					531.68,131.68 531.641,131.86 531.47,132.91 531.47,132.96 531.55,133.27 531.55,133.29 531.68,133.87 531.72,134.26 
					531.61,135.13 531.47,135.69 531.5,136 531.521,136.05 531.61,136.36 531.94,137.19 532.22,137.48 532.49,137.58 532.75,137.82 
					532.96,138.07 533.021,138.16 533.3,138.54 533.601,138.78 533.9,139.23 534.12,139.69 533.42,141.04 533.2,141.48 
					532.48,142.89 532.4,143.04 532.34,143.08 531.351,143.79 530.95,144.09 530.86,144.21 530.53,144.34 529.93,144.4 
					529.15,144.94 528.521,145.27 528.25,145.38 527.771,145.47 527.271,145.66 524.84,146.46 524.59,146.55 524.18,146.71 
					523.38,147.06 523.01,147.33 522.12,147.63 521.811,147.87 521.62,147.87 521.47,147.88 521.04,148.14 520.87,148.33 
					520.49,148.62 520.061,148.79 519.561,148.89 519.23,149.04 518.53,149.52 518.45,149.58 517.97,149.89 517.601,150.25 
					517.08,150.58 516.94,150.67 516.23,151.17 516.16,151.51 516.13,151.71 516.05,151.93 515.74,152.5 514.7,154.23 
					514.061,154.35 513.641,154.53 513.43,154.69 513.16,154.8 512.86,154.84 512.561,154.74 512.41,154.69 512.17,154.68 
					511.94,154.65 511.7,154.57 511.49,154.65 511.311,154.87 511.03,154.99 510.95,155.11 510.98,155.74 510.91,155.92 
					510.68,156.12 510.61,156.3 510.63,156.48 510.73,156.64 511.061,157.18 511.08,157.46 510.91,157.8 510.87,157.98 
					510.38,158.44 509.9,158.83 509.8,158.88 509.58,159.12 509.41,159.39 509.37,159.46 509.26,159.91 509.08,160.53 
					508.84,160.84 508.73,160.89 508.601,161.05 508.311,161.25 508.3,161.25 508.21,161.28 507.4,161.56 507.12,161.64 
					506.59,161.77 506.17,161.8 506.04,161.76 505.03,161.44 504.82,161.44 504.55,161.5 504.33,161.61 504.29,161.62 
					503.771,161.96 503.3,162.25 503.08,162.4 502.55,162.84 502.49,162.99 502.391,163.11 502.36,163.18 502.25,163.47 
					501.65,164.35 501.641,164.46 501.58,164.56 501.33,165.01 500.92,165.57 500.88,165.71 500.72,165.91 500.601,166.09 
					500.391,166.29 500.37,166.46 500.08,166.81 499.97,166.83 499.641,167.29 499.601,167.41 499.58,167.46 499.24,167.92 
					499.19,167.94 499.13,167.98 499.061,168.09 498.91,168.3 498.851,168.46 498.83,168.51 498.83,168.88 498.83,169.15 
					499,169.51 499,169.53 499.061,169.83 499.01,170.26 499.061,170.61 499.08,170.7 499.22,171.21 499.311,171.29 499.641,172.11 
					500.22,173.55 500.271,173.71 500.32,173.86 500.54,174.51 500.62,174.61 500.75,175.14 500.83,175.23 500.99,175.68 
					501.12,176.01 501.37,176.49 501.46,176.83 501.54,177.13 501.851,178.3 502.061,178.65 502.391,179.32 502.47,179.71 
					502.3,180.27 502.25,180.42 502.16,180.73 502.16,181.26 502.271,181.81 502.33,181.89 502.43,182.34 502.47,182.97 
					502.49,183.07 502.55,183.31 502.67,183.85 502.69,183.98 502.94,184.53 502.91,184.68 502.641,184.95 502.641,185.01 
					502.62,185.14 502.62,185.16 502.67,185.37 502.45,186.01 502.38,186.4 502.22,186.87 502.12,187.08 501.92,187.44 
					501.47,188.32 501.311,188.68 501.17,188.97 500.98,189.45 500.66,189.98 500.45,190.14 500.32,190.24 500.22,190.27 
					499.9,190.51 499.73,190.71 499.19,191.71 498.29,192.84 498.28,192.85 498.12,193.18 497.93,193.5 497.47,194.05 
					497.37,194.22 496.851,194.67 496.13,195.57 496,195.73 495.68,196.57 495.521,196.84 494.97,197.73 494.86,197.83 
					494.8,197.89 494.601,198.01 494.38,198.54 494.24,198.85 493.521,199.36 492.83,200.08 492.67,200.13 492.38,200.11 
					491.54,200.21 491.42,200.22 491.3,200.22 491.05,200.31 490.641,200.49 490.51,200.61 490.08,200.8 489.34,201 488.65,201.46 
					488.44,201.66 488.42,201.66 487.69,201.94 487.04,202.3 486.25,202.83 485.65,203.05 485.26,203.1 				"/>
				<polyline fill="none" stroke="#666666" stroke-width="0.25" stroke-linejoin="round" stroke-miterlimit="3.8637" points="
					500.23,11.98 500.26,11.98 500.41,11.97 500.48,11.96 500.561,11.89 500.63,11.79 				"/>
				<polyline fill="none" stroke="#666666" stroke-width="0.25" stroke-linejoin="round" stroke-miterlimit="3.8637" points="
					484.72,20.11 484.78,20.02 485.11,19.84 485.2,19.77 485.42,19.57 485.5,19.47 485.69,19.27 485.83,19.18 486.141,19.15 
					486.351,19.18 486.67,19.14 486.88,19.03 486.97,18.9 487.18,18.71 487.54,18.51 487.97,18.42 488.92,18.29 489.23,18.18 
					489.351,18.09 489.46,17.98 489.851,17.28 490.01,17.05 490.33,16.8 490.66,16.62 491.08,16.53 491.22,16.54 491.41,16.51 
					492.01,16.54 492.351,16.6 492.68,16.69 493.57,17.13 494.04,17.28 494.51,17.38 494.811,17.4 494.92,17.38 495.08,17.26 
					495.19,17.17 495.311,16.99 495.5,16.53 495.54,16.42 495.72,16.12 495.92,15.73 496.101,15.52 496.18,15.36 496.3,15.21 
					496.75,14.38 496.97,13.87 497,13.79 497.29,13.03 497.53,12.99 497.59,12.67 497.68,12.55 497.78,12.46 497.9,12.39 
					498.19,12.29 498.73,12.23 499.521,12.25 500.05,12.18 500.11,11.98 500.22,11.98 				"/>
				<polyline fill="none" stroke="#666666" stroke-width="0.25" stroke-linejoin="round" stroke-miterlimit="3.8637" points="
					473.3,10.79 473.351,11.25 473.33,11.44 473.391,11.96 473.32,12.29 473.2,12.57 473.141,12.99 473.18,13.47 473.26,13.77 
					473.33,13.89 473.561,13.99 473.78,14.01 474.2,14.02 475.061,13.96 475.271,13.98 475.49,14.02 475.69,14.14 475.811,14.25 
					475.94,14.44 476.141,14.88 476.5,16.02 476.66,16.36 476.93,16.71 477.07,17.01 477.16,17.49 477.28,17.68 478.09,18.4 
					478.3,18.61 478.75,18.85 479.13,18.93 479.62,19.09 479.83,19.2 479.95,19.27 480.07,19.32 480.28,19.51 480.29,19.84 
					480.28,20.07 480.2,20.4 480.05,20.77 480.021,20.91 479.95,21.01 479.93,21.12 479.811,21.36 479.74,21.66 479.72,21.78 
					479.75,22 479.811,22.14 479.92,22.35 480.13,22.56 480.46,22.81 480.79,22.98 481.101,23.02 481.33,22.99 481.45,22.93 
					481.88,22.57 481.94,22.48 482.771,21.63 482.891,21.54 483.07,21.34 483.311,21.16 483.49,20.94 483.88,20.58 484.12,20.4 
					484.21,20.31 484.47,20.17 484.72,20.11 				"/>
				<polyline fill="none" stroke="#666666" stroke-width="0.25" stroke-linejoin="round" stroke-miterlimit="3.8637" points="
					503.68,18.4 503.05,18.58 502.83,18.67 501.83,18.87 501.73,18.87 501.5,18.94 501.38,18.96 501.101,19.03 500.86,19.15 
					500.74,19.17 500.351,19.36 500.22,19.39 499.91,19.56 499.55,19.79 498.95,20.02 498.72,20.14 497.97,20.68 497.86,20.71 
					497.72,20.8 497.59,20.85 497.351,20.98 497.22,21 496.75,21.15 496.63,21.15 496.43,21.24 496.34,21.23 495.851,21.36 
					495.72,21.4 495.61,21.48 495.521,21.58 495.43,21.69 495.41,21.81 495.521,21.94 495.59,22 495.92,22.18 495.95,22.39 
					495.94,22.48 496.03,22.69 496.25,22.87 496.57,23.04 496.79,23.25 496.87,23.34 496.91,23.44 496.93,23.56 496.93,23.68 
					496.84,23.98 				"/>
				<polyline fill="none" stroke="#666666" stroke-width="0.25" stroke-linejoin="round" stroke-miterlimit="3.8637" points="
					502.4,21.01 502.21,20.73 502.03,20.67 501.91,20.73 501.82,20.86 501.79,21 501.79,21.18 501.7,21.29 501.68,21.48 
					501.38,22.33 501.351,22.46 501.29,22.54 501.05,22.62 500.811,22.89 500.71,23.08 500.62,23.17 500.5,23.25 500.37,23.26 
					500.23,23.25 500.11,23.25 499.79,23.32 499.58,23.31 499.48,23.29 499.24,23.21 499.04,23.17 498.94,23.23 498.87,23.32 
					498.76,23.55 498.55,23.86 498.44,23.96 498.23,24.03 498.12,24.03 497.68,24.1 497.351,24.1 497.11,24.06 496.84,23.98 				"/>
				<polyline fill="none" stroke="#666666" stroke-width="0.25" stroke-linejoin="round" stroke-miterlimit="3.8637" points="
					496.84,23.98 496.66,24.27 496.34,24.58 495.521,25.26 495.43,25.33 495.2,25.42 494.83,25.48 				"/>
				<polyline fill="none" stroke="#666666" stroke-width="0.25" stroke-linejoin="round" stroke-miterlimit="3.8637" points="
					492.04,27.3 492.561,27.24 492.67,27.23 492.891,27.09 492.97,26.97 493.24,26.32 493.521,25.77 493.641,25.48 493.76,25.29 
					493.851,25.2 493.97,25.12 494.271,25.03 494.47,25.05 494.58,25.09 494.68,25.2 494.83,25.48 				"/>
				<polyline fill="none" stroke="#666666" stroke-width="0.25" stroke-linejoin="round" stroke-miterlimit="3.8637" points="
					484.72,20.11 485.2,20.55 485.391,20.77 485.811,21.16 486.16,21.52 486.63,21.93 486.74,21.99 487.3,22.42 487.66,22.6 
					488.92,22.99 489.13,23.01 489.34,22.96 489.55,22.96 489.65,22.99 489.74,23.08 489.83,23.29 489.83,23.38 489.98,23.83 
					490.18,24.21 490.25,24.31 490.38,24.54 490.83,25.47 491.66,26.59 491.97,27.07 492.04,27.3 				"/>
				<polyline fill="none" stroke="#666666" stroke-width="0.25" stroke-linejoin="round" stroke-miterlimit="3.8637" points="
					505.51,23.11 505.4,23.37 505.38,23.76 505.33,24 505.12,24.55 504.94,24.91 504.43,25.8 504.351,25.9 504.12,26.28 
					503.891,26.73 503.93,26.83 504.55,27.31 504.46,27.55 504.25,27.94 504.17,28.17 504.17,28.29 503.9,29.16 503.75,30.06 				
					"/>
				<polyline fill="none" stroke="#666666" stroke-width="0.25" stroke-linejoin="round" stroke-miterlimit="3.8637" points="
					468.82,14.82 469.24,15.07 469.58,15.39 469.66,15.48 469.99,15.75 470.09,15.96 470.11,16.05 470.09,16.14 469.97,16.23 
					469.48,16.38 469.271,16.42 469.16,16.48 469.101,16.57 469.15,16.79 469.63,17.31 469.851,17.5 470.2,17.88 470.53,18.33 
					470.62,18.4 470.75,18.63 470.86,18.84 470.86,18.94 470.83,19.05 470.75,19.17 470.44,19.46 470.29,19.51 469.641,20.04 
					469.51,20.32 469.49,20.53 469.521,20.74 469.43,20.97 469.36,21.06 469.19,21.39 469.38,21.58 469.63,21.76 469.97,21.84 
					470.18,21.85 470.42,21.9 470.74,21.91 471.04,21.98 471.141,21.98 471.851,22.41 471.94,22.51 471.851,23.48 471.74,24.1 
					471.74,24.39 471.79,24.79 471.87,24.9 472.18,25.24 472.24,25.33 472.7,26.22 472.87,26.61 472.99,26.96 473.23,27.87 
					473.23,27.99 473.061,28.18 472.96,28.27 472.66,28.59 472.51,28.79 472.42,28.98 472.38,29.52 472.38,29.96 472.33,30.24 
					472.24,30.36 471.73,30.6 471.641,30.66 				"/>
				<polyline fill="none" stroke="#666666" stroke-width="0.25" stroke-linejoin="round" stroke-miterlimit="3.8637" points="
					492.04,27.3 491.95,27.37 491.84,27.43 491.74,27.54 491.08,27.94 490.67,28.26 490.38,28.54 490.15,28.86 490.061,29.07 
					490.03,29.17 489.95,29.35 489.88,29.46 489.771,29.58 489.65,29.68 489.4,29.97 489.25,30.25 489.08,30.75 489.01,30.84 				
					"/>
				<polyline fill="none" stroke="#666666" stroke-width="0.25" stroke-linejoin="round" stroke-miterlimit="3.8637" points="
					494.83,25.48 495.01,25.87 495.07,26.01 495.33,26.41 495.521,26.61 495.771,26.79 496,26.83 496.21,26.79 496.43,26.67 
					496.67,26.62 496.83,26.65 497.391,26.88 497.9,27.15 498.63,27.43 498.851,27.85 498.94,27.96 498.97,28.06 499.21,28.42 
					499.391,28.65 499.73,28.9 500.65,29.46 501.23,29.74 501.29,29.86 501.23,30.12 501.19,30.19 501.16,30.49 501.17,30.61 
					501.46,30.85 501.54,30.96 501.76,30.82 501.851,30.73 502.061,30.6 502.75,30.24 503.09,30.13 503.3,30.1 503.65,30.1 
					503.75,30.06 				"/>
				<polyline fill="none" stroke="#666666" stroke-width="0.25" stroke-linejoin="round" stroke-miterlimit="3.8637" points="
					469.36,30.98 469.48,30.94 469.69,30.85 470.04,30.69 470.53,30.52 470.75,30.54 470.891,30.51 471.101,30.52 471.23,30.54 
					471.641,30.66 				"/>
				<polyline fill="none" stroke="#666666" stroke-width="0.25" stroke-linejoin="round" stroke-miterlimit="3.8637" points="
					503.75,30.06 503.71,30.58 503.66,30.93 503.62,31.71 503.65,32.17 503.68,32.38 503.71,32.49 503.9,32.82 504.12,32.97 
					504.34,33 				"/>
				<polyline fill="none" stroke="#666666" stroke-width="0.25" stroke-linejoin="round" stroke-miterlimit="3.8637" points="
					504.34,33 504.65,32.94 504.851,32.86 506.08,32.67 506.29,32.83 506.59,33.15 506.71,33.19 506.8,33.19 506.92,33.12 
					507.25,32.76 507.351,32.7 507.67,32.68 507.88,32.73 508.04,32.89 508.311,33.39 				"/>
				<polyline fill="none" stroke="#666666" stroke-width="0.25" stroke-linejoin="round" stroke-miterlimit="3.8637" points="
					456.46,33.25 456.771,33.3 456.98,33.37 457.19,33.4 457.43,33.39 457.55,33.4 457.94,33.37 458.18,33.3 458.66,33.1 
					459.37,32.71 459.95,32.43 460.21,32.28 460.57,32.1 460.811,32.01 461.15,31.92 461.38,31.89 461.62,31.92 463.18,31.87 
					463.521,31.9 464.021,31.87 464.92,31.87 465.7,31.84 466.34,31.8 466.851,31.71 466.96,31.71 467.97,31.44 468.891,31.15 
					469.36,30.98 				"/>
				<polyline fill="none" stroke="#666666" stroke-width="0.25" stroke-linejoin="round" stroke-miterlimit="3.8637" points="
					471.641,30.66 471.83,30.75 472.25,31.11 473.44,32.29 473.75,32.59 473.97,32.76 474.19,32.79 474.44,32.74 474.8,32.61 
					475.19,32.43 475.3,32.41 475.63,32.31 476.061,32.19 476.271,32.14 476.63,32.17 477.04,32.4 477.67,32.85 477.98,33.01 
					478.311,33.24 478.641,33.39 478.87,33.43 478.97,33.36 479.05,33.25 479.63,32.21 480.01,31.62 480.37,31.15 480.58,31 
					481.061,30.81 481.521,30.73 482.141,30.69 482.26,30.69 482.59,30.66 482.93,30.67 483.351,30.76 483.771,30.96 483.88,31.05 
					483.97,31.08 484.21,31.29 484.48,31.62 484.73,31.83 484.93,31.9 485.37,31.86 485.59,31.79 486.2,31.42 486.63,31.24 
					487.01,31.09 487.55,30.93 488.33,30.81 488.69,30.79 489.01,30.84 				"/>
				<polyline fill="none" stroke="#666666" stroke-width="0.25" stroke-linejoin="round" stroke-miterlimit="3.8637" points="
					504.34,33 504.37,33.04 504.37,33.23 504.4,33.63 504.38,34.87 504.34,34.98 504.28,35.07 503.74,35.37 503.69,35.46 
					503.72,35.56 503.811,35.64 504.08,35.85 504.17,35.88 504.28,35.98 504.311,36.07 504.311,36.16 504.29,36.25 504.23,36.36 
					504.13,36.46 503.891,36.54 503.3,36.66 502.96,36.69 502.851,36.73 502.4,36.82 502.28,36.82 501.97,36.9 501.891,36.99 
					501.87,37.09 501.97,37.41 502.04,37.56 502.08,37.96 502.04,38.13 501.98,38.32 501.83,38.62 501.58,38.92 501.25,39.15 
					500.771,39.33 500.65,39.4 500.5,39.43 				"/>
				<polyline fill="none" stroke="#666666" stroke-width="0.25" stroke-linejoin="round" stroke-miterlimit="3.8637" points="
					489.01,30.84 489.13,31.05 489.22,31.14 489.41,31.47 489.46,31.68 489.49,32.07 489.4,32.46 489.19,33.03 488.97,33.4 
					488.83,33.6 488.45,34.02 488.23,34.24 488.15,34.35 487.601,34.81 487.24,35.05 486.67,35.38 486.25,35.59 486.01,35.7 
					485.9,35.71 485.66,35.82 485.47,35.88 485.24,35.97 485.15,36.06 485.09,36.15 485.13,36.25 485.29,36.48 485.51,36.69 
					485.59,36.78 485.93,37.03 486.17,37.27 486.561,37.54 486.8,37.63 487.271,37.77 487.76,37.83 488.69,38.14 488.98,38.26 
					489.4,38.55 489.55,38.77 489.68,39.16 489.7,39.84 489.67,40.03 489.55,40.41 489.47,40.59 489.33,40.81 488.95,41.28 				"/>
				<polyline fill="none" stroke="#666666" stroke-width="0.25" stroke-linejoin="round" stroke-miterlimit="3.8637" points="
					500.5,39.43 500.11,39.54 499.88,39.57 499.09,39.78 498.8,39.93 498.72,40.03 498.54,40.36 498.47,40.56 498.38,40.77 
					498.23,40.98 498.16,41.07 497.811,41.22 497.71,41.19 497.601,41.08 497.351,40.68 497.26,40.79 497.22,40.9 497.15,41.16 
					497.061,41.73 497.04,42.03 496.87,42.75 496.78,42.88 496.641,42.94 496.521,42.94 496.271,42.84 496.04,42.63 495.92,42.51 
					495.61,42.19 495.521,42.12 495.34,42.01 495.101,41.91 494.78,41.83 494.65,41.83 494.15,41.77 493.83,41.61 493.271,41.28 
					492.97,41.11 492.87,41.08 492.311,41.05 492.17,41.07 491.391,41.25 490.79,41.44 490.28,41.53 489.92,41.53 489.561,41.49 
					489.12,41.35 489.01,41.28 488.95,41.28 				"/>
				<polyline fill="none" stroke="#666666" stroke-width="0.25" stroke-linejoin="round" stroke-miterlimit="3.8637" points="
					469.36,30.98 469.76,31.41 470.24,32.05 470.351,32.14 470.601,32.56 470.771,33.03 470.811,33.25 470.83,33.46 470.8,33.69 
					470.771,33.78 470.65,33.99 470.41,34.29 470.3,34.53 470.3,34.65 470.351,34.84 470.48,35.17 470.74,35.56 470.8,35.65 
					471.22,36.09 471.29,36.21 471.68,36.63 471.92,37.05 472,37.38 472.03,37.6 472.04,37.9 472,38.43 471.92,38.88 471.92,39.09 
					471.95,39.19 472.01,39.31 472.19,39.51 472.521,39.72 472.641,39.75 473.08,39.99 473.29,40.08 473.42,40.11 474.23,40.53 
					474.58,40.75 474.65,40.84 474.73,40.96 474.891,41.29 474.98,41.62 474.98,41.88 474.98,42.25 474.95,42.49 474.83,43.14 
					474.67,43.73 474.55,44.04 474.46,44.17 474.41,44.26 473.811,44.83 473.47,45.34 473.37,45.55 473.3,45.96 473.22,46.3 
					473.021,46.66 472.57,47.01 472.36,47.14 472.13,47.32 472.03,47.43 471.94,47.62 471.91,47.74 471.88,47.98 471.88,48.31 
					471.891,48.84 471.88,49.18 471.79,50.1 471.68,50.52 471.65,50.65 471.59,50.74 471.54,51.06 471.41,51.37 				"/>
				<polyline fill="none" stroke="#666666" stroke-width="0.25" stroke-linejoin="round" stroke-miterlimit="3.8637" points="
					455.771,53.59 456.17,53.59 456.37,53.55 456.7,53.32 457.16,52.81 457.48,52.51 457.7,52.35 458.13,52.21 458.45,52.2 
					458.68,52.23 458.78,52.26 458.92,52.35 459.29,52.51 459.73,52.75 459.83,52.79 460.12,52.93 460.391,53.02 460.851,53.1 
					461.09,53.1 461.48,53.05 461.63,52.99 461.83,52.83 461.97,52.62 462.08,52.06 462.19,50.92 462.23,50.7 462.33,50.43 
					462.41,50.19 462.65,49.81 462.98,49.41 463.21,49.24 463.43,49.14 463.66,49.11 464.09,49.12 464.33,49.17 465.141,49.41 
					465.25,49.46 465.94,49.6 466.66,49.84 466.811,49.92 467.41,50.16 469.08,50.89 470.09,51.27 470.33,51.33 470.601,51.37 
					471.29,51.33 471.41,51.37 				"/>
				<polyline fill="none" stroke="#666666" stroke-width="0.25" stroke-linejoin="round" stroke-miterlimit="3.8637" points="
					500.5,39.43 499.96,40.24 499.49,41.04 499.601,41.14 499.7,41.22 500.45,41.61 500.95,41.82 501.141,41.92 501.25,42.01 
					501.43,42.25 501.58,42.54 501.641,42.72 501.641,42.94 501.61,43.14 501.561,43.53 501.43,44.25 501.38,44.35 501.28,44.8 
					501.12,45.36 500.93,45.78 500.68,46.17 500.5,46.35 500.37,46.56 500.26,46.65 500.17,46.79 499.851,47.11 499.48,47.53 
					499.33,47.82 499.42,48.13 499.75,48.79 500.271,49.92 500.811,50.97 501.41,52.02 501.891,52.9 502.25,53.44 502.58,53.86 
					502.72,54.1 502.75,54.39 502.811,54.69 502.9,54.91 				"/>
				<polyline fill="none" stroke="#666666" stroke-width="0.25" stroke-linejoin="round" stroke-miterlimit="3.8637" points="
					512.23,48.9 512.11,49.12 511.93,49.33 511.73,49.53 511.391,49.8 511.18,50.01 511.04,50.21 510.98,50.43 510.94,50.67 
					510.95,51.3 511.09,52.38 511.09,52.73 511.03,53.13 510.87,53.46 510.79,53.58 510.561,53.76 510.08,54.04 509.32,54.31 
					508.47,54.48 508.271,54.55 508.16,54.63 508.09,54.73 508.08,54.82 508.101,54.94 508.271,55.12 508.47,55.32 508.51,55.42 
					508.521,55.51 508.48,55.62 508.28,55.81 507.87,56.05 507.16,56.29 				"/>
				<polyline fill="none" stroke="#666666" stroke-width="0.25" stroke-linejoin="round" stroke-miterlimit="3.8637" points="
					507.16,56.29 506.74,56.26 506.37,56.26 506.37,56.28 505.97,56.28 505.42,56.17 504.891,56.04 503.97,55.66 503.22,55.15 
					502.94,54.94 502.9,54.91 				"/>
				<polyline fill="none" stroke="#666666" stroke-width="0.25" stroke-linejoin="round" stroke-miterlimit="3.8637" points="
					488.95,41.28 488.8,41.46 488.22,41.89 487.69,42.25 487.25,42.57 487.101,42.64 486.41,43.14 485.391,43.89 485.11,44.05 
					484.601,44.48 483.95,45.06 483.521,45.37 483.4,45.48 483.23,45.71 483.16,45.94 483.17,46.17 483.37,46.81 483.41,47.29 
					483.33,47.71 483.2,48.03 483.07,48.27 482.99,48.49 482.95,48.73 483.01,49.02 483.05,49.14 483.2,49.38 483.311,49.51 
					483.74,49.9 483.82,50.01 483.851,50.11 483.83,50.19 483.8,50.28 483.73,50.37 483.01,50.5 482.771,50.58 482.44,50.73 
					482.24,50.85 481.55,51.29 481.43,51.34 481.16,51.43 480.79,51.45 480.34,51.4 480.07,51.31 479.26,51.01 478.42,50.8 
					478.19,50.79 478.09,50.85 477.98,50.94 477.94,51.03 477.92,51.15 477.92,51.25 478.04,51.57 478.21,51.79 479.23,52.99 
					479.71,53.53 480.91,54.78 481.391,55.39 481.75,56.05 481.79,56.16 482.13,56.8 482.24,56.98 482.32,57.19 482.33,57.36 				
					"/>
				<polyline fill="none" stroke="#666666" stroke-width="0.25" stroke-linejoin="round" stroke-miterlimit="3.8637" points="
					482.33,57.36 482.09,57.27 481.851,57.23 481.48,57.16 480.771,57.16 480.4,57.23 479.26,57.57 				"/>
				<polyline fill="none" stroke="#666666" stroke-width="0.25" stroke-linejoin="round" stroke-miterlimit="3.8637" points="
					471.41,51.37 471.74,51.63 471.92,51.88 472.25,52.57 472.54,53.04 472.641,53.14 472.79,53.37 473.17,53.74 473.37,53.88 
					473.561,53.91 473.8,53.88 474.12,53.73 474.23,53.7 474.43,53.7 474.91,53.85 475.271,54 475.49,54.13 475.72,54.3 
					475.811,54.49 476.09,55.24 476.271,55.44 476.38,55.48 476.98,55.57 477.33,55.66 477.87,55.9 478.48,56.29 478.78,56.58 
					479.021,56.88 479.17,57.18 479.24,57.37 479.26,57.57 				"/>
				<path fill="none" stroke="#666666" stroke-width="0.25" stroke-linejoin="round" stroke-miterlimit="3.8637" d="M506.37,56.32
					c0,0,0.14,0.93,1.021,1.58c0.852,0.63,1.829-0.3,1.829-0.3l0.813-0.6l0.01,0.01l0.69,0.2l0.35,0.08l0.75,0.29l0.61,0.18
					l0.987,0.18l0.95,0.2l1.21,0.07l0.24-0.06l0.24-0.57l0.188-0.3l0.15-0.18l0.41-0.4l0.357-0.27l0.54-0.33l0.512-0.23l1-0.31
					l1.278-0.47"/>
				<polyline fill="none" stroke="#666666" stroke-width="0.25" stroke-linejoin="round" stroke-miterlimit="3.8637" points="
					502.9,54.91 502.521,54.98 501.7,55.24 501.47,55.38 501.29,55.57 501.141,55.8 501.101,56.01 501.12,56.11 501.46,56.94 
					501.55,57.29 501.521,57.51 501.351,57.72 501.13,57.85 500.92,58.05 500.72,58.38 500.3,59.35 499.83,60.31 499.73,60.54 
					499.69,60.73 499.7,60.93 499.73,61.03 499.83,61.24 500.11,61.81 500.18,62.23 500.22,62.48 500.23,62.96 500.141,63.52 
					500.15,63.93 500.23,64.11 500.33,64.32 500.71,64.79 500.92,65.1 501.01,65.31 501.101,65.59 501.13,65.83 501.13,66.15 
					501.021,66.73 501.04,66.84 				"/>
				<polyline fill="none" stroke="#666666" stroke-width="0.25" stroke-linejoin="round" stroke-miterlimit="3.8637" points="
					520.43,68.53 519.72,68.19 519.58,68.16 518.99,68.11 518.78,68.16 518.68,68.13 518.58,68.02 518.42,67.73 518.13,67.29 
					517.851,66.84 517.42,66.21 517.22,66.03 517.12,66.06 517.03,66.13 516.92,66.24 516.73,66.54 516.55,66.73 516.43,66.81 
					516.25,66.87 516.13,66.88 516.04,66.87 515.83,66.78 515.71,66.66 515.5,66.31 515.18,65.48 515.13,65.26 515.09,65.17 
					515.021,64.8 514.93,64.18 514.79,63.85 514.36,63.25 514.271,63.19 514.101,63.37 513.98,63.69 513.92,63.79 513.76,64.14 
					513.59,64.36 513.4,64.57 513.28,64.66 512.9,64.86 512.78,64.87 512.54,64.87 512.2,64.79 511.601,64.54 511.101,64.27 
					510.891,64.2 510.79,64.17 510.58,64.17 510.351,64.2 510.25,64.39 510.22,64.57 510.12,64.77 509.98,64.87 509.51,65.08 
					509.45,65.19 509.391,65.28 509.38,65.4 509.41,65.7 509.41,65.74 509.33,65.88 509.15,66.09 508.83,66.37 508.38,66.69 
					508.03,66.85 507.7,66.98 506.88,67.38 506.2,67.68 505.57,67.98 505.33,68.04 505.21,68.04 504.82,67.89 504.13,67.41 
					503.9,67.29 503.37,67.18 502.76,67.17 502.311,67.12 501.04,66.84 				"/>
				<polyline fill="none" stroke="#666666" stroke-width="0.25" stroke-linejoin="round" stroke-miterlimit="3.8637" points="
					501.04,66.84 500.84,66.79 500.62,66.79 500.37,66.88 499.55,67.36 499.47,67.46 498.98,67.81 498.76,68.02 498.23,68.58 
					498.04,68.74 497.66,69.23 497.41,69.49 496.96,70.14 496.76,70.53 				"/>
				<polyline fill="none" stroke="#666666" stroke-width="0.25" stroke-linejoin="round" stroke-miterlimit="3.8637" points="
					496.76,70.53 496.641,70.38 496.34,70.11 496.21,69.81 496.01,69.06 495.561,67.68 495.44,67.06 495.29,66.57 495.17,66.51 
					495.04,66.54 494.15,66.84 493.75,67 493.601,66.98 493.38,66.93 492.87,66.72 492.46,66.58 491.891,66.42 491.18,66.27 
					489.88,66.06 489.141,65.88 488.9,65.79 488.69,65.68 488.45,65.48 488.22,65.25 488.08,65.05 487.9,64.65 487.83,64.54 
					487.03,63.85 486.5,63.27 486.25,62.94 485.93,63.04 485.69,63.06 485.11,63.01 485.021,63 484.811,62.86 484.4,62.46 
					483.59,61.79 482.93,61.18 482.8,60.9 482.78,60.75 482.8,60.63 482.92,60 483.05,59.56 483.05,59.44 483.141,58.98 
					483.19,58.51 483.12,58.27 482.93,57.96 482.54,57.48 482.33,57.36 				"/>
				<polyline fill="none" stroke="#666666" stroke-width="0.25" stroke-linejoin="round" stroke-miterlimit="3.8637" points="
					466.67,77.83 469.87,75.98 470.771,75.51 471.74,75.15 472.19,74.96 472.54,74.77 472.73,74.62 472.83,74.52 472.84,74.41 
					472.811,74.32 472.7,74.22 472.34,74.08 472.15,73.89 472.03,73.68 471.98,73.56 472.01,73.35 472.15,73.09 472.67,72.69 
					473.04,72.33 473.29,71.91 473.47,71.41 473.68,71.01 473.891,70.81 473.98,70.79 474.101,70.79 474.58,70.92 474.72,70.95 
					474.82,70.92 475.75,70.46 477.641,69.91 477.82,69.69 477.94,69.37 477.97,69.29 477.97,69.06 477.92,68.96 477.72,68.52 
					477.61,68.23 477.561,67.93 477.54,67.47 477.55,67.08 477.61,66.69 477.7,66.37 477.76,65.98 477.79,65.67 477.73,65.43 
					477.58,65.21 477.22,65.01 476.48,64.77 475.811,64.62 475.391,64.48 475.3,64.44 475.09,64.3 474.98,64.2 474.92,63.98 
					474.92,63.78 475.08,63.24 475.25,62.71 475.51,62.13 476.24,61.74 476.42,61.53 476.58,61.2 476.66,60.81 476.74,60.6 
					476.9,60.3 477.08,60.09 477.33,59.89 477.55,59.76 477.79,59.65 478.3,59.37 478.73,58.99 478.9,58.81 479,58.69 479.11,58.46 
					479.141,58.33 479.22,58.02 479.26,57.57 				"/>
				<polyline fill="none" stroke="#666666" stroke-width="0.25" stroke-linejoin="round" stroke-miterlimit="3.8637" points="
					454.76,78.21 454.78,78.21 454.79,78.23 454.9,78.29 455.2,78.57 455.271,78.69 455.37,78.78 455.63,78.91 456.13,79.02 
					456.49,79.05 456.8,79.14 457.38,79.35 457.69,79.42 457.84,79.48 458.021,79.51 458.15,79.56 458.41,79.71 458.63,79.87 
					458.97,80.08 459.07,80.19 459.41,80.43 459.5,80.53 459.87,80.76 460.55,81.04 460.91,81.13 461.09,80.67 461.18,80.26 
					461.26,80.08 461.48,79.89 461.72,79.74 462.43,79.46 463.03,79.12 464.2,78.57 464.51,78.48 465.04,78.43 465.59,78.34 
					466.21,78.1 466.67,77.83 				"/>
				<polyline fill="none" stroke="#666666" stroke-width="0.25" stroke-linejoin="round" stroke-miterlimit="3.8637" points="
					466.67,77.83 467.08,77.96 467.69,78.21 467.93,78.3 469.22,78.84 469.851,79.05 470.351,79.27 470.78,79.32 471.65,79.27 
					472.66,79.29 473.2,79.36 473.88,79.5 474.49,79.54 474.771,79.59 475.19,79.69 475.49,79.81 476.391,80.28 476.8,80.52 
					477.01,80.61 477.12,80.62 477.33,80.61 477.54,80.53 478.16,80.21 478.25,80.19 478.34,80.21 478.42,80.29 478.47,80.4 
					478.47,80.52 478.43,80.62 477.95,81.72 477.83,82.03 477.771,82.35 477.79,82.65 477.83,82.83 477.91,83.04 478.08,83.35 
					478.47,83.83 478.79,84.18 479.22,84.6 479.45,84.79 479.78,84.96 480.641,85.18 481.18,85.36 481.4,85.48 481.62,85.63 
					481.84,85.87 482.26,86.53 482.42,86.74 482.86,87.07 483.2,87.29 484.28,87.69 484.67,87.88 484.79,87.96 484.851,88.06 
					484.94,88.29 484.97,88.57 484.97,89.08 484.93,90.42 484.84,91.68 				"/>
				<polyline fill="none" stroke="#666666" stroke-width="0.25" stroke-linejoin="round" stroke-miterlimit="3.8637" points="
					484.84,91.68 485.17,91.5 485.37,91.32 485.66,91 485.891,90.9 486.58,90.69 486.94,90.54 487.03,90.51 487.3,90.54 
					487.42,90.6 487.641,90.71 488.13,91.03 488.351,91.21 488.53,91.54 488.58,91.73 488.601,91.79 				"/>
				<polyline fill="none" stroke="#666666" stroke-width="0.25" stroke-linejoin="round" stroke-miterlimit="3.8637" points="
					496.76,70.53 496.63,70.69 496.36,71.23 496.08,71.97 495.65,72.87 495.28,73.83 495.05,74.23 494.33,75.39 493.55,76.56 
					493.34,76.86 493.271,77.01 492.82,77.64 492.73,77.8 492.47,78.13 492.351,78.37 492.08,78.96 491.65,79.77 491.42,80.26 
					491.271,80.77 491.24,81.09 491.26,81.29 491.391,81.85 491.47,82.03 491.53,82.12 492.25,82.23 493.521,82.3 494.141,82.41 
					494.771,82.56 495.49,82.87 495.72,83.01 496.391,83.32 497,83.65 497.021,83.76 496.99,83.85 496.88,84.55 496.811,84.84 
					496.69,85.15 496.48,85.44 496.13,85.65 495.91,85.77 495.2,86.05 494.99,86.23 494.53,86.76 494.18,86.8 493.84,86.77 
					493.51,86.8 493.42,86.82 493.13,86.97 492.72,87.31 490.311,88.39 489.891,88.68 489.49,88.9 488.98,89.23 488.891,89.34 
					488.74,89.52 488.69,89.62 488.66,89.8 488.71,89.92 489.13,90.24 489.33,90.43 489.5,90.73 489.61,90.91 489.73,91.26 
					489.82,91.59 489.851,91.79 489.83,91.87 489.79,91.98 489.67,92.05 489.561,92.08 489.46,92.1 489.26,92.08 489.07,92.01 
					488.601,91.79 				"/>
				<polyline fill="none" stroke="#666666" stroke-width="0.25" stroke-linejoin="round" stroke-miterlimit="3.8637" points="
					477.83,93 478.811,92.44 479.3,92.28 479.561,92.25 479.95,92.26 481.04,92.4 482.24,92.61 482.771,92.61 483.08,92.52 
					483.311,92.41 483.95,92.02 484.08,91.98 484.38,91.92 484.58,91.83 484.84,91.68 				"/>
				<polyline fill="none" stroke="#666666" stroke-width="0.25" stroke-linejoin="round" stroke-miterlimit="3.8637" points="
					488.601,91.79 488.66,91.96 488.8,92.16 488.9,92.26 489.101,92.41 489.38,92.56 489.82,92.7 490.13,92.73 490.48,92.71 
					490.93,92.64 491.23,92.52 491.44,92.48 491.65,92.46 491.86,92.53 491.98,92.62 492.2,92.86 492.58,93.43 492.851,93.73 
					493.13,93.99 493.58,94.23 494.08,94.33 494.351,94.38 494.63,94.38 494.72,94.35 494.83,94.26 494.86,94.15 494.84,93.39 
					494.92,93.3 495.021,93.31 495.23,93.42 495.67,93.76 496.22,94.36 				"/>
				<polyline fill="none" stroke="#666666" stroke-width="0.25" stroke-linejoin="round" stroke-miterlimit="3.8637" points="
					463.38,96.16 463.97,96.09 464.51,96.09 464.78,96.06 465.351,95.98 465.73,95.98 467.18,95.89 467.42,95.85 468.28,95.4 
					468.5,95.35 468.641,95.37 468.88,95.41 469.34,95.56 469.7,95.64 470.22,95.71 470.47,95.73 470.86,95.8 471.19,95.82 
					471.521,95.71 471.7,95.53 471.76,95.29 471.74,94.98 471.76,94.59 471.851,94.27 472,94.06 472.101,93.96 472.45,93.78 
					472.83,93.64 473.51,93.34 473.601,93.31 473.811,93.3 474.23,93.46 474.87,93.49 475.521,93.46 476.08,93.4 477.17,93.21 
					477.59,93.1 477.83,93 				"/>
				<polyline fill="none" stroke="#666666" stroke-width="0.25" stroke-linejoin="round" stroke-miterlimit="3.8637" points="
					449.98,84.23 449.99,84.25 450.021,84.45 449.97,84.79 449.891,85.09 449.69,85.62 449.59,85.86 449.51,86.08 449.51,86.29 
					449.54,86.4 449.72,86.59 450.17,87.01 450.65,87.4 450.8,87.6 450.8,87.69 450.73,87.78 450.49,87.9 450.13,87.94 
					449.99,87.94 449.68,87.98 449.13,88.06 448.78,88.41 447.97,89.4 447.76,89.68 447.74,89.79 448.16,90.09 449.15,90.66 
					449.5,90.88 449.97,91.27 450.38,91.68 450.55,91.89 450.74,92.17 451.16,92.89 451.24,93 451.45,93.13 451.57,93.16 
					452.45,93.23 452.92,93.34 453.67,93.58 454.311,93.84 454.521,93.98 455.141,94.46 455.23,94.57 455.351,94.9 455.42,95.35 
					455.47,95.77 455.561,95.96 455.66,96.06 455.75,96.12 456.07,96.15 456.87,96.13 458.53,95.98 459.351,95.86 460.16,95.83 
					461.141,95.82 461.97,95.88 462.28,95.92 463.38,96.16 				"/>
				<polyline fill="none" stroke="#666666" stroke-width="0.25" stroke-linejoin="round" stroke-miterlimit="3.8637" points="
					463.38,96.16 462.43,98.02 461.86,99.13 461.32,99.9 460.84,100.41 459.88,101.29 458.72,102.25 457.25,103.35 453.58,106.14 
					451.47,107.86 449.84,109.09 449.05,109.74 448.45,110.22 445.75,112.23 444.44,113.14 441.021,114.61 				"/>
				<polyline fill="none" stroke="#666666" stroke-width="0.25" stroke-linejoin="round" stroke-miterlimit="3.8637" points="
					477.83,93 477.83,93.24 477.98,93.52 478.19,93.82 478.36,94.02 478.57,94.21 479.061,94.56 479.47,94.75 479.84,94.87 
					479.95,94.95 480.021,95.05 480.021,95.14 480.021,95.25 479.9,95.43 479.45,95.85 478.55,96.46 478,96.94 477.92,97.03 
					477.68,97.51 477.61,97.73 477.55,98.01 477.54,98.31 477.55,98.53 477.59,98.96 477.67,100.03 477.8,100.83 477.95,101.44 
					478.09,101.88 478.36,102.6 478.49,102.91 478.62,103.18 478.87,103.77 479.22,104.41 479.68,105.13 480.44,106.46 
					480.521,106.56 480.72,106.69 481.03,106.86 481.55,107.02 481.91,107.17 482.24,107.4 482.42,107.61 482.8,108.33 
					482.98,108.54 483.08,108.61 483.19,108.67 483.44,108.71 483.87,108.6 483.95,108.61 484.09,108.69 484.45,109.03 
					484.75,109.36 485.37,109.96 485.51,110.17 485.59,110.38 485.54,110.71 485.48,110.91 485.3,111.31 484.93,111.87 
					484.84,111.99 484.66,112.29 484.57,112.53 484.55,112.63 484.58,112.81 484.73,113.05 484.851,113.17 485.141,113.43 
					486.12,114.23 486.47,114.54 486.74,114.84 486.91,115.06 487.04,115.29 487.72,116.58 487.88,116.85 488.18,117.27 
					488.37,117.46 488.88,117.96 489.25,118.38 				"/>
				<polyline fill="none" stroke="#666666" stroke-width="0.25" stroke-linejoin="round" stroke-miterlimit="3.8637" points="
					507.04,108.12 506.41,108.46 505.97,108.78 505.78,108.99 505.641,109.2 505.43,109.5 505.28,109.81 505.08,110.07 
					504.55,110.48 504.47,110.56 504.29,110.91 504.19,111.24 504.021,111.58 503.65,112.12 503.3,112.53 503.05,112.83 
					502.91,113.07 502.67,113.53 502.641,113.67 502.38,114.24 502.22,114.31 501.771,114.39 500.601,114.73 500.18,114.9 
					499.73,115.09 499.49,115.23 499.18,115.42 498.73,115.8 497.97,116.58 497.51,116.98 497.18,117.23 496.69,117.43 
					495.67,117.63 494.891,117.79 494.18,118.12 493.96,118.17 493.33,118.17 492.79,118.08 492.23,118.05 491.891,118.11 
					490.67,118.47 490.311,118.47 489.41,118.35 489.25,118.38 				"/>
				<polyline fill="none" stroke="#666666" stroke-width="0.25" stroke-linejoin="round" stroke-miterlimit="3.8637" points="
					489.25,118.38 490.061,119.34 490.34,119.65 490.66,119.92 490.88,120.07 491.37,120.27 491.9,120.43 492.04,120.45 
					492.28,120.46 492.92,120.37 493.22,120.39 493.311,120.43 493.45,120.51 493.55,120.6 493.63,120.69 493.73,120.91 
					493.76,121.09 493.78,121.62 493.75,121.93 493.76,123.21 493.73,123.4 493.67,123.61 493.33,124.38 				"/>
				<polyline fill="none" stroke="#666666" stroke-width="0.25" stroke-linejoin="round" stroke-miterlimit="3.8637" points="
					493.33,124.38 493.25,124.5 493.19,124.69 493.18,124.81 493.19,125.04 493.311,125.25 493.55,125.48 494.26,125.96 
					495.16,126.66 495.33,126.85 495.34,126.96 495.33,127.06 495.22,127.17 494.9,127.3 494.5,127.39 494.391,127.47 
					494.26,127.66 494.22,127.87 494.22,128.1 494.271,129.01 494.32,129.25 494.351,129.37 494.47,129.57 494.561,129.69 
					494.66,129.76 494.72,129.85 494.78,129.96 494.78,130.17 494.71,130.38 494.48,130.74 494.15,131.14 493.811,131.52 
					493.73,131.64 493.63,131.94 493.601,132.16 493.521,132.88 493.55,133.48 493.63,133.8 494.84,135.85 494.69,135.94 
					494.37,135.96 494.23,135.93 493.83,135.76 493.38,135.48 492.97,135.21 492.55,134.89 491.92,134.37 491.37,133.96 
					490.94,133.63 490.66,133.35 490.271,132.82 490,132.51 489.91,132.42 489.58,132.18 489.38,132.09 488.93,131.94 
					488.391,131.88 487.9,131.89 487.22,132.01 486.65,132.16 486.37,132.27 485.75,132.64 485.05,133.27 484.57,133.62 
					484.271,133.81 475.79,135.9 473.54,135.99 470.42,136.08 455.68,139.48 				"/>
				<polyline fill="none" stroke="#666666" stroke-width="0.25" stroke-linejoin="round" stroke-miterlimit="3.8637" points="
					493.33,124.38 493.47,124.42 493.7,124.39 494.23,124.42 495.01,124.41 496.271,124.2 497.04,123.93 497.47,123.71 
					497.62,123.52 498.04,122.91 498.311,122.61 498.43,122.5 498.54,122.43 498.74,122.35 498.95,122.32 499.28,122.34 
					499.88,122.44 500.71,122.64 500.93,122.65 501.05,122.62 501.141,122.56 501.37,122.23 501.44,122.14 501.65,121.98 
					501.87,121.84 502.16,121.74 502.72,121.59 503.24,121.42 503.83,121.03 504.13,120.88 504.37,120.78 504.851,120.63 
					505.54,120.43 505.96,120.27 506.51,120 507.37,119.53 507.68,119.4 507.91,119.34 508.21,119.32 508.54,119.34 509.53,119.52 
					509.811,119.5 510.16,119.41 510.771,119.19 510.98,119.14 511.08,119.16 511.18,119.22 511.25,119.34 511.25,119.43 
					511.24,119.52 511.18,119.62 510.97,119.91 510.94,120.12 510.98,120.31 510.98,120.4 510.771,120.42 510.58,120.39 
					510.351,120.43 510.23,120.63 510.26,120.73 510.38,120.93 510.47,121.03 510.73,121.21 511.04,121.38 511.38,121.47 
					511.641,121.51 512.13,121.54 512.63,121.6 513.021,121.71 513.58,121.9 514.271,122.23 515.18,122.7 515.601,122.85 
					516.73,123.36 518.061,124.05 519.44,124.6 519.76,124.77 519.95,124.93 520.08,125.13 520.311,126.03 520.38,126.37 
					520.47,126.61 520.7,126.94 520.9,127.14 521.23,127.41 521.93,128.05 522.16,128.19 522.44,128.29 522.641,128.41 
					522.8,128.62 522.891,128.91 522.92,129.09 522.87,129.55 522.74,130 522.46,130.73 522.38,130.93 522.34,131.13 
					522.311,131.35 522.311,131.79 522.38,133.08 522.41,133.87 522.4,134.1 522.34,134.34 522.2,134.74 522.13,135.07 
					522.12,135.18 522.141,135.3 522.25,135.42 523.22,136.23 523.9,136.66 525.58,137.96 526.33,138.63 527.45,139.71 
					528.22,140.28 528.54,140.49 528.8,140.65 529.101,140.71 529.3,140.7 529.91,140.56 530.141,140.56 530.24,140.64 
					530.271,140.8 530.141,141.03 529.9,141.33 529.521,141.64 529.03,141.98 528.74,142.14 528.54,142.24 527.86,142.46 
					527.38,142.65 527.021,142.84 526.67,143.08 526.271,143.38 526.04,143.61 525.55,144.18 524.66,145.8 524.44,146.19 
					524.18,146.71 				"/>
				<polyline fill="none" stroke="#666666" stroke-width="0.25" stroke-linejoin="round" stroke-miterlimit="3.8637" points="
					482.71,209.77 482.37,209.35 482.22,209.16 				"/>
			</g>
		</g>
	</g>
</g>
<path fill="#84B93B" d="M284.638,109.252c0.123,6.675,6.836,6.566,7.2,12.48c-2.729,3.083-5.508,5.123-6.721,9.84
	c-1.142,4.436,2.192,9.977,3.6,12.24c0.39,0.625,1.791,3.297,1.681,3.36c-2.944,4.428-10.912,9.401-15.358,12.72
	c-1.458,1.089-4.676,5.147-6.24,5.52c-0.728-0.766-1.738-1.332-3.12-1.44c-2.323,1.677-4.936,1.686-6.72,4.08
	c-1.302,1.748-2.879,7.021-5.28,7.2c-1.123-0.945-2.78-1.695-4.56-1.92c-0.7,0.758-1.416,1.679-2.16,2.4
	c0.076,3.073,2.332,2.847,2.64,5.52c-1.52,1.6-3.04,3.2-4.56,4.8c-4.186,3.159-8.014,6.215-11.04,10.56
	c-1.36,1.28-2.72,2.56-4.08,3.84c-2.598,3.462-4.659,7.26-7.2,10.8c-1.461,2.037-3.506,4.51-5.52,6
	c-0.559,0.414-2.09,0.855-2.4,1.44c0,1.52,0,3.04,0,4.56c-1.437-0.025-2.154,0.223-3.12,0.48c-0.57,1.151-1.221,2.022-1.44,3.6
	c-1.275-0.1-2.479-0.476-3.6-0.72c-1.728-0.376-2.905,0.37-4.32,0.48c-0.204-0.587-0.25-1.484-0.24-2.4
	c0.845-1.214-0.081-3.506-0.48-4.32c-6.084-0.784-11.917,0.214-18.72,0.24c0.023-4.983,3.332-6.611,4.32-10.56
	c1.848-7.386-10.22-10.682-16.32-10.8c-0.56-0.72-1.12-1.44-1.68-2.16c0.151-0.421,0.046-0.233,0.24-0.48
	c0.668-1.914,2.488-3.08,3.6-4.56c4.07-5.421,9.593-9.707,15.12-13.68c13.505-9.708,27.819-19.496,35.28-35.28
	c1.792,0.441,2.932,0.724,4.8,0.24c0.231-0.424,0.302-0.403,0.48-0.96c0.597-0.933,0.077-3.623-0.24-4.8
	c-1.095-4.068-2.274-7.217-2.4-12.48c4.408-0.451,8.618-2.448,12.72-3.6c1.506-0.423,5.701-1.089,7.44-0.72
	c1.202,0.255,3.813,1.3,5.04,0.96c1.733-0.48,3.624-2.15,5.28-2.88c3.644-1.606,7.206-3.051,10.56-4.8
	c2.783-1.451,9.737-4.273,10.8-6.96c0.754-1.086-0.113-3.016-0.479-3.84c0.16,0,0.318,0,0.479,0c0,0.08,0,0.16,0,0.24
	c1.449,0.509,1.807,1.758,2.641,2.88c0.864,1.163,2.359,1.841,3.359,2.88C284.157,109.252,284.397,109.252,284.638,109.252z"/>
<path fill="#84B93B" d="M318.237,213.412c-3.351,0.344-6.607-0.961-9.603-1.68c-1.941-0.467-3.162-0.006-5.039,0
	c0.019-1.417-0.102-2.725-0.238-3.84c-0.598-0.373-1.416-0.938-1.922-1.44c-1.806-0.015-3.54,0.125-5.038,0.24
	c-1.184,2.077-0.896,4.854-1.44,7.44c-0.319,0-0.64,0-0.959,0c-0.603-2.357-2.392-4.19-3.601-6
	c-3.703-5.539-8.127-10.241-12.722-14.88c0.88-4,1.761-8,2.642-12c0.281-1.271,0.265-4.693-0.239-5.52
	c-1.375-4.031-9.397-4.224-10.321-9.12c2.288-1.502,3.819-4.125,6-5.76c3.461-2.595,6.854-5.092,10.32-7.68
	c1.806-1.349,3.294-3.987,5.52-4.8c0,0.08,0,0.16,0,0.24c1.475,1.507,2.367,3.526,3.6,5.28c2.641,3.755,5.568,7.43,7.2,12.24
	c1.463,4.31,1.188,9.42,2.642,13.92c0.508,1.572,0.991,3.444,1.68,5.04c0.229,0.531,1.105,1.578,1.2,2.16
	c0.108,0.659-0.599,1.039-0.72,1.44c-0.546,1.799,0.672,4.306,1.198,5.521c1.418,3.257,3.742,6.58,5.999,9.12
	c1.396,1.571,4.359,3.179,4.563,5.76C318.717,210.531,318.477,211.972,318.237,213.412z"/>
<path fill="#84B93B" d="M268.078,244.611c0-5.245-0.157-9.995,0.96-14.64c0.314-1.308,1.667-5.934,1.2-7.44
	c-0.917-2.963-4.616-3.462-6-5.521c-0.24-0.96-0.48-1.92-0.72-2.88c-1.292-3.081-2.61-6.514-7.2-6.48
	c-0.419,0.421-0.921,0.36-1.44,0.72c-0.952,0.66-1.729,2.713-2.4,2.88c-0.872-1.122-0.285-4.386-0.24-6.48
	c-0.8-0.88-1.6-1.76-2.4-2.64c-2.087-1.525-5.068-2.738-7.68-3.6c-1.659-0.548-6.005-0.933-6.72-2.16
	c3.715-3.478,7.147-6.961,11.28-10.08c1.601-1.208,2.637-3.179,4.08-4.56c0.049-2.654-1.283-3.818-2.64-5.04
	c0.151-0.421,0.046-0.233,0.24-0.48c0.225-0.748,0.602-1.088,0.96-1.68c2.125,0.88,3.625,2.23,6.48,1.68
	c1.677-3.478,3.399-7,6.48-9.12c0.77-0.53,2.889-2.209,3.84-1.68c2.461,0.644,2.381,2.987,3.84,4.56
	c2.467,2.661,6.53,3.93,9.12,6.48c-0.025,4.563-0.633,8.075-1.68,11.76c-0.379,1.332-1.586,3.814-0.961,5.76
	c0.564,1.757,2.64,2.879,3.84,4.08c2.648,2.649,5.48,5.587,7.682,8.64c1.33,1.848,2.676,3.859,3.84,5.76
	c0.53,0.868,0.783,2.689,1.68,3.12c0.562,0,1.119,0,1.682,0c0.244-0.193,0.064-0.085,0.479-0.24c1.041-2.128,0.859-4.881,1.439-7.44
	c0.48,0,0.96,0,1.439,0c0.91-0.625,2.28,0.018,3.119,0.24c0.348,0.641,0.479,1.013,0.479,2.16c0.361,0.573,0.354,2.436,0.479,3.12
	c0.08,0,0.16,0,0.24,0c2.424-1.735,8.759,0.649,10.801,1.2c1.215,0.328,3.474-0.218,4.08,0.72c-0.641,1.84-1.281,3.68-1.921,5.52
	c-0.937,2.167-2.306,4.191-3.36,6.24c-5.223-1.051-9.666,0.988-12.719,2.88c-6.809,4.219-11.67,9.809-18,14.4
	c-0.72,0.521-1.394,1.451-2.159,1.92c-0.24,0-0.479,0-0.722,0c-1.058,0.796-0.461,2.003-2.16,2.4
	C275.127,246.653,271.526,244.699,268.078,244.611z"/>
<path fill="#84B93B" d="M236.878,297.651c0-1.041,0-2.08,0-3.12c-2.341-0.74-4.479-2.837-6.48-4.08
	c-4.076-2.533-7.99-4.675-11.76-7.438c-0.821-0.604-1.126-2.095-1.92-2.642c-0.937-0.646-1.758-0.552-2.4-1.438
	c-1.298-1.797-2.045-4.582-2.64-6.961c-0.393-1.57-0.06-3.015-0.72-4.32c-1.054-2.082-3.919-2.502-5.76-3.84
	c-0.755-0.549-0.957-1.889-1.68-2.398c-1.6-0.48-3.2-0.96-4.8-1.44c-4.019-1.481-8.479-2.69-13.2-3.6
	c-1.929-0.372-3.788,0.9-5.28,1.2c-2.4,0.482-9.388-3.199-10.56-4.32c0.08,0,0.16,0,0.24,0c0.64-1.12,1.28-2.24,1.92-3.36
	c0.568-0.762,1.497-0.692,1.92-1.68c-0.827-1.25-0.586-4.972-0.24-6.48c0.372-1.621,0.009-2.883,0.48-4.32
	c1.355-4.14,3.446-7.478,5.52-10.8c0.857-1.374,1.609-4.414,3.12-5.04c2.64,0,5.28,0,7.92,0c2.035-1.318,8.19-0.567,10.56-0.24
	c0.122,2.196-0.019,4.768,0.48,6.72c0.424,0.231,0.403,0.302,0.96,0.48c1.928-1.885,5.7-0.369,8.16,0
	c0.496-1.226,0.896-3.579,2.16-4.08c0.763-0.513,1.943-0.1,2.88,0c0-1.68,0-3.36,0-5.04c5.887-3.795,9.401-10.216,13.44-15.84
	c1.227-1.708,3.546-5.546,5.76-6c2.113,1.541,6.969,1.796,9.6,2.88c2.824,1.163,4.711,2.866,6.72,4.8
	c-0.04,2.52-0.483,4.915,0.24,6.72c0.351,0.205,0.688,0.435,0.96,0.72c0.421-0.151,0.233-0.046,0.48-0.24
	c2.067-1.682,1.75-3.858,5.76-3.84c1.127,1.723,2.756,3.273,3.6,5.28c0.32,1.2,0.64,2.4,0.96,3.6c1.382,2.163,5.381,2.591,6,5.521
	c0.374,1.77-0.798,5.144-1.2,6.72c-1.171,4.587-1.662,10.859-0.72,15.84c2.982-0.071,8.829,2.682,9.12,4.8
	c0.192,0.283,0.188,0.403,0.239,0.96c-0.997,1.028-1.36,2.333-2.159,3.6c-2.513,3.987-4.883,8.125-7.438,12.241
	c-6.969,11.213-14.102,22.83-20.16,34.801C243.377,301.086,240.837,298.269,236.878,297.651z"/>
<path fill="#84B93B" d="M165.599,253.971c0.318,2.671-0.901,3.299-0.96,6.24c-2.495,1.5-6.08,3.356-6,7.44c0.08,0,0.16,0,0.24,0
	c-0.08,0.158-0.16,0.317-0.24,0.479c-3.714,1.188-3.122,0.969-3.84,5.041c-0.641,0.395-6.097,4.037-6.24,4.319
	c0.72,0.79,0.887,2.353,0.24,3.36c-1.52,1.357-3.04,2.719-4.56,4.08c-1.45,2.125-0.82,5.504-2.16,7.92
	c-0.407,0.731-1.475,1.371-1.92,2.158c-0.497,0.878-0.53,1.936-1.44,2.399c-1.185-0.847-2.257,0.28-3.84,0.479
	c-0.914-0.725-2.179-0.993-2.88-1.92c-1.326-1.751-2.462-3.848-4.32-5.039c-1.824-1.171-4.076-0.36-5.28-2.159
	c-3.018,1.131-5.158,2.6-9.12,2.159c-0.331-1.372-1.063-2.838-1.44-4.319c-0.812-3.194-0.19-6.869-1.68-9.358
	c-0.575-0.961-1.609-1.414-2.4-2.16c-1.704-0.034-2.894,0.194-4.08,0.479c0-0.16,0-0.319,0-0.479c0.441-0.623,0.331-1.419,0.72-2.16
	c1.1-2.097,3.524-3.386,4.32-5.76c-1.503-1.646-1.67-4.545-2.88-6.48c-0.83-1.327-2.257-1.837-3.36-2.88
	c-2.438-0.009-3.524,0.765-5.28,1.2c-2.661,0.66-7.501,0.039-10.08,0.24c-0.408-3.941,2.912-5.81,4.08-8.88
	c1.033-2.716,0.515-6.299,1.2-9.36c0-1.52,0-3.04,0-4.56c0.582-2.576,1.131-5.156,1.68-7.44c0.72-0.16,1.44-0.32,2.16-0.48
	c0-0.72,0-1.44,0-2.16c0.311-1.196,0.997-2.659,1.68-3.6c1.704-2.347,5.099-3.54,7.44-5.28c1.407-1.045,2.773-4.111,4.08-4.8
	c0.97,0.705,4.162,1.149,6,0.72c4.271-0.997,9.058-2.174,13.2-3.12c2.345-0.535,2.693,1.41,3.84,1.92c1.28,0,2.561,0,3.84,0
	c3.69-0.003,6.873-0.466,9.84-1.44c5.764-1.893,11.151-4.799,15.84-7.92c2.141-1.425,4.18-3.935,6.72-4.8
	c1.194,3.527,6.546,2.691,10.08,3.84c4.235,1.377,4.606,2.803,7.2,5.521c0.109,4.646-2.51,6.255-3.84,9.36
	c-0.587,1.371-0.17,2.719-0.72,4.32c-1.369,3.984-5.373,8.307-7.2,12.48c-1.813,4.141-1.709,9.084-1.68,14.64
	C169.617,249.782,170.016,253.779,165.599,253.971z"/>
<path fill="#84B93B" d="M177.838,297.892c0.089-1.97,0.474-4.431-0.48-6c-0.269-0.441-1.243-0.774-1.44-1.199
	c0-4.08,0-8.159,0-12.239c-0.48-0.08-0.96-0.16-1.44-0.24c-0.615-1.078-0.742-2.938-1.44-4.08c-0.937-1.53-2.402-2.061-3.84-3.118
	c-0.886-0.652-1.17-2.01-2.16-2.642c-1.524-0.974-6.304-1.906-6.72-3.601c0.9-0.578,4.927-3.303,5.28-4.081c0-0.8,0-1.6,0-2.4
	c0.129-0.385,0.8-0.823,0.96-1.2c0.16-0.8,0.32-1.6,0.48-2.4c0.867-0.075,1.403-0.41,1.68-0.24c3.116,0.788,5.649,2.976,8.64,3.84
	c3.217,0.929,5.463-1.385,7.92-0.96c4.651,0.804,9.024,2.148,12.96,3.6c1.6,0.48,3.2,0.959,4.8,1.44c0.706,0.66,0.85,1.834,1.68,2.4
	c1.463,0.996,3.249,1.279,4.56,2.398c1.785,1.523,1.288,5.727,2.16,8.159c0.625,1.745,1.927,4.507,3.36,5.521
	c0.493,0.349,1.093,0.252,1.44,0.721c0.573,0.771,0.68,1.605,1.439,2.158c4.132,3.015,8.615,5.699,12.96,8.399
	c1.025,0.638,4.868,2.261,5.28,3.12c0,1.04,0,2.08,0,3.12c0.08,0,0.16,0,0.24,0c0,0.08,0,0.159,0,0.239
	c2.525,0.127,8.96,3.123,10.32,4.561c-1.752,1.896-2.593,4.827-3.84,7.2c-2.025,3.853-4.3,7.767-6.24,11.76
	c-0.421-0.151-0.233-0.046-0.48-0.239c-2.069-0.537-2.744-2.437-4.56-2.879c-2.916,2.281-8.665,0.289-10.8-1.201
	c-2.381-1.662-6.25-5.842-7.68-8.398c-0.16-1.602-0.32-3.2-0.48-4.8c-1.365-3.83-5.02-6.353-8.64-7.921
	c-3.04-1.041-6.081-2.079-9.12-3.119c-1.66-0.719-3.351-2.342-6-1.44C184.419,293.563,183.689,297.867,177.838,297.892z"/>
<path fill="#84B93B" d="M110.879,286.853c-2.29-0.086-4.919-0.496-6.96,0.239c-2.077,0.748-4.361,3.121-7.92,2.159
	c-2.328-0.628-3.79-2.359-5.76-3.359c0,0.159,0,0.319,0,0.479c-1.25,1.815-0.94,4.93-1.68,7.2c-0.719,2.205-2.332,2.701-2.4,5.521
	c0.727,1.033,2.035,4.562,2.16,5.999c-0.855,0.848-1.335,1.729-2.4,2.4c0.776,1.504,2.258,1.515,2.4,3.6
	c-0.24,0.721-0.48,1.44-0.72,2.16c-1.158,0.313-6.096,2.025-6.48,2.88c0,0.722,0,1.44,0,2.16c0.303,0.326,0.328,0.424,0.48,0.96
	c1.054,0.641,4.629,2.318,5.04,3.359c0.396,0.431,0.419,0.604,0.48,1.438c1.27,0.246,1.205,0.958,1.92,1.681
	c0.079,2.888-2.535,6.265-4.8,6.479c-0.522,0.188-2.835-0.517-4.08,0c-2.094,0.866-2.124,2.801-5.28,2.88
	c-2.116-9.359-11.201-16.414-18.24-21.119c-2.08-1.392-4.347-3.878-6.72-4.801c-2.814-1.094-5.192,0.859-7.92,0.96
	c-0.877-3.291-4.062-5.466-6.96-6.72c-1.102-0.479-2.093-0.471-2.88-1.2c0.08,0,0.16,0,0.24,0c0.838-1.229,2.091-2.317,2.88-3.601
	c0.623-1.012,0.783-2.879,1.68-3.601c0.72-0.239,1.44-0.479,2.16-0.721c3.5-1.541,7.535-3.271,11.28-4.8
	c0.863-0.354,2.163-0.161,2.88-0.721c0.501-0.392,0.749-1.447,1.2-1.92c1.627-1.705,4.158-3.128,6.48-4.08
	c2.59-1.063,5.16-1.246,7.92-2.16c2.914-0.965,5.623-2.319,7.92-3.84c1.266-0.839,3.044-1.097,3.6-2.642
	c0.609-0.839,0.33-2.774,0.96-3.601c0.854-0.842,2.124-0.944,3.12-1.68c1.815-1.341,1.955-5.218,1.92-8.4c0.08,0,0.16,0,0.24,0
	c0.618,0.254,1.559-0.414,2.64-0.48c2.719,0,5.44,0,8.16,0c1.621-0.388,2.551-1.107,4.56-1.2c0.692,0.658,1.83,0.905,2.4,1.68
	c1.246,1.695,2.76,4.926,3.12,7.201c-2.545,1.773-4.802,5.041-4.8,9.359c0.16,0,0.32,0,0.48,0c1.095-0.92,3.111-1.077,4.8-0.721
	C109.706,278.954,110.75,282.51,110.879,286.853z"/>
<path fill="#84B93B" d="M159.599,266.211c2.022,0.924,4.846,1.606,6.72,2.881c0.842,0.571,0.978,1.703,1.68,2.399
	c1.122,1.111,2.907,1.316,3.84,2.64c0.764,1.084,0.448,2.882,1.2,4.08c0.366,0.584,1.581,0.701,1.92,1.2c0,3.999,0,8.001,0,12
	c1.915,0.646,2.206,3.188,1.92,5.279c-0.157,1.147,0.609,2.311,0.48,2.399c-2.645,3.945-7.983,5.793-10.8,9.601
	c-1.21,1.636-1.188,4.228-2.4,6c-0.943,1.381-3.217,2.099-4.56,3.119c-1.01,0.771-1.406,2.282-2.64,2.881
	c-2.388,1.156-6.755,1.291-8.88,0c-0.886-0.539-1.875-1.821-2.88-2.159c-2.684-0.904-5.75,0.979-7.2,1.68
	c-1.869,0.899-3.999,0.295-4.08,3.12c0.595,0.846,0.646,1.988,1.2,2.88c1.146,1.845,2.655,3.063,3.6,5.28c-0.32,0-0.64,0-0.96,0
	c-1.181-0.855-2.712-1.082-3.84-1.922c-3.495-2.598-4.355-6.866-9.6-8.158c-3.043-0.75-4.999,0.826-7.2,0.96
	c-0.654-0.994-1.885-2.756-3.12-3.12c-2,0.08-4,0.16-6,0.24c-3.442-0.92-5.242-3.096-9.84-3.12c-1.779,3.026-5.229,6.63-9.6,6.96
	c-1.186-3.007-5.356-2.878-6.24-5.28c-0.231-0.34-0.234-0.784-0.24-1.438c1.626-0.864,5.816-1.536,6.48-3.359
	c0.711-0.783,0.749-2.324,0.72-3.84c-0.66-0.411-1.478-1.039-1.92-1.682c0.869-0.578,1.201-1.455,1.92-2.158
	c0.024-3.456-1.855-4.479-2.16-7.682c1.502-1.22,2.292-3.666,2.88-5.761c0.418-1.489,0.04-3.836,1.2-4.56
	c1.223,1.587,5.091,3.63,8.64,2.64c2.033-0.565,3.982-2.082,6.24-2.64c1.758-0.436,3.738,0.232,5.04,0.479
	c0.52,1.377,1.072,2.656,1.68,3.84c5.117,0.445,5.67-0.988,9.36-1.92c1.066,1.488,3.455,0.951,5.04,1.92
	c2.23,1.363,5.15,8.166,9.12,6.961c0.646-0.196,0.86-0.612,1.92-0.721c0.326,0.512,0.694,0.869,1.2,1.2
	c0.422-3,2.939-4.388,3.84-6.72c0.969-2.51,0.526-5.266,1.92-7.2c1.238-1.718,3.814-2.593,4.8-4.56
	c0.542-1.082-0.201-2.576,0.24-3.36c1.622-1.489,4.958-2.099,5.76-4.319c0.411-1.138,0.293-2.604,0.48-3.602
	c1.333-0.018,2.716-0.162,3.12-1.199C159.953,267.789,159.668,267.162,159.599,266.211z"/>
<path fill="#84B93B" d="M190.078,293.092c2.396,0.188,4.095,1.621,6,2.399c5.233,2.14,11.283,3.018,14.16,7.439
	c0.665,1.021,1.139,2.584,1.2,4.079c0,0.88,0,1.761,0,2.64c0.5,1.175,2.125,2.345,2.88,3.36c3.982,5.368,8.192,9.324,17.28,7.439
	c0.976,1.454,2.608,1.717,3.84,2.88c-1.291,1.736-1.725,4.167-2.64,6.238c-1.678,3.804-3.537,7.576-5.28,11.521
	c-4.669,10.564-10.434,20.975-15.12,31.682c-1.853,4.231-3.551,8.547-5.28,12.72c-0.682,1.647-0.952,5.155-2.4,6
	c-1.958-1.95-5.131-2.99-7.68-4.319c-0.967-0.505-2.915-0.979-3.36-1.921c0-1.521,0-3.039,0-4.56
	c-0.458-0.698-0.229-1.674-0.48-2.642c-0.591-2.274-1.089-5.237,0.24-7.198c0.56-0.399,1.12-0.802,1.68-1.201
	c0-1.039,0-2.08,0-3.118c-0.611-0.802-0.655-1.998-1.2-2.882c-1.696-2.748-6.225-7.151-9.12-8.641
	c-0.053,1.775-0.563,3.112-1.68,3.842c-1.617,1.27-6.793-0.41-9.36-0.479c-0.52,1.646-1.744,2.61-2.64,3.84
	c-3.794,5.199-7.191,5.951-13.439,8.64c-0.678,0.293-1.73,1.229-2.4,1.44c-2-0.24-4-0.479-6-0.722
	c-0.134-0.385-0.192-0.575-0.24-1.198c0.193-0.246,0.085-0.065,0.24-0.479c4.026-0.873,5.583-8.988,7.2-12.721
	c3.809-8.786,14.572-11.109,14.64-23.04c-1.451-0.653-8.581-4.627-8.88-5.76c-0.277-1.054,0.77-2.181,0.96-2.88
	c0.252-0.93-0.134-2.008-0.24-2.641c-1.054-0.445-3.625-1.074-4.08-2.16c0.457-0.529,0.671-1.474,1.2-1.92
	c1.435-1.215,3.709-1.832,4.8-3.359c0.973-1.363,0.752-3.58,1.68-5.04c2.111-3.322,6.463-6.036,9.6-8.399
	c0.88-0.96,1.76-1.921,2.64-2.88c1.078-0.502,2.164-0.058,3.12-0.479c2.062-0.911,3.499-3.084,5.28-4.319
	C188.016,293.726,189.252,293.683,190.078,293.092z"/>
<path fill="#84B93B" d="M41.04,311.091c2.739-0.005,5.772-1.57,7.44-1.199c2.326,0.519,4.208,2.647,6,3.84
	c5.097,3.391,10.546,6.914,14.16,11.762c1.541,2.064,3.271,4.531,4.32,6.96c0.59,1.366,0.403,3.144,1.92,3.6
	c2.448,1.173,4.269-2.577,6.48-2.88c0.642-0.458,1.678-0.169,2.16,0.24c3.398,4.322,6.695,8.854,10.56,12.72
	c0.839,0.841,5.77,4.772,6,5.279c0,1.601,0,3.2,0,4.801c-1.567,2.351-2.653,7.313-6.24,7.438c-1.215,0.746-3.112,0.485-4.56,0.961
	c-2.532,0.828-5.152,2.007-7.44,3.119c-0.222,3.813-1.132,4.979,0.48,8.16c-2.744,0.737-3.429,3.813-5.52,4.319
	c-2.199-1.701-4.8,0.981-6.48,1.438c-1.155,0.313-2.475-0.153-3.36-0.239c-0.531,5.573-1.776,11.034-4.8,14.159
	c-3.781-0.646-6.417,1.901-9.12,3.602c-3.582,2.25-7.099,4.311-10.56,6.479c-3.252,2.039-7.056,4.24-10.8,5.521
	c-0.892,0.307-3.142,0.585-4.32,0.24c-3.046-0.891-5.284-2.983-8.4-3.842c-4.945-1.356-6.735,3.77-12,1.682c0,1.041,0,2.08,0,3.121
	c-0.16,0-0.32,0-0.48,0c-0.258,0.18-0.227,0.145-0.72,0.238c-0.779-1.303-1.864-2.158-2.4-3.84
	c-2.234-7.002,2.281-13.521,6.72-15.601c-2.939-6.194,1.197-12.462,3.84-16.8c1.066-1.75,3.264-5.166,1.92-8.4
	c-0.681-1.639-2.23-2.416-3.36-3.6c-5.047-0.08-5.843,1.912-9.84,2.16c-0.352-1.359-1.495-2.313-2.64-2.881
	c0.08-0.24,0.16-0.479,0.24-0.722c1.394-1.476,1.958-3.825,3.6-5.039c1.097-0.812,3.539-0.802,4.32-1.921
	c0.4-1.117,0.8-2.238,1.2-3.357c0.769-1.143,2.001-2.188,2.88-3.36c0.891-1.187,3.617-3.161,3.6-4.32
	c-0.502-1.382-1.869-1.368-2.4-2.64c0.16,0,0.32,0,0.48,0c0.372,0.252,0.98,0.247,1.68,0.24c0.157-0.45,0.229-0.939,0.24-1.68
	c1.533-0.074,2.252-0.463,4.08-0.48c0-0.561,0-1.12,0-1.68c0.26-0.221,0.021,0.018,0.24-0.24c0.24,0,0.48,0,0.72,0
	c-0.274-5.725-6.436-4.771-6.96-9.12c0.654-0.41,0.599-0.608,1.68-0.72c0.963-0.625,3.843-0.271,5.28-0.24
	c0.284-6.436,1.488-15.451,3.6-20.4c0.912-2.137,1.839-5.023,4.56-5.279c0.744,0.429,1.031-0.084,1.92,0.24
	C34.704,304.295,40.731,306.334,41.04,311.091z"/>
<path fill="#84B93B" d="M139.918,332.451c-0.289-4.386-4.074-5.886-5.04-10.08c2.35-0.535,6.891-3.812,9.84-2.88
	c1.598,0.504,2.905,2.324,4.56,2.88c2.995,1.004,6.054-0.447,8.4-0.96c0.987,1.345,3.299,1.576,4.56,2.64
	c-0.42,1.871-1.161,3.257-0.72,5.521c1.467,0.81,8.548,4.985,8.64,6.479c-0.254,0.419-0.047,1.023-0.24,1.681
	c-0.48,1.639-1.451,3.515-2.4,4.802c-3.54,4.801-9.188,7.584-11.76,13.438c-1.513,3.443-3.169,11.533-6.48,12.721
	c-0.551-6.774-8.426-11.279-14.64-12.721c-1.571-0.365-4.32-0.018-5.52,0.239c-2.959-0.16-5.92-0.319-8.88-0.479
	c-3.753-0.85-5.056-2.646-9.6-2.641c-0.38,1.143-1.299,1.776-1.92,2.641c-2.677,3.725-5.046,7.498-11.52,7.439
	c0-0.16,0-0.32,0-0.479c3.282-2.139,4.263-6.85,3.6-12.24c-1.98-0.688-3.429-2.71-4.8-4.08c-3.9-3.9-7.028-8.705-11.04-12.48
	c1.943-2.809,6.681-4.633,4.32-9.6c2.631-0.592,5.063-1.977,6.72-3.6c1.275-1.25,1.682-3.223,4.08-3.36
	c0.51,0.331,1.271,0.212,1.92,0.479c1.837,0.762,3.656,2.117,5.76,2.641c2.033,0.506,4.565-0.898,6,0
	c1.847,0.678,1.826,2.732,4.08,3.119c2.137-1.74,6.864-1.404,9.12,0C131.69,326.519,132.063,332.338,139.918,332.451z"/>
<path fill="#84B93B" d="M127.919,357.41c0.6,4.485,5.175,5.715,5.28,9.36c-1.001,0.756-4.298,3.976-4.8,5.039
	c2.283,2.439,0.128,5.871,0.48,9.121c0.245,2.264,1.578,3.153,2.16,4.799c-0.496,0.845-0.577,2.938-1.44,4.08
	c-0.311,0.211-0.592,0.215-1.2,0.239c-0.809-0.784-2.114-0.756-3.36-0.479c-1.564,4.481-1.081,10.644-2.88,14.882
	c-1.978,4.657-8.664,8.237-6.24,15.6c-0.645,0.15-1.049,0.336-1.44,0.72c-2.082-0.47-3.555-2.476-4.8-3.84
	c-1.04-0.08-2.08-0.16-3.12-0.24c-1.653,0.526-2.675,1.929-4.8,2.16c0-0.08,0-0.16,0-0.24c2.834-2.907,1.419-7.834,0.48-11.278
	c-5.857-2.828-8.494,4.3-14.16,4.562c-0.459-0.389-0.837-0.453-1.2-0.959c-1.363-1.922-0.231-3.752-3.36-4.08
	c-1.656,2.09-6.383,2.696-9.36,1.438c-5.441-2.301-7.647-7.668-11.52-11.521c0-0.158,0-0.318,0-0.479
	c3.534-1.847,4.824-8.647,5.04-13.681c4.151,0.035,4.215-1.157,6.72-1.92c1.474-0.448,2.53,1.174,3.12,0.72
	c1.545-1.021,2.299-3.021,3.84-4.08c0.865-0.595,2.336-0.517,2.88-1.438c-2.801-1.744-1.785-4.232-1.44-7.681
	c3.264-0.733,6.396-2.455,9.84-3.358c3.833-1.008,8.184-0.158,11.04-1.92c1.882-1.162,3.987-3.273,5.28-5.041
	c1.162-1.586,1.48-3.646,4.08-3.84C116.305,356.767,122.22,357.149,127.919,357.41z"/>
<path fill="#84B93B" d="M176.398,404.931c0.24,0,0.48,0,0.72,0c0-0.16,0-0.32,0-0.479c1.423-2.358-3.201-7.813-4.32-8.881
	c-4.646-4.438-10.457-7.836-13.92-13.439c-0.8-1.295-1.299-3.219-1.68-4.801c0-0.719,0-1.439,0-2.159
	c-0.334-0.823-1-1.108-1.2-2.399c0.16,0,0.32,0,0.48,0c1.057-0.945,2.655-1.082,4.08-1.681c3.546-1.491,7.897-3.343,10.08-6.239
	c1.18-1.564,2.938-5.391,5.28-5.521c1.733,1.208,7.166,1.478,8.64,0c0.587-0.589,0.655-1.776,1.2-2.399c0,0.08,0,0.159,0,0.239
	c3.307,1.673,8.417,6.734,8.4,11.761c-3.648,2.33-2.421,7.777-1.44,12c0.313,1.346-0.341,3.991,0,4.561
	c2.141,2.986,11.539,4.547,11.76,8.158c-0.996,1.598-0.818,4.141-1.44,6c-1.251,3.748-3.135,7.113-4.56,10.563
	c-1.902,4.604-2.252,10.27-6.24,12.72c-2.084,1.281-3.485,0.45-5.76,0.239c-2.128-0.197-3.438,0.604-5.28,0.721
	c0-0.158,0-0.318,0-0.479c-0.751-1.102-0.665-2.773-1.2-4.08C178.027,414.517,176.37,411.457,176.398,404.931z"/>
<path fill="#84B93B" d="M129.359,357.171c9.12-0.143,16.635,3.737,18.72,10.319c0.529,1.672-0.312,2.997,0,4.801
	c1.725,0.746,4.909,0.711,6.72,1.438c1.051,2.264,1.159,5.073,2.16,7.439c0.642,1.518,1.891,3.229,2.88,4.561
	c4.546,6.112,14.46,9.526,16.32,18c-0.939,0.258-0.921,0.272-0.96,1.439c-0.682,1.044-0.331,4.542,0,5.762
	c1.295,4.754,4.329,8.409,4.56,13.918c-0.351,0.205-0.688,0.437-0.96,0.722c-8.424,0.313-12.566-8.113-16.32-13.439
	c-1.474-2.091-3.867-4.819-6-6.239c-1.447-0.966-4.471-1.283-5.52-2.642c-1.905-2.465-1.32-6.703-2.64-9.84
	c-1.815-4.313-6.064-6.724-9.12-9.841c-0.8-0.08-1.6-0.159-2.4-0.239c-1.232,0.317-2.89,1.974-4.08,1.44
	c-4.867-0.968-1.021-7.244-2.16-11.521c-0.138-0.52-0.562-1.034-0.72-1.682c1.522-0.506,4.133-3.227,4.32-5.039
	c0.859-1.434-0.53-2.44-1.2-3.12C131.614,362.049,128.774,359.521,129.359,357.171z"/>
<path fill="#84B93B" d="M175.198,426.051c-0.093,1.365,0.102,1.018,0.479,2.16c-4.05,2.432-9.18,1.969-14.16,3.6
	c-3.561,1.166-6.696,2.832-10.08,4.32c-1.684,0.74-2.984,1.928-5.28,2.16c-0.388-0.557-0.351-0.564-1.2-0.721
	c-0.16,0.238-0.32,0.479-0.48,0.721c-1.814-0.756-5.416-1.038-5.52-3.601c-0.558-1.236,2.047-3.274,2.88-4.08c0-0.399,0-0.802,0-1.2
	c-1.349-0.056-8.68-3.934-9.12-4.562c-0.878-1.252-1.028-2.874-1.92-4.078c-0.56-0.399-1.12-0.802-1.68-1.201
	c-5.893-0.086-5.181,2.849-8.64,3.601c-0.875-1.772-2.471-2.59-3.84-3.84c-0.262-8.146,4.135-8.886,6.48-14.399
	c1.717-4.035,1.675-9.813,2.64-14.397c0.385-0.136,0.577-0.193,1.2-0.24c0.661,0.547,1.535,0.873,2.64,0.959
	c0.339-0.362,0.664-0.528,0.96-0.959c0.747-1.133,0.772-3.862,1.92-4.562c1.385,0.858,3.877-1.172,5.52-1.438
	c3.449,2.817,7.524,5.237,9.36,9.601c1.317,3.131,0.843,7.287,2.64,9.84c1.066,1.517,3.672,1.644,5.28,2.642
	c2.311,1.435,4.665,4.051,6.24,6.239C164.647,416.956,169.08,425.102,175.198,426.051z"/>
<path fill="#84B93B" d="M7.92,410.69c1.444,0.037,2.129,0.418,3.6,0c2.109-0.601,3.977-2.967,7.2-2.159
	c3.857,0.965,7.655,5.698,13.44,3.6c6.491-2.356,13.464-7.237,19.2-10.801c2.551-1.584,5.066-4.476,8.64-4.799
	c0.558,0.588,1.661,0.823,2.16,1.438c3.538,4.367,5.251,7.556,10.32,10.563c1.456,0.862,4.138,2.374,6.959,1.68
	c1.938-0.478,3.212-1.709,5.28-1.92c0,0.16,0,0.319,0,0.479c0.507,0.75,0.429,2.146,0.96,2.879c0.582,0.651,0.993,1.088,2.16,1.201
	c1.351,0.854,3.241-0.279,4.08-0.722c2.817-1.479,5.146-4.75,9.12-4.08c1.26,2.601,1.917,6.527,0.24,9.359
	c-0.491,0.829-1.311,1.374-1.68,2.399c0.16,0,0.32,0,0.48,0c3.097,2.331,6.029-3.416,9.12-1.438c2.375,0.917,2.173,3.493,5.76,3.6
	c0.57-0.614,1.689-0.934,2.64-0.239c1.773,0.521,1.505,2.152,2.88,2.881c0.597-0.579,1.464-0.699,2.16-1.2
	c2.038-1.466,2.95-3.386,6.72-2.64c0.89,1.431,1.592,3.395,2.64,4.8c0.623,0.836,7.251,4.229,8.64,4.801c0,0.159,0,0.319,0,0.479
	c-1.574,0.866-2.824,1.644-2.88,4.08c0.252,0.364,0.381,1.181,0.48,1.682c0.672,0.397,1.411,1.152,2.16,1.438
	c1.23,0.469,2.285,0.191,3.12,0.959c-0.08,0-0.16,0-0.24,0c-1.052,1.328-2.687,2.119-4.08,3.121c-3.045,2.189-6.129,4.688-9.36,6.72
	c-1.568,0.987-3.196,1.428-4.8,2.399c-2.247,1.365-4.938,3.393-7.92,3.84c-1.45-4.376-7.669-5.532-12.24-3.6
	c-7.792,3.295-14.641,9.527-18.72,16.561c-0.08,0-0.16,0-0.24,0c0-0.08,0-0.16,0-0.24c-3.674-1.887-6.092-5.624-9.6-7.92
	c-0.762-0.499-2.974-2.195-3.84-1.68c-1.522,1.116-2.297,2.963-3.36,4.56c-2.282,3.431-4.676,7.139-6.96,10.562
	c-1.082,1.622-2.15,4.604-4.32,5.04c-1.792-1.342-4.382-1.702-6.24-2.88c-1.92-1.602-3.84-3.2-5.76-4.8
	c-0.458-0.455-0.928-1.591-1.44-1.922c-2.343-1.52-6.894-1.454-9.84-2.398c-2.624-0.841-5.662-2.693-8.16-3.12
	c-0.471,0.498-1.213,0.906-1.68,0.721c-1.709-0.563-3.886-2.936-4.56-4.561c-0.444-1.07,0.134-2.566-0.48-2.88
	c-0.763-0.505-1.939-0.373-2.88-0.722c-2.098-0.771-4.41-2.299-5.52-4.078c-1.443-2.316-2.871-9.744-1.92-14.16
	c0.392-1.818,0.717-5.729,0.24-7.92c-0.263-1.209-2.185-7.803-2.16-7.922c0.37-1.762,2.291-3.76,1.92-6.238
	C9.07,413.556,7.973,412.953,7.92,410.69z"/>
<text transform="matrix(1 0 0 1 23.374 361.5879)" font-family="'MyriadPro-Regular'" font-size="12">Grombalia</text>
<text transform="matrix(1 0 0 1 33.293 515.416)" font-family="'MyriadPro-Regular'" font-size="24">Gouvernorat de Nabeul</text>
<text transform="matrix(1 0 0 1 39.374 290.5879)" font-family="'MyriadPro-Regular'" font-size="12">Soliman</text>
<text transform="matrix(1 0 0 1 118.374 246.5879)" font-family="'MyriadPro-Regular'" font-size="12">Takelsa</text>
<text transform="matrix(1 0 0 1 232.374 151.5879)" font-family="'MyriadPro-Regular'" font-size="12">El Haouaria</text>
<text transform="matrix(1 0 0 1 281.374 182.5879)" font-family="'MyriadPro-Regular'" font-size="12">Hammam Ghezze</text>
<text transform="matrix(1 0 0 1 272.374 228.5879)" font-family="'MyriadPro-Regular'" font-size="12">Kelibia</text>
<text transform="matrix(1 0 0 1 182.374 247.5879)" font-family="'MyriadPro-Regular'" font-size="12">Menzel Temime</text>
<text transform="matrix(1 0 0 1 179.374 290.5879)" font-family="'MyriadPro-Regular'" font-size="12">El Mida</text>
<text transform="matrix(1 0 0 1 184.374 341.5879)" font-family="'MyriadPro-Regular'" font-size="12">Korba</text>
<text transform="matrix(1 0 0 1 186.252 406.8281)" font-family="'MyriadPro-Regular'" font-size="12">Bni Khiar</text>
<text transform="matrix(1 0 0 1 186.374 435.5879)" font-family="'MyriadPro-Regular'" font-size="12">Dar Chabane El Fehri</text>
<line fill="none" stroke="#1A171B" x1="172.16" y1="414.41" x2="184.16" y2="434.41"/>
<text transform="matrix(1 0 0 1 122.374 417.5879)" font-family="'MyriadPro-Regular'" font-size="12">Nabeul</text>
<text transform="matrix(1 0 0 1 36.0557 440.4268)" font-family="'MyriadPro-Regular'" font-size="12">Hammamet</text>
<text transform="matrix(1 0 0 1 67.374 396.5879)" font-family="'MyriadPro-Regular'" font-size="12">Bou Argoub</text>
<text transform="matrix(1 0 0 1 101.374 345.5879)" font-family="'MyriadPro-Regular'" font-size="12">Bni Khalled</text>
<text transform="matrix(1 0 0 1 86.374 309.5879)" font-family="'MyriadPro-Regular'" font-size="12">Menzel Bouzelfa</text>
</svg>
