<?xml version="1.0" encoding="utf-8"?>
<!-- Generator: Adobe Illustrator 13.0.0, SVG Export Plug-In . SVG Version: 6.00 Build 14948)  -->
<!DOCTYPE svg PUBLIC "-//W3C//DTD SVG 1.0//EN" "http://www.w3.org/TR/2001/REC-SVG-20010904/DTD/svg10.dtd">
<svg version="1.0" id="Calque_1" xmlns="http://www.w3.org/2000/svg" xmlns:xlink="http://www.w3.org/1999/xlink" x="0px" y="0px"
	 width="532.167px" height="515.838px" viewBox="0 0 532.167 515.838" enable-background="new 0 0 532.167 515.838"
	 xml:space="preserve">
<g id="XMLID_2_">
	<g>
		<g id="XMLID_1_">
			<g>
				<polygon fill="#86BA3A" points="461.119,32.56 460.869,32.14 460.757,32.05 460.279,31.41 459.869,30.97 459.988,30.94 
					460.199,30.85 460.546,30.68 461.039,30.52 461.267,30.54 461.408,30.5 461.619,30.52 461.748,30.54 462.158,30.66 
					462.347,30.74 462.767,31.1 463.949,32.29 464.267,32.59 464.476,32.75 464.699,32.79 464.958,32.74 465.318,32.6 
					465.708,32.42 465.818,32.41 466.148,32.31 466.578,32.18 466.789,32.14 467.148,32.17 467.556,32.39 468.187,32.85 
					468.498,33.01 468.828,33.24 469.158,33.39 469.386,33.43 469.488,33.35 469.568,33.25 470.148,32.2 470.529,31.62 
					470.886,31.15 471.097,31 471.578,30.81 472.039,30.73 472.658,30.68 472.779,30.68 473.109,30.66 473.449,30.67 473.869,30.76 
					474.289,30.95 474.398,31.04 474.488,31.08 474.726,31.29 474.988,31.62 475.248,31.83 475.449,31.9 475.876,31.85 
					476.109,31.78 476.716,31.42 477.136,31.24 477.529,31.09 478.068,30.92 478.847,30.81 479.208,30.79 479.529,30.83 
					479.648,31.04 479.738,31.14 479.927,31.46 479.976,31.67 479.998,32.06 479.908,32.45 479.699,33.02 479.476,33.4 
					479.347,33.6 478.966,34.02 478.738,34.24 478.667,34.35 478.119,34.81 477.748,35.05 477.187,35.38 476.767,35.59 
					476.529,35.7 476.417,35.71 476.177,35.81 475.988,35.87 475.757,35.96 475.667,36.06 475.609,36.14 475.636,36.25 
					475.806,36.47 476.029,36.68 476.109,36.77 476.449,37.03 476.687,37.27 477.078,37.54 477.318,37.63 477.779,37.77 
					478.279,37.83 479.208,38.14 479.488,38.26 479.908,38.54 480.068,38.77 480.199,39.16 480.208,39.83 480.187,40.03 
					480.068,40.41 479.988,40.58 479.837,40.81 479.458,41.27 479.318,41.45 478.726,41.89 478.199,42.25 477.767,42.56 
					477.619,42.64 476.927,43.14 475.908,43.89 475.619,44.05 475.119,44.47 474.466,45.06 474.029,45.37 473.908,45.47 
					473.748,45.7 473.667,45.94 473.687,46.16 473.886,46.81 473.927,47.29 473.837,47.71 473.716,48.02 473.578,48.27 
					473.507,48.49 473.458,48.73 473.529,49.02 473.568,49.14 473.716,49.37 473.818,49.51 474.257,49.9 474.328,50 474.369,50.11 
					474.347,50.18 474.318,50.27 474.238,50.37 473.529,50.5 473.279,50.58 472.949,50.72 472.757,50.85 472.068,51.28 
					471.949,51.34 471.677,51.43 471.306,51.45 470.859,51.4 470.578,51.31 469.779,51.01 468.937,50.8 468.708,50.79 
					468.609,50.85 468.498,50.93 468.449,51.02 468.437,51.14 468.437,51.25 468.556,51.56 468.726,51.79 469.738,52.99 
					470.226,53.53 471.417,54.77 471.908,55.39 472.267,56.05 472.306,56.16 472.636,56.8 472.757,56.98 472.828,57.19 
					472.847,57.35 472.609,57.27 472.369,57.22 471.988,57.16 471.289,57.16 470.908,57.22 469.779,57.56 469.757,57.37 
					469.687,57.17 469.529,56.87 469.289,56.58 468.988,56.29 468.376,55.9 467.837,55.66 467.488,55.57 466.898,55.48 
					466.789,55.43 466.609,55.24 466.318,54.49 466.238,54.29 466.007,54.13 465.779,54 465.417,53.85 464.949,53.7 464.748,53.7 
					464.626,53.72 464.318,53.87 464.078,53.91 463.876,53.87 463.687,53.74 463.306,53.37 463.158,53.14 463.056,53.04 
					462.767,52.57 462.437,51.88 462.257,51.62 461.927,51.37 462.046,51.06 462.109,50.74 462.167,50.65 462.199,50.52 
					462.306,50.1 462.398,49.18 462.408,48.83 462.398,48.31 462.398,47.98 462.417,47.74 462.449,47.62 462.539,47.42 
					462.648,47.32 462.869,47.14 463.078,47 463.529,46.66 463.726,46.3 463.818,45.95 463.876,45.55 463.988,45.34 464.328,44.83 
					464.927,44.26 464.976,44.17 465.068,44.04 465.187,43.72 465.347,43.14 465.466,42.49 465.498,42.25 465.498,41.87 
					465.498,41.62 465.408,41.29 465.238,40.96 465.167,40.84 465.097,40.75 464.748,40.52 463.937,40.1 463.806,40.08 
					463.597,39.99 463.158,39.74 463.039,39.71 462.708,39.5 462.529,39.31 462.466,39.19 462.437,39.08 462.437,38.87 
					462.517,38.42 462.556,37.9 462.539,37.6 462.517,37.37 462.437,37.04 462.199,36.62 461.806,36.2 461.738,36.08 461.318,35.65 
					461.248,35.56 460.998,35.17 460.869,34.84 460.818,34.64 460.818,34.52 460.917,34.29 461.158,33.99 461.279,33.77 
					461.318,33.68 461.347,33.46 461.328,33.25 461.279,33.02 				"/>
			</g>
			<g>
				<polygon fill="none" stroke="#666666" stroke-width="0.25" stroke-linejoin="round" stroke-miterlimit="3.8637" points="
					460.449,0.25 460.529,0.27 460.667,0.41 460.847,0.54 460.869,0.7 460.699,0.88 460.609,0.91 460.398,0.82 459.738,1.02 
					459.488,0.95 459.437,0.88 459.466,0.77 459.818,0.55 460.187,0.52 460.279,0.47 460.337,0.33 				"/>
				<polygon fill="none" stroke="#666666" stroke-width="0.25" stroke-linejoin="round" stroke-miterlimit="3.8637" points="
					480.908,9.28 480.908,9.14 481.068,8.85 481.187,8.72 481.337,8.71 481.289,8.98 481.187,9.14 				"/>
				<polygon fill="none" stroke="#666666" stroke-width="0.25" stroke-linejoin="round" stroke-miterlimit="3.8637" points="
					505.289,11.95 505.216,11.91 505.238,11.7 505.408,11.56 505.449,11.39 505.578,11.35 505.687,11.6 505.898,11.87 
					505.789,11.95 				"/>
				<polygon fill="none" stroke="#666666" stroke-width="0.25" stroke-linejoin="round" stroke-miterlimit="3.8637" points="
					507.306,12.2 507.328,12.29 507.257,12.35 507.167,12.29 507.199,12.22 				"/>
				<polygon fill="none" stroke="#666666" stroke-width="0.25" stroke-linejoin="round" stroke-miterlimit="3.8637" points="
					511.007,48.79 510.859,48.76 510.796,48.67 510.847,48.58 511.029,48.35 511.267,48.37 511.386,48.62 511.238,48.73 				"/>
				<polygon fill="none" stroke="#666666" stroke-width="0.25" stroke-linejoin="round" stroke-miterlimit="3.8637" points="
					510.556,49.52 510.369,49.3 510.449,49.21 510.578,49.25 510.619,49.35 				"/>
				<polygon fill="none" stroke="#666666" stroke-width="0.25" stroke-linejoin="round" stroke-miterlimit="3.8637" points="
					511.337,53.1 511.187,53 510.859,52.91 510.796,52.84 510.828,52.75 511.068,52.83 511.369,53.04 				"/>
				<polygon fill="none" stroke="#666666" stroke-width="0.25" stroke-linejoin="round" stroke-miterlimit="3.8637" points="
					517.847,75.76 517.708,75.71 517.667,75.6 517.619,75.47 517.738,75.45 517.937,75.66 518.296,75.82 518.148,75.88 
					517.966,75.87 				"/>
				<polygon fill="none" stroke="#666666" stroke-width="0.25" stroke-linejoin="round" stroke-miterlimit="3.8637" points="
					515.578,76.36 515.458,76.25 515.488,76.2 515.626,76.18 515.748,76.31 515.837,76.42 515.789,76.45 				"/>
				<polygon fill="none" stroke="#666666" stroke-width="0.25" stroke-linejoin="round" stroke-miterlimit="3.8637" points="
					517.636,77.24 517.609,77.27 517.408,77.16 517.306,77.04 517.306,76.96 517.386,76.95 517.427,77.06 				"/>
				<polygon fill="none" stroke="#666666" stroke-width="0.25" stroke-linejoin="round" stroke-miterlimit="3.8637" points="
					517.699,77.74 517.658,77.56 517.726,77.42 517.937,77.31 518.408,77.32 518.449,77.38 518.417,77.44 518.136,77.44 
					517.908,77.5 517.757,77.71 				"/>
				<polygon fill="none" stroke="#666666" stroke-width="0.25" stroke-linejoin="round" stroke-miterlimit="3.8637" points="
					514.318,78.13 514.289,78.07 514.248,77.92 514.267,77.92 514.289,77.83 514.449,77.87 514.476,77.41 514.386,77.29 
					514.427,77.24 514.619,77.33 514.658,77.58 514.726,77.66 515.136,77.81 515.476,77.79 515.667,77.89 515.716,77.86 
					515.687,77.75 515.648,77.65 515.806,77.58 515.748,77.39 515.789,77.08 515.667,76.96 515.568,76.84 515.529,76.78 
					515.529,76.67 515.748,76.69 515.789,76.66 516.136,76.36 516.097,76.2 516.068,76.04 516.208,75.87 516.136,75.79 
					516.119,75.68 516.226,75.56 516.226,75.45 516.398,75.5 516.587,75.6 516.748,75.88 516.796,75.97 516.818,76.03 
					516.886,76.12 516.949,76.12 517.007,76.06 517.007,75.89 516.847,75.81 516.908,75.7 517.007,75.71 517.216,75.89 
					517.476,75.89 517.937,76.15 517.908,76.22 517.738,76.22 517.597,76.1 517.476,76.1 517.289,76.21 517.306,76.35 
					517.248,76.37 517.199,76.45 517.248,76.52 517.248,76.67 517.279,76.74 517.187,76.81 517.056,76.85 516.958,76.77 
					516.949,76.99 516.958,77.17 517.306,77.41 517.488,77.6 517.568,77.81 517.568,78.01 517.517,78.08 517.187,78.08 
					517.039,78.13 516.847,78.27 516.648,78.43 516.376,78.43 516.369,78.58 516.289,78.64 515.328,78.97 515.029,79.03 
					514.498,79.29 514.408,79.41 514.398,79.43 514.267,79.52 514.029,79.6 513.779,79.77 513.529,79.84 513.376,79.96 
					513.328,79.95 513.306,79.95 513.279,79.62 513.449,79.35 513.488,79.16 513.556,79 513.726,78.92 513.886,78.79 514.056,78.46 
					514.306,78.2 514.337,78.17 				"/>
				<polygon fill="none" stroke="#666666" stroke-width="0.25" stroke-linejoin="round" stroke-miterlimit="3.8637" points="
					510.708,80.95 510.587,80.93 510.369,80.81 510.068,80.56 509.658,80.38 509.556,80.32 509.886,79.97 509.927,79.93 
					510.097,79.85 511.289,79.79 511.458,79.89 511.667,79.79 511.998,79.79 512.417,79.78 512.556,79.87 512.927,79.89 
					513.136,79.95 513.119,80.08 513.119,80.16 513.078,80.18 512.767,80.24 512.208,80.65 511.687,81.17 511.546,81.17 
					511.449,81.24 511.427,81.37 511.386,81.4 511.078,81.07 510.949,80.98 				"/>
				<polygon fill="none" stroke="#666666" stroke-width="0.25" stroke-linejoin="round" stroke-miterlimit="3.8637" points="
					504.726,107.16 504.847,107.18 504.886,107.37 504.818,107.41 				"/>
				<polygon fill="none" stroke="#666666" stroke-width="0.25" stroke-linejoin="round" stroke-miterlimit="3.8637" points="
					508.238,107.38 507.908,107.51 507.658,107.74 507.587,107.86 507.449,108.74 507.318,108.66 507.078,108.02 507.097,107.84 
					507.238,107.6 507.328,107.42 507.226,107.23 507.097,106.99 506.199,105.92 506.029,105.87 505.789,105.85 505.658,105.89 
					505.449,106.08 505.306,106.14 505.158,106.23 505.078,106.52 505.078,106.81 504.748,106.72 504.619,106.81 504.488,106.83 
					504.328,106.72 504.109,106.34 503.976,106.25 503.837,105.81 503.658,105.48 503.716,105.26 503.716,104.98 503.716,104.92 
					503.859,104.77 504.029,104.45 504.097,104.21 504.068,103.34 504.097,103.16 504.017,102.64 504.068,102.43 504.097,102.31 
					504.017,101.81 504.078,101.71 504.226,101.64 504.408,101.56 504.949,101.44 505.199,101.35 505.806,101.41 506.136,101.5 
					506.949,101.84 507.328,101.93 508.119,101.93 508.546,102.08 508.619,101.87 508.568,101.68 508.568,101.54 508.726,101.56 
					508.779,101.56 508.966,101.73 509.458,102.33 509.767,102.58 510.738,103.27 511.359,103.29 511.568,103.3 511.738,103.39 
					511.818,103.54 511.699,103.78 511.757,103.89 511.908,104.2 511.828,104.29 511.757,104.29 511.609,104.14 511.568,104.2 
					511.619,104.31 511.779,104.38 511.818,104.45 511.818,104.66 511.779,104.71 511.529,104.7 511.158,104.87 510.859,105.22 
					510.796,105.29 510.119,105.56 510.109,105.58 510.029,105.61 509.869,105.77 509.716,106.1 509.619,106.62 509.597,107.21 
					509.476,107.35 509.449,107.18 509.408,106.95 509.458,106.46 509.369,106.25 509.279,106.15 509.119,106.23 508.966,106.42 
					508.699,107.02 508.517,107.09 508.517,107.11 				"/>
				<polygon fill="none" stroke="#666666" stroke-width="0.25" stroke-linejoin="round" stroke-miterlimit="3.8637" points="
					506.998,109.84 506.958,109.57 507.017,109.52 507.097,109.52 507.136,109.62 507.097,109.74 				"/>
				<polygon fill="none" stroke="#666666" stroke-width="0.25" stroke-linejoin="round" stroke-miterlimit="3.8637" points="
					505.498,112.06 505.619,112.23 505.636,112.34 505.498,112.52 505.427,112.48 505.458,112.34 505.427,112.18 505.386,112.1 
					505.386,112.04 				"/>
				<polygon fill="none" stroke="#666666" stroke-width="0.25" stroke-linejoin="round" stroke-miterlimit="3.8637" points="
					513.488,115.85 513.097,115.23 513.119,115.09 513.556,115.57 513.587,115.7 				"/>
				<polyline fill="none" stroke="#666666" stroke-width="0.25" stroke-linejoin="round" stroke-miterlimit="3.8637" points="
					418.408,16.84 418.789,16.46 419.148,16.18 419.369,15.89 419.658,15.45 419.789,14.86 419.748,14.58 419.556,14.39 
					419.476,14.24 418.917,13.96 418.667,13.77 418.517,13.74 418.398,13.62 				"/>
				<polyline fill="none" stroke="#666666" stroke-width="0.25" stroke-linejoin="round" stroke-miterlimit="3.8637" points="
					418.408,13.03 418.708,12.82 418.988,12.89 419.208,12.89 419.568,13 419.748,13.15 419.988,13.22 419.988,13.24 420.068,13.35 
					420.257,13.35 420.376,13.29 420.466,13.15 420.437,13.04 420.726,13 420.917,13.09 421.386,13.31 421.609,13.39 421.847,13.37 
					422.199,13.22 422.437,13.24 422.556,13.12 422.539,12.94 422.699,12.91 422.767,12.85 422.908,12.88 422.998,12.97 423.119,13 
					423.017,13.24 422.859,13.43 422.869,13.56 423.068,13.77 423.199,13.83 423.318,13.89 423.466,14.06 423.619,14.1 
					424.029,14.06 424.369,13.96 424.806,13.91 425.039,13.93 425.347,14.04 425.658,14.05 425.806,14.11 426.097,14.35 
					426.318,14.65 426.488,14.79 426.859,15.06 426.976,15.34 427.988,16.02 428.328,16.15 428.658,16.21 428.818,16.16 
					429.097,16.18 429.369,15.92 429.417,15.81 429.488,15.83 429.449,15.91 429.556,16.03 429.818,16.08 429.908,15.99 429.988,16 
					430.068,16.14 430.289,16.29 430.408,16.22 430.488,16.22 430.529,16.54 430.597,16.62 430.757,16.58 430.988,16.48 
					431.806,16.42 432.097,16.36 432.158,16.3 432.318,16.14 432.449,16.08 432.587,16.08 432.677,16.14 432.677,16.22 
					432.466,16.42 432.437,16.58 432.279,16.67 432.029,17.18 432.046,17.31 432.408,17.81 432.437,17.92 432.306,18.1 
					432.029,18.5 432.029,18.62 432.238,18.81 432.578,19.1 432.828,19.27 434.148,19.62 435.279,19.62 436.167,19.5 436.318,19.51 
					436.517,19.63 436.568,19.48 437.017,19.29 438.578,18.87 439.267,18.47 439.757,18.33 439.917,18.25 440.119,18.14 
					440.789,17.71 441.437,17.49 441.818,17.26 442.238,17.06 442.498,16.87 442.818,16.83 443.109,16.63 443.226,16.6 
					443.267,16.6 443.437,16.58 443.507,16.7 443.529,16.96 443.619,17.02 444.029,17.08 444.119,17.14 444.136,17.23 
					444.097,17.38 444.158,17.44 444.578,17.56 445.337,17.49 445.597,17.42 445.806,17.42 445.898,17.47 446.238,17.45 
					446.267,17.44 446.488,17.39 446.699,17.54 447.347,17.53 447.529,17.66 447.779,18.01 448.097,18.06 448.318,17.96 
					448.458,17.98 448.619,18.07 448.818,18.02 448.988,18.06 449.158,17.96 449.667,17.92 449.988,17.87 450.318,17.71 
					450.587,17.54 450.937,17.41 450.976,17.39 450.988,17.39 452.208,17.06 452.386,16.87 452.476,16.87 452.658,17.02 
					453.046,16.97 453.226,16.83 				"/>
				<polyline fill="none" stroke="#666666" stroke-width="0.25" stroke-linejoin="round" stroke-miterlimit="3.8637" points="
					523.869,121.76 524.148,122 524.488,122.29 524.958,123.01 525.306,123.2 525.587,123.24 525.748,123.49 526.068,123.64 
					526.619,123.79 526.966,123.77 528.699,124.16 529.148,124.2 529.597,124.3 529.636,124.04 529.248,123.87 528.726,123.71 
					528.466,123.49 527.976,123.29 527.748,123.25 527.556,123.34 527.226,123.1 526.998,122.98 526.898,122.75 527.318,122.93 
					527.626,123.04 528.437,123.31 528.937,123.5 529.148,123.67 529.806,124 530.949,124.43 531.708,124.74 531.917,124.87 				"/>
				<polyline fill="none" stroke="#666666" stroke-width="0.25" stroke-linejoin="round" stroke-miterlimit="3.8637" points="
					490.757,11.98 490.806,11.96 490.937,11.64 490.869,11.38 490.908,11.24 491.029,11.32 491.087,11.66 491.148,11.77 
					491.148,11.79 491.328,11.95 491.779,12.17 491.818,12.27 491.859,12.47 491.748,12.66 491.578,12.68 491.476,12.66 
					491.458,12.6 491.568,12.43 491.539,12.35 491.369,12.28 491.296,12.27 491.039,12.35 490.658,12.41 490.546,12.55 
					490.597,12.6 490.667,12.6 490.828,12.5 490.597,12.89 490.337,13.56 490.359,13.97 490.216,13.84 490.126,13.87 490.279,14.08 
					490.199,14.16 490.248,14.2 490.337,14.17 490.408,14.21 490.529,14.53 490.529,14.59 490.568,14.81 490.876,15.5 
					491.318,16.06 492.226,16.85 492.738,17.21 492.828,17.24 493.029,17.33 493.039,17.33 493.619,17.45 493.726,17.54 
					493.818,17.68 493.757,17.8 493.738,17.83 493.818,18.1 493.917,18.25 494.056,18.33 494.148,18.37 494.199,18.4 494.296,18.47 
					494.619,18.7 494.648,18.83 494.626,18.94 494.359,19 494.199,19.27 493.998,19.43 493.988,19.64 493.517,20.29 493.458,20.47 
					493.238,20.52 493.306,20.65 493.056,20.74 492.958,20.83 492.917,21.01 493.187,21.5 493.167,21.56 493.546,22 493.876,22.41 
					494.078,22.54 494.238,22.66 494.748,22.91 494.949,22.99 494.988,23 495.398,23.11 495.796,23.14 496.029,23.11 496.306,23.06 
					496.546,23.02 497.208,22.78 497.568,22.57 497.667,22.69 497.556,22.84 497.597,22.91 497.767,22.89 497.869,22.79 
					497.699,22.54 497.738,22.5 498.886,22.06 499.148,21.87 499.279,21.68 499.408,21.25 499.619,20.83 499.699,20.33 
					499.828,20.06 499.876,19.69 499.937,19.51 500.158,19.42 500.208,19.3 500.177,19.06 500.556,18.95 500.806,18.74 
					500.859,18.56 500.988,18.54 501.187,18.7 502.068,18.45 502.337,18.55 503.017,18.52 503.279,18.45 503.578,18.35 
					503.886,18.19 504.029,18.12 504.318,17.92 504.847,17.42 505.289,16.99 505.726,16.9 505.998,16.58 506.109,16.54 
					506.158,16.41 506.318,16.45 506.767,16.15 506.958,16 507.279,15.67 507.376,15.64 507.609,15.39 507.779,14.98 508.078,15.02 
					508.167,14.93 508.187,14.62 508.007,14.41 508.078,14.35 508.068,14.24 507.988,14.17 508.068,14.04 508.056,13.9 
					508.097,13.84 508.187,13.85 508.248,13.97 508.386,13.91 508.636,13.84 508.806,13.83 508.998,13.74 509.347,13.74 
					509.568,13.83 510.328,13.54 510.609,13.31 510.886,13.21 511.029,13.12 511.068,12.99 511.039,12.82 511.119,12.74 
					511.248,12.88 511.337,12.88 511.359,12.99 511.359,13.02 511.498,13.14 511.609,13.09 511.667,13.16 511.687,13.39 
					511.789,13.56 512.039,13.78 512.078,13.95 512.017,14.02 511.828,14 511.726,14.1 511.658,14.65 511.699,14.98 511.847,15.34 
					512.148,15.79 512.556,16.37 512.908,18.12 513.097,18.37 513.398,18.58 513.449,18.79 513.417,18.95 513.376,19.16 
					513.136,19.72 512.976,19.85 512.738,19.85 512.119,20.11 511.898,20.32 511.708,20.41 511.636,20.47 511.119,20.93 
					510.886,21.27 510.578,21.6 510.046,22.27 509.408,23.27 508.779,24.45 508.248,24.99 507.619,26.29 507.587,26.32 
					507.417,26.5 507.078,27.25 506.818,27.79 506.369,29.06 505.806,30.2 505.636,30.37 505.546,30.41 505.359,30.49 
					505.279,30.58 505.056,30.54 504.886,30.61 504.748,30.6 504.199,30.79 503.958,30.81 503.818,30.91 503.748,30.91 
					503.529,30.91 503.199,31.1 502.658,31.3 502.279,31.54 501.917,31.87 501.658,31.9 501.578,32 501.398,31.96 501.208,32.1 
					500.976,32.14 500.568,31.91 500.488,31.9 500.238,31.9 499.988,32.04 499.619,32.32 499.216,32.75 498.828,33.39 
					498.648,33.66 498.398,34.16 498.279,34.52 497.998,35.2 497.806,35.75 497.458,37.69 497.437,38.31 497.408,38.8 
					497.417,39.39 497.859,41.77 498.119,42.02 498.257,42.1 498.498,42.14 498.587,42.19 498.699,42.33 498.738,42.58 
					498.677,42.77 498.767,42.94 498.748,43.15 498.818,43.42 499.476,44.49 499.898,44.89 500.578,45.91 500.597,46.09 
					500.619,46.21 500.687,46.39 500.958,46.69 501.187,47.16 501.238,47.26 501.748,47.71 501.859,48.19 502.029,48.33 
					502.738,48.89 502.757,48.89 503.238,49.15 503.449,49.33 503.626,49.43 504.078,49.45 504.318,49.39 504.408,49.37 
					504.937,49.14 505.078,49.02 505.279,49.06 505.529,48.94 505.687,49.02 506.087,49.06 506.177,49.21 506.359,49.35 
					506.408,49.45 506.056,50.04 506.056,50.2 506.136,50.39 506.119,50.52 506.029,50.39 505.937,50.38 505.898,50.42 
					505.898,50.77 505.937,51.01 506.056,51.2 506.279,51.37 506.806,51.62 506.998,51.68 507.109,51.66 507.289,51.88 
					507.539,51.97 507.708,52.08 508.279,52.2 509.029,52.37 509.296,52.51 509.667,52.52 509.837,52.58 509.958,52.79 
					510.279,52.89 510.417,53.04 511.068,53.14 511.386,53.31 511.408,53.45 511.398,53.58 511.306,54.01 511.078,54.41 
					511.029,54.87 511.029,55.09 511.029,55.33 511.097,55.63 511.386,56.31 511.636,56.53 511.828,56.59 512.199,56.58 
					512.226,56.66 512.017,56.83 511.789,56.92 511.699,57.07 511.248,58.72 511.386,59.54 511.398,59.71 511.097,60.04 
					511.068,60.49 511.097,61 511.158,61.39 511.199,61.48 511.359,61.81 512.208,62.74 512.408,63 512.859,63.37 512.886,63.41 
					512.988,63.52 513.136,63.7 513.587,64.06 513.636,64.08 514.029,64.27 514.068,64.35 514.068,64.41 514.068,64.42 
					514.068,64.48 514.068,64.5 514.007,64.48 513.937,64.52 513.636,64.52 513.289,64.51 513.167,64.58 512.859,65.04 
					512.886,65.29 512.767,65.44 512.296,66.1 512.318,66.33 512.136,66.41 511.937,66.39 511.757,66.46 511.619,66.46 
					511.458,66.55 510.886,67.69 510.828,68 510.847,68.31 510.958,68.53 510.976,68.59 510.908,68.7 510.847,69.41 510.748,69.68 
					510.529,70.03 510.398,70.36 509.998,70.58 509.507,70.9 509.148,71.14 508.699,71.52 508.517,71.66 508.408,71.96 
					508.398,72.58 508.449,72.81 508.398,73.04 508.458,73.48 508.359,74 508.126,74.31 507.677,74.71 507.556,74.91 507.449,75.19 
					507.078,75.52 506.988,75.67 506.988,75.85 507.068,75.95 507.078,75.99 507.187,76.18 507.167,76.33 507.078,76.39 
					506.738,76.41 506.347,76.52 506.199,76.66 505.949,76.85 505.779,77.1 505.578,77.16 505.306,77.42 504.699,77.86 
					504.738,77.96 504.949,78.13 505.007,78.28 505.007,78.41 504.958,78.33 504.828,78.25 504.738,78.27 504.767,78.37 
					504.708,78.37 504.609,78.39 504.498,78.4 504.437,78.4 504.398,78.46 504.318,78.56 504.318,78.6 504.257,78.76 504.238,78.87 
					504.208,78.97 504.167,79.14 504.226,79.39 504.226,79.6 503.818,80.16 503.699,80.44 503.556,80.59 503.417,80.6 
					503.208,80.62 503.158,80.62 503.087,80.62 502.988,80.64 502.738,80.64 502.568,80.59 502.119,80.8 502.068,80.8 
					501.949,80.83 501.708,81 501.556,81.31 501.408,81.45 501.306,81.47 501.226,81.74 501.068,82.02 500.667,82.41 500.568,82.69 
					500.578,83.38 500.539,83.5 500.359,83.64 499.738,83.98 499.619,83.98 499.619,83.89 499.529,83.83 499.369,83.86 
					498.908,84.06 498.847,83.95 498.369,83.98 498.109,84.13 498.097,84.13 497.417,84.4 497.248,84.46 496.609,84.92 
					496.488,85.2 495.767,86.09 495.658,86.26 495.636,86.29 495.587,86.37 495.529,86.45 495.328,86.71 495.068,86.89 
					494.927,86.91 494.716,86.66 494.568,86.66 494.458,86.75 494.386,87 494.267,86.93 494.177,87.07 494.238,87.14 494.347,87.14 
					494.437,87.08 494.529,87.01 494.626,86.92 494.699,86.93 494.738,86.98 494.687,87.24 494.568,87.35 494.177,87.52 
					494.029,87.58 493.898,87.54 493.806,87.49 493.498,87.41 493.369,87.29 493.238,87.31 493.097,87.41 492.869,87.46 
					492.818,87.52 492.828,87.87 492.738,88.08 492.699,88.2 492.609,88.25 492.318,88.33 492.208,88.33 492.029,88.33 
					491.898,88.39 491.556,88.72 491.347,88.87 491.208,88.91 491.119,88.72 491.017,88.69 490.818,88.62 490.398,89.35 
					490.318,89.32 490.238,89.47 489.908,89.42 489.318,89.73 489.109,89.77 488.748,90.08 488.578,90.28 488.296,90.82 
					488.119,91.04 487.898,91.58 487.699,92.06 487.289,92.68 487.158,92.81 487.148,93.04 487.039,93.54 486.949,93.68 
					486.609,93.67 486.529,93.76 486.529,93.89 486.699,94.09 486.748,94.36 486.748,94.45 486.828,94.93 486.767,95.14 
					486.738,95.24 486.726,95.47 486.828,95.64 486.886,95.93 486.908,96.43 487.007,96.91 486.958,97.09 486.958,97.34 
					487.187,97.9 487.199,98.26 487.158,98.31 486.988,98.31 486.917,98.33 486.779,98.39 486.347,98.41 486.347,98.49 
					486.437,98.54 487.199,98.38 487.337,98.6 487.476,98.73 487.619,99 487.818,99.73 487.998,100.03 488.568,100.96 
					488.898,101.32 489.167,101.83 489.976,102.68 490.119,102.87 490.498,103.39 490.517,103.51 490.476,103.63 490.498,103.69 
					490.568,103.63 490.658,103.62 490.726,103.75 490.876,103.79 491.039,103.91 491.347,104.27 491.507,104.39 491.818,104.56 
					491.988,104.71 492.158,104.8 492.187,104.86 492.097,105.08 492.347,105 492.587,105.06 492.658,105.14 492.708,105.35 
					492.937,105.64 492.908,105.73 493.126,105.74 493.306,105.88 493.818,106.29 494.136,106.63 495.347,107.41 496.199,107.81 
					496.248,107.89 496.359,107.87 496.546,107.84 496.708,107.92 497.417,108.06 497.556,108.12 497.568,108.12 497.597,108.14 
					497.687,108.19 497.738,108.33 497.449,108.37 497.417,108.5 497.279,108.66 497.158,108.7 496.966,108.66 496.828,108.81 
					496.847,108.95 496.908,108.94 496.966,108.81 497.177,108.81 497.417,108.67 497.556,108.45 497.699,108.43 497.779,108.48 
					497.806,108.66 497.927,108.73 498.158,108.61 498.748,108.29 499.248,108.28 499.699,108.17 499.687,108.31 499.636,108.62 
					499.708,108.68 499.988,108.73 500.017,108.83 500.328,108.66 500.296,108.59 500.056,108.62 499.876,108.59 499.757,108.49 
					499.757,108.45 499.757,108.34 499.806,108.26 499.828,108.19 499.988,108.08 500.408,107.96 500.859,107.73 500.976,107.73 
					501.587,107.53 501.828,107.41 501.949,107.26 502.408,106.93 502.498,106.89 502.779,106.75 503.039,106.62 503.347,106.57 
					503.539,106.64 503.806,106.83 503.998,107.08 504.046,107.23 504.029,107.42 503.859,108.2 503.687,108.54 503.748,108.91 
					503.767,109.09 503.789,109.24 503.738,109.51 503.619,109.72 503.507,110.08 503.408,110.26 503.148,110.38 502.949,110.58 
					502.699,110.7 502.597,110.8 502.529,111.02 502.546,111.07 502.568,111.26 502.619,111.43 502.699,111.56 502.806,111.73 
					502.828,111.79 502.917,111.94 502.966,112.1 502.908,112.36 502.949,112.52 503.248,112.7 503.687,112.78 503.908,112.85 
					504.199,113.11 504.306,113.12 504.529,113.11 504.917,113.09 505.167,112.95 505.708,112.66 505.869,112.66 506.119,112.46 
					506.296,112.42 506.347,112.39 506.597,112.16 507.226,112.01 507.449,111.88 507.708,111.83 508.337,111.64 508.498,111.55 
					508.898,110.95 508.949,110.71 508.917,110.49 508.908,110.45 508.789,110.2 508.619,110.04 508.568,109.85 508.306,109.63 
					508.119,109.62 508.078,109.52 508.126,109.29 508.318,109.12 508.779,108.94 508.908,108.85 509.017,108.77 509.119,108.77 
					509.136,108.77 509.556,108.92 509.976,108.91 510.046,108.82 509.949,108.66 509.949,108.54 510.068,108.52 510.187,108.67 
					510.556,108.67 511.119,109.03 511.449,109.03 511.806,109.31 511.966,109.54 512.279,109.84 512.458,110.08 512.779,110.49 
					512.998,110.98 513.187,111.49 513.226,112.64 512.976,112.96 512.869,113.31 512.658,114.02 512.597,114.2 512.619,114.25 
					512.658,114.41 512.859,114.67 512.927,115.14 513.158,115.54 513.257,115.85 513.257,116.08 513.167,116.2 513.109,116.45 
					513.238,116.41 513.257,116.39 513.539,116.16 513.796,116.2 514.199,116.54 514.386,116.83 514.488,117.1 514.517,117.19 
					514.699,117.29 515.177,117.55 515.476,117.66 515.716,117.73 515.859,117.85 516.167,117.94 516.529,118.18 517.068,118.41 
					517.337,118.6 517.386,118.69 517.318,118.76 517.158,118.76 516.917,118.64 515.949,118.16 515.369,118.04 515.199,117.94 
					514.687,117.77 514.238,117.55 513.908,117.54 513.708,117.67 513.587,117.62 513.437,117.79 513.417,118.01 513.328,118.15 
					513.318,118.33 513.369,118.5 513.578,118.7 513.818,119.08 513.976,119.14 514.199,119.35 514.248,119.54 514.408,119.81 
					514.427,120.08 514.427,120.2 514.636,120.61 514.806,120.74 514.966,120.76 515.109,120.66 515.267,120.7 515.556,120.68 
					515.619,120.68 515.949,120.76 516.869,120.77 517.488,121 517.529,121 518.988,121.36 519.208,121.36 519.306,121.41 
					519.556,121.42 519.658,121.36 519.767,121.24 519.908,121.23 520.148,121.41 520.386,121.5 520.917,121.48 521.039,121.34 
					521.029,121.21 521.039,121.15 521.078,121.08 520.609,120.79 520.458,120.68 520.097,120.5 518.818,119.45 518.619,119.27 
					518.226,119.11 518.208,119.05 518.318,119.04 518.507,119.08 519.029,119.44 520.148,120.35 520.476,120.58 520.517,120.59 
					522.376,121.57 522.818,121.7 523.306,121.79 523.687,121.79 523.847,121.76 				"/>
				<polyline fill="none" stroke="#666666" stroke-width="0.25" stroke-linejoin="round" stroke-miterlimit="3.8637" points="
					453.238,16.83 454.068,16.43 454.699,16.24 454.789,16.09 454.876,16.09 454.937,16.24 455.238,16.22 455.417,16.16 
					455.529,16.08 455.626,16.09 455.806,16.25 455.976,16.2 456.097,16.3 456.279,16.57 456.677,16.48 457.248,16.25 
					457.667,15.97 457.917,15.82 458.437,15.55 459.136,15 459.328,14.81 459.937,14.26 460.398,13.83 460.658,13.58 461.078,13.1 
					461.119,12.89 461.458,12.4 461.449,12.35 461.328,12.37 461.328,12.27 461.667,12.1 461.869,12.01 461.998,11.83 
					462.289,11.65 462.488,11.44 462.658,11.37 462.738,11.24 463.078,11.05 463.398,10.97 463.818,10.78 463.828,10.78 
					464.136,10.77 464.818,10.63 464.927,10.54 465.068,10.43 465.539,10.18 465.726,10.04 465.847,9.82 466.119,9.56 466.386,9.08 
					466.597,8.86 466.937,8.72 467.039,8.6 467.158,8.59 467.359,9.13 467.437,9.17 467.626,9.17 468.109,9.19 468.226,9.1 
					468.539,9.08 469.039,8.83 469.167,8.86 469.828,8.85 470.136,8.77 470.267,8.7 471.136,8.23 471.289,8.12 471.376,7.96 
					471.648,7.91 471.828,7.84 471.917,7.79 472.386,7.81 472.828,7.97 473.208,7.95 473.687,7.75 474.917,6.95 475.199,6.82 
					475.359,6.82 475.449,6.85 475.699,7.12 475.898,7.14 475.998,7.06 476.408,6.94 476.716,6.79 477.199,6.46 477.708,6 
					477.917,6 478.078,5.89 478.158,5.89 478.238,5.98 478.408,6 478.568,5.91 478.726,5.98 479.109,6.01 479.476,5.87 
					479.837,5.68 479.988,5.7 480.136,5.65 480.226,5.92 480.398,6.07 480.609,6.16 480.818,6.2 481.187,6.2 481.488,6.1 
					481.789,6.01 482.087,6.01 482.328,6.07 482.767,6.06 482.898,6.88 483.017,7.09 482.988,7.29 483.097,7.42 483.078,7.54 
					483.078,7.75 483.068,7.75 482.976,7.83 482.949,7.85 482.818,7.95 482.806,7.96 482.568,7.95 482.458,8 482.597,8.14 
					482.238,8.27 482.109,8.39 481.988,8.37 481.898,8.37 481.828,8.45 481.667,8.53 481.667,8.64 481.498,8.54 481.359,8.54 
					481.039,8.66 480.818,8.65 480.708,8.64 480.726,8.72 480.748,8.93 480.708,9.1 480.658,9.12 480.488,8.98 480.466,8.98 
					480.318,9.13 480.398,9.25 480.408,9.25 480.466,9.25 480.587,9.34 480.699,9.6 480.818,9.52 480.937,9.54 480.937,9.62 
					480.796,10.08 480.818,10.24 480.886,10.36 481.279,10.48 481.306,10.58 481.476,10.66 481.398,11 481.427,11.17 481.517,11.27 
					481.847,11.38 482.158,11.42 482.449,11.41 482.619,11.47 482.859,11.5 482.958,11.45 483.167,11.23 483.437,11 483.699,10.96 
					483.949,10.74 484.267,10.24 484.408,9.91 484.458,9.64 484.427,9.4 484.318,9.12 484.187,9.04 483.609,9.02 483.279,8.98 
					482.806,8.81 482.648,8.85 482.437,8.96 482.248,9.01 481.988,9.01 481.917,9 481.818,8.95 481.828,8.86 482.109,8.77 
					482.199,8.54 482.238,8.5 482.597,8.41 482.779,8.27 482.927,8.05 483.029,7.93 483.136,7.83 483.199,7.78 483.398,7.83 
					483.449,7.91 483.699,8.06 483.949,8.16 484.636,8.31 484.738,8.32 485.296,8.37 486.029,8.38 486.097,8.38 486.199,8.37 
					486.517,8.32 486.908,8.05 487.398,7.93 487.517,7.83 487.636,7.85 487.738,8.1 488.056,8.41 488.248,8.62 488.859,8.62 
					489.529,8.85 490.267,9.31 490.699,9.46 490.847,9.6 490.988,9.64 491.136,9.77 491.109,9.95 491.177,10 491.199,10.02 
					491.507,10.12 491.898,10.16 492.376,10.18 492.767,10.14 492.828,10.21 492.796,10.31 492.658,10.37 492.398,10.37 
					492.289,10.43 492.046,10.63 491.976,10.77 491.177,11.2 491.087,11.18 491.078,11.1 491.148,11.04 491.328,11 491.417,10.9 
					491.437,10.67 491.386,10.62 491.267,10.54 489.767,10.63 489.556,10.78 489.408,11.12 489.226,11.26 489.289,11.27 
					489.539,11.59 489.726,11.68 490.216,11.71 490.386,11.47 490.488,11.5 490.546,11.6 490.458,11.8 490.658,11.87 490.726,11.98 
					490.738,11.98 				"/>
				<polyline fill="none" stroke="#666666" stroke-width="0.25" stroke-linejoin="round" stroke-miterlimit="3.8637" points="
					475.779,203.09 475.597,202.41 475.568,202.25 475.498,202.04 474.738,198.68 474.738,198.64 474.279,196.48 474.109,196.08 
					471.609,185 471.097,182.81 471.029,182.71 470.556,180.68 470.568,180.58 469.306,175.29 468.167,170.44 468.136,170.04 
					466.636,163.98 466.458,163.23 466.458,163.09 466.238,162.17 466.068,161.21 466.056,161.17 465.488,159.08 465.279,157.89 
					465.226,157.76 465.187,157.66 464.998,154.23 463.806,151.91 463.609,151.54 446.267,139.9 446.199,139.48 445.726,136.42 
					445.609,135.59 445.609,132.92 445.609,131.75 445.488,131.54 440.578,123.81 440.507,123.68 439.007,123.71 435.226,121.56 
					433.216,121.64 431.449,119.51 431.408,119.47 431.539,114.61 431.539,114.56 430.386,112.87 429.578,111.68 428.568,109.84 
					428.087,108.97 428.158,107.62 428.109,107.27 427.806,106.95 427.619,106.6 427.529,106.41 427.476,105.95 427.609,105.48 
					427.609,105.33 427.167,104.92 426.677,104.6 426.449,104.42 426.449,104.37 426.417,104.06 426.449,103.95 426.609,103.7 
					426.708,103.37 426.726,103 426.677,102.62 426.238,101.38 426.306,101.12 426.619,100.34 426.636,100.29 426.636,99.87 
					426.539,99.35 426.859,98.44 426.869,98.18 426.619,97.41 426.748,97.09 426.796,97 426.818,96.99 426.937,96.87 427.199,96.59 
					427.658,96.48 428.039,96.08 428.328,95.64 428.347,95.49 428.449,94.36 428.488,94.21 428.648,93.79 428.949,93.22 
					430.699,92.93 431.087,92.91 431.458,92.89 432.119,92.83 432.859,92.79 433.029,92.71 432.988,92.41 433.039,92.09 
					432.976,91.98 433.517,90.91 433.529,90.85 433.667,90.26 433.806,89.71 433.937,89.32 434.087,88.27 434.056,87.4 
					434.056,87.35 434.296,87.29 434.859,87.25 435.767,87.06 435.796,87.02 435.859,86.95 436.449,86.38 436.708,86.18 
					436.966,86.05 437.279,85.99 437.408,85.96 437.687,85.95 438.398,85.27 438.556,85.12 438.619,85.06 439.267,84.83 
					439.359,84.83 439.458,84.58 439.619,84.35 439.847,84.35 440.226,84.43 440.248,84.43 440.359,84.43 440.408,84.45 
					440.488,84.22 440.507,84.2 440.738,83.87 441.408,83.65 441.529,83.41 441.658,83.38 441.886,82.74 442.078,82.66 
					442.148,82.69 442.216,82.67 442.708,82.64 442.757,82.62 442.869,82.56 442.917,82.31 442.847,82.12 442.908,81.91 
					443.296,81.7 443.789,81.64 443.908,81.37 443.748,80.96 444.078,80.66 444.097,80.39 443.898,80.06 443.667,79.69 
					443.806,79.25 444.408,78.56 444.847,78.37 445.279,78.46 445.306,78.22 445.289,78.22 445.279,78.2 444.886,77.75 
					444.738,77.6 444.609,77.29 444.779,77.06 444.779,77.05 444.767,77.04 444.658,76.85 444.648,76.78 444.619,76.57 
					444.619,76.56 444.648,76.21 444.648,76.2 444.587,75.85 444.636,75.71 444.498,75.31 444.488,75.06 444.369,74.86 
					444.306,74.59 444.289,74.5 444.289,74.49 444.279,74.39 444.238,74.35 444.167,74.24 444.068,74.08 444.587,72.64 
					444.949,72.22 445.167,71.87 445.238,71.7 445.267,71.56 445.369,71.21 445.386,70.9 445.386,70.78 445.458,70.24 
					445.619,69.95 445.779,69.62 446.208,68.37 446.318,68.2 446.779,67.91 447.187,67.51 447.449,67 447.699,66.68 447.859,66.08 
					447.937,65.87 448.148,65.47 448.199,65.37 448.458,64.93 449.158,64.18 449.148,64.06 449.109,64.04 448.398,64.2 
					448.007,64.21 447.578,64.04 447.369,63.92 447.158,63.81 446.667,63.46 445.708,63 445.636,62.86 445.546,62.81 445.529,62.66 
					445.427,61.96 445.408,61.39 445.408,60.89 445.488,59.85 445.568,59.42 446.039,58.25 446.318,58.12 446.369,58.1 
					447.046,57.76 446.976,57.37 446.779,57.12 446.648,57.06 446.529,56.64 446.449,55.77 446.449,55.66 446.449,55.56 
					446.458,55.42 446.359,54.92 446.226,53.85 446.279,53.59 446.347,53.41 446.417,52.83 446.318,52.43 446.248,52.31 
					446.158,52.18 445.966,52.03 445.078,51.49 444.257,50.54 443.998,50.05 443.898,49.72 443.908,49.52 444.068,49.21 
					444.158,48.91 444.199,48.71 444.306,48.19 444.318,47.52 444.158,46.9 444.187,46.69 444.208,46.51 444.208,46.48 
					444.289,46.31 444.306,46.27 444.539,45.77 444.738,45.24 444.748,45.19 444.748,45.17 444.767,45.16 444.976,44.83 
					444.988,44.8 444.988,44.79 444.976,44.75 444.796,44.33 444.796,44.27 444.796,44.18 444.796,44.1 444.847,43.41 
					444.937,42.97 444.958,42.82 444.908,42.29 445.007,42.02 445.337,41.41 445.398,41.31 445.568,40.67 446.017,40.25 
					446.109,40.29 446.199,40.31 446.148,40.21 445.949,39.92 445.937,39.88 445.949,39.4 445.917,39.25 445.818,39.16 
					445.619,39.04 445.248,38.6 445.248,38.54 445.238,38.47 445.216,38.44 445.248,38.32 445.619,37.91 445.789,37.7 
					445.908,37.39 446.078,37.15 446.136,37.06 446.158,36.99 446.208,36.91 446.208,36.88 446.199,36.2 446.056,35.45 
					446.458,35.05 446.716,34.87 447.046,34.77 447.136,34.62 447.136,34.54 447.017,34.42 446.806,34.12 446.779,34.09 
					446.789,33.61 446.976,33.25 446.998,33.19 447.199,33.02 447.187,32.77 446.976,32.27 447.449,31.84 447.498,31.72 
					447.578,31.6 447.578,31.57 447.609,31.33 446.898,31.25 446.748,31.2 446.738,31.15 446.658,31.09 446.386,30.89 
					446.136,30.85 445.738,31.06 445.408,31.1 445.398,31.06 445.289,31.06 445.126,30.88 444.937,30.74 444.779,30.71 
					444.699,30.7 444.238,30.83 444.068,30.83 443.738,30.74 442.779,30.61 442.597,30.55 442.619,30.52 442.386,30.29 
					442.078,30.22 441.847,30.12 441.578,29.64 441.556,29.62 441.556,29.58 441.466,29.26 441.539,29.14 441.847,29.06 
					441.917,28.93 442.068,28.81 442.359,28.85 442.476,28.87 442.667,28.83 443.296,28.6 444.046,28.16 444.488,28.15 
					444.517,28.15 444.556,28.14 445.029,27.97 445.039,27.97 445.289,27.81 445.498,27.55 445.529,27.43 446.529,26.66 
					446.958,26.59 447.119,26.5 447.306,26.32 447.369,26.17 447.408,26.05 447.529,25.9 447.767,25.83 448.398,25.89 
					448.667,25.66 448.847,25.14 448.869,24.89 448.789,24.76 448.966,24.52 449.248,24.45 449.386,23.98 449.386,23.95 
					449.417,23.75 449.318,23.37 448.998,22.79 448.998,22.77 448.966,22.57 448.998,22.45 448.949,22.39 448.828,22.3 
					448.708,22.3 448.619,22.37 448.369,22.39 448.279,22.35 448.199,22.1 448.386,21.92 449.017,21.71 449.039,21.68 
					449.279,21.56 449.568,21.58 449.898,21.54 450.289,21.34 450.398,21.34 450.408,21.34 450.529,21.47 450.609,21.49 
					450.767,21.43 451.097,21.4 451.359,21.47 451.369,21.47 451.726,21.45 451.998,21.01 452.199,20.93 452.359,20.93 
					452.687,20.93 452.958,20.71 453.046,20.64 453.376,20.53 453.949,20.21 454.056,20.05 454.056,19.84 453.976,19.69 
					453.779,19.52 453.556,19.45 453.119,19.31 452.886,19.36 452.818,19.3 452.818,19.25 452.818,19.03 452.949,18.61 
					452.976,18.04 453.017,17.65 453.109,17.54 453.369,17.45 453.517,17.5 453.369,17.29 453.257,17.02 453.226,16.83 				"/>
				<polyline fill="none" stroke="#666666" stroke-width="0.25" stroke-linejoin="round" stroke-miterlimit="3.8637" points="
					472.726,209.16 472.687,209.09 472.398,208.74 472.039,208.3 471.976,208.24 471.908,207.58 471.738,207.02 471.748,206.66 
					471.578,206.08 471.609,205.95 471.539,205.54 471.449,205.16 471.417,205.01 471.529,204.83 471.556,204.81 471.699,204.68 
					471.748,204.62 471.958,204.54 471.976,204.54 472.337,204.52 472.898,204.43 473.078,204.35 473.359,204.06 473.716,203.84 
					474.119,203.71 474.238,203.6 474.408,203.54 474.517,203.56 474.648,203.5 474.677,203.49 474.976,203.37 474.976,203.35 
					475.056,203.26 475.119,203.24 475.779,203.09 				"/>
				<polyline fill="none" stroke="#666666" stroke-width="0.25" stroke-linejoin="round" stroke-miterlimit="3.8637" points="
					523.847,121.76 523.708,122.12 523.738,122.35 523.738,122.37 523.699,122.53 523.488,123.26 523.167,123.82 523.029,124.06 
					522.958,124.33 522.949,124.39 522.886,124.95 522.869,125.06 522.828,126.07 522.767,126.28 522.937,126.4 522.976,126.74 
					522.658,127.09 522.529,127.6 522.347,128.33 522.328,128.38 521.988,129.43 522.167,129.85 522.437,130.81 522.279,131.29 
					522.199,131.68 522.158,131.86 521.988,132.91 521.988,132.95 522.068,133.27 522.068,133.29 522.199,133.87 522.226,134.26 
					522.119,135.13 521.988,135.68 522.017,136 522.029,136.04 522.119,136.36 522.449,137.18 522.738,137.47 523.007,137.58 
					523.267,137.81 523.476,138.07 523.529,138.16 523.818,138.54 524.119,138.77 524.417,139.23 524.626,139.69 523.937,141.04 
					523.708,141.48 522.988,142.89 522.917,143.04 522.859,143.08 521.869,143.79 521.458,144.08 521.369,144.2 521.039,144.34 
					520.449,144.4 519.658,144.94 519.029,145.27 518.767,145.37 518.279,145.46 517.789,145.66 515.359,146.45 515.109,146.54 
					514.699,146.71 513.886,147.06 513.529,147.33 512.626,147.62 512.328,147.87 512.136,147.87 511.988,147.88 511.546,148.14 
					511.386,148.33 511.007,148.62 510.578,148.78 510.078,148.89 509.748,149.04 509.039,149.51 508.966,149.58 508.488,149.89 
					508.119,150.25 507.587,150.58 507.449,150.67 506.748,151.16 506.667,151.51 506.648,151.7 506.568,151.93 506.248,152.5 
					505.216,154.23 504.578,154.34 504.158,154.52 503.949,154.69 503.667,154.79 503.369,154.84 503.078,154.74 502.917,154.69 
					502.687,154.67 502.458,154.64 502.216,154.57 502.007,154.64 501.828,154.87 501.539,154.99 501.466,155.11 501.498,155.74 
					501.417,155.92 501.199,156.12 501.119,156.29 501.136,156.48 501.238,156.64 501.578,157.18 501.587,157.45 501.417,157.79 
					501.376,157.98 500.898,158.44 500.417,158.83 500.318,158.87 500.087,159.12 499.917,159.39 499.876,159.46 499.779,159.91 
					499.597,160.52 499.359,160.84 499.248,160.89 499.119,161.05 498.828,161.24 498.818,161.24 498.726,161.27 497.908,161.56 
					497.626,161.64 497.109,161.77 496.687,161.8 496.546,161.75 495.539,161.44 495.328,161.44 495.068,161.5 494.837,161.6 
					494.806,161.62 494.279,161.95 493.818,162.25 493.597,162.4 493.068,162.83 493.007,162.99 492.908,163.1 492.869,163.18 
					492.767,163.46 492.167,164.35 492.158,164.45 492.097,164.56 491.837,165.01 491.437,165.56 491.386,165.7 491.238,165.91 
					491.119,166.09 490.908,166.29 490.876,166.45 490.597,166.81 490.488,166.83 490.158,167.29 490.119,167.41 490.097,167.45 
					489.748,167.92 489.708,167.93 489.648,167.98 489.578,168.08 489.417,168.29 489.369,168.46 489.347,168.5 489.347,168.88 
					489.347,169.15 489.517,169.51 489.517,169.52 489.578,169.83 489.529,170.26 489.578,170.6 489.587,170.7 489.738,171.2 
					489.828,171.28 490.158,172.1 490.726,173.54 490.789,173.71 490.828,173.86 491.056,174.5 491.136,174.61 491.267,175.14 
					491.347,175.23 491.507,175.67 491.626,176 491.886,176.49 491.976,176.83 492.046,177.13 492.369,178.3 492.578,178.64 
					492.908,179.32 492.976,179.71 492.818,180.26 492.767,180.41 492.677,180.73 492.677,181.25 492.779,181.81 492.847,181.89 
					492.949,182.33 492.976,182.96 493.007,183.07 493.068,183.31 493.187,183.85 493.199,183.97 493.458,184.52 493.427,184.67 
					493.158,184.95 493.158,185 493.126,185.14 493.126,185.16 493.187,185.37 492.958,186.01 492.886,186.4 492.738,186.87 
					492.636,187.08 492.437,187.43 491.988,188.32 491.818,188.68 491.687,188.96 491.488,189.45 491.177,189.97 490.966,190.14 
					490.828,190.24 490.726,190.27 490.408,190.51 490.248,190.7 489.708,191.71 488.806,192.83 488.789,192.85 488.626,193.18 
					488.449,193.5 487.988,194.05 487.876,194.21 487.369,194.66 486.648,195.56 486.517,195.73 486.199,196.57 486.029,196.84 
					485.476,197.73 485.369,197.83 485.318,197.89 485.119,198.01 484.898,198.54 484.757,198.85 484.039,199.36 483.347,200.08 
					483.187,200.12 482.898,200.11 482.056,200.2 481.937,200.21 481.818,200.21 481.568,200.31 481.158,200.49 481.029,200.6 
					480.587,200.8 479.859,201 479.158,201.46 478.949,201.66 478.937,201.66 478.199,201.94 477.556,202.3 476.767,202.83 
					476.158,203.05 475.779,203.09 				"/>
				<polyline fill="none" stroke="#666666" stroke-width="0.25" stroke-linejoin="round" stroke-miterlimit="3.8637" points="
					490.738,11.98 490.757,11.98 490.917,11.96 490.998,11.95 491.078,11.89 491.148,11.79 				"/>
				<polyline fill="none" stroke="#666666" stroke-width="0.25" stroke-linejoin="round" stroke-miterlimit="3.8637" points="
					475.238,20.11 475.289,20.02 475.619,19.84 475.708,19.77 475.937,19.57 476.017,19.46 476.208,19.27 476.347,19.18 
					476.658,19.15 476.869,19.18 477.187,19.14 477.398,19.03 477.488,18.89 477.699,18.7 478.056,18.5 478.488,18.41 
					479.437,18.28 479.748,18.17 479.869,18.08 479.976,17.98 480.369,17.27 480.529,17.05 480.847,16.79 481.167,16.62 
					481.597,16.52 481.726,16.54 481.917,16.51 482.529,16.54 482.869,16.6 483.199,16.69 484.078,17.12 484.546,17.27 
					485.029,17.38 485.328,17.39 485.437,17.38 485.597,17.26 485.699,17.17 485.818,16.99 486.017,16.52 486.046,16.42 
					486.226,16.12 486.437,15.73 486.619,15.52 486.699,15.35 486.818,15.2 487.267,14.38 487.488,13.87 487.517,13.78 
					487.806,13.03 488.039,12.99 488.109,12.67 488.199,12.55 488.296,12.46 488.417,12.39 488.699,12.28 489.238,12.22 
					490.039,12.25 490.568,12.17 490.619,11.98 490.726,11.98 				"/>
				<polyline fill="none" stroke="#666666" stroke-width="0.25" stroke-linejoin="round" stroke-miterlimit="3.8637" points="
					463.818,10.78 463.869,11.24 463.847,11.44 463.908,11.95 463.828,12.28 463.708,12.56 463.658,12.99 463.699,13.46 
					463.779,13.77 463.847,13.89 464.078,13.99 464.296,14 464.716,14.02 465.578,13.96 465.779,13.97 466.007,14.02 466.199,14.14 
					466.318,14.24 466.458,14.44 466.658,14.87 467.017,16.02 467.177,16.36 467.449,16.7 467.578,17 467.667,17.49 467.789,17.68 
					468.609,18.4 468.818,18.61 469.267,18.85 469.636,18.92 470.136,19.09 470.347,19.2 470.458,19.27 470.578,19.31 
					470.789,19.51 470.806,19.84 470.789,20.06 470.716,20.39 470.568,20.77 470.539,20.91 470.458,21.01 470.449,21.12 
					470.328,21.35 470.248,21.66 470.238,21.77 470.267,22 470.328,22.14 470.437,22.35 470.648,22.56 470.976,22.81 471.306,22.97 
					471.619,23.02 471.847,22.99 471.958,22.93 472.398,22.57 472.458,22.48 473.279,21.62 473.408,21.54 473.578,21.34 
					473.818,21.16 473.998,20.93 474.398,20.58 474.636,20.39 474.726,20.31 474.976,20.17 475.238,20.11 				"/>
				<polyline fill="none" stroke="#666666" stroke-width="0.25" stroke-linejoin="round" stroke-miterlimit="3.8637" points="
					494.199,18.4 493.568,18.58 493.337,18.67 492.347,18.87 492.238,18.87 492.017,18.94 491.898,18.95 491.619,19.03 
					491.369,19.15 491.248,19.16 490.869,19.36 490.726,19.39 490.427,19.56 490.068,19.78 489.466,20.02 489.226,20.14 
					488.476,20.68 488.369,20.71 488.238,20.8 488.109,20.85 487.869,20.98 487.726,21 487.267,21.14 487.148,21.14 486.949,21.24 
					486.859,21.22 486.369,21.35 486.226,21.4 486.119,21.47 486.029,21.58 485.949,21.68 485.927,21.81 486.029,21.94 486.109,22 
					486.437,22.18 486.466,22.39 486.449,22.48 486.539,22.69 486.767,22.87 487.078,23.04 487.306,23.24 487.386,23.33 
					487.427,23.44 487.449,23.56 487.449,23.68 487.359,23.98 				"/>
				<polyline fill="none" stroke="#666666" stroke-width="0.25" stroke-linejoin="round" stroke-miterlimit="3.8637" points="
					492.917,21.01 492.726,20.72 492.539,20.66 492.417,20.72 492.328,20.86 492.306,21 492.306,21.17 492.208,21.28 492.199,21.47 
					491.898,22.33 491.869,22.45 491.806,22.54 491.568,22.62 491.328,22.89 491.226,23.08 491.136,23.17 491.017,23.24 
					490.876,23.26 490.738,23.24 490.619,23.24 490.306,23.32 490.097,23.31 489.988,23.29 489.748,23.2 489.556,23.17 
					489.449,23.23 489.376,23.32 489.279,23.54 489.068,23.86 488.958,23.95 488.748,24.02 488.626,24.02 488.199,24.1 
					487.869,24.1 487.619,24.06 487.359,23.98 				"/>
				<polyline fill="none" stroke="#666666" stroke-width="0.25" stroke-linejoin="round" stroke-miterlimit="3.8637" points="
					487.359,23.98 487.167,24.27 486.859,24.58 486.029,25.25 485.949,25.33 485.716,25.42 485.347,25.48 				"/>
				<polyline fill="none" stroke="#666666" stroke-width="0.25" stroke-linejoin="round" stroke-miterlimit="3.8637" points="
					482.556,27.29 483.078,27.24 483.187,27.22 483.408,27.08 483.488,26.96 483.748,26.32 484.039,25.77 484.158,25.48 
					484.279,25.29 484.369,25.2 484.488,25.12 484.789,25.03 484.988,25.04 485.087,25.09 485.199,25.2 485.347,25.48 				"/>
				<polyline fill="none" stroke="#666666" stroke-width="0.25" stroke-linejoin="round" stroke-miterlimit="3.8637" points="
					475.238,20.11 475.708,20.54 475.908,20.77 476.328,21.16 476.667,21.52 477.136,21.92 477.257,21.99 477.818,22.42 
					478.167,22.6 479.437,22.99 479.648,23 479.859,22.96 480.068,22.96 480.167,22.99 480.257,23.08 480.347,23.29 480.347,23.38 
					480.498,23.83 480.699,24.2 480.767,24.31 480.886,24.54 481.337,25.46 482.177,26.59 482.476,27.07 482.556,27.29 				"/>
				<polyline fill="none" stroke="#666666" stroke-width="0.25" stroke-linejoin="round" stroke-miterlimit="3.8637" points="
					496.029,23.11 495.917,23.37 495.886,23.75 495.847,24 495.636,24.55 495.449,24.91 494.949,25.79 494.869,25.9 494.626,26.27 
					494.408,26.72 494.449,26.83 495.068,27.31 494.976,27.55 494.767,27.94 494.687,28.16 494.687,28.29 494.417,29.16 
					494.267,30.06 				"/>
				<polyline fill="none" stroke="#666666" stroke-width="0.25" stroke-linejoin="round" stroke-miterlimit="3.8637" points="
					459.328,14.81 459.748,15.07 460.097,15.39 460.167,15.47 460.498,15.74 460.609,15.95 460.619,16.04 460.609,16.14 
					460.488,16.22 459.988,16.37 459.779,16.42 459.677,16.48 459.619,16.57 459.658,16.78 460.148,17.31 460.369,17.5 
					460.708,17.87 461.039,18.33 461.136,18.4 461.267,18.62 461.369,18.83 461.369,18.94 461.347,19.04 461.267,19.16 
					460.949,19.45 460.806,19.51 460.158,20.04 460.029,20.32 460.007,20.53 460.039,20.74 459.949,20.96 459.869,21.06 
					459.708,21.39 459.886,21.58 460.148,21.76 460.488,21.83 460.699,21.85 460.937,21.89 461.248,21.91 461.556,21.97 
					461.658,21.97 462.369,22.41 462.449,22.51 462.369,23.47 462.257,24.1 462.257,24.39 462.306,24.79 462.376,24.89 
					462.699,25.24 462.748,25.33 463.216,26.21 463.386,26.6 463.498,26.95 463.738,27.87 463.738,27.99 463.578,28.18 
					463.476,28.27 463.167,28.58 463.029,28.78 462.937,28.97 462.886,29.52 462.886,29.95 462.847,30.24 462.748,30.35 
					462.238,30.6 462.158,30.66 				"/>
				<polyline fill="none" stroke="#666666" stroke-width="0.25" stroke-linejoin="round" stroke-miterlimit="3.8637" points="
					482.556,27.29 482.458,27.37 482.359,27.43 482.248,27.54 481.597,27.94 481.187,28.25 480.886,28.54 480.658,28.85 
					480.578,29.06 480.539,29.17 480.466,29.35 480.398,29.45 480.289,29.58 480.167,29.68 479.908,29.96 479.767,30.25 
					479.597,30.74 479.529,30.83 				"/>
				<polyline fill="none" stroke="#666666" stroke-width="0.25" stroke-linejoin="round" stroke-miterlimit="3.8637" points="
					485.347,25.48 485.529,25.87 485.578,26 485.837,26.41 486.029,26.6 486.289,26.79 486.517,26.83 486.726,26.79 486.949,26.66 
					487.187,26.62 487.337,26.65 487.908,26.87 488.417,27.14 489.136,27.43 489.369,27.85 489.449,27.95 489.488,28.06 
					489.726,28.42 489.908,28.64 490.248,28.9 491.158,29.45 491.748,29.74 491.806,29.86 491.748,30.12 491.699,30.19 
					491.667,30.49 491.687,30.61 491.976,30.85 492.046,30.95 492.279,30.82 492.369,30.73 492.578,30.6 493.267,30.24 
					493.609,30.13 493.818,30.1 494.158,30.1 494.267,30.06 				"/>
				<polyline fill="none" stroke="#666666" stroke-width="0.25" stroke-linejoin="round" stroke-miterlimit="3.8637" points="
					459.869,30.97 459.988,30.94 460.199,30.85 460.546,30.68 461.039,30.52 461.267,30.54 461.408,30.5 461.619,30.52 
					461.748,30.54 462.158,30.66 				"/>
				<polyline fill="none" stroke="#666666" stroke-width="0.25" stroke-linejoin="round" stroke-miterlimit="3.8637" points="
					494.267,30.06 494.226,30.58 494.177,30.92 494.136,31.7 494.158,32.17 494.199,32.38 494.226,32.49 494.417,32.81 
					494.626,32.96 494.859,33 				"/>
				<polyline fill="none" stroke="#666666" stroke-width="0.25" stroke-linejoin="round" stroke-miterlimit="3.8637" points="
					494.859,33 495.167,32.93 495.369,32.86 496.597,32.66 496.806,32.83 497.109,33.14 497.226,33.19 497.318,33.19 497.437,33.12 
					497.767,32.75 497.869,32.7 498.187,32.68 498.398,32.72 498.556,32.89 498.828,33.39 				"/>
				<polyline fill="none" stroke="#666666" stroke-width="0.25" stroke-linejoin="round" stroke-miterlimit="3.8637" points="
					446.976,33.25 447.289,33.29 447.498,33.37 447.708,33.4 447.949,33.39 448.068,33.4 448.458,33.37 448.699,33.29 449.177,33.1 
					449.886,32.71 450.466,32.42 450.726,32.27 451.078,32.1 451.318,32 451.667,31.91 451.898,31.89 452.136,31.91 453.699,31.87 
					454.039,31.9 454.529,31.87 455.437,31.87 456.208,31.84 456.859,31.79 457.369,31.7 457.476,31.7 458.476,31.43 459.408,31.15 
					459.869,30.97 				"/>
				<polyline fill="none" stroke="#666666" stroke-width="0.25" stroke-linejoin="round" stroke-miterlimit="3.8637" points="
					462.158,30.66 462.347,30.74 462.767,31.1 463.949,32.29 464.267,32.59 464.476,32.75 464.699,32.79 464.958,32.74 
					465.318,32.6 465.708,32.42 465.818,32.41 466.148,32.31 466.578,32.18 466.789,32.14 467.148,32.17 467.556,32.39 
					468.187,32.85 468.498,33.01 468.828,33.24 469.158,33.39 469.386,33.43 469.488,33.35 469.568,33.25 470.148,32.2 
					470.529,31.62 470.886,31.15 471.097,31 471.578,30.81 472.039,30.73 472.658,30.68 472.779,30.68 473.109,30.66 473.449,30.67 
					473.869,30.76 474.289,30.95 474.398,31.04 474.488,31.08 474.726,31.29 474.988,31.62 475.248,31.83 475.449,31.9 
					475.876,31.85 476.109,31.78 476.716,31.42 477.136,31.24 477.529,31.09 478.068,30.92 478.847,30.81 479.208,30.79 
					479.529,30.83 				"/>
				<polyline fill="none" stroke="#666666" stroke-width="0.25" stroke-linejoin="round" stroke-miterlimit="3.8637" points="
					494.859,33 494.886,33.04 494.886,33.22 494.908,33.62 494.898,34.87 494.859,34.97 494.789,35.06 494.248,35.37 494.208,35.45 
					494.238,35.56 494.328,35.64 494.597,35.85 494.687,35.87 494.789,35.98 494.818,36.07 494.818,36.16 494.806,36.25 
					494.748,36.35 494.648,36.46 494.408,36.54 493.818,36.66 493.476,36.68 493.369,36.73 492.917,36.82 492.796,36.82 
					492.488,36.89 492.408,36.99 492.376,37.09 492.488,37.41 492.556,37.56 492.587,37.96 492.556,38.12 492.498,38.32 
					492.347,38.62 492.097,38.92 491.767,39.14 491.279,39.33 491.158,39.4 491.017,39.43 				"/>
				<polyline fill="none" stroke="#666666" stroke-width="0.25" stroke-linejoin="round" stroke-miterlimit="3.8637" points="
					479.529,30.83 479.648,31.04 479.738,31.14 479.927,31.46 479.976,31.67 479.998,32.06 479.908,32.45 479.699,33.02 
					479.476,33.4 479.347,33.6 478.966,34.02 478.738,34.24 478.667,34.35 478.119,34.81 477.748,35.05 477.187,35.38 
					476.767,35.59 476.529,35.7 476.417,35.71 476.177,35.81 475.988,35.87 475.757,35.96 475.667,36.06 475.609,36.14 
					475.636,36.25 475.806,36.47 476.029,36.68 476.109,36.77 476.449,37.03 476.687,37.27 477.078,37.54 477.318,37.63 
					477.779,37.77 478.279,37.83 479.208,38.14 479.488,38.26 479.908,38.54 480.068,38.77 480.199,39.16 480.208,39.83 
					480.187,40.03 480.068,40.41 479.988,40.58 479.837,40.81 479.458,41.27 				"/>
				<polyline fill="none" stroke="#666666" stroke-width="0.25" stroke-linejoin="round" stroke-miterlimit="3.8637" points="
					491.017,39.43 490.619,39.54 490.398,39.56 489.609,39.77 489.318,39.92 489.226,40.03 489.046,40.36 488.988,40.56 
					488.898,40.77 488.748,40.97 488.667,41.06 488.328,41.21 488.226,41.18 488.119,41.08 487.869,40.67 487.779,40.78 
					487.726,40.9 487.667,41.16 487.578,41.72 487.546,42.02 487.386,42.74 487.289,42.88 487.158,42.94 487.039,42.94 
					486.779,42.83 486.556,42.62 486.437,42.5 486.119,42.19 486.029,42.12 485.859,42.01 485.619,41.91 485.296,41.83 
					485.158,41.83 484.667,41.77 484.337,41.6 483.779,41.27 483.488,41.11 483.376,41.08 482.818,41.05 482.687,41.06 
					481.908,41.24 481.306,41.44 480.796,41.53 480.437,41.53 480.078,41.49 479.626,41.35 479.529,41.27 479.458,41.27 				"/>
				<polyline fill="none" stroke="#666666" stroke-width="0.25" stroke-linejoin="round" stroke-miterlimit="3.8637" points="
					459.869,30.97 460.279,31.41 460.757,32.05 460.869,32.14 461.119,32.56 461.279,33.02 461.328,33.25 461.347,33.46 
					461.318,33.68 461.279,33.77 461.158,33.99 460.917,34.29 460.818,34.52 460.818,34.64 460.869,34.84 460.998,35.17 
					461.248,35.56 461.318,35.65 461.738,36.08 461.806,36.2 462.199,36.62 462.437,37.04 462.517,37.37 462.539,37.6 462.556,37.9 
					462.517,38.42 462.437,38.87 462.437,39.08 462.466,39.19 462.529,39.31 462.708,39.5 463.039,39.71 463.158,39.74 
					463.597,39.99 463.806,40.08 463.937,40.1 464.748,40.52 465.097,40.75 465.167,40.84 465.238,40.96 465.408,41.29 
					465.498,41.62 465.498,41.87 465.498,42.25 465.466,42.49 465.347,43.14 465.187,43.72 465.068,44.04 464.976,44.17 
					464.927,44.26 464.328,44.83 463.988,45.34 463.876,45.55 463.818,45.95 463.726,46.3 463.529,46.66 463.078,47 462.869,47.14 
					462.648,47.32 462.539,47.42 462.449,47.62 462.417,47.74 462.398,47.98 462.398,48.31 462.408,48.83 462.398,49.18 
					462.306,50.1 462.199,50.52 462.167,50.65 462.109,50.74 462.046,51.06 461.927,51.37 				"/>
				<polyline fill="none" stroke="#666666" stroke-width="0.25" stroke-linejoin="round" stroke-miterlimit="3.8637" points="
					446.279,53.59 446.687,53.59 446.886,53.54 447.208,53.32 447.677,52.81 447.988,52.51 448.216,52.35 448.636,52.21 
					448.966,52.2 449.199,52.22 449.296,52.25 449.437,52.35 449.806,52.51 450.238,52.75 450.347,52.78 450.636,52.93 
					450.908,53.02 451.369,53.1 451.609,53.1 451.998,53.05 452.148,52.99 452.347,52.83 452.476,52.62 452.597,52.06 
					452.699,50.92 452.748,50.7 452.837,50.42 452.927,50.18 453.167,49.81 453.498,49.41 453.726,49.24 453.949,49.14 
					454.167,49.1 454.609,49.12 454.847,49.16 455.658,49.41 455.767,49.45 456.449,49.6 457.167,49.84 457.318,49.91 
					457.917,50.16 459.587,50.89 460.609,51.27 460.847,51.33 461.119,51.37 461.806,51.33 461.927,51.37 				"/>
				<polyline fill="none" stroke="#666666" stroke-width="0.25" stroke-linejoin="round" stroke-miterlimit="3.8637" points="
					491.017,39.43 490.476,40.24 490.007,41.04 490.119,41.14 490.216,41.21 490.966,41.6 491.458,41.81 491.658,41.92 
					491.767,42.01 491.949,42.25 492.097,42.54 492.158,42.71 492.158,42.94 492.119,43.14 492.078,43.52 491.949,44.24 
					491.898,44.35 491.789,44.8 491.626,45.35 491.449,45.77 491.199,46.16 491.017,46.35 490.876,46.56 490.779,46.64 
					490.687,46.78 490.369,47.11 489.988,47.53 489.847,47.81 489.937,48.13 490.267,48.79 490.789,49.91 491.328,50.96 
					491.927,52.02 492.408,52.9 492.767,53.44 493.097,53.86 493.238,54.1 493.267,54.39 493.318,54.68 493.408,54.91 				"/>
				<polyline fill="none" stroke="#666666" stroke-width="0.25" stroke-linejoin="round" stroke-miterlimit="3.8637" points="
					502.738,48.89 502.619,49.12 502.449,49.33 502.248,49.52 501.908,49.79 501.699,50 501.556,50.2 501.498,50.42 501.449,50.66 
					501.466,51.29 501.609,52.37 501.609,52.72 501.539,53.12 501.376,53.45 501.306,53.58 501.078,53.75 500.597,54.04 
					499.828,54.31 498.976,54.47 498.779,54.55 498.677,54.62 498.609,54.73 498.587,54.82 498.619,54.94 498.779,55.12 
					498.976,55.31 499.029,55.42 499.039,55.51 498.988,55.62 498.796,55.81 498.376,56.05 497.667,56.29 				"/>
				<polyline fill="none" stroke="#666666" stroke-width="0.25" stroke-linejoin="round" stroke-miterlimit="3.8637" points="
					497.667,56.29 497.248,56.26 496.876,56.26 496.876,56.27 496.488,56.27 495.937,56.17 495.408,56.04 494.476,55.66 
					493.726,55.15 493.458,54.94 493.408,54.91 				"/>
				<polyline fill="none" stroke="#666666" stroke-width="0.25" stroke-linejoin="round" stroke-miterlimit="3.8637" points="
					479.458,41.27 479.318,41.45 478.726,41.89 478.199,42.25 477.767,42.56 477.619,42.64 476.927,43.14 475.908,43.89 
					475.619,44.05 475.119,44.47 474.466,45.06 474.029,45.37 473.908,45.47 473.748,45.7 473.667,45.94 473.687,46.16 
					473.886,46.81 473.927,47.29 473.837,47.71 473.716,48.02 473.578,48.27 473.507,48.49 473.458,48.73 473.529,49.02 
					473.568,49.14 473.716,49.37 473.818,49.51 474.257,49.9 474.328,50 474.369,50.11 474.347,50.18 474.318,50.27 474.238,50.37 
					473.529,50.5 473.279,50.58 472.949,50.72 472.757,50.85 472.068,51.28 471.949,51.34 471.677,51.43 471.306,51.45 
					470.859,51.4 470.578,51.31 469.779,51.01 468.937,50.8 468.708,50.79 468.609,50.85 468.498,50.93 468.449,51.02 
					468.437,51.14 468.437,51.25 468.556,51.56 468.726,51.79 469.738,52.99 470.226,53.53 471.417,54.77 471.908,55.39 
					472.267,56.05 472.306,56.16 472.636,56.8 472.757,56.98 472.828,57.19 472.847,57.35 				"/>
				<polyline fill="none" stroke="#666666" stroke-width="0.25" stroke-linejoin="round" stroke-miterlimit="3.8637" points="
					472.847,57.35 472.609,57.27 472.369,57.22 471.988,57.16 471.289,57.16 470.908,57.22 469.779,57.56 				"/>
				<polyline fill="none" stroke="#666666" stroke-width="0.25" stroke-linejoin="round" stroke-miterlimit="3.8637" points="
					461.927,51.37 462.257,51.62 462.437,51.88 462.767,52.57 463.056,53.04 463.158,53.14 463.306,53.37 463.687,53.74 
					463.876,53.87 464.078,53.91 464.318,53.87 464.626,53.72 464.748,53.7 464.949,53.7 465.417,53.85 465.779,54 466.007,54.13 
					466.238,54.29 466.318,54.49 466.609,55.24 466.789,55.43 466.898,55.48 467.488,55.57 467.837,55.66 468.376,55.9 
					468.988,56.29 469.289,56.58 469.529,56.87 469.687,57.17 469.757,57.37 469.779,57.56 				"/>
				<path fill="none" stroke="#666666" stroke-width="0.25" stroke-linejoin="round" stroke-miterlimit="3.8637" d="M496.876,56.32
					c0,0,0.15,0.93,1.02,1.57c0.852,0.63,1.828-0.29,1.828-0.29l0.814-0.6l0.02,0.01l0.689,0.19l0.34,0.08l0.75,0.3l0.621,0.18
					l0.99,0.18l0.938,0.2l1.223,0.07l0.238-0.06l0.23-0.57l0.199-0.3l0.146-0.18l0.4-0.4l0.359-0.28l0.539-0.32l0.512-0.23
					l1.01-0.31l1.27-0.47"/>
				<polyline fill="none" stroke="#666666" stroke-width="0.25" stroke-linejoin="round" stroke-miterlimit="3.8637" points="
					493.408,54.91 493.039,54.97 492.208,55.24 491.988,55.37 491.806,55.57 491.658,55.79 491.619,56 491.626,56.11 491.976,56.93 
					492.068,57.28 492.029,57.5 491.869,57.71 491.648,57.85 491.437,58.04 491.238,58.37 490.818,59.35 490.337,60.31 
					490.248,60.54 490.199,60.73 490.216,60.92 490.248,61.03 490.337,61.24 490.619,61.81 490.699,62.23 490.726,62.47 
					490.738,62.95 490.658,63.52 490.667,63.92 490.738,64.1 490.847,64.31 491.226,64.78 491.437,65.1 491.529,65.31 
					491.619,65.59 491.648,65.83 491.648,66.14 491.539,66.73 491.556,66.83 				"/>
				<polyline fill="none" stroke="#666666" stroke-width="0.25" stroke-linejoin="round" stroke-miterlimit="3.8637" points="
					510.949,68.53 510.226,68.18 510.097,68.16 509.507,68.11 509.296,68.16 509.199,68.12 509.087,68.02 508.937,67.72 
					508.636,67.29 508.369,66.83 507.937,66.2 507.738,66.02 507.636,66.06 507.539,66.13 507.437,66.24 507.238,66.54 
					507.068,66.73 506.949,66.81 506.767,66.87 506.648,66.88 506.556,66.87 506.347,66.77 506.226,66.66 506.017,66.31 
					505.699,65.47 505.636,65.26 505.609,65.17 505.529,64.79 505.449,64.18 505.306,63.85 504.869,63.25 504.779,63.19 
					504.619,63.37 504.498,63.68 504.437,63.79 504.279,64.14 504.109,64.36 503.908,64.57 503.789,64.66 503.417,64.85 
					503.296,64.87 503.056,64.87 502.708,64.78 502.119,64.54 501.619,64.27 501.408,64.2 501.306,64.16 501.097,64.16 
					500.869,64.2 500.767,64.39 500.738,64.57 500.626,64.77 500.488,64.87 500.029,65.08 499.966,65.18 499.908,65.27 
					499.898,65.39 499.917,65.7 499.917,65.74 499.847,65.87 499.667,66.08 499.337,66.37 498.886,66.68 498.539,66.85 
					498.208,66.97 497.386,67.37 496.708,67.67 496.078,67.97 495.847,68.04 495.726,68.04 495.328,67.89 494.648,67.41 
					494.417,67.29 493.876,67.18 493.279,67.16 492.828,67.12 491.556,66.83 				"/>
				<polyline fill="none" stroke="#666666" stroke-width="0.25" stroke-linejoin="round" stroke-miterlimit="3.8637" points="
					491.556,66.83 491.359,66.79 491.136,66.79 490.876,66.88 490.068,67.36 489.976,67.45 489.498,67.81 489.279,68.02 
					488.748,68.58 488.556,68.74 488.177,69.22 487.917,69.49 487.476,70.14 487.279,70.52 				"/>
				<polyline fill="none" stroke="#666666" stroke-width="0.25" stroke-linejoin="round" stroke-miterlimit="3.8637" points="
					487.279,70.52 487.158,70.37 486.859,70.1 486.726,69.81 486.529,69.06 486.078,67.67 485.958,67.06 485.806,66.56 
					485.687,66.5 485.556,66.54 484.667,66.83 484.267,67 484.119,66.97 483.886,66.92 483.376,66.71 482.976,66.58 482.408,66.41 
					481.699,66.27 480.398,66.06 479.658,65.87 479.417,65.79 479.208,65.68 478.966,65.47 478.726,65.24 478.597,65.05 
					478.408,64.64 478.337,64.54 477.539,63.85 477.017,63.27 476.767,62.93 476.449,63.04 476.208,63.06 475.619,63.01 475.529,63 
					475.318,62.86 474.917,62.45 474.109,61.78 473.449,61.18 473.318,60.89 473.296,60.74 473.318,60.62 473.437,60 473.568,59.56 
					473.568,59.44 473.658,58.97 473.699,58.51 473.626,58.27 473.449,57.95 473.056,57.47 472.847,57.35 				"/>
				<polyline fill="none" stroke="#666666" stroke-width="0.25" stroke-linejoin="round" stroke-miterlimit="3.8637" points="
					457.187,77.83 460.386,75.97 461.279,75.5 462.257,75.14 462.708,74.95 463.056,74.77 463.248,74.62 463.337,74.52 
					463.359,74.41 463.318,74.32 463.216,74.21 462.859,74.08 462.658,73.89 462.539,73.67 462.498,73.56 462.529,73.35 
					462.658,73.09 463.187,72.68 463.546,72.33 463.806,71.91 463.988,71.41 464.199,71 464.408,70.81 464.488,70.78 464.619,70.78 
					465.097,70.91 465.226,70.95 465.328,70.91 466.267,70.45 468.158,69.91 468.328,69.68 468.449,69.37 468.488,69.28 
					468.488,69.06 468.437,68.95 468.226,68.52 468.119,68.23 468.078,67.93 468.046,67.46 468.068,67.08 468.119,66.68 
					468.208,66.37 468.279,65.98 468.306,65.66 468.238,65.42 468.097,65.2 467.738,65 466.998,64.77 466.318,64.62 465.908,64.48 
					465.818,64.43 465.609,64.3 465.498,64.2 465.437,63.97 465.437,63.77 465.587,63.24 465.767,62.71 466.029,62.12 
					466.757,61.74 466.937,61.52 467.087,61.2 467.177,60.81 467.248,60.6 467.417,60.29 467.597,60.08 467.837,59.89 
					468.068,59.75 468.306,59.65 468.818,59.37 469.248,58.99 469.408,58.81 469.517,58.69 469.619,58.45 469.658,58.33 
					469.726,58.02 469.779,57.56 				"/>
				<polyline fill="none" stroke="#666666" stroke-width="0.25" stroke-linejoin="round" stroke-miterlimit="3.8637" points="
					445.279,78.2 445.289,78.2 445.306,78.22 445.408,78.28 445.708,78.56 445.789,78.68 445.876,78.77 446.148,78.91 
					446.648,79.02 446.998,79.04 447.318,79.14 447.886,79.35 448.199,79.42 448.359,79.48 448.529,79.51 448.667,79.56 
					448.917,79.7 449.148,79.87 449.476,80.08 449.578,80.18 449.927,80.42 450.017,80.53 450.376,80.75 451.068,81.04 
					451.427,81.13 451.609,80.66 451.699,80.26 451.779,80.08 451.998,79.89 452.238,79.74 452.949,79.45 453.539,79.12 
					454.708,78.56 455.029,78.47 455.556,78.43 456.109,78.34 456.726,78.1 457.187,77.83 				"/>
				<polyline fill="none" stroke="#666666" stroke-width="0.25" stroke-linejoin="round" stroke-miterlimit="3.8637" points="
					457.187,77.83 457.597,77.95 458.208,78.2 458.449,78.29 459.738,78.83 460.369,79.04 460.869,79.27 461.296,79.31 
					462.167,79.27 463.167,79.29 463.708,79.36 464.386,79.5 464.998,79.54 465.289,79.58 465.708,79.69 466.007,79.81 
					466.908,80.27 467.318,80.52 467.529,80.6 467.626,80.62 467.837,80.6 468.046,80.53 468.677,80.2 468.767,80.18 468.859,80.2 
					468.937,80.29 468.976,80.39 468.976,80.52 468.949,80.62 468.466,81.71 468.347,82.03 468.289,82.35 468.306,82.64 
					468.347,82.83 468.417,83.04 468.587,83.35 468.976,83.83 469.306,84.17 469.726,84.59 469.966,84.79 470.296,84.95 
					471.158,85.18 471.699,85.36 471.917,85.48 472.126,85.63 472.359,85.87 472.779,86.53 472.937,86.74 473.369,87.07 
					473.716,87.28 474.796,87.68 475.187,87.88 475.306,87.95 475.369,88.06 475.458,88.29 475.488,88.57 475.488,89.08 
					475.449,90.41 475.359,91.67 				"/>
				<polyline fill="none" stroke="#666666" stroke-width="0.25" stroke-linejoin="round" stroke-miterlimit="3.8637" points="
					475.359,91.67 475.687,91.5 475.876,91.31 476.177,91 476.408,90.89 477.097,90.68 477.449,90.54 477.539,90.5 477.818,90.54 
					477.937,90.59 478.158,90.7 478.636,91.03 478.869,91.21 479.039,91.54 479.087,91.72 479.119,91.78 				"/>
				<polyline fill="none" stroke="#666666" stroke-width="0.25" stroke-linejoin="round" stroke-miterlimit="3.8637" points="
					487.279,70.52 487.148,70.69 486.869,71.23 486.587,71.96 486.167,72.87 485.789,73.83 485.568,74.23 484.847,75.39 
					484.068,76.56 483.859,76.85 483.779,77 483.328,77.64 483.238,77.8 482.988,78.13 482.869,78.37 482.597,78.95 482.158,79.77 
					481.937,80.26 481.789,80.77 481.757,81.08 481.779,81.28 481.908,81.85 481.988,82.03 482.039,82.12 482.767,82.22 
					484.039,82.3 484.658,82.41 485.279,82.56 485.998,82.87 486.226,83 486.908,83.32 487.517,83.65 487.529,83.75 487.498,83.84 
					487.398,84.55 487.318,84.83 487.199,85.15 486.988,85.43 486.648,85.64 486.417,85.76 485.716,86.05 485.507,86.23 
					485.039,86.75 484.699,86.8 484.359,86.77 484.029,86.8 483.937,86.81 483.648,86.96 483.226,87.31 480.828,88.39 
					480.408,88.67 479.998,88.9 479.488,89.23 479.408,89.33 479.248,89.51 479.208,89.62 479.177,89.8 479.226,89.92 
					479.648,90.24 479.837,90.43 480.017,90.73 480.119,90.91 480.238,91.25 480.328,91.58 480.369,91.78 480.347,91.87 
					480.306,91.98 480.187,92.05 480.078,92.08 479.976,92.09 479.779,92.08 479.578,92 479.119,91.78 				"/>
				<polyline fill="none" stroke="#666666" stroke-width="0.25" stroke-linejoin="round" stroke-miterlimit="3.8637" points="
					468.347,93 469.318,92.44 469.818,92.27 470.078,92.24 470.458,92.26 471.556,92.39 472.757,92.6 473.279,92.6 473.597,92.51 
					473.818,92.41 474.466,92.02 474.587,91.98 474.886,91.91 475.097,91.83 475.359,91.67 				"/>
				<polyline fill="none" stroke="#666666" stroke-width="0.25" stroke-linejoin="round" stroke-miterlimit="3.8637" points="
					479.119,91.78 479.177,91.96 479.318,92.16 479.417,92.26 479.619,92.41 479.898,92.56 480.328,92.7 480.648,92.73 
					480.988,92.71 481.449,92.64 481.738,92.51 481.949,92.47 482.158,92.45 482.369,92.53 482.488,92.62 482.716,92.86 
					483.097,93.43 483.369,93.73 483.648,93.99 484.097,94.23 484.597,94.33 484.869,94.37 485.148,94.37 485.238,94.34 
					485.347,94.25 485.369,94.15 485.359,93.39 485.437,93.29 485.539,93.31 485.748,93.41 486.187,93.76 486.738,94.36 				"/>
				<polyline fill="none" stroke="#666666" stroke-width="0.25" stroke-linejoin="round" stroke-miterlimit="3.8637" points="
					453.886,96.16 454.488,96.08 455.029,96.08 455.296,96.06 455.869,95.98 456.238,95.98 457.699,95.89 457.937,95.84 
					458.789,95.39 459.017,95.35 459.158,95.37 459.398,95.41 459.859,95.56 460.216,95.64 460.726,95.71 460.988,95.73 
					461.369,95.8 461.699,95.81 462.029,95.71 462.208,95.53 462.279,95.29 462.257,94.98 462.279,94.58 462.369,94.27 
					462.517,94.06 462.619,93.95 462.958,93.77 463.337,93.64 464.029,93.34 464.119,93.31 464.328,93.29 464.748,93.46 
					465.376,93.49 466.039,93.46 466.597,93.4 467.687,93.2 468.109,93.1 468.347,93 				"/>
				<polyline fill="none" stroke="#666666" stroke-width="0.25" stroke-linejoin="round" stroke-miterlimit="3.8637" points="
					440.488,84.22 440.507,84.25 440.539,84.45 440.476,84.79 440.408,85.09 440.208,85.62 440.109,85.85 440.029,86.08 
					440.029,86.29 440.056,86.39 440.238,86.59 440.687,87.01 441.167,87.4 441.318,87.59 441.318,87.68 441.238,87.77 
					440.998,87.89 440.648,87.94 440.507,87.94 440.199,87.97 439.636,88.06 439.289,88.41 438.488,89.39 438.279,89.68 
					438.257,89.79 438.677,90.08 439.667,90.66 440.017,90.88 440.476,91.27 440.898,91.67 441.068,91.89 441.257,92.17 
					441.677,92.89 441.748,93 441.958,93.13 442.078,93.16 442.966,93.22 443.437,93.34 444.187,93.58 444.828,93.83 445.039,93.97 
					445.658,94.45 445.738,94.57 445.869,94.9 445.937,95.35 445.988,95.77 446.078,95.95 446.177,96.06 446.267,96.12 
					446.578,96.14 447.376,96.13 449.039,95.98 449.869,95.86 450.677,95.83 451.658,95.81 452.476,95.87 452.789,95.92 
					453.886,96.16 				"/>
				<polyline fill="none" stroke="#666666" stroke-width="0.25" stroke-linejoin="round" stroke-miterlimit="3.8637" points="
					453.886,96.16 452.949,98.02 452.369,99.13 451.828,99.89 451.359,100.41 450.398,101.29 449.238,102.25 447.767,103.34 
					444.097,106.14 441.976,107.86 440.359,109.09 439.568,109.74 438.958,110.21 436.267,112.23 434.958,113.14 431.539,114.61 
									"/>
				<polyline fill="none" stroke="#666666" stroke-width="0.25" stroke-linejoin="round" stroke-miterlimit="3.8637" points="
					468.347,93 468.347,93.24 468.498,93.52 468.708,93.82 468.869,94.01 469.078,94.21 469.578,94.56 469.988,94.75 470.359,94.87 
					470.458,94.95 470.539,95.05 470.539,95.14 470.539,95.24 470.417,95.42 469.966,95.84 469.068,96.46 468.517,96.94 
					468.437,97.03 468.199,97.51 468.119,97.72 468.068,98 468.046,98.31 468.068,98.53 468.109,98.95 468.187,100.03 
					468.318,100.83 468.466,101.44 468.609,101.87 468.869,102.59 469.007,102.91 469.126,103.18 469.386,103.76 469.726,104.41 
					470.199,105.13 470.958,106.45 471.029,106.56 471.226,106.69 471.539,106.85 472.068,107.02 472.427,107.17 472.757,107.39 
					472.937,107.6 473.318,108.33 473.488,108.54 473.597,108.61 473.699,108.67 473.958,108.7 474.376,108.59 474.466,108.61 
					474.609,108.68 474.958,109.03 475.267,109.36 475.876,109.96 476.029,110.17 476.109,110.38 476.056,110.71 475.998,110.91 
					475.818,111.31 475.449,111.87 475.359,111.99 475.167,112.29 475.078,112.52 475.068,112.63 475.097,112.81 475.248,113.05 
					475.369,113.17 475.658,113.42 476.626,114.22 476.988,114.54 477.257,114.83 477.417,115.06 477.556,115.29 478.238,116.58 
					478.398,116.84 478.699,117.26 478.876,117.46 479.386,117.95 479.767,118.37 				"/>
				<polyline fill="none" stroke="#666666" stroke-width="0.25" stroke-linejoin="round" stroke-miterlimit="3.8637" points="
					497.556,108.12 496.917,108.46 496.488,108.77 496.289,108.99 496.158,109.2 495.949,109.5 495.796,109.81 495.587,110.06 
					495.068,110.47 494.988,110.56 494.806,110.91 494.699,111.24 494.539,111.58 494.158,112.12 493.818,112.52 493.568,112.83 
					493.427,113.06 493.187,113.53 493.158,113.66 492.886,114.24 492.738,114.31 492.289,114.39 491.119,114.73 490.699,114.89 
					490.248,115.09 490.007,115.23 489.699,115.42 489.238,115.79 488.476,116.58 488.029,116.98 487.699,117.22 487.199,117.43 
					486.187,117.62 485.408,117.79 484.699,118.12 484.476,118.16 483.847,118.16 483.306,118.08 482.748,118.04 482.408,118.1 
					481.187,118.46 480.828,118.46 479.927,118.34 479.767,118.37 				"/>
				<polyline fill="none" stroke="#666666" stroke-width="0.25" stroke-linejoin="round" stroke-miterlimit="3.8637" points="
					479.767,118.37 480.578,119.33 480.859,119.65 481.167,119.92 481.398,120.07 481.876,120.26 482.417,120.43 482.556,120.45 
					482.789,120.46 483.437,120.37 483.738,120.39 483.828,120.43 483.958,120.5 484.068,120.59 484.148,120.68 484.248,120.91 
					484.279,121.09 484.289,121.62 484.267,121.93 484.279,123.2 484.248,123.4 484.187,123.61 483.847,124.37 				"/>
				<polyline fill="none" stroke="#666666" stroke-width="0.25" stroke-linejoin="round" stroke-miterlimit="3.8637" points="
					483.847,124.37 483.767,124.5 483.708,124.69 483.699,124.81 483.708,125.04 483.828,125.24 484.068,125.47 484.779,125.95 
					485.667,126.66 485.837,126.85 485.859,126.95 485.837,127.06 485.738,127.16 485.417,127.3 485.017,127.39 484.908,127.46 
					484.779,127.66 484.726,127.87 484.726,128.09 484.789,129.01 484.828,129.25 484.869,129.37 484.988,129.56 485.078,129.68 
					485.177,129.76 485.238,129.85 485.296,129.95 485.296,130.16 485.226,130.37 484.998,130.74 484.667,131.14 484.318,131.51 
					484.248,131.64 484.148,131.93 484.119,132.16 484.039,132.88 484.068,133.48 484.148,133.79 485.359,135.85 485.208,135.94 
					484.876,135.95 484.738,135.92 484.337,135.76 483.886,135.48 483.488,135.2 483.068,134.89 482.437,134.37 481.876,133.96 
					481.458,133.63 481.167,133.34 480.779,132.82 480.517,132.5 480.417,132.41 480.097,132.17 479.898,132.08 479.449,131.93 
					478.908,131.87 478.408,131.89 477.738,132.01 477.167,132.16 476.886,132.26 476.267,132.64 475.568,133.27 475.078,133.62 
					474.779,133.81 466.306,135.89 464.056,135.99 460.937,136.08 446.199,139.48 				"/>
				<polyline fill="none" stroke="#666666" stroke-width="0.25" stroke-linejoin="round" stroke-miterlimit="3.8637" points="
					483.847,124.37 483.976,124.42 484.216,124.39 484.738,124.42 485.529,124.41 486.779,124.2 487.546,123.92 487.988,123.7 
					488.136,123.52 488.556,122.91 488.818,122.6 488.949,122.5 489.046,122.42 489.257,122.35 489.466,122.32 489.796,122.33 
					490.398,122.44 491.226,122.64 491.449,122.65 491.568,122.62 491.658,122.56 491.886,122.23 491.958,122.14 492.167,121.98 
					492.376,121.84 492.677,121.74 493.238,121.58 493.757,121.42 494.347,121.03 494.648,120.88 494.886,120.77 495.369,120.62 
					496.056,120.43 496.476,120.26 497.029,120 497.886,119.53 498.199,119.39 498.417,119.33 498.726,119.32 499.056,119.33 
					500.039,119.51 500.328,119.5 500.667,119.41 501.289,119.18 501.498,119.14 501.587,119.16 501.699,119.21 501.767,119.33 
					501.767,119.42 501.748,119.51 501.699,119.62 501.488,119.91 501.449,120.12 501.498,120.31 501.498,120.4 501.289,120.41 
					501.097,120.39 500.869,120.43 500.748,120.62 500.779,120.73 500.898,120.92 500.988,121.03 501.238,121.21 501.556,121.37 
					501.886,121.46 502.158,121.51 502.636,121.54 503.148,121.6 503.539,121.7 504.097,121.9 504.779,122.23 505.699,122.7 
					506.119,122.84 507.238,123.35 508.578,124.04 509.958,124.6 510.279,124.76 510.466,124.93 510.587,125.12 510.828,126.02 
					510.886,126.37 510.976,126.61 511.216,126.94 511.408,127.14 511.738,127.41 512.449,128.05 512.667,128.18 512.958,128.29 
					513.158,128.41 513.318,128.62 513.408,128.91 513.437,129.08 513.376,129.55 513.257,130 512.976,130.72 512.898,130.93 
					512.859,131.12 512.818,131.35 512.818,131.79 512.898,133.08 512.927,133.87 512.908,134.09 512.859,134.33 512.716,134.74 
					512.648,135.07 512.626,135.17 512.658,135.29 512.767,135.41 513.738,136.23 514.408,136.66 516.097,137.95 516.847,138.62 
					517.966,139.7 518.738,140.27 519.046,140.49 519.318,140.65 519.619,140.71 519.818,140.7 520.427,140.56 520.658,140.56 
					520.757,140.64 520.789,140.8 520.658,141.02 520.408,141.33 520.039,141.64 519.539,141.97 519.257,142.14 519.046,142.24 
					518.369,142.45 517.898,142.64 517.529,142.84 517.187,143.08 516.779,143.38 516.556,143.6 516.068,144.17 515.177,145.79 
					514.949,146.18 514.699,146.71 				"/>
				<polyline fill="none" stroke="#666666" stroke-width="0.25" stroke-linejoin="round" stroke-miterlimit="3.8637" points="
					472.726,209.16 472.876,209.35 473.226,209.77 				"/>
			</g>
		</g>
	</g>
</g>
<path fill="#86BA3A" d="M174.898,204.772c-0.006,7.586,5.369,8.877,7.92,13.68c-0.84,0.093-2.584-0.1-3.602,0.24
	c-1.02,0.34-1.175,1.652-3.119,1.2c-2.26-0.525-5.207-2.857-8.16-2.16c-2.537,0.6-3.742,2.613-6.479,2.88
	c-0.478-0.523-1.431-0.972-1.681-1.68c-0.26-0.741,0.174-2.028,0.24-2.4c0.26-1.441-0.5-3.438-0.959-4.56
	c-2.746-6.704-6.133-11.398-6.24-21.12c2.052,0.056,5.49-1.399,6-2.64c0.968-1.455,0.848-3.733,1.438-5.52
	c1.37-4.134,2.704-8.731,3.841-13.2c0.506-1.988-0.086-5.123,0.961-6.72c1.238-1.167,3.058-1.742,4.079-3.12
	c2.525-3.404,6.476-11.858,2.64-17.04c-2.055-2.776-5.24-1.328-8.159-2.16c-0.185-2.28-3.476-8.64-5.04-9.36
	c-2.639-1.214-7.377-1.312-8.4-4.08c0.897-0.26,2.477-1.051,3.12-1.68c-1.603-1.153-1.214-5.523-1.68-7.68
	c-0.654-0.41-0.599-0.608-1.681-0.72c-0.259-0.18-0.228-0.144-0.721-0.24c-0.818,1.149-3.229,5.374-4.318,5.76
	c-0.935,0.48-1.834-0.604-2.642-0.96c-2.912-1.281-5.703-2.25-8.4-3.6c0-0.32,0-0.64,0-0.96c-0.779-0.199-0.367,0.118-0.72-0.48
	c0.08,0,0.16,0,0.24,0c0.92-0.831,2.582-0.944,3.36-1.92c0.323-0.403,0.393-0.754,0.48-1.44c-0.44-0.5-0.65-1.3-1.2-1.68
	c-0.353-0.244-2.521-0.968-1.92-1.2c0.279-0.315,0.646-0.68,0.96-0.96c0.02-2.366-0.626-3.224-0.72-5.28
	c0.24-0.08,0.48-0.16,0.72-0.24c2.945-2.082,8.339-2.104,12.718-1.92c2.189-2.872,9.447-8.897,15.842-7.44
	c2.971,0.677,3.988,2.336,7.439,2.4c3.768-3.726,13.444-3.605,18.239-0.72c1.048,0.631,1.662,1.99,2.64,2.64
	c0.791,0.526,1.99,0.217,2.881,0.72c1.133,0.64,1.137,2.652,2.16,3.36c1.039,0.24,2.08,0.48,3.119,0.72
	c1.43,0.847,1.406,3.315,3.12,4.08c5.076,2.263,15.031-0.568,19.681-1.68c1.828-0.438,4.666,0.27,5.76-0.24
	c1.422-1.024,1.285-4.531,1.681-6.48c0.24-0.08,0.479-0.16,0.722-0.24c0.935-0.597,4.108-0.374,5.52-0.24
	c3.867,0.365,7.341,1.126,12,1.2c1.25-2.246,2.986-2.533,4.08-4.08c0.364-0.516,0.429-1.624,0.96-1.92c0.239,0,0.479,0,0.72,0
	c1.548,2.739,3.32,4.227,5.521,6.24c-0.964,3.723-0.822,6.072,0.72,9.12c0.334,0.661,1.206,2.585,0.96,2.88
	c-1.158,2.343-1.5,6.061-0.72,9.6c0.106,0.49,0.44,1.778,0.238,2.64c-0.31,1.324-1.839,3.228-1.68,3.84
	c0.422,0.644,1.021,0.313,1.44,0.96c0.457,0.644,0.186,2.545-0.24,3.12c-0.951,2.621-6.394,6.728-8.642,8.4
	c-0.842,0.626-2.692,1.453-3.118,2.4c0,1.28,0,2.56,0,3.84c-1.063,1.578-0.955,3.97-1.922,5.52
	c-1.935,3.106-9.441,9.042-12.72,11.04c-3.021,1.843-8.293,0.679-12,1.92c-1.417,0.474-1.592,1.807-2.64,2.4
	c-1.12,0.24-2.24,0.48-3.36,0.72c-1.292,0.551-2.118,1.752-3.358,2.4c0.804,4.7,3.006,6.537,5.52,9.36c0.561,0.8,1.12,1.6,1.68,2.4
	c0.959,0,1.92,0,2.881,0c1.604-1.287,3.994-2.375,6.721-2.4c0.667,1.982,0.26,5.496,0.238,7.92c-0.684,0.596-0.101,0.865-0.719,1.2
	c-2.209,2.758-8.603,4.678-8.641,9.12c1.158,1.028,3.248,2.054,3.359,4.08c-1.307,0.859-2.344,2.216-3.601,3.12
	c-2.188,1.575-4.435,2.821-6.72,4.32c-1.012,0.663-3.209,2.802-4.32,2.4c-3.688-1.303-6.188-7.285-10.561-9.12
	C191.167,200.187,182.728,204.723,174.898,204.772z"/>
<path fill="#86BA3A" d="M43.857,103.733c0.04,3.837,2.026,4.59,3.6,6.72c0.284,0.384,0.331,1.198,0.72,1.44
	c1.504,0.933,1.828-0.042,1.92,2.4c-0.414,0.81,0.893,2.569,1.2,3.84c1.153,0.678,5.825,2.332,6.24,3.36
	c1.376,1.847-0.245,5.395,0.24,7.68c0.257,1.209,0.691,2.546,0.96,3.6c9.289,4.789,12.309-4.912,19.92-6
	c2.106,1.7,5.656,3.627,8.64,4.32c5.17,1.199,11.476-1.14,16.08-1.2c0.455,0.717,1.294,1.419,1.68,2.16
	c1.169,2.243,1.462,4.802,2.64,6.96c0.792,1.45,2.037,1.616,2.16,3.84c-2.921,2.273-3.439,7.169-6.24,9.6
	c-1.026,0.891-4.054,0.8-4.8,1.92c0.84,1.321,0.06,4.633-0.24,5.76c-0.68,2.56-1.294,5.661-3.36,6.72
	c-0.88,0.16-1.76,0.32-2.64,0.48c-2.031,0.836-4.013,2.35-5.76,3.6c-0.996,0.712-4.951,3.762-6.48,2.88
	c-1.747-0.637-1.612-2.583-2.88-3.6c-1.31-1.051-4.293-0.256-5.76-1.2c-1.972-1.27-2.764-4.263-4.08-6.24
	c-0.801-1.204-2.104-1.889-3.12-2.88c-11.426-0.063-11.526,14.473-22.56,14.88c0.059,2.361,0.349,4.256-0.48,6.24
	c-1.418,3.392-4.155,5.147-4.56,9.84c-0.32,0-0.64,0-0.96,0c-0.199,0.778,0.118,0.366-0.48,0.72c-1.24-0.928-3.19-0.865-4.56-1.68
	c-1.366-0.812-7.896-7.22-8.16-8.64c0.344-0.469,0.336-1.691,0-2.16c-0.75-2.328-3.311-3.437-4.56-5.28
	c-1.804-2.661-1.753-6.869-3.6-9.36c-1.6-1.44-3.2-2.88-4.8-4.32c-0.24-0.72-0.48-1.44-0.72-2.16
	c-1.186-1.325-2.918-1.445-3.12-3.84c0.844-0.195,1.352-0.478,1.68-1.2c0.762-1.211-0.572-2.177-0.72-3.6
	c1.32-0.857,2.731-1.889,4.08-2.88c0.56-0.72,1.12-1.44,1.68-2.16c0-0.32,0-0.64,0-0.96c1.861,0.248,2.863-0.072,4.32-0.48
	c0.48-0.72,0.96-1.44,1.44-2.16c0.012-4.69-2.97-4.76-3.36-7.439c1.474-2.077-0.477-4.617-1.2-6
	c-2.261-4.326-2.472-10.308-8.16-11.28c-1.939-4.687-7.613-6.024-5.04-13.44c0.248-0.715,0.095-1.69,0.24-1.92
	c1.008-0.755,2.576-0.686,3.84-1.2c2.201-0.896,4.707-2.036,7.2-2.64c2.782-0.674,3.899,1.707,6.48,0.96
	c2.205-0.638,2.101-2.328,6-2.4c0.454,0.383,1.272,0.53,1.68,0.96c0.463,0.488,0.395,1.287,0.96,1.68c1.28,0.48,2.56,0.96,3.84,1.44
	c1.404,0.91,2.923,3.073,4.08,4.32C37.938,103.733,40.897,103.733,43.857,103.733z"/>
<path fill="#86BA3A" d="M162.898,141.893c2.924-0.416,6.588-0.71,8.16,1.44c4.277,5.855-2.183,17.798-7.201,18.48
	c0.147,6.583-1.944,12.271-3.601,17.28c-0.987,2.994-1.282,6.007-2.399,8.88c-1.905,0.928-3.231,2.219-6,1.68c0,1.68,0,3.36,0,5.04
	c0.57,0.977,0.746,5.112,1.201,6.48c0.904,2.729,2.508,5.189,3.6,7.68c0.871,1.99,1.328,4.005,2.16,6c-0.4,0-0.801,0-1.2,0
	c-2.607-1.802-10.947,1.376-14.4,1.44c-1.747,0.032-3.182-1.924-4.079-2.88c-6.716,0.04-6.298,8.251-12.479,6.96
	c0.025-3.148-1.084-5.129-1.68-7.68c-0.08,0-0.16,0-0.24,0c-0.678,0.428-1.793,0.166-2.64,0.48c-1.146,0.426-2.609,1.424-3.6,2.16
	c-2.38,1.769-4.601,7.145-7.68,7.68c-0.159-0.596-0.59-0.777-0.72-1.2c-0.4-1.301,0.937-2.134-0.48-2.88
	c-1.948-1.576-4.981-0.096-6.72,0.48c-1.392-5.092-7.036-5.901-8.88-10.32c-1.712-4.102,0.719-8.526,1.68-11.52
	c0.563-1.753,0.468-3.752,0.479-6c-1.997-0.281-10.084-2.625-11.28-3.6c-0.69-0.917-0.717-2.214-1.2-3.36
	c-1.227-2.913-3.138-5.789-3.36-9.6c5.121-0.583,7.538-3.855,11.04-6c1.268-0.776,2.881-0.455,4.32-1.2
	c1.069-0.554,2.629-2.949,3.12-4.08c1.15-2.648,0.491-6.12,1.44-9.12c5.746-0.138,6.357-5.458,8.64-9.12
	c0.735-1.18,2.28-1.852,2.88-3.12c0.168-0.361-0.237-0.428,0-0.96c1.014-3.086,5.657-6.309,8.16-8.16
	c5.183-3.834,10.538-8.279,13.44-14.4c2.54,1.114,9.093,3.372,10.8,5.04c3.874-0.951,3.075-5.607,6.24-6
	c0.08,0.16,0.16,0.32,0.24,0.48c0.585,0.745,0.929,6.356,0.72,6.72c-0.491,0.438-3.116,1.729-2.399,2.4
	c1.625,2.412,5.021,3.205,7.92,4.32c0.721,0.24,1.439,0.48,2.16,0.72c0.239,0.64,0.479,1.28,0.719,1.92
	C160.96,136.719,162.759,138.611,162.898,141.893z"/>
<path fill="#86BA3A" d="M61.618,160.853c5.764,0.041,5.615,4.992,8.4,7.92c2.156,2.266,5.822,0.898,7.44,3.12
	c1.646,2.261,1.506,4.356,2.64,7.2c0.677,1.699,1.708,3.629,2.4,5.28c0.48,1.52,0.96,3.041,1.44,4.56c1.12,0.32,2.24,0.64,3.36,0.96
	c2.45,0.898,5.106,1.831,7.92,2.4c0,0.959,0,1.92,0,2.88c-0.622,0.879-0.559,2.261-0.96,3.36c-2.028,5.559-2.786,11.349,1.92,14.88
	c1.4,1.05,6.616,4.417,5.76,7.2c-0.661,2.146-4.807,4.803-6.72,6c-5.03,3.146-11.337,4.978-16.56,8.16
	c-1.636,0.997-3.564,3.027-5.04,3.84c-0.833-0.993-5.323-1.197-6.72-1.92c-1.742-0.902-3.685-2.531-4.8-4.08
	c-0.712-0.99-0.956-2.417-2.4-2.64c-2.067-0.319-4.557,2.31-6.96,2.64c-0.667-0.511-1.909-0.774-2.4-1.44
	c-1.136-1.54,0.877-5.378,0.96-8.16c-0.605-0.417-1.191-1.139-1.68-1.68c-3.48-0.054-4.921,1.17-7.92,1.44
	c-0.782-1.541-2.232-2.646-3.12-4.08c-2.259-3.651-2.827-8.882-2.88-14.64c2.266-1.473,4.962-4.574,5.04-8.16
	c-1.879-0.632-2.16-2.33-3.36-3.6c0.672-1.941,0.899-4.584,1.92-6.24c1.744-2.829,4.455-5.55,3.6-10.32
	c6.196-0.726,10.145-6.512,13.2-10.56C57.543,163.256,59.763,162.382,61.618,160.853z"/>
<path fill="#86BA3A" d="M178.978,219.892c1.391-0.125,3.475-0.277,4.561-0.72c0.08-0.24,0.158-0.48,0.238-0.72
	c0.063-0.232,0.188-0.091,0-0.24c-1.065-3.237-5.006-5.308-6.719-8.64c-0.39-0.758-1.426-2.801-0.961-3.6
	c1.438-0.92,5.53-0.715,7.44-1.2c1.681-0.427,3.787-0.813,5.521-1.2c8.948-2.003,12.474,3.32,16.319,7.2
	c1.151,1.161,2.704,1.947,3.84,3.12c1.938-0.587,3.496-2.098,5.04-3.12c3.876-2.566,7.314-4.806,10.561-7.92c0-0.56,0-1.12,0-1.68
	c-0.521-0.468-3.248-2.659-3.359-3.12c-0.376-1.545,1.422-2.093,2.16-2.64c2.066-1.532,5.527-5.731,8.158-6.24
	c0.801,0.489,2.102,0.173,3.121,0.48c2.132,0.641,4.482,1.711,6.239,2.88c4.583,3.05,7.813,7.744,12.24,11.04
	c2.085,1.552,3.787,3.878,7.2,4.08c0.515-0.782,1.186-1.33,2.398-1.44c1.41,1.453,2.901,2.876,3.602,5.04
	c0.413,1.276,0.625,4.381,0.24,6c-1.328,5.587-3.158,11.541-6,15.84c-3.55,5.368-7.688,10.287-11.521,15.36
	c-0.96,0.88-1.92,1.76-2.88,2.64c-2.432,2.431-4.658,4.858-7.438,6.96c-1.36,1.44-2.722,2.881-4.08,4.319
	c-3.488,3.487-7.076,6.823-10.08,10.801c-3.043,4.024-8.539,7.399-11.28,11.521c-0.08,0-0.16,0-0.24,0
	c-0.715-2.308-7.241-8.967-9.6-9.601c-2.925-0.784-4.66,1.666-7.2,1.92c-1.564-3.489-2.387-8.614-5.76-10.319
	c-3.34-1.688-9.239-0.269-13.2-0.479c-0.634-0.942-0.974-1.104-0.96-2.879c1.816-1.17,2.816-2.832,3.359-5.28
	c-0.08-1.04-0.16-2.08-0.239-3.12c0.336-0.903,1.642-2.02,2.159-2.88c1.107-1.84,1.642-4.418,2.16-6.72
	c0.76-3.365-1.436-6.926-0.959-9.12c0.691-3.202,3.073-4.033,3.119-7.92c-0.621-0.637-0.965-1.625-1.681-2.16
	c-1.147-0.857-2.433-1.306-3.601-2.16c-0.801-0.585-1.213-1.708-1.92-2.4C178.978,221.012,178.978,220.452,178.978,219.892z"/>
<path fill="#86BA3A" d="M178.017,220.852c0.286,3.391,5.086,5.737,7.2,7.68c0.042,1.586-0.31,2.7-1.44,3.12
	c-2.123,1.917-6.42,0.713-9.6,1.68c-7.035,2.139-11.949,6.921-18.96,9.12c-2.815,0.883-6.411-0.002-8.159-0.96
	c-0.572-0.313-1.894-1.245-2.16-0.96c-2.646,1.683-4.604,4.644-7.201,6.479c-2.393,1.693-5.202,3.608-7.92,4.8
	c-1.171,0.513-2.31,0.555-3.36,1.2c-2.269,1.392-3.71,3.75-5.76,5.28c-1.53,1.144-3.429,2.149-5.04,3.12
	c-4.708,2.838-13.514,3.918-16.56,8.16c-4.032,5.613,0.329,13.279,2.64,17.039c0.804,1.309,1.175,3.719,2.64,4.32
	c2.347,1.438,4.28-4.396,5.04-5.762c0.26,0.221,0.021-0.02,0.24,0.24c2.622,1.516,5.018,3.553,8.64,4.08
	c-0.01,3.693-1.379,5.625-1.44,9.6c-4.622,2.682-8.46,5.287-10.8,10.32c-0.837,0.082-1.569,0.68-1.68,0.479
	c-1.531-0.994-2.415-2.779-3.84-3.842c-2.11-1.57-4.77-3.193-7.44-4.079c-2.173-0.722-4.97-1.103-7.68-0.96
	c-0.96,0.08-1.92,0.16-2.88,0.24c-2.379-0.729-8.057-3.602-9.12-5.521c-0.993-1.793-0.212-4.129-0.72-6.479
	c-0.24-2.24-0.48-4.479-0.72-6.721c-0.214-0.746-0.745-1.549-0.96-2.398c1.457-0.938,6.607-5.688,6.72-7.68
	c1.977-2.912-1.287-12.072-2.64-13.441c2.127-4.376,1.089-7.993,0-12.72c-1.014-4.401,1.744-3.564-0.72-7.44
	c1.896-0.508,5.375-3.491,7.44-4.56c6.5-3.366,13.595-5.186,18.48-10.08c1.738-1.741,4.922-7.311,8.88-4.32
	c0.648,1.339-0.474,3.093,1.44,3.84c0.311,0.21,0.592,0.215,1.2,0.24c0.955-0.937,2.313-1.567,3.12-2.64
	c2.252-2.996,4.59-7.061,9.36-7.44c0,0.16,0,0.32,0,0.48c1.104,1.623,0.66,4.906,1.68,6.48c0.577,0.56,1.382,0.835,2.4,0.96
	c0.868-0.593,2.057-0.608,2.88-1.2c2.608-1.877,3.175-6.029,7.44-6.24c0.732,0.816,1.801,2.244,2.88,2.64
	c1.351,0.496,2.875,0.025,4.08-0.24c0.96,0,1.92,0,2.88,0c4.083-0.965,5.597-1.701,10.08-0.72c0.785,2.717,0.232,5.461,3.359,5.76
	c0.924-0.734,5.877-3.439,7.439-3.12C172.384,219.307,174.203,220.79,178.017,220.852z"/>
<path fill="#86BA3A" d="M152.337,329.812c-7.381-0.103-10.943-8.215-16.56-9.358c-1.419,1.856-5.38,1.198-6.24,3.603
	c-1.077,1.6-0.104,4.012-0.72,6.237c-0.213,0.771-0.82,1.547-1.2,2.16c-0.08,0-0.16,0-0.24,0c-0.952-3.806-2.838-7.619-3.12-12.479
	c-0.785-0.584-1.311-1.961-2.16-2.398c-0.64-0.08-1.28-0.16-1.92-0.24c-1.342-0.451-2.87-1.049-4.32-1.682
	c-3.419-1.484-6.759-3.771-10.56-4.801c0.218-0.262-0.019-0.021,0.24-0.238c0.355-0.279,1.386-0.375,1.68-0.721
	c0.08-0.479,0.16-0.961,0.24-1.438c0.588-1.328,1.992-3.236,3.12-4.08c1.208-0.9,6.674-3.732,7.2-4.563c0-1.041,0-2.08,0-3.121
	c1.184-1.727,1.678-5.738,1.2-8.158c-3.547-0.166-7.486-2.518-9.36-4.561c-0.421,0.15-0.233,0.045-0.48,0.238
	c-1.832,1.313-1.916,5.5-4.32,6c-2.143-3.783-8.695-12.043-5.76-18.719c2.002-4.557,10.807-6.063,15.36-8.4
	c2.338-1.199,4.881-2.533,6.96-4.08c1.809-1.346,3.074-3.57,5.04-4.8c2.185-1.366,4.778-1.79,6.96-3.12
	c3.182-1.939,9.8-6.45,11.76-9.36c11.167,5.508,19.503-3.601,27.841-6.96c2.729-1.099,7.105-0.798,10.08-1.44c0,0.16,0,0.32,0,0.48
	c-2.537,3.245,1.118,6.228,0,11.04c-0.648,2.792-1.304,5.52-2.641,7.68c-0.359,0.581-1.427,1.332-1.68,1.92
	c-0.487,1.133,0.459,3.618-0.24,5.28c-1.129,2.683-2.872,1.49-2.88,6c0.584,0.396,0.772,0.886,1.44,1.199
	c2.726,1.844,9.313-0.931,12.719,0.479c4.854,2.008,3.214,10.549,8.16,10.562c1.275-1.029,3.396-1.863,5.521-1.922
	c1.701,1.438,3.942,2.553,5.28,4.319c1.168,1.545,2.484,3.711,4.08,4.801c0,0.08,0,0.16,0,0.24c-0.08,0-0.16,0-0.24,0
	c-2.02,3.125-6.143,6.869-9.12,9.119c-1.12,1.198-2.24,2.399-3.36,3.6c-4.02,3.041-7.644,6.666-12,9.359
	c-1.384,0.856-3.265,1.664-4.8,2.159c-0.72,0.08-1.44,0.16-2.16,0.24c-1.638,0.596-3.956,3.01-5.04,4.319c-0.4,0-0.8,0-1.199,0
	c-1.93-2.209-2.713-4.842-6.479-3.84c-0.067-1.642-0.444-3.332-0.96-4.562c-4.768-3.188-7.782,0.168-11.521,2.159
	c-1.281,0.685-3.748,1.585-4.318,2.88c0,0.881,0,1.762,0,2.642c0.52,0.834-0.014,2.422,0.238,3.601
	C152.676,320.913,152.424,325.567,152.337,329.812z"/>
<path fill="#86BA3A" d="M70.018,280.853c3.367,3.769-0.519,13.821,4.56,17.521c2.025,1.478,5.127,3.146,7.68,3.84
	c1.76-0.08,3.52-0.157,5.28-0.237c2.215,0.489,4.536,0.623,6.48,1.438c3.171,1.334,5.892,3.487,8.16,5.76
	c0.633,0.636,1.203,1.908,1.92,2.4c1.04,0.317,2.08,0.639,3.12,0.959c1.291,0.561,2.828,1.534,4.08,2.159
	c2.344,1.168,4.869,2.164,7.2,3.119c1.04,0.24,2.08,0.479,3.12,0.722c0.857,0.485,1.602,1.795,1.68,3.118
	c0.88,1.375,0.484,3.5,0.96,5.281c0.657,2.457,2.187,4.687,2.64,6.959c-0.624,0.789-0.656,2.002-1.2,2.881
	c-0.907,1.468-2.621,3.168-4.08,4.08c-1.696,1.062-3.991,1.797-6,2.399c-1.225,0.367-2.31-0.065-2.88,0.959
	c-0.941,1.535,0.437,3.476,0.72,4.562c0.607,2.332-0.794,5.647-1.2,7.438c-10.133-0.192-13.744,5.89-19.44,10.08
	c-1.773,1.308-4.414,2.063-6,3.601c-0.421-0.149-0.233-0.045-0.48-0.24c-4.278-2.924-3.955-9.969-6.72-14.157
	c-1.104-1.675-7.716-2.771-10.08-3.361c-0.802-1.256-1.748-2.133-1.92-4.077c1.333-1.306,2.343-3.738,2.4-6.24
	c-0.896-0.483-1.659-1.351-2.64-1.683c-5.283-1.78-11.57,3.185-14.88,4.804c-0.289,9.19-8.035,16.147-17.76,16.08
	c0-0.08,0-0.16,0-0.24c6.49-6.84-0.242-13.938-3.84-18.961c-0.903-1.26-3.728-3.815-2.88-6.479c0.745-2.338,5.032-2.489,6.24-4.563
	c0.24-0.719,0.48-1.438,0.72-2.157c1.332-2.041,3.507-3.64,4.8-5.763c0.608-0.998,0.505-2.679,1.2-3.601
	c4.163-4.174,12.146-4.203,15.36-9.358c1.325-2.125,2.286-5.89,1.44-9.358c-0.457-1.877-1.177-4.679-0.48-6.959
	c1.018-3.336,6.217-8.65,8.88-10.562C67.374,282.155,68.872,281.776,70.018,280.853z"/>
<path fill="#86BA3A" d="M153.058,331.011c0.782-6.542-0.386-13.099-0.479-19.681c2.146-1.369,7.442-5.412,10.08-5.761
	c0.534-0.346,1.188-0.135,1.68,0c3.845,1.062,2.38,3.164,3.601,6.479c1.061-0.357,1.32-0.982,2.641-1.199
	c0.969,1.107,2.29,3.68,3.84,4.08c0.469,0.344,1.691,0.336,2.16,0c1.314-0.467,1.572-1.682,2.88-2.16c0,1.521,0,3.041,0,4.563
	c0.737,1.191,0.829,5.957,1.2,7.438c1.352,0.58,8.172,3.402,8.64,4.318c0,0.643,0,1.281,0,1.922
	c-0.491,0.605-0.503,1.482-0.96,2.158c-1.012,1.498-3.547,2.178-3.84,4.32c-0.545,0.813,0.02,1.639,0.24,2.398
	c2.322,0.438,5.5,1.777,5.52,4.563c-6.357,1.875-11.408,4.801-11.279,13.199c5.224,3.465,6.944,10.645,15.601,10.801
	c0.646,1.789,1.677,1.92,1.68,4.799c-1.421,0.9-3.229,2.098-4.319,3.359c-0.545,0.635-0.394,1.258-1.199,1.682
	c-1.215,0.652-10.238-0.213-12.721,0.479c-2.436,0.683-5.156,2.021-6.479,3.84c-0.623,0.856-0.708,1.894-1.681,2.399
	c-0.965-0.61-3.598,0.054-4.561,0.479c-2.685,1.195-4.304,3.783-6.238,5.761c-1.121,0.961-2.24,1.92-3.36,2.881
	c-0.8,0-1.601,0-2.4,0c-1.132-3.933-7.007-6.84-13.2-5.521c-1.113,0.235-3.625,0.959-5.04,0.479c-0.871-0.295-1.855-1.439-2.64-1.92
	c-2.151-1.311-4.574-1.838-6.96-2.879c-1.626-0.709-2.991-2.16-5.04-2.398c-1.728,2.635-4.278,4.383-5.76,7.438
	c-0.421-0.15-0.233-0.048-0.48-0.24c-2.042-0.681-3.768-2.731-5.52-3.84c-4.457-2.813-8.921-4.938-16.08-5.041
	c-0.959-3.84-4.47-5.914-5.52-9.601c2.563-0.574,4.186-2.293,6-3.601c5.896-4.248,9.601-9.719,19.68-9.84
	c0.744-1.338,2.337-6.19,1.68-8.642c-0.333-1.244-0.914-2.011-0.96-3.84c0.08,0,0.16,0,0.24,0c0-0.08,0-0.16,0-0.24
	c5.136-0.188,10.327-3.18,12.479-6.479c0.723-1.106,1.043-3.657,1.68-4.56c0.16,0,0.32,0,0.48,0c0.366-0.399,1.023-1.446,1.2-1.92
	c0.608-1.631,0.588-5.726,0.96-7.44c1.21-0.576,5.038-2.545,6-2.159c1.536,0.487,2.435,1.792,3.601,2.641
	C143.724,327.167,147.271,330.688,153.058,331.011z"/>
<path fill="#86BA3A" d="M91.857,381.17c10.702-0.084,19.898,6.158,24.48,12.24c0.88,0.801,1.76,1.601,2.64,2.399
	c3.253,4.269,7.92,7.315,11.04,11.76c5.374,7.648,7.94,17.587,12.96,25.681c1.881,3.035,4.371,6.778,7.198,8.881
	c1.317,0.979,5.595,2.617,6.24,3.84c0.19,0.283,0.187,0.404,0.24,0.96c-2.646,2.067-2.655,8.093-2.642,12.722
	c1.342,0.918,2.377,2.538,3.36,3.84c2.325,3.079,5.373,5.19,6,10.08c-1.292,0.148-2.633,0.629-3.84,0.961
	c-1.452,0.396-3.263,0.141-4.56,0.479c-1.762,0-3.521,0-5.281,0c-2.41,0.555-5.358,0.473-7.439,1.2
	c-1.061,0.371-5.52,1.92-5.52,1.92c-0.761-1.076-0.704-2.748-1.2-4.08c-1.068-2.872-2.275-6.066-3.84-8.641
	c-1.876-3.082-4.629-6.502-7.68-8.399c-1.357-0.845-2.862-0.843-4.32-1.681c-0.493-0.283-0.607-0.979-0.96-1.439
	c-0.981-1.281-3.251-2.709-4.8-3.357c-5.452-2.291-20.431-0.609-22.32-5.761c-2.462-3.46,2.568-15.681-3.84-16.08
	c-2.16-0.399-4.32-0.802-6.48-1.2c-6.75-2.144-17.945-5.471-23.52,0.24c-4.612-1.98-4.602-9.309-8.4-10.08
	c-4.468-2.781-14.423,5.356-18.48-0.24c-1.83-2.441,1.368-6.725-0.24-9.357c-0.851-2.36-3.743-4.283-5.76-5.521
	c-1.712-1.052-4.38-1.261-4.56-3.843c1.135-1.088,6.236-6.526,7.44-6.719c1.043,0.789,2.511,0.955,3.6,1.681
	c3.141,2.09,5.454,4.715,9.12,6.479c0-0.16,0-0.32,0-0.479c-1.412-2.267-0.878-9.521-1.68-12.722c-0.56-2.317-1.12-4.64-1.68-6.959
	c-1.383-3.312-5.776-8.66-4.32-14.399c0.4-1.199,0.8-2.4,1.2-3.601c1.12,0,2.24,0,3.36,0c1.68-0.399,3.36-0.802,5.04-1.201
	c2.458-1.028,5.45-3.006,6.96-5.039c1.186-1.596,2.353-3.603,3.12-5.521c0.571-1.428,0.345-3.422,1.2-4.562
	c0.871-0.85,2.023-1.018,3.12-1.68c3.917-2.373,7.588-4.479,12.24-1.438c-0.684,2.016-1.253,4.202-2.64,5.521
	c1.542,6.86,6.047,5.185,11.76,7.438c2.031,3.67,2.811,8.646,5.04,12.239C85.385,371.229,91.103,376.79,91.857,381.17z"/>
<text transform="matrix(1 0 0 1 27.8237 509.8389)" font-family="'MyriadPro-Regular'" font-size="24">Gouvernorat de Siliana</text>
<text transform="matrix(1 0 0 1 27.6978 151.8682)" font-family="'MyriadPro-Regular'" font-size="12">El Krib</text>
<text transform="matrix(1 0 0 1 39.6978 215.8682)" font-family="'MyriadPro-Regular'" font-size="12">Bourouis</text>
<text transform="matrix(1 0 0 1 102.6978 178.8682)" font-family="'MyriadPro-Regular'" font-size="12">Gaafour</text>
<text transform="matrix(1 0 0 1 182.6978 148.8682)" font-family="'MyriadPro-Regular'" font-size="12">Bouarada</text>
<text transform="matrix(1 0 0 1 196.3374 243.667)" font-family="'MyriadPro-Regular'" font-size="12">Bargou</text>
<text transform="matrix(1 0 0 1 88.6978 242.8682)" font-family="'MyriadPro-Regular'" font-size="12">Siliana  </text>
<text transform="matrix(1 0 0 1 88.6978 259.667)" font-family="'MyriadPro-Regular'" font-size="12">Nord</text>
<text transform="matrix(1 0 0 1 121.6978 283.8682)" font-family="'MyriadPro-Regular'" font-size="12">Siliana Sud</text>
<text transform="matrix(1 0 0 1 54.6978 332.8682)" font-family="'MyriadPro-Regular'" font-size="12">Makthar</text>
<text transform="matrix(1 0 0 1 132.6978 358.8682)" font-family="'MyriadPro-Regular'" font-size="12">Kesra</text>
<text transform="matrix(1 0 0 1 56.2578 401.0264)" font-family="'MyriadPro-Regular'" font-size="12">Rouhia</text>
</svg>
