<?xml version="1.0" encoding="utf-8"?>
<!-- Generator: Adobe Illustrator 13.0.0, SVG Export Plug-In . SVG Version: 6.00 Build 14948)  -->
<!DOCTYPE svg PUBLIC "-//W3C//DTD SVG 1.0//EN" "http://www.w3.org/TR/2001/REC-SVG-20010904/DTD/svg10.dtd">
<svg version="1.0" id="Calque_1" xmlns="http://www.w3.org/2000/svg" xmlns:xlink="http://www.w3.org/1999/xlink" x="0px" y="0px"
	 width="380.459px" height="552.165px" viewBox="0 0 380.459 552.165" enable-background="new 0 0 380.459 552.165"
	 xml:space="preserve">
<g id="XMLID_2_">
	<g>
		<g id="XMLID_1_">
			<g>
				<polygon fill="#84B93B" points="340.39,38.92 340.64,38.62 340.79,38.32 340.85,38.12 340.879,37.96 340.85,37.56 340.78,37.41 
					340.669,37.09 340.7,36.99 340.78,36.89 341.089,36.82 341.209,36.82 341.66,36.73 341.77,36.68 342.11,36.66 342.7,36.54 
					342.94,36.46 343.04,36.35 343.1,36.25 343.11,36.16 343.11,36.07 343.07,35.98 342.98,35.87 342.89,35.85 342.62,35.64 
					342.53,35.56 342.49,35.45 342.54,35.37 343.07,35.06 343.15,34.97 343.19,34.87 343.2,33.62 343.18,33.22 343.18,33.04 
					343.15,33 343.459,32.93 343.66,32.86 344.89,32.66 345.1,32.83 345.4,33.14 345.52,33.19 345.61,33.19 345.73,33.12 
					346.06,32.75 346.16,32.7 346.48,32.68 346.69,32.72 346.85,32.89 347.12,33.39 346.94,33.66 346.69,34.16 346.57,34.52 
					346.29,35.2 346.1,35.75 345.74,37.69 345.73,38.31 345.7,38.8 345.709,39.39 346.15,41.77 346.4,42.02 346.549,42.1 
					346.79,42.14 346.879,42.19 346.99,42.33 347.03,42.58 346.97,42.77 347.06,42.94 347.04,43.15 347.11,43.42 347.77,44.49 
					348.19,44.89 348.87,45.91 348.89,46.09 348.9,46.21 348.98,46.39 349.24,46.69 349.48,47.16 349.53,47.26 350.04,47.71 
					350.15,48.19 350.32,48.33 351.03,48.89 350.9,49.12 350.74,49.33 350.54,49.52 350.2,49.79 349.99,50 349.85,50.2 
					349.79,50.42 349.74,50.66 349.76,51.29 349.9,52.37 349.9,52.72 349.82,53.12 349.669,53.45 349.6,53.58 349.37,53.75 
					348.89,54.04 348.12,54.31 347.27,54.47 347.07,54.55 346.97,54.62 346.9,54.73 346.879,54.82 346.9,54.94 347.07,55.12 
					347.27,55.31 347.32,55.42 347.32,55.51 347.28,55.62 347.089,55.81 346.669,56.05 345.959,56.29 345.54,56.26 345.169,56.26 
					345.169,56.27 344.78,56.27 344.23,56.17 343.7,56.04 342.77,55.66 342.02,55.15 341.74,54.94 341.7,54.91 341.61,54.68 
					341.56,54.39 341.53,54.1 341.39,53.86 341.06,53.44 340.7,52.9 340.22,52.02 339.62,50.96 339.07,49.91 338.56,48.79 
					338.23,48.13 338.14,47.81 338.28,47.53 338.66,47.11 338.98,46.78 339.07,46.64 339.169,46.56 339.31,46.35 339.49,46.16 
					339.74,45.77 339.919,45.35 340.07,44.8 340.19,44.35 340.24,44.24 340.37,43.52 340.4,43.14 340.45,42.94 340.45,42.71 
					340.39,42.54 340.24,42.25 340.06,42.01 339.95,41.92 339.74,41.81 339.26,41.6 338.51,41.21 338.4,41.14 338.299,41.04 
					338.77,40.24 339.31,39.43 339.45,39.4 339.57,39.33 340.06,39.14 				"/>
			</g>
			<g>
				<polygon fill="none" stroke="#666666" stroke-width="0.25" stroke-linejoin="round" stroke-miterlimit="3.8637" points="
					308.74,0.25 308.82,0.27 308.959,0.41 309.14,0.54 309.16,0.7 308.99,0.88 308.9,0.91 308.69,0.82 308.03,1.02 307.78,0.95 
					307.73,0.88 307.76,0.77 308.11,0.55 308.48,0.52 308.57,0.47 308.629,0.33 				"/>
				<polygon fill="none" stroke="#666666" stroke-width="0.25" stroke-linejoin="round" stroke-miterlimit="3.8637" points="
					329.2,9.28 329.2,9.14 329.36,8.85 329.48,8.72 329.629,8.71 329.57,8.98 329.48,9.14 				"/>
				<polygon fill="none" stroke="#666666" stroke-width="0.25" stroke-linejoin="round" stroke-miterlimit="3.8637" points="
					353.57,11.95 353.51,11.91 353.53,11.7 353.7,11.56 353.74,11.39 353.87,11.35 353.98,11.6 354.19,11.87 354.07,11.95 				"/>
				<polygon fill="none" stroke="#666666" stroke-width="0.25" stroke-linejoin="round" stroke-miterlimit="3.8637" points="
					355.6,12.2 355.62,12.29 355.549,12.35 355.459,12.29 355.49,12.22 				"/>
				<polygon fill="none" stroke="#666666" stroke-width="0.25" stroke-linejoin="round" stroke-miterlimit="3.8637" points="
					359.299,48.79 359.15,48.76 359.089,48.67 359.14,48.58 359.32,48.35 359.56,48.37 359.68,48.62 359.53,48.73 				"/>
				<polygon fill="none" stroke="#666666" stroke-width="0.25" stroke-linejoin="round" stroke-miterlimit="3.8637" points="
					358.85,49.52 358.66,49.3 358.74,49.21 358.87,49.25 358.9,49.35 				"/>
				<polygon fill="none" stroke="#666666" stroke-width="0.25" stroke-linejoin="round" stroke-miterlimit="3.8637" points="
					359.629,53.1 359.48,53 359.15,52.91 359.089,52.84 359.12,52.75 359.36,52.83 359.66,53.04 				"/>
				<polygon fill="none" stroke="#666666" stroke-width="0.25" stroke-linejoin="round" stroke-miterlimit="3.8637" points="
					366.14,75.76 365.99,75.71 365.959,75.6 365.9,75.47 366.03,75.45 366.23,75.66 366.589,75.82 366.44,75.88 366.26,75.87 				
					"/>
				<polygon fill="none" stroke="#666666" stroke-width="0.25" stroke-linejoin="round" stroke-miterlimit="3.8637" points="
					363.87,76.36 363.74,76.25 363.78,76.2 363.919,76.18 364.04,76.31 364.129,76.42 364.07,76.45 				"/>
				<polygon fill="none" stroke="#666666" stroke-width="0.25" stroke-linejoin="round" stroke-miterlimit="3.8637" points="
					365.93,77.24 365.9,77.27 365.7,77.16 365.6,77.04 365.6,76.96 365.68,76.95 365.72,77.06 				"/>
				<polygon fill="none" stroke="#666666" stroke-width="0.25" stroke-linejoin="round" stroke-miterlimit="3.8637" points="
					365.99,77.74 365.95,77.56 366.02,77.42 366.23,77.31 366.7,77.32 366.74,77.38 366.709,77.44 366.43,77.44 366.2,77.5 
					366.049,77.71 				"/>
				<polygon fill="none" stroke="#666666" stroke-width="0.25" stroke-linejoin="round" stroke-miterlimit="3.8637" points="
					362.61,78.13 362.57,78.07 362.54,77.92 362.56,77.92 362.57,77.83 362.74,77.87 362.77,77.41 362.68,77.29 362.72,77.24 
					362.9,77.33 362.95,77.58 363.02,77.66 363.43,77.81 363.77,77.79 363.959,77.89 364.01,77.86 363.98,77.75 363.94,77.65 
					364.1,77.58 364.04,77.39 364.07,77.08 363.959,76.96 363.86,76.84 363.82,76.78 363.82,76.67 364.04,76.69 364.07,76.66 
					364.43,76.36 364.39,76.2 364.36,76.04 364.49,75.87 364.43,75.79 364.4,75.68 364.52,75.56 364.52,75.45 364.69,75.5 
					364.879,75.6 365.04,75.88 365.089,75.97 365.11,76.03 365.18,76.12 365.24,76.12 365.299,76.06 365.299,75.89 365.14,75.81 
					365.2,75.7 365.299,75.71 365.51,75.89 365.77,75.89 366.23,76.15 366.2,76.22 366.03,76.22 365.89,76.1 365.77,76.1 
					365.57,76.21 365.6,76.35 365.54,76.37 365.49,76.45 365.54,76.52 365.54,76.67 365.57,76.74 365.48,76.81 365.35,76.85 
					365.24,76.77 365.24,76.99 365.24,77.17 365.6,77.41 365.78,77.6 365.86,77.81 365.86,78.01 365.81,78.08 365.48,78.08 
					365.32,78.13 365.14,78.27 364.94,78.43 364.669,78.43 364.66,78.58 364.57,78.64 363.62,78.97 363.32,79.03 362.79,79.29 
					362.7,79.41 362.69,79.43 362.56,79.52 362.32,79.6 362.07,79.77 361.82,79.84 361.669,79.96 361.62,79.95 361.6,79.95 
					361.57,79.62 361.74,79.35 361.78,79.16 361.85,79 362.02,78.92 362.18,78.79 362.35,78.46 362.6,78.2 362.629,78.17 				"/>
				<polygon fill="none" stroke="#666666" stroke-width="0.25" stroke-linejoin="round" stroke-miterlimit="3.8637" points="
					358.99,80.95 358.879,80.93 358.66,80.81 358.36,80.56 357.95,80.38 357.85,80.32 358.18,79.97 358.22,79.93 358.39,79.85 
					359.57,79.79 359.74,79.89 359.959,79.79 360.29,79.79 360.709,79.78 360.85,79.87 361.22,79.89 361.43,79.95 361.4,80.08 
					361.4,80.16 361.37,80.18 361.06,80.24 360.49,80.65 359.98,81.17 359.839,81.17 359.74,81.24 359.72,81.37 359.68,81.4 
					359.37,81.07 359.24,80.98 				"/>
				<polygon fill="none" stroke="#666666" stroke-width="0.25" stroke-linejoin="round" stroke-miterlimit="3.8637" points="
					353.02,107.16 353.14,107.18 353.18,107.37 353.11,107.41 				"/>
				<polygon fill="none" stroke="#666666" stroke-width="0.25" stroke-linejoin="round" stroke-miterlimit="3.8637" points="
					356.53,107.38 356.2,107.51 355.95,107.74 355.879,107.86 355.74,108.74 355.61,108.66 355.37,108.02 355.39,107.84 
					355.53,107.6 355.62,107.42 355.52,107.23 355.39,106.99 354.49,105.92 354.32,105.87 354.07,105.85 353.95,105.89 
					353.74,106.08 353.6,106.14 353.45,106.23 353.37,106.52 353.37,106.81 353.04,106.72 352.9,106.81 352.78,106.83 
					352.62,106.72 352.4,106.34 352.27,106.25 352.129,105.81 351.95,105.48 352.01,105.26 352.01,104.98 352.01,104.92 
					352.15,104.77 352.32,104.45 352.39,104.21 352.36,103.34 352.39,103.16 352.31,102.64 352.36,102.43 352.39,102.31 
					352.31,101.81 352.37,101.71 352.52,101.64 352.7,101.56 353.24,101.44 353.49,101.35 354.1,101.41 354.43,101.5 355.24,101.84 
					355.62,101.93 356.4,101.93 356.839,102.08 356.9,101.87 356.86,101.68 356.86,101.54 357.02,101.56 357.07,101.56 
					357.26,101.73 357.74,102.33 358.06,102.58 359.03,103.27 359.65,103.29 359.86,103.3 360.03,103.39 360.11,103.54 
					359.99,103.78 360.049,103.89 360.2,104.2 360.12,104.29 360.049,104.29 359.9,104.14 359.86,104.2 359.9,104.31 360.07,104.38 
					360.11,104.45 360.11,104.66 360.07,104.71 359.82,104.7 359.45,104.87 359.15,105.22 359.089,105.29 358.4,105.56 
					358.4,105.58 358.32,105.61 358.16,105.77 358.01,106.1 357.9,106.62 357.89,107.21 357.77,107.35 357.74,107.18 357.7,106.95 
					357.74,106.46 357.66,106.25 357.57,106.15 357.4,106.23 357.26,106.42 356.99,107.02 356.81,107.09 356.81,107.11 				"/>
				<polygon fill="none" stroke="#666666" stroke-width="0.25" stroke-linejoin="round" stroke-miterlimit="3.8637" points="
					355.29,109.84 355.24,109.57 355.31,109.52 355.39,109.52 355.43,109.62 355.39,109.74 				"/>
				<polygon fill="none" stroke="#666666" stroke-width="0.25" stroke-linejoin="round" stroke-miterlimit="3.8637" points="
					353.79,112.06 353.9,112.23 353.93,112.34 353.79,112.52 353.72,112.48 353.74,112.34 353.72,112.18 353.68,112.1 
					353.68,112.04 				"/>
				<polygon fill="none" stroke="#666666" stroke-width="0.25" stroke-linejoin="round" stroke-miterlimit="3.8637" points="
					361.78,115.85 361.39,115.23 361.4,115.09 361.85,115.57 361.879,115.7 				"/>
				<polyline fill="none" stroke="#666666" stroke-width="0.25" stroke-linejoin="round" stroke-miterlimit="3.8637" points="
					266.7,16.84 267.069,16.46 267.44,16.18 267.66,15.89 267.95,15.45 268.069,14.86 268.04,14.58 267.851,14.39 267.771,14.24 
					267.209,13.96 266.959,13.77 266.81,13.74 266.69,13.62 				"/>
				<polyline fill="none" stroke="#666666" stroke-width="0.25" stroke-linejoin="round" stroke-miterlimit="3.8637" points="
					266.7,13.03 266.99,12.82 267.28,12.89 267.49,12.89 267.86,13 268.04,13.15 268.28,13.22 268.28,13.24 268.36,13.35 
					268.549,13.35 268.669,13.29 268.76,13.15 268.729,13.04 269.021,13 269.209,13.09 269.681,13.31 269.899,13.39 270.14,13.37 
					270.49,13.22 270.729,13.24 270.851,13.12 270.819,12.94 270.99,12.91 271.06,12.85 271.2,12.88 271.29,12.97 271.399,13 
					271.31,13.24 271.149,13.43 271.16,13.56 271.36,13.77 271.49,13.83 271.61,13.89 271.76,14.06 271.899,14.1 272.319,14.06 
					272.66,13.96 273.101,13.91 273.319,13.93 273.64,14.04 273.95,14.05 274.101,14.11 274.39,14.35 274.61,14.65 274.78,14.79 
					275.149,15.06 275.271,15.34 276.28,16.02 276.62,16.15 276.95,16.21 277.11,16.16 277.39,16.18 277.66,15.92 277.709,15.81 
					277.78,15.83 277.74,15.91 277.851,16.03 278.11,16.08 278.2,15.99 278.28,16 278.36,16.14 278.569,16.29 278.7,16.22 
					278.78,16.22 278.819,16.54 278.89,16.62 279.049,16.58 279.28,16.48 280.101,16.42 280.39,16.36 280.45,16.3 280.61,16.14 
					280.74,16.08 280.879,16.08 280.97,16.14 280.97,16.22 280.76,16.42 280.729,16.58 280.569,16.67 280.319,17.18 280.33,17.31 
					280.7,17.81 280.729,17.92 280.601,18.1 280.319,18.5 280.319,18.62 280.53,18.81 280.87,19.1 281.12,19.27 282.44,19.62 
					283.569,19.62 284.459,19.5 284.61,19.51 284.81,19.63 284.86,19.48 285.31,19.29 286.87,18.87 287.56,18.47 288.049,18.33 
					288.209,18.25 288.399,18.14 289.069,17.71 289.729,17.49 290.11,17.26 290.53,17.06 290.79,16.87 291.11,16.83 291.399,16.63 
					291.521,16.6 291.56,16.6 291.729,16.58 291.799,16.7 291.819,16.96 291.899,17.02 292.319,17.08 292.399,17.14 292.431,17.23 
					292.39,17.38 292.45,17.44 292.87,17.56 293.629,17.49 293.89,17.42 294.101,17.42 294.19,17.47 294.53,17.45 294.56,17.44 
					294.78,17.39 294.99,17.54 295.64,17.53 295.819,17.66 296.069,18.01 296.39,18.06 296.61,17.96 296.74,17.98 296.899,18.07 
					297.11,18.02 297.28,18.06 297.45,17.96 297.959,17.92 298.28,17.87 298.61,17.71 298.879,17.54 299.23,17.41 299.27,17.39 
					299.28,17.39 300.49,17.06 300.68,16.87 300.77,16.87 300.95,17.02 301.33,16.97 301.52,16.83 				"/>
				<polyline fill="none" stroke="#666666" stroke-width="0.25" stroke-linejoin="round" stroke-miterlimit="3.8637" points="
					372.16,121.76 372.44,122 372.78,122.29 373.24,123.01 373.6,123.2 373.879,123.24 374.04,123.49 374.36,123.64 374.9,123.79 
					375.26,123.77 376.99,124.16 377.44,124.2 377.89,124.3 377.93,124.04 377.54,123.87 377.02,123.71 376.76,123.49 
					376.27,123.29 376.04,123.25 375.85,123.34 375.52,123.1 375.29,122.98 375.19,122.75 375.61,122.93 375.919,123.04 
					376.73,123.31 377.23,123.5 377.44,123.67 378.1,124 379.24,124.43 379.99,124.74 380.209,124.87 				"/>
				<polyline fill="none" stroke="#666666" stroke-width="0.25" stroke-linejoin="round" stroke-miterlimit="3.8637" points="
					339.049,11.98 339.1,11.96 339.23,11.64 339.16,11.38 339.2,11.24 339.32,11.32 339.379,11.66 339.44,11.77 339.44,11.79 
					339.62,11.95 340.07,12.17 340.11,12.27 340.15,12.47 340.04,12.66 339.87,12.68 339.77,12.66 339.74,12.6 339.86,12.43 
					339.82,12.35 339.66,12.28 339.589,12.27 339.32,12.35 338.95,12.41 338.839,12.55 338.89,12.6 338.959,12.6 339.12,12.5 
					338.89,12.89 338.629,13.56 338.65,13.97 338.51,13.84 338.419,13.87 338.57,14.08 338.49,14.16 338.54,14.2 338.629,14.17 
					338.7,14.21 338.82,14.53 338.82,14.59 338.86,14.81 339.169,15.5 339.61,16.06 340.52,16.85 341.03,17.21 341.12,17.24 
					341.32,17.33 341.9,17.45 342.02,17.54 342.11,17.68 342.049,17.8 342.03,17.83 342.11,18.1 342.209,18.25 342.35,18.33 
					342.44,18.37 342.49,18.4 342.589,18.47 342.9,18.7 342.94,18.83 342.919,18.94 342.65,19 342.49,19.27 342.29,19.43 
					342.28,19.64 341.81,20.29 341.74,20.47 341.53,20.52 341.6,20.65 341.35,20.74 341.24,20.83 341.209,21.01 341.48,21.5 
					341.459,21.56 341.839,22 342.169,22.41 342.37,22.54 342.53,22.66 343.04,22.91 343.24,22.99 343.28,23 343.69,23.11 
					344.089,23.14 344.32,23.11 344.6,23.06 344.839,23.02 345.49,22.78 345.86,22.57 345.959,22.69 345.85,22.84 345.89,22.91 
					346.06,22.89 346.16,22.79 345.99,22.54 346.03,22.5 347.18,22.06 347.44,21.87 347.57,21.68 347.7,21.25 347.9,20.83 
					347.99,20.33 348.12,20.06 348.169,19.69 348.23,19.51 348.45,19.42 348.49,19.3 348.47,19.06 348.85,18.95 349.1,18.74 
					349.15,18.56 349.28,18.54 349.48,18.7 350.36,18.45 350.629,18.55 351.31,18.52 351.57,18.45 351.87,18.35 352.18,18.19 
					352.32,18.12 352.61,17.92 353.14,17.42 353.57,16.99 354.02,16.9 354.29,16.58 354.4,16.54 354.45,16.41 354.61,16.45 
					355.06,16.15 355.24,16 355.57,15.67 355.669,15.64 355.9,15.39 356.07,14.98 356.37,15.02 356.459,14.93 356.48,14.62 
					356.299,14.41 356.37,14.35 356.36,14.24 356.28,14.17 356.36,14.04 356.35,13.9 356.39,13.84 356.48,13.85 356.54,13.97 
					356.68,13.91 356.93,13.84 357.1,13.83 357.29,13.74 357.64,13.74 357.86,13.83 358.62,13.54 358.9,13.31 359.18,13.21 
					359.32,13.12 359.36,12.99 359.32,12.82 359.4,12.74 359.54,12.88 359.629,12.88 359.65,12.99 359.65,13.02 359.79,13.14 
					359.9,13.09 359.959,13.16 359.98,13.39 360.07,13.56 360.32,13.78 360.37,13.95 360.31,14.02 360.12,14 360.02,14.1 
					359.95,14.65 359.99,14.98 360.14,15.34 360.44,15.79 360.85,16.37 361.2,18.12 361.39,18.37 361.69,18.58 361.74,18.79 
					361.709,18.95 361.669,19.16 361.43,19.72 361.27,19.85 361.03,19.85 360.4,20.11 360.19,20.32 359.99,20.41 359.93,20.47 
					359.4,20.93 359.18,21.27 358.87,21.6 358.339,22.27 357.7,23.27 357.07,24.45 356.54,24.99 355.9,26.29 355.879,26.32 
					355.709,26.5 355.37,27.25 355.11,27.79 354.66,29.06 354.1,30.2 353.93,30.37 353.839,30.41 353.65,30.49 353.57,30.58 
					353.35,30.54 353.18,30.61 353.04,30.6 352.49,30.79 352.24,30.81 352.11,30.91 352.04,30.91 351.82,30.91 351.49,31.1 
					350.95,31.3 350.57,31.54 350.209,31.87 349.95,31.9 349.87,32 349.69,31.96 349.49,32.1 349.27,32.14 348.86,31.91 
					348.78,31.9 348.53,31.9 348.28,32.04 347.9,32.32 347.51,32.75 347.12,33.39 346.94,33.66 346.69,34.16 346.57,34.52 
					346.29,35.2 346.1,35.75 345.74,37.69 345.73,38.31 345.7,38.8 345.709,39.39 346.15,41.77 346.4,42.02 346.549,42.1 
					346.79,42.14 346.879,42.19 346.99,42.33 347.03,42.58 346.97,42.77 347.06,42.94 347.04,43.15 347.11,43.42 347.77,44.49 
					348.19,44.89 348.87,45.91 348.89,46.09 348.9,46.21 348.98,46.39 349.24,46.69 349.48,47.16 349.53,47.26 350.04,47.71 
					350.15,48.19 350.32,48.33 351.03,48.89 351.049,48.89 351.53,49.15 351.74,49.33 351.919,49.43 352.37,49.45 352.61,49.39 
					352.7,49.37 353.23,49.14 353.37,49.02 353.57,49.06 353.82,48.94 353.98,49.02 354.379,49.06 354.47,49.21 354.65,49.35 
					354.7,49.45 354.35,50.04 354.35,50.2 354.43,50.39 354.4,50.52 354.32,50.39 354.23,50.38 354.19,50.42 354.19,50.77 
					354.23,51.01 354.35,51.2 354.57,51.37 355.1,51.62 355.29,51.68 355.4,51.66 355.57,51.88 355.82,51.97 355.99,52.08 
					356.57,52.2 357.32,52.37 357.589,52.51 357.959,52.52 358.129,52.58 358.24,52.79 358.57,52.89 358.709,53.04 359.36,53.14 
					359.68,53.31 359.7,53.45 359.69,53.58 359.6,54.01 359.37,54.41 359.32,54.87 359.32,55.09 359.32,55.33 359.39,55.63 
					359.68,56.31 359.93,56.53 360.12,56.59 360.49,56.58 360.52,56.66 360.31,56.83 360.07,56.92 359.99,57.07 359.54,58.72 
					359.68,59.54 359.69,59.71 359.39,60.04 359.36,60.49 359.39,61 359.45,61.39 359.49,61.48 359.65,61.81 360.49,62.74 360.7,63 
					361.15,63.37 361.18,63.41 361.28,63.52 361.43,63.7 361.879,64.06 361.93,64.08 362.32,64.27 362.36,64.35 362.36,64.41 
					362.36,64.42 362.36,64.48 362.36,64.5 362.299,64.48 362.23,64.52 361.93,64.52 361.57,64.51 361.459,64.58 361.15,65.04 
					361.18,65.29 361.06,65.44 360.589,66.1 360.61,66.33 360.43,66.41 360.23,66.39 360.049,66.46 359.9,66.46 359.74,66.55 
					359.18,67.69 359.12,68 359.14,68.31 359.24,68.53 359.27,68.59 359.2,68.7 359.14,69.41 359.04,69.68 358.82,70.03 
					358.69,70.36 358.29,70.58 357.799,70.9 357.44,71.14 356.99,71.52 356.81,71.66 356.7,71.96 356.69,72.58 356.74,72.81 
					356.69,73.04 356.74,73.48 356.65,74 356.419,74.31 355.97,74.71 355.85,74.91 355.74,75.19 355.37,75.52 355.28,75.67 
					355.28,75.85 355.36,75.95 355.37,75.99 355.48,76.18 355.459,76.33 355.37,76.39 355.03,76.41 354.64,76.52 354.49,76.66 
					354.24,76.85 354.07,77.1 353.87,77.16 353.6,77.42 352.99,77.86 353.03,77.96 353.24,78.13 353.299,78.28 353.299,78.41 
					353.24,78.33 353.12,78.25 353.03,78.27 353.06,78.37 352.99,78.37 352.9,78.39 352.79,78.4 352.73,78.4 352.69,78.46 
					352.61,78.56 352.61,78.6 352.549,78.76 352.53,78.87 352.49,78.97 352.459,79.14 352.52,79.39 352.52,79.6 352.11,80.16 
					351.99,80.44 351.85,80.59 351.709,80.6 351.49,80.62 351.45,80.62 351.379,80.62 351.28,80.64 351.03,80.64 350.86,80.59 
					350.4,80.8 350.36,80.8 350.24,80.83 349.99,81 349.85,81.31 349.7,81.45 349.6,81.47 349.52,81.74 349.36,82.02 348.959,82.41 
					348.86,82.69 348.87,83.38 348.82,83.5 348.65,83.64 348.03,83.98 347.9,83.98 347.9,83.89 347.82,83.83 347.66,83.86 
					347.2,84.06 347.14,83.95 346.66,83.98 346.4,84.13 346.39,84.13 345.709,84.4 345.54,84.46 344.9,84.92 344.78,85.2 
					344.06,86.09 343.95,86.26 343.93,86.29 343.879,86.37 343.82,86.45 343.62,86.71 343.36,86.89 343.22,86.91 343.01,86.66 
					342.86,86.66 342.74,86.75 342.68,87 342.56,86.93 342.47,87.07 342.53,87.14 342.64,87.14 342.73,87.08 342.82,87.01 
					342.919,86.92 342.99,86.93 343.03,86.98 342.98,87.24 342.86,87.35 342.47,87.52 342.32,87.58 342.19,87.54 342.1,87.49 
					341.79,87.41 341.66,87.29 341.53,87.31 341.39,87.41 341.16,87.46 341.11,87.52 341.12,87.87 341.03,88.08 340.99,88.2 
					340.9,88.25 340.61,88.33 340.49,88.33 340.32,88.33 340.19,88.39 339.85,88.72 339.64,88.87 339.49,88.91 339.4,88.72 
					339.31,88.69 339.11,88.62 338.69,89.35 338.61,89.32 338.53,89.47 338.2,89.42 337.61,89.73 337.4,89.77 337.04,90.08 
					336.87,90.28 336.589,90.82 336.4,91.04 336.19,91.58 335.99,92.06 335.57,92.68 335.45,92.81 335.44,93.04 335.32,93.54 
					335.24,93.68 334.9,93.67 334.82,93.76 334.82,93.89 334.99,94.09 335.04,94.36 335.04,94.45 335.12,94.93 335.06,95.14 
					335.03,95.24 335.02,95.47 335.12,95.64 335.18,95.93 335.2,96.43 335.299,96.91 335.24,97.09 335.24,97.34 335.48,97.9 
					335.49,98.26 335.45,98.31 335.28,98.31 335.209,98.33 335.07,98.39 334.64,98.41 334.64,98.49 334.73,98.54 335.49,98.38 
					335.629,98.6 335.77,98.73 335.9,99 336.11,99.73 336.29,100.03 336.86,100.96 337.19,101.32 337.459,101.83 338.27,102.68 
					338.4,102.87 338.79,103.39 338.81,103.51 338.77,103.63 338.79,103.69 338.86,103.63 338.95,103.62 339.02,103.75 
					339.169,103.79 339.32,103.91 339.64,104.27 339.799,104.39 340.11,104.56 340.28,104.71 340.45,104.8 340.48,104.86 
					340.39,105.08 340.64,105 340.879,105.06 340.95,105.14 340.99,105.35 341.23,105.64 341.2,105.73 341.419,105.74 341.6,105.88 
					342.11,106.29 342.43,106.63 343.64,107.41 344.49,107.81 344.54,107.89 344.65,107.87 344.839,107.84 344.99,107.92 
					345.709,108.06 345.85,108.12 345.86,108.12 345.89,108.14 345.98,108.19 346.03,108.33 345.74,108.37 345.709,108.5 
					345.57,108.66 345.45,108.7 345.26,108.66 345.12,108.81 345.14,108.95 345.2,108.94 345.26,108.81 345.47,108.81 
					345.709,108.67 345.85,108.45 345.99,108.43 346.07,108.48 346.1,108.66 346.22,108.73 346.45,108.61 347.04,108.29 
					347.54,108.28 347.99,108.17 347.98,108.31 347.93,108.62 347.99,108.68 348.28,108.73 348.31,108.83 348.62,108.66 
					348.589,108.59 348.35,108.62 348.169,108.59 348.049,108.49 348.049,108.45 348.049,108.34 348.1,108.26 348.12,108.19 
					348.28,108.08 348.7,107.96 349.15,107.73 349.27,107.73 349.879,107.53 350.12,107.41 350.24,107.26 350.7,106.93 
					350.79,106.89 351.07,106.75 351.32,106.62 351.64,106.57 351.82,106.64 352.1,106.83 352.29,107.08 352.339,107.23 
					352.32,107.42 352.15,108.2 351.98,108.54 352.04,108.91 352.06,109.09 352.07,109.24 352.03,109.51 351.9,109.72 
					351.799,110.08 351.7,110.26 351.44,110.38 351.24,110.58 350.99,110.7 350.89,110.8 350.82,111.02 350.839,111.07 
					350.86,111.26 350.9,111.43 350.99,111.56 351.1,111.73 351.12,111.79 351.209,111.94 351.26,112.1 351.2,112.36 351.24,112.52 
					351.54,112.7 351.98,112.78 352.2,112.85 352.49,113.11 352.6,113.12 352.82,113.11 353.209,113.09 353.459,112.95 
					353.99,112.66 354.16,112.66 354.4,112.46 354.589,112.42 354.64,112.39 354.89,112.16 355.52,112.01 355.74,111.88 
					355.99,111.83 356.629,111.64 356.79,111.55 357.19,110.95 357.24,110.71 357.209,110.49 357.2,110.45 357.07,110.2 
					356.9,110.04 356.86,109.85 356.6,109.63 356.4,109.62 356.37,109.52 356.419,109.29 356.61,109.12 357.07,108.94 357.2,108.85 
					357.31,108.77 357.4,108.77 357.43,108.77 357.85,108.92 358.27,108.91 358.339,108.82 358.24,108.66 358.24,108.54 
					358.36,108.52 358.48,108.67 358.85,108.67 359.4,109.03 359.74,109.03 360.1,109.31 360.26,109.54 360.57,109.84 
					360.74,110.08 361.07,110.49 361.29,110.98 361.48,111.49 361.52,112.64 361.27,112.96 361.16,113.31 360.95,114.02 
					360.89,114.2 360.9,114.25 360.95,114.41 361.15,114.67 361.22,115.14 361.45,115.54 361.549,115.85 361.549,116.08 
					361.459,116.2 361.4,116.45 361.53,116.41 361.549,116.39 361.82,116.16 362.089,116.2 362.49,116.54 362.68,116.83 
					362.78,117.1 362.81,117.19 362.99,117.29 363.47,117.55 363.77,117.66 364.01,117.73 364.15,117.85 364.459,117.94 
					364.82,118.18 365.36,118.41 365.629,118.6 365.68,118.69 365.61,118.76 365.45,118.76 365.209,118.64 364.24,118.16 
					363.66,118.04 363.49,117.94 362.98,117.77 362.53,117.55 362.2,117.54 361.99,117.67 361.879,117.62 361.73,117.79 
					361.709,118.01 361.62,118.15 361.61,118.33 361.66,118.5 361.87,118.7 362.11,119.08 362.27,119.14 362.49,119.35 
					362.54,119.54 362.7,119.81 362.72,120.08 362.72,120.2 362.93,120.61 363.1,120.74 363.26,120.76 363.4,120.66 363.56,120.7 
					363.85,120.68 363.9,120.68 364.24,120.76 365.16,120.77 365.78,121 365.82,121 367.28,121.36 367.49,121.36 367.6,121.41 
					367.85,121.42 367.95,121.36 368.06,121.24 368.2,121.23 368.44,121.41 368.68,121.5 369.209,121.48 369.32,121.34 
					369.32,121.21 369.32,121.15 369.37,121.08 368.9,120.79 368.74,120.68 368.39,120.5 367.11,119.45 366.9,119.27 366.52,119.11 
					366.49,119.05 366.61,119.04 366.799,119.08 367.32,119.44 368.44,120.35 368.77,120.58 368.81,120.59 370.669,121.57 
					371.11,121.7 371.6,121.79 371.98,121.79 372.14,121.76 				"/>
				<polyline fill="none" stroke="#666666" stroke-width="0.25" stroke-linejoin="round" stroke-miterlimit="3.8637" points="
					301.53,16.83 302.36,16.43 302.99,16.24 303.07,16.09 303.169,16.09 303.23,16.24 303.53,16.22 303.709,16.16 303.82,16.08 
					303.919,16.09 304.1,16.25 304.27,16.2 304.39,16.3 304.57,16.57 304.97,16.48 305.54,16.25 305.959,15.97 306.209,15.82 
					306.73,15.55 307.43,15 307.62,14.81 308.23,14.26 308.69,13.83 308.95,13.58 309.37,13.1 309.4,12.89 309.74,12.4 
					309.74,12.35 309.62,12.37 309.62,12.27 309.959,12.1 310.16,12.01 310.29,11.83 310.57,11.65 310.78,11.44 310.95,11.37 
					311.03,11.24 311.37,11.05 311.69,10.97 312.11,10.78 312.12,10.78 312.43,10.77 313.11,10.63 313.22,10.54 313.36,10.43 
					313.82,10.18 314.02,10.04 314.14,9.82 314.4,9.56 314.68,9.08 314.89,8.86 315.23,8.72 315.32,8.6 315.45,8.59 315.65,9.13 
					315.73,9.17 315.919,9.17 316.4,9.19 316.52,9.1 316.82,9.08 317.32,8.83 317.459,8.86 318.12,8.85 318.43,8.77 318.56,8.7 
					319.43,8.23 319.57,8.12 319.669,7.96 319.94,7.91 320.12,7.84 320.209,7.79 320.68,7.81 321.12,7.97 321.49,7.95 321.98,7.75 
					323.209,6.95 323.49,6.82 323.65,6.82 323.74,6.85 323.99,7.12 324.19,7.14 324.29,7.06 324.7,6.94 325.01,6.79 325.49,6.46 
					325.99,6 326.209,6 326.37,5.89 326.45,5.89 326.53,5.98 326.7,6 326.86,5.91 327.02,5.98 327.4,6.01 327.77,5.87 328.129,5.68 
					328.28,5.7 328.43,5.65 328.52,5.92 328.69,6.07 328.9,6.16 329.11,6.2 329.48,6.2 329.78,6.1 330.07,6.01 330.379,6.01 
					330.62,6.07 331.06,6.06 331.19,6.88 331.31,7.09 331.28,7.29 331.39,7.42 331.37,7.54 331.37,7.75 331.36,7.75 331.27,7.83 
					331.24,7.85 331.11,7.95 331.1,7.96 330.86,7.95 330.74,8 330.89,8.14 330.53,8.27 330.4,8.39 330.28,8.37 330.19,8.37 
					330.12,8.45 329.959,8.53 329.959,8.64 329.79,8.54 329.65,8.54 329.32,8.66 329.11,8.65 328.99,8.64 329.02,8.72 329.04,8.93 
					328.99,9.1 328.95,9.12 328.78,8.98 328.76,8.98 328.61,9.13 328.69,9.25 328.7,9.25 328.76,9.25 328.879,9.34 328.99,9.6 
					329.11,9.52 329.23,9.54 329.23,9.62 329.089,10.08 329.11,10.24 329.18,10.36 329.57,10.48 329.6,10.58 329.77,10.66 
					329.69,11 329.72,11.17 329.81,11.27 330.14,11.38 330.45,11.42 330.74,11.41 330.9,11.47 331.15,11.5 331.24,11.45 
					331.459,11.23 331.73,11 331.99,10.96 332.24,10.74 332.56,10.24 332.7,9.91 332.74,9.64 332.72,9.4 332.61,9.12 332.48,9.04 
					331.9,9.02 331.57,8.98 331.1,8.81 330.94,8.85 330.73,8.96 330.54,9.01 330.28,9.01 330.209,9 330.11,8.95 330.12,8.86 
					330.4,8.77 330.49,8.54 330.53,8.5 330.89,8.41 331.07,8.27 331.22,8.05 331.32,7.93 331.43,7.83 331.49,7.78 331.69,7.83 
					331.74,7.91 331.99,8.06 332.24,8.16 332.93,8.31 333.03,8.32 333.589,8.37 334.32,8.38 334.39,8.38 334.49,8.37 334.81,8.32 
					335.2,8.05 335.69,7.93 335.81,7.83 335.93,7.85 336.03,8.1 336.35,8.41 336.54,8.62 337.15,8.62 337.82,8.85 338.56,9.31 
					338.99,9.46 339.14,9.6 339.28,9.64 339.43,9.77 339.4,9.95 339.47,10 339.49,10.02 339.799,10.12 340.19,10.16 340.669,10.18 
					341.06,10.14 341.12,10.21 341.089,10.31 340.95,10.37 340.69,10.37 340.57,10.43 340.339,10.63 340.27,10.77 339.47,11.2 
					339.379,11.18 339.37,11.1 339.44,11.04 339.62,11 339.709,10.9 339.73,10.67 339.68,10.62 339.56,10.54 338.06,10.63 
					337.85,10.78 337.7,11.12 337.52,11.26 337.57,11.27 337.82,11.59 338.02,11.68 338.51,11.71 338.68,11.47 338.78,11.5 
					338.839,11.6 338.74,11.8 338.95,11.87 339.02,11.98 339.03,11.98 				"/>
				<polyline fill="none" stroke="#666666" stroke-width="0.25" stroke-linejoin="round" stroke-miterlimit="3.8637" points="
					324.07,203.09 323.89,202.41 323.86,202.25 323.79,202.04 323.03,198.68 323.03,198.64 322.57,196.48 322.4,196.08 319.9,185 
					319.39,182.81 319.32,182.71 318.85,180.68 318.86,180.58 317.6,175.29 316.459,170.44 316.43,170.04 314.93,163.98 
					314.74,163.23 314.74,163.09 314.53,162.17 314.36,161.21 314.35,161.17 313.78,159.08 313.57,157.89 313.52,157.76 
					313.48,157.66 313.29,154.23 312.1,151.91 311.9,151.54 294.56,139.9 294.49,139.48 294.021,136.42 293.899,135.59 
					293.899,132.92 293.899,131.75 293.78,131.54 288.87,123.81 288.799,123.68 287.299,123.71 283.521,121.56 281.51,121.64 
					279.74,119.51 279.7,119.47 279.819,114.61 279.819,114.56 278.681,112.87 277.87,111.68 276.86,109.84 276.379,108.97 
					276.45,107.62 276.399,107.27 276.101,106.95 275.899,106.6 275.819,106.41 275.771,105.95 275.899,105.48 275.899,105.33 
					275.459,104.92 274.97,104.6 274.74,104.42 274.74,104.37 274.709,104.06 274.74,103.95 274.899,103.7 274.99,103.37 
					275.021,103 274.97,102.62 274.53,101.38 274.601,101.12 274.899,100.34 274.931,100.29 274.931,99.87 274.819,99.35 
					275.149,98.44 275.16,98.18 274.899,97.41 275.04,97.09 275.08,97 275.11,96.99 275.229,96.87 275.49,96.59 275.95,96.48 
					276.319,96.08 276.62,95.64 276.64,95.49 276.74,94.36 276.78,94.21 276.94,93.79 277.24,93.22 278.99,92.93 279.379,92.91 
					279.74,92.89 280.399,92.83 281.149,92.79 281.319,92.71 281.28,92.41 281.319,92.09 281.271,91.98 281.81,90.91 281.819,90.85 
					281.959,90.26 282.101,89.71 282.229,89.32 282.379,88.27 282.351,87.4 282.351,87.35 282.58,87.29 283.149,87.25 284.06,87.06 
					284.08,87.02 284.149,86.95 284.74,86.38 284.99,86.18 285.26,86.05 285.569,85.99 285.7,85.96 285.979,85.95 286.69,85.27 
					286.851,85.12 286.899,85.06 287.56,84.83 287.649,84.83 287.74,84.58 287.899,84.35 288.14,84.35 288.521,84.43 288.54,84.43 
					288.649,84.43 288.7,84.45 288.78,84.22 288.799,84.2 289.03,83.87 289.7,83.65 289.819,83.41 289.95,83.38 290.181,82.74 
					290.37,82.66 290.44,82.69 290.51,82.67 290.99,82.64 291.049,82.62 291.16,82.56 291.209,82.31 291.14,82.12 291.2,81.91 
					291.58,81.7 292.069,81.64 292.2,81.37 292.04,80.96 292.37,80.66 292.39,80.39 292.19,80.06 291.959,79.69 292.101,79.25 
					292.7,78.56 293.14,78.37 293.569,78.46 293.601,78.22 293.569,78.22 293.569,78.2 293.181,77.75 293.03,77.6 292.899,77.29 
					293.069,77.06 293.069,77.05 293.06,77.04 292.95,76.85 292.94,76.78 292.899,76.57 292.899,76.56 292.94,76.21 292.94,76.2 
					292.879,75.85 292.931,75.71 292.79,75.31 292.78,75.06 292.66,74.86 292.601,74.59 292.569,74.5 292.569,74.49 292.569,74.39 
					292.53,74.35 292.459,74.24 292.36,74.08 292.879,72.64 293.24,72.22 293.459,71.87 293.53,71.7 293.56,71.56 293.66,71.21 
					293.681,70.9 293.681,70.78 293.74,70.24 293.899,69.95 294.069,69.62 294.49,68.37 294.61,68.2 295.069,67.91 295.479,67.51 
					295.74,67 295.99,66.68 296.149,66.08 296.229,65.87 296.44,65.47 296.49,65.37 296.74,64.93 297.45,64.18 297.44,64.06 
					297.399,64.04 296.69,64.2 296.299,64.21 295.87,64.04 295.66,63.92 295.45,63.81 294.959,63.46 293.99,63 293.931,62.86 
					293.83,62.81 293.819,62.66 293.72,61.96 293.7,61.39 293.7,60.89 293.78,59.85 293.86,59.42 294.319,58.25 294.61,58.12 
					294.66,58.1 295.33,57.76 295.271,57.37 295.069,57.12 294.94,57.06 294.819,56.64 294.74,55.77 294.74,55.66 294.74,55.56 
					294.74,55.42 294.649,54.92 294.521,53.85 294.569,53.59 294.64,53.41 294.709,52.83 294.61,52.43 294.54,52.31 294.45,52.18 
					294.26,52.03 293.37,51.49 292.549,50.54 292.29,50.05 292.19,49.72 292.2,49.52 292.36,49.21 292.45,48.91 292.49,48.71 
					292.601,48.19 292.61,47.52 292.45,46.9 292.479,46.69 292.49,46.51 292.49,46.48 292.569,46.31 292.601,46.27 292.819,45.77 
					293.03,45.24 293.04,45.19 293.04,45.17 293.06,45.16 293.271,44.83 293.28,44.8 293.28,44.79 293.271,44.75 293.08,44.33 
					293.08,44.27 293.08,44.18 293.08,44.1 293.14,43.41 293.229,42.97 293.24,42.82 293.2,42.29 293.299,42.02 293.629,41.41 
					293.69,41.31 293.86,40.67 294.31,40.25 294.399,40.29 294.49,40.31 294.44,40.21 294.24,39.92 294.229,39.88 294.24,39.4 
					294.209,39.25 294.11,39.16 293.899,39.04 293.54,38.6 293.54,38.54 293.53,38.47 293.51,38.44 293.54,38.32 293.899,37.91 
					294.069,37.7 294.2,37.39 294.37,37.15 294.431,37.06 294.45,36.99 294.49,36.91 294.49,36.88 294.49,36.2 294.351,35.45 
					294.74,35.05 295.01,34.87 295.33,34.77 295.431,34.62 295.431,34.54 295.31,34.42 295.101,34.12 295.069,34.09 295.069,33.61 
					295.271,33.25 295.29,33.19 295.49,33.02 295.479,32.77 295.271,32.27 295.74,31.84 295.79,31.72 295.87,31.6 295.87,31.57 
					295.899,31.33 295.19,31.25 295.04,31.2 295.03,31.15 294.95,31.09 294.681,30.89 294.431,30.85 294.03,31.06 293.7,31.1 
					293.69,31.06 293.569,31.06 293.419,30.88 293.229,30.74 293.069,30.71 292.99,30.7 292.53,30.83 292.36,30.83 292.03,30.74 
					291.069,30.61 290.89,30.55 290.899,30.52 290.681,30.29 290.37,30.22 290.14,30.12 289.87,29.64 289.851,29.62 289.851,29.58 
					289.76,29.26 289.819,29.14 290.14,29.06 290.209,28.93 290.36,28.81 290.649,28.85 290.771,28.87 290.959,28.83 291.58,28.6 
					292.33,28.16 292.78,28.15 292.81,28.15 292.851,28.14 293.319,27.97 293.569,27.81 293.79,27.55 293.819,27.43 294.819,26.66 
					295.24,26.59 295.399,26.5 295.601,26.32 295.66,26.17 295.7,26.05 295.819,25.9 296.06,25.83 296.69,25.89 296.959,25.66 
					297.14,25.14 297.16,24.89 297.069,24.76 297.26,24.52 297.54,24.45 297.681,23.98 297.681,23.95 297.709,23.75 297.61,23.37 
					297.29,22.79 297.29,22.77 297.26,22.57 297.29,22.45 297.24,22.39 297.12,22.3 296.99,22.3 296.899,22.37 296.66,22.39 
					296.569,22.35 296.49,22.1 296.681,21.92 297.31,21.71 297.319,21.68 297.569,21.56 297.86,21.58 298.19,21.54 298.569,21.34 
					298.69,21.34 298.7,21.34 298.82,21.47 298.9,21.49 299.06,21.43 299.39,21.4 299.65,21.47 299.66,21.47 300.02,21.45 
					300.29,21.01 300.49,20.93 300.65,20.93 300.98,20.93 301.24,20.71 301.33,20.64 301.669,20.53 302.24,20.21 302.35,20.05 
					302.35,19.84 302.27,19.69 302.07,19.52 301.85,19.45 301.4,19.31 301.18,19.36 301.11,19.3 301.11,19.25 301.11,19.03 
					301.24,18.61 301.27,18.04 301.31,17.65 301.4,17.54 301.66,17.45 301.81,17.5 301.66,17.29 301.549,17.02 301.52,16.83 				"/>
				<polyline fill="none" stroke="#666666" stroke-width="0.25" stroke-linejoin="round" stroke-miterlimit="3.8637" points="
					321.02,209.16 320.98,209.09 320.69,208.74 320.32,208.3 320.27,208.24 320.2,207.58 320.03,207.02 320.04,206.66 
					319.87,206.08 319.9,205.95 319.82,205.54 319.74,205.16 319.709,205.01 319.82,204.83 319.85,204.81 319.99,204.68 
					320.04,204.62 320.24,204.54 320.27,204.54 320.629,204.52 321.19,204.43 321.37,204.35 321.65,204.06 322.01,203.84 
					322.4,203.71 322.53,203.6 322.7,203.54 322.81,203.56 322.94,203.5 322.97,203.49 323.27,203.37 323.27,203.35 323.35,203.26 
					323.4,203.24 324.07,203.09 				"/>
				<polyline fill="none" stroke="#666666" stroke-width="0.25" stroke-linejoin="round" stroke-miterlimit="3.8637" points="
					372.14,121.76 371.99,122.12 372.03,122.35 372.03,122.37 371.99,122.53 371.78,123.26 371.459,123.82 371.32,124.06 
					371.24,124.33 371.24,124.39 371.18,124.95 371.16,125.06 371.12,126.07 371.06,126.28 371.23,126.4 371.27,126.74 
					370.95,127.09 370.82,127.6 370.64,128.33 370.62,128.38 370.28,129.43 370.459,129.85 370.73,130.81 370.57,131.29 
					370.49,131.68 370.45,131.86 370.28,132.91 370.28,132.95 370.36,133.27 370.36,133.29 370.49,133.87 370.52,134.26 
					370.4,135.13 370.28,135.68 370.31,136 370.32,136.04 370.4,136.36 370.74,137.18 371.03,137.47 371.299,137.58 371.56,137.81 
					371.77,138.07 371.82,138.16 372.11,138.54 372.4,138.77 372.709,139.23 372.919,139.69 372.23,141.04 371.99,141.48 
					371.28,142.89 371.209,143.04 371.15,143.08 370.16,143.79 369.74,144.08 369.66,144.2 369.32,144.34 368.74,144.4 
					367.95,144.94 367.32,145.27 367.06,145.37 366.57,145.46 366.07,145.66 363.65,146.45 363.4,146.54 362.99,146.71 
					362.18,147.06 361.82,147.33 360.919,147.62 360.62,147.87 360.43,147.87 360.28,147.88 359.839,148.14 359.68,148.33 
					359.299,148.62 358.87,148.78 358.37,148.89 358.04,149.04 357.32,149.51 357.26,149.58 356.78,149.89 356.4,150.25 
					355.879,150.58 355.74,150.67 355.04,151.16 354.959,151.51 354.94,151.7 354.86,151.93 354.54,152.5 353.51,154.23 
					352.87,154.34 352.45,154.52 352.24,154.69 351.959,154.79 351.66,154.84 351.37,154.74 351.209,154.69 350.98,154.67 
					350.74,154.64 350.51,154.57 350.299,154.64 350.12,154.87 349.82,154.99 349.76,155.11 349.79,155.74 349.709,155.92 
					349.49,156.12 349.4,156.29 349.43,156.48 349.53,156.64 349.87,157.18 349.879,157.45 349.709,157.79 349.669,157.98 
					349.19,158.44 348.709,158.83 348.61,158.87 348.379,159.12 348.209,159.39 348.169,159.46 348.07,159.91 347.89,160.52 
					347.65,160.84 347.54,160.89 347.4,161.05 347.12,161.24 347.11,161.24 347.02,161.27 346.2,161.56 345.919,161.64 
					345.4,161.77 344.98,161.8 344.839,161.75 343.82,161.44 343.62,161.44 343.36,161.5 343.129,161.6 343.1,161.62 342.57,161.95 
					342.11,162.25 341.89,162.4 341.36,162.83 341.299,162.99 341.2,163.1 341.16,163.18 341.06,163.46 340.459,164.35 
					340.45,164.45 340.39,164.56 340.129,165.01 339.73,165.56 339.68,165.7 339.53,165.91 339.4,166.09 339.2,166.29 
					339.169,166.45 338.89,166.81 338.78,166.83 338.45,167.29 338.4,167.41 338.39,167.45 338.04,167.92 337.99,167.93 
					337.94,167.98 337.87,168.08 337.709,168.29 337.66,168.46 337.64,168.5 337.64,168.88 337.64,169.15 337.81,169.51 
					337.81,169.52 337.87,169.83 337.82,170.26 337.87,170.6 337.879,170.7 338.03,171.2 338.12,171.28 338.45,172.1 339.02,173.54 
					339.07,173.71 339.12,173.86 339.35,174.5 339.43,174.61 339.56,175.14 339.64,175.23 339.799,175.67 339.919,176 
					340.18,176.49 340.27,176.83 340.339,177.13 340.66,178.3 340.87,178.64 341.2,179.32 341.27,179.71 341.11,180.26 
					341.06,180.41 340.97,180.73 340.97,181.25 341.07,181.81 341.14,181.89 341.24,182.33 341.27,182.96 341.299,183.07 
					341.36,183.31 341.48,183.85 341.49,183.97 341.74,184.52 341.72,184.67 341.45,184.95 341.45,185 341.419,185.14 
					341.419,185.16 341.48,185.37 341.24,186.01 341.18,186.4 341.03,186.87 340.93,187.08 340.73,187.43 340.28,188.32 
					340.11,188.68 339.98,188.96 339.78,189.45 339.47,189.97 339.26,190.14 339.12,190.24 339.02,190.27 338.7,190.51 
					338.54,190.7 337.99,191.71 337.1,192.83 337.07,192.85 336.919,193.18 336.74,193.5 336.28,194.05 336.169,194.21 
					335.66,194.66 334.94,195.56 334.81,195.73 334.49,196.57 334.32,196.84 333.77,197.73 333.66,197.83 333.61,197.89 
					333.4,198.01 333.19,198.54 333.049,198.85 332.32,199.36 331.64,200.08 331.48,200.12 331.19,200.11 330.35,200.2 
					330.23,200.21 330.11,200.21 329.86,200.31 329.45,200.49 329.32,200.6 328.879,200.8 328.15,201 327.45,201.46 327.24,201.66 
					327.23,201.66 326.49,201.94 325.85,202.3 325.06,202.83 324.45,203.05 324.07,203.09 				"/>
				<polyline fill="none" stroke="#666666" stroke-width="0.25" stroke-linejoin="round" stroke-miterlimit="3.8637" points="
					339.03,11.98 339.049,11.98 339.209,11.96 339.29,11.95 339.37,11.89 339.44,11.79 				"/>
				<polyline fill="none" stroke="#666666" stroke-width="0.25" stroke-linejoin="round" stroke-miterlimit="3.8637" points="
					323.53,20.11 323.57,20.02 323.9,19.84 323.99,19.77 324.23,19.57 324.31,19.46 324.49,19.27 324.64,19.18 324.95,19.15 
					325.16,19.18 325.48,19.14 325.69,19.03 325.78,18.89 325.99,18.7 326.35,18.5 326.78,18.41 327.73,18.28 328.04,18.17 
					328.16,18.08 328.27,17.98 328.66,17.27 328.82,17.05 329.14,16.79 329.459,16.62 329.89,16.52 330.02,16.54 330.209,16.51 
					330.82,16.54 331.16,16.6 331.49,16.69 332.37,17.12 332.839,17.27 333.32,17.38 333.62,17.39 333.73,17.38 333.89,17.26 
					333.99,17.17 334.11,16.99 334.31,16.52 334.339,16.42 334.52,16.12 334.73,15.73 334.9,15.52 334.99,15.35 335.11,15.2 
					335.56,14.38 335.78,13.87 335.81,13.78 336.1,13.03 336.32,12.99 336.4,12.67 336.49,12.55 336.589,12.46 336.709,12.39 
					336.99,12.28 337.53,12.22 338.32,12.25 338.86,12.17 338.9,11.98 339.02,11.98 				"/>
				<polyline fill="none" stroke="#666666" stroke-width="0.25" stroke-linejoin="round" stroke-miterlimit="3.8637" points="
					312.11,10.78 312.16,11.24 312.14,11.44 312.2,11.95 312.12,12.28 311.99,12.56 311.95,12.99 311.99,13.46 312.07,13.77 
					312.14,13.89 312.37,13.99 312.589,14 313.01,14.02 313.87,13.96 314.07,13.97 314.299,14.02 314.49,14.14 314.61,14.24 
					314.74,14.44 314.95,14.87 315.31,16.02 315.47,16.36 315.74,16.7 315.87,17 315.959,17.49 316.07,17.68 316.9,18.4 
					317.11,18.61 317.56,18.85 317.93,18.92 318.43,19.09 318.64,19.2 318.74,19.27 318.87,19.31 319.07,19.51 319.1,19.84 
					319.07,20.06 319.01,20.39 318.86,20.77 318.82,20.91 318.74,21.01 318.74,21.12 318.62,21.35 318.54,21.66 318.53,21.77 
					318.56,22 318.62,22.14 318.73,22.35 318.94,22.56 319.27,22.81 319.6,22.97 319.9,23.02 320.14,22.99 320.24,22.93 
					320.69,22.57 320.74,22.48 321.57,21.62 321.7,21.54 321.87,21.34 322.11,21.16 322.29,20.93 322.69,20.58 322.93,20.39 
					323.02,20.31 323.27,20.17 323.53,20.11 				"/>
				<polyline fill="none" stroke="#666666" stroke-width="0.25" stroke-linejoin="round" stroke-miterlimit="3.8637" points="
					342.49,18.4 341.86,18.58 341.629,18.67 340.64,18.87 340.53,18.87 340.31,18.94 340.19,18.95 339.9,19.03 339.66,19.15 
					339.54,19.16 339.16,19.36 339.02,19.39 338.72,19.56 338.36,19.78 337.76,20.02 337.52,20.14 336.77,20.68 336.66,20.71 
					336.53,20.8 336.4,20.85 336.16,20.98 336.02,21 335.56,21.14 335.44,21.14 335.24,21.24 335.15,21.22 334.66,21.35 
					334.52,21.4 334.4,21.47 334.32,21.58 334.24,21.68 334.22,21.81 334.32,21.94 334.4,22 334.73,22.18 334.76,22.39 
					334.74,22.48 334.82,22.69 335.06,22.87 335.37,23.04 335.6,23.24 335.68,23.33 335.72,23.44 335.74,23.56 335.74,23.68 
					335.65,23.98 				"/>
				<polyline fill="none" stroke="#666666" stroke-width="0.25" stroke-linejoin="round" stroke-miterlimit="3.8637" points="
					341.209,21.01 341.02,20.72 340.82,20.66 340.709,20.72 340.62,20.86 340.6,21 340.6,21.17 340.49,21.28 340.49,21.47 
					340.19,22.33 340.16,22.45 340.1,22.54 339.86,22.62 339.62,22.89 339.52,23.08 339.43,23.17 339.31,23.24 339.169,23.26 
					339.03,23.24 338.9,23.24 338.6,23.32 338.39,23.31 338.28,23.29 338.04,23.2 337.85,23.17 337.74,23.23 337.669,23.32 
					337.57,23.54 337.36,23.86 337.24,23.95 337.04,24.02 336.919,24.02 336.49,24.1 336.16,24.1 335.9,24.06 335.65,23.98 				"/>
				<polyline fill="none" stroke="#666666" stroke-width="0.25" stroke-linejoin="round" stroke-miterlimit="3.8637" points="
					335.65,23.98 335.459,24.27 335.15,24.58 334.32,25.25 334.24,25.33 334.01,25.42 333.64,25.48 				"/>
				<polyline fill="none" stroke="#666666" stroke-width="0.25" stroke-linejoin="round" stroke-miterlimit="3.8637" points="
					330.85,27.29 331.37,27.24 331.48,27.22 331.7,27.08 331.78,26.96 332.04,26.32 332.32,25.77 332.45,25.48 332.57,25.29 
					332.66,25.2 332.78,25.12 333.07,25.03 333.28,25.04 333.379,25.09 333.49,25.2 333.64,25.48 				"/>
				<polyline fill="none" stroke="#666666" stroke-width="0.25" stroke-linejoin="round" stroke-miterlimit="3.8637" points="
					323.53,20.11 323.99,20.54 324.2,20.77 324.62,21.16 324.959,21.52 325.43,21.92 325.549,21.99 326.11,22.42 326.459,22.6 
					327.73,22.99 327.94,23 328.15,22.96 328.36,22.96 328.459,22.99 328.549,23.08 328.64,23.29 328.64,23.38 328.79,23.83 
					328.99,24.2 329.06,24.31 329.18,24.54 329.629,25.46 330.47,26.59 330.77,27.07 330.85,27.29 				"/>
				<polyline fill="none" stroke="#666666" stroke-width="0.25" stroke-linejoin="round" stroke-miterlimit="3.8637" points="
					344.32,23.11 344.209,23.37 344.18,23.75 344.14,24 343.93,24.55 343.74,24.91 343.24,25.79 343.16,25.9 342.919,26.27 
					342.7,26.72 342.74,26.83 343.36,27.31 343.27,27.55 343.06,27.94 342.98,28.16 342.98,28.29 342.709,29.16 342.56,30.06 				
					"/>
				<polyline fill="none" stroke="#666666" stroke-width="0.25" stroke-linejoin="round" stroke-miterlimit="3.8637" points="
					307.62,14.81 308.04,15.07 308.39,15.39 308.459,15.47 308.79,15.74 308.9,15.95 308.9,16.04 308.9,16.14 308.78,16.22 
					308.28,16.37 308.07,16.42 307.97,16.48 307.9,16.57 307.95,16.78 308.44,17.31 308.66,17.5 308.99,17.87 309.32,18.33 
					309.43,18.4 309.56,18.62 309.66,18.83 309.66,18.94 309.64,19.04 309.56,19.16 309.24,19.45 309.1,19.51 308.45,20.04 
					308.32,20.32 308.299,20.53 308.32,20.74 308.24,20.96 308.16,21.06 307.99,21.39 308.18,21.58 308.44,21.76 308.78,21.83 
					308.99,21.85 309.23,21.89 309.54,21.91 309.85,21.97 309.95,21.97 310.66,22.41 310.74,22.51 310.66,23.47 310.549,24.1 
					310.549,24.39 310.6,24.79 310.669,24.89 310.99,25.24 311.04,25.33 311.51,26.21 311.68,26.6 311.79,26.95 312.03,27.87 
					312.03,27.99 311.87,28.18 311.77,28.27 311.459,28.58 311.32,28.78 311.23,28.97 311.18,29.52 311.18,29.95 311.14,30.24 
					311.04,30.35 310.53,30.6 310.45,30.66 				"/>
				<polyline fill="none" stroke="#666666" stroke-width="0.25" stroke-linejoin="round" stroke-miterlimit="3.8637" points="
					330.85,27.29 330.74,27.37 330.65,27.43 330.54,27.54 329.89,27.94 329.48,28.25 329.18,28.54 328.95,28.85 328.87,29.06 
					328.82,29.17 328.76,29.35 328.69,29.45 328.57,29.58 328.459,29.68 328.2,29.96 328.06,30.25 327.89,30.74 327.82,30.83 				
					"/>
				<polyline fill="none" stroke="#666666" stroke-width="0.25" stroke-linejoin="round" stroke-miterlimit="3.8637" points="
					333.64,25.48 333.82,25.87 333.87,26 334.129,26.41 334.32,26.6 334.57,26.79 334.81,26.83 335.02,26.79 335.24,26.66 
					335.48,26.62 335.629,26.65 336.2,26.87 336.709,27.14 337.43,27.43 337.66,27.85 337.74,27.95 337.78,28.06 338.02,28.42 
					338.2,28.64 338.54,28.9 339.45,29.45 340.04,29.74 340.1,29.86 340.04,30.12 339.99,30.19 339.959,30.49 339.98,30.61 
					340.27,30.85 340.339,30.95 340.57,30.82 340.66,30.73 340.87,30.6 341.56,30.24 341.9,30.13 342.11,30.1 342.45,30.1 
					342.56,30.06 				"/>
				<polyline fill="none" stroke="#666666" stroke-width="0.25" stroke-linejoin="round" stroke-miterlimit="3.8637" points="
					308.16,30.97 308.28,30.94 308.49,30.85 308.839,30.68 309.32,30.52 309.56,30.54 309.7,30.5 309.9,30.52 310.04,30.54 
					310.45,30.66 				"/>
				<polyline fill="none" stroke="#666666" stroke-width="0.25" stroke-linejoin="round" stroke-miterlimit="3.8637" points="
					342.56,30.06 342.52,30.58 342.47,30.92 342.43,31.7 342.45,32.17 342.49,32.38 342.52,32.49 342.709,32.81 342.919,32.96 
					343.15,33 				"/>
				<polyline fill="none" stroke="#666666" stroke-width="0.25" stroke-linejoin="round" stroke-miterlimit="3.8637" points="
					343.15,33 343.459,32.93 343.66,32.86 344.89,32.66 345.1,32.83 345.4,33.14 345.52,33.19 345.61,33.19 345.73,33.12 
					346.06,32.75 346.16,32.7 346.48,32.68 346.69,32.72 346.85,32.89 347.12,33.39 				"/>
				<polyline fill="none" stroke="#666666" stroke-width="0.25" stroke-linejoin="round" stroke-miterlimit="3.8637" points="
					295.271,33.25 295.569,33.29 295.79,33.37 295.99,33.4 296.24,33.39 296.36,33.4 296.74,33.37 296.99,33.29 297.47,33.1 
					298.181,32.71 298.76,32.42 299.02,32.27 299.37,32.1 299.61,32 299.959,31.91 300.19,31.89 300.43,31.91 301.99,31.87 
					302.32,31.9 302.82,31.87 303.73,31.87 304.49,31.84 305.15,31.79 305.66,31.7 305.77,31.7 306.77,31.43 307.7,31.15 
					308.16,30.97 				"/>
				<polyline fill="none" stroke="#666666" stroke-width="0.25" stroke-linejoin="round" stroke-miterlimit="3.8637" points="
					310.45,30.66 310.64,30.74 311.06,31.1 312.24,32.29 312.56,32.59 312.77,32.75 312.99,32.79 313.24,32.74 313.61,32.6 
					313.99,32.42 314.11,32.41 314.44,32.31 314.87,32.18 315.07,32.14 315.44,32.17 315.85,32.39 316.48,32.85 316.79,33.01 
					317.12,33.24 317.45,33.39 317.68,33.43 317.78,33.35 317.86,33.25 318.44,32.2 318.82,31.62 319.18,31.15 319.39,31 
					319.87,30.81 320.32,30.73 320.95,30.68 321.07,30.68 321.4,30.66 321.74,30.67 322.16,30.76 322.57,30.95 322.69,31.04 
					322.78,31.08 323.02,31.29 323.28,31.62 323.54,31.83 323.74,31.9 324.169,31.85 324.4,31.78 325.01,31.42 325.43,31.24 
					325.82,31.09 326.36,30.92 327.14,30.81 327.49,30.79 327.82,30.83 				"/>
				<polyline fill="none" stroke="#666666" stroke-width="0.25" stroke-linejoin="round" stroke-miterlimit="3.8637" points="
					343.15,33 343.18,33.04 343.18,33.22 343.2,33.62 343.19,34.87 343.15,34.97 343.07,35.06 342.54,35.37 342.49,35.45 
					342.53,35.56 342.62,35.64 342.89,35.85 342.98,35.87 343.07,35.98 343.11,36.07 343.11,36.16 343.1,36.25 343.04,36.35 
					342.94,36.46 342.7,36.54 342.11,36.66 341.77,36.68 341.66,36.73 341.209,36.82 341.089,36.82 340.78,36.89 340.7,36.99 
					340.669,37.09 340.78,37.41 340.85,37.56 340.879,37.96 340.85,38.12 340.79,38.32 340.64,38.62 340.39,38.92 340.06,39.14 
					339.57,39.33 339.45,39.4 339.31,39.43 				"/>
				<polyline fill="none" stroke="#666666" stroke-width="0.25" stroke-linejoin="round" stroke-miterlimit="3.8637" points="
					327.82,30.83 327.94,31.04 328.03,31.14 328.22,31.46 328.27,31.67 328.29,32.06 328.2,32.45 327.99,33.02 327.77,33.4 
					327.64,33.6 327.26,34.02 327.03,34.24 326.959,34.35 326.4,34.81 326.04,35.05 325.48,35.38 325.06,35.59 324.82,35.7 
					324.709,35.71 324.47,35.81 324.28,35.87 324.049,35.96 323.959,36.06 323.9,36.14 323.93,36.25 324.1,36.47 324.32,36.68 
					324.4,36.77 324.74,37.03 324.98,37.27 325.37,37.54 325.61,37.63 326.07,37.77 326.57,37.83 327.49,38.14 327.78,38.26 
					328.2,38.54 328.36,38.77 328.49,39.16 328.49,39.83 328.48,40.03 328.36,40.41 328.28,40.58 328.129,40.81 327.74,41.27 				
					"/>
				<polyline fill="none" stroke="#666666" stroke-width="0.25" stroke-linejoin="round" stroke-miterlimit="3.8637" points="
					339.31,39.43 338.9,39.54 338.69,39.56 337.9,39.77 337.61,39.92 337.52,40.03 337.339,40.36 337.28,40.56 337.19,40.77 
					337.04,40.97 336.959,41.06 336.62,41.21 336.52,41.18 336.4,41.08 336.16,40.67 336.07,40.78 336.02,40.9 335.959,41.16 
					335.87,41.72 335.839,42.02 335.68,42.74 335.57,42.88 335.45,42.94 335.32,42.94 335.07,42.83 334.85,42.62 334.73,42.5 
					334.4,42.19 334.32,42.12 334.15,42.01 333.9,41.91 333.589,41.83 333.45,41.83 332.959,41.77 332.629,41.6 332.07,41.27 
					331.78,41.11 331.669,41.08 331.11,41.05 330.98,41.06 330.2,41.24 329.6,41.44 329.089,41.53 328.73,41.53 328.37,41.49 
					327.919,41.35 327.82,41.27 327.74,41.27 				"/>
				<polyline fill="none" stroke="#666666" stroke-width="0.25" stroke-linejoin="round" stroke-miterlimit="3.8637" points="
					308.16,30.97 308.57,31.41 309.049,32.05 309.16,32.14 309.4,32.56 309.57,33.02 309.62,33.25 309.64,33.46 309.61,33.68 
					309.57,33.77 309.45,33.99 309.209,34.29 309.11,34.52 309.11,34.64 309.16,34.84 309.29,35.17 309.54,35.56 309.61,35.65 
					310.03,36.08 310.1,36.2 310.49,36.62 310.73,37.04 310.81,37.37 310.82,37.6 310.85,37.9 310.81,38.42 310.73,38.87 
					310.73,39.08 310.76,39.19 310.82,39.31 310.99,39.5 311.32,39.71 311.45,39.74 311.89,39.99 312.1,40.08 312.23,40.1 
					313.04,40.52 313.39,40.75 313.459,40.84 313.53,40.96 313.7,41.29 313.79,41.62 313.79,41.87 313.79,42.25 313.76,42.49 
					313.64,43.14 313.48,43.72 313.36,44.04 313.27,44.17 313.22,44.26 312.62,44.83 312.28,45.34 312.169,45.55 312.11,45.95 
					312.02,46.3 311.82,46.66 311.37,47 311.16,47.14 310.94,47.32 310.82,47.42 310.74,47.62 310.709,47.74 310.69,47.98 
					310.69,48.31 310.7,48.83 310.69,49.18 310.6,50.1 310.49,50.52 310.459,50.65 310.4,50.74 310.339,51.06 310.22,51.37 				"/>
				<polyline fill="none" stroke="#666666" stroke-width="0.25" stroke-linejoin="round" stroke-miterlimit="3.8637" points="
					294.569,53.59 294.979,53.59 295.181,53.54 295.49,53.32 295.97,52.81 296.28,52.51 296.51,52.35 296.931,52.21 297.26,52.2 
					297.49,52.22 297.58,52.25 297.729,52.35 298.101,52.51 298.53,52.75 298.64,52.78 298.93,52.93 299.2,53.02 299.66,53.1 
					299.9,53.1 300.29,53.05 300.44,52.99 300.64,52.83 300.77,52.62 300.89,52.06 300.99,50.92 301.04,50.7 301.129,50.42 
					301.22,50.18 301.459,49.81 301.79,49.41 302.02,49.24 302.24,49.14 302.459,49.1 302.9,49.12 303.14,49.16 303.95,49.41 
					304.06,49.45 304.74,49.6 305.459,49.84 305.61,49.91 306.209,50.16 307.879,50.89 308.9,51.27 309.14,51.33 309.4,51.37 
					310.1,51.33 310.22,51.37 				"/>
				<polyline fill="none" stroke="#666666" stroke-width="0.25" stroke-linejoin="round" stroke-miterlimit="3.8637" points="
					339.31,39.43 338.77,40.24 338.299,41.04 338.4,41.14 338.51,41.21 339.26,41.6 339.74,41.81 339.95,41.92 340.06,42.01 
					340.24,42.25 340.39,42.54 340.45,42.71 340.45,42.94 340.4,43.14 340.37,43.52 340.24,44.24 340.19,44.35 340.07,44.8 
					339.919,45.35 339.74,45.77 339.49,46.16 339.31,46.35 339.169,46.56 339.07,46.64 338.98,46.78 338.66,47.11 338.28,47.53 
					338.14,47.81 338.23,48.13 338.56,48.79 339.07,49.91 339.62,50.96 340.22,52.02 340.7,52.9 341.06,53.44 341.39,53.86 
					341.53,54.1 341.56,54.39 341.61,54.68 341.7,54.91 				"/>
				<polyline fill="none" stroke="#666666" stroke-width="0.25" stroke-linejoin="round" stroke-miterlimit="3.8637" points="
					351.03,48.89 350.9,49.12 350.74,49.33 350.54,49.52 350.2,49.79 349.99,50 349.85,50.2 349.79,50.42 349.74,50.66 
					349.76,51.29 349.9,52.37 349.9,52.72 349.82,53.12 349.669,53.45 349.6,53.58 349.37,53.75 348.89,54.04 348.12,54.31 
					347.27,54.47 347.07,54.55 346.97,54.62 346.9,54.73 346.879,54.82 346.9,54.94 347.07,55.12 347.27,55.31 347.32,55.42 
					347.32,55.51 347.28,55.62 347.089,55.81 346.669,56.05 345.959,56.29 				"/>
				<polyline fill="none" stroke="#666666" stroke-width="0.25" stroke-linejoin="round" stroke-miterlimit="3.8637" points="
					345.959,56.29 345.54,56.26 345.169,56.26 345.169,56.27 344.78,56.27 344.23,56.17 343.7,56.04 342.77,55.66 342.02,55.15 
					341.74,54.94 341.7,54.91 				"/>
				<polyline fill="none" stroke="#666666" stroke-width="0.25" stroke-linejoin="round" stroke-miterlimit="3.8637" points="
					327.74,41.27 327.61,41.45 327.02,41.89 326.49,42.25 326.06,42.56 325.9,42.64 325.22,43.14 324.2,43.89 323.9,44.05 
					323.4,44.47 322.76,45.06 322.32,45.37 322.2,45.47 322.04,45.7 321.959,45.94 321.98,46.16 322.18,46.81 322.22,47.29 
					322.129,47.71 322.01,48.02 321.87,48.27 321.799,48.49 321.74,48.73 321.82,49.02 321.86,49.14 322.01,49.37 322.11,49.51 
					322.549,49.9 322.62,50 322.66,50.11 322.64,50.18 322.61,50.27 322.53,50.37 321.82,50.5 321.57,50.58 321.24,50.72 
					321.049,50.85 320.36,51.28 320.24,51.34 319.97,51.43 319.6,51.45 319.15,51.4 318.87,51.31 318.07,51.01 317.23,50.8 
					316.99,50.79 316.9,50.85 316.79,50.93 316.74,51.02 316.73,51.14 316.73,51.25 316.85,51.56 317.02,51.79 318.03,52.99 
					318.52,53.53 319.709,54.77 320.2,55.39 320.56,56.05 320.6,56.16 320.93,56.8 321.049,56.98 321.12,57.19 321.14,57.35 				"/>
				<polyline fill="none" stroke="#666666" stroke-width="0.25" stroke-linejoin="round" stroke-miterlimit="3.8637" points="
					321.14,57.35 320.9,57.27 320.66,57.22 320.28,57.16 319.57,57.16 319.2,57.22 318.07,57.56 				"/>
				<polyline fill="none" stroke="#666666" stroke-width="0.25" stroke-linejoin="round" stroke-miterlimit="3.8637" points="
					310.22,51.37 310.549,51.62 310.73,51.88 311.06,52.57 311.35,53.04 311.45,53.14 311.6,53.37 311.98,53.74 312.169,53.87 
					312.37,53.91 312.61,53.87 312.919,53.72 313.04,53.7 313.24,53.7 313.709,53.85 314.07,54 314.299,54.13 314.53,54.29 
					314.61,54.49 314.9,55.24 315.07,55.43 315.19,55.48 315.78,55.57 316.129,55.66 316.669,55.9 317.28,56.29 317.57,56.58 
					317.82,56.87 317.98,57.17 318.049,57.37 318.07,57.56 				"/>
				<path fill="none" stroke="#666666" stroke-width="0.25" stroke-linejoin="round" stroke-miterlimit="3.8637" d="M345.169,56.32
					c0,0,0.15,0.93,1.021,1.57c0.85,0.63,1.829-0.29,1.829-0.29l0.811-0.6l0.021,0.01l0.689,0.19l0.34,0.08l0.75,0.3l0.62,0.18
					l0.99,0.18l0.939,0.2l1.221,0.07l0.239-0.06l0.229-0.57l0.2-0.3l0.149-0.18l0.391-0.4l0.369-0.28l0.53-0.32l0.51-0.23
					l1.011-0.31l1.279-0.47"/>
				<polyline fill="none" stroke="#666666" stroke-width="0.25" stroke-linejoin="round" stroke-miterlimit="3.8637" points="
					341.7,54.91 341.32,54.97 340.49,55.24 340.28,55.37 340.1,55.57 339.95,55.79 339.9,56 339.919,56.11 340.27,56.93 
					340.36,57.28 340.32,57.5 340.16,57.71 339.94,57.85 339.73,58.04 339.53,58.37 339.11,59.35 338.629,60.31 338.54,60.54 
					338.49,60.73 338.51,60.92 338.54,61.03 338.629,61.24 338.9,61.81 338.99,62.23 339.02,62.47 339.03,62.95 338.95,63.52 
					338.959,63.92 339.03,64.1 339.14,64.31 339.52,64.78 339.73,65.1 339.82,65.31 339.9,65.59 339.94,65.83 339.94,66.14 
					339.82,66.73 339.85,66.83 				"/>
				<polyline fill="none" stroke="#666666" stroke-width="0.25" stroke-linejoin="round" stroke-miterlimit="3.8637" points="
					359.24,68.53 358.52,68.18 358.39,68.16 357.799,68.11 357.589,68.16 357.49,68.12 357.379,68.02 357.23,67.72 356.93,67.29 
					356.66,66.83 356.23,66.2 356.03,66.02 355.93,66.06 355.82,66.13 355.73,66.24 355.53,66.54 355.36,66.73 355.24,66.81 
					355.06,66.87 354.94,66.88 354.85,66.87 354.64,66.77 354.52,66.66 354.31,66.31 353.99,65.47 353.93,65.26 353.9,65.17 
					353.82,64.79 353.74,64.18 353.6,63.85 353.16,63.25 353.07,63.19 352.9,63.37 352.79,63.68 352.73,63.79 352.57,64.14 
					352.4,64.36 352.2,64.57 352.07,64.66 351.709,64.85 351.589,64.87 351.35,64.87 350.99,64.78 350.4,64.54 349.9,64.27 
					349.7,64.2 349.6,64.16 349.39,64.16 349.16,64.2 349.06,64.39 349.03,64.57 348.919,64.77 348.78,64.87 348.32,65.08 
					348.26,65.18 348.2,65.27 348.19,65.39 348.209,65.7 348.209,65.74 348.14,65.87 347.959,66.08 347.629,66.37 347.18,66.68 
					346.82,66.85 346.49,66.97 345.68,67.37 344.99,67.67 344.37,67.97 344.14,68.04 344.02,68.04 343.62,67.89 342.94,67.41 
					342.709,67.29 342.169,67.18 341.57,67.16 341.12,67.12 339.85,66.83 				"/>
				<polyline fill="none" stroke="#666666" stroke-width="0.25" stroke-linejoin="round" stroke-miterlimit="3.8637" points="
					339.85,66.83 339.65,66.79 339.43,66.79 339.169,66.88 338.36,67.36 338.27,67.45 337.79,67.81 337.57,68.02 337.04,68.58 
					336.85,68.74 336.47,69.22 336.209,69.49 335.77,70.14 335.57,70.52 				"/>
				<polyline fill="none" stroke="#666666" stroke-width="0.25" stroke-linejoin="round" stroke-miterlimit="3.8637" points="
					335.57,70.52 335.45,70.37 335.15,70.1 335.02,69.81 334.82,69.06 334.37,67.67 334.24,67.06 334.1,66.56 333.98,66.5 
					333.85,66.54 332.959,66.83 332.56,67 332.4,66.97 332.18,66.92 331.669,66.71 331.27,66.58 330.7,66.41 329.99,66.27 
					328.69,66.06 327.95,65.87 327.709,65.79 327.49,65.68 327.26,65.47 327.02,65.24 326.89,65.05 326.7,64.64 326.629,64.54 
					325.82,63.85 325.31,63.27 325.06,62.93 324.74,63.04 324.49,63.06 323.9,63.01 323.82,63 323.61,62.86 323.209,62.45 
					322.4,61.78 321.74,61.18 321.61,60.89 321.589,60.74 321.61,60.62 321.73,60 321.86,59.56 321.86,59.44 321.95,58.97 
					321.99,58.51 321.919,58.27 321.74,57.95 321.35,57.47 321.14,57.35 				"/>
				<polyline fill="none" stroke="#666666" stroke-width="0.25" stroke-linejoin="round" stroke-miterlimit="3.8637" points="
					305.48,77.83 308.68,75.97 309.57,75.5 310.549,75.14 310.99,74.95 311.35,74.77 311.54,74.62 311.629,74.52 311.65,74.41 
					311.61,74.32 311.51,74.21 311.15,74.08 310.95,73.89 310.82,73.67 310.79,73.56 310.82,73.35 310.95,73.09 311.48,72.68 
					311.839,72.33 312.1,71.91 312.28,71.41 312.49,71 312.7,70.81 312.78,70.78 312.9,70.78 313.39,70.91 313.52,70.95 
					313.62,70.91 314.56,70.45 316.45,69.91 316.62,69.68 316.74,69.37 316.78,69.28 316.78,69.06 316.73,68.95 316.52,68.52 
					316.4,68.23 316.37,67.93 316.339,67.46 316.36,67.08 316.4,66.68 316.49,66.37 316.57,65.98 316.6,65.66 316.53,65.42 
					316.39,65.2 316.03,65 315.29,64.77 314.61,64.62 314.2,64.48 314.11,64.43 313.9,64.3 313.79,64.2 313.73,63.97 313.73,63.77 
					313.879,63.24 314.06,62.71 314.32,62.12 315.049,61.74 315.23,61.52 315.379,61.2 315.47,60.81 315.54,60.6 315.709,60.29 
					315.89,60.08 316.129,59.89 316.36,59.75 316.6,59.65 317.11,59.37 317.54,58.99 317.7,58.81 317.81,58.69 317.9,58.45 
					317.95,58.33 318.02,58.02 318.07,57.56 				"/>
				<polyline fill="none" stroke="#666666" stroke-width="0.25" stroke-linejoin="round" stroke-miterlimit="3.8637" points="
					293.569,78.2 293.601,78.22 293.7,78.28 293.99,78.56 294.069,78.68 294.169,78.77 294.44,78.91 294.94,79.02 295.29,79.04 
					295.61,79.14 296.181,79.35 296.49,79.42 296.649,79.48 296.819,79.51 296.959,79.56 297.209,79.7 297.44,79.87 297.771,80.08 
					297.87,80.18 298.22,80.42 298.31,80.53 298.669,80.75 299.36,81.04 299.72,81.13 299.9,80.66 299.99,80.26 300.07,80.08 
					300.29,79.89 300.53,79.74 301.24,79.45 301.82,79.12 302.99,78.56 303.32,78.47 303.85,78.43 304.4,78.34 305.02,78.1 
					305.48,77.83 				"/>
				<polyline fill="none" stroke="#666666" stroke-width="0.25" stroke-linejoin="round" stroke-miterlimit="3.8637" points="
					305.48,77.83 305.89,77.95 306.49,78.2 306.74,78.29 308.03,78.83 308.66,79.04 309.16,79.27 309.589,79.31 310.459,79.27 
					311.459,79.29 311.99,79.36 312.68,79.5 313.29,79.54 313.57,79.58 313.99,79.69 314.299,79.81 315.2,80.27 315.61,80.52 
					315.82,80.6 315.919,80.62 316.129,80.6 316.339,80.53 316.97,80.2 317.06,80.18 317.15,80.2 317.23,80.29 317.27,80.39 
					317.27,80.52 317.24,80.62 316.76,81.71 316.64,82.03 316.57,82.35 316.6,82.64 316.64,82.83 316.709,83.04 316.879,83.35 
					317.27,83.83 317.6,84.17 318.02,84.59 318.26,84.79 318.589,84.95 319.45,85.18 319.99,85.36 320.209,85.48 320.419,85.63 
					320.65,85.87 321.07,86.53 321.23,86.74 321.66,87.07 322.01,87.28 323.089,87.68 323.48,87.88 323.6,87.95 323.66,88.06 
					323.74,88.29 323.78,88.57 323.78,89.08 323.74,90.41 323.65,91.67 				"/>
				<polyline fill="none" stroke="#666666" stroke-width="0.25" stroke-linejoin="round" stroke-miterlimit="3.8637" points="
					323.65,91.67 323.98,91.5 324.169,91.31 324.47,91 324.7,90.89 325.39,90.68 325.74,90.54 325.82,90.5 326.11,90.54 
					326.23,90.59 326.45,90.7 326.93,91.03 327.16,91.21 327.32,91.54 327.379,91.72 327.4,91.78 				"/>
				<polyline fill="none" stroke="#666666" stroke-width="0.25" stroke-linejoin="round" stroke-miterlimit="3.8637" points="
					335.57,70.52 335.44,70.69 335.16,71.23 334.879,71.96 334.459,72.87 334.07,73.83 333.86,74.23 333.14,75.39 332.36,76.56 
					332.15,76.85 332.07,77 331.62,77.64 331.53,77.8 331.28,78.13 331.16,78.37 330.89,78.95 330.45,79.77 330.23,80.26 
					330.07,80.77 330.049,81.08 330.07,81.28 330.2,81.85 330.28,82.03 330.32,82.12 331.06,82.22 332.32,82.3 332.95,82.41 
					333.57,82.56 334.29,82.87 334.52,83 335.2,83.32 335.81,83.65 335.82,83.75 335.79,83.84 335.69,84.55 335.61,84.83 
					335.49,85.15 335.28,85.43 334.94,85.64 334.709,85.76 334.01,86.05 333.799,86.23 333.32,86.75 332.99,86.8 332.65,86.77 
					332.32,86.8 332.23,86.81 331.94,86.96 331.52,87.31 329.12,88.39 328.7,88.67 328.29,88.9 327.78,89.23 327.7,89.33 
					327.54,89.51 327.49,89.62 327.47,89.8 327.52,89.92 327.94,90.24 328.129,90.43 328.31,90.73 328.4,90.91 328.53,91.25 
					328.62,91.58 328.66,91.78 328.64,91.87 328.6,91.98 328.48,92.05 328.37,92.08 328.27,92.09 328.07,92.08 327.87,92 
					327.4,91.78 				"/>
				<polyline fill="none" stroke="#666666" stroke-width="0.25" stroke-linejoin="round" stroke-miterlimit="3.8637" points="
					316.64,93 317.61,92.44 318.11,92.27 318.37,92.24 318.74,92.26 319.85,92.39 321.049,92.6 321.57,92.6 321.89,92.51 
					322.11,92.41 322.76,92.02 322.879,91.98 323.18,91.91 323.39,91.83 323.65,91.67 				"/>
				<polyline fill="none" stroke="#666666" stroke-width="0.25" stroke-linejoin="round" stroke-miterlimit="3.8637" points="
					327.4,91.78 327.47,91.96 327.61,92.16 327.709,92.26 327.9,92.41 328.19,92.56 328.62,92.7 328.94,92.73 329.28,92.71 
					329.74,92.64 330.03,92.51 330.24,92.47 330.45,92.45 330.66,92.53 330.78,92.62 331.01,92.86 331.39,93.43 331.66,93.73 
					331.94,93.99 332.39,94.23 332.89,94.33 333.16,94.37 333.44,94.37 333.53,94.34 333.64,94.25 333.66,94.15 333.65,93.39 
					333.73,93.29 333.82,93.31 334.04,93.41 334.48,93.76 335.03,94.36 				"/>
				<polyline fill="none" stroke="#666666" stroke-width="0.25" stroke-linejoin="round" stroke-miterlimit="3.8637" points="
					302.18,96.16 302.78,96.08 303.32,96.08 303.589,96.06 304.16,95.98 304.53,95.98 305.99,95.89 306.23,95.84 307.07,95.39 
					307.31,95.35 307.45,95.37 307.69,95.41 308.15,95.56 308.51,95.64 309.02,95.71 309.28,95.73 309.66,95.8 309.99,95.81 
					310.32,95.71 310.49,95.53 310.57,95.29 310.549,94.98 310.57,94.58 310.66,94.27 310.81,94.06 310.9,93.95 311.24,93.77 
					311.629,93.64 312.32,93.34 312.4,93.31 312.62,93.29 313.04,93.46 313.669,93.49 314.32,93.46 314.89,93.4 315.98,93.2 
					316.4,93.1 316.64,93 				"/>
				<polyline fill="none" stroke="#666666" stroke-width="0.25" stroke-linejoin="round" stroke-miterlimit="3.8637" points="
					288.78,84.22 288.799,84.25 288.819,84.45 288.771,84.79 288.7,85.09 288.49,85.62 288.399,85.85 288.319,86.08 288.319,86.29 
					288.351,86.39 288.53,86.59 288.979,87.01 289.459,87.4 289.61,87.59 289.61,87.68 289.53,87.77 289.29,87.89 288.94,87.94 
					288.799,87.94 288.49,87.97 287.931,88.06 287.569,88.41 286.78,89.39 286.569,89.68 286.549,89.79 286.97,90.08 287.959,90.66 
					288.31,90.88 288.771,91.27 289.19,91.67 289.36,91.89 289.549,92.17 289.97,92.89 290.04,93 290.24,93.13 290.37,93.16 
					291.26,93.22 291.729,93.34 292.479,93.58 293.12,93.83 293.319,93.97 293.95,94.45 294.03,94.57 294.16,94.9 294.229,95.35 
					294.28,95.77 294.37,95.95 294.47,96.06 294.56,96.12 294.87,96.14 295.669,96.13 297.319,95.98 298.16,95.86 298.97,95.83 
					299.95,95.81 300.77,95.87 301.07,95.92 302.18,96.16 				"/>
				<polyline fill="none" stroke="#666666" stroke-width="0.25" stroke-linejoin="round" stroke-miterlimit="3.8637" points="
					302.18,96.16 301.24,98.02 300.66,99.13 300.12,99.89 299.65,100.41 298.69,101.29 297.53,102.25 296.06,103.34 292.39,106.14 
					290.271,107.86 288.649,109.09 287.86,109.74 287.24,110.21 284.56,112.23 283.24,113.14 279.819,114.61 				"/>
				<polyline fill="none" stroke="#666666" stroke-width="0.25" stroke-linejoin="round" stroke-miterlimit="3.8637" points="
					316.64,93 316.64,93.24 316.79,93.52 316.99,93.82 317.16,94.01 317.37,94.21 317.87,94.56 318.28,94.75 318.65,94.87 
					318.74,94.95 318.82,95.05 318.82,95.14 318.82,95.24 318.709,95.42 318.26,95.84 317.36,96.46 316.81,96.94 316.73,97.03 
					316.49,97.51 316.4,97.72 316.36,98 316.339,98.31 316.36,98.53 316.4,98.95 316.48,100.03 316.61,100.83 316.76,101.44 
					316.9,101.87 317.16,102.59 317.299,102.91 317.419,103.18 317.68,103.76 318.02,104.41 318.49,105.13 319.24,106.45 
					319.32,106.56 319.52,106.69 319.82,106.85 320.36,107.02 320.72,107.17 321.049,107.39 321.23,107.6 321.61,108.33 
					321.78,108.54 321.89,108.61 321.99,108.67 322.24,108.7 322.669,108.59 322.76,108.61 322.9,108.68 323.24,109.03 
					323.56,109.36 324.169,109.96 324.32,110.17 324.4,110.38 324.35,110.71 324.29,110.91 324.11,111.31 323.74,111.87 
					323.65,111.99 323.459,112.29 323.37,112.52 323.36,112.63 323.39,112.81 323.54,113.05 323.66,113.17 323.95,113.42 
					324.919,114.22 325.28,114.54 325.549,114.83 325.709,115.06 325.85,115.29 326.53,116.58 326.69,116.84 326.99,117.26 
					327.169,117.46 327.68,117.95 328.06,118.37 				"/>
				<polyline fill="none" stroke="#666666" stroke-width="0.25" stroke-linejoin="round" stroke-miterlimit="3.8637" points="
					345.85,108.12 345.209,108.46 344.78,108.77 344.57,108.99 344.45,109.2 344.24,109.5 344.089,109.81 343.879,110.06 
					343.36,110.47 343.28,110.56 343.1,110.91 342.99,111.24 342.82,111.58 342.45,112.12 342.11,112.52 341.86,112.83 
					341.72,113.06 341.48,113.53 341.45,113.66 341.18,114.24 341.03,114.31 340.57,114.39 339.4,114.73 338.99,114.89 
					338.54,115.09 338.299,115.23 337.99,115.42 337.53,115.79 336.77,116.58 336.32,116.98 335.99,117.22 335.49,117.43 
					334.48,117.62 333.7,117.79 332.99,118.12 332.77,118.16 332.14,118.16 331.6,118.08 331.04,118.04 330.7,118.1 329.48,118.46 
					329.12,118.46 328.22,118.34 328.06,118.37 				"/>
				<polyline fill="none" stroke="#666666" stroke-width="0.25" stroke-linejoin="round" stroke-miterlimit="3.8637" points="
					328.06,118.37 328.87,119.33 329.15,119.65 329.459,119.92 329.69,120.07 330.169,120.26 330.709,120.43 330.85,120.45 
					331.07,120.46 331.73,120.37 332.03,120.39 332.12,120.43 332.24,120.5 332.36,120.59 332.44,120.68 332.54,120.91 
					332.57,121.09 332.57,121.62 332.56,121.93 332.57,123.2 332.54,123.4 332.48,123.61 332.14,124.37 				"/>
				<polyline fill="none" stroke="#666666" stroke-width="0.25" stroke-linejoin="round" stroke-miterlimit="3.8637" points="
					332.14,124.37 332.06,124.5 331.99,124.69 331.99,124.81 331.99,125.04 332.12,125.24 332.36,125.47 333.07,125.95 
					333.959,126.66 334.129,126.85 334.15,126.95 334.129,127.06 334.03,127.16 333.709,127.3 333.31,127.39 333.2,127.46 
					333.07,127.66 333.02,127.87 333.02,128.09 333.07,129.01 333.12,129.25 333.16,129.37 333.28,129.56 333.37,129.68 
					333.47,129.76 333.53,129.85 333.589,129.95 333.589,130.16 333.52,130.37 333.29,130.74 332.959,131.14 332.61,131.51 
					332.54,131.64 332.44,131.93 332.4,132.16 332.32,132.88 332.36,133.48 332.44,133.79 333.65,135.85 333.49,135.94 
					333.169,135.95 333.03,135.92 332.629,135.76 332.18,135.48 331.78,135.2 331.36,134.89 330.73,134.37 330.169,133.96 
					329.74,133.63 329.459,133.34 329.07,132.82 328.81,132.5 328.709,132.41 328.39,132.17 328.19,132.08 327.74,131.93 
					327.2,131.87 326.7,131.89 326.03,132.01 325.459,132.16 325.18,132.26 324.56,132.64 323.86,133.27 323.37,133.62 
					323.07,133.81 314.6,135.89 312.35,135.99 309.23,136.08 294.49,139.48 				"/>
				<polyline fill="none" stroke="#666666" stroke-width="0.25" stroke-linejoin="round" stroke-miterlimit="3.8637" points="
					332.14,124.37 332.27,124.42 332.51,124.39 333.03,124.42 333.82,124.41 335.07,124.2 335.839,123.92 336.28,123.7 
					336.43,123.52 336.85,122.91 337.11,122.6 337.24,122.5 337.339,122.42 337.549,122.35 337.76,122.32 338.089,122.33 
					338.69,122.44 339.52,122.64 339.74,122.65 339.86,122.62 339.95,122.56 340.18,122.23 340.24,122.14 340.459,121.98 
					340.669,121.84 340.97,121.74 341.53,121.58 342.049,121.42 342.64,121.03 342.94,120.88 343.18,120.77 343.66,120.62 
					344.35,120.43 344.77,120.26 345.32,120 346.18,119.53 346.49,119.39 346.709,119.33 347.02,119.32 347.35,119.33 
					348.32,119.51 348.62,119.5 348.959,119.41 349.57,119.18 349.79,119.14 349.879,119.16 349.99,119.21 350.06,119.33 
					350.06,119.42 350.04,119.51 349.99,119.62 349.78,119.91 349.74,120.12 349.79,120.31 349.79,120.4 349.57,120.41 
					349.39,120.39 349.16,120.43 349.04,120.62 349.07,120.73 349.19,120.92 349.28,121.03 349.53,121.21 349.85,121.37 
					350.18,121.46 350.45,121.51 350.93,121.54 351.44,121.6 351.82,121.7 352.39,121.9 353.07,122.23 353.99,122.7 354.4,122.84 
					355.53,123.35 356.87,124.04 358.24,124.6 358.57,124.76 358.76,124.93 358.879,125.12 359.12,126.02 359.18,126.37 
					359.27,126.61 359.51,126.94 359.7,127.14 360.03,127.41 360.74,128.05 360.959,128.18 361.24,128.29 361.45,128.41 
					361.61,128.62 361.7,128.91 361.73,129.08 361.669,129.55 361.549,130 361.27,130.72 361.19,130.93 361.15,131.12 
					361.11,131.35 361.11,131.79 361.19,133.08 361.22,133.87 361.2,134.09 361.15,134.33 361.01,134.74 360.94,135.07 
					360.919,135.17 360.95,135.29 361.06,135.41 362.03,136.23 362.7,136.66 364.39,137.95 365.14,138.62 366.26,139.7 
					367.03,140.27 367.339,140.49 367.61,140.65 367.9,140.71 368.11,140.7 368.72,140.56 368.95,140.56 369.049,140.64 
					369.07,140.8 368.95,141.02 368.7,141.33 368.32,141.64 367.82,141.97 367.549,142.14 367.339,142.24 366.66,142.45 
					366.19,142.64 365.82,142.84 365.48,143.08 365.07,143.38 364.85,143.6 364.36,144.17 363.47,145.79 363.24,146.18 
					362.99,146.71 				"/>
				<polyline fill="none" stroke="#666666" stroke-width="0.25" stroke-linejoin="round" stroke-miterlimit="3.8637" points="
					321.02,209.16 321.169,209.35 321.52,209.77 				"/>
			</g>
		</g>
	</g>
</g>
<path fill="#84B93B" d="M129.598,178.662c-6.43,0.041-9.781,5.872-15.119,4.56c-8.507-2.091-11.611-9.623-22.32-7.2
	c-1.527,3.741-0.676,13.951-5.04,14.4c-0.48-0.4-0.96-0.8-1.44-1.2c-0.709-1.089-0.363-2.333-0.72-3.84
	c-0.604-2.546-0.949-4.193-2.4-5.76c-0.421,0.151-0.233,0.046-0.48,0.24c-1.079,1.122-1.264,3-3.12,3.36
	c-2.129-2.997-8.205-3.914-8.88-8.16c-0.213-1.341,1.394-2.15,1.92-2.88c1.607-2.23,3.133-4.609,3.84-7.68
	c-1.444-0.361-3.035-4.045-1.68-6c0.649-1.869,2.835-2.552,3.84-4.08c0.486-0.739,0.31-1.821,0.48-2.16
	c0.44-0.875,4.728-3.31,5.76-4.08c3.963-2.956,10.888-11.417,12.24-16.8c-0.75-0.259-2.02-0.255-3.12-0.24
	c-1.584-0.993-9.341-0.973-12.24-0.96c0-0.16,0-0.32,0-0.48c-1.418-2,0.261-7.099,2.16-7.44c0.512,0.333,1.455,0.356,1.92,0.72
	c1.441,1.941,0.707,2.055,4.32,1.92c0.08-0.24,0.16-0.48,0.24-0.72c-1.112-1.211-1.758-4.712-1.44-6.48c0.8,0,1.6,0,2.4,0
	c1.13,0.797,2.709,0.288,3.84,0c0.535-0.8,0.885-0.767,0.96-2.16c-0.56-1.28-1.12-2.56-1.68-3.84
	c-0.852-1.382-2.193-2.753-2.64-4.56c-0.547-2.214,1.835-3.369,1.44-4.56c-0.803-2.658-3.864-3.152-4.56-5.76
	c-0.528-1.979,0.552-5.381,0.96-6.96c0.873-3.381,0.891-6.417,1.92-9.6c0.655-2.025,1.984-4.301,2.4-6.24
	c1.314-0.172,2.332-0.472,4.08-0.479c0.249,0.587,0.491,1.291,0.96,1.68c2.409,1.766,8.992,0.609,12,1.92
	c2.428,1.058,3.512,3.815,5.52,5.28c2.293,1.672,9.811,5.989,12.721,6.48c1.046-1.671,2.691-3,3.84-4.56
	c2.438-3.315,4.787-6.833,6.96-10.32c1.174-1.884,2.43-5.95,4.8-6.479c1.593,1.48,3.797,2.54,5.52,3.84
	c2.336,1.763,4.056,4.509,6.48,6.24c0.935,0.667,2.078,0.9,2.88,1.68c-1.009,0.899-1.163,2.941-1.92,4.08
	c-0.645,0.969-1.777,1.886-2.399,2.88c-2.639,4.214-4.183,9.004-6.24,13.68c-2.162,4.912-4.703,10.038-6.48,15.36
	c-2.27,6.794-3.254,13.664-5.52,20.64C132.543,148.304,130.07,162.698,129.598,178.662z"/>
<path fill="#84B93B" d="M77.279,152.742c0,0.32,0,0.64,0,0.96c-1.777,1.171-2.867,3.059-4.32,4.56
	c-0.096,4.543,0.404,4.496,1.68,7.2c-0.999,1.226-1.278,2.99-2.16,4.32c-0.881,1.329-2.897,2.705-3.36,4.32
	c-0.315,1.1,0.554,2.708,0.96,3.36c0.977,1.568,7.638,6.601,9.84,6.72c0.75-0.831,1.874-2.635,2.88-3.12c0,0.16,0,0.32,0,0.48
	c1.396,1.62,0.644,4.662,1.44,6.96c0.477,1.379,1.491,1.959,2.4,2.88c0.757,0.021,1.251,0.114,1.44,0
	c3.664-1.902,4.345-9.219,4.56-14.4c0.16,0,0.32,0,0.48,0c1.744-1.551,4.683-0.25,6.24,0.24c0.72,0,1.44,0,2.16,0
	c1.017,0.359,1.604,1.581,2.4,2.16c2.961,2.153,7.716,4.823,12.24,5.04c5.191,0.249,7.228-4.748,13.439-4.8
	c0.109,3.749-0.053,9.387,0.721,12.96c0.666,3.074-0.115,6.379,0.48,9.12c0.746,3.437-0.039,6.56,0.72,9.84
	c0.603,2.603,0.687,5.451,1.44,8.16c0.59,2.125,1.46,4.604,1.68,6.96c-3.126-0.251-6.368-1.137-9.601-1.68
	c-1.491-0.25-10.317,1.385-11.76,1.92c-0.396,0.147-1.04,0.833-1.44,0.96c-6.719,0.08-13.44,0.16-20.16,0.24
	c-2.16,1.04-4.32,2.08-6.48,3.12c-0.783,0.568-4.761,6.09-5.04,7.2c-1.093,4.35,2.979,12.02-2.4,12.72
	c-1.063,0.701-3.217,0.06-4.56,0c-0.974-3.225-4.383-3.361-8.64-3.36c-1.2,0-2.4,0-3.6,0c-6.986,1.449-13.786-1.616-18.479-3.6
	c-1.772-0.749-5.035-1.137-5.76-2.88c1.704-1.845,3.484-8.607,3.6-12c-2.682-2.123-3.834-8.124-6-11.04
	c-0.911-1.226-2.897-2.456-4.56-2.88c-0.8,0-1.6,0-2.4,0c-0.532-0.226-1.28-1.171-1.92-1.44c-4.729-1.984-10.977-1.458-17.04-1.44
	c0-0.16,0-0.32,0-0.48c1.059-1.561,0.254-3.997,0.72-6.24c0.601-2.892,0.073-7.685-0.48-10.56c0.08-0.96,0.16-1.92,0.24-2.88
	c-0.356-1.347-1.2-2.456-1.44-4.08c0.385-0.134,0.577-0.192,1.2-0.24c1.313,1.278,3.486,2.937,5.76,3.12
	c2.072-1.633,4.642-2.542,6.72-4.08c2.119-1.568,4.005-4.7,7.2-5.04c7.311,5.252,14.029-3.5,16.08-8.4
	c0.642-1.533,0.684-2.823,1.2-4.56c0.405-1.362,1.588-3.968,1.44-5.52c-0.126-1.323-1.737-2.47-2.4-3.36
	c-2.273-3.052-5.336-4.841-5.28-9.6c1.721-0.433,3.886-0.603,5.76-1.2c3.849-1.227,9.35-4.009,14.64-2.64
	C65.933,148.34,69.498,152.632,77.279,152.742z"/>
<path fill="#84B93B" d="M150.719,265.062c-3.797-0.558-6.926-3.13-10.801-4.08c-3.475-0.852-5.826,0.992-8.16,1.2
	c-1.596-1.539-5.966-4.886-8.399-5.28c-1.735-0.281-2.968,1.04-4.8,0.72c-0.129-0.364-0.162-0.406-0.24-0.96
	c0.971-1.091,1.685-1.986,1.68-4.08c-0.521-0.512-0.338-0.997-0.479-1.92c-1.366-0.369-3.7-1.728-6-0.96
	c-0.85,0.284-1.28,1.216-1.92,1.68c-1.732,1.255-3.498,2.173-5.28,3.36c-1.203,0.801-4.196,3.505-5.76,2.88
	c-5.061-1.355-7.09-7.021-11.04-9.6c-2.107-1.375-4.785-1.191-7.92-1.2c-0.16-2.72-0.32-5.44-0.48-8.16
	c0.238-0.868,1.025-2.369,1.68-2.88c0.387-0.302,1.179-0.324,1.44-0.72c0.377-0.573,0.12-1.37,0.48-1.92
	c0.898-1.373,5.637-3.583,7.44-4.08c6.719-0.08,13.44-0.16,20.16-0.24c6.029-2.005,11.931-3.686,18.96-1.68
	c1.373,0.392,2.868,0.213,3.84,0.96c0.685,0.881,0.712,1.995,1.2,3.12c1.07,2.466,2.762,4.885,4.32,6.96
	c1.609,2.144,4.639,4.111,6.959,5.52c1.412,0.857,3.605,1.111,4.561,2.4c1.743,2.352,1.246,6.094,2.16,9.36
	c1.435,5.129,4.795,9.437,5.279,15.12c-0.239,0.08-0.479,0.16-0.719,0.24c-0.734,0.575-7.563,2.266-8.16,1.92
	C149.459,271.005,150.661,267.437,150.719,265.062z"/>
<path fill="#84B93B" d="M65.999,260.742c7.301-0.027,8.379,4.287,10.32,9.6c0.463,1.268,1.222,2.586,1.44,4.08
	c-2.109,2.009-5.28,5.204-5.76,8.64c3.357,2.144,6.139,6.644,7.2,11.04c1.124,4.66-2.584,11.087-5.76,11.279c0-0.08,0-0.159,0-0.239
	c-0.08,0-0.16,0-0.24,0c-0.16-0.96-0.32-1.921-0.48-2.88c-4.182-2.029-8.11-1.521-12.24,0c-1.597,0.588-3.284,0.344-4.56,1.199
	c-2.675,1.795-4.819,4.791-7.44,6.721c-4.93,3.63-10.032,6.906-14.88,10.561c-4.423,3.334-7.1,8.894-11.52,12.239
	c-3.409,2.581-7.501,6.56-7.44,11.761c0.015,1.273-1.257,3.547-0.72,5.76c1.502,6.18,4.521,11.054,7.44,15.84
	c2.45,4.018,4.051,8.267,6.24,12.48c1.749,3.367,4.433,7.299,4.8,11.76c-0.56,0.479-1.12,0.959-1.68,1.439c-0.08,0-0.16,0-0.24,0
	c0-0.08,0-0.16,0-0.24c-6.612-2.223-8.75-13.207-12.24-18.959c-1.475-2.433-3.269-5.768-5.52-7.441
	c-1.122-0.834-2.571-1.848-3.84-2.399c-0.862-0.375-1.847-0.206-2.64-0.719c-2.527-1.638-7.369-11.504-6-17.28
	c0.32-1.119,0.64-2.24,0.96-3.359c1.555-0.566,2.441-1.885,3.36-3.119c1.756-2.361,3.401-4.605,4.32-7.92
	c1.318-4.758,0.305-8.406,2.64-12.24c2.057-3.377,6.713-5.417,7.44-9.84c4.903-0.688,6.24-5.174,8.64-8.4
	c0.88-0.8,1.76-1.6,2.64-2.4c0.4-0.08,0.8-0.16,1.2-0.24c1.175-1.018,1.953-4.557,2.64-6.238c1.151-2.814,1.888-6.186,3.12-9.12
	c0.548-1.308,1.749-2.794,2.16-4.08c0-3.2,0-6.4,0-9.6c0-5.645,0.436-11.415-0.72-16.32c-0.721-3.06-1.519-6.199-2.16-9.12
	c0.16,0,0.32,0,0.48,0c3.81,2.931,12.396,4.729,18,6c1.809,0.41,5.045,0.08,6.48-0.24c2.907-0.647,8.023-0.114,9.6,0.96
	c0.4,0.48,0.8,0.96,1.2,1.44c0,0.16,0,0.32,0,0.48C68.245,252.168,65.887,255.865,65.999,260.742z"/>
<path fill="#84B93B" d="M104.399,305.622c-0.461-8.386-10.081-16.771-14.16-22.32c-1.179-1.604-3.551-6.747-4.8-7.679
	c-1.204-0.899-2.97-1.765-4.56-2.16c-0.963-0.24-1.717,0.192-2.16,0c-0.858-1.155-0.886-2.851-1.44-4.32
	c-1.762-4.677-3.863-9.363-10.32-9.36c-0.054-6.969,5.873-7.528,12.24-7.68c0.961-1.439,2.099-2.087,2.4-4.32
	c1.28-0.08,2.56-0.16,3.84-0.24c0.11,0.039,0.553,0.661,0.72,0.72c0.8,0.08,1.6,0.16,2.4,0.24c2.448,1.15,5.365,5.938,7.68,7.68
	c1.281,0.964,3.161,1.527,4.32,2.64c3.203-0.681,11.176-5.962,12.96-8.16c2.071-0.188,3.686-0.032,5.28,0.72
	c-0.695,1.583,0.677,1.193,0.24,2.4c-0.544,1.55-1.417,1.696-1.44,4.08c0.853,0.541,1.171,0.906,2.64,0.96
	c4.316-3.477,8.648,3.706,12,4.56c0,0,3.352-1.555,3.84-1.68c3.744-0.959,8.799,2.121,11.04,3.12c0.731,0.326,2.206,0.376,2.64,0.96
	c0,0.72,0,1.44,0,2.16c-0.732,1.181,0.129,4.451-0.24,5.28c-0.283,0.193-0.402,0.186-0.959,0.24c-0.881-0.698-2.434-1.104-3.84-1.2
	c-0.08,0.24-0.16,0.48-0.24,0.72c-0.817,1.354,0.365,3.315,0.72,4.319c0.665,1.887,0.938,6.254,0.239,8.4
	c-1.256,3.86-5.678,6.383-8.639,8.641c-2.064,1.572-2.818,4.301-4.32,6.479c-1.847,2.68-5.275,2.334-8.641,3.602
	c-1.316,0.496-1.913,1.845-3.359,2.16c-1.242-1.351-4.158-3.014-7.44-1.92c-1.087,0.36-1.928,1.588-3.12,1.92
	c-1.685,0.469-2.08-0.684-2.88-0.961C106.159,305.622,105.279,305.622,104.399,305.622z"/>
<path fill="#84B93B" d="M170.399,329.861c0.046-4.604,2.447-7.104,3.359-10.8c1.564-6.339-2.838-13.314-5.039-16.318
	c-3.133-4.275-7.554-7.793-11.281-11.521c-1.551-1.553-2.822-3.975-4.559-5.28c-0.5-0.375-1.186,0.001-1.921-0.239l-4.319-1.681
	c0-1.278,0-2.562,0-3.84c-0.463-0.737-1.429-5.664-1.44-6.96c1.14,0.176,1.775,0.727,2.64,0.96c3.16,0.851,9.876-2.198,12.48-2.64
	c1.185,2.431,2.818,4.765,4.08,7.2c0.484,0.938,0.52,2.516,1.199,3.36c0.432,0.534,1.552,0.567,1.92,1.2c0,0.318,0,0.64,0,0.96
	c0.596,0.934,2.776,1.852,3.601,2.64c1.22,1.169,2.534,3.628,3.601,5.04c2.455,3.254,6.2,5.578,7.439,10.08
	c-0.986,0.259-1.079,0.633-1.68,1.2c0.082,1.934,0.995,2.061,1.199,3.84c-1.821,1.085-4.71,2.206-5.039,4.8
	c3.27,3.132,5.404,6.853,6.479,12.24c-0.24,0.16-0.479,0.319-0.72,0.479c-1.273,0.822-3.125,0.631-4.32,1.439
	c-1.393,0.941-1.541,3.086-3.6,3.359C173.612,329.984,171.865,329.893,170.399,329.861z"/>
<path fill="#84B93B" d="M79.199,313.062c-0.64-0.08-1.28-0.16-1.92-0.239c-0.243-0.93-0.934-1.262-1.2-1.921c0-0.96,0-1.92,0-2.88
	c-0.156-0.492-0.709-1.386-0.96-1.92c4.886-3.15,6.876-11.445,3.12-17.52c-1.043-1.688-4.692-4.916-5.04-6.48
	c1.669-2.154,4.123-7.559,7.44-7.68c1.238,0.895,2.887,1.033,4.08,1.92c0.949,0.706,1.037,2.079,1.68,3.12
	c1.417,2.293,3.183,4.535,4.8,6.721c2.945,3.979,6.689,7.443,9.36,11.76c1.536,2.482,2.013,5.448,3.12,8.4
	c0.649,0.213,2.012-0.059,2.88,0.24c1.246,0.428,1.914,1.535,4.08,0.719c1.104-0.416,2.118-1.559,3.36-1.92
	c0.611-0.178,1.445,0.197,1.68,0.24c0.721-0.08,1.441-0.16,2.16-0.24c1.71,0.59,0.952,1.904,4.08,1.92
	c1.093-2.963,7.678-2.783,10.08-4.559c1.662-1.229,2.373-4.072,3.6-5.762c2.334-3.21,6.824-4.736,9.121-7.92
	c0.64-1.359,1.279-2.721,1.92-4.08c1.402,0.516,2.8,1.282,4.08,1.682c0.479,0,0.959,0,1.439,0c0.818,0.401,1.595,2.131,2.16,2.879
	c1.205,1.598,3.129,3.129,4.561,4.561c4.73,4.73,9.674,8.906,12.479,15.6c0.816,1.945,2.289,5.494,1.44,8.881
	c-0.569,2.271-1.815,4.461-2.64,6.479c-0.566,1.388-0.321,3.886-1.2,5.04c-2.171,1.916-7.702,3.588-10.56,4.8
	c-1.635,0.694-3.699,0.39-3.84,2.64c-0.935,1.562,0.336,3.593-0.24,5.281c-0.514,1.502-2.34,2.524-3.36,3.6
	c-3.499,0.009-5.49-2.336-9.12-1.439c-3.416,0.844-4.928,4.688-10.56,3.36c-4.046-0.953-7.901-3.601-12-3.841
	c-1.074,0.982-2.787,1.136-4.08,1.92c-3.436,2.084-6.396,4.117-8.16,7.921c1.321,0.065,1.972,0.512,2.88,0.959
	c0,0.079,0,0.159,0,0.239c-1.019,0.104-2.628,0.539-3.6,0c-0.16-0.239-0.32-0.479-0.48-0.719c-1.141-0.474-3.988,0.047-4.8,0.238
	c-3.59,0.85-6.119,1.34-7.92,3.842c-0.501,0.695-0.634,1.551-1.2,2.158c0-0.08,0-0.158,0-0.238c-2.958-1.674-5.623-4.09-8.88-5.521
	c-4.619-2.029-9.558-3.512-13.68-6c-2.042-1.232-6.396-2.832-7.2-5.039c3.353-0.242,4.924-2.542,6.96-4.08
	c3.636-2.748,7.099-6.445,9.84-10.08c1.408-1.867,3.378-3.102,4.08-5.76C84.17,320.055,79.462,317.536,79.199,313.062z"/>
<path fill="#84B93B" d="M182.399,302.743c4.742,1.77,7.938,11.676,10.081,16.559c1.021,2.332,2.938,4.011,4.08,6.24
	c-5.69,1.504-3.797,4.252-6.241,8.16c-0.818,1.309-6.917,5.707-8.641,6c-1.357-2.203-1.985-5.175-3.359-7.439
	c-0.498-0.822-1.761-1.992-1.44-2.881c1.427-4.16,6.953-2.389,7.2-6c-0.29-0.473-0.046-1.188-0.24-1.92
	c-0.384-1.448-1.141-3.301-1.92-4.561c-1.157-1.87-3.754-3.496-4.08-6c1.622-1.035,3.416-2.294,4.801-3.602
	c-0.004-2.129-0.867-2.246-1.201-3.84C181.79,303.256,182.126,303.027,182.399,302.743z"/>
<path fill="#84B93B" d="M196.56,326.502c0.498,0.088,0.461,0.058,0.719,0.238c1.718,1.713,2.427,4.469,3.84,6.479
	c2.14,3.045,5.518,5.171,7.681,8.159c1.747,2.416,2.794,5.306,4.56,7.681c1.201,1.614,3.18,3.097,4.802,4.319
	c2.378,1.798,4.339,4.408,6.479,6.48c0.938,0.908,2.736,0.93,3.359,2.16c-0.479,0.359-0.881,0.932-1.2,1.439
	c-1.096-0.563-1.71-1.527-2.64-2.16c-1.729-1.174-3.426-1.906-5.041-3.119c-1.963-1.475-3.32-3.771-4.799-5.76
	c-0.971-1.307-2.633-2.299-3.602-3.602c-1.357-1.828-2.217-3.938-3.601-5.76c-0.449-0.594-1.438-0.664-1.92-1.2
	c-0.757-0.844-0.79-2.459-1.439-3.358c-0.614-0.854-2.12-2.211-3.12-2.642c-0.56-0.08-1.119-0.159-1.68-0.239
	c-1.359-1.439-2.72-2.881-4.08-4.32c-0.902-0.652-1.927-0.567-2.398-1.68c0.08,0,0.16,0,0.238,0
	C193.367,327.771,195.167,327.596,196.56,326.502z"/>
<path fill="#84B93B" d="M181.155,347.206c-3.723,6.549-6.398,5.217-12.196,9.295c-1.077,0.76-2.187,1.938-3.12,2.881
	c-0.08,0.24-0.16,0.479-0.24,0.721c-0.64,0.08-1.279,0.16-1.92,0.24c-2.289,0.832-4.799,1.309-7.439,2.158
	c-3.129,1.008-6.953,1.846-10.32,2.641c-1.119,0.08-2.24,0.16-3.359,0.24c-2.975,1.068-6.23,2.676-8.881,4.32
	c-5.246,3.256-10.067,6.986-15.359,10.319c-2.135,1.345-3.765,3.015-7.2,3.119c-2.805-2.668-6.577-3.986-11.04-5.039
	c0.971-7.87-6.949-9.168-7.2-16.562c2.591-2.742,2.347-4.332,6.96-5.52c4.232-1.09,7.135,1.661,10.8,0.24
	c0.144-0.414,0.214-0.758,0.24-1.44c-0.648-0.386-1.827-0.905-2.4-1.44c0.193-0.244,0.085-0.064,0.24-0.479
	c1.719-1.182,2.962-3.158,4.8-4.32c1.828-1.154,4.467-1.646,6-3.119c4.12,0.94,10.965,5.444,16.8,3.84
	c2.285-0.629,3.438-2.778,5.76-3.359c3.229-0.809,6.578,2.898,9.359,1.199c1.789-0.623,2.611-2.619,3.841-3.84
	c0.002-2.352,0.066-4.174,0.239-6.479c4.825-0.577,10.131-4.642,14.4-6c1.28,0,2.561,0,3.84,0c0.613-0.146,1.297-0.401,2.16-0.479
	c0.715,1.613,1.951,2.998,2.641,4.561c0.613,1.393,0.601,3.251,1.439,4.561c0.4,0.625,1.906,3.744,2.156,4.869"/>
<path fill="#84B93B" d="M182.155,340.706c0.729-0.677,1.812-0.652,2.644-1.244c3.43-2.439,5.825-4.035,7.681-8.16
	c0.42,0.152,0.232,0.047,0.479,0.24c1.864,0.625,3.496,2.776,4.8,4.08c0.146,0.146,0.342,0.868,0.48,0.959
	c0.72,0.08,1.438,0.16,2.16,0.24c1.686,0.857,3.363,3.194,3.84,5.28c-2.275,1.335-3.488,3.767-5.521,5.278
	c-0.97,0.724-2.257,1.093-3.119,1.92c-3.554-1.588-8.534-2.771-12.633-3.861c-0.273-0.073,0.328-2.411,0.063-2.482"/>
<path fill="#84B93B" d="M204.718,342.821c2.545,0.747,3.829,4.766,5.28,6.721c4.214,5.679,9.599,10.481,15.601,14.399
	c0,0.16,0,0.32,0,0.479c-2.828,0.856-4.72,3.395-7.199,4.32c-0.459-1.912-1.812-3.705-2.4-5.281c-0.16-1.119-0.32-2.239-0.48-3.358
	c-0.422-1.263-1.33-2.25-1.92-3.36c-2.271-0.033-6.924,0.793-9.358,0c-3.043-0.988-7.863-3.035-8.16-6.72
	C198.131,349.499,203.591,344.446,204.718,342.821z"/>
<path fill="#84B93B" d="M15.359,345.221c4.724,0.01,9.896-0.192,14.16,0.721c3.887,0.832,8.891-0.258,12.48-0.24
	c2.61,0.014,4.033,1.993,7.44,1.2c3.8-0.885,6.476-2.386,11.28-2.399c4.524,6.641,18.412,9.248,25.68,13.681
	c1.053,0.642,5.06,3.146,5.52,4.08c0,0.399,0,0.799,0,1.198c0.429,1.334,1.158,2.933,1.92,4.08c2.647,3.987,5.426,4.773,5.28,11.281
	c4.379,1.002,8.878,2.486,11.52,5.279c5.803,0.125,9.262-3.805,12.72-6.24c5.261-3.705,13.401-9.908,20.159-11.52
	c-0.052,2.752,0.096,5.605,0.961,7.68c0.534,1.281,1.603,2.295,1.92,3.84c-1.074,1.213-1.295,3.141-2.16,4.561
	c-1.798,2.951-3.948,5.67-6,8.398c-4.81,6.398-12.558,11.352-16.32,18.721c-1.039,0.08-2.08,0.16-3.119,0.24
	c-0.938,1.369-2.332,2.272-2.881,4.08c-1.921,6.33,3.254,12.887,3.36,19.68c-0.08,0-0.16,0-0.239,0c0,0.08,0,0.16,0,0.24
	c-1.92,0.318-3.841,0.641-5.761,0.959c-1.84,0.08-3.68,0.16-5.52,0.24c-3.589,0.811-6.904,1.096-9.84,2.4
	c-2.377,1.057-4.682,3.023-6.72,4.561c-0.8,0.879-1.6,1.76-2.4,2.639c0,0-2.657,0.135-3.12,0.24c-0.1,0.662-0.066,1.34-0.24,1.68
	c-1.496,1.842-5.852,2.434-8.88,2.641c-0.934,1.436-2.623,2.258-3.6,3.602c-0.413,0.566-0.489,1.195-0.96,1.68
	c-0.026,3.355,1.476,2.836,1.92,5.041c-0.724,0.688-0.65,1.674-0.96,2.16c-1.454,1.367-3.685,2.162-6,2.639
	c-3.477-6.227-7.208-12.398-11.04-18.479c-1.463-2.322-4.646-6.383-5.52-8.881c0-1.68,0-3.359,0-5.039
	c-0.32-0.24-0.64-0.48-0.96-0.721c-1.159-1.592-2.555-3.459-3.36-5.279c-1.714-3.875-2.292-8.045-3.84-12.24
	c-0.54-1.463-1.556-3.047-1.44-4.561c1.328-0.979,4.773-5.87,3.12-8.16c-0.509-1.102-1.712-1.297-2.4-2.158
	c-1.81-2.27-3.457-4.707-5.52-6.721c-0.88-0.641-1.76-1.281-2.64-1.92c-0.24-1.041-0.48-2.08-0.72-3.121c-1.84-3.999-3.68-8-5.52-12
	c-2.423-3.986-4.247-8.413-6.72-12.479C17.324,357.445,14.397,353,15.359,345.221z"/>
<path fill="#84B93B" d="M149.518,487.542c0.499-0.09,0.463-0.059,0.721-0.24c0.395-0.596,0.27-2.137,0.24-3.121
	c-1.385-1.412,1.476-5.096,0.72-7.92c-0.468-1.744-1.578-3.715-1.681-5.76c-0.239,0-0.479,0-0.719,0
	c0.184-4.816,0.706-7.76,0.719-12.959c-0.424-0.23-0.402-0.303-0.959-0.48c-0.258-0.18-0.228-0.145-0.721-0.24
	c0.004-16.131-14.143-20.566-27.6-23.279c0-1.039,0-2.08,0-3.119c-0.678-0.99-0.528-2.629-0.96-3.842
	c-1.344-3.77-6.071-15.858,2.16-15.84c0.282-0.191,0.403-0.186,0.96-0.238c2.424-4.15,6.137-6.938,8.88-10.561
	c1.929-2.548,4.59-4.461,6.479-6.961c3.793-5.016,7.228-9.471,9.84-15.84c-2.377-1.866-3.121-6.613-3.119-10.799
	c0.08,0,0.16,0,0.24,0c0-0.08,0-0.16,0-0.24c3.178-0.023,6.317-0.82,9.119-1.68c2.028-0.623,4.307-0.967,6.48-1.682
	c1.473-0.482,2.986-1.357,4.8-1.439c0,0,1.667,0.756,2.88,0.48c2.138-0.486,4.756,0.075,7.2-0.48
	c6.773-1.541,18.944,1.48,19.44,6.721c-1.816,1.863-2.644,4.861-1.922,7.92c5.68,2.479,11.36,4.96,17.04,7.439
	c0.08,1.6,0.16,3.199,0.24,4.801c0.543,2.068,2.479,5.779,1.438,8.879c-0.531,1.591-1.653,2.001-1.68,4.561
	c1.032,0.629,1.465,1.127,1.439,2.881c-0.399,1.439-0.799,2.879-1.199,4.318c-1.473,2.324-4.293,1.694-4.801,5.281
	c1.42,0.945,2.209,2.613,3.361,3.84c1.385,1.477,4.033,3.9,4.559,6c0.443,1.771-3.986,5.445-5.039,6.238
	c-3.107,2.342-5.803,5.576-8.881,7.92c-1.539,1.174-3.357,2.613-3.6,5.041c0.586,0.803,3.276,6.244,3.119,6.48
	c-1.58,2.369-5.548,4.145-10.319,3.119c-1.394-0.299-3.744-0.871-5.521-0.48c-2.661,0.588-4.85,1.281-6.72,2.641
	c-3.834,2.785-5.271,7.473-6.48,12.961c-0.657,2.98-0.152,7.658,0.48,10.08c0.248,0.951,1.02,2.646,0.48,3.6
	c-1.914,5.639-9.584,6.256-15.36,8.16c-1.862,0.613-3.706,1.809-5.521,2.398c0-0.158,0-0.318,0-0.479
	C149.262,490.864,149.487,488.723,149.518,487.542z"/>
<text transform="matrix(1 0 0 1 13.5718 546.1646)" font-family="'MyriadPro-Regular'" font-size="24">Gouvernorat de Sousse</text>
<text transform="matrix(1 0 0 1 81.0059 163.3521)" font-family="'MyriadPro-Regular'" font-size="12">Bouficha</text>
<text transform="matrix(1 0 0 1 49.0059 211.3521)" font-family="'MyriadPro-Regular'" font-size="12">Enfidha</text>
<text transform="matrix(1 0 0 1 37.0059 296.3521)" font-family="'MyriadPro-Regular'" font-size="12">Kondar</text>
<text transform="matrix(1 0 0 1 101.0059 245.3521)" font-family="'MyriadPro-Regular'" font-size="12">Hergla</text>
<text transform="matrix(1 0 0 1 86.0059 274.3521)" font-family="'MyriadPro-Regular'" font-size="12">Sidi Bou Ali</text>
<text transform="matrix(1 0 0 1 92.0059 332.3521)" font-family="'MyriadPro-Regular'" font-size="12">Kala Kebira</text>
<text transform="matrix(1 0 0 1 55.0059 400.3521)" font-family="'MyriadPro-Regular'" font-size="12">Sidi el Hni</text>
<text transform="matrix(1 0 0 1 149.0063 416.3521)" font-family="'MyriadPro-Regular'" font-size="12">M&apos;saken</text>
<path fill="#84B93B" d="M182.44,346.352c2.33,0.156,11.307,2.143,12.479,3.359c0.16,0.561,0.32,1.121,0.479,1.681
	c0.763,1.487,2.217,2.976,3.602,3.84c2.243,1.399,4.643,1.728,7.68,2.399c2.34,0.519,4.549-0.393,6.24-0.239
	c1.863,2.956,2.537,7.202,4.08,10.562c1.204,2.621,3.507,3.073,3.6,7.198c-0.361,0.472-0.363,1.153-0.72,1.681
	c-1.524,2.254-6.017,4.787-9.12,5.279c-1.484,0.235-3.474-1.449-4.56-1.92c-4.406-1.906-8.597-3.511-12.722-5.521
	c-0.468-3.789,2.028-4.604,2.16-8.398c-0.611-0.496-0.494-1.018-0.959-1.68c-0.721-1.025-3.146-2.371-4.32-2.881
	c-6.514-2.822-15.912-1.41-24-1.199c0-0.08,0-0.16,0-0.24c0.193-0.245,0.085-0.064,0.24-0.48c1.633-1.053,2.889-2.781,4.56-3.84
	C175.084,353.469,181.137,351.327,182.44,346.352z"/>
<text transform="matrix(1 0 0 1 242.2295 374.5854)" font-family="'MyriadPro-Regular'" font-size="12">Sousse Riadh</text>
<text transform="matrix(1 0 0 1 241.3369 353.4595)" font-family="'MyriadPro-Regular'" font-size="12">Sousse Jawhara</text>
<text transform="matrix(1 0 0 1 232.501 333.9448)" font-family="'MyriadPro-Regular'" font-size="12">Sousse Mdina</text>
<text transform="matrix(1 0 0 1 211.3643 315.0132)" font-family="'MyriadPro-Regular'" font-size="12">Sousse Sidi Abdelhamid</text>
<text transform="matrix(1 0 0 1 199.8799 295.6343)" font-family="'MyriadPro-Regular'" font-size="12">Hammam Sousse</text>
<line fill="none" stroke="#000000" x1="238.349" y1="373.726" x2="209.222" y2="372.754"/>
<line fill="none" stroke="#000000" x1="238.028" y1="352.542" x2="206.31" y2="351.396"/>
<line fill="none" stroke="#000000" x1="230.26" y1="333.124" x2="208.798" y2="341.381"/>
<line fill="none" stroke="#000000" x1="206.31" y1="314.502" x2="193.688" y2="342.659"/>
<line fill="none" stroke="#000000" x1="196.601" y1="296.056" x2="187.863" y2="318.385"/>
<text transform="matrix(1 0 0 1 182.5864 275.5474)" font-family="'MyriadPro-Regular'" font-size="12">Akouda</text>
<line fill="none" stroke="#000000" x1="179.308" y1="275.968" x2="170.571" y2="298.299"/>
<text transform="matrix(1 0 0 1 106.0059 367.3521)" font-family="'MyriadPro-Regular'" font-size="12">Kala Sghira</text>
</svg>
