<?xml version="1.0" encoding="utf-8"?>
<!-- Generator: Adobe Illustrator 13.0.0, SVG Export Plug-In . SVG Version: 6.00 Build 14948)  -->
<!DOCTYPE svg PUBLIC "-//W3C//DTD SVG 1.0//EN" "http://www.w3.org/TR/2001/REC-SVG-20010904/DTD/svg10.dtd">
<svg version="1.0" id="Calque_1" xmlns="http://www.w3.org/2000/svg" xmlns:xlink="http://www.w3.org/1999/xlink" x="0px" y="0px"
	 width="592.773px" height="568.508px" viewBox="0 0 592.773 568.508" enable-background="new 0 0 592.773 568.508"
	 xml:space="preserve">
<path fill="#85BA3B" d="M116.052,117.442c5.919-1.6,11.84-3.2,17.76-4.8c2.367-0.726,5.896-0.731,7.68-2.16
	c0.704-0.737,0.873-1.738,1.44-2.64c1.681-2.675,4.273-6.262,6.96-7.92c4.48-2.764,12.605-1.612,17.04-4.56
	c3.58-2.38,6.075-6.179,8.64-9.6c0.56-0.48,1.12-0.96,1.68-1.44c0.93-1.234,2.06-2.793,3.36-3.6c2.23-1.384,7.435-0.313,9.6-1.68
	c2.839-3.055,2.55-5.347,7.44-6.96c1.939-0.639,6.191,0.208,7.68-0.479c1.32-0.86,2.26-2.329,3.84-2.88c0,0.56,0,1.12,0,1.68
	c-0.561,2.8-1.12,5.6-1.68,8.4c-1.299,4.01-2.428,8.157-3.84,12.24c-0.39,1.124-1.785,3.622-1.44,5.04
	c0.198,0.816,1.165,2.514,1.68,3.36c2.017,3.307,4.515,6.674,7.2,9.36c1.163,1.163,3.684,2.282,4.08,4.08
	c-0.316,0.328-0.509,0.763-0.721,1.2c-3.961,0.274-13.189,2.79-15.839,4.56c-2.319,1.548-3.87,4.229-5.52,6.48
	c-2.686,3.663-5.85,7.209-8.4,11.04c-1.608,2.417-4.181,7.746-6.24,9.36c-1.469,1.032-4.221,0.791-6,1.44
	c-4.041,1.475-8.033,3.306-12,4.8c-2.351,0.885-5.896,0.438-6,3.6c1.364,2.074,1.963,7.833,2.88,10.56
	c1.833,5.453,3.892,11.125,6.48,16.08c2.78,5.322,6.124,10.429,9.6,15.12c2.592,3.498,6.172,6.162,7.44,11.04
	c-1.873,0.018-4.084,1.496-5.28,1.2c-0.726-0.18-1.703-1.14-2.4-1.44c-2.174-0.936-5.694-1.656-8.64-0.96
	c-1.354,0.32-3.154,0.423-4.56,0.96c-1.985,0.758-3.563,2.528-5.52,3.36c-4.003,1.701-9.083,1.66-12.96,3.36
	c-3.443,1.509-6.55,4.205-10.08,5.76c-8.277,3.645-17.277,6.65-26.16,9.6c-8.784,2.917-17.041,4.781-25.92,7.68
	c-2.96,1.12-5.92,2.24-8.88,3.36c-4.054,1.308-8.053,1.115-12,2.4c-9.889,3.218-20.529,6.389-30.24,9.6
	c-6.479,1.6-12.961,3.2-19.44,4.8c0-0.16,0-0.32,0-0.48c2.31-0.748,9.708-5.914,11.04-7.68c0.582-0.771,0.965-2.014,1.68-2.64
	c1.04-0.32,2.08-0.64,3.12-0.96c3.169-1.37,5.913-3.941,6.96-7.44c1.033-3.451-0.803-7.505,0-11.04
	c1.635-7.203,4.458-12.313,7.92-17.521c1.011-1.521,1.938-4.754,3.84-5.28c2.139-1.371,6.715-0.999,9.6-1.68
	c3.245-0.766,7.397-0.698,10.8-1.44c1.04,0,2.08,0,3.12,0c4.565-1.003,12.465-0.937,17.52-0.96
	c3.215-0.015,14.035,0.305,14.88-1.439c0-0.56,0-1.12,0-1.68c0.24-2.48,0.48-4.96,0.72-7.44c1.214-4.973,1.792-9.951,3.36-14.64
	c3.336-9.975,6.769-19.862,10.08-30c1.625-4.973,1.635-10.414,2.88-15.84C117.086,126.221,116.094,120.714,116.052,117.442z"/>
<path fill="#85BA3B" d="M177.972,146.722c0.755,0.675,0.53,2.902,0.48,4.32c1.06,1.036,1.742,2.396,2.64,3.6
	c2.101,2.815,4.966,5.207,7.44,7.68c1.04,1.12,2.08,2.24,3.12,3.36c2.953,2.231,5.264,5.251,8.161,7.44
	c3.026,2.287,6.375,5.375,8.639,8.4c1.972,2.633,3.979,5.39,5.521,8.4c1.45,2.831,1.89,5.415,4.32,7.2
	c9.757,7.17,22.662,11.708,34.56,16.56c1.904,0.776,3.706,0.779,5.76,1.44c6.25,2.012,13.28,3.896,16.801,8.64
	c2.437,3.283,3.779,7.219,6,10.8c1.336,2.155,3.23,3.5,3.84,6.48c0.723,3.537-3.564,8.817-2.88,10.56
	c0.459,1.69,1.792,2.091,2.88,3.12c3.15,0.164,5.879-0.313,8.64-0.96c1.355-0.317,2.388,0.58,3.12,0.24
	c1.09-0.847,1.67-2.698,2.88-3.36c1.384-0.757,3.273-0.096,5.04-0.48c3.498-0.76,7.338-0.383,11.04-1.2
	c2.102-0.463,4.563-0.196,6.96-0.72c7.007-1.528,21.365-1.514,28.08,0.24c2.641,0.72,5.28,1.44,7.92,2.16
	c1.045,0.424,2.54,1.377,3.602,1.68c1.466,0.418,3.506-0.649,4.56-0.96c3.36-0.64,6.721-1.28,10.08-1.92
	c4.729-1.031,9.057,1.031,12,1.92c2.56,0.773,4.33-0.939,6.24-1.2c0,0.16,0,0.32,0,0.48c-4.823,3.407-4.708,6.929-5.521,14.16
	c-4.201,1.44-3.663,8.651-6,12c-3.016,4.325-7.667,7.355-10.8,11.521c-4.9,6.518-9.418,13.151-14.16,19.92
	c-9.411,13.434-19.5,22.043-32.64,31.68c-5.133,3.765-10.127,8.078-15.36,11.761c-4.063,2.858-8.15,5.678-12.238,8.399
	c-1.854,1.232-4.235,2.035-5.761,3.601c-1.311-0.474-1.98-1.74-2.88-2.64c-2-1.922-4-3.842-6-5.762
	c-0.88-0.959-1.76-1.92-2.64-2.879c-4.413-3.336-10.098-9.256-13.44-13.681c-1.251-1.655-3.304-2.896-4.56-4.56
	c-4.67-6.188-10.229-11.604-14.881-17.761c-1.93-2.555-7.282-6.881-10.08-8.642c-1.895-1.19-4.535-1.77-5.76-3.6
	c-2.523-3.772,0.631-10.033-0.959-14.16c-2.873-1.617-5.023,1.389-8.16,1.439c-3.979,0.066-10.674-4.802-12.48-7.2
	c-5.77-7.656-9.83-17.051-13.2-27.12c-0.726-2.168-0.581-4.176-1.2-6.48c-1.933-7.188-2.304-15.267-4.56-22.08
	c-2.212-6.68-5.752-12.249-9.12-17.76c-1.843-3.017-2.356-6.61-4.32-9.36c-1.216-1.703-3.073-3.131-4.32-4.8
	c-1.474-1.972-2.702-3.92-4.08-6c-5.276-7.962-8.791-16.563-12.24-26.64c-0.412-1.203-2.848-8.771-2.4-9.36
	c1.2-1.564,4.486-1.648,6.48-2.4c3.454-1.303,7.001-3.145,10.56-4.32C174.27,147.401,176.646,147.614,177.972,146.722z"/>
<path fill="#85BA3B" d="M167.172,207.682c3.362,0.291,5.896,1.283,8.16,2.64c-2.97,8.188-4.885,16.534-8.16,24.479
	c-5.078,12.319-9.635,24.915-12.96,38.88c-1.282,5.385,2.12,13.559,3.12,17.76c0.08,2.08,0.16,4.16,0.24,6.24
	c0.525,2.309-0.097,5.169,0.48,7.68c1.05,4.566,1.239,9.465,3.36,12.961c3.927,6.471,9.286,11.789,13.68,17.76
	c8.988,12.211,19.266,23.197,28.32,35.279c3.309,4.416,7.441,8.262,10.8,12.721c4.62,6.135,10.716,11.09,15.36,17.279
	c1.86,2.48,5.435,5.071,6,8.641c-2.439,1.586-3.979,4.287-6.24,6c-4.653,3.521-8.346,8.271-12.96,11.76
	c-4.132,3.125-7.662,7.004-11.761,10.08c-10.802,8.107-20.742,17.166-31.68,25.201c-5.286,3.883-10.263,8.291-15.6,12.238
	c-1.321,0.979-5.129,4.838-6.24,4.801c-1.82-1.873-2.894-4.453-4.32-6.721c-2.467-3.92-4.902-7.953-7.44-12
	c-6.95-11.084-13.74-22.43-21.36-32.879c-2.803-3.844-6.257-7.225-9.12-11.041c-2.518-3.355-6.313-5.699-8.88-9.119
	c-1.678-2.236-4.044-3.955-5.76-6.24c-0.96-0.881-1.92-1.76-2.88-2.641c-2.479-2.479-5.086-5.104-7.2-7.92
	c-0.96-0.88-1.92-1.76-2.88-2.641c-3.734-4.948-8.915-9.188-11.52-15.119c-3.028-6.896-0.85-18.04,0.96-24.721
	c0.567-2.092,0.486-4.328,0.96-6.24c1.118-4.504,0.241-10.656,0.24-15.6c0-2.72,0-5.439,0-8.16c-0.366-1.674-0.708-5.394-0.24-7.439
	c0.24-3.119,0.48-6.24,0.72-9.359c1.058-4.383,2.262-8.479,3.6-12.479c2.026-6.055,2.202-12.797,3.84-19.2
	c0.655-2.563,0.374-5.305,0.96-7.68c0.858-3.479,0.157-7.278,0.96-10.56c0.767-3.134-0.004-6.878,0.72-9.84
	c0.419-1.715-0.408-3.819,0.48-4.32c1.721-1.272,4.291-1.344,6.48-2.16c5.699-2.123,11.768-3.509,17.76-5.52
	c7.927-2.661,16.072-5.357,23.52-8.64c4.254-1.875,8.03-4.932,12.24-6.72c4-0.96,8-1.92,12-2.88c1.925-0.827,3.459-2.659,5.52-3.36
	C162.692,208.482,164.932,208.082,167.172,207.682z"/>
<path fill="#85BA3B" d="M179.892,209.122c0.48,0,0.96,0,1.44,0c0.661,2.858,2.909,5.394,4.32,7.68c2.502,4.056,4.376,8.88,6,13.68
	c2.296,6.789,2.063,14.647,4.08,21.84c3.321,11.841,7.139,22.046,13.44,30.72c1.146,1.579,2.298,3.403,3.84,4.56
	c2.904,2.176,6.131,3.896,10.32,4.801c1.938,0.418,6.287-2.47,6.96-1.92c0.688,0.27,0.442,0.041,0.72,0.719
	c0.43,0.754-0.031,3.111-0.24,4.08c-0.718,3.33-0.172,7.572,1.2,9.602c1.255,1.854,3.821,2.396,5.761,3.601
	c2.404,1.492,7.719,5.75,9.359,7.92c2.264,2.994,5.213,5.429,7.439,8.399c6.5,8.677,13.998,16.64,21.6,24.24
	c3.641,3.64,7.4,7.158,11.04,10.799c1.38,1.381,3.858,2.861,4.56,4.801c-3.012,1.956-5.088,5.298-7.92,7.439
	c-5.752,4.351-10.996,9.416-16.8,13.68c-7.384,5.427-14.524,11.185-21.84,16.562c-2.813,2.067-6.04,3.953-8.399,6.479
	c-0.16,0-0.32,0-0.48,0c-1.199-3.896-4.954-6.629-7.2-9.602c-5.533-7.318-12.728-13.334-18.24-20.639
	c-10.858-14.393-23.302-27.443-34.08-42c-4.791-6.471-12.111-12.961-15.36-20.641c-1.769-4.18-1.519-9.116-2.64-14.16
	c-0.08-2.721-0.16-5.439-0.24-8.16c-0.4-2.4-0.8-4.801-1.2-7.199c-1.137-3.547-3.253-8.521-1.92-13.681
	c2.716-10.516,5.977-20.39,9.84-29.76c3.183-7.721,5.523-15.736,8.4-23.52c0.55-1.487,1.98-8.451,2.64-9.12
	C177.492,209.922,178.692,209.522,179.892,209.122z"/>
<path fill="#85BA3B" d="M81.492,238.402c0.078,4.587-0.054,9.6-0.96,13.68c-0.08,1.84-0.16,3.68-0.24,5.521
	c-0.56,4.799-1.12,9.601-1.68,14.4c-0.897,3.703-1.101,7.766-2.16,11.52c-1.905,6.753-3.652,13-5.28,20.16
	c-0.08,2.562-0.16,5.12-0.24,7.68c-0.439,2.021-0.444,5.901,0,7.921c0,4.079,0,8.159,0,12.239c0,2.722,0,5.44,0,8.16
	c-0.53,2.437-0.332,5.169-0.96,7.68c-1.669,6.668-4.379,18.981-1.44,26.16c1.713,4.185,4.719,6.791,7.2,10.08
	c5.168,6.853,11.915,12.181,17.04,18.961c1.28,1.199,2.56,2.399,3.84,3.601c5.68,7.504,13.351,13.252,18.96,20.879
	c8.524,11.592,15.76,23.986,23.52,36.48c2.351,3.783,4.693,7.742,7.2,11.52c1.276,1.922,3.314,3.949,4.08,6.24
	c-1.699,1.127-3.09,3.41-4.32,5.041c-1.521,2.014-3.969,3.982-6,5.52c-1.703,1.285-3.08,3.271-4.8,4.561
	c-8.793,6.582-18.39,12.859-29.04,17.52c-4.911,2.148-9.748,3.422-14.88,5.521c-4.23,1.729-11.596,4.59-16.56,5.041
	c-0.4-1.346-1.487-2.301-2.16-3.361c-2.02-3.182-4.046-6.281-6-9.359c-6.169-9.719-12.407-19.303-18.48-29.041
	c-6.751-10.824-12.43-22.086-17.76-34.318c-1.526-3.504-2.753-7.221-4.32-11.041c-0.607-1.479-1.966-3.883-2.16-5.52
	c-0.123-1.041,1.147-3.41,1.44-4.561c0.792-3.107,0.34-7.861-0.48-10.561c-1.822-5.995-4.548-11.059-6.96-16.561
	c-0.808-1.844-2.063-3.644-2.4-6c1.911-1.742,3.699-3.703,6.24-4.801c-2.593-6.982-6.224-11.459-11.76-15.359
	c-1.938-1.364-8.162-4.723-8.64-6.959c0.64-1.762,1.28-3.521,1.92-5.28c1.133-2.211,3.855-5.586,4.56-7.681
	c0.855-2.541-1.271-10.879-1.92-12.479c-1.598-3.938-3.277-7.58-4.8-11.761c-0.446-1.225-1.452-3.297-0.96-5.278
	c1.107-4.459,5.543-7.116,6.96-12.479c1.685-6.379-1.887-13.541-0.48-19.92c0.64-2.879,1.28-5.761,1.92-8.64
	c0.941-2.958,2.663-7.794,1.68-12.24c-0.968-4.378-3.28-7.62-3.36-12.24c3.819-0.062,7.595-1.428,10.8-2.4
	c3.225-0.979,6.183-1.113,9.36-2.16c3.781-1.247,7.772-2.838,11.52-4.08c2.45-0.812,4.642-0.844,7.2-1.68
	c5.073-1.659,10.513-3.552,15.84-5.04c3.262-0.911,6.072-0.677,9.36-1.68C74.344,240.961,77.583,238.801,81.492,238.402z"/>
<text transform="matrix(1 0 0 1 67.0596 562.5083)" font-family="'MyriadPro-Regular'" font-size="24">Gouvernorat de Tozeur</text>
<text transform="matrix(1 0 0 1 109.4937 198.6958)" font-family="'MyriadPro-Regular'" font-size="12">Tamaghza</text>
<text transform="matrix(1 0 0 1 39.4937 423.6968)" font-family="'MyriadPro-Regular'" font-size="12">Hazoua</text>
<text transform="matrix(1 0 0 1 108.4937 352.6968)" font-family="'MyriadPro-Regular'" font-size="12">Nefta</text>
<text transform="matrix(1 0 0 1 184.4937 322.6968)" font-family="'MyriadPro-Regular'" font-size="12">Tozeur</text>
<text transform="matrix(1 0 0 1 236.4937 273.6968)" font-family="'MyriadPro-Regular'" font-size="12">Deguech</text>
<g id="XMLID_2_">
	<g>
		<g id="XMLID_1_">
			<g>
				<polygon fill="#85BA3B" points="501.773,87.4 501.923,87.59 501.923,87.68 501.843,87.77 501.604,87.89 501.253,87.94 
					501.113,87.94 500.803,87.97 500.243,88.06 499.893,88.41 499.093,89.39 498.883,89.68 498.863,89.79 499.283,90.08 
					500.273,90.66 500.623,90.88 501.083,91.27 501.503,91.67 501.673,91.89 501.863,92.17 502.283,92.89 502.354,93 502.563,93.13 
					502.683,93.16 503.573,93.22 504.042,93.34 504.792,93.58 505.433,93.83 505.643,93.97 506.263,94.45 506.343,94.57 
					506.473,94.9 506.542,95.35 506.593,95.77 506.683,95.95 506.783,96.06 506.873,96.12 507.183,96.14 507.983,96.13 
					509.643,95.98 510.473,95.86 511.283,95.83 512.263,95.81 513.083,95.87 513.393,95.92 514.493,96.16 513.553,98.02 
					512.973,99.13 512.433,99.89 511.963,100.41 511.003,101.29 509.843,102.25 508.373,103.34 504.703,106.14 502.583,107.86 
					500.963,109.09 500.173,109.74 499.563,110.21 496.873,112.23 495.563,113.14 492.143,114.61 492.143,114.56 490.993,112.87 
					490.183,111.68 489.173,109.84 488.693,108.97 488.763,107.62 488.713,107.27 488.413,106.95 488.223,106.6 488.133,106.41 
					488.083,105.95 488.213,105.48 488.213,105.33 487.773,104.92 487.283,104.6 487.053,104.42 487.053,104.37 487.023,104.06 
					487.053,103.95 487.213,103.7 487.313,103.37 487.333,103 487.283,102.62 486.843,101.38 486.913,101.12 487.223,100.34 
					487.243,100.29 487.243,99.87 487.143,99.35 487.463,98.44 487.473,98.18 487.223,97.41 487.354,97.09 487.403,97 
					487.423,96.99 487.542,96.87 487.803,96.59 488.263,96.48 488.643,96.08 488.933,95.64 488.953,95.49 489.053,94.36 
					489.093,94.21 489.253,93.79 489.553,93.22 491.303,92.93 491.693,92.91 492.063,92.89 492.723,92.83 493.463,92.79 
					493.633,92.71 493.593,92.41 493.643,92.09 493.583,91.98 494.123,90.91 494.133,90.85 494.273,90.26 494.413,89.71 
					494.542,89.32 494.693,88.27 494.663,87.4 494.663,87.35 494.903,87.29 495.463,87.25 496.373,87.06 496.403,87.02 
					496.463,86.95 497.053,86.38 497.313,86.18 497.573,86.05 497.883,85.99 498.013,85.96 498.292,85.95 499.003,85.27 
					499.163,85.12 499.223,85.06 499.873,84.83 499.963,84.83 500.063,84.58 500.223,84.35 500.453,84.35 500.833,84.43 
					500.854,84.43 500.963,84.43 501.013,84.45 501.093,84.22 501.113,84.25 501.143,84.45 501.083,84.79 501.013,85.09 
					500.813,85.62 500.713,85.85 500.633,86.08 500.633,86.29 500.663,86.39 500.843,86.59 501.292,87.01 				"/>
			</g>
			<g>
				<polygon fill="none" stroke="#666666" stroke-width="0.25" stroke-linejoin="round" stroke-miterlimit="3.8637" points="
					521.053,0.25 521.133,0.27 521.273,0.41 521.453,0.54 521.473,0.7 521.303,0.88 521.213,0.91 521.003,0.82 520.343,1.02 
					520.093,0.95 520.042,0.88 520.073,0.77 520.423,0.55 520.792,0.52 520.883,0.47 520.943,0.33 				"/>
				<polygon fill="none" stroke="#666666" stroke-width="0.25" stroke-linejoin="round" stroke-miterlimit="3.8637" points="
					541.513,9.28 541.513,9.14 541.673,8.85 541.792,8.72 541.943,8.71 541.893,8.98 541.792,9.14 				"/>
				<polygon fill="none" stroke="#666666" stroke-width="0.25" stroke-linejoin="round" stroke-miterlimit="3.8637" points="
					565.893,11.95 565.823,11.91 565.843,11.7 566.013,11.56 566.053,11.39 566.183,11.35 566.292,11.6 566.503,11.87 
					566.393,11.95 				"/>
				<polygon fill="none" stroke="#666666" stroke-width="0.25" stroke-linejoin="round" stroke-miterlimit="3.8637" points="
					567.913,12.2 567.933,12.29 567.863,12.35 567.773,12.29 567.803,12.22 				"/>
				<polygon fill="none" stroke="#666666" stroke-width="0.25" stroke-linejoin="round" stroke-miterlimit="3.8637" points="
					571.613,48.79 571.463,48.76 571.403,48.67 571.453,48.58 571.633,48.35 571.873,48.37 571.993,48.62 571.843,48.73 				"/>
				<polygon fill="none" stroke="#666666" stroke-width="0.25" stroke-linejoin="round" stroke-miterlimit="3.8637" points="
					571.163,49.52 570.973,49.3 571.053,49.21 571.183,49.25 571.223,49.35 				"/>
				<polygon fill="none" stroke="#666666" stroke-width="0.25" stroke-linejoin="round" stroke-miterlimit="3.8637" points="
					571.943,53.1 571.792,53 571.463,52.91 571.403,52.84 571.433,52.75 571.673,52.83 571.973,53.04 				"/>
				<polygon fill="none" stroke="#666666" stroke-width="0.25" stroke-linejoin="round" stroke-miterlimit="3.8637" points="
					578.453,75.76 578.313,75.71 578.273,75.6 578.223,75.47 578.343,75.45 578.542,75.66 578.903,75.82 578.753,75.88 
					578.573,75.87 				"/>
				<polygon fill="none" stroke="#666666" stroke-width="0.25" stroke-linejoin="round" stroke-miterlimit="3.8637" points="
					576.183,76.36 576.063,76.25 576.093,76.2 576.233,76.18 576.354,76.31 576.443,76.42 576.393,76.45 				"/>
				<polygon fill="none" stroke="#666666" stroke-width="0.25" stroke-linejoin="round" stroke-miterlimit="3.8637" points="
					578.243,77.24 578.213,77.27 578.013,77.16 577.913,77.04 577.913,76.96 577.993,76.95 578.033,77.06 				"/>
				<polygon fill="none" stroke="#666666" stroke-width="0.25" stroke-linejoin="round" stroke-miterlimit="3.8637" points="
					578.303,77.74 578.263,77.56 578.333,77.42 578.542,77.31 579.013,77.32 579.053,77.38 579.023,77.44 578.743,77.44 
					578.513,77.5 578.363,77.71 				"/>
				<polygon fill="none" stroke="#666666" stroke-width="0.25" stroke-linejoin="round" stroke-miterlimit="3.8637" points="
					574.923,78.13 574.893,78.07 574.854,77.92 574.873,77.92 574.893,77.83 575.053,77.87 575.083,77.41 574.993,77.29 
					575.033,77.24 575.223,77.33 575.263,77.58 575.333,77.66 575.743,77.81 576.083,77.79 576.273,77.89 576.323,77.86 
					576.292,77.75 576.253,77.65 576.413,77.58 576.354,77.39 576.393,77.08 576.273,76.96 576.173,76.84 576.133,76.78 
					576.133,76.67 576.354,76.69 576.393,76.66 576.743,76.36 576.703,76.2 576.673,76.04 576.813,75.87 576.743,75.79 
					576.723,75.68 576.833,75.56 576.833,75.45 577.003,75.5 577.193,75.6 577.354,75.88 577.403,75.97 577.423,76.03 
					577.493,76.12 577.553,76.12 577.613,76.06 577.613,75.89 577.453,75.81 577.513,75.7 577.613,75.71 577.823,75.89 
					578.083,75.89 578.542,76.15 578.513,76.22 578.343,76.22 578.203,76.1 578.083,76.1 577.893,76.21 577.913,76.35 
					577.854,76.37 577.803,76.45 577.854,76.52 577.854,76.67 577.883,76.74 577.792,76.81 577.663,76.85 577.563,76.77 
					577.553,76.99 577.563,77.17 577.913,77.41 578.093,77.6 578.173,77.81 578.173,78.01 578.123,78.08 577.792,78.08 
					577.643,78.13 577.453,78.27 577.253,78.43 576.983,78.43 576.973,78.58 576.893,78.64 575.933,78.97 575.633,79.03 
					575.104,79.29 575.013,79.41 575.003,79.43 574.873,79.52 574.633,79.6 574.383,79.77 574.133,79.84 573.983,79.96 
					573.933,79.95 573.913,79.95 573.883,79.62 574.053,79.35 574.093,79.16 574.163,79 574.333,78.92 574.493,78.79 574.663,78.46 
					574.913,78.2 574.943,78.17 				"/>
				<polygon fill="none" stroke="#666666" stroke-width="0.25" stroke-linejoin="round" stroke-miterlimit="3.8637" points="
					571.313,80.95 571.193,80.93 570.973,80.81 570.673,80.56 570.263,80.38 570.163,80.32 570.493,79.97 570.533,79.93 
					570.703,79.85 571.893,79.79 572.063,79.89 572.273,79.79 572.604,79.79 573.023,79.78 573.163,79.87 573.533,79.89 
					573.743,79.95 573.723,80.08 573.723,80.16 573.683,80.18 573.373,80.24 572.813,80.65 572.292,81.17 572.153,81.17 
					572.053,81.24 572.033,81.37 571.993,81.4 571.683,81.07 571.553,80.98 				"/>
				<polygon fill="none" stroke="#666666" stroke-width="0.25" stroke-linejoin="round" stroke-miterlimit="3.8637" points="
					565.333,107.16 565.453,107.18 565.493,107.37 565.423,107.41 				"/>
				<polygon fill="none" stroke="#666666" stroke-width="0.25" stroke-linejoin="round" stroke-miterlimit="3.8637" points="
					568.843,107.38 568.513,107.51 568.263,107.74 568.193,107.86 568.053,108.74 567.923,108.66 567.683,108.02 567.703,107.84 
					567.843,107.6 567.933,107.42 567.833,107.23 567.703,106.99 566.803,105.92 566.633,105.87 566.393,105.85 566.263,105.89 
					566.053,106.08 565.913,106.14 565.763,106.23 565.683,106.52 565.683,106.81 565.354,106.72 565.223,106.81 565.093,106.83 
					564.933,106.72 564.713,106.34 564.583,106.25 564.443,105.81 564.263,105.48 564.323,105.26 564.323,104.98 564.323,104.92 
					564.463,104.77 564.633,104.45 564.703,104.21 564.673,103.34 564.703,103.16 564.623,102.64 564.673,102.43 564.703,102.31 
					564.623,101.81 564.683,101.71 564.833,101.64 565.013,101.56 565.553,101.44 565.803,101.35 566.413,101.41 566.743,101.5 
					567.553,101.84 567.933,101.93 568.723,101.93 569.153,102.08 569.223,101.87 569.173,101.68 569.173,101.54 569.333,101.56 
					569.383,101.56 569.573,101.73 570.063,102.33 570.373,102.58 571.343,103.27 571.963,103.29 572.173,103.3 572.343,103.39 
					572.423,103.54 572.303,103.78 572.363,103.89 572.513,104.2 572.433,104.29 572.363,104.29 572.213,104.14 572.173,104.2 
					572.223,104.31 572.383,104.38 572.423,104.45 572.423,104.66 572.383,104.71 572.133,104.7 571.763,104.87 571.463,105.22 
					571.403,105.29 570.723,105.56 570.713,105.58 570.633,105.61 570.473,105.77 570.323,106.1 570.223,106.62 570.203,107.21 
					570.083,107.35 570.053,107.18 570.013,106.95 570.063,106.46 569.973,106.25 569.883,106.15 569.723,106.23 569.573,106.42 
					569.303,107.02 569.123,107.09 569.123,107.11 				"/>
				<polygon fill="none" stroke="#666666" stroke-width="0.25" stroke-linejoin="round" stroke-miterlimit="3.8637" points="
					567.604,109.84 567.563,109.57 567.623,109.52 567.703,109.52 567.743,109.62 567.703,109.74 				"/>
				<polygon fill="none" stroke="#666666" stroke-width="0.25" stroke-linejoin="round" stroke-miterlimit="3.8637" points="
					566.104,112.06 566.223,112.23 566.243,112.34 566.104,112.52 566.033,112.48 566.063,112.34 566.033,112.18 565.993,112.1 
					565.993,112.04 				"/>
				<polygon fill="none" stroke="#666666" stroke-width="0.25" stroke-linejoin="round" stroke-miterlimit="3.8637" points="
					574.093,115.85 573.703,115.23 573.723,115.09 574.163,115.57 574.193,115.7 				"/>
				<polyline fill="none" stroke="#666666" stroke-width="0.25" stroke-linejoin="round" stroke-miterlimit="3.8637" points="
					479.013,16.84 479.393,16.46 479.753,16.18 479.973,15.89 480.263,15.45 480.393,14.86 480.354,14.58 480.163,14.39 
					480.083,14.24 479.523,13.96 479.273,13.77 479.123,13.74 479.003,13.62 				"/>
				<polyline fill="none" stroke="#666666" stroke-width="0.25" stroke-linejoin="round" stroke-miterlimit="3.8637" points="
					479.013,13.03 479.313,12.82 479.593,12.89 479.813,12.89 480.173,13 480.354,13.15 480.593,13.22 480.593,13.24 480.673,13.35 
					480.863,13.35 480.983,13.29 481.073,13.15 481.042,13.04 481.333,13 481.523,13.09 481.993,13.31 482.213,13.39 482.453,13.37 
					482.803,13.22 483.042,13.24 483.163,13.12 483.143,12.94 483.303,12.91 483.373,12.85 483.513,12.88 483.604,12.97 483.723,13 
					483.623,13.24 483.463,13.43 483.473,13.56 483.673,13.77 483.803,13.83 483.923,13.89 484.073,14.06 484.223,14.1 
					484.633,14.06 484.973,13.96 485.413,13.91 485.643,13.93 485.953,14.04 486.263,14.05 486.413,14.11 486.703,14.35 
					486.923,14.65 487.093,14.79 487.463,15.06 487.583,15.34 488.593,16.02 488.933,16.15 489.263,16.21 489.423,16.16 
					489.703,16.18 489.973,15.92 490.023,15.81 490.093,15.83 490.053,15.91 490.163,16.03 490.423,16.08 490.513,15.99 490.593,16 
					490.673,16.14 490.893,16.29 491.013,16.22 491.093,16.22 491.133,16.54 491.203,16.62 491.363,16.58 491.593,16.48 
					492.413,16.42 492.703,16.36 492.763,16.3 492.923,16.14 493.053,16.08 493.193,16.08 493.283,16.14 493.283,16.22 
					493.073,16.42 493.042,16.58 492.883,16.67 492.633,17.18 492.653,17.31 493.013,17.81 493.042,17.92 492.913,18.1 
					492.633,18.5 492.633,18.62 492.843,18.81 493.183,19.1 493.433,19.27 494.753,19.62 495.883,19.62 496.773,19.5 496.923,19.51 
					497.123,19.63 497.173,19.48 497.623,19.29 499.183,18.87 499.873,18.47 500.363,18.33 500.523,18.25 500.723,18.14 
					501.393,17.71 502.042,17.49 502.423,17.26 502.843,17.06 503.104,16.87 503.423,16.83 503.713,16.63 503.833,16.6 
					503.873,16.6 504.042,16.58 504.113,16.7 504.133,16.96 504.223,17.02 504.633,17.08 504.723,17.14 504.743,17.23 
					504.703,17.38 504.763,17.44 505.183,17.56 505.943,17.49 506.203,17.42 506.413,17.42 506.503,17.47 506.843,17.45 
					506.873,17.44 507.093,17.39 507.303,17.54 507.953,17.53 508.133,17.66 508.383,18.01 508.703,18.06 508.923,17.96 
					509.063,17.98 509.223,18.07 509.423,18.02 509.593,18.06 509.763,17.96 510.273,17.92 510.593,17.87 510.923,17.71 
					511.193,17.54 511.542,17.41 511.583,17.39 511.593,17.39 512.813,17.06 512.993,16.87 513.083,16.87 513.263,17.02 
					513.653,16.97 513.833,16.83 				"/>
				<polyline fill="none" stroke="#666666" stroke-width="0.25" stroke-linejoin="round" stroke-miterlimit="3.8637" points="
					584.473,121.76 584.753,122 585.093,122.29 585.563,123.01 585.913,123.2 586.193,123.24 586.354,123.49 586.673,123.64 
					587.223,123.79 587.573,123.77 589.303,124.16 589.753,124.2 590.203,124.3 590.243,124.04 589.854,123.87 589.333,123.71 
					589.073,123.49 588.583,123.29 588.354,123.25 588.163,123.34 587.833,123.1 587.604,122.98 587.503,122.75 587.923,122.93 
					588.233,123.04 589.042,123.31 589.542,123.5 589.753,123.67 590.413,124 591.553,124.43 592.313,124.74 592.523,124.87 				"/>
				<polyline fill="none" stroke="#666666" stroke-width="0.25" stroke-linejoin="round" stroke-miterlimit="3.8637" points="
					551.363,11.98 551.413,11.96 551.542,11.64 551.473,11.38 551.513,11.24 551.633,11.32 551.693,11.66 551.753,11.77 
					551.753,11.79 551.933,11.95 552.383,12.17 552.423,12.27 552.463,12.47 552.354,12.66 552.183,12.68 552.083,12.66 
					552.063,12.6 552.173,12.43 552.143,12.35 551.973,12.28 551.903,12.27 551.643,12.35 551.263,12.41 551.153,12.55 
					551.203,12.6 551.273,12.6 551.433,12.5 551.203,12.89 550.943,13.56 550.963,13.97 550.823,13.84 550.733,13.87 550.883,14.08 
					550.803,14.16 550.854,14.2 550.943,14.17 551.013,14.21 551.133,14.53 551.133,14.59 551.173,14.81 551.483,15.5 
					551.923,16.06 552.833,16.85 553.343,17.21 553.433,17.24 553.633,17.33 553.643,17.33 554.223,17.45 554.333,17.54 
					554.423,17.68 554.363,17.8 554.343,17.83 554.423,18.1 554.523,18.25 554.663,18.33 554.753,18.37 554.803,18.4 554.903,18.47 
					555.223,18.7 555.253,18.83 555.233,18.94 554.963,19 554.803,19.27 554.604,19.43 554.593,19.64 554.123,20.29 554.063,20.47 
					553.843,20.52 553.913,20.65 553.663,20.74 553.563,20.83 553.523,21.01 553.792,21.5 553.773,21.56 554.153,22 554.483,22.41 
					554.683,22.54 554.843,22.66 555.354,22.91 555.553,22.99 555.593,23 556.003,23.11 556.403,23.14 556.633,23.11 556.913,23.06 
					557.153,23.02 557.813,22.78 558.173,22.57 558.273,22.69 558.163,22.84 558.203,22.91 558.373,22.89 558.473,22.79 
					558.303,22.54 558.343,22.5 559.493,22.06 559.753,21.87 559.883,21.68 560.013,21.25 560.223,20.83 560.303,20.33 
					560.433,20.06 560.483,19.69 560.542,19.51 560.763,19.42 560.813,19.3 560.783,19.06 561.163,18.95 561.413,18.74 
					561.463,18.56 561.593,18.54 561.792,18.7 562.673,18.45 562.943,18.55 563.623,18.52 563.883,18.45 564.183,18.35 
					564.493,18.19 564.633,18.12 564.923,17.92 565.453,17.42 565.893,16.99 566.333,16.9 566.604,16.58 566.713,16.54 
					566.763,16.41 566.923,16.45 567.373,16.15 567.563,16 567.883,15.67 567.983,15.64 568.213,15.39 568.383,14.98 568.683,15.02 
					568.773,14.93 568.792,14.62 568.613,14.41 568.683,14.35 568.673,14.24 568.593,14.17 568.673,14.04 568.663,13.9 
					568.703,13.84 568.792,13.85 568.854,13.97 568.993,13.91 569.243,13.84 569.413,13.83 569.604,13.74 569.953,13.74 
					570.173,13.83 570.933,13.54 571.213,13.31 571.493,13.21 571.633,13.12 571.673,12.99 571.643,12.82 571.723,12.74 
					571.854,12.88 571.943,12.88 571.963,12.99 571.963,13.02 572.104,13.14 572.213,13.09 572.273,13.16 572.292,13.39 
					572.393,13.56 572.643,13.78 572.683,13.95 572.623,14.02 572.433,14 572.333,14.1 572.263,14.65 572.303,14.98 572.453,15.34 
					572.753,15.79 573.163,16.37 573.513,18.12 573.703,18.37 574.003,18.58 574.053,18.79 574.023,18.95 573.983,19.16 
					573.743,19.72 573.583,19.85 573.343,19.85 572.723,20.11 572.503,20.32 572.313,20.41 572.243,20.47 571.723,20.93 
					571.493,21.27 571.183,21.6 570.653,22.27 570.013,23.27 569.383,24.45 568.854,24.99 568.223,26.29 568.193,26.32 
					568.023,26.5 567.683,27.25 567.423,27.79 566.973,29.06 566.413,30.2 566.243,30.37 566.153,30.41 565.963,30.49 
					565.883,30.58 565.663,30.54 565.493,30.61 565.354,30.6 564.803,30.79 564.563,30.81 564.423,30.91 564.354,30.91 
					564.133,30.91 563.803,31.1 563.263,31.3 562.883,31.54 562.523,31.87 562.263,31.9 562.183,32 562.003,31.96 561.813,32.1 
					561.583,32.14 561.173,31.91 561.093,31.9 560.843,31.9 560.593,32.04 560.223,32.32 559.823,32.75 559.433,33.39 
					559.253,33.66 559.003,34.16 558.883,34.52 558.604,35.2 558.413,35.75 558.063,37.69 558.042,38.31 558.013,38.8 
					558.023,39.39 558.463,41.77 558.723,42.02 558.863,42.1 559.104,42.14 559.193,42.19 559.303,42.33 559.343,42.58 
					559.283,42.77 559.373,42.94 559.354,43.15 559.423,43.42 560.083,44.49 560.503,44.89 561.183,45.91 561.203,46.09 
					561.223,46.21 561.292,46.39 561.563,46.69 561.792,47.16 561.843,47.26 562.354,47.71 562.463,48.19 562.633,48.33 
					563.343,48.89 563.363,48.89 563.843,49.15 564.053,49.33 564.233,49.43 564.683,49.45 564.923,49.39 565.013,49.37 
					565.542,49.14 565.683,49.02 565.883,49.06 566.133,48.94 566.292,49.02 566.693,49.06 566.783,49.21 566.963,49.35 
					567.013,49.45 566.663,50.04 566.663,50.2 566.743,50.39 566.723,50.52 566.633,50.39 566.542,50.38 566.503,50.42 
					566.503,50.77 566.542,51.01 566.663,51.2 566.883,51.37 567.413,51.62 567.604,51.68 567.713,51.66 567.893,51.88 
					568.143,51.97 568.313,52.08 568.883,52.2 569.633,52.37 569.903,52.51 570.273,52.52 570.443,52.58 570.563,52.79 
					570.883,52.89 571.023,53.04 571.673,53.14 571.993,53.31 572.013,53.45 572.003,53.58 571.913,54.01 571.683,54.41 
					571.633,54.87 571.633,55.09 571.633,55.33 571.703,55.63 571.993,56.31 572.243,56.53 572.433,56.59 572.803,56.58 
					572.833,56.66 572.623,56.83 572.393,56.92 572.303,57.07 571.854,58.72 571.993,59.54 572.003,59.71 571.703,60.04 
					571.673,60.49 571.703,61 571.763,61.39 571.803,61.48 571.963,61.81 572.813,62.74 573.013,63 573.463,63.37 573.493,63.41 
					573.593,63.52 573.743,63.7 574.193,64.06 574.243,64.08 574.633,64.27 574.673,64.35 574.673,64.41 574.673,64.42 
					574.673,64.48 574.673,64.5 574.613,64.48 574.542,64.52 574.243,64.52 573.893,64.51 573.773,64.58 573.463,65.04 
					573.493,65.29 573.373,65.44 572.903,66.1 572.923,66.33 572.743,66.41 572.542,66.39 572.363,66.46 572.223,66.46 
					572.063,66.55 571.493,67.69 571.433,68 571.453,68.31 571.563,68.53 571.583,68.59 571.513,68.7 571.453,69.41 571.354,69.68 
					571.133,70.03 571.003,70.36 570.604,70.58 570.113,70.9 569.753,71.14 569.303,71.52 569.123,71.66 569.013,71.96 
					569.003,72.58 569.053,72.81 569.003,73.04 569.063,73.48 568.963,74 568.733,74.31 568.283,74.71 568.163,74.91 568.053,75.19 
					567.683,75.52 567.593,75.67 567.593,75.85 567.673,75.95 567.683,75.99 567.792,76.18 567.773,76.33 567.683,76.39 
					567.343,76.41 566.953,76.52 566.803,76.66 566.553,76.85 566.383,77.1 566.183,77.16 565.913,77.42 565.303,77.86 
					565.343,77.96 565.553,78.13 565.613,78.28 565.613,78.41 565.563,78.33 565.433,78.25 565.343,78.27 565.373,78.37 
					565.313,78.37 565.213,78.39 565.104,78.4 565.042,78.4 565.003,78.46 564.923,78.56 564.923,78.6 564.863,78.76 564.843,78.87 
					564.813,78.97 564.773,79.14 564.833,79.39 564.833,79.6 564.423,80.16 564.303,80.44 564.163,80.59 564.023,80.6 
					563.813,80.62 563.763,80.62 563.693,80.62 563.593,80.64 563.343,80.64 563.173,80.59 562.723,80.8 562.673,80.8 
					562.553,80.83 562.313,81 562.163,81.31 562.013,81.45 561.913,81.47 561.833,81.74 561.673,82.02 561.273,82.41 561.173,82.69 
					561.183,83.38 561.143,83.5 560.963,83.64 560.343,83.98 560.223,83.98 560.223,83.89 560.133,83.83 559.973,83.86 
					559.513,84.06 559.453,83.95 558.973,83.98 558.713,84.13 558.703,84.13 558.023,84.4 557.854,84.46 557.213,84.92 
					557.093,85.2 556.373,86.09 556.263,86.26 556.243,86.29 556.193,86.37 556.133,86.45 555.933,86.71 555.673,86.89 
					555.533,86.91 555.323,86.66 555.173,86.66 555.063,86.75 554.993,87 554.873,86.93 554.783,87.07 554.843,87.14 554.953,87.14 
					555.042,87.08 555.133,87.01 555.233,86.92 555.303,86.93 555.343,86.98 555.292,87.24 555.173,87.35 554.783,87.52 
					554.633,87.58 554.503,87.54 554.413,87.49 554.104,87.41 553.973,87.29 553.843,87.31 553.703,87.41 553.473,87.46 
					553.423,87.52 553.433,87.87 553.343,88.08 553.303,88.2 553.213,88.25 552.923,88.33 552.813,88.33 552.633,88.33 
					552.503,88.39 552.163,88.72 551.953,88.87 551.813,88.91 551.723,88.72 551.623,88.69 551.423,88.62 551.003,89.35 
					550.923,89.32 550.843,89.47 550.513,89.42 549.923,89.73 549.713,89.77 549.354,90.08 549.183,90.28 548.903,90.82 
					548.723,91.04 548.503,91.58 548.303,92.06 547.893,92.68 547.763,92.81 547.753,93.04 547.643,93.54 547.553,93.68 
					547.213,93.67 547.133,93.76 547.133,93.89 547.303,94.09 547.354,94.36 547.354,94.45 547.433,94.93 547.373,95.14 
					547.343,95.24 547.333,95.47 547.433,95.64 547.493,95.93 547.513,96.43 547.613,96.91 547.563,97.09 547.563,97.34 
					547.792,97.9 547.803,98.26 547.763,98.31 547.593,98.31 547.523,98.33 547.383,98.39 546.953,98.41 546.953,98.49 
					547.042,98.54 547.803,98.38 547.943,98.6 548.083,98.73 548.223,99 548.423,99.73 548.604,100.03 549.173,100.96 
					549.503,101.32 549.773,101.83 550.583,102.68 550.723,102.87 551.104,103.39 551.123,103.51 551.083,103.63 551.104,103.69 
					551.173,103.63 551.263,103.62 551.333,103.75 551.483,103.79 551.643,103.91 551.953,104.27 552.113,104.39 552.423,104.56 
					552.593,104.71 552.763,104.8 552.792,104.86 552.703,105.08 552.953,105 553.193,105.06 553.263,105.14 553.313,105.35 
					553.542,105.64 553.513,105.73 553.733,105.74 553.913,105.88 554.423,106.29 554.743,106.63 555.953,107.41 556.803,107.81 
					556.854,107.89 556.963,107.87 557.153,107.84 557.313,107.92 558.023,108.06 558.163,108.12 558.173,108.12 558.203,108.14 
					558.292,108.19 558.343,108.33 558.053,108.37 558.023,108.5 557.883,108.66 557.763,108.7 557.573,108.66 557.433,108.81 
					557.453,108.95 557.513,108.94 557.573,108.81 557.783,108.81 558.023,108.67 558.163,108.45 558.303,108.43 558.383,108.48 
					558.413,108.66 558.533,108.73 558.763,108.61 559.354,108.29 559.854,108.28 560.303,108.17 560.292,108.31 560.243,108.62 
					560.313,108.68 560.593,108.73 560.623,108.83 560.933,108.66 560.903,108.59 560.663,108.62 560.483,108.59 560.363,108.49 
					560.363,108.45 560.363,108.34 560.413,108.26 560.433,108.19 560.593,108.08 561.013,107.96 561.463,107.73 561.583,107.73 
					562.193,107.53 562.433,107.41 562.553,107.26 563.013,106.93 563.104,106.89 563.383,106.75 563.643,106.62 563.953,106.57 
					564.143,106.64 564.413,106.83 564.604,107.08 564.653,107.23 564.633,107.42 564.463,108.2 564.292,108.54 564.354,108.91 
					564.373,109.09 564.393,109.24 564.343,109.51 564.223,109.72 564.113,110.08 564.013,110.26 563.753,110.38 563.553,110.58 
					563.303,110.7 563.203,110.8 563.133,111.02 563.153,111.07 563.173,111.26 563.223,111.43 563.303,111.56 563.413,111.73 
					563.433,111.79 563.523,111.94 563.573,112.1 563.513,112.36 563.553,112.52 563.854,112.7 564.292,112.78 564.513,112.85 
					564.803,113.11 564.913,113.12 565.133,113.11 565.523,113.09 565.773,112.95 566.313,112.66 566.473,112.66 566.723,112.46 
					566.903,112.42 566.953,112.39 567.203,112.16 567.833,112.01 568.053,111.88 568.313,111.83 568.943,111.64 569.104,111.55 
					569.503,110.95 569.553,110.71 569.523,110.49 569.513,110.45 569.393,110.2 569.223,110.04 569.173,109.85 568.913,109.63 
					568.723,109.62 568.683,109.52 568.733,109.29 568.923,109.12 569.383,108.94 569.513,108.85 569.623,108.77 569.723,108.77 
					569.743,108.77 570.163,108.92 570.583,108.91 570.653,108.82 570.553,108.66 570.553,108.54 570.673,108.52 570.792,108.67 
					571.163,108.67 571.723,109.03 572.053,109.03 572.413,109.31 572.573,109.54 572.883,109.84 573.063,110.08 573.383,110.49 
					573.604,110.98 573.792,111.49 573.833,112.64 573.583,112.96 573.473,113.31 573.263,114.02 573.203,114.2 573.223,114.25 
					573.263,114.41 573.463,114.67 573.533,115.14 573.763,115.54 573.863,115.85 573.863,116.08 573.773,116.2 573.713,116.45 
					573.843,116.41 573.863,116.39 574.143,116.16 574.403,116.2 574.803,116.54 574.993,116.83 575.093,117.1 575.123,117.19 
					575.303,117.29 575.783,117.55 576.083,117.66 576.323,117.73 576.463,117.85 576.773,117.94 577.133,118.18 577.673,118.41 
					577.943,118.6 577.993,118.69 577.923,118.76 577.763,118.76 577.523,118.64 576.553,118.16 575.973,118.04 575.803,117.94 
					575.292,117.77 574.843,117.55 574.513,117.54 574.313,117.67 574.193,117.62 574.042,117.79 574.023,118.01 573.933,118.15 
					573.923,118.33 573.973,118.5 574.183,118.7 574.423,119.08 574.583,119.14 574.803,119.35 574.854,119.54 575.013,119.81 
					575.033,120.08 575.033,120.2 575.243,120.61 575.413,120.74 575.573,120.76 575.713,120.66 575.873,120.7 576.163,120.68 
					576.223,120.68 576.553,120.76 577.473,120.77 578.093,121 578.133,121 579.593,121.36 579.813,121.36 579.913,121.41 
					580.163,121.42 580.263,121.36 580.373,121.24 580.513,121.23 580.753,121.41 580.993,121.5 581.523,121.48 581.643,121.34 
					581.633,121.21 581.643,121.15 581.683,121.08 581.213,120.79 581.063,120.68 580.703,120.5 579.423,119.45 579.223,119.27 
					578.833,119.11 578.813,119.05 578.923,119.04 579.113,119.08 579.633,119.44 580.753,120.35 581.083,120.58 581.123,120.59 
					582.983,121.57 583.423,121.7 583.913,121.79 584.292,121.79 584.453,121.76 				"/>
				<polyline fill="none" stroke="#666666" stroke-width="0.25" stroke-linejoin="round" stroke-miterlimit="3.8637" points="
					513.843,16.83 514.673,16.43 515.303,16.24 515.393,16.09 515.483,16.09 515.542,16.24 515.843,16.22 516.023,16.16 
					516.133,16.08 516.233,16.09 516.413,16.25 516.583,16.2 516.703,16.3 516.883,16.57 517.283,16.48 517.854,16.25 
					518.273,15.97 518.523,15.82 519.042,15.55 519.743,15 519.933,14.81 520.542,14.26 521.003,13.83 521.263,13.58 521.683,13.1 
					521.723,12.89 522.063,12.4 522.053,12.35 521.933,12.37 521.933,12.27 522.273,12.1 522.473,12.01 522.604,11.83 
					522.893,11.65 523.093,11.44 523.263,11.37 523.343,11.24 523.683,11.05 524.003,10.97 524.423,10.78 524.433,10.78 
					524.743,10.77 525.423,10.63 525.533,10.54 525.673,10.43 526.143,10.18 526.333,10.04 526.453,9.82 526.723,9.56 526.993,9.08 
					527.203,8.86 527.542,8.72 527.643,8.6 527.763,8.59 527.963,9.13 528.042,9.17 528.233,9.17 528.713,9.19 528.833,9.1 
					529.143,9.08 529.643,8.83 529.773,8.86 530.433,8.85 530.743,8.77 530.873,8.7 531.743,8.23 531.893,8.12 531.983,7.96 
					532.253,7.91 532.433,7.84 532.523,7.79 532.993,7.81 533.433,7.97 533.813,7.95 534.292,7.75 535.523,6.95 535.803,6.82 
					535.963,6.82 536.053,6.85 536.303,7.12 536.503,7.14 536.604,7.06 537.013,6.94 537.323,6.79 537.803,6.46 538.313,6 
					538.523,6 538.683,5.89 538.763,5.89 538.843,5.98 539.013,6 539.173,5.91 539.333,5.98 539.713,6.01 540.083,5.87 
					540.443,5.68 540.593,5.7 540.743,5.65 540.833,5.92 541.003,6.07 541.213,6.16 541.423,6.2 541.792,6.2 542.093,6.1 
					542.393,6.01 542.693,6.01 542.933,6.07 543.373,6.06 543.503,6.88 543.623,7.09 543.593,7.29 543.703,7.42 543.683,7.54 
					543.683,7.75 543.673,7.75 543.583,7.83 543.553,7.85 543.423,7.95 543.413,7.96 543.173,7.95 543.063,8 543.203,8.14 
					542.843,8.27 542.713,8.39 542.593,8.37 542.503,8.37 542.433,8.45 542.273,8.53 542.273,8.64 542.104,8.54 541.963,8.54 
					541.643,8.66 541.423,8.65 541.313,8.64 541.333,8.72 541.354,8.93 541.313,9.1 541.263,9.12 541.093,8.98 541.073,8.98 
					540.923,9.13 541.003,9.25 541.013,9.25 541.073,9.25 541.193,9.34 541.303,9.6 541.423,9.52 541.542,9.54 541.542,9.62 
					541.403,10.08 541.423,10.24 541.493,10.36 541.883,10.48 541.913,10.58 542.083,10.66 542.003,11 542.033,11.17 542.123,11.27 
					542.453,11.38 542.763,11.42 543.053,11.41 543.223,11.47 543.463,11.5 543.563,11.45 543.773,11.23 544.042,11 544.303,10.96 
					544.553,10.74 544.873,10.24 545.013,9.91 545.063,9.64 545.033,9.4 544.923,9.12 544.792,9.04 544.213,9.02 543.883,8.98 
					543.413,8.81 543.253,8.85 543.042,8.96 542.854,9.01 542.593,9.01 542.523,9 542.423,8.95 542.433,8.86 542.713,8.77 
					542.803,8.54 542.843,8.5 543.203,8.41 543.383,8.27 543.533,8.05 543.633,7.93 543.743,7.83 543.803,7.78 544.003,7.83 
					544.053,7.91 544.303,8.06 544.553,8.16 545.243,8.31 545.343,8.32 545.903,8.37 546.633,8.38 546.703,8.38 546.803,8.37 
					547.123,8.32 547.513,8.05 548.003,7.93 548.123,7.83 548.243,7.85 548.343,8.1 548.663,8.41 548.854,8.62 549.463,8.62 
					550.133,8.85 550.873,9.31 551.303,9.46 551.453,9.6 551.593,9.64 551.743,9.77 551.713,9.95 551.783,10 551.803,10.02 
					552.113,10.12 552.503,10.16 552.983,10.18 553.373,10.14 553.433,10.21 553.403,10.31 553.263,10.37 553.003,10.37 
					552.893,10.43 552.653,10.63 552.583,10.77 551.783,11.2 551.693,11.18 551.683,11.1 551.753,11.04 551.933,11 552.023,10.9 
					552.042,10.67 551.993,10.62 551.873,10.54 550.373,10.63 550.163,10.78 550.013,11.12 549.833,11.26 549.893,11.27 
					550.143,11.59 550.333,11.68 550.823,11.71 550.993,11.47 551.093,11.5 551.153,11.6 551.063,11.8 551.263,11.87 551.333,11.98 
					551.343,11.98 				"/>
				<polyline fill="none" stroke="#666666" stroke-width="0.25" stroke-linejoin="round" stroke-miterlimit="3.8637" points="
					536.383,203.09 536.203,202.41 536.173,202.25 536.104,202.04 535.343,198.68 535.343,198.64 534.883,196.48 534.713,196.08 
					532.213,185 531.703,182.81 531.633,182.71 531.163,180.68 531.173,180.58 529.913,175.29 528.773,170.44 528.743,170.04 
					527.243,163.98 527.063,163.23 527.063,163.09 526.843,162.17 526.673,161.21 526.663,161.17 526.093,159.08 525.883,157.89 
					525.833,157.76 525.792,157.66 525.604,154.23 524.413,151.91 524.213,151.54 506.873,139.9 506.803,139.48 506.333,136.42 
					506.213,135.59 506.213,132.92 506.213,131.75 506.093,131.54 501.183,123.81 501.113,123.68 499.613,123.71 495.833,121.56 
					493.823,121.64 492.053,119.51 492.013,119.47 492.143,114.61 492.143,114.56 490.993,112.87 490.183,111.68 489.173,109.84 
					488.693,108.97 488.763,107.62 488.713,107.27 488.413,106.95 488.223,106.6 488.133,106.41 488.083,105.95 488.213,105.48 
					488.213,105.33 487.773,104.92 487.283,104.6 487.053,104.42 487.053,104.37 487.023,104.06 487.053,103.95 487.213,103.7 
					487.313,103.37 487.333,103 487.283,102.62 486.843,101.38 486.913,101.12 487.223,100.34 487.243,100.29 487.243,99.87 
					487.143,99.35 487.463,98.44 487.473,98.18 487.223,97.41 487.354,97.09 487.403,97 487.423,96.99 487.542,96.87 487.803,96.59 
					488.263,96.48 488.643,96.08 488.933,95.64 488.953,95.49 489.053,94.36 489.093,94.21 489.253,93.79 489.553,93.22 
					491.303,92.93 491.693,92.91 492.063,92.89 492.723,92.83 493.463,92.79 493.633,92.71 493.593,92.41 493.643,92.09 
					493.583,91.98 494.123,90.91 494.133,90.85 494.273,90.26 494.413,89.71 494.542,89.32 494.693,88.27 494.663,87.4 
					494.663,87.35 494.903,87.29 495.463,87.25 496.373,87.06 496.403,87.02 496.463,86.95 497.053,86.38 497.313,86.18 
					497.573,86.05 497.883,85.99 498.013,85.96 498.292,85.95 499.003,85.27 499.163,85.12 499.223,85.06 499.873,84.83 
					499.963,84.83 500.063,84.58 500.223,84.35 500.453,84.35 500.833,84.43 500.854,84.43 500.963,84.43 501.013,84.45 
					501.093,84.22 501.113,84.2 501.343,83.87 502.013,83.65 502.133,83.41 502.263,83.38 502.493,82.74 502.683,82.66 
					502.753,82.69 502.823,82.67 503.313,82.64 503.363,82.62 503.473,82.56 503.523,82.31 503.453,82.12 503.513,81.91 
					503.903,81.7 504.393,81.64 504.513,81.37 504.354,80.96 504.683,80.66 504.703,80.39 504.503,80.06 504.273,79.69 
					504.413,79.25 505.013,78.56 505.453,78.37 505.883,78.46 505.913,78.22 505.893,78.22 505.883,78.2 505.493,77.75 
					505.343,77.6 505.213,77.29 505.383,77.06 505.383,77.05 505.373,77.04 505.263,76.85 505.253,76.78 505.223,76.57 
					505.223,76.56 505.253,76.21 505.253,76.2 505.193,75.85 505.243,75.71 505.104,75.31 505.093,75.06 504.973,74.86 
					504.913,74.59 504.893,74.5 504.893,74.49 504.883,74.39 504.843,74.35 504.773,74.24 504.673,74.08 505.193,72.64 
					505.553,72.22 505.773,71.87 505.843,71.7 505.873,71.56 505.973,71.21 505.993,70.9 505.993,70.78 506.063,70.24 
					506.223,69.95 506.383,69.62 506.813,68.37 506.923,68.2 507.383,67.91 507.792,67.51 508.053,67 508.303,66.68 508.463,66.08 
					508.542,65.87 508.753,65.47 508.803,65.37 509.063,64.93 509.763,64.18 509.753,64.06 509.713,64.04 509.003,64.2 
					508.613,64.21 508.183,64.04 507.973,63.92 507.763,63.81 507.273,63.46 506.313,63 506.243,62.86 506.153,62.81 506.133,62.66 
					506.033,61.96 506.013,61.39 506.013,60.89 506.093,59.85 506.173,59.42 506.643,58.25 506.923,58.12 506.973,58.1 
					507.653,57.76 507.583,57.37 507.383,57.12 507.253,57.06 507.133,56.64 507.053,55.77 507.053,55.66 507.053,55.56 
					507.063,55.42 506.963,54.92 506.833,53.85 506.883,53.59 506.953,53.41 507.023,52.83 506.923,52.43 506.854,52.31 
					506.763,52.18 506.573,52.03 505.683,51.49 504.863,50.54 504.604,50.05 504.503,49.72 504.513,49.52 504.673,49.21 
					504.763,48.91 504.803,48.71 504.913,48.19 504.923,47.52 504.763,46.9 504.792,46.69 504.813,46.51 504.813,46.48 
					504.893,46.31 504.913,46.27 505.143,45.77 505.343,45.24 505.354,45.19 505.354,45.17 505.373,45.16 505.583,44.83 
					505.593,44.8 505.593,44.79 505.583,44.75 505.403,44.33 505.403,44.27 505.403,44.18 505.403,44.1 505.453,43.41 
					505.542,42.97 505.563,42.82 505.513,42.29 505.613,42.02 505.943,41.41 506.003,41.31 506.173,40.67 506.623,40.25 
					506.713,40.29 506.803,40.31 506.753,40.21 506.553,39.92 506.542,39.88 506.553,39.4 506.523,39.25 506.423,39.16 
					506.223,39.04 505.854,38.6 505.854,38.54 505.843,38.47 505.823,38.44 505.854,38.32 506.223,37.91 506.393,37.7 
					506.513,37.39 506.683,37.15 506.743,37.06 506.763,36.99 506.813,36.91 506.813,36.88 506.803,36.2 506.663,35.45 
					507.063,35.05 507.323,34.87 507.653,34.77 507.743,34.62 507.743,34.54 507.623,34.42 507.413,34.12 507.383,34.09 
					507.393,33.61 507.583,33.25 507.604,33.19 507.803,33.02 507.792,32.77 507.583,32.27 508.053,31.84 508.104,31.72 
					508.183,31.6 508.183,31.57 508.213,31.33 507.503,31.25 507.354,31.2 507.343,31.15 507.263,31.09 506.993,30.89 
					506.743,30.85 506.343,31.06 506.013,31.1 506.003,31.06 505.893,31.06 505.733,30.88 505.542,30.74 505.383,30.71 
					505.303,30.7 504.843,30.83 504.673,30.83 504.343,30.74 503.383,30.61 503.203,30.55 503.223,30.52 502.993,30.29 
					502.683,30.22 502.453,30.12 502.183,29.64 502.163,29.62 502.163,29.58 502.073,29.26 502.143,29.14 502.453,29.06 
					502.523,28.93 502.673,28.81 502.963,28.85 503.083,28.87 503.273,28.83 503.903,28.6 504.653,28.16 505.093,28.15 
					505.123,28.15 505.163,28.14 505.633,27.97 505.643,27.97 505.893,27.81 506.104,27.55 506.133,27.43 507.133,26.66 
					507.563,26.59 507.723,26.5 507.913,26.32 507.973,26.17 508.013,26.05 508.133,25.9 508.373,25.83 509.003,25.89 
					509.273,25.66 509.453,25.14 509.473,24.89 509.393,24.76 509.573,24.52 509.854,24.45 509.993,23.98 509.993,23.95 
					510.023,23.75 509.923,23.37 509.604,22.79 509.604,22.77 509.573,22.57 509.604,22.45 509.553,22.39 509.433,22.3 
					509.313,22.3 509.223,22.37 508.973,22.39 508.883,22.35 508.803,22.1 508.993,21.92 509.623,21.71 509.643,21.68 
					509.883,21.56 510.173,21.58 510.503,21.54 510.893,21.34 511.003,21.34 511.013,21.34 511.133,21.47 511.213,21.49 
					511.373,21.43 511.703,21.4 511.963,21.47 511.973,21.47 512.333,21.45 512.604,21.01 512.803,20.93 512.963,20.93 
					513.292,20.93 513.563,20.71 513.653,20.64 513.983,20.53 514.553,20.21 514.663,20.05 514.663,19.84 514.583,19.69 
					514.383,19.52 514.163,19.45 513.723,19.31 513.493,19.36 513.423,19.3 513.423,19.25 513.423,19.03 513.553,18.61 
					513.583,18.04 513.623,17.65 513.713,17.54 513.973,17.45 514.123,17.5 513.973,17.29 513.863,17.02 513.833,16.83 				"/>
				<polyline fill="none" stroke="#666666" stroke-width="0.25" stroke-linejoin="round" stroke-miterlimit="3.8637" points="
					533.333,209.16 533.292,209.09 533.003,208.74 532.643,208.3 532.583,208.24 532.513,207.58 532.343,207.02 532.354,206.66 
					532.183,206.08 532.213,205.95 532.143,205.54 532.053,205.16 532.023,205.01 532.133,204.83 532.163,204.81 532.303,204.68 
					532.354,204.62 532.563,204.54 532.583,204.54 532.943,204.52 533.503,204.43 533.683,204.35 533.963,204.06 534.323,203.84 
					534.723,203.71 534.843,203.6 535.013,203.54 535.123,203.56 535.253,203.5 535.283,203.49 535.583,203.37 535.583,203.35 
					535.663,203.26 535.723,203.24 536.383,203.09 				"/>
				<polyline fill="none" stroke="#666666" stroke-width="0.25" stroke-linejoin="round" stroke-miterlimit="3.8637" points="
					584.453,121.76 584.313,122.12 584.343,122.35 584.343,122.37 584.303,122.53 584.093,123.26 583.773,123.82 583.633,124.06 
					583.563,124.33 583.553,124.39 583.493,124.95 583.473,125.06 583.433,126.07 583.373,126.28 583.542,126.4 583.583,126.74 
					583.263,127.09 583.133,127.6 582.953,128.33 582.933,128.38 582.593,129.43 582.773,129.85 583.042,130.81 582.883,131.29 
					582.803,131.68 582.763,131.86 582.593,132.91 582.593,132.95 582.673,133.27 582.673,133.29 582.803,133.87 582.833,134.26 
					582.723,135.13 582.593,135.68 582.623,136 582.633,136.04 582.723,136.36 583.053,137.18 583.343,137.47 583.613,137.58 
					583.873,137.81 584.083,138.07 584.133,138.16 584.423,138.54 584.723,138.77 585.023,139.23 585.233,139.69 584.542,141.04 
					584.313,141.48 583.593,142.89 583.523,143.04 583.463,143.08 582.473,143.79 582.063,144.08 581.973,144.2 581.643,144.34 
					581.053,144.4 580.263,144.94 579.633,145.27 579.373,145.37 578.883,145.46 578.393,145.66 575.963,146.45 575.713,146.54 
					575.303,146.71 574.493,147.06 574.133,147.33 573.233,147.62 572.933,147.87 572.743,147.87 572.593,147.88 572.153,148.14 
					571.993,148.33 571.613,148.62 571.183,148.78 570.683,148.89 570.354,149.04 569.643,149.51 569.573,149.58 569.093,149.89 
					568.723,150.25 568.193,150.58 568.053,150.67 567.354,151.16 567.273,151.51 567.253,151.7 567.173,151.93 566.854,152.5 
					565.823,154.23 565.183,154.34 564.763,154.52 564.553,154.69 564.273,154.79 563.973,154.84 563.683,154.74 563.523,154.69 
					563.292,154.67 563.063,154.64 562.823,154.57 562.613,154.64 562.433,154.87 562.143,154.99 562.073,155.11 562.104,155.74 
					562.023,155.92 561.803,156.12 561.723,156.29 561.743,156.48 561.843,156.64 562.183,157.18 562.193,157.45 562.023,157.79 
					561.983,157.98 561.503,158.44 561.023,158.83 560.923,158.87 560.693,159.12 560.523,159.39 560.483,159.46 560.383,159.91 
					560.203,160.52 559.963,160.84 559.854,160.89 559.723,161.05 559.433,161.24 559.423,161.24 559.333,161.27 558.513,161.56 
					558.233,161.64 557.713,161.77 557.292,161.8 557.153,161.75 556.143,161.44 555.933,161.44 555.673,161.5 555.443,161.6 
					555.413,161.62 554.883,161.95 554.423,162.25 554.203,162.4 553.673,162.83 553.613,162.99 553.513,163.1 553.473,163.18 
					553.373,163.46 552.773,164.35 552.763,164.45 552.703,164.56 552.443,165.01 552.042,165.56 551.993,165.7 551.843,165.91 
					551.723,166.09 551.513,166.29 551.483,166.45 551.203,166.81 551.093,166.83 550.763,167.29 550.723,167.41 550.703,167.45 
					550.354,167.92 550.313,167.93 550.253,167.98 550.183,168.08 550.023,168.29 549.973,168.46 549.953,168.5 549.953,168.88 
					549.953,169.15 550.123,169.51 550.123,169.52 550.183,169.83 550.133,170.26 550.183,170.6 550.193,170.7 550.343,171.2 
					550.433,171.28 550.763,172.1 551.333,173.54 551.393,173.71 551.433,173.86 551.663,174.5 551.743,174.61 551.873,175.14 
					551.953,175.23 552.113,175.67 552.233,176 552.493,176.49 552.583,176.83 552.653,177.13 552.973,178.3 553.183,178.64 
					553.513,179.32 553.583,179.71 553.423,180.26 553.373,180.41 553.283,180.73 553.283,181.25 553.383,181.81 553.453,181.89 
					553.553,182.33 553.583,182.96 553.613,183.07 553.673,183.31 553.792,183.85 553.803,183.97 554.063,184.52 554.033,184.67 
					553.763,184.95 553.763,185 553.733,185.14 553.733,185.16 553.792,185.37 553.563,186.01 553.493,186.4 553.343,186.87 
					553.243,187.08 553.042,187.43 552.593,188.32 552.423,188.68 552.292,188.96 552.093,189.45 551.783,189.97 551.573,190.14 
					551.433,190.24 551.333,190.27 551.013,190.51 550.854,190.7 550.313,191.71 549.413,192.83 549.393,192.85 549.233,193.18 
					549.053,193.5 548.593,194.05 548.483,194.21 547.973,194.66 547.253,195.56 547.123,195.73 546.803,196.57 546.633,196.84 
					546.083,197.73 545.973,197.83 545.923,197.89 545.723,198.01 545.503,198.54 545.363,198.85 544.643,199.36 543.953,200.08 
					543.792,200.12 543.503,200.11 542.663,200.2 542.542,200.21 542.423,200.21 542.173,200.31 541.763,200.49 541.633,200.6 
					541.193,200.8 540.463,201 539.763,201.46 539.553,201.66 539.542,201.66 538.803,201.94 538.163,202.3 537.373,202.83 
					536.763,203.05 536.383,203.09 				"/>
				<polyline fill="none" stroke="#666666" stroke-width="0.25" stroke-linejoin="round" stroke-miterlimit="3.8637" points="
					551.343,11.98 551.363,11.98 551.523,11.96 551.604,11.95 551.683,11.89 551.753,11.79 				"/>
				<polyline fill="none" stroke="#666666" stroke-width="0.25" stroke-linejoin="round" stroke-miterlimit="3.8637" points="
					535.843,20.11 535.893,20.02 536.223,19.84 536.313,19.77 536.542,19.57 536.623,19.46 536.813,19.27 536.953,19.18 
					537.263,19.15 537.473,19.18 537.792,19.14 538.003,19.03 538.093,18.89 538.303,18.7 538.663,18.5 539.093,18.41 
					540.042,18.28 540.354,18.17 540.473,18.08 540.583,17.98 540.973,17.27 541.133,17.05 541.453,16.79 541.773,16.62 
					542.203,16.52 542.333,16.54 542.523,16.51 543.133,16.54 543.473,16.6 543.803,16.69 544.683,17.12 545.153,17.27 
					545.633,17.38 545.933,17.39 546.042,17.38 546.203,17.26 546.303,17.17 546.423,16.99 546.623,16.52 546.653,16.42 
					546.833,16.12 547.042,15.73 547.223,15.52 547.303,15.35 547.423,15.2 547.873,14.38 548.093,13.87 548.123,13.78 
					548.413,13.03 548.643,12.99 548.713,12.67 548.803,12.55 548.903,12.46 549.023,12.39 549.303,12.28 549.843,12.22 
					550.643,12.25 551.173,12.17 551.223,11.98 551.333,11.98 				"/>
				<polyline fill="none" stroke="#666666" stroke-width="0.25" stroke-linejoin="round" stroke-miterlimit="3.8637" points="
					524.423,10.78 524.473,11.24 524.453,11.44 524.513,11.95 524.433,12.28 524.313,12.56 524.263,12.99 524.303,13.46 
					524.383,13.77 524.453,13.89 524.683,13.99 524.903,14 525.323,14.02 526.183,13.96 526.383,13.97 526.613,14.02 526.803,14.14 
					526.923,14.24 527.063,14.44 527.263,14.87 527.623,16.02 527.783,16.36 528.053,16.7 528.183,17 528.273,17.49 528.393,17.68 
					529.213,18.4 529.423,18.61 529.873,18.85 530.243,18.92 530.743,19.09 530.953,19.2 531.063,19.27 531.183,19.31 
					531.393,19.51 531.413,19.84 531.393,20.06 531.323,20.39 531.173,20.77 531.143,20.91 531.063,21.01 531.053,21.12 
					530.933,21.35 530.854,21.66 530.843,21.77 530.873,22 530.933,22.14 531.042,22.35 531.253,22.56 531.583,22.81 531.913,22.97 
					532.223,23.02 532.453,22.99 532.563,22.93 533.003,22.57 533.063,22.48 533.883,21.62 534.013,21.54 534.183,21.34 
					534.423,21.16 534.604,20.93 535.003,20.58 535.243,20.39 535.333,20.31 535.583,20.17 535.843,20.11 				"/>
				<polyline fill="none" stroke="#666666" stroke-width="0.25" stroke-linejoin="round" stroke-miterlimit="3.8637" points="
					554.803,18.4 554.173,18.58 553.943,18.67 552.953,18.87 552.843,18.87 552.623,18.94 552.503,18.95 552.223,19.03 
					551.973,19.15 551.854,19.16 551.473,19.36 551.333,19.39 551.033,19.56 550.673,19.78 550.073,20.02 549.833,20.14 
					549.083,20.68 548.973,20.71 548.843,20.8 548.713,20.85 548.473,20.98 548.333,21 547.873,21.14 547.753,21.14 547.553,21.24 
					547.463,21.22 546.973,21.35 546.833,21.4 546.723,21.47 546.633,21.58 546.553,21.68 546.533,21.81 546.633,21.94 546.713,22 
					547.042,22.18 547.073,22.39 547.053,22.48 547.143,22.69 547.373,22.87 547.683,23.04 547.913,23.24 547.993,23.33 
					548.033,23.44 548.053,23.56 548.053,23.68 547.963,23.98 				"/>
				<polyline fill="none" stroke="#666666" stroke-width="0.25" stroke-linejoin="round" stroke-miterlimit="3.8637" points="
					553.523,21.01 553.333,20.72 553.143,20.66 553.023,20.72 552.933,20.86 552.913,21 552.913,21.17 552.813,21.28 552.803,21.47 
					552.503,22.33 552.473,22.45 552.413,22.54 552.173,22.62 551.933,22.89 551.833,23.08 551.743,23.17 551.623,23.24 
					551.483,23.26 551.343,23.24 551.223,23.24 550.913,23.32 550.703,23.31 550.593,23.29 550.354,23.2 550.163,23.17 
					550.053,23.23 549.983,23.32 549.883,23.54 549.673,23.86 549.563,23.95 549.354,24.02 549.233,24.02 548.803,24.1 
					548.473,24.1 548.223,24.06 547.963,23.98 				"/>
				<polyline fill="none" stroke="#666666" stroke-width="0.25" stroke-linejoin="round" stroke-miterlimit="3.8637" points="
					547.963,23.98 547.773,24.27 547.463,24.58 546.633,25.25 546.553,25.33 546.323,25.42 545.953,25.48 				"/>
				<polyline fill="none" stroke="#666666" stroke-width="0.25" stroke-linejoin="round" stroke-miterlimit="3.8637" points="
					543.163,27.29 543.683,27.24 543.792,27.22 544.013,27.08 544.093,26.96 544.354,26.32 544.643,25.77 544.763,25.48 
					544.883,25.29 544.973,25.2 545.093,25.12 545.393,25.03 545.593,25.04 545.693,25.09 545.803,25.2 545.953,25.48 				"/>
				<polyline fill="none" stroke="#666666" stroke-width="0.25" stroke-linejoin="round" stroke-miterlimit="3.8637" points="
					535.843,20.11 536.313,20.54 536.513,20.77 536.933,21.16 537.273,21.52 537.743,21.92 537.863,21.99 538.423,22.42 
					538.773,22.6 540.042,22.99 540.253,23 540.463,22.96 540.673,22.96 540.773,22.99 540.863,23.08 540.953,23.29 540.953,23.38 
					541.104,23.83 541.303,24.2 541.373,24.31 541.493,24.54 541.943,25.46 542.783,26.59 543.083,27.07 543.163,27.29 				"/>
				<polyline fill="none" stroke="#666666" stroke-width="0.25" stroke-linejoin="round" stroke-miterlimit="3.8637" points="
					556.633,23.11 556.523,23.37 556.493,23.75 556.453,24 556.243,24.55 556.053,24.91 555.553,25.79 555.473,25.9 555.233,26.27 
					555.013,26.72 555.053,26.83 555.673,27.31 555.583,27.55 555.373,27.94 555.292,28.16 555.292,28.29 555.023,29.16 
					554.873,30.06 				"/>
				<polyline fill="none" stroke="#666666" stroke-width="0.25" stroke-linejoin="round" stroke-miterlimit="3.8637" points="
					519.933,14.81 520.354,15.07 520.703,15.39 520.773,15.47 521.104,15.74 521.213,15.95 521.223,16.04 521.213,16.14 
					521.093,16.22 520.593,16.37 520.383,16.42 520.283,16.48 520.223,16.57 520.263,16.78 520.753,17.31 520.973,17.5 
					521.313,17.87 521.643,18.33 521.743,18.4 521.873,18.62 521.973,18.83 521.973,18.94 521.953,19.04 521.873,19.16 
					521.553,19.45 521.413,19.51 520.763,20.04 520.633,20.32 520.613,20.53 520.643,20.74 520.553,20.96 520.473,21.06 
					520.313,21.39 520.493,21.58 520.753,21.76 521.093,21.83 521.303,21.85 521.542,21.89 521.854,21.91 522.163,21.97 
					522.263,21.97 522.973,22.41 523.053,22.51 522.973,23.47 522.863,24.1 522.863,24.39 522.913,24.79 522.983,24.89 
					523.303,25.24 523.354,25.33 523.823,26.21 523.993,26.6 524.104,26.95 524.343,27.87 524.343,27.99 524.183,28.18 
					524.083,28.27 523.773,28.58 523.633,28.78 523.542,28.97 523.493,29.52 523.493,29.95 523.453,30.24 523.354,30.35 
					522.843,30.6 522.763,30.66 				"/>
				<polyline fill="none" stroke="#666666" stroke-width="0.25" stroke-linejoin="round" stroke-miterlimit="3.8637" points="
					543.163,27.29 543.063,27.37 542.963,27.43 542.854,27.54 542.203,27.94 541.792,28.25 541.493,28.54 541.263,28.85 
					541.183,29.06 541.143,29.17 541.073,29.35 541.003,29.45 540.893,29.58 540.773,29.68 540.513,29.96 540.373,30.25 
					540.203,30.74 540.133,30.83 				"/>
				<polyline fill="none" stroke="#666666" stroke-width="0.25" stroke-linejoin="round" stroke-miterlimit="3.8637" points="
					545.953,25.48 546.133,25.87 546.183,26 546.443,26.41 546.633,26.6 546.893,26.79 547.123,26.83 547.333,26.79 547.553,26.66 
					547.792,26.62 547.943,26.65 548.513,26.87 549.023,27.14 549.743,27.43 549.973,27.85 550.053,27.95 550.093,28.06 
					550.333,28.42 550.513,28.64 550.854,28.9 551.763,29.45 552.354,29.74 552.413,29.86 552.354,30.12 552.303,30.19 
					552.273,30.49 552.292,30.61 552.583,30.85 552.653,30.95 552.883,30.82 552.973,30.73 553.183,30.6 553.873,30.24 
					554.213,30.13 554.423,30.1 554.763,30.1 554.873,30.06 				"/>
				<polyline fill="none" stroke="#666666" stroke-width="0.25" stroke-linejoin="round" stroke-miterlimit="3.8637" points="
					520.473,30.97 520.593,30.94 520.803,30.85 521.153,30.68 521.643,30.52 521.873,30.54 522.013,30.5 522.223,30.52 
					522.354,30.54 522.763,30.66 				"/>
				<polyline fill="none" stroke="#666666" stroke-width="0.25" stroke-linejoin="round" stroke-miterlimit="3.8637" points="
					554.873,30.06 554.833,30.58 554.783,30.92 554.743,31.7 554.763,32.17 554.803,32.38 554.833,32.49 555.023,32.81 
					555.233,32.96 555.463,33 				"/>
				<polyline fill="none" stroke="#666666" stroke-width="0.25" stroke-linejoin="round" stroke-miterlimit="3.8637" points="
					555.463,33 555.773,32.93 555.973,32.86 557.203,32.66 557.413,32.83 557.713,33.14 557.833,33.19 557.923,33.19 558.042,33.12 
					558.373,32.75 558.473,32.7 558.792,32.68 559.003,32.72 559.163,32.89 559.433,33.39 				"/>
				<polyline fill="none" stroke="#666666" stroke-width="0.25" stroke-linejoin="round" stroke-miterlimit="3.8637" points="
					507.583,33.25 507.893,33.29 508.104,33.37 508.313,33.4 508.553,33.39 508.673,33.4 509.063,33.37 509.303,33.29 509.783,33.1 
					510.493,32.71 511.073,32.42 511.333,32.27 511.683,32.1 511.923,32 512.273,31.91 512.503,31.89 512.743,31.91 514.303,31.87 
					514.643,31.9 515.133,31.87 516.042,31.87 516.813,31.84 517.463,31.79 517.973,31.7 518.083,31.7 519.083,31.43 520.013,31.15 
					520.473,30.97 				"/>
				<polyline fill="none" stroke="#666666" stroke-width="0.25" stroke-linejoin="round" stroke-miterlimit="3.8637" points="
					522.763,30.66 522.953,30.74 523.373,31.1 524.553,32.29 524.873,32.59 525.083,32.75 525.303,32.79 525.563,32.74 
					525.923,32.6 526.313,32.42 526.423,32.41 526.753,32.31 527.183,32.18 527.393,32.14 527.753,32.17 528.163,32.39 
					528.792,32.85 529.104,33.01 529.433,33.24 529.763,33.39 529.993,33.43 530.093,33.35 530.173,33.25 530.753,32.2 
					531.133,31.62 531.493,31.15 531.703,31 532.183,30.81 532.643,30.73 533.263,30.68 533.383,30.68 533.713,30.66 534.053,30.67 
					534.473,30.76 534.893,30.95 535.003,31.04 535.093,31.08 535.333,31.29 535.593,31.62 535.854,31.83 536.053,31.9 
					536.483,31.85 536.713,31.78 537.323,31.42 537.743,31.24 538.133,31.09 538.673,30.92 539.453,30.81 539.813,30.79 
					540.133,30.83 				"/>
				<polyline fill="none" stroke="#666666" stroke-width="0.25" stroke-linejoin="round" stroke-miterlimit="3.8637" points="
					555.463,33 555.493,33.04 555.493,33.22 555.513,33.62 555.503,34.87 555.463,34.97 555.393,35.06 554.854,35.37 554.813,35.45 
					554.843,35.56 554.933,35.64 555.203,35.85 555.292,35.87 555.393,35.98 555.423,36.07 555.423,36.16 555.413,36.25 
					555.354,36.35 555.253,36.46 555.013,36.54 554.423,36.66 554.083,36.68 553.973,36.73 553.523,36.82 553.403,36.82 
					553.093,36.89 553.013,36.99 552.983,37.09 553.093,37.41 553.163,37.56 553.193,37.96 553.163,38.12 553.104,38.32 
					552.953,38.62 552.703,38.92 552.373,39.14 551.883,39.33 551.763,39.4 551.623,39.43 				"/>
				<polyline fill="none" stroke="#666666" stroke-width="0.25" stroke-linejoin="round" stroke-miterlimit="3.8637" points="
					540.133,30.83 540.253,31.04 540.343,31.14 540.533,31.46 540.583,31.67 540.604,32.06 540.513,32.45 540.303,33.02 
					540.083,33.4 539.953,33.6 539.573,34.02 539.343,34.24 539.273,34.35 538.723,34.81 538.354,35.05 537.792,35.38 
					537.373,35.59 537.133,35.7 537.023,35.71 536.783,35.81 536.593,35.87 536.363,35.96 536.273,36.06 536.213,36.14 
					536.243,36.25 536.413,36.47 536.633,36.68 536.713,36.77 537.053,37.03 537.292,37.27 537.683,37.54 537.923,37.63 
					538.383,37.77 538.883,37.83 539.813,38.14 540.093,38.26 540.513,38.54 540.673,38.77 540.803,39.16 540.813,39.83 
					540.792,40.03 540.673,40.41 540.593,40.58 540.443,40.81 540.063,41.27 				"/>
				<polyline fill="none" stroke="#666666" stroke-width="0.25" stroke-linejoin="round" stroke-miterlimit="3.8637" points="
					551.623,39.43 551.223,39.54 551.003,39.56 550.213,39.77 549.923,39.92 549.833,40.03 549.653,40.36 549.593,40.56 
					549.503,40.77 549.354,40.97 549.273,41.06 548.933,41.21 548.833,41.18 548.723,41.08 548.473,40.67 548.383,40.78 
					548.333,40.9 548.273,41.16 548.183,41.72 548.153,42.02 547.993,42.74 547.893,42.88 547.763,42.94 547.643,42.94 
					547.383,42.83 547.163,42.62 547.042,42.5 546.723,42.19 546.633,42.12 546.463,42.01 546.223,41.91 545.903,41.83 
					545.763,41.83 545.273,41.77 544.943,41.6 544.383,41.27 544.093,41.11 543.983,41.08 543.423,41.05 543.292,41.06 
					542.513,41.24 541.913,41.44 541.403,41.53 541.042,41.53 540.683,41.49 540.233,41.35 540.133,41.27 540.063,41.27 				"/>
				<polyline fill="none" stroke="#666666" stroke-width="0.25" stroke-linejoin="round" stroke-miterlimit="3.8637" points="
					520.473,30.97 520.883,31.41 521.363,32.05 521.473,32.14 521.723,32.56 521.883,33.02 521.933,33.25 521.953,33.46 
					521.923,33.68 521.883,33.77 521.763,33.99 521.523,34.29 521.423,34.52 521.423,34.64 521.473,34.84 521.604,35.17 
					521.854,35.56 521.923,35.65 522.343,36.08 522.413,36.2 522.803,36.62 523.042,37.04 523.123,37.37 523.143,37.6 523.163,37.9 
					523.123,38.42 523.042,38.87 523.042,39.08 523.073,39.19 523.133,39.31 523.313,39.5 523.643,39.71 523.763,39.74 
					524.203,39.99 524.413,40.08 524.542,40.1 525.354,40.52 525.703,40.75 525.773,40.84 525.843,40.96 526.013,41.29 
					526.104,41.62 526.104,41.87 526.104,42.25 526.073,42.49 525.953,43.14 525.792,43.72 525.673,44.04 525.583,44.17 
					525.533,44.26 524.933,44.83 524.593,45.34 524.483,45.55 524.423,45.95 524.333,46.3 524.133,46.66 523.683,47 523.473,47.14 
					523.253,47.32 523.143,47.42 523.053,47.62 523.023,47.74 523.003,47.98 523.003,48.31 523.013,48.83 523.003,49.18 
					522.913,50.1 522.803,50.52 522.773,50.65 522.713,50.74 522.653,51.06 522.533,51.37 				"/>
				<polyline fill="none" stroke="#666666" stroke-width="0.25" stroke-linejoin="round" stroke-miterlimit="3.8637" points="
					506.883,53.59 507.292,53.59 507.493,53.54 507.813,53.32 508.283,52.81 508.593,52.51 508.823,52.35 509.243,52.21 
					509.573,52.2 509.803,52.22 509.903,52.25 510.042,52.35 510.413,52.51 510.843,52.75 510.953,52.78 511.243,52.93 
					511.513,53.02 511.973,53.1 512.213,53.1 512.604,53.05 512.753,52.99 512.953,52.83 513.083,52.62 513.203,52.06 
					513.303,50.92 513.354,50.7 513.443,50.42 513.533,50.18 513.773,49.81 514.104,49.41 514.333,49.24 514.553,49.14 
					514.773,49.1 515.213,49.12 515.453,49.16 516.263,49.41 516.373,49.45 517.053,49.6 517.773,49.84 517.923,49.91 
					518.523,50.16 520.193,50.89 521.213,51.27 521.453,51.33 521.723,51.37 522.413,51.33 522.533,51.37 				"/>
				<polyline fill="none" stroke="#666666" stroke-width="0.25" stroke-linejoin="round" stroke-miterlimit="3.8637" points="
					551.623,39.43 551.083,40.24 550.613,41.04 550.723,41.14 550.823,41.21 551.573,41.6 552.063,41.81 552.263,41.92 
					552.373,42.01 552.553,42.25 552.703,42.54 552.763,42.71 552.763,42.94 552.723,43.14 552.683,43.52 552.553,44.24 
					552.503,44.35 552.393,44.8 552.233,45.35 552.053,45.77 551.803,46.16 551.623,46.35 551.483,46.56 551.383,46.64 
					551.292,46.78 550.973,47.11 550.593,47.53 550.453,47.81 550.542,48.13 550.873,48.79 551.393,49.91 551.933,50.96 
					552.533,52.02 553.013,52.9 553.373,53.44 553.703,53.86 553.843,54.1 553.873,54.39 553.923,54.68 554.013,54.91 				"/>
				<polyline fill="none" stroke="#666666" stroke-width="0.25" stroke-linejoin="round" stroke-miterlimit="3.8637" points="
					563.343,48.89 563.223,49.12 563.053,49.33 562.854,49.52 562.513,49.79 562.303,50 562.163,50.2 562.104,50.42 562.053,50.66 
					562.073,51.29 562.213,52.37 562.213,52.72 562.143,53.12 561.983,53.45 561.913,53.58 561.683,53.75 561.203,54.04 
					560.433,54.31 559.583,54.47 559.383,54.55 559.283,54.62 559.213,54.73 559.193,54.82 559.223,54.94 559.383,55.12 
					559.583,55.31 559.633,55.42 559.643,55.51 559.593,55.62 559.403,55.81 558.983,56.05 558.273,56.29 				"/>
				<polyline fill="none" stroke="#666666" stroke-width="0.25" stroke-linejoin="round" stroke-miterlimit="3.8637" points="
					558.273,56.29 557.854,56.26 557.483,56.26 557.483,56.27 557.093,56.27 556.542,56.17 556.013,56.04 555.083,55.66 
					554.333,55.15 554.063,54.94 554.013,54.91 				"/>
				<polyline fill="none" stroke="#666666" stroke-width="0.25" stroke-linejoin="round" stroke-miterlimit="3.8637" points="
					540.063,41.27 539.923,41.45 539.333,41.89 538.803,42.25 538.373,42.56 538.223,42.64 537.533,43.14 536.513,43.89 
					536.223,44.05 535.723,44.47 535.073,45.06 534.633,45.37 534.513,45.47 534.354,45.7 534.273,45.94 534.292,46.16 
					534.493,46.81 534.533,47.29 534.443,47.71 534.323,48.02 534.183,48.27 534.113,48.49 534.063,48.73 534.133,49.02 
					534.173,49.14 534.323,49.37 534.423,49.51 534.863,49.9 534.933,50 534.973,50.11 534.953,50.18 534.923,50.27 534.843,50.37 
					534.133,50.5 533.883,50.58 533.553,50.72 533.363,50.85 532.673,51.28 532.553,51.34 532.283,51.43 531.913,51.45 
					531.463,51.4 531.183,51.31 530.383,51.01 529.542,50.8 529.313,50.79 529.213,50.85 529.104,50.93 529.053,51.02 
					529.042,51.14 529.042,51.25 529.163,51.56 529.333,51.79 530.343,52.99 530.833,53.53 532.023,54.77 532.513,55.39 
					532.873,56.05 532.913,56.16 533.243,56.8 533.363,56.98 533.433,57.19 533.453,57.35 				"/>
				<polyline fill="none" stroke="#666666" stroke-width="0.25" stroke-linejoin="round" stroke-miterlimit="3.8637" points="
					533.453,57.35 533.213,57.27 532.973,57.22 532.593,57.16 531.893,57.16 531.513,57.22 530.383,57.56 				"/>
				<polyline fill="none" stroke="#666666" stroke-width="0.25" stroke-linejoin="round" stroke-miterlimit="3.8637" points="
					522.533,51.37 522.863,51.62 523.042,51.88 523.373,52.57 523.663,53.04 523.763,53.14 523.913,53.37 524.292,53.74 
					524.483,53.87 524.683,53.91 524.923,53.87 525.233,53.72 525.354,53.7 525.553,53.7 526.023,53.85 526.383,54 526.613,54.13 
					526.843,54.29 526.923,54.49 527.213,55.24 527.393,55.43 527.503,55.48 528.093,55.57 528.443,55.66 528.983,55.9 
					529.593,56.29 529.893,56.58 530.133,56.87 530.292,57.17 530.363,57.37 530.383,57.56 				"/>
				<path fill="none" stroke="#666666" stroke-width="0.25" stroke-linejoin="round" stroke-miterlimit="3.8637" d="M557.483,56.32
					c0,0,0.149,0.93,1.021,1.57c0.85,0.63,1.829-0.29,1.829-0.29l0.811-0.6l0.021,0.01l0.689,0.19l0.341,0.08l0.75,0.3l0.62,0.18
					l0.989,0.18l0.939,0.2l1.221,0.07l0.239-0.06l0.229-0.57l0.2-0.3l0.149-0.18l0.399-0.4l0.359-0.28l0.54-0.32l0.511-0.23
					l1.01-0.31l1.271-0.47"/>
				<polyline fill="none" stroke="#666666" stroke-width="0.25" stroke-linejoin="round" stroke-miterlimit="3.8637" points="
					554.013,54.91 553.643,54.97 552.813,55.24 552.593,55.37 552.413,55.57 552.263,55.79 552.223,56 552.233,56.11 552.583,56.93 
					552.673,57.28 552.633,57.5 552.473,57.71 552.253,57.85 552.042,58.04 551.843,58.37 551.423,59.35 550.943,60.31 
					550.854,60.54 550.803,60.73 550.823,60.92 550.854,61.03 550.943,61.24 551.223,61.81 551.303,62.23 551.333,62.47 
					551.343,62.95 551.263,63.52 551.273,63.92 551.343,64.1 551.453,64.31 551.833,64.78 552.042,65.1 552.133,65.31 
					552.223,65.59 552.253,65.83 552.253,66.14 552.143,66.73 552.163,66.83 				"/>
				<polyline fill="none" stroke="#666666" stroke-width="0.25" stroke-linejoin="round" stroke-miterlimit="3.8637" points="
					571.553,68.53 570.833,68.18 570.703,68.16 570.113,68.11 569.903,68.16 569.803,68.12 569.693,68.02 569.542,67.72 
					569.243,67.29 568.973,66.83 568.542,66.2 568.343,66.02 568.243,66.06 568.143,66.13 568.042,66.24 567.843,66.54 
					567.673,66.73 567.553,66.81 567.373,66.87 567.253,66.88 567.163,66.87 566.953,66.77 566.833,66.66 566.623,66.31 
					566.303,65.47 566.243,65.26 566.213,65.17 566.133,64.79 566.053,64.18 565.913,63.85 565.473,63.25 565.383,63.19 
					565.223,63.37 565.104,63.68 565.042,63.79 564.883,64.14 564.713,64.36 564.513,64.57 564.393,64.66 564.023,64.85 
					563.903,64.87 563.663,64.87 563.313,64.78 562.723,64.54 562.223,64.27 562.013,64.2 561.913,64.16 561.703,64.16 
					561.473,64.2 561.373,64.39 561.343,64.57 561.233,64.77 561.093,64.87 560.633,65.08 560.573,65.18 560.513,65.27 
					560.503,65.39 560.523,65.7 560.523,65.74 560.453,65.87 560.273,66.08 559.943,66.37 559.493,66.68 559.143,66.85 
					558.813,66.97 557.993,67.37 557.313,67.67 556.683,67.97 556.453,68.04 556.333,68.04 555.933,67.89 555.253,67.41 
					555.023,67.29 554.483,67.18 553.883,67.16 553.433,67.12 552.163,66.83 				"/>
				<polyline fill="none" stroke="#666666" stroke-width="0.25" stroke-linejoin="round" stroke-miterlimit="3.8637" points="
					552.163,66.83 551.963,66.79 551.743,66.79 551.483,66.88 550.673,67.36 550.583,67.45 550.104,67.81 549.883,68.02 
					549.354,68.58 549.163,68.74 548.783,69.22 548.523,69.49 548.083,70.14 547.883,70.52 				"/>
				<polyline fill="none" stroke="#666666" stroke-width="0.25" stroke-linejoin="round" stroke-miterlimit="3.8637" points="
					547.883,70.52 547.763,70.37 547.463,70.1 547.333,69.81 547.133,69.06 546.683,67.67 546.563,67.06 546.413,66.56 
					546.292,66.5 546.163,66.54 545.273,66.83 544.873,67 544.723,66.97 544.493,66.92 543.983,66.71 543.583,66.58 543.013,66.41 
					542.303,66.27 541.003,66.06 540.263,65.87 540.023,65.79 539.813,65.68 539.573,65.47 539.333,65.24 539.203,65.05 
					539.013,64.64 538.943,64.54 538.143,63.85 537.623,63.27 537.373,62.93 537.053,63.04 536.813,63.06 536.223,63.01 536.133,63 
					535.923,62.86 535.523,62.45 534.713,61.78 534.053,61.18 533.923,60.89 533.903,60.74 533.923,60.62 534.042,60 534.173,59.56 
					534.173,59.44 534.263,58.97 534.303,58.51 534.233,58.27 534.053,57.95 533.663,57.47 533.453,57.35 				"/>
				<polyline fill="none" stroke="#666666" stroke-width="0.25" stroke-linejoin="round" stroke-miterlimit="3.8637" points="
					517.792,77.83 520.993,75.97 521.883,75.5 522.863,75.14 523.313,74.95 523.663,74.77 523.854,74.62 523.943,74.52 
					523.963,74.41 523.923,74.32 523.823,74.21 523.463,74.08 523.263,73.89 523.143,73.67 523.104,73.56 523.133,73.35 
					523.263,73.09 523.792,72.68 524.153,72.33 524.413,71.91 524.593,71.41 524.803,71 525.013,70.81 525.093,70.78 525.223,70.78 
					525.703,70.91 525.833,70.95 525.933,70.91 526.873,70.45 528.763,69.91 528.933,69.68 529.053,69.37 529.093,69.28 
					529.093,69.06 529.042,68.95 528.833,68.52 528.723,68.23 528.683,67.93 528.653,67.46 528.673,67.08 528.723,66.68 
					528.813,66.37 528.883,65.98 528.913,65.66 528.843,65.42 528.703,65.2 528.343,65 527.604,64.77 526.923,64.62 526.513,64.48 
					526.423,64.43 526.213,64.3 526.104,64.2 526.042,63.97 526.042,63.77 526.193,63.24 526.373,62.71 526.633,62.12 
					527.363,61.74 527.542,61.52 527.693,61.2 527.783,60.81 527.854,60.6 528.023,60.29 528.203,60.08 528.443,59.89 
					528.673,59.75 528.913,59.65 529.423,59.37 529.854,58.99 530.013,58.81 530.123,58.69 530.223,58.45 530.263,58.33 
					530.333,58.02 530.383,57.56 				"/>
				<polyline fill="none" stroke="#666666" stroke-width="0.25" stroke-linejoin="round" stroke-miterlimit="3.8637" points="
					505.883,78.2 505.893,78.2 505.913,78.22 506.013,78.28 506.313,78.56 506.393,78.68 506.483,78.77 506.753,78.91 
					507.253,79.02 507.604,79.04 507.923,79.14 508.493,79.35 508.803,79.42 508.963,79.48 509.133,79.51 509.273,79.56 
					509.523,79.7 509.753,79.87 510.083,80.08 510.183,80.18 510.533,80.42 510.623,80.53 510.983,80.75 511.673,81.04 
					512.033,81.13 512.213,80.66 512.303,80.26 512.383,80.08 512.604,79.89 512.843,79.74 513.553,79.45 514.143,79.12 
					515.313,78.56 515.633,78.47 516.163,78.43 516.713,78.34 517.333,78.1 517.792,77.83 				"/>
				<polyline fill="none" stroke="#666666" stroke-width="0.25" stroke-linejoin="round" stroke-miterlimit="3.8637" points="
					517.792,77.83 518.203,77.95 518.813,78.2 519.053,78.29 520.343,78.83 520.973,79.04 521.473,79.27 521.903,79.31 
					522.773,79.27 523.773,79.29 524.313,79.36 524.993,79.5 525.604,79.54 525.893,79.58 526.313,79.69 526.613,79.81 
					527.513,80.27 527.923,80.52 528.133,80.6 528.233,80.62 528.443,80.6 528.653,80.53 529.283,80.2 529.373,80.18 529.463,80.2 
					529.542,80.29 529.583,80.39 529.583,80.52 529.553,80.62 529.073,81.71 528.953,82.03 528.893,82.35 528.913,82.64 
					528.953,82.83 529.023,83.04 529.193,83.35 529.583,83.83 529.913,84.17 530.333,84.59 530.573,84.79 530.903,84.95 
					531.763,85.18 532.303,85.36 532.523,85.48 532.733,85.63 532.963,85.87 533.383,86.53 533.542,86.74 533.973,87.07 
					534.323,87.28 535.403,87.68 535.792,87.88 535.913,87.95 535.973,88.06 536.063,88.29 536.093,88.57 536.093,89.08 
					536.053,90.41 535.963,91.67 				"/>
				<polyline fill="none" stroke="#666666" stroke-width="0.25" stroke-linejoin="round" stroke-miterlimit="3.8637" points="
					535.963,91.67 536.292,91.5 536.483,91.31 536.783,91 537.013,90.89 537.703,90.68 538.053,90.54 538.143,90.5 538.423,90.54 
					538.542,90.59 538.763,90.7 539.243,91.03 539.473,91.21 539.643,91.54 539.693,91.72 539.723,91.78 				"/>
				<polyline fill="none" stroke="#666666" stroke-width="0.25" stroke-linejoin="round" stroke-miterlimit="3.8637" points="
					547.883,70.52 547.753,70.69 547.473,71.23 547.193,71.96 546.773,72.87 546.393,73.83 546.173,74.23 545.453,75.39 
					544.673,76.56 544.463,76.85 544.383,77 543.933,77.64 543.843,77.8 543.593,78.13 543.473,78.37 543.203,78.95 542.763,79.77 
					542.542,80.26 542.393,80.77 542.363,81.08 542.383,81.28 542.513,81.85 542.593,82.03 542.643,82.12 543.373,82.22 
					544.643,82.3 545.263,82.41 545.883,82.56 546.604,82.87 546.833,83 547.513,83.32 548.123,83.65 548.133,83.75 548.104,83.84 
					548.003,84.55 547.923,84.83 547.803,85.15 547.593,85.43 547.253,85.64 547.023,85.76 546.323,86.05 546.113,86.23 
					545.643,86.75 545.303,86.8 544.963,86.77 544.633,86.8 544.542,86.81 544.253,86.96 543.833,87.31 541.433,88.39 
					541.013,88.67 540.604,88.9 540.093,89.23 540.013,89.33 539.854,89.51 539.813,89.62 539.783,89.8 539.833,89.92 
					540.253,90.24 540.443,90.43 540.623,90.73 540.723,90.91 540.843,91.25 540.933,91.58 540.973,91.78 540.953,91.87 
					540.913,91.98 540.792,92.05 540.683,92.08 540.583,92.09 540.383,92.08 540.183,92 539.723,91.78 				"/>
				<polyline fill="none" stroke="#666666" stroke-width="0.25" stroke-linejoin="round" stroke-miterlimit="3.8637" points="
					528.953,93 529.923,92.44 530.423,92.27 530.683,92.24 531.063,92.26 532.163,92.39 533.363,92.6 533.883,92.6 534.203,92.51 
					534.423,92.41 535.073,92.02 535.193,91.98 535.493,91.91 535.703,91.83 535.963,91.67 				"/>
				<polyline fill="none" stroke="#666666" stroke-width="0.25" stroke-linejoin="round" stroke-miterlimit="3.8637" points="
					539.723,91.78 539.783,91.96 539.923,92.16 540.023,92.26 540.223,92.41 540.503,92.56 540.933,92.7 541.253,92.73 
					541.593,92.71 542.053,92.64 542.343,92.51 542.553,92.47 542.763,92.45 542.973,92.53 543.093,92.62 543.323,92.86 
					543.703,93.43 543.973,93.73 544.253,93.99 544.703,94.23 545.203,94.33 545.473,94.37 545.753,94.37 545.843,94.34 
					545.953,94.25 545.973,94.15 545.963,93.39 546.042,93.29 546.143,93.31 546.354,93.41 546.792,93.76 547.343,94.36 				"/>
				<polyline fill="none" stroke="#666666" stroke-width="0.25" stroke-linejoin="round" stroke-miterlimit="3.8637" points="
					514.493,96.16 515.093,96.08 515.633,96.08 515.903,96.06 516.473,95.98 516.843,95.98 518.303,95.89 518.542,95.84 
					519.393,95.39 519.623,95.35 519.763,95.37 520.003,95.41 520.463,95.56 520.823,95.64 521.333,95.71 521.593,95.73 
					521.973,95.8 522.303,95.81 522.633,95.71 522.813,95.53 522.883,95.29 522.863,94.98 522.883,94.58 522.973,94.27 
					523.123,94.06 523.223,93.95 523.563,93.77 523.943,93.64 524.633,93.34 524.723,93.31 524.933,93.29 525.354,93.46 
					525.983,93.49 526.643,93.46 527.203,93.4 528.292,93.2 528.713,93.1 528.953,93 				"/>
				<polyline fill="none" stroke="#666666" stroke-width="0.25" stroke-linejoin="round" stroke-miterlimit="3.8637" points="
					501.093,84.22 501.113,84.25 501.143,84.45 501.083,84.79 501.013,85.09 500.813,85.62 500.713,85.85 500.633,86.08 
					500.633,86.29 500.663,86.39 500.843,86.59 501.292,87.01 501.773,87.4 501.923,87.59 501.923,87.68 501.843,87.77 
					501.604,87.89 501.253,87.94 501.113,87.94 500.803,87.97 500.243,88.06 499.893,88.41 499.093,89.39 498.883,89.68 
					498.863,89.79 499.283,90.08 500.273,90.66 500.623,90.88 501.083,91.27 501.503,91.67 501.673,91.89 501.863,92.17 
					502.283,92.89 502.354,93 502.563,93.13 502.683,93.16 503.573,93.22 504.042,93.34 504.792,93.58 505.433,93.83 505.643,93.97 
					506.263,94.45 506.343,94.57 506.473,94.9 506.542,95.35 506.593,95.77 506.683,95.95 506.783,96.06 506.873,96.12 
					507.183,96.14 507.983,96.13 509.643,95.98 510.473,95.86 511.283,95.83 512.263,95.81 513.083,95.87 513.393,95.92 
					514.493,96.16 				"/>
				<polyline fill="none" stroke="#666666" stroke-width="0.25" stroke-linejoin="round" stroke-miterlimit="3.8637" points="
					514.493,96.16 513.553,98.02 512.973,99.13 512.433,99.89 511.963,100.41 511.003,101.29 509.843,102.25 508.373,103.34 
					504.703,106.14 502.583,107.86 500.963,109.09 500.173,109.74 499.563,110.21 496.873,112.23 495.563,113.14 492.143,114.61 
									"/>
				<polyline fill="none" stroke="#666666" stroke-width="0.25" stroke-linejoin="round" stroke-miterlimit="3.8637" points="
					528.953,93 528.953,93.24 529.104,93.52 529.313,93.82 529.473,94.01 529.683,94.21 530.183,94.56 530.593,94.75 530.963,94.87 
					531.063,94.95 531.143,95.05 531.143,95.14 531.143,95.24 531.023,95.42 530.573,95.84 529.673,96.46 529.123,96.94 
					529.042,97.03 528.803,97.51 528.723,97.72 528.673,98 528.653,98.31 528.673,98.53 528.713,98.95 528.792,100.03 
					528.923,100.83 529.073,101.44 529.213,101.87 529.473,102.59 529.613,102.91 529.733,103.18 529.993,103.76 530.333,104.41 
					530.803,105.13 531.563,106.45 531.633,106.56 531.833,106.69 532.143,106.85 532.673,107.02 533.033,107.17 533.363,107.39 
					533.542,107.6 533.923,108.33 534.093,108.54 534.203,108.61 534.303,108.67 534.563,108.7 534.983,108.59 535.073,108.61 
					535.213,108.68 535.563,109.03 535.873,109.36 536.483,109.96 536.633,110.17 536.713,110.38 536.663,110.71 536.604,110.91 
					536.423,111.31 536.053,111.87 535.963,111.99 535.773,112.29 535.683,112.52 535.673,112.63 535.703,112.81 535.854,113.05 
					535.973,113.17 536.263,113.42 537.233,114.22 537.593,114.54 537.863,114.83 538.023,115.06 538.163,115.29 538.843,116.58 
					539.003,116.84 539.303,117.26 539.483,117.46 539.993,117.95 540.373,118.37 				"/>
				<polyline fill="none" stroke="#666666" stroke-width="0.25" stroke-linejoin="round" stroke-miterlimit="3.8637" points="
					558.163,108.12 557.523,108.46 557.093,108.77 556.893,108.99 556.763,109.2 556.553,109.5 556.403,109.81 556.193,110.06 
					555.673,110.47 555.593,110.56 555.413,110.91 555.303,111.24 555.143,111.58 554.763,112.12 554.423,112.52 554.173,112.83 
					554.033,113.06 553.792,113.53 553.763,113.66 553.493,114.24 553.343,114.31 552.893,114.39 551.723,114.73 551.303,114.89 
					550.854,115.09 550.613,115.23 550.303,115.42 549.843,115.79 549.083,116.58 548.633,116.98 548.303,117.22 547.803,117.43 
					546.792,117.62 546.013,117.79 545.303,118.12 545.083,118.16 544.453,118.16 543.913,118.08 543.354,118.04 543.013,118.1 
					541.792,118.46 541.433,118.46 540.533,118.34 540.373,118.37 				"/>
				<polyline fill="none" stroke="#666666" stroke-width="0.25" stroke-linejoin="round" stroke-miterlimit="3.8637" points="
					540.373,118.37 541.183,119.33 541.463,119.65 541.773,119.92 542.003,120.07 542.483,120.26 543.023,120.43 543.163,120.45 
					543.393,120.46 544.042,120.37 544.343,120.39 544.433,120.43 544.563,120.5 544.673,120.59 544.753,120.68 544.854,120.91 
					544.883,121.09 544.893,121.62 544.873,121.93 544.883,123.2 544.854,123.4 544.792,123.61 544.453,124.37 				"/>
				<polyline fill="none" stroke="#666666" stroke-width="0.25" stroke-linejoin="round" stroke-miterlimit="3.8637" points="
					544.453,124.37 544.373,124.5 544.313,124.69 544.303,124.81 544.313,125.04 544.433,125.24 544.673,125.47 545.383,125.95 
					546.273,126.66 546.443,126.85 546.463,126.95 546.443,127.06 546.343,127.16 546.023,127.3 545.623,127.39 545.513,127.46 
					545.383,127.66 545.333,127.87 545.333,128.09 545.393,129.01 545.433,129.25 545.473,129.37 545.593,129.56 545.683,129.68 
					545.783,129.76 545.843,129.85 545.903,129.95 545.903,130.16 545.833,130.37 545.604,130.74 545.273,131.14 544.923,131.51 
					544.854,131.64 544.753,131.93 544.723,132.16 544.643,132.88 544.673,133.48 544.753,133.79 545.963,135.85 545.813,135.94 
					545.483,135.95 545.343,135.92 544.943,135.76 544.493,135.48 544.093,135.2 543.673,134.89 543.042,134.37 542.483,133.96 
					542.063,133.63 541.773,133.34 541.383,132.82 541.123,132.5 541.023,132.41 540.703,132.17 540.503,132.08 540.053,131.93 
					539.513,131.87 539.013,131.89 538.343,132.01 537.773,132.16 537.493,132.26 536.873,132.64 536.173,133.27 535.683,133.62 
					535.383,133.81 526.913,135.89 524.663,135.99 521.542,136.08 506.803,139.48 				"/>
				<polyline fill="none" stroke="#666666" stroke-width="0.25" stroke-linejoin="round" stroke-miterlimit="3.8637" points="
					544.453,124.37 544.583,124.42 544.823,124.39 545.343,124.42 546.133,124.41 547.383,124.2 548.153,123.92 548.593,123.7 
					548.743,123.52 549.163,122.91 549.423,122.6 549.553,122.5 549.653,122.42 549.863,122.35 550.073,122.32 550.403,122.33 
					551.003,122.44 551.833,122.64 552.053,122.65 552.173,122.62 552.263,122.56 552.493,122.23 552.563,122.14 552.773,121.98 
					552.983,121.84 553.283,121.74 553.843,121.58 554.363,121.42 554.953,121.03 555.253,120.88 555.493,120.77 555.973,120.62 
					556.663,120.43 557.083,120.26 557.633,120 558.493,119.53 558.803,119.39 559.023,119.33 559.333,119.32 559.663,119.33 
					560.643,119.51 560.933,119.5 561.273,119.41 561.893,119.18 562.104,119.14 562.193,119.16 562.303,119.21 562.373,119.33 
					562.373,119.42 562.354,119.51 562.303,119.62 562.093,119.91 562.053,120.12 562.104,120.31 562.104,120.4 561.893,120.41 
					561.703,120.39 561.473,120.43 561.354,120.62 561.383,120.73 561.503,120.92 561.593,121.03 561.843,121.21 562.163,121.37 
					562.493,121.46 562.763,121.51 563.243,121.54 563.753,121.6 564.143,121.7 564.703,121.9 565.383,122.23 566.303,122.7 
					566.723,122.84 567.843,123.35 569.183,124.04 570.563,124.6 570.883,124.76 571.073,124.93 571.193,125.12 571.433,126.02 
					571.493,126.37 571.583,126.61 571.823,126.94 572.013,127.14 572.343,127.41 573.053,128.05 573.273,128.18 573.563,128.29 
					573.763,128.41 573.923,128.62 574.013,128.91 574.042,129.08 573.983,129.55 573.863,130 573.583,130.72 573.503,130.93 
					573.463,131.12 573.423,131.35 573.423,131.79 573.503,133.08 573.533,133.87 573.513,134.09 573.463,134.33 573.323,134.74 
					573.253,135.07 573.233,135.17 573.263,135.29 573.373,135.41 574.343,136.23 575.013,136.66 576.703,137.95 577.453,138.62 
					578.573,139.7 579.343,140.27 579.653,140.49 579.923,140.65 580.223,140.71 580.423,140.7 581.033,140.56 581.263,140.56 
					581.363,140.64 581.393,140.8 581.263,141.02 581.013,141.33 580.643,141.64 580.143,141.97 579.863,142.14 579.653,142.24 
					578.973,142.45 578.503,142.64 578.133,142.84 577.792,143.08 577.383,143.38 577.163,143.6 576.673,144.17 575.783,145.79 
					575.553,146.18 575.303,146.71 				"/>
				<polyline fill="none" stroke="#666666" stroke-width="0.25" stroke-linejoin="round" stroke-miterlimit="3.8637" points="
					533.333,209.16 533.483,209.35 533.833,209.77 				"/>
			</g>
		</g>
	</g>
</g>
</svg>
