<?xml version="1.0" encoding="utf-8"?>
<!-- Generator: Adobe Illustrator 13.0.0, SVG Export Plug-In . SVG Version: 6.00 Build 14948)  -->
<!DOCTYPE svg PUBLIC "-//W3C//DTD SVG 1.0//EN" "http://www.w3.org/TR/2001/REC-SVG-20010904/DTD/svg10.dtd">
<svg version="1.0" id="Calque_1" xmlns="http://www.w3.org/2000/svg" xmlns:xlink="http://www.w3.org/1999/xlink" x="0px" y="0px"
	 width="607.299px" height="537.383px" viewBox="0 0 607.299 537.383" enable-background="new 0 0 607.299 537.383"
	 xml:space="preserve">
<g id="XMLID_1_">
	<g>
		<g id="XMLID_2_">
			<g>
				<polygon fill="#86BA3A" points="561.909,42.83 561.689,42.62 561.569,42.5 561.249,42.19 561.159,42.12 560.989,42.01 
					560.749,41.91 560.43,41.83 560.289,41.83 559.799,41.77 559.47,41.6 558.909,41.27 558.619,41.11 558.509,41.08 557.949,41.05 
					557.819,41.06 557.039,41.24 556.439,41.44 555.93,41.53 555.569,41.53 555.209,41.49 554.759,41.35 554.659,41.27 
					554.589,41.27 554.97,40.81 555.119,40.58 555.199,40.41 555.319,40.03 555.339,39.83 555.329,39.16 555.199,38.77 
					555.039,38.54 554.619,38.26 554.339,38.14 553.409,37.83 552.909,37.77 552.449,37.63 552.209,37.54 551.819,37.27 
					551.579,37.03 551.239,36.77 551.159,36.68 550.939,36.47 550.77,36.25 550.739,36.14 550.799,36.06 550.89,35.96 
					551.119,35.87 551.31,35.81 551.549,35.71 551.659,35.7 551.899,35.59 552.319,35.38 552.879,35.05 553.249,34.81 
					553.799,34.35 553.869,34.24 554.1,34.02 554.479,33.6 554.609,33.4 554.829,33.02 555.039,32.45 555.129,32.06 555.109,31.67 
					555.06,31.46 554.869,31.14 554.779,31.04 554.659,30.83 554.729,30.74 554.899,30.25 555.039,29.96 555.299,29.68 
					555.419,29.58 555.529,29.45 555.6,29.35 555.669,29.17 555.709,29.06 555.789,28.85 556.02,28.54 556.319,28.25 556.729,27.94 
					557.379,27.54 557.489,27.43 557.589,27.37 557.689,27.29 558.209,27.24 558.319,27.22 558.539,27.08 558.619,26.96 
					558.879,26.32 559.169,25.77 559.289,25.48 559.409,25.29 559.499,25.2 559.619,25.12 559.919,25.03 560.119,25.04 
					560.22,25.09 560.329,25.2 560.479,25.48 560.659,25.87 560.709,26 560.97,26.41 561.159,26.6 561.419,26.79 561.649,26.83 
					561.859,26.79 562.079,26.66 562.319,26.62 562.47,26.65 563.039,26.87 563.549,27.14 564.27,27.43 564.499,27.85 
					564.579,27.95 564.619,28.06 564.859,28.42 565.039,28.64 565.379,28.9 566.289,29.45 566.879,29.74 566.939,29.86 
					566.879,30.12 566.829,30.19 566.799,30.49 566.819,30.61 567.109,30.85 567.18,30.95 567.409,30.82 567.499,30.73 
					567.709,30.6 568.399,30.24 568.739,30.13 568.949,30.1 569.289,30.1 569.399,30.06 569.359,30.58 569.31,30.92 569.27,31.7 
					569.289,32.17 569.329,32.38 569.359,32.49 569.549,32.81 569.759,32.96 569.989,33 570.02,33.04 570.02,33.22 570.039,33.62 
					570.029,34.87 569.989,34.97 569.919,35.06 569.379,35.37 569.339,35.45 569.369,35.56 569.459,35.64 569.729,35.85 
					569.819,35.87 569.919,35.98 569.949,36.07 569.949,36.16 569.939,36.25 569.879,36.35 569.779,36.46 569.539,36.54 
					568.949,36.66 568.609,36.68 568.499,36.73 568.049,36.82 567.93,36.82 567.619,36.89 567.539,36.99 567.509,37.09 
					567.619,37.41 567.689,37.56 567.72,37.96 567.689,38.12 567.629,38.32 567.479,38.62 567.229,38.92 566.899,39.14 
					566.409,39.33 566.289,39.4 566.149,39.43 565.749,39.54 565.529,39.56 564.739,39.77 564.449,39.92 564.359,40.03 
					564.18,40.36 564.119,40.56 564.029,40.77 563.879,40.97 563.799,41.06 563.459,41.21 563.359,41.18 563.249,41.08 
					562.999,40.67 562.909,40.78 562.859,40.9 562.799,41.16 562.709,41.72 562.68,42.02 562.52,42.74 562.419,42.88 562.289,42.94 
					562.169,42.94 				"/>
			</g>
			<g>
				<polygon fill="none" stroke="#666666" stroke-width="0.25" stroke-linejoin="round" stroke-miterlimit="3.8637" points="
					535.579,0.25 535.659,0.27 535.799,0.41 535.979,0.54 535.999,0.7 535.829,0.88 535.739,0.91 535.529,0.82 534.869,1.02 
					534.619,0.95 534.569,0.88 534.6,0.77 534.949,0.55 535.319,0.52 535.409,0.47 535.47,0.33 				"/>
				<polygon fill="none" stroke="#666666" stroke-width="0.25" stroke-linejoin="round" stroke-miterlimit="3.8637" points="
					556.039,9.28 556.039,9.14 556.199,8.85 556.319,8.72 556.47,8.71 556.419,8.98 556.319,9.14 				"/>
				<polygon fill="none" stroke="#666666" stroke-width="0.25" stroke-linejoin="round" stroke-miterlimit="3.8637" points="
					580.419,11.95 580.35,11.91 580.369,11.7 580.539,11.56 580.579,11.39 580.709,11.35 580.819,11.6 581.029,11.87 580.919,11.95 
									"/>
				<polygon fill="none" stroke="#666666" stroke-width="0.25" stroke-linejoin="round" stroke-miterlimit="3.8637" points="
					582.439,12.2 582.459,12.29 582.39,12.35 582.299,12.29 582.329,12.22 				"/>
				<polygon fill="none" stroke="#666666" stroke-width="0.25" stroke-linejoin="round" stroke-miterlimit="3.8637" points="
					586.14,48.79 585.989,48.76 585.93,48.67 585.979,48.58 586.159,48.35 586.399,48.37 586.52,48.62 586.369,48.73 				"/>
				<polygon fill="none" stroke="#666666" stroke-width="0.25" stroke-linejoin="round" stroke-miterlimit="3.8637" points="
					585.689,49.52 585.499,49.3 585.579,49.21 585.709,49.25 585.749,49.35 				"/>
				<polygon fill="none" stroke="#666666" stroke-width="0.25" stroke-linejoin="round" stroke-miterlimit="3.8637" points="
					586.47,53.1 586.319,53 585.989,52.91 585.93,52.84 585.959,52.75 586.199,52.83 586.499,53.04 				"/>
				<polygon fill="none" stroke="#666666" stroke-width="0.25" stroke-linejoin="round" stroke-miterlimit="3.8637" points="
					592.979,75.76 592.839,75.71 592.799,75.6 592.749,75.47 592.869,75.45 593.069,75.66 593.43,75.82 593.279,75.88 593.1,75.87 
									"/>
				<polygon fill="none" stroke="#666666" stroke-width="0.25" stroke-linejoin="round" stroke-miterlimit="3.8637" points="
					590.709,76.36 590.589,76.25 590.619,76.2 590.759,76.18 590.879,76.31 590.97,76.42 590.919,76.45 				"/>
				<polygon fill="none" stroke="#666666" stroke-width="0.25" stroke-linejoin="round" stroke-miterlimit="3.8637" points="
					592.77,77.24 592.739,77.27 592.539,77.16 592.439,77.04 592.439,76.96 592.52,76.95 592.56,77.06 				"/>
				<polygon fill="none" stroke="#666666" stroke-width="0.25" stroke-linejoin="round" stroke-miterlimit="3.8637" points="
					592.829,77.74 592.789,77.56 592.859,77.42 593.069,77.31 593.539,77.32 593.579,77.38 593.549,77.44 593.27,77.44 
					593.039,77.5 592.89,77.71 				"/>
				<polygon fill="none" stroke="#666666" stroke-width="0.25" stroke-linejoin="round" stroke-miterlimit="3.8637" points="
					589.449,78.13 589.419,78.07 589.379,77.92 589.399,77.92 589.419,77.83 589.579,77.87 589.609,77.41 589.52,77.29 
					589.56,77.24 589.749,77.33 589.789,77.58 589.859,77.66 590.27,77.81 590.609,77.79 590.799,77.89 590.85,77.86 590.819,77.75 
					590.779,77.65 590.939,77.58 590.879,77.39 590.919,77.08 590.799,76.96 590.699,76.84 590.659,76.78 590.659,76.67 
					590.879,76.69 590.919,76.66 591.27,76.36 591.229,76.2 591.199,76.04 591.339,75.87 591.27,75.79 591.249,75.68 591.359,75.56 
					591.359,75.45 591.529,75.5 591.72,75.6 591.879,75.88 591.93,75.97 591.949,76.03 592.02,76.12 592.079,76.12 592.14,76.06 
					592.14,75.89 591.979,75.81 592.039,75.7 592.14,75.71 592.35,75.89 592.609,75.89 593.069,76.15 593.039,76.22 592.869,76.22 
					592.729,76.1 592.609,76.1 592.419,76.21 592.439,76.35 592.379,76.37 592.329,76.45 592.379,76.52 592.379,76.67 
					592.409,76.74 592.319,76.81 592.189,76.85 592.089,76.77 592.079,76.99 592.089,77.17 592.439,77.41 592.619,77.6 
					592.699,77.81 592.699,78.01 592.649,78.08 592.319,78.08 592.169,78.13 591.979,78.27 591.779,78.43 591.509,78.43 
					591.499,78.58 591.419,78.64 590.459,78.97 590.159,79.03 589.629,79.29 589.539,79.41 589.529,79.43 589.399,79.52 
					589.159,79.6 588.909,79.77 588.659,79.84 588.509,79.96 588.459,79.95 588.439,79.95 588.409,79.62 588.579,79.35 
					588.619,79.16 588.689,79 588.859,78.92 589.02,78.79 589.189,78.46 589.439,78.2 589.47,78.17 				"/>
				<polygon fill="none" stroke="#666666" stroke-width="0.25" stroke-linejoin="round" stroke-miterlimit="3.8637" points="
					585.839,80.95 585.72,80.93 585.499,80.81 585.199,80.56 584.789,80.38 584.689,80.32 585.02,79.97 585.06,79.93 585.229,79.85 
					586.419,79.79 586.589,79.89 586.799,79.79 587.129,79.79 587.549,79.78 587.689,79.87 588.06,79.89 588.27,79.95 
					588.249,80.08 588.249,80.16 588.209,80.18 587.899,80.24 587.339,80.65 586.819,81.17 586.68,81.17 586.579,81.24 
					586.56,81.37 586.52,81.4 586.209,81.07 586.079,80.98 				"/>
				<polygon fill="none" stroke="#666666" stroke-width="0.25" stroke-linejoin="round" stroke-miterlimit="3.8637" points="
					579.859,107.16 579.979,107.18 580.02,107.37 579.949,107.41 				"/>
				<polygon fill="none" stroke="#666666" stroke-width="0.25" stroke-linejoin="round" stroke-miterlimit="3.8637" points="
					583.369,107.38 583.039,107.51 582.789,107.74 582.72,107.86 582.579,108.74 582.449,108.66 582.209,108.02 582.229,107.84 
					582.369,107.6 582.459,107.42 582.359,107.23 582.229,106.99 581.329,105.92 581.159,105.87 580.919,105.85 580.789,105.89 
					580.579,106.08 580.439,106.14 580.289,106.23 580.209,106.52 580.209,106.81 579.879,106.72 579.749,106.81 579.619,106.83 
					579.459,106.72 579.239,106.34 579.109,106.25 578.97,105.81 578.789,105.48 578.85,105.26 578.85,104.98 578.85,104.92 
					578.989,104.77 579.159,104.45 579.229,104.21 579.199,103.34 579.229,103.16 579.149,102.64 579.199,102.43 579.229,102.31 
					579.149,101.81 579.209,101.71 579.359,101.64 579.539,101.56 580.079,101.44 580.329,101.35 580.939,101.41 581.27,101.5 
					582.079,101.84 582.459,101.93 583.249,101.93 583.68,102.08 583.749,101.87 583.699,101.68 583.699,101.54 583.859,101.56 
					583.909,101.56 584.1,101.73 584.589,102.33 584.899,102.58 585.869,103.27 586.489,103.29 586.699,103.3 586.869,103.39 
					586.949,103.54 586.829,103.78 586.89,103.89 587.039,104.2 586.959,104.29 586.89,104.29 586.739,104.14 586.699,104.2 
					586.749,104.31 586.909,104.38 586.949,104.45 586.949,104.66 586.909,104.71 586.659,104.7 586.289,104.87 585.989,105.22 
					585.93,105.29 585.249,105.56 585.239,105.58 585.159,105.61 584.999,105.77 584.85,106.1 584.749,106.62 584.729,107.21 
					584.609,107.35 584.579,107.18 584.539,106.95 584.589,106.46 584.499,106.25 584.409,106.15 584.249,106.23 584.1,106.42 
					583.829,107.02 583.649,107.09 583.649,107.11 				"/>
				<polygon fill="none" stroke="#666666" stroke-width="0.25" stroke-linejoin="round" stroke-miterlimit="3.8637" points="
					582.129,109.84 582.089,109.57 582.149,109.52 582.229,109.52 582.27,109.62 582.229,109.74 				"/>
				<polygon fill="none" stroke="#666666" stroke-width="0.25" stroke-linejoin="round" stroke-miterlimit="3.8637" points="
					580.629,112.06 580.749,112.23 580.77,112.34 580.629,112.52 580.56,112.48 580.589,112.34 580.56,112.18 580.52,112.1 
					580.52,112.04 				"/>
				<polygon fill="none" stroke="#666666" stroke-width="0.25" stroke-linejoin="round" stroke-miterlimit="3.8637" points="
					588.619,115.85 588.229,115.23 588.249,115.09 588.689,115.57 588.72,115.7 				"/>
				<polyline fill="none" stroke="#666666" stroke-width="0.25" stroke-linejoin="round" stroke-miterlimit="3.8637" points="
					493.539,16.84 493.919,16.46 494.279,16.18 494.499,15.89 494.789,15.45 494.919,14.86 494.879,14.58 494.689,14.39 
					494.609,14.24 494.049,13.96 493.799,13.77 493.649,13.74 493.529,13.62 				"/>
				<polyline fill="none" stroke="#666666" stroke-width="0.25" stroke-linejoin="round" stroke-miterlimit="3.8637" points="
					493.539,13.03 493.839,12.82 494.119,12.89 494.339,12.89 494.699,13 494.879,13.15 495.119,13.22 495.119,13.24 495.199,13.35 
					495.39,13.35 495.509,13.29 495.6,13.15 495.569,13.04 495.859,13 496.049,13.09 496.52,13.31 496.739,13.39 496.979,13.37 
					497.329,13.22 497.569,13.24 497.689,13.12 497.669,12.94 497.829,12.91 497.899,12.85 498.039,12.88 498.129,12.97 498.249,13 
					498.149,13.24 497.989,13.43 497.999,13.56 498.199,13.77 498.329,13.83 498.449,13.89 498.6,14.06 498.749,14.1 499.159,14.06 
					499.499,13.96 499.939,13.91 500.169,13.93 500.479,14.04 500.789,14.05 500.939,14.11 501.229,14.35 501.449,14.65 
					501.619,14.79 501.989,15.06 502.109,15.34 503.119,16.02 503.459,16.15 503.789,16.21 503.949,16.16 504.229,16.18 
					504.499,15.92 504.549,15.81 504.619,15.83 504.579,15.91 504.689,16.03 504.949,16.08 505.039,15.99 505.119,16 505.199,16.14 
					505.419,16.29 505.539,16.22 505.619,16.22 505.659,16.54 505.729,16.62 505.89,16.58 506.119,16.48 506.939,16.42 
					507.229,16.36 507.289,16.3 507.449,16.14 507.579,16.08 507.72,16.08 507.81,16.14 507.81,16.22 507.6,16.42 507.569,16.58 
					507.409,16.67 507.159,17.18 507.18,17.31 507.539,17.81 507.569,17.92 507.439,18.1 507.159,18.5 507.159,18.62 507.369,18.81 
					507.709,19.1 507.959,19.27 509.279,19.62 510.409,19.62 511.299,19.5 511.449,19.51 511.649,19.63 511.699,19.48 
					512.149,19.29 513.709,18.87 514.399,18.47 514.89,18.33 515.049,18.25 515.249,18.14 515.919,17.71 516.569,17.49 
					516.949,17.26 517.369,17.06 517.629,16.87 517.949,16.83 518.239,16.63 518.359,16.6 518.399,16.6 518.569,16.58 518.64,16.7 
					518.659,16.96 518.749,17.02 519.159,17.08 519.249,17.14 519.27,17.23 519.229,17.38 519.289,17.44 519.709,17.56 
					520.47,17.49 520.729,17.42 520.939,17.42 521.029,17.47 521.369,17.45 521.399,17.44 521.619,17.39 521.829,17.54 
					522.479,17.53 522.659,17.66 522.909,18.01 523.229,18.06 523.449,17.96 523.589,17.98 523.749,18.07 523.949,18.02 
					524.119,18.06 524.289,17.96 524.799,17.92 525.119,17.87 525.449,17.71 525.72,17.54 526.069,17.41 526.109,17.39 
					526.119,17.39 527.339,17.06 527.52,16.87 527.609,16.87 527.789,17.02 528.18,16.97 528.359,16.83 				"/>
				<polyline fill="none" stroke="#666666" stroke-width="0.25" stroke-linejoin="round" stroke-miterlimit="3.8637" points="
					598.999,121.76 599.279,122 599.619,122.29 600.089,123.01 600.439,123.2 600.72,123.24 600.879,123.49 601.199,123.64 
					601.749,123.79 602.1,123.77 603.829,124.16 604.279,124.2 604.729,124.3 604.77,124.04 604.379,123.87 603.859,123.71 
					603.6,123.49 603.109,123.29 602.879,123.25 602.689,123.34 602.359,123.1 602.129,122.98 602.029,122.75 602.449,122.93 
					602.759,123.04 603.569,123.31 604.069,123.5 604.279,123.67 604.939,124 606.079,124.43 606.839,124.74 607.049,124.87 				"/>
				<polyline fill="none" stroke="#666666" stroke-width="0.25" stroke-linejoin="round" stroke-miterlimit="3.8637" points="
					565.89,11.98 565.939,11.96 566.069,11.64 565.999,11.38 566.039,11.24 566.159,11.32 566.22,11.66 566.279,11.77 
					566.279,11.79 566.459,11.95 566.909,12.17 566.949,12.27 566.989,12.47 566.879,12.66 566.709,12.68 566.609,12.66 
					566.589,12.6 566.699,12.43 566.669,12.35 566.499,12.28 566.43,12.27 566.169,12.35 565.789,12.41 565.68,12.55 565.729,12.6 
					565.799,12.6 565.959,12.5 565.729,12.89 565.47,13.56 565.489,13.97 565.35,13.84 565.259,13.87 565.409,14.08 565.329,14.16 
					565.379,14.2 565.47,14.17 565.539,14.21 565.659,14.53 565.659,14.59 565.699,14.81 566.009,15.5 566.449,16.06 567.359,16.85 
					567.869,17.21 567.959,17.24 568.159,17.33 568.169,17.33 568.749,17.45 568.859,17.54 568.949,17.68 568.89,17.8 
					568.869,17.83 568.949,18.1 569.049,18.25 569.189,18.33 569.279,18.37 569.329,18.4 569.43,18.47 569.749,18.7 569.779,18.83 
					569.759,18.94 569.489,19 569.329,19.27 569.129,19.43 569.119,19.64 568.649,20.29 568.589,20.47 568.369,20.52 568.439,20.65 
					568.189,20.74 568.089,20.83 568.049,21.01 568.319,21.5 568.299,21.56 568.68,22 569.009,22.41 569.209,22.54 569.369,22.66 
					569.879,22.91 570.079,22.99 570.119,23 570.529,23.11 570.93,23.14 571.159,23.11 571.439,23.06 571.68,23.02 572.339,22.78 
					572.699,22.57 572.799,22.69 572.689,22.84 572.729,22.91 572.899,22.89 572.999,22.79 572.829,22.54 572.869,22.5 
					574.02,22.06 574.279,21.87 574.409,21.68 574.539,21.25 574.749,20.83 574.829,20.33 574.959,20.06 575.009,19.69 
					575.069,19.51 575.289,19.42 575.339,19.3 575.31,19.06 575.689,18.95 575.939,18.74 575.989,18.56 576.119,18.54 576.319,18.7 
					577.199,18.45 577.47,18.55 578.149,18.52 578.409,18.45 578.709,18.35 579.02,18.19 579.159,18.12 579.449,17.92 
					579.979,17.42 580.419,16.99 580.859,16.9 581.129,16.58 581.239,16.54 581.289,16.41 581.449,16.45 581.899,16.15 582.089,16 
					582.409,15.67 582.509,15.64 582.739,15.39 582.909,14.98 583.209,15.02 583.299,14.93 583.319,14.62 583.14,14.41 
					583.209,14.35 583.199,14.24 583.119,14.17 583.199,14.04 583.189,13.9 583.229,13.84 583.319,13.85 583.379,13.97 
					583.52,13.91 583.77,13.84 583.939,13.83 584.129,13.74 584.479,13.74 584.699,13.83 585.459,13.54 585.739,13.31 586.02,13.21 
					586.159,13.12 586.199,12.99 586.169,12.82 586.249,12.74 586.379,12.88 586.47,12.88 586.489,12.99 586.489,13.02 
					586.629,13.14 586.739,13.09 586.799,13.16 586.819,13.39 586.919,13.56 587.169,13.78 587.209,13.95 587.149,14.02 586.959,14 
					586.859,14.1 586.789,14.65 586.829,14.98 586.979,15.34 587.279,15.79 587.689,16.37 588.039,18.12 588.229,18.37 
					588.529,18.58 588.579,18.79 588.549,18.95 588.509,19.16 588.27,19.72 588.109,19.85 587.869,19.85 587.249,20.11 
					587.029,20.32 586.839,20.41 586.77,20.47 586.249,20.93 586.02,21.27 585.709,21.6 585.18,22.27 584.539,23.27 583.909,24.45 
					583.379,24.99 582.749,26.29 582.72,26.32 582.549,26.5 582.209,27.25 581.949,27.79 581.499,29.06 580.939,30.2 580.77,30.37 
					580.68,30.41 580.489,30.49 580.409,30.58 580.189,30.54 580.02,30.61 579.879,30.6 579.329,30.79 579.089,30.81 578.949,30.91 
					578.879,30.91 578.659,30.91 578.329,31.1 577.789,31.3 577.409,31.54 577.049,31.87 576.789,31.9 576.709,32 576.529,31.96 
					576.339,32.1 576.109,32.14 575.699,31.91 575.619,31.9 575.369,31.9 575.119,32.04 574.749,32.32 574.35,32.75 573.959,33.39 
					573.779,33.66 573.529,34.16 573.409,34.52 573.129,35.2 572.939,35.75 572.589,37.69 572.569,38.31 572.539,38.8 
					572.549,39.39 572.989,41.77 573.249,42.02 573.39,42.1 573.629,42.14 573.72,42.19 573.829,42.33 573.869,42.58 573.81,42.77 
					573.899,42.94 573.879,43.15 573.949,43.42 574.609,44.49 575.029,44.89 575.709,45.91 575.729,46.09 575.749,46.21 
					575.819,46.39 576.089,46.69 576.319,47.16 576.369,47.26 576.879,47.71 576.989,48.19 577.159,48.33 577.869,48.89 
					577.89,48.89 578.369,49.15 578.579,49.33 578.759,49.43 579.209,49.45 579.449,49.39 579.539,49.37 580.069,49.14 
					580.209,49.02 580.409,49.06 580.659,48.94 580.819,49.02 581.22,49.06 581.31,49.21 581.489,49.35 581.539,49.45 
					581.189,50.04 581.189,50.2 581.27,50.39 581.249,50.52 581.159,50.39 581.069,50.38 581.029,50.42 581.029,50.77 
					581.069,51.01 581.189,51.2 581.409,51.37 581.939,51.62 582.129,51.68 582.239,51.66 582.419,51.88 582.669,51.97 
					582.839,52.08 583.409,52.2 584.159,52.37 584.43,52.51 584.799,52.52 584.97,52.58 585.089,52.79 585.409,52.89 585.549,53.04 
					586.199,53.14 586.52,53.31 586.539,53.45 586.529,53.58 586.439,54.01 586.209,54.41 586.159,54.87 586.159,55.09 
					586.159,55.33 586.229,55.63 586.52,56.31 586.77,56.53 586.959,56.59 587.329,56.58 587.359,56.66 587.149,56.83 
					586.919,56.92 586.829,57.07 586.379,58.72 586.52,59.54 586.529,59.71 586.229,60.04 586.199,60.49 586.229,61 586.289,61.39 
					586.329,61.48 586.489,61.81 587.339,62.74 587.539,63 587.989,63.37 588.02,63.41 588.119,63.52 588.27,63.7 588.72,64.06 
					588.77,64.08 589.159,64.27 589.199,64.35 589.199,64.41 589.199,64.42 589.199,64.48 589.199,64.5 589.14,64.48 589.069,64.52 
					588.77,64.52 588.419,64.51 588.299,64.58 587.989,65.04 588.02,65.29 587.899,65.44 587.43,66.1 587.449,66.33 587.27,66.41 
					587.069,66.39 586.89,66.46 586.749,66.46 586.589,66.55 586.02,67.69 585.959,68 585.979,68.31 586.089,68.53 586.109,68.59 
					586.039,68.7 585.979,69.41 585.879,69.68 585.659,70.03 585.529,70.36 585.129,70.58 584.64,70.9 584.279,71.14 583.829,71.52 
					583.649,71.66 583.539,71.96 583.529,72.58 583.579,72.81 583.529,73.04 583.589,73.48 583.489,74 583.259,74.31 582.81,74.71 
					582.689,74.91 582.579,75.19 582.209,75.52 582.119,75.67 582.119,75.85 582.199,75.95 582.209,75.99 582.319,76.18 
					582.299,76.33 582.209,76.39 581.869,76.41 581.479,76.52 581.329,76.66 581.079,76.85 580.909,77.1 580.709,77.16 
					580.439,77.42 579.829,77.86 579.869,77.96 580.079,78.13 580.14,78.28 580.14,78.41 580.089,78.33 579.959,78.25 
					579.869,78.27 579.899,78.37 579.839,78.37 579.739,78.39 579.629,78.4 579.569,78.4 579.529,78.46 579.449,78.56 579.449,78.6 
					579.39,78.76 579.369,78.87 579.339,78.97 579.299,79.14 579.359,79.39 579.359,79.6 578.949,80.16 578.829,80.44 
					578.689,80.59 578.549,80.6 578.339,80.62 578.289,80.62 578.22,80.62 578.119,80.64 577.869,80.64 577.699,80.59 577.249,80.8 
					577.199,80.8 577.079,80.83 576.839,81 576.689,81.31 576.539,81.45 576.439,81.47 576.359,81.74 576.199,82.02 575.799,82.41 
					575.699,82.69 575.709,83.38 575.669,83.5 575.489,83.64 574.869,83.98 574.749,83.98 574.749,83.89 574.659,83.83 
					574.499,83.86 574.039,84.06 573.979,83.95 573.499,83.98 573.239,84.13 573.229,84.13 572.549,84.4 572.379,84.46 
					571.739,84.92 571.619,85.2 570.899,86.09 570.789,86.26 570.77,86.29 570.72,86.37 570.659,86.45 570.459,86.71 570.199,86.89 
					570.06,86.91 569.85,86.66 569.699,86.66 569.589,86.75 569.52,87 569.399,86.93 569.31,87.07 569.369,87.14 569.479,87.14 
					569.569,87.08 569.659,87.01 569.759,86.92 569.829,86.93 569.869,86.98 569.819,87.24 569.699,87.35 569.31,87.52 
					569.159,87.58 569.029,87.54 568.939,87.49 568.629,87.41 568.499,87.29 568.369,87.31 568.229,87.41 567.999,87.46 
					567.949,87.52 567.959,87.87 567.869,88.08 567.829,88.2 567.739,88.25 567.449,88.33 567.339,88.33 567.159,88.33 
					567.029,88.39 566.689,88.72 566.479,88.87 566.339,88.91 566.249,88.72 566.149,88.69 565.949,88.62 565.529,89.35 
					565.449,89.32 565.369,89.47 565.039,89.42 564.449,89.73 564.239,89.77 563.879,90.08 563.709,90.28 563.43,90.82 
					563.249,91.04 563.029,91.58 562.829,92.06 562.419,92.68 562.289,92.81 562.279,93.04 562.169,93.54 562.079,93.68 
					561.739,93.67 561.659,93.76 561.659,93.89 561.829,94.09 561.879,94.36 561.879,94.45 561.959,94.93 561.899,95.14 
					561.869,95.24 561.859,95.47 561.959,95.64 562.02,95.93 562.039,96.43 562.14,96.91 562.089,97.09 562.089,97.34 562.319,97.9 
					562.329,98.26 562.289,98.31 562.119,98.31 562.049,98.33 561.909,98.39 561.479,98.41 561.479,98.49 561.569,98.54 
					562.329,98.38 562.47,98.6 562.609,98.73 562.749,99 562.949,99.73 563.129,100.03 563.699,100.96 564.029,101.32 
					564.299,101.83 565.109,102.68 565.249,102.87 565.629,103.39 565.649,103.51 565.609,103.63 565.629,103.69 565.699,103.63 
					565.789,103.62 565.859,103.75 566.009,103.79 566.169,103.91 566.479,104.27 566.64,104.39 566.949,104.56 567.119,104.71 
					567.289,104.8 567.319,104.86 567.229,105.08 567.479,105 567.72,105.06 567.789,105.14 567.839,105.35 568.069,105.64 
					568.039,105.73 568.259,105.74 568.439,105.88 568.949,106.29 569.27,106.63 570.479,107.41 571.329,107.81 571.379,107.89 
					571.489,107.87 571.68,107.84 571.839,107.92 572.549,108.06 572.689,108.12 572.699,108.12 572.729,108.14 572.819,108.19 
					572.869,108.33 572.579,108.37 572.549,108.5 572.409,108.66 572.289,108.7 572.1,108.66 571.959,108.81 571.979,108.95 
					572.039,108.94 572.1,108.81 572.31,108.81 572.549,108.67 572.689,108.45 572.829,108.43 572.909,108.48 572.939,108.66 
					573.06,108.73 573.289,108.61 573.879,108.29 574.379,108.28 574.829,108.17 574.819,108.31 574.77,108.62 574.839,108.68 
					575.119,108.73 575.149,108.83 575.459,108.66 575.43,108.59 575.189,108.62 575.009,108.59 574.89,108.49 574.89,108.45 
					574.89,108.34 574.939,108.26 574.959,108.19 575.119,108.08 575.539,107.96 575.989,107.73 576.109,107.73 576.72,107.53 
					576.959,107.41 577.079,107.26 577.539,106.93 577.629,106.89 577.909,106.75 578.169,106.62 578.479,106.57 578.669,106.64 
					578.939,106.83 579.129,107.08 579.18,107.23 579.159,107.42 578.989,108.2 578.819,108.54 578.879,108.91 578.899,109.09 
					578.919,109.24 578.869,109.51 578.749,109.72 578.64,110.08 578.539,110.26 578.279,110.38 578.079,110.58 577.829,110.7 
					577.729,110.8 577.659,111.02 577.68,111.07 577.699,111.26 577.749,111.43 577.829,111.56 577.939,111.73 577.959,111.79 
					578.049,111.94 578.1,112.1 578.039,112.36 578.079,112.52 578.379,112.7 578.819,112.78 579.039,112.85 579.329,113.11 
					579.439,113.12 579.659,113.11 580.049,113.09 580.299,112.95 580.839,112.66 580.999,112.66 581.249,112.46 581.43,112.42 
					581.479,112.39 581.729,112.16 582.359,112.01 582.579,111.88 582.839,111.83 583.47,111.64 583.629,111.55 584.029,110.95 
					584.079,110.71 584.049,110.49 584.039,110.45 583.919,110.2 583.749,110.04 583.699,109.85 583.439,109.63 583.249,109.62 
					583.209,109.52 583.259,109.29 583.449,109.12 583.909,108.94 584.039,108.85 584.149,108.77 584.249,108.77 584.27,108.77 
					584.689,108.92 585.109,108.91 585.18,108.82 585.079,108.66 585.079,108.54 585.199,108.52 585.319,108.67 585.689,108.67 
					586.249,109.03 586.579,109.03 586.939,109.31 587.1,109.54 587.409,109.84 587.589,110.08 587.909,110.49 588.129,110.98 
					588.319,111.49 588.359,112.64 588.109,112.96 587.999,113.31 587.789,114.02 587.729,114.2 587.749,114.25 587.789,114.41 
					587.989,114.67 588.06,115.14 588.289,115.54 588.39,115.85 588.39,116.08 588.299,116.2 588.239,116.45 588.369,116.41 
					588.39,116.39 588.669,116.16 588.93,116.2 589.329,116.54 589.52,116.83 589.619,117.1 589.649,117.19 589.829,117.29 
					590.31,117.55 590.609,117.66 590.85,117.73 590.989,117.85 591.299,117.94 591.659,118.18 592.199,118.41 592.47,118.6 
					592.52,118.69 592.449,118.76 592.289,118.76 592.049,118.64 591.079,118.16 590.499,118.04 590.329,117.94 589.819,117.77 
					589.369,117.55 589.039,117.54 588.839,117.67 588.72,117.62 588.569,117.79 588.549,118.01 588.459,118.15 588.449,118.33 
					588.499,118.5 588.709,118.7 588.949,119.08 589.109,119.14 589.329,119.35 589.379,119.54 589.539,119.81 589.56,120.08 
					589.56,120.2 589.77,120.61 589.939,120.74 590.1,120.76 590.239,120.66 590.399,120.7 590.689,120.68 590.749,120.68 
					591.079,120.76 591.999,120.77 592.619,121 592.659,121 594.119,121.36 594.339,121.36 594.439,121.41 594.689,121.42 
					594.789,121.36 594.899,121.24 595.039,121.23 595.279,121.41 595.52,121.5 596.049,121.48 596.169,121.34 596.159,121.21 
					596.169,121.15 596.209,121.08 595.739,120.79 595.589,120.68 595.229,120.5 593.949,119.45 593.749,119.27 593.359,119.11 
					593.339,119.05 593.449,119.04 593.64,119.08 594.159,119.44 595.279,120.35 595.609,120.58 595.649,120.59 597.509,121.57 
					597.949,121.7 598.439,121.79 598.819,121.79 598.979,121.76 				"/>
				<polyline fill="none" stroke="#666666" stroke-width="0.25" stroke-linejoin="round" stroke-miterlimit="3.8637" points="
					528.369,16.83 529.199,16.43 529.829,16.24 529.919,16.09 530.009,16.09 530.069,16.24 530.369,16.22 530.549,16.16 
					530.659,16.08 530.759,16.09 530.939,16.25 531.109,16.2 531.229,16.3 531.409,16.57 531.81,16.48 532.379,16.25 532.799,15.97 
					533.049,15.82 533.569,15.55 534.27,15 534.459,14.81 535.069,14.26 535.529,13.83 535.789,13.58 536.209,13.1 536.249,12.89 
					536.589,12.4 536.579,12.35 536.459,12.37 536.459,12.27 536.799,12.1 536.999,12.01 537.129,11.83 537.419,11.65 
					537.619,11.44 537.789,11.37 537.869,11.24 538.209,11.05 538.529,10.97 538.949,10.78 538.959,10.78 539.27,10.77 
					539.949,10.63 540.06,10.54 540.199,10.43 540.669,10.18 540.859,10.04 540.979,9.82 541.249,9.56 541.52,9.08 541.729,8.86 
					542.069,8.72 542.169,8.6 542.289,8.59 542.489,9.13 542.569,9.17 542.759,9.17 543.239,9.19 543.359,9.1 543.669,9.08 
					544.169,8.83 544.299,8.86 544.959,8.85 545.27,8.77 545.399,8.7 546.27,8.23 546.419,8.12 546.509,7.96 546.779,7.91 
					546.959,7.84 547.049,7.79 547.52,7.81 547.959,7.97 548.339,7.95 548.819,7.75 550.049,6.95 550.329,6.82 550.489,6.82 
					550.579,6.85 550.829,7.12 551.029,7.14 551.129,7.06 551.539,6.94 551.85,6.79 552.329,6.46 552.839,6 553.049,6 553.209,5.89 
					553.289,5.89 553.369,5.98 553.539,6 553.699,5.91 553.859,5.98 554.239,6.01 554.609,5.87 554.97,5.68 555.119,5.7 
					555.27,5.65 555.359,5.92 555.529,6.07 555.739,6.16 555.949,6.2 556.319,6.2 556.619,6.1 556.919,6.01 557.22,6.01 
					557.459,6.07 557.899,6.06 558.029,6.88 558.149,7.09 558.119,7.29 558.229,7.42 558.209,7.54 558.209,7.75 558.199,7.75 
					558.109,7.83 558.079,7.85 557.949,7.95 557.939,7.96 557.699,7.95 557.589,8 557.729,8.14 557.369,8.27 557.239,8.39 
					557.119,8.37 557.029,8.37 556.959,8.45 556.799,8.53 556.799,8.64 556.629,8.54 556.489,8.54 556.169,8.66 555.949,8.65 
					555.839,8.64 555.859,8.72 555.879,8.93 555.839,9.1 555.789,9.12 555.619,8.98 555.6,8.98 555.449,9.13 555.529,9.25 
					555.539,9.25 555.6,9.25 555.72,9.34 555.829,9.6 555.949,9.52 556.069,9.54 556.069,9.62 555.93,10.08 555.949,10.24 
					556.02,10.36 556.409,10.48 556.439,10.58 556.609,10.66 556.529,11 556.56,11.17 556.649,11.27 556.979,11.38 557.289,11.42 
					557.579,11.41 557.749,11.47 557.989,11.5 558.089,11.45 558.299,11.23 558.569,11 558.829,10.96 559.079,10.74 559.399,10.24 
					559.539,9.91 559.589,9.64 559.56,9.4 559.449,9.12 559.319,9.04 558.739,9.02 558.409,8.98 557.939,8.81 557.779,8.85 
					557.569,8.96 557.379,9.01 557.119,9.01 557.049,9 556.949,8.95 556.959,8.86 557.239,8.77 557.329,8.54 557.369,8.5 
					557.729,8.41 557.909,8.27 558.06,8.05 558.159,7.93 558.27,7.83 558.329,7.78 558.529,7.83 558.579,7.91 558.829,8.06 
					559.079,8.16 559.77,8.31 559.869,8.32 560.43,8.37 561.159,8.38 561.229,8.38 561.329,8.37 561.649,8.32 562.039,8.05 
					562.529,7.93 562.649,7.83 562.77,7.85 562.869,8.1 563.189,8.41 563.379,8.62 563.989,8.62 564.659,8.85 565.399,9.31 
					565.829,9.46 565.979,9.6 566.119,9.64 566.27,9.77 566.239,9.95 566.31,10 566.329,10.02 566.64,10.12 567.029,10.16 
					567.509,10.18 567.899,10.14 567.959,10.21 567.93,10.31 567.789,10.37 567.529,10.37 567.419,10.43 567.18,10.63 
					567.109,10.77 566.31,11.2 566.22,11.18 566.209,11.1 566.279,11.04 566.459,11 566.549,10.9 566.569,10.67 566.52,10.62 
					566.399,10.54 564.899,10.63 564.689,10.78 564.539,11.12 564.359,11.26 564.419,11.27 564.669,11.59 564.859,11.68 
					565.35,11.71 565.52,11.47 565.619,11.5 565.68,11.6 565.589,11.8 565.789,11.87 565.859,11.98 565.869,11.98 				"/>
				<polyline fill="none" stroke="#666666" stroke-width="0.25" stroke-linejoin="round" stroke-miterlimit="3.8637" points="
					550.909,203.09 550.729,202.41 550.699,202.25 550.629,202.04 549.869,198.68 549.869,198.64 549.409,196.48 549.239,196.08 
					546.739,185 546.229,182.81 546.159,182.71 545.689,180.68 545.699,180.58 544.439,175.29 543.299,170.44 543.27,170.04 
					541.77,163.98 541.589,163.23 541.589,163.09 541.369,162.17 541.199,161.21 541.189,161.17 540.619,159.08 540.409,157.89 
					540.359,157.76 540.319,157.66 540.129,154.23 538.939,151.91 538.739,151.54 521.399,139.9 521.329,139.48 520.859,136.42 
					520.739,135.59 520.739,132.92 520.739,131.75 520.619,131.54 515.709,123.81 515.64,123.68 514.14,123.71 510.359,121.56 
					508.35,121.64 506.579,119.51 506.539,119.47 506.669,114.61 506.669,114.56 505.52,112.87 504.709,111.68 503.699,109.84 
					503.22,108.97 503.289,107.62 503.239,107.27 502.939,106.95 502.749,106.6 502.659,106.41 502.609,105.95 502.739,105.48 
					502.739,105.33 502.299,104.92 501.81,104.6 501.579,104.42 501.579,104.37 501.549,104.06 501.579,103.95 501.739,103.7 
					501.839,103.37 501.859,103 501.81,102.62 501.369,101.38 501.439,101.12 501.749,100.34 501.77,100.29 501.77,99.87 
					501.669,99.35 501.989,98.44 501.999,98.18 501.749,97.41 501.879,97.09 501.93,97 501.949,96.99 502.069,96.87 502.329,96.59 
					502.789,96.48 503.169,96.08 503.459,95.64 503.479,95.49 503.579,94.36 503.619,94.21 503.779,93.79 504.079,93.22 
					505.829,92.93 506.22,92.91 506.589,92.89 507.249,92.83 507.989,92.79 508.159,92.71 508.119,92.41 508.169,92.09 
					508.109,91.98 508.649,90.91 508.659,90.85 508.799,90.26 508.939,89.71 509.069,89.32 509.22,88.27 509.189,87.4 
					509.189,87.35 509.43,87.29 509.989,87.25 510.899,87.06 510.93,87.02 510.989,86.95 511.579,86.38 511.839,86.18 512.1,86.05 
					512.409,85.99 512.539,85.96 512.819,85.95 513.529,85.27 513.689,85.12 513.749,85.06 514.399,84.83 514.489,84.83 
					514.589,84.58 514.749,84.35 514.979,84.35 515.359,84.43 515.379,84.43 515.489,84.43 515.539,84.45 515.619,84.22 
					515.64,84.2 515.869,83.87 516.539,83.65 516.659,83.41 516.789,83.38 517.02,82.74 517.209,82.66 517.279,82.69 517.35,82.67 
					517.839,82.64 517.89,82.62 517.999,82.56 518.049,82.31 517.979,82.12 518.039,81.91 518.43,81.7 518.919,81.64 519.039,81.37 
					518.879,80.96 519.209,80.66 519.229,80.39 519.029,80.06 518.799,79.69 518.939,79.25 519.539,78.56 519.979,78.37 
					520.409,78.46 520.439,78.22 520.419,78.22 520.409,78.2 520.02,77.75 519.869,77.6 519.739,77.29 519.909,77.06 519.909,77.05 
					519.899,77.04 519.789,76.85 519.779,76.78 519.749,76.57 519.749,76.56 519.779,76.21 519.779,76.2 519.72,75.85 519.77,75.71 
					519.629,75.31 519.619,75.06 519.499,74.86 519.439,74.59 519.419,74.5 519.419,74.49 519.409,74.39 519.369,74.35 
					519.299,74.24 519.199,74.08 519.72,72.64 520.079,72.22 520.299,71.87 520.369,71.7 520.399,71.56 520.499,71.21 520.52,70.9 
					520.52,70.78 520.589,70.24 520.749,69.95 520.909,69.62 521.339,68.37 521.449,68.2 521.909,67.91 522.319,67.51 522.579,67 
					522.829,66.68 522.989,66.08 523.069,65.87 523.279,65.47 523.329,65.37 523.589,64.93 524.289,64.18 524.279,64.06 
					524.239,64.04 523.529,64.2 523.14,64.21 522.709,64.04 522.499,63.92 522.289,63.81 521.799,63.46 520.839,63 520.77,62.86 
					520.68,62.81 520.659,62.66 520.56,61.96 520.539,61.39 520.539,60.89 520.619,59.85 520.699,59.42 521.169,58.25 
					521.449,58.12 521.499,58.1 522.18,57.76 522.109,57.37 521.909,57.12 521.779,57.06 521.659,56.64 521.579,55.77 
					521.579,55.66 521.579,55.56 521.589,55.42 521.489,54.92 521.359,53.85 521.409,53.59 521.479,53.41 521.549,52.83 
					521.449,52.43 521.379,52.31 521.289,52.18 521.1,52.03 520.209,51.49 519.39,50.54 519.129,50.05 519.029,49.72 519.039,49.52 
					519.199,49.21 519.289,48.91 519.329,48.71 519.439,48.19 519.449,47.52 519.289,46.9 519.319,46.69 519.339,46.51 
					519.339,46.48 519.419,46.31 519.439,46.27 519.669,45.77 519.869,45.24 519.879,45.19 519.879,45.17 519.899,45.16 
					520.109,44.83 520.119,44.8 520.119,44.79 520.109,44.75 519.93,44.33 519.93,44.27 519.93,44.18 519.93,44.1 519.979,43.41 
					520.069,42.97 520.089,42.82 520.039,42.29 520.14,42.02 520.47,41.41 520.529,41.31 520.699,40.67 521.149,40.25 
					521.239,40.29 521.329,40.31 521.279,40.21 521.079,39.92 521.069,39.88 521.079,39.4 521.049,39.25 520.949,39.16 
					520.749,39.04 520.379,38.6 520.379,38.54 520.369,38.47 520.35,38.44 520.379,38.32 520.749,37.91 520.919,37.7 521.039,37.39 
					521.209,37.15 521.27,37.06 521.289,36.99 521.339,36.91 521.339,36.88 521.329,36.2 521.189,35.45 521.589,35.05 521.85,34.87 
					522.18,34.77 522.27,34.62 522.27,34.54 522.149,34.42 521.939,34.12 521.909,34.09 521.919,33.61 522.109,33.25 522.129,33.19 
					522.329,33.02 522.319,32.77 522.109,32.27 522.579,31.84 522.629,31.72 522.709,31.6 522.709,31.57 522.739,31.33 
					522.029,31.25 521.879,31.2 521.869,31.15 521.789,31.09 521.52,30.89 521.27,30.85 520.869,31.06 520.539,31.1 520.529,31.06 
					520.419,31.06 520.259,30.88 520.069,30.74 519.909,30.71 519.829,30.7 519.369,30.83 519.199,30.83 518.869,30.74 
					517.909,30.61 517.729,30.55 517.749,30.52 517.52,30.29 517.209,30.22 516.979,30.12 516.709,29.64 516.689,29.62 
					516.689,29.58 516.6,29.26 516.669,29.14 516.979,29.06 517.049,28.93 517.199,28.81 517.489,28.85 517.609,28.87 
					517.799,28.83 518.43,28.6 519.18,28.16 519.619,28.15 519.649,28.15 519.689,28.14 520.159,27.97 520.169,27.97 520.419,27.81 
					520.629,27.55 520.659,27.43 521.659,26.66 522.089,26.59 522.249,26.5 522.439,26.32 522.499,26.17 522.539,26.05 
					522.659,25.9 522.899,25.83 523.529,25.89 523.799,25.66 523.979,25.14 523.999,24.89 523.919,24.76 524.1,24.52 524.379,24.45 
					524.52,23.98 524.52,23.95 524.549,23.75 524.449,23.37 524.129,22.79 524.129,22.77 524.1,22.57 524.129,22.45 524.079,22.39 
					523.959,22.3 523.839,22.3 523.749,22.37 523.499,22.39 523.409,22.35 523.329,22.1 523.52,21.92 524.149,21.71 524.169,21.68 
					524.409,21.56 524.699,21.58 525.029,21.54 525.419,21.34 525.529,21.34 525.539,21.34 525.659,21.47 525.739,21.49 
					525.899,21.43 526.229,21.4 526.489,21.47 526.499,21.47 526.859,21.45 527.129,21.01 527.329,20.93 527.489,20.93 
					527.819,20.93 528.089,20.71 528.18,20.64 528.509,20.53 529.079,20.21 529.189,20.05 529.189,19.84 529.109,19.69 
					528.909,19.52 528.689,19.45 528.249,19.31 528.02,19.36 527.949,19.3 527.949,19.25 527.949,19.03 528.079,18.61 
					528.109,18.04 528.149,17.65 528.239,17.54 528.499,17.45 528.649,17.5 528.499,17.29 528.39,17.02 528.359,16.83 				"/>
				<polyline fill="none" stroke="#666666" stroke-width="0.25" stroke-linejoin="round" stroke-miterlimit="3.8637" points="
					547.859,209.16 547.819,209.09 547.529,208.74 547.169,208.3 547.109,208.24 547.039,207.58 546.869,207.02 546.879,206.66 
					546.709,206.08 546.739,205.95 546.669,205.54 546.579,205.16 546.549,205.01 546.659,204.83 546.689,204.81 546.829,204.68 
					546.879,204.62 547.089,204.54 547.109,204.54 547.47,204.52 548.029,204.43 548.209,204.35 548.489,204.06 548.85,203.84 
					549.249,203.71 549.369,203.6 549.539,203.54 549.649,203.56 549.779,203.5 549.81,203.49 550.109,203.37 550.109,203.35 
					550.189,203.26 550.249,203.24 550.909,203.09 				"/>
				<polyline fill="none" stroke="#666666" stroke-width="0.25" stroke-linejoin="round" stroke-miterlimit="3.8637" points="
					598.979,121.76 598.839,122.12 598.869,122.35 598.869,122.37 598.829,122.53 598.619,123.26 598.299,123.82 598.159,124.06 
					598.089,124.33 598.079,124.39 598.02,124.95 597.999,125.06 597.959,126.07 597.899,126.28 598.069,126.4 598.109,126.74 
					597.789,127.09 597.659,127.6 597.479,128.33 597.459,128.38 597.119,129.43 597.299,129.85 597.569,130.81 597.409,131.29 
					597.329,131.68 597.289,131.86 597.119,132.91 597.119,132.95 597.199,133.27 597.199,133.29 597.329,133.87 597.359,134.26 
					597.249,135.13 597.119,135.68 597.149,136 597.159,136.04 597.249,136.36 597.579,137.18 597.869,137.47 598.14,137.58 
					598.399,137.81 598.609,138.07 598.659,138.16 598.949,138.54 599.249,138.77 599.549,139.23 599.759,139.69 599.069,141.04 
					598.839,141.48 598.119,142.89 598.049,143.04 597.989,143.08 596.999,143.79 596.589,144.08 596.499,144.2 596.169,144.34 
					595.579,144.4 594.789,144.94 594.159,145.27 593.899,145.37 593.409,145.46 592.919,145.66 590.489,146.45 590.239,146.54 
					589.829,146.71 589.02,147.06 588.659,147.33 587.759,147.62 587.459,147.87 587.27,147.87 587.119,147.88 586.68,148.14 
					586.52,148.33 586.14,148.62 585.709,148.78 585.209,148.89 584.879,149.04 584.169,149.51 584.1,149.58 583.619,149.89 
					583.249,150.25 582.72,150.58 582.579,150.67 581.879,151.16 581.799,151.51 581.779,151.7 581.699,151.93 581.379,152.5 
					580.35,154.23 579.709,154.34 579.289,154.52 579.079,154.69 578.799,154.79 578.499,154.84 578.209,154.74 578.049,154.69 
					577.819,154.67 577.589,154.64 577.35,154.57 577.14,154.64 576.959,154.87 576.669,154.99 576.6,155.11 576.629,155.74 
					576.549,155.92 576.329,156.12 576.249,156.29 576.27,156.48 576.369,156.64 576.709,157.18 576.72,157.45 576.549,157.79 
					576.509,157.98 576.029,158.44 575.549,158.83 575.449,158.87 575.22,159.12 575.049,159.39 575.009,159.46 574.909,159.91 
					574.729,160.52 574.489,160.84 574.379,160.89 574.249,161.05 573.959,161.24 573.949,161.24 573.859,161.27 573.039,161.56 
					572.759,161.64 572.239,161.77 571.819,161.8 571.68,161.75 570.669,161.44 570.459,161.44 570.199,161.5 569.97,161.6 
					569.939,161.62 569.409,161.95 568.949,162.25 568.729,162.4 568.199,162.83 568.14,162.99 568.039,163.1 567.999,163.18 
					567.899,163.46 567.299,164.35 567.289,164.45 567.229,164.56 566.97,165.01 566.569,165.56 566.52,165.7 566.369,165.91 
					566.249,166.09 566.039,166.29 566.009,166.45 565.729,166.81 565.619,166.83 565.289,167.29 565.249,167.41 565.229,167.45 
					564.879,167.92 564.839,167.93 564.779,167.98 564.709,168.08 564.549,168.29 564.499,168.46 564.479,168.5 564.479,168.88 
					564.479,169.15 564.649,169.51 564.649,169.52 564.709,169.83 564.659,170.26 564.709,170.6 564.72,170.7 564.869,171.2 
					564.959,171.28 565.289,172.1 565.859,173.54 565.919,173.71 565.959,173.86 566.189,174.5 566.27,174.61 566.399,175.14 
					566.479,175.23 566.64,175.67 566.759,176 567.02,176.49 567.109,176.83 567.18,177.13 567.499,178.3 567.709,178.64 
					568.039,179.32 568.109,179.71 567.949,180.26 567.899,180.41 567.81,180.73 567.81,181.25 567.909,181.81 567.979,181.89 
					568.079,182.33 568.109,182.96 568.14,183.07 568.199,183.31 568.319,183.85 568.329,183.97 568.589,184.52 568.56,184.67 
					568.289,184.95 568.289,185 568.259,185.14 568.259,185.16 568.319,185.37 568.089,186.01 568.02,186.4 567.869,186.87 
					567.77,187.08 567.569,187.43 567.119,188.32 566.949,188.68 566.819,188.96 566.619,189.45 566.31,189.97 566.1,190.14 
					565.959,190.24 565.859,190.27 565.539,190.51 565.379,190.7 564.839,191.71 563.939,192.83 563.919,192.85 563.759,193.18 
					563.579,193.5 563.119,194.05 563.009,194.21 562.499,194.66 561.779,195.56 561.649,195.73 561.329,196.57 561.159,196.84 
					560.609,197.73 560.499,197.83 560.449,197.89 560.249,198.01 560.029,198.54 559.89,198.85 559.169,199.36 558.479,200.08 
					558.319,200.12 558.029,200.11 557.189,200.2 557.069,200.21 556.949,200.21 556.699,200.31 556.289,200.49 556.159,200.6 
					555.72,200.8 554.989,201 554.289,201.46 554.079,201.66 554.069,201.66 553.329,201.94 552.689,202.3 551.899,202.83 
					551.289,203.05 550.909,203.09 				"/>
				<polyline fill="none" stroke="#666666" stroke-width="0.25" stroke-linejoin="round" stroke-miterlimit="3.8637" points="
					565.869,11.98 565.89,11.98 566.049,11.96 566.129,11.95 566.209,11.89 566.279,11.79 				"/>
				<polyline fill="none" stroke="#666666" stroke-width="0.25" stroke-linejoin="round" stroke-miterlimit="3.8637" points="
					550.369,20.11 550.419,20.02 550.749,19.84 550.839,19.77 551.069,19.57 551.149,19.46 551.339,19.27 551.479,19.18 
					551.789,19.15 551.999,19.18 552.319,19.14 552.529,19.03 552.619,18.89 552.829,18.7 553.189,18.5 553.619,18.41 
					554.569,18.28 554.879,18.17 554.999,18.08 555.109,17.98 555.499,17.27 555.659,17.05 555.979,16.79 556.299,16.62 
					556.729,16.52 556.859,16.54 557.049,16.51 557.659,16.54 557.999,16.6 558.329,16.69 559.209,17.12 559.68,17.27 
					560.159,17.38 560.459,17.39 560.569,17.38 560.729,17.26 560.829,17.17 560.949,16.99 561.149,16.52 561.18,16.42 
					561.359,16.12 561.569,15.73 561.749,15.52 561.829,15.35 561.949,15.2 562.399,14.38 562.619,13.87 562.649,13.78 
					562.939,13.03 563.169,12.99 563.239,12.67 563.329,12.55 563.43,12.46 563.549,12.39 563.829,12.28 564.369,12.22 
					565.169,12.25 565.699,12.17 565.749,11.98 565.859,11.98 				"/>
				<polyline fill="none" stroke="#666666" stroke-width="0.25" stroke-linejoin="round" stroke-miterlimit="3.8637" points="
					538.949,10.78 538.999,11.24 538.979,11.44 539.039,11.95 538.959,12.28 538.839,12.56 538.789,12.99 538.829,13.46 
					538.909,13.77 538.979,13.89 539.209,13.99 539.43,14 539.85,14.02 540.709,13.96 540.909,13.97 541.14,14.02 541.329,14.14 
					541.449,14.24 541.589,14.44 541.789,14.87 542.149,16.02 542.31,16.36 542.579,16.7 542.709,17 542.799,17.49 542.919,17.68 
					543.739,18.4 543.949,18.61 544.399,18.85 544.77,18.92 545.27,19.09 545.479,19.2 545.589,19.27 545.709,19.31 545.919,19.51 
					545.939,19.84 545.919,20.06 545.85,20.39 545.699,20.77 545.669,20.91 545.589,21.01 545.579,21.12 545.459,21.35 
					545.379,21.66 545.369,21.77 545.399,22 545.459,22.14 545.569,22.35 545.779,22.56 546.109,22.81 546.439,22.97 546.749,23.02 
					546.979,22.99 547.089,22.93 547.529,22.57 547.589,22.48 548.409,21.62 548.539,21.54 548.709,21.34 548.949,21.16 
					549.129,20.93 549.529,20.58 549.77,20.39 549.859,20.31 550.109,20.17 550.369,20.11 				"/>
				<polyline fill="none" stroke="#666666" stroke-width="0.25" stroke-linejoin="round" stroke-miterlimit="3.8637" points="
					569.329,18.4 568.699,18.58 568.47,18.67 567.479,18.87 567.369,18.87 567.149,18.94 567.029,18.95 566.749,19.03 
					566.499,19.15 566.379,19.16 565.999,19.36 565.859,19.39 565.56,19.56 565.199,19.78 564.6,20.02 564.359,20.14 563.609,20.68 
					563.499,20.71 563.369,20.8 563.239,20.85 562.999,20.98 562.859,21 562.399,21.14 562.279,21.14 562.079,21.24 561.989,21.22 
					561.499,21.35 561.359,21.4 561.249,21.47 561.159,21.58 561.079,21.68 561.06,21.81 561.159,21.94 561.239,22 561.569,22.18 
					561.6,22.39 561.579,22.48 561.669,22.69 561.899,22.87 562.209,23.04 562.439,23.24 562.52,23.33 562.56,23.44 562.579,23.56 
					562.579,23.68 562.489,23.98 				"/>
				<polyline fill="none" stroke="#666666" stroke-width="0.25" stroke-linejoin="round" stroke-miterlimit="3.8637" points="
					568.049,21.01 567.859,20.72 567.669,20.66 567.549,20.72 567.459,20.86 567.439,21 567.439,21.17 567.339,21.28 567.329,21.47 
					567.029,22.33 566.999,22.45 566.939,22.54 566.699,22.62 566.459,22.89 566.359,23.08 566.27,23.17 566.149,23.24 
					566.009,23.26 565.869,23.24 565.749,23.24 565.439,23.32 565.229,23.31 565.119,23.29 564.879,23.2 564.689,23.17 
					564.579,23.23 564.509,23.32 564.409,23.54 564.199,23.86 564.089,23.95 563.879,24.02 563.759,24.02 563.329,24.1 
					562.999,24.1 562.749,24.06 562.489,23.98 				"/>
				<polyline fill="none" stroke="#666666" stroke-width="0.25" stroke-linejoin="round" stroke-miterlimit="3.8637" points="
					562.489,23.98 562.299,24.27 561.989,24.58 561.159,25.25 561.079,25.33 560.85,25.42 560.479,25.48 				"/>
				<polyline fill="none" stroke="#666666" stroke-width="0.25" stroke-linejoin="round" stroke-miterlimit="3.8637" points="
					557.689,27.29 558.209,27.24 558.319,27.22 558.539,27.08 558.619,26.96 558.879,26.32 559.169,25.77 559.289,25.48 
					559.409,25.29 559.499,25.2 559.619,25.12 559.919,25.03 560.119,25.04 560.22,25.09 560.329,25.2 560.479,25.48 				"/>
				<polyline fill="none" stroke="#666666" stroke-width="0.25" stroke-linejoin="round" stroke-miterlimit="3.8637" points="
					550.369,20.11 550.839,20.54 551.039,20.77 551.459,21.16 551.799,21.52 552.27,21.92 552.39,21.99 552.949,22.42 553.299,22.6 
					554.569,22.99 554.779,23 554.989,22.96 555.199,22.96 555.299,22.99 555.39,23.08 555.479,23.29 555.479,23.38 555.629,23.83 
					555.829,24.2 555.899,24.31 556.02,24.54 556.47,25.46 557.31,26.59 557.609,27.07 557.689,27.29 				"/>
				<polyline fill="none" stroke="#666666" stroke-width="0.25" stroke-linejoin="round" stroke-miterlimit="3.8637" points="
					571.159,23.11 571.049,23.37 571.02,23.75 570.979,24 570.77,24.55 570.579,24.91 570.079,25.79 569.999,25.9 569.759,26.27 
					569.539,26.72 569.579,26.83 570.199,27.31 570.109,27.55 569.899,27.94 569.819,28.16 569.819,28.29 569.549,29.16 
					569.399,30.06 				"/>
				<polyline fill="none" stroke="#666666" stroke-width="0.25" stroke-linejoin="round" stroke-miterlimit="3.8637" points="
					534.459,14.81 534.879,15.07 535.229,15.39 535.299,15.47 535.629,15.74 535.739,15.95 535.749,16.04 535.739,16.14 
					535.619,16.22 535.119,16.37 534.909,16.42 534.81,16.48 534.749,16.57 534.789,16.78 535.279,17.31 535.499,17.5 
					535.839,17.87 536.169,18.33 536.27,18.4 536.399,18.62 536.499,18.83 536.499,18.94 536.479,19.04 536.399,19.16 
					536.079,19.45 535.939,19.51 535.289,20.04 535.159,20.32 535.14,20.53 535.169,20.74 535.079,20.96 534.999,21.06 
					534.839,21.39 535.02,21.58 535.279,21.76 535.619,21.83 535.829,21.85 536.069,21.89 536.379,21.91 536.689,21.97 
					536.789,21.97 537.499,22.41 537.579,22.51 537.499,23.47 537.39,24.1 537.39,24.39 537.439,24.79 537.509,24.89 537.829,25.24 
					537.879,25.33 538.35,26.21 538.52,26.6 538.629,26.95 538.869,27.87 538.869,27.99 538.709,28.18 538.609,28.27 538.299,28.58 
					538.159,28.78 538.069,28.97 538.02,29.52 538.02,29.95 537.979,30.24 537.879,30.35 537.369,30.6 537.289,30.66 				"/>
				<polyline fill="none" stroke="#666666" stroke-width="0.25" stroke-linejoin="round" stroke-miterlimit="3.8637" points="
					557.689,27.29 557.589,27.37 557.489,27.43 557.379,27.54 556.729,27.94 556.319,28.25 556.02,28.54 555.789,28.85 
					555.709,29.06 555.669,29.17 555.6,29.35 555.529,29.45 555.419,29.58 555.299,29.68 555.039,29.96 554.899,30.25 
					554.729,30.74 554.659,30.83 				"/>
				<polyline fill="none" stroke="#666666" stroke-width="0.25" stroke-linejoin="round" stroke-miterlimit="3.8637" points="
					560.479,25.48 560.659,25.87 560.709,26 560.97,26.41 561.159,26.6 561.419,26.79 561.649,26.83 561.859,26.79 562.079,26.66 
					562.319,26.62 562.47,26.65 563.039,26.87 563.549,27.14 564.27,27.43 564.499,27.85 564.579,27.95 564.619,28.06 
					564.859,28.42 565.039,28.64 565.379,28.9 566.289,29.45 566.879,29.74 566.939,29.86 566.879,30.12 566.829,30.19 
					566.799,30.49 566.819,30.61 567.109,30.85 567.18,30.95 567.409,30.82 567.499,30.73 567.709,30.6 568.399,30.24 
					568.739,30.13 568.949,30.1 569.289,30.1 569.399,30.06 				"/>
				<polyline fill="none" stroke="#666666" stroke-width="0.25" stroke-linejoin="round" stroke-miterlimit="3.8637" points="
					534.999,30.97 535.119,30.94 535.329,30.85 535.68,30.68 536.169,30.52 536.399,30.54 536.539,30.5 536.749,30.52 
					536.879,30.54 537.289,30.66 				"/>
				<polyline fill="none" stroke="#666666" stroke-width="0.25" stroke-linejoin="round" stroke-miterlimit="3.8637" points="
					569.399,30.06 569.359,30.58 569.31,30.92 569.27,31.7 569.289,32.17 569.329,32.38 569.359,32.49 569.549,32.81 569.759,32.96 
					569.989,33 				"/>
				<polyline fill="none" stroke="#666666" stroke-width="0.25" stroke-linejoin="round" stroke-miterlimit="3.8637" points="
					569.989,33 570.299,32.93 570.499,32.86 571.729,32.66 571.939,32.83 572.239,33.14 572.359,33.19 572.449,33.19 572.569,33.12 
					572.899,32.75 572.999,32.7 573.319,32.68 573.529,32.72 573.689,32.89 573.959,33.39 				"/>
				<polyline fill="none" stroke="#666666" stroke-width="0.25" stroke-linejoin="round" stroke-miterlimit="3.8637" points="
					522.109,33.25 522.419,33.29 522.629,33.37 522.839,33.4 523.079,33.39 523.199,33.4 523.589,33.37 523.829,33.29 524.31,33.1 
					525.02,32.71 525.6,32.42 525.859,32.27 526.209,32.1 526.449,32 526.799,31.91 527.029,31.89 527.27,31.91 528.829,31.87 
					529.169,31.9 529.659,31.87 530.569,31.87 531.339,31.84 531.989,31.79 532.499,31.7 532.609,31.7 533.609,31.43 534.539,31.15 
					534.999,30.97 				"/>
				<polyline fill="none" stroke="#666666" stroke-width="0.25" stroke-linejoin="round" stroke-miterlimit="3.8637" points="
					537.289,30.66 537.479,30.74 537.899,31.1 539.079,32.29 539.399,32.59 539.609,32.75 539.829,32.79 540.089,32.74 
					540.449,32.6 540.839,32.42 540.949,32.41 541.279,32.31 541.709,32.18 541.919,32.14 542.279,32.17 542.689,32.39 
					543.319,32.85 543.629,33.01 543.959,33.24 544.289,33.39 544.52,33.43 544.619,33.35 544.699,33.25 545.279,32.2 
					545.659,31.62 546.02,31.15 546.229,31 546.709,30.81 547.169,30.73 547.789,30.68 547.909,30.68 548.239,30.66 548.579,30.67 
					548.999,30.76 549.419,30.95 549.529,31.04 549.619,31.08 549.859,31.29 550.119,31.62 550.379,31.83 550.579,31.9 
					551.009,31.85 551.239,31.78 551.85,31.42 552.27,31.24 552.659,31.09 553.199,30.92 553.979,30.81 554.339,30.79 
					554.659,30.83 				"/>
				<polyline fill="none" stroke="#666666" stroke-width="0.25" stroke-linejoin="round" stroke-miterlimit="3.8637" points="
					569.989,33 570.02,33.04 570.02,33.22 570.039,33.62 570.029,34.87 569.989,34.97 569.919,35.06 569.379,35.37 569.339,35.45 
					569.369,35.56 569.459,35.64 569.729,35.85 569.819,35.87 569.919,35.98 569.949,36.07 569.949,36.16 569.939,36.25 
					569.879,36.35 569.779,36.46 569.539,36.54 568.949,36.66 568.609,36.68 568.499,36.73 568.049,36.82 567.93,36.82 
					567.619,36.89 567.539,36.99 567.509,37.09 567.619,37.41 567.689,37.56 567.72,37.96 567.689,38.12 567.629,38.32 
					567.479,38.62 567.229,38.92 566.899,39.14 566.409,39.33 566.289,39.4 566.149,39.43 				"/>
				<polyline fill="none" stroke="#666666" stroke-width="0.25" stroke-linejoin="round" stroke-miterlimit="3.8637" points="
					554.659,30.83 554.779,31.04 554.869,31.14 555.06,31.46 555.109,31.67 555.129,32.06 555.039,32.45 554.829,33.02 
					554.609,33.4 554.479,33.6 554.1,34.02 553.869,34.24 553.799,34.35 553.249,34.81 552.879,35.05 552.319,35.38 551.899,35.59 
					551.659,35.7 551.549,35.71 551.31,35.81 551.119,35.87 550.89,35.96 550.799,36.06 550.739,36.14 550.77,36.25 550.939,36.47 
					551.159,36.68 551.239,36.77 551.579,37.03 551.819,37.27 552.209,37.54 552.449,37.63 552.909,37.77 553.409,37.83 
					554.339,38.14 554.619,38.26 555.039,38.54 555.199,38.77 555.329,39.16 555.339,39.83 555.319,40.03 555.199,40.41 
					555.119,40.58 554.97,40.81 554.589,41.27 				"/>
				<polyline fill="none" stroke="#666666" stroke-width="0.25" stroke-linejoin="round" stroke-miterlimit="3.8637" points="
					566.149,39.43 565.749,39.54 565.529,39.56 564.739,39.77 564.449,39.92 564.359,40.03 564.18,40.36 564.119,40.56 
					564.029,40.77 563.879,40.97 563.799,41.06 563.459,41.21 563.359,41.18 563.249,41.08 562.999,40.67 562.909,40.78 
					562.859,40.9 562.799,41.16 562.709,41.72 562.68,42.02 562.52,42.74 562.419,42.88 562.289,42.94 562.169,42.94 561.909,42.83 
					561.689,42.62 561.569,42.5 561.249,42.19 561.159,42.12 560.989,42.01 560.749,41.91 560.43,41.83 560.289,41.83 
					559.799,41.77 559.47,41.6 558.909,41.27 558.619,41.11 558.509,41.08 557.949,41.05 557.819,41.06 557.039,41.24 
					556.439,41.44 555.93,41.53 555.569,41.53 555.209,41.49 554.759,41.35 554.659,41.27 554.589,41.27 				"/>
				<polyline fill="none" stroke="#666666" stroke-width="0.25" stroke-linejoin="round" stroke-miterlimit="3.8637" points="
					534.999,30.97 535.409,31.41 535.89,32.05 535.999,32.14 536.249,32.56 536.409,33.02 536.459,33.25 536.479,33.46 
					536.449,33.68 536.409,33.77 536.289,33.99 536.049,34.29 535.949,34.52 535.949,34.64 535.999,34.84 536.129,35.17 
					536.379,35.56 536.449,35.65 536.869,36.08 536.939,36.2 537.329,36.62 537.569,37.04 537.649,37.37 537.669,37.6 537.689,37.9 
					537.649,38.42 537.569,38.87 537.569,39.08 537.6,39.19 537.659,39.31 537.839,39.5 538.169,39.71 538.289,39.74 538.729,39.99 
					538.939,40.08 539.069,40.1 539.879,40.52 540.229,40.75 540.299,40.84 540.369,40.96 540.539,41.29 540.629,41.62 
					540.629,41.87 540.629,42.25 540.6,42.49 540.479,43.14 540.319,43.72 540.199,44.04 540.109,44.17 540.06,44.26 539.459,44.83 
					539.119,45.34 539.009,45.55 538.949,45.95 538.859,46.3 538.659,46.66 538.209,47 537.999,47.14 537.779,47.32 537.669,47.42 
					537.579,47.62 537.549,47.74 537.529,47.98 537.529,48.31 537.539,48.83 537.529,49.18 537.439,50.1 537.329,50.52 
					537.299,50.65 537.239,50.74 537.18,51.06 537.06,51.37 				"/>
				<polyline fill="none" stroke="#666666" stroke-width="0.25" stroke-linejoin="round" stroke-miterlimit="3.8637" points="
					521.409,53.59 521.819,53.59 522.02,53.54 522.339,53.32 522.81,52.81 523.119,52.51 523.35,52.35 523.77,52.21 524.1,52.2 
					524.329,52.22 524.43,52.25 524.569,52.35 524.939,52.51 525.369,52.75 525.479,52.78 525.77,52.93 526.039,53.02 526.499,53.1 
					526.739,53.1 527.129,53.05 527.279,52.99 527.479,52.83 527.609,52.62 527.729,52.06 527.829,50.92 527.879,50.7 527.97,50.42 
					528.06,50.18 528.299,49.81 528.629,49.41 528.859,49.24 529.079,49.14 529.299,49.1 529.739,49.12 529.979,49.16 
					530.789,49.41 530.899,49.45 531.579,49.6 532.299,49.84 532.449,49.91 533.049,50.16 534.72,50.89 535.739,51.27 
					535.979,51.33 536.249,51.37 536.939,51.33 537.06,51.37 				"/>
				<polyline fill="none" stroke="#666666" stroke-width="0.25" stroke-linejoin="round" stroke-miterlimit="3.8637" points="
					566.149,39.43 565.609,40.24 565.14,41.04 565.249,41.14 565.35,41.21 566.1,41.6 566.589,41.81 566.789,41.92 566.899,42.01 
					567.079,42.25 567.229,42.54 567.289,42.71 567.289,42.94 567.249,43.14 567.209,43.52 567.079,44.24 567.029,44.35 
					566.919,44.8 566.759,45.35 566.579,45.77 566.329,46.16 566.149,46.35 566.009,46.56 565.909,46.64 565.819,46.78 
					565.499,47.11 565.119,47.53 564.979,47.81 565.069,48.13 565.399,48.79 565.919,49.91 566.459,50.96 567.06,52.02 
					567.539,52.9 567.899,53.44 568.229,53.86 568.369,54.1 568.399,54.39 568.449,54.68 568.539,54.91 				"/>
				<polyline fill="none" stroke="#666666" stroke-width="0.25" stroke-linejoin="round" stroke-miterlimit="3.8637" points="
					577.869,48.89 577.749,49.12 577.579,49.33 577.379,49.52 577.039,49.79 576.829,50 576.689,50.2 576.629,50.42 576.579,50.66 
					576.6,51.29 576.739,52.37 576.739,52.72 576.669,53.12 576.509,53.45 576.439,53.58 576.209,53.75 575.729,54.04 
					574.959,54.31 574.109,54.47 573.909,54.55 573.81,54.62 573.739,54.73 573.72,54.82 573.749,54.94 573.909,55.12 
					574.109,55.31 574.159,55.42 574.169,55.51 574.119,55.62 573.93,55.81 573.509,56.05 572.799,56.29 				"/>
				<polyline fill="none" stroke="#666666" stroke-width="0.25" stroke-linejoin="round" stroke-miterlimit="3.8637" points="
					572.799,56.29 572.379,56.26 572.009,56.26 572.009,56.27 571.619,56.27 571.069,56.17 570.539,56.04 569.609,55.66 
					568.859,55.15 568.589,54.94 568.539,54.91 				"/>
				<polyline fill="none" stroke="#666666" stroke-width="0.25" stroke-linejoin="round" stroke-miterlimit="3.8637" points="
					554.589,41.27 554.449,41.45 553.859,41.89 553.329,42.25 552.899,42.56 552.749,42.64 552.06,43.14 551.039,43.89 
					550.749,44.05 550.249,44.47 549.6,45.06 549.159,45.37 549.039,45.47 548.879,45.7 548.799,45.94 548.819,46.16 549.02,46.81 
					549.06,47.29 548.97,47.71 548.85,48.02 548.709,48.27 548.64,48.49 548.589,48.73 548.659,49.02 548.699,49.14 548.85,49.37 
					548.949,49.51 549.39,49.9 549.459,50 549.499,50.11 549.479,50.18 549.449,50.27 549.369,50.37 548.659,50.5 548.409,50.58 
					548.079,50.72 547.89,50.85 547.199,51.28 547.079,51.34 546.81,51.43 546.439,51.45 545.989,51.4 545.709,51.31 544.909,51.01 
					544.069,50.8 543.839,50.79 543.739,50.85 543.629,50.93 543.579,51.02 543.569,51.14 543.569,51.25 543.689,51.56 
					543.859,51.79 544.869,52.99 545.359,53.53 546.549,54.77 547.039,55.39 547.399,56.05 547.439,56.16 547.77,56.8 547.89,56.98 
					547.959,57.19 547.979,57.35 				"/>
				<polyline fill="none" stroke="#666666" stroke-width="0.25" stroke-linejoin="round" stroke-miterlimit="3.8637" points="
					547.979,57.35 547.739,57.27 547.499,57.22 547.119,57.16 546.419,57.16 546.039,57.22 544.909,57.56 				"/>
				<polyline fill="none" stroke="#666666" stroke-width="0.25" stroke-linejoin="round" stroke-miterlimit="3.8637" points="
					537.06,51.37 537.39,51.62 537.569,51.88 537.899,52.57 538.189,53.04 538.289,53.14 538.439,53.37 538.819,53.74 
					539.009,53.87 539.209,53.91 539.449,53.87 539.759,53.72 539.879,53.7 540.079,53.7 540.549,53.85 540.909,54 541.14,54.13 
					541.369,54.29 541.449,54.49 541.739,55.24 541.919,55.43 542.029,55.48 542.619,55.57 542.97,55.66 543.509,55.9 
					544.119,56.29 544.419,56.58 544.659,56.87 544.819,57.17 544.89,57.37 544.909,57.56 				"/>
				<path fill="none" stroke="#666666" stroke-width="0.25" stroke-linejoin="round" stroke-miterlimit="3.8637" d="M572.009,56.32
					c0,0,0.15,0.93,1.021,1.57c0.85,0.63,1.83-0.29,1.83-0.29l0.81-0.6l0.021,0.01l0.688,0.19l0.341,0.08l0.75,0.3l0.619,0.18
					l0.99,0.18l0.939,0.2l1.221,0.07l0.24-0.06l0.229-0.57l0.2-0.3l0.149-0.18l0.399-0.4l0.36-0.28l0.54-0.32l0.51-0.23l1.01-0.31
					l1.271-0.47"/>
				<polyline fill="none" stroke="#666666" stroke-width="0.25" stroke-linejoin="round" stroke-miterlimit="3.8637" points="
					568.539,54.91 568.169,54.97 567.339,55.24 567.119,55.37 566.939,55.57 566.789,55.79 566.749,56 566.759,56.11 567.109,56.93 
					567.199,57.28 567.159,57.5 566.999,57.71 566.779,57.85 566.569,58.04 566.369,58.37 565.949,59.35 565.47,60.31 
					565.379,60.54 565.329,60.73 565.35,60.92 565.379,61.03 565.47,61.24 565.749,61.81 565.829,62.23 565.859,62.47 
					565.869,62.95 565.789,63.52 565.799,63.92 565.869,64.1 565.979,64.31 566.359,64.78 566.569,65.1 566.659,65.31 
					566.749,65.59 566.779,65.83 566.779,66.14 566.669,66.73 566.689,66.83 				"/>
				<polyline fill="none" stroke="#666666" stroke-width="0.25" stroke-linejoin="round" stroke-miterlimit="3.8637" points="
					586.079,68.53 585.359,68.18 585.229,68.16 584.64,68.11 584.43,68.16 584.329,68.12 584.22,68.02 584.069,67.72 583.77,67.29 
					583.499,66.83 583.069,66.2 582.869,66.02 582.77,66.06 582.669,66.13 582.569,66.24 582.369,66.54 582.199,66.73 
					582.079,66.81 581.899,66.87 581.779,66.88 581.689,66.87 581.479,66.77 581.359,66.66 581.149,66.31 580.829,65.47 
					580.77,65.26 580.739,65.17 580.659,64.79 580.579,64.18 580.439,63.85 579.999,63.25 579.909,63.19 579.749,63.37 
					579.629,63.68 579.569,63.79 579.409,64.14 579.239,64.36 579.039,64.57 578.919,64.66 578.549,64.85 578.43,64.87 
					578.189,64.87 577.839,64.78 577.249,64.54 576.749,64.27 576.539,64.2 576.439,64.16 576.229,64.16 575.999,64.2 
					575.899,64.39 575.869,64.57 575.759,64.77 575.619,64.87 575.159,65.08 575.1,65.18 575.039,65.27 575.029,65.39 575.049,65.7 
					575.049,65.74 574.979,65.87 574.799,66.08 574.47,66.37 574.02,66.68 573.669,66.85 573.339,66.97 572.52,67.37 571.839,67.67 
					571.209,67.97 570.979,68.04 570.859,68.04 570.459,67.89 569.779,67.41 569.549,67.29 569.009,67.18 568.409,67.16 
					567.959,67.12 566.689,66.83 				"/>
				<polyline fill="none" stroke="#666666" stroke-width="0.25" stroke-linejoin="round" stroke-miterlimit="3.8637" points="
					566.689,66.83 566.489,66.79 566.27,66.79 566.009,66.88 565.199,67.36 565.109,67.45 564.629,67.81 564.409,68.02 
					563.879,68.58 563.689,68.74 563.31,69.22 563.049,69.49 562.609,70.14 562.409,70.52 				"/>
				<polyline fill="none" stroke="#666666" stroke-width="0.25" stroke-linejoin="round" stroke-miterlimit="3.8637" points="
					562.409,70.52 562.289,70.37 561.989,70.1 561.859,69.81 561.659,69.06 561.209,67.67 561.089,67.06 560.939,66.56 
					560.819,66.5 560.689,66.54 559.799,66.83 559.399,67 559.249,66.97 559.02,66.92 558.509,66.71 558.109,66.58 557.539,66.41 
					556.829,66.27 555.529,66.06 554.789,65.87 554.549,65.79 554.339,65.68 554.1,65.47 553.859,65.24 553.729,65.05 
					553.539,64.64 553.47,64.54 552.669,63.85 552.149,63.27 551.899,62.93 551.579,63.04 551.339,63.06 550.749,63.01 550.659,63 
					550.449,62.86 550.049,62.45 549.239,61.78 548.579,61.18 548.449,60.89 548.43,60.74 548.449,60.62 548.569,60 548.699,59.56 
					548.699,59.44 548.789,58.97 548.829,58.51 548.759,58.27 548.579,57.95 548.189,57.47 547.979,57.35 				"/>
				<polyline fill="none" stroke="#666666" stroke-width="0.25" stroke-linejoin="round" stroke-miterlimit="3.8637" points="
					532.319,77.83 535.52,75.97 536.409,75.5 537.39,75.14 537.839,74.95 538.189,74.77 538.379,74.62 538.47,74.52 538.489,74.41 
					538.449,74.32 538.35,74.21 537.989,74.08 537.789,73.89 537.669,73.67 537.629,73.56 537.659,73.35 537.789,73.09 
					538.319,72.68 538.68,72.33 538.939,71.91 539.119,71.41 539.329,71 539.539,70.81 539.619,70.78 539.749,70.78 540.229,70.91 
					540.359,70.95 540.459,70.91 541.399,70.45 543.289,69.91 543.459,69.68 543.579,69.37 543.619,69.28 543.619,69.06 
					543.569,68.95 543.359,68.52 543.249,68.23 543.209,67.93 543.18,67.46 543.199,67.08 543.249,66.68 543.339,66.37 
					543.409,65.98 543.439,65.66 543.369,65.42 543.229,65.2 542.869,65 542.129,64.77 541.449,64.62 541.039,64.48 540.949,64.43 
					540.739,64.3 540.629,64.2 540.569,63.97 540.569,63.77 540.72,63.24 540.899,62.71 541.159,62.12 541.89,61.74 542.069,61.52 
					542.22,61.2 542.31,60.81 542.379,60.6 542.549,60.29 542.729,60.08 542.97,59.89 543.199,59.75 543.439,59.65 543.949,59.37 
					544.379,58.99 544.539,58.81 544.649,58.69 544.749,58.45 544.789,58.33 544.859,58.02 544.909,57.56 				"/>
				<polyline fill="none" stroke="#666666" stroke-width="0.25" stroke-linejoin="round" stroke-miterlimit="3.8637" points="
					520.409,78.2 520.419,78.2 520.439,78.22 520.539,78.28 520.839,78.56 520.919,78.68 521.009,78.77 521.279,78.91 
					521.779,79.02 522.129,79.04 522.449,79.14 523.02,79.35 523.329,79.42 523.489,79.48 523.659,79.51 523.799,79.56 
					524.049,79.7 524.279,79.87 524.609,80.08 524.709,80.18 525.06,80.42 525.149,80.53 525.509,80.75 526.199,81.04 526.56,81.13 
					526.739,80.66 526.829,80.26 526.909,80.08 527.129,79.89 527.369,79.74 528.079,79.45 528.669,79.12 529.839,78.56 
					530.159,78.47 530.689,78.43 531.239,78.34 531.859,78.1 532.319,77.83 				"/>
				<polyline fill="none" stroke="#666666" stroke-width="0.25" stroke-linejoin="round" stroke-miterlimit="3.8637" points="
					532.319,77.83 532.729,77.95 533.339,78.2 533.579,78.29 534.869,78.83 535.499,79.04 535.999,79.27 536.43,79.31 
					537.299,79.27 538.299,79.29 538.839,79.36 539.52,79.5 540.129,79.54 540.419,79.58 540.839,79.69 541.14,79.81 542.039,80.27 
					542.449,80.52 542.659,80.6 542.759,80.62 542.97,80.6 543.18,80.53 543.81,80.2 543.899,80.18 543.989,80.2 544.069,80.29 
					544.109,80.39 544.109,80.52 544.079,80.62 543.6,81.71 543.479,82.03 543.419,82.35 543.439,82.64 543.479,82.83 
					543.549,83.04 543.72,83.35 544.109,83.83 544.439,84.17 544.859,84.59 545.1,84.79 545.43,84.95 546.289,85.18 546.829,85.36 
					547.049,85.48 547.259,85.63 547.489,85.87 547.909,86.53 548.069,86.74 548.499,87.07 548.85,87.28 549.93,87.68 
					550.319,87.88 550.439,87.95 550.499,88.06 550.589,88.29 550.619,88.57 550.619,89.08 550.579,90.41 550.489,91.67 				"/>
				<polyline fill="none" stroke="#666666" stroke-width="0.25" stroke-linejoin="round" stroke-miterlimit="3.8637" points="
					550.489,91.67 550.819,91.5 551.009,91.31 551.31,91 551.539,90.89 552.229,90.68 552.579,90.54 552.669,90.5 552.949,90.54 
					553.069,90.59 553.289,90.7 553.77,91.03 553.999,91.21 554.169,91.54 554.22,91.72 554.249,91.78 				"/>
				<polyline fill="none" stroke="#666666" stroke-width="0.25" stroke-linejoin="round" stroke-miterlimit="3.8637" points="
					562.409,70.52 562.279,70.69 561.999,71.23 561.72,71.96 561.299,72.87 560.919,73.83 560.699,74.23 559.979,75.39 
					559.199,76.56 558.989,76.85 558.909,77 558.459,77.64 558.369,77.8 558.119,78.13 557.999,78.37 557.729,78.95 557.289,79.77 
					557.069,80.26 556.919,80.77 556.89,81.08 556.909,81.28 557.039,81.85 557.119,82.03 557.169,82.12 557.899,82.22 
					559.169,82.3 559.789,82.41 560.409,82.56 561.129,82.87 561.359,83 562.039,83.32 562.649,83.65 562.659,83.75 562.629,83.84 
					562.529,84.55 562.449,84.83 562.329,85.15 562.119,85.43 561.779,85.64 561.549,85.76 560.85,86.05 560.64,86.23 
					560.169,86.75 559.829,86.8 559.489,86.77 559.159,86.8 559.069,86.81 558.779,86.96 558.359,87.31 555.959,88.39 
					555.539,88.67 555.129,88.9 554.619,89.23 554.539,89.33 554.379,89.51 554.339,89.62 554.31,89.8 554.359,89.92 554.779,90.24 
					554.97,90.43 555.149,90.73 555.249,90.91 555.369,91.25 555.459,91.58 555.499,91.78 555.479,91.87 555.439,91.98 
					555.319,92.05 555.209,92.08 555.109,92.09 554.909,92.08 554.709,92 554.249,91.78 				"/>
				<polyline fill="none" stroke="#666666" stroke-width="0.25" stroke-linejoin="round" stroke-miterlimit="3.8637" points="
					543.479,93 544.449,92.44 544.949,92.27 545.209,92.24 545.589,92.26 546.689,92.39 547.89,92.6 548.409,92.6 548.729,92.51 
					548.949,92.41 549.6,92.02 549.72,91.98 550.02,91.91 550.229,91.83 550.489,91.67 				"/>
				<polyline fill="none" stroke="#666666" stroke-width="0.25" stroke-linejoin="round" stroke-miterlimit="3.8637" points="
					554.249,91.78 554.31,91.96 554.449,92.16 554.549,92.26 554.749,92.41 555.029,92.56 555.459,92.7 555.779,92.73 
					556.119,92.71 556.579,92.64 556.869,92.51 557.079,92.47 557.289,92.45 557.499,92.53 557.619,92.62 557.85,92.86 
					558.229,93.43 558.499,93.73 558.779,93.99 559.229,94.23 559.729,94.33 559.999,94.37 560.279,94.37 560.369,94.34 
					560.479,94.25 560.499,94.15 560.489,93.39 560.569,93.29 560.669,93.31 560.879,93.41 561.319,93.76 561.869,94.36 				"/>
				<polyline fill="none" stroke="#666666" stroke-width="0.25" stroke-linejoin="round" stroke-miterlimit="3.8637" points="
					529.02,96.16 529.619,96.08 530.159,96.08 530.43,96.06 530.999,95.98 531.369,95.98 532.829,95.89 533.069,95.84 
					533.919,95.39 534.149,95.35 534.289,95.37 534.529,95.41 534.989,95.56 535.35,95.64 535.859,95.71 536.119,95.73 
					536.499,95.8 536.829,95.81 537.159,95.71 537.339,95.53 537.409,95.29 537.39,94.98 537.409,94.58 537.499,94.27 
					537.649,94.06 537.749,93.95 538.089,93.77 538.47,93.64 539.159,93.34 539.249,93.31 539.459,93.29 539.879,93.46 
					540.509,93.49 541.169,93.46 541.729,93.4 542.819,93.2 543.239,93.1 543.479,93 				"/>
				<polyline fill="none" stroke="#666666" stroke-width="0.25" stroke-linejoin="round" stroke-miterlimit="3.8637" points="
					515.619,84.22 515.64,84.25 515.669,84.45 515.609,84.79 515.539,85.09 515.339,85.62 515.239,85.85 515.159,86.08 
					515.159,86.29 515.189,86.39 515.369,86.59 515.819,87.01 516.299,87.4 516.449,87.59 516.449,87.68 516.369,87.77 
					516.129,87.89 515.779,87.94 515.64,87.94 515.329,87.97 514.77,88.06 514.419,88.41 513.619,89.39 513.409,89.68 513.39,89.79 
					513.81,90.08 514.799,90.66 515.149,90.88 515.609,91.27 516.029,91.67 516.199,91.89 516.39,92.17 516.81,92.89 516.879,93 
					517.089,93.13 517.209,93.16 518.1,93.22 518.569,93.34 519.319,93.58 519.959,93.83 520.169,93.97 520.789,94.45 
					520.869,94.57 520.999,94.9 521.069,95.35 521.119,95.77 521.209,95.95 521.31,96.06 521.399,96.12 521.709,96.14 
					522.509,96.13 524.169,95.98 524.999,95.86 525.81,95.83 526.789,95.81 527.609,95.87 527.919,95.92 529.02,96.16 				"/>
				<polyline fill="none" stroke="#666666" stroke-width="0.25" stroke-linejoin="round" stroke-miterlimit="3.8637" points="
					529.02,96.16 528.079,98.02 527.499,99.13 526.959,99.89 526.489,100.41 525.529,101.29 524.369,102.25 522.899,103.34 
					519.229,106.14 517.109,107.86 515.489,109.09 514.699,109.74 514.089,110.21 511.399,112.23 510.089,113.14 506.669,114.61 
									"/>
				<polyline fill="none" stroke="#666666" stroke-width="0.25" stroke-linejoin="round" stroke-miterlimit="3.8637" points="
					543.479,93 543.479,93.24 543.629,93.52 543.839,93.82 543.999,94.01 544.209,94.21 544.709,94.56 545.119,94.75 545.489,94.87 
					545.589,94.95 545.669,95.05 545.669,95.14 545.669,95.24 545.549,95.42 545.1,95.84 544.199,96.46 543.649,96.94 
					543.569,97.03 543.329,97.51 543.249,97.72 543.199,98 543.18,98.31 543.199,98.53 543.239,98.95 543.319,100.03 
					543.449,100.83 543.6,101.44 543.739,101.87 543.999,102.59 544.14,102.91 544.259,103.18 544.52,103.76 544.859,104.41 
					545.329,105.13 546.089,106.45 546.159,106.56 546.359,106.69 546.669,106.85 547.199,107.02 547.56,107.17 547.89,107.39 
					548.069,107.6 548.449,108.33 548.619,108.54 548.729,108.61 548.829,108.67 549.089,108.7 549.509,108.59 549.6,108.61 
					549.739,108.68 550.089,109.03 550.399,109.36 551.009,109.96 551.159,110.17 551.239,110.38 551.189,110.71 551.129,110.91 
					550.949,111.31 550.579,111.87 550.489,111.99 550.299,112.29 550.209,112.52 550.199,112.63 550.229,112.81 550.379,113.05 
					550.499,113.17 550.789,113.42 551.759,114.22 552.119,114.54 552.39,114.83 552.549,115.06 552.689,115.29 553.369,116.58 
					553.529,116.84 553.829,117.26 554.009,117.46 554.52,117.95 554.899,118.37 				"/>
				<polyline fill="none" stroke="#666666" stroke-width="0.25" stroke-linejoin="round" stroke-miterlimit="3.8637" points="
					572.689,108.12 572.049,108.46 571.619,108.77 571.419,108.99 571.289,109.2 571.079,109.5 570.93,109.81 570.72,110.06 
					570.199,110.47 570.119,110.56 569.939,110.91 569.829,111.24 569.669,111.58 569.289,112.12 568.949,112.52 568.699,112.83 
					568.56,113.06 568.319,113.53 568.289,113.66 568.02,114.24 567.869,114.31 567.419,114.39 566.249,114.73 565.829,114.89 
					565.379,115.09 565.14,115.23 564.829,115.42 564.369,115.79 563.609,116.58 563.159,116.98 562.829,117.22 562.329,117.43 
					561.319,117.62 560.539,117.79 559.829,118.12 559.609,118.16 558.979,118.16 558.439,118.08 557.879,118.04 557.539,118.1 
					556.319,118.46 555.959,118.46 555.06,118.34 554.899,118.37 				"/>
				<polyline fill="none" stroke="#666666" stroke-width="0.25" stroke-linejoin="round" stroke-miterlimit="3.8637" points="
					554.899,118.37 555.709,119.33 555.989,119.65 556.299,119.92 556.529,120.07 557.009,120.26 557.549,120.43 557.689,120.45 
					557.919,120.46 558.569,120.37 558.869,120.39 558.959,120.43 559.089,120.5 559.199,120.59 559.279,120.68 559.379,120.91 
					559.409,121.09 559.419,121.62 559.399,121.93 559.409,123.2 559.379,123.4 559.319,123.61 558.979,124.37 				"/>
				<polyline fill="none" stroke="#666666" stroke-width="0.25" stroke-linejoin="round" stroke-miterlimit="3.8637" points="
					558.979,124.37 558.899,124.5 558.839,124.69 558.829,124.81 558.839,125.04 558.959,125.24 559.199,125.47 559.909,125.95 
					560.799,126.66 560.97,126.85 560.989,126.95 560.97,127.06 560.869,127.16 560.549,127.3 560.149,127.39 560.039,127.46 
					559.909,127.66 559.859,127.87 559.859,128.09 559.919,129.01 559.959,129.25 559.999,129.37 560.119,129.56 560.209,129.68 
					560.31,129.76 560.369,129.85 560.43,129.95 560.43,130.16 560.359,130.37 560.129,130.74 559.799,131.14 559.449,131.51 
					559.379,131.64 559.279,131.93 559.249,132.16 559.169,132.88 559.199,133.48 559.279,133.79 560.489,135.85 560.339,135.94 
					560.009,135.95 559.869,135.92 559.47,135.76 559.02,135.48 558.619,135.2 558.199,134.89 557.569,134.37 557.009,133.96 
					556.589,133.63 556.299,133.34 555.909,132.82 555.649,132.5 555.549,132.41 555.229,132.17 555.029,132.08 554.579,131.93 
					554.039,131.87 553.539,131.89 552.869,132.01 552.299,132.16 552.02,132.26 551.399,132.64 550.699,133.27 550.209,133.62 
					549.909,133.81 541.439,135.89 539.189,135.99 536.069,136.08 521.329,139.48 				"/>
				<polyline fill="none" stroke="#666666" stroke-width="0.25" stroke-linejoin="round" stroke-miterlimit="3.8637" points="
					558.979,124.37 559.109,124.42 559.35,124.39 559.869,124.42 560.659,124.41 561.909,124.2 562.68,123.92 563.119,123.7 
					563.27,123.52 563.689,122.91 563.949,122.6 564.079,122.5 564.18,122.42 564.39,122.35 564.6,122.32 564.93,122.33 
					565.529,122.44 566.359,122.64 566.579,122.65 566.699,122.62 566.789,122.56 567.02,122.23 567.089,122.14 567.299,121.98 
					567.509,121.84 567.81,121.74 568.369,121.58 568.89,121.42 569.479,121.03 569.779,120.88 570.02,120.77 570.499,120.62 
					571.189,120.43 571.609,120.26 572.159,120 573.02,119.53 573.329,119.39 573.549,119.33 573.859,119.32 574.189,119.33 
					575.169,119.51 575.459,119.5 575.799,119.41 576.419,119.18 576.629,119.14 576.72,119.16 576.829,119.21 576.899,119.33 
					576.899,119.42 576.879,119.51 576.829,119.62 576.619,119.91 576.579,120.12 576.629,120.31 576.629,120.4 576.419,120.41 
					576.229,120.39 575.999,120.43 575.879,120.62 575.909,120.73 576.029,120.92 576.119,121.03 576.369,121.21 576.689,121.37 
					577.02,121.46 577.289,121.51 577.77,121.54 578.279,121.6 578.669,121.7 579.229,121.9 579.909,122.23 580.829,122.7 
					581.249,122.84 582.369,123.35 583.709,124.04 585.089,124.6 585.409,124.76 585.6,124.93 585.72,125.12 585.959,126.02 
					586.02,126.37 586.109,126.61 586.35,126.94 586.539,127.14 586.869,127.41 587.579,128.05 587.799,128.18 588.089,128.29 
					588.289,128.41 588.449,128.62 588.539,128.91 588.569,129.08 588.509,129.55 588.39,130 588.109,130.72 588.029,130.93 
					587.989,131.12 587.949,131.35 587.949,131.79 588.029,133.08 588.06,133.87 588.039,134.09 587.989,134.33 587.85,134.74 
					587.779,135.07 587.759,135.17 587.789,135.29 587.899,135.41 588.869,136.23 589.539,136.66 591.229,137.95 591.979,138.62 
					593.1,139.7 593.869,140.27 594.18,140.49 594.449,140.65 594.749,140.71 594.949,140.7 595.56,140.56 595.789,140.56 
					595.89,140.64 595.919,140.8 595.789,141.02 595.539,141.33 595.169,141.64 594.669,141.97 594.39,142.14 594.18,142.24 
					593.499,142.45 593.029,142.64 592.659,142.84 592.319,143.08 591.909,143.38 591.689,143.6 591.199,144.17 590.31,145.79 
					590.079,146.18 589.829,146.71 				"/>
				<polyline fill="none" stroke="#666666" stroke-width="0.25" stroke-linejoin="round" stroke-miterlimit="3.8637" points="
					547.859,209.16 548.009,209.35 548.359,209.77 				"/>
			</g>
		</g>
	</g>
</g>
<path fill="#86BA3A" d="M329.999,189.917c-0.223-1.773-1.234-2.938-1.921-4.32c-12.146-0.012-15.479-9.404-20.159-16.8
	c-1.609-2.542-3.508-6.373-6.479-7.44c-1.688,1.292-4.771,1.376-6,3.12c-0.688,0.967-0.586,2.285-0.961,3.6
	c-1.808,6.348-0.19,12.449,0,18.72c-1.295,0.863-2.037,1.976-4.08,2.16c-0.562-1.52-1.119-3.041-1.68-4.56
	c-1.049-3.444-1.173-7.122-2.4-10.08c-0.611-1.476-0.514-3.875-2.159-4.32c-0.726,0.446-3.646,0.491-4.8,0.24
	c-4.564-0.996-9.256-1.392-13.92-2.4c-9.779-2.115-17.922,7.697-21.359,12.48c-1.367,1.902-4.248,3.99-4.561,6.72
	c1.16,1.313,1.041,2.87,3.6,2.88c1.574,1.068,3.652,1,5.041,2.16c1.648,1.38,2.543,4.014,3.84,5.76c0.561,0.48,1.119,0.96,1.68,1.44
	c0.16,1.44,0.32,2.88,0.479,4.32c0.586,2.036,1.791,4.211,2.399,6.24c0.08,0.8,0.16,1.6,0.238,2.4
	c0.479,1.335,1.639,2.11,1.922,3.84c-1.119,1.2-2.24,2.4-3.359,3.6c-3.021,2.253-8.606,5.658-12.721,6.479
	c-1.754,0.351-4.313-0.714-6.479-0.72c-6.56,0-13.121,0-19.681,0c0,0.16,0,0.32,0,0.48c-1.114,1.424-2.119,7.958-1.438,11.04
	c1.09,4.949,1.349,9.995,2.399,15.12c0.427,2.076-0.596,4.372-0.721,6.24c-0.959,0.16-1.922,0.32-2.882,0.48
	c-1.934-2.821-5.822-4.062-8.4-6.24c-0.741-0.626-2.464-2.116-1.92-3.84c0.604-1.912,2.074-1.706,2.16-5.04
	c-1.312-1.406-2.092-3.624-4.08-4.32c-1.262,1.007-4.629,0.922-6.24,0.24c-4.425-1.873-7.092-6.447-10.8-9.12
	c-1.176-0.848-3.975-1.526-4.56-2.88c-3.393-3.541,1.68-10.248,3.12-12.24c0.838-1.159,0.971-2.514,2.88-2.64
	c1.292,0.973,6.463,2.599,7.92,1.2c0.462-0.444,0.427-1.283,0.96-1.68c1.226-0.916,2.567-1.037,3.12-2.64
	c0.435-0.837-1.211-3.202-1.68-4.08c-1.992-3.736-4.622-7.064-5.76-11.52c-0.759-2.971,1.349-5.219-0.24-7.2
	c-1.034-1.289-3.638-0.709-5.28-1.44c-0.614-0.273-0.782-0.902-1.44-1.2c-1.369,1.234-8.066,3.664-11.28,2.88
	c-1.279-0.312-6-2.16-6-2.16c-2.449,2.418,0.889,7.608,2.4,9.12c-0.83,3.725-7.062,9.649-11.28,9.84
	c-1.569-1.903-6.406-4.188-8.64-5.76c-4.636-3.264-8.978-6.727-13.92-9.84c-2.205-1.389-4.557-3.752-7.68-4.08
	c-1.617,1.289-3.8,1.715-5.04,3.36c-1.63,2.164-3.464,6.115-5.52,7.68c-2.372,1.805-5.803,3.013-7.44,5.52
	c-0.93,1.425-0.941,4.222-1.68,5.76c-0.56,0.08-1.12,0.16-1.68,0.24c-1.49-1.197-3.413-1.842-4.56-3.36
	c-1.778-2.355-3.643-5.447-6-7.2c-1.095-0.814-2.616-1.226-3.6-2.16c-6.29,3.244-7.43-0.697-12.24-2.4
	c-1.288-0.456-3.897,0.251-4.32,0c-1.307-0.896-1.688-2.585-2.64-3.84c-0.477-0.629-1.74-0.814-2.16-1.44
	c-0.08-0.4-0.16-0.8-0.24-1.2c-0.626-1.218-1.659-2.027-1.92-3.6c2.271-1.033,4.406-2.577,6.48-3.84
	c5.014-3.054,11.14-5.262,17.52-6.72c3.458-7.439,9.612-13.536,15.84-18.24c3.471-2.621,5.953-6.641,9.12-9.6
	c-0.55-3.751-2.033-8.798-0.72-13.2c2.989-10.025,13.438-21.696,26.88-18.72c3.477,0.77,6.275,0.512,9.12,1.68
	c3.568,1.465,5.441,3.764,7.92,6.24c1.201,0.046,2.253,0.027,2.88-0.479c1.303-1.473,1.727-3.968,2.88-5.521
	c0.88-0.8,1.76-1.6,2.64-2.4c2.791-2.791,5.877-5.614,7.92-9.12c0.855-1.469,0.394-3.111,0.96-5.04
	c0.51-1.736,2.729-4.263,4.08-5.28c8.414-6.335,19.296-10.102,25.2-18.96c3.316-4.976,5.683-10.885,9.12-15.6
	c0.858-1.181,3.091-4.79,4.563-4.32c1.479,0.458,1.684,1.924,2.641,2.88c-0.168,1.212-0.951,2.865-0.48,4.56
	c1.236,4.468,8.674,7.915,12.721,9.84c0.006,13.43,12.994,19.75,21.119,25.439c6.332,4.433,12.519,9.366,18.961,13.68
	c2.942,1.97,5.951,3.92,8.879,5.76c0.955,0.599,2,0.769,2.883,1.44c2.01,1.533,3.146,6.63,4.801,7.92
	c1.541,1.203,3.232,1.973,4.801,3.12c3.162,2.32,5.884,5.404,8.642,8.16c1.04,0.959,2.08,1.92,3.118,2.88
	c4.172,5.515,8.96,10.627,12.962,16.32c1.229,1.752,3.538,6.585,5.276,7.44c2.882,1.948,14.315,1.276,17.762,0.24
	c1.326-0.4,4.082-2.034,5.04-1.68c1.969,0.656,2.765,2.53,4.078,3.84c-0.278,4.844-2.911,10.547-4.316,14.88
	c-1.477,4.537-1.025,10.11-0.479,14.88c-0.16,0-0.316,0-0.479,0c-1.655-1.118-4.32-0.863-6.479-1.44
	C338,191.676,333.999,190.796,329.999,189.917z"/>
<path fill="#86BA3A" d="M217.438,226.876c5.438-0.08,10.881-0.16,16.318-0.24c0.982,0.204,8.951,1.074,9.359,0.96
	c3.771-1.055,7.604-3.308,10.561-5.28c2.289-1.529,6.279-3.505,6.479-6.96c-1.57-1.301-4.39-10.375-5.039-12.96
	c-0.349-1.368,0.157-2.806-0.479-3.84c-0.479-0.4-0.962-0.8-1.438-1.2c-1.443-1.944-2.617-5.068-4.562-6.48
	c-1.139-0.826-2.882-1.516-4.32-1.92c-0.721-0.08-1.438-0.16-2.159-0.24c-0.479-0.64-0.959-1.28-1.439-1.92
	c0.08-0.24,0.16-0.48,0.24-0.72c1.744-1.256,2.813-3.763,4.08-5.52c2.633-3.662,6.433-7.716,10.562-9.84
	c8.016-4.125,18.938,0.66,28.561,0.72c0,0.08,0,0.16,0,0.24c0.08,0,0.158,0,0.238,0c0.1,1.97,1.162,3.352,1.682,5.04
	c0.979,3.184,1.146,6.723,2.16,9.6c0.585,1.663,0.611,3.849,2.641,4.08c1.821-1.35,4.229-1.489,5.04-3.84
	c-0.708-1.034-0.387-2.643-0.721-4.08c-0.999-4.301-0.854-14.632,1.438-17.52c0.967-0.909,3.631-1.886,5.039-2.16
	c1.673,2.55,4.464,4.861,6.24,7.68c2.938,4.666,5.188,10.284,9.6,13.44c1.521,1.087,3.571,2.102,5.521,2.64
	c1.208,0.333,3.319-0.128,4.32,0.479c0.824,0.93,1.043,3.251,2.156,3.84c2.1,1.463,9.393,1.829,12.48,2.64
	c1.886,0.495,5.447,0.816,7.199,1.68c1.048,0.517,2.187,2.046,4.08,1.68c6.92-1.338,8.868-5.93,13.438-9.36
	c7.011-5.261,14.201-9.9,21.84-14.64c2.234-1.386,7.416-5.437,10.08-5.76c0.634,0.946,1.584,1.604,1.92,2.88
	c0.875,3.317-2.764,8.006-1.92,11.76c0.654,2.912,2.857,3.711,2.88,6.96c-1.211,1.87-0.638,6.745-1.196,9.36
	c-2.122,9.868,1.166,22.977,6.479,26.88c1.673,1.229,4.333,1.698,6.72,2.16c0.16,1.04,0.32,2.08,0.479,3.12
	c1.446,3.551,4.485,5.852,7.921,7.44c-0.641,2.08-1.28,4.16-1.921,6.24c-0.608,2.182-0.384,4.001-0.96,6.24
	c-0.81,3.134-1.654,6.561-2.399,9.6c-2.479,0.057-4.118,1.059-6,1.68c-2.768,0.915-5.68,1.438-8.396,2.16
	c-9.051,2.4-18.841-0.478-24.24-4.08c-1.912-1.276-2.98-3.671-4.8-5.04c-7.566-5.692-13.394-12.938-21.12-18.48
	c-2.332-1.671-4.446-3.133-7.199-4.56c-0.554-0.287-2.08-1.664-2.881-1.44c-0.563,0.158-1.421,1.553-1.92,1.92
	c-2.238,1.646-4.646,3.34-6.96,4.8c-8.911,5.626-18.696,10-24.239,18.96c-1.248,2.017-2.001,4.7-2.641,7.2
	c-0.335,1.313,0.176,3.497-0.479,4.56c-0.34,0.23-0.786,0.234-1.438,0.24c-2.262-2.219-5.68-3.562-8.399-5.28
	c-4.659-2.941-9.021-6.035-14.397-8.4c-1.607-0.706-2.943-1.841-5.041-2.16c-0.98,3.228-3.707,5.886-5.521,8.4
	c-5.145,7.132-11.617,12.939-16.799,19.92c-1.619,2.182-3.369,4.453-4.803,6.721c-0.42,0.666-0.779,2.525-1.438,2.879
	c-0.563,0-1.121,0-1.68,0c-2.4-0.561-4.804-1.117-7.201-1.68c-5.771-1.91-11.541-4.432-18.479-5.039
	c-0.826-1.33-2.063-2.523-2.879-3.842c-2.971-4.797-3.531-10.978-3.602-18.719c1.029-0.515,2.738-0.754,3.84-1.2
	c1.031-8.1,0.156-14.769-1.439-22.08C215.656,233.426,217.078,229.59,217.438,226.876z"/>
<path fill="#86BA3A" d="M28.079,336.795c-5.62,0.041-8.221,3.209-12.479,4.318c-2.616,0.684-4.527-1.725-5.76-2.641
	c-2.929-2.176-9.572-10.938-9.84-15.357c1.516-1.552,2.178-3.607,4.08-4.802c0.971-0.606,2.472-1.149,3.6-1.438c0.8,0,1.6,0,2.4,0
	c0.404-0.164,1.056-0.965,1.44-1.197c2.162-1.325,4.974-2.528,7.44-3.36c4.964-1.67,10.693-1.681,15.36-3.603
	c4.768-1.959,9.154-4.844,13.2-7.68c4.077-2.854,9.627-6.808,11.76-11.521c1.564-3.459,0.876-8.353,2.16-12.24
	c0.798-2.418,2.554-4.687,4.08-6.479c4.996-5.875,17.816-9.521,18-19.919c-0.51-0.526-2.501-3.187-2.64-3.84
	c2.065-2.56,3.026-11.734,1.92-16.08c-0.372-1.462-1.841-3.82-1.44-5.52c0.482-2.043,3.487-3.903,2.4-7.2
	c-0.565-1.715-2.637-3.607-3.36-6c-1.037-3.431-0.081-7.499-0.96-11.28c-0.747-3.211-1.707-5.569-3.12-7.92c0.72,0,1.44,0,2.16,0
	c1.375,1.095,6.098,3.638,7.92,4.08c2.334,0.567,4.313-1.427,5.52-0.96c3.506,1.174,7.01,6.786,9.6,9.36
	c1.713,1.702,3.844,3.48,7.2,2.16c0.215-0.443,1.179-1.321,1.2-1.68c0.113-1.939-0.102-3.333,0.96-4.8
	c1.364-1.884,4.102-2.701,6-4.08c1.798-1.306,3.558-3.905,4.8-5.76c0.981-1.466,4.117-6.149,6.24-5.28
	c2.985,0.752,5.38,3.026,7.68,4.56c5.257,3.506,10.202,6.945,15.36,10.56c2.073,1.453,4.408,3.997,7.2,4.56
	c0.974-0.844,2.462-0.986,3.6-1.68c2.82-1.721,5.13-3.738,6.96-6.48c0.563-0.843,1.897-2.536,1.44-3.6
	c-0.432-2.968-2.907-3.73-3.12-6.96c0.16,0,0.32,0,0.48,0c0.689,0.641,1.608,0.613,2.64,0.96c5.076,1.706,9.453-0.796,13.44-1.92
	c1.177,1.37,4.789,0.665,5.52,2.4c0.362,0.685-0.072,1.654-0.24,2.4c-0.426,1.889,0.206,4.372,0.72,5.76
	c1.672,4.518,5.962,7.909,6.72,12.96c-0.844,0.44-1.853,0.859-2.64,1.44c-0.563,0.416-0.768,1.678-1.44,1.92
	c-1.263,0.455-5.667-1.746-7.68-1.92c-4.765,5.049-8.164,8.879-6,18c1.827,1.043,3.86,1.889,5.52,3.12
	c5.827,4.319,7.219,10.326,17.52,9.12c0.8,0.88,1.6,1.76,2.4,2.64c0,0.56,0,1.12,0,1.68c-1.057,0.792-1.952,2.21-2.16,3.84
	c1.246,1.867,0.834,3.549,2.88,5.04c2.438,1.777,7.542,2.521,7.68,6.48c-0.982,1.479-0.177,5.927,0,7.68
	c0.544,5.372,2.639,9.69,5.041,13.2c1.076,1.572,1.322,3.15,4.08,3.121c2.479,0.561,4.959,1.119,7.439,1.68
	c5.703,1.891,11.246,3.65,17.76,5.039c0,0.16,0,0.32,0,0.48c-0.734,1.143-0.352,2.746-0.721,4.318
	c-1.355,5.783,0.275,13.454-1.199,19.197c-0.846,3.287-1.84,6.475-3.6,8.883c-0.734,1.006-2.141,1.609-2.881,2.641
	c-2.117,2.94-5.74,10.967-4.32,17.039c0.535,2.285,1.388,4.438,1.92,6.479c-6.215,1.695-8.465,9.274-16.318,9.359
	c-0.719-1.035-1.992-1.533-2.881-2.398c-2.391-2.336-7.555-7.525-13.44-6c-3.718,0.967-6.639,3.146-9.84,4.561
	c-3.239,1.432-7.07,2.36-10.56,3.36c-4.759,1.36-16.723,3.075-22.8,1.681c-0.88,0-1.76,0-2.64,0c-3.6-0.643-7.201-1.277-10.8-1.92
	c0,0.08,0,0.16,0,0.239c0.287,0.472,0.03,1.198,0.24,1.921c0.396,1.357,1.311,3.084,1.92,4.799c0.506,0.285,1.008,0.98,1.44,1.201
	c0.95,0.477,1.824,0.217,2.64,0.719c1.111,0.688,2.019,1.953,3.12,2.643c1.82,1.137,3.834,0.588,4.56,2.881
	c-2.044,2.281-1.192,9.895-1.44,13.682c-2.849,1.584-6.764,2.549-9.84,3.84c-0.8,0.24-1.6,0.479-2.4,0.721
	c-1.345,1-1.354,3.775-3.12,4.318c-1.309,0.965-3.678,0.482-5.28,1.201c-1.49,0.666-3.437,2.984-4.32,4.318
	c-6.066,9.152-0.385,21.096,4.32,27.357c1.131,1.51,3.265,3.463,4.8,4.563c0.84,0.602,2.268,0.873,2.88,1.682
	c1.788,2.355-0.297,3.582,0.48,6c0.502,1.563,2.313,2.301,2.88,3.84c-1.52,0-3.041,0-4.56,0c-0.636,0.396-1.561,0.227-2.4,0.479
	c-1.802,0.543-3.963,1.211-5.52,2.16c-2.208,1.348-4.29,3.926-6.72,4.799c0-0.08,0-0.158,0-0.236c-3.234-2.363-4.238-9.861-6-13.922
	c-1.202-2.77-3.29-5.67-5.76-7.197c-1.167-0.727-2.636-0.65-3.84-1.439c-0.664-0.436-0.759-1.699-1.2-2.396
	c-0.89-1.414-2.49-2.887-4.32-3.361c-2.028,6.225-12.837,3.459-17.52,1.682c-1.673-0.635-4.876-0.783-5.52-2.396
	c1.969-1.646,2.768-5.398,3.84-7.921c3.034-7.134,6.107-17.771,4.08-28.319c-4.546-1.219-6.833-8.228-10.08-8.642
	c-0.539,0.466-1.488,0.64-1.92,1.2c-0.755,0.979-0.747,2.307-1.92,2.88c-2.667,1.681-8.899-3.067-9.84-4.319
	c-2.144-2.854-4.091-5.771-6.24-8.641c-4.38-5.843-12.874-10.447-20.16-13.439c-4.033-1.652-7.976-2.711-11.52-4.561
	c-1.409-0.732-3.267-1.098-3.84-2.643c-0.543-0.896-0.003-2.479,0-3.84C28.568,342.102,28.246,339.438,28.079,336.795z"/>
<path fill="#86BA3A" d="M416.158,261.196c-0.032,3.687,0.029,7.073,1.438,9.36c1.253,2.028,3.292,1.896,3.36,5.28
	c0.724,1.199,0.126,3.244,0.479,4.799c0.766,3.363,1.14,6.927,2.399,9.841c0.42,0.971,1.793,2.401,1.438,3.36
	c-1.14,3.771-4.245,7.031-6.721,9.601c-2.668,0.086-4.898-0.468-8.159-0.479c-0.739,1.016-1.857,1.135-2.157,2.644
	c-1.165,1.586,0.45,8.18,1.438,8.879c1.12,0,2.24,0,3.359,0c1.315,0.801,4.02-0.14,5.761,0.237c2.486,0.537,5.378,0.729,7.68,1.199
	c0,0.08,0,0.16,0,0.24c-1.498,2.184-1.957,5.622-3.356,7.92c-3.479,5.696-7.846,10.321-13.199,14.159
	c-1.926,1.38-4.206,3.673-6.721,4.32c-1.885,0.485-3.979-0.89-5.04-1.438c-3.374-1.752-6.155-4.267-9.604-5.761
	c-8.137-3.532-19.504,0.146-25.92,2.879c-2.316,0.988-5.085,1.681-6.72,3.361c-0.422-0.152-0.233-0.048-0.48-0.24
	c-3.461-3.362-6.243-7.844-9.119-11.76c-5.078-6.919-11.047-13.406-16.078-20.399c-1.928-2.675-3.904-5.287-5.763-7.921
	c-0.586-0.832-1.269-2.937-2.159-3.36c-0.801,0-1.601,0-2.396,0c-0.552,0.44-1.348,0.522-1.92,0.961
	c-0.4,0.563-0.801,1.119-1.2,1.683c0.174,1.713,0.854,2.621,0.479,4.563c-0.803,0.521-1.357,1.428-2.157,1.92
	c-2.331,1.438-6.527,2.289-9.843,2.397c-2.059-2.76-6.894-3.386-10.316-4.801c-3.958-1.638-6.718-3.813-9.36-6.724
	c-3.793-0.328-8.322-0.313-10.8,1.44c-0.776,0.552-1.138,1.821-1.681,2.64c-3.484,5.246-5.293,13.897,0,18.961
	c-0.18,0.938-0.418,1.563-1.2,1.92c-1.796,1.234-4.606,1.021-6.959,1.683c-3.5,0.979-7.666,1.836-10.562,3.604
	c-1.544,0.938-3.729,2.401-4.802,3.84c-0.823,1.103-1.378,3.213-2.88,3.601c-0.245-0.192-0.064-0.086-0.479-0.239
	c-1.438-2.882-2.879-5.761-4.319-8.642c3.817-2.69,4.341-8.771,5.521-14.16c0.358-1.638-0.05-3.938,0.24-5.278
	c0.9-4.166-0.438-8.449,0.479-12.24c3.354-13.82,14.935-21.242,22.32-31.199c1.691-2.28,3.543-4.592,5.041-6.96
	c0.734-1.163,0.861-2.757,2.398-3.12c0.957,0.753,2.193,0.86,3.359,1.44c2.86,1.423,5.894,3.073,8.642,4.8
	c3.325,2.091,6.729,4.259,10.08,6.479c1.12,0.744,2.52,2.217,3.84,2.641c3.574,1.144,3.609-1.57,3.6-4.32
	c0.59-0.947,0.353-2.457,0.724-3.6c0.729-2.239,1.846-4.656,3.116-6.48c5.258-7.516,14.424-11.655,22.32-16.56
	c2.146-1.332,4.395-2.82,6.479-4.32c0.688-0.493,1.588-2.189,2.881-1.92c3.104,0.647,7.921,5.174,10.317,6.96
	c6.761,5.032,11.973,11.489,18.723,16.56c1.219,0.916,2.177,2.38,3.119,3.6c1.035,1.34,5.042,3.592,6.721,4.32
	c5.894,2.559,15.813,3.223,23.04,1.199C408.638,263.438,412.399,262.316,416.158,261.196z"/>
<path fill="#86BA3A" d="M281.519,299.356c1.172-0.039,2.444-0.008,3.121,0.479c1.545,0.608,2.471,2.683,3.84,3.604
	c3.476,2.338,7.918,3.252,11.999,5.039c1.993,0.873,3.115,2.729,5.764,2.881c1.31-0.793,3.469-0.479,5.04-0.961
	c3.287-1,7.267-2.396,8.16-5.76c0.407-1.55-0.388-2.679-0.479-4.08c0.816-0.392,1.147-0.66,2.399-0.724
	c1.729,3.022,4.271,5.619,6.236,8.399c5.83,8.244,12.057,15.904,18,24c0.804,1.091,2.079,2.033,2.88,3.121
	c4.424,6.004,9.153,11.89,12.724,18.72c5.763,11.034,2.616,24.237-6.239,29.76c-1.625,1.019-5.244,2.187-7.92,1.201
	c-1.054-0.388-2.616-1.838-3.36-1.681c-2.273,0.576-3.646,2.17-5.276,3.358c-4.81,3.498-8.679,7.709-13.684,11.041
	c-1.169,0.777-2.569,1.992-4.08,2.396c-0.8-0.076-1.6-0.156-2.396-0.236c-9.354,1.373-22.375-2.556-26.159,4.799
	c-0.422-0.149-0.232-0.045-0.48-0.239c-3.908-1.058-6.934-5.588-8.16-9.358c-0.479-1.479,0.092-4.201-0.719-5.521
	c-2.83-2.949-14.441-1.901-19.201-0.722c-11.846,2.938-36.34,7.578-45.356-0.723c1.688-7.125,10.517-13.211,15.84-17.04
	c1.729-1.243,5.519-3.508,6.479-5.276c0.613-1.129,0.252-4.146,0-5.28c-0.62-2.8-0.402-4.968-1.199-7.438
	c-0.715-2.214-1.951-4.33-2.641-6.479c-2.34-7.311,1.418-13.902,3.602-18.24c0.159,0,0.318,0,0.479,0
	c0.559,2.275,3.531,7.354,5.039,8.881c1.162,0.021,2.273-0.064,3.119-0.238c2.287-8.254,15.619-10.551,24.48-12.479
	c0.75-1.287,1.514-2.352,1.92-4.08c-1.367-0.896-1.955-2.463-2.641-4.08c-2.972-7.006,0.84-10.818,3.358-15.601
	C276.842,300.709,280.885,299.788,281.519,299.356z"/>
<path fill="#86BA3A" d="M236.64,352.157c1.812,2.072,2.156,8.701,2.159,12.719c-1.601,1.045-2.804,2.729-4.319,3.84
	c-5.174,3.805-10.625,7.043-14.397,12.24c-1.554,2.133-3.687,4.189-3.84,7.68c9.651,10.135,35.057,5.141,48.719,1.924
	c3.498-0.822,7.481-0.955,11.281-0.959c1.805-0.006,4.099-0.104,4.8,0.959c0,0.721,0,1.438,0,2.156
	c0.454,0.717,0.188,1.684,0.479,2.645c0.66,2.197,1.854,4.533,3.121,6.24c1.065,1.438,6.183,4.523,6.479,5.521
	c-0.987,1.229-1.312,2.971-2.159,4.318c-1,1.59-4.391,5.34-4.801,6.959c-0.454,1.789,2.896,10.383,3.602,11.762
	c0.627,1.225,1.762,3.268,0.721,4.803c-1.012,3.291-4.733,4.346-7.438,6c-6.415,3.918-11.255,8.521-18.721,11.52
	c-3.405,1.367-12.351,2.141-12.479,6.24c-0.848,1.471-0.234,5.797-0.721,7.68c-1.834,7.141-4.105,13.258-6.721,19.199
	c-0.766,1.74-1.334,4.857-3.119,5.521c-0.834-0.604-1.99-0.646-2.881-1.199c-3.217-1.996-5.051-5.408-10.801-4.316
	c-0.188-7.789-5.609-13.686-11.521-15.844c-2.429-0.887-5.137-0.607-7.68-1.438c-3.019-0.982-4.669-3.301-8.64-3.357
	c-0.476,0.463-2.508,2-3.12,2.16c-1.453-1.023-6.689-2.592-8.64-3.121c-0.88-0.08-1.76-0.16-2.64-0.24
	c-1.313,0.486-2.813,1.699-4.56,2.16c-3.827,1.014-9.567,0.174-13.2-0.238c-0.88-0.959-1.76-1.922-2.64-2.881
	c-1.077-2.43-1.432-8.34-1.44-11.76c-1.207-0.746-2.484-1.811-3.84-2.398c-1.889-0.826-4.459-1.227-5.76-2.643
	c-0.24-0.641-0.48-1.277-0.72-1.92c-0.686-1.098-1.964-2.404-2.88-3.359c1.698-7.463-3.894-7.576-7.2-11.277
	c-5.756-6.445-11.675-18.998-4.08-28.08c1.985-2.375,5.541-2.968,8.88-3.84c0.511-1.226,1.163-3.335,2.16-4.08
	c1.017-0.765,2.575-0.734,3.84-1.201c2.837-1.043,6.014-2.113,8.64-3.358c0.138-1.136,0.483-2.517,0.72-3.601
	c0.692-3.16-0.745-5.666,0-8.642c0.251-1.001,1.235-2.389,0.96-3.118c-0.233-1.738-1.371-2.433-2.16-3.603
	c-2.972,0.329-4.425-2.097-6.48-3.359c-1.039-0.641-2.413-0.471-3.12-1.438c-0.635-0.957-0.975-2.389-1.44-3.357c0.4,0,0.8,0,1.2,0
	c1.1,0.723,2.846,0.365,4.32,0.721c3.533,0.849,9.749,1.623,13.68,0.724c2-0.08,4-0.16,6-0.24c4.391-1.022,8.844-1.304,12.96-2.644
	c4.357-1.412,8.41-3.057,12.24-5.037c1.669-0.864,4.36-2.717,7.44-1.922c4.019,1.037,9.452,5.685,12,8.398
	c6.797,0.133,8.293-3.027,12-5.762C232.672,354.674,235.06,353.715,236.64,352.157z"/>
<text transform="matrix(1 0 0 1 170.1978 149.3325)" font-family="'MyriadPro-Regular'" font-size="12">Bir M&apos;chergua</text>
<text transform="matrix(1 0 0 1 282.1982 221.3325)" font-family="'MyriadPro-Regular'" font-size="12">Zaghouan</text>
<text transform="matrix(1 0 0 1 317.1982 284.3325)" font-family="'MyriadPro-Regular'" font-size="12">Ezzeriba</text>
<text transform="matrix(1 0 0 1 274.4385 359.4116)" font-family="'MyriadPro-Regular'" font-size="12">Saouaf</text>
<text transform="matrix(1 0 0 1 188.439 427.4116)" font-family="'MyriadPro-Regular'" font-size="12">Ennadhour</text>
<text transform="matrix(1 0 0 1 120.439 304.4116)" font-family="'MyriadPro-Regular'" font-size="12">El Fahs</text>
<text transform="matrix(1 0 0 1 85.5649 531.3833)" font-family="'MyriadPro-Regular'" font-size="24">Gouvernorat de Zaghouan</text>
</svg>
